<?xml version="1.0" encoding="utf-8" standalone="no"?>
<!DOCTYPE svg PUBLIC "-//W3C//DTD SVG 1.1//EN"
  "http://www.w3.org/Graphics/SVG/1.1/DTD/svg11.dtd">
<svg xmlns:xlink="http://www.w3.org/1999/xlink" width="460.8pt" height="345.6pt" viewBox="0 0 460.8 345.6" xmlns="http://www.w3.org/2000/svg" version="1.1">
 <metadata>
  <rdf:RDF xmlns:dc="http://purl.org/dc/elements/1.1/" xmlns:cc="http://creativecommons.org/ns#" xmlns:rdf="http://www.w3.org/1999/02/22-rdf-syntax-ns#">
   <cc:Work>
    <dc:type rdf:resource="http://purl.org/dc/dcmitype/StillImage"/>
    <dc:date>2024-03-09T14:41:15.737957</dc:date>
    <dc:format>image/svg+xml</dc:format>
    <dc:creator>
     <cc:Agent>
      <dc:title>Matplotlib v3.8.3, https://matplotlib.org/</dc:title>
     </cc:Agent>
    </dc:creator>
   </cc:Work>
  </rdf:RDF>
 </metadata>
 <defs>
  <style type="text/css">*{stroke-linejoin: round; stroke-linecap: butt}</style>
 </defs>
 <g id="figure_1">
  <g id="patch_1">
   <path d="M 0 345.6 
L 460.8 345.6 
L 460.8 0 
L 0 0 
z
" style="fill: #ffffff"/>
  </g>
  <g id="axes_1">
   <g id="patch_2">
    <path d="M 65.45 98.955833 
L 450 98.955833 
L 450 14.200352 
L 65.45 14.200352 
z
" style="fill: #e5e5e5"/>
   </g>
   <g id="matplotlib.axis_1">
    <g id="xtick_1">
     <g id="line2d_1">
      <path d="M 94.716712 98.955833 
L 94.716712 14.200352 
" clip-path="url(#p4cfcbb4b6a)" style="fill: none; stroke: #ffffff; stroke-width: 0.8; stroke-linecap: square"/>
     </g>
    </g>
    <g id="xtick_2">
     <g id="line2d_2">
      <path d="M 149.052808 98.955833 
L 149.052808 14.200352 
" clip-path="url(#p4cfcbb4b6a)" style="fill: none; stroke: #ffffff; stroke-width: 0.8; stroke-linecap: square"/>
     </g>
    </g>
    <g id="xtick_3">
     <g id="line2d_3">
      <path d="M 203.388904 98.955833 
L 203.388904 14.200352 
" clip-path="url(#p4cfcbb4b6a)" style="fill: none; stroke: #ffffff; stroke-width: 0.8; stroke-linecap: square"/>
     </g>
    </g>
    <g id="xtick_4">
     <g id="line2d_4">
      <path d="M 257.725 98.955833 
L 257.725 14.200352 
" clip-path="url(#p4cfcbb4b6a)" style="fill: none; stroke: #ffffff; stroke-width: 0.8; stroke-linecap: square"/>
     </g>
    </g>
    <g id="xtick_5">
     <g id="line2d_5">
      <path d="M 312.061096 98.955833 
L 312.061096 14.200352 
" clip-path="url(#p4cfcbb4b6a)" style="fill: none; stroke: #ffffff; stroke-width: 0.8; stroke-linecap: square"/>
     </g>
    </g>
    <g id="xtick_6">
     <g id="line2d_6">
      <path d="M 366.397192 98.955833 
L 366.397192 14.200352 
" clip-path="url(#p4cfcbb4b6a)" style="fill: none; stroke: #ffffff; stroke-width: 0.8; stroke-linecap: square"/>
     </g>
    </g>
    <g id="xtick_7">
     <g id="line2d_7">
      <path d="M 420.733288 98.955833 
L 420.733288 14.200352 
" clip-path="url(#p4cfcbb4b6a)" style="fill: none; stroke: #ffffff; stroke-width: 0.8; stroke-linecap: square"/>
     </g>
    </g>
   </g>
   <g id="matplotlib.axis_2">
    <g id="ytick_1">
     <g id="line2d_8">
      <path d="M 65.45 98.349799 
L 450 98.349799 
" clip-path="url(#p4cfcbb4b6a)" style="fill: none; stroke: #ffffff; stroke-width: 0.8; stroke-linecap: square"/>
     </g>
     <g id="line2d_9">
      <defs>
       <path id="m44e065492c" d="M 0 0 
L -3.5 0 
" style="stroke: #555555; stroke-width: 0.8"/>
      </defs>
      <g>
       <use xlink:href="#m44e065492c" x="65.45" y="98.349799" style="fill: #555555; stroke: #555555; stroke-width: 0.8"/>
      </g>
     </g>
     <g id="text_1">
      <!-- −1 -->
      <g style="fill: #555555" transform="translate(43.707813 102.149018) scale(0.1 -0.1)">
       <defs>
        <path id="DejaVuSans-2212" d="M 678 2272 
L 4684 2272 
L 4684 1741 
L 678 1741 
L 678 2272 
z
" transform="scale(0.015625)"/>
        <path id="DejaVuSans-31" d="M 794 531 
L 1825 531 
L 1825 4091 
L 703 3866 
L 703 4441 
L 1819 4666 
L 2450 4666 
L 2450 531 
L 3481 531 
L 3481 0 
L 794 0 
L 794 531 
z
" transform="scale(0.015625)"/>
       </defs>
       <use xlink:href="#DejaVuSans-2212"/>
       <use xlink:href="#DejaVuSans-31" x="83.789062"/>
      </g>
     </g>
    </g>
    <g id="ytick_2">
     <g id="line2d_10">
      <path d="M 65.45 56.578093 
L 450 56.578093 
" clip-path="url(#p4cfcbb4b6a)" style="fill: none; stroke: #ffffff; stroke-width: 0.8; stroke-linecap: square"/>
     </g>
     <g id="line2d_11">
      <g>
       <use xlink:href="#m44e065492c" x="65.45" y="56.578093" style="fill: #555555; stroke: #555555; stroke-width: 0.8"/>
      </g>
     </g>
     <g id="text_2">
      <!-- 0 -->
      <g style="fill: #555555" transform="translate(52.0875 60.377311) scale(0.1 -0.1)">
       <defs>
        <path id="DejaVuSans-30" d="M 2034 4250 
Q 1547 4250 1301 3770 
Q 1056 3291 1056 2328 
Q 1056 1369 1301 889 
Q 1547 409 2034 409 
Q 2525 409 2770 889 
Q 3016 1369 3016 2328 
Q 3016 3291 2770 3770 
Q 2525 4250 2034 4250 
z
M 2034 4750 
Q 2819 4750 3233 4129 
Q 3647 3509 3647 2328 
Q 3647 1150 3233 529 
Q 2819 -91 2034 -91 
Q 1250 -91 836 529 
Q 422 1150 422 2328 
Q 422 3509 836 4129 
Q 1250 4750 2034 4750 
z
" transform="scale(0.015625)"/>
       </defs>
       <use xlink:href="#DejaVuSans-30"/>
      </g>
     </g>
    </g>
    <g id="ytick_3">
     <g id="line2d_12">
      <path d="M 65.45 14.806386 
L 450 14.806386 
" clip-path="url(#p4cfcbb4b6a)" style="fill: none; stroke: #ffffff; stroke-width: 0.8; stroke-linecap: square"/>
     </g>
     <g id="line2d_13">
      <g>
       <use xlink:href="#m44e065492c" x="65.45" y="14.806386" style="fill: #555555; stroke: #555555; stroke-width: 0.8"/>
      </g>
     </g>
     <g id="text_3">
      <!-- 1 -->
      <g style="fill: #555555" transform="translate(52.0875 18.605605) scale(0.1 -0.1)">
       <use xlink:href="#DejaVuSans-31"/>
      </g>
     </g>
    </g>
    <g id="text_4">
     <!-- $A(t)$ [au] -->
     <g style="fill: #555555" transform="translate(37.212187 81.838093) rotate(-90) scale(0.12 -0.12)">
      <defs>
       <path id="DejaVuSans-Oblique-41" d="M 2356 4666 
L 3072 4666 
L 3938 0 
L 3278 0 
L 3084 1197 
L 984 1197 
L 325 0 
L -341 0 
L 2356 4666 
z
M 2584 4044 
L 1275 1722 
L 2988 1722 
L 2584 4044 
z
" transform="scale(0.015625)"/>
       <path id="DejaVuSans-28" d="M 1984 4856 
Q 1566 4138 1362 3434 
Q 1159 2731 1159 2009 
Q 1159 1288 1364 580 
Q 1569 -128 1984 -844 
L 1484 -844 
Q 1016 -109 783 600 
Q 550 1309 550 2009 
Q 550 2706 781 3412 
Q 1013 4119 1484 4856 
L 1984 4856 
z
" transform="scale(0.015625)"/>
       <path id="DejaVuSans-Oblique-74" d="M 2706 3500 
L 2619 3053 
L 1472 3053 
L 1100 1153 
Q 1081 1047 1072 975 
Q 1063 903 1063 863 
Q 1063 663 1183 572 
Q 1303 481 1569 481 
L 2150 481 
L 2053 0 
L 1503 0 
Q 991 0 739 200 
Q 488 400 488 806 
Q 488 878 497 964 
Q 506 1050 525 1153 
L 897 3053 
L 409 3053 
L 500 3500 
L 978 3500 
L 1172 4494 
L 1747 4494 
L 1556 3500 
L 2706 3500 
z
" transform="scale(0.015625)"/>
       <path id="DejaVuSans-29" d="M 513 4856 
L 1013 4856 
Q 1481 4119 1714 3412 
Q 1947 2706 1947 2009 
Q 1947 1309 1714 600 
Q 1481 -109 1013 -844 
L 513 -844 
Q 928 -128 1133 580 
Q 1338 1288 1338 2009 
Q 1338 2731 1133 3434 
Q 928 4138 513 4856 
z
" transform="scale(0.015625)"/>
       <path id="DejaVuSans-20" transform="scale(0.015625)"/>
       <path id="DejaVuSans-5b" d="M 550 4863 
L 1875 4863 
L 1875 4416 
L 1125 4416 
L 1125 -397 
L 1875 -397 
L 1875 -844 
L 550 -844 
L 550 4863 
z
" transform="scale(0.015625)"/>
       <path id="DejaVuSans-61" d="M 2194 1759 
Q 1497 1759 1228 1600 
Q 959 1441 959 1056 
Q 959 750 1161 570 
Q 1363 391 1709 391 
Q 2188 391 2477 730 
Q 2766 1069 2766 1631 
L 2766 1759 
L 2194 1759 
z
M 3341 1997 
L 3341 0 
L 2766 0 
L 2766 531 
Q 2569 213 2275 61 
Q 1981 -91 1556 -91 
Q 1019 -91 701 211 
Q 384 513 384 1019 
Q 384 1609 779 1909 
Q 1175 2209 1959 2209 
L 2766 2209 
L 2766 2266 
Q 2766 2663 2505 2880 
Q 2244 3097 1772 3097 
Q 1472 3097 1187 3025 
Q 903 2953 641 2809 
L 641 3341 
Q 956 3463 1253 3523 
Q 1550 3584 1831 3584 
Q 2591 3584 2966 3190 
Q 3341 2797 3341 1997 
z
" transform="scale(0.015625)"/>
       <path id="DejaVuSans-75" d="M 544 1381 
L 544 3500 
L 1119 3500 
L 1119 1403 
Q 1119 906 1312 657 
Q 1506 409 1894 409 
Q 2359 409 2629 706 
Q 2900 1003 2900 1516 
L 2900 3500 
L 3475 3500 
L 3475 0 
L 2900 0 
L 2900 538 
Q 2691 219 2414 64 
Q 2138 -91 1772 -91 
Q 1169 -91 856 284 
Q 544 659 544 1381 
z
M 1991 3584 
L 1991 3584 
z
" transform="scale(0.015625)"/>
       <path id="DejaVuSans-5d" d="M 1947 4863 
L 1947 -844 
L 622 -844 
L 622 -397 
L 1369 -397 
L 1369 4416 
L 622 4416 
L 622 4863 
L 1947 4863 
z
" transform="scale(0.015625)"/>
      </defs>
      <use xlink:href="#DejaVuSans-Oblique-41" transform="translate(0 0.015625)"/>
      <use xlink:href="#DejaVuSans-28" transform="translate(68.408203 0.015625)"/>
      <use xlink:href="#DejaVuSans-Oblique-74" transform="translate(107.421875 0.015625)"/>
      <use xlink:href="#DejaVuSans-29" transform="translate(146.630859 0.015625)"/>
      <use xlink:href="#DejaVuSans-20" transform="translate(185.644531 0.015625)"/>
      <use xlink:href="#DejaVuSans-5b" transform="translate(217.431641 0.015625)"/>
      <use xlink:href="#DejaVuSans-61" transform="translate(256.445312 0.015625)"/>
      <use xlink:href="#DejaVuSans-75" transform="translate(317.724609 0.015625)"/>
      <use xlink:href="#DejaVuSans-5d" transform="translate(381.103516 0.015625)"/>
     </g>
    </g>
   </g>
   <g id="line2d_14">
    <path d="M 82.929545 56.578093 
L 128.122699 56.65 
L 135.703486 56.955499 
L 138.910742 56.822279 
L 142.117998 56.449467 
L 148.824079 55.549305 
L 150.86506 55.550372 
L 152.614472 55.747622 
L 154.655453 56.222147 
L 156.988003 57.034138 
L 161.653103 58.785337 
L 163.110947 59.093843 
L 164.56879 59.167783 
L 165.735065 59.022979 
L 166.90134 58.680057 
L 168.067615 58.13711 
L 169.525459 57.19835 
L 171.274871 55.774665 
L 175.356833 52.254391 
L 176.523108 51.535418 
L 177.689383 51.086592 
L 178.564089 50.967038 
L 179.438796 51.057885 
L 180.313502 51.373778 
L 181.188208 51.921381 
L 182.062914 52.698424 
L 183.229189 54.069484 
L 184.687033 56.238448 
L 186.728014 59.795099 
L 189.060564 63.796066 
L 190.226839 65.418423 
L 191.101545 66.348203 
L 191.976251 66.96997 
L 192.559389 67.189785 
L 193.142526 67.240359 
L 193.725663 67.11288 
L 194.308801 66.801286 
L 194.891938 66.302495 
L 195.766645 65.204406 
L 196.641351 63.700445 
L 197.807626 61.120852 
L 199.265469 57.153511 
L 204.222138 42.648604 
L 205.096844 40.876109 
L 205.97155 39.594105 
L 206.554688 39.050888 
L 207.137825 38.779081 
L 207.720963 38.793241 
L 208.3041 39.103466 
L 208.887237 39.715052 
L 209.470375 40.628238 
L 210.345081 42.551118 
L 211.219787 45.100735 
L 212.386062 49.357368 
L 213.843906 55.725697 
L 217.925868 74.532977 
L 219.092143 78.573268 
L 219.966849 80.812417 
L 220.549987 81.863092 
L 221.133124 82.527478 
L 221.716262 82.784222 
L 222.299399 82.618431 
L 222.882537 82.022098 
L 223.465674 80.994414 
L 224.048812 79.541959 
L 224.923518 76.599552 
L 225.798224 72.813004 
L 226.964499 66.652414 
L 228.713911 55.785692 
L 231.629599 37.222111 
L 232.795873 31.099267 
L 233.67058 27.430147 
L 234.545286 24.731364 
L 235.128423 23.534903 
L 235.711561 22.854231 
L 236.00313 22.713745 
L 236.294698 22.708837 
L 236.586267 22.840562 
L 237.169404 23.515277 
L 237.752542 24.734816 
L 238.335679 26.486801 
L 239.210386 30.063399 
L 240.085092 34.676976 
L 241.251367 42.173137 
L 243.000779 55.330543 
L 245.916466 77.597023 
L 247.082741 84.895122 
L 247.957447 89.271061 
L 248.832154 92.510861 
L 249.415291 93.972762 
L 249.998429 94.842809 
L 250.289997 95.049964 
L 250.581566 95.103311 
L 250.873135 95.002236 
L 251.164704 94.746771 
L 251.747841 93.776067 
L 252.330978 92.204453 
L 252.914116 90.055376 
L 253.788822 85.824358 
L 254.663528 80.521819 
L 255.829803 72.12174 
L 257.870784 55.347328 
L 259.911765 38.816491 
L 261.07804 30.758869 
L 261.952747 25.794077 
L 262.827453 21.955942 
L 263.41059 20.092041 
L 263.993728 18.818582 
L 264.576865 18.153949 
L 264.868434 18.052874 
L 265.160003 18.106221 
L 265.451571 18.313376 
L 266.034709 19.183423 
L 266.617846 20.645324 
L 267.200984 22.671552 
L 268.07569 26.686067 
L 268.950396 31.725696 
L 270.116671 39.695727 
L 272.157652 55.51966 
L 274.198633 70.983048 
L 275.364908 78.479209 
L 276.239614 83.092787 
L 277.114321 86.669384 
L 277.697458 88.421369 
L 278.280596 89.640908 
L 278.863733 90.315623 
L 279.155302 90.447348 
L 279.44687 90.44244 
L 279.738439 90.301954 
L 280.321577 89.621282 
L 280.904714 88.424822 
L 281.487852 86.740403 
L 282.362558 83.378571 
L 283.528833 77.576449 
L 284.986676 68.817897 
L 288.77707 44.860159 
L 289.943345 38.993525 
L 290.818051 35.477418 
L 291.692757 32.835605 
L 292.275895 31.594247 
L 292.859032 30.781881 
L 293.44217 30.401375 
L 294.025307 30.448292 
L 294.608445 30.911134 
L 295.191582 31.771718 
L 295.774719 33.005654 
L 296.649426 35.489536 
L 297.815701 39.788238 
L 299.273544 46.262645 
L 303.063938 63.798817 
L 304.230213 68.05545 
L 305.104919 70.605068 
L 305.979625 72.527947 
L 306.562763 73.441133 
L 307.1459 74.05272 
L 307.729037 74.362944 
L 308.312175 74.377105 
L 308.895312 74.105297 
L 309.47845 73.56208 
L 310.061587 72.766067 
L 310.936294 71.1475 
L 312.102568 68.336275 
L 313.560412 64.109858 
L 317.059237 53.537916 
L 318.225512 50.668981 
L 319.391787 48.409206 
L 320.266493 47.173386 
L 321.141199 46.354899 
L 321.724337 46.043305 
L 322.307474 45.915826 
L 322.890611 45.9664 
L 323.473749 46.186215 
L 324.348455 46.807983 
L 325.223161 47.737763 
L 326.389436 49.360119 
L 328.138849 52.313883 
L 331.346105 57.837434 
L 332.803948 59.817713 
L 333.970223 61.0009 
L 334.844929 61.625698 
L 335.719636 62.018512 
L 336.594342 62.183118 
L 337.469048 62.131624 
L 338.343754 61.883351 
L 339.510029 61.290477 
L 340.967873 60.230802 
L 343.300423 58.165794 
L 345.632973 56.175927 
L 347.090816 55.184894 
L 348.54866 54.476128 
L 349.714935 54.133206 
L 350.88121 53.988402 
L 352.339053 54.062342 
L 353.796897 54.370848 
L 355.837878 55.06741 
L 361.086115 57.017185 
L 363.127096 57.454982 
L 365.168078 57.62956 
L 367.209059 57.568954 
L 369.833177 57.255142 
L 376.539258 56.333907 
L 379.454945 56.202999 
L 382.95377 56.27335 
L 394.616519 56.696846 
L 404.821425 56.562433 
L 416.192606 56.571516 
L 432.520455 56.578093 
L 432.520455 56.578093 
" clip-path="url(#p4cfcbb4b6a)" style="fill: none; stroke: #e24a33; stroke-width: 1.5; stroke-linecap: square"/>
   </g>
   <g id="patch_3">
    <path d="M 65.45 98.955833 
L 65.45 14.200352 
" style="fill: none; stroke: #ffffff; stroke-linejoin: miter; stroke-linecap: square"/>
   </g>
   <g id="patch_4">
    <path d="M 450 98.955833 
L 450 14.200352 
" style="fill: none; stroke: #ffffff; stroke-linejoin: miter; stroke-linecap: square"/>
   </g>
   <g id="patch_5">
    <path d="M 65.45 98.955833 
L 450 98.955833 
" style="fill: none; stroke: #ffffff; stroke-linejoin: miter; stroke-linecap: square"/>
   </g>
   <g id="patch_6">
    <path d="M 65.45 14.200352 
L 450 14.200352 
" style="fill: none; stroke: #ffffff; stroke-linejoin: miter; stroke-linecap: square"/>
   </g>
  </g>
  <g id="axes_2">
   <g id="patch_7">
    <path d="M 65.45 200.071667 
L 450 200.071667 
L 450 115.316185 
L 65.45 115.316185 
z
" style="fill: #e5e5e5"/>
   </g>
   <g id="matplotlib.axis_3">
    <g id="xtick_8">
     <g id="line2d_15">
      <path d="M 94.716712 200.071667 
L 94.716712 115.316185 
" clip-path="url(#p00d9580ebb)" style="fill: none; stroke: #ffffff; stroke-width: 0.8; stroke-linecap: square"/>
     </g>
    </g>
    <g id="xtick_9">
     <g id="line2d_16">
      <path d="M 149.052808 200.071667 
L 149.052808 115.316185 
" clip-path="url(#p00d9580ebb)" style="fill: none; stroke: #ffffff; stroke-width: 0.8; stroke-linecap: square"/>
     </g>
    </g>
    <g id="xtick_10">
     <g id="line2d_17">
      <path d="M 203.388904 200.071667 
L 203.388904 115.316185 
" clip-path="url(#p00d9580ebb)" style="fill: none; stroke: #ffffff; stroke-width: 0.8; stroke-linecap: square"/>
     </g>
    </g>
    <g id="xtick_11">
     <g id="line2d_18">
      <path d="M 257.725 200.071667 
L 257.725 115.316185 
" clip-path="url(#p00d9580ebb)" style="fill: none; stroke: #ffffff; stroke-width: 0.8; stroke-linecap: square"/>
     </g>
    </g>
    <g id="xtick_12">
     <g id="line2d_19">
      <path d="M 312.061096 200.071667 
L 312.061096 115.316185 
" clip-path="url(#p00d9580ebb)" style="fill: none; stroke: #ffffff; stroke-width: 0.8; stroke-linecap: square"/>
     </g>
    </g>
    <g id="xtick_13">
     <g id="line2d_20">
      <path d="M 366.397192 200.071667 
L 366.397192 115.316185 
" clip-path="url(#p00d9580ebb)" style="fill: none; stroke: #ffffff; stroke-width: 0.8; stroke-linecap: square"/>
     </g>
    </g>
    <g id="xtick_14">
     <g id="line2d_21">
      <path d="M 420.733288 200.071667 
L 420.733288 115.316185 
" clip-path="url(#p00d9580ebb)" style="fill: none; stroke: #ffffff; stroke-width: 0.8; stroke-linecap: square"/>
     </g>
    </g>
   </g>
   <g id="matplotlib.axis_4">
    <g id="ytick_4">
     <g id="line2d_22">
      <path d="M 65.45 193.798727 
L 450 193.798727 
" clip-path="url(#p00d9580ebb)" style="fill: none; stroke: #ffffff; stroke-width: 0.8; stroke-linecap: square"/>
     </g>
     <g id="line2d_23">
      <g>
       <use xlink:href="#m44e065492c" x="65.45" y="193.798727" style="fill: #555555; stroke: #555555; stroke-width: 0.8"/>
      </g>
     </g>
     <g id="text_5">
      <!-- −0.05 -->
      <g style="fill: #555555" transform="translate(27.804688 197.597946) scale(0.1 -0.1)">
       <defs>
        <path id="DejaVuSans-2e" d="M 684 794 
L 1344 794 
L 1344 0 
L 684 0 
L 684 794 
z
" transform="scale(0.015625)"/>
        <path id="DejaVuSans-35" d="M 691 4666 
L 3169 4666 
L 3169 4134 
L 1269 4134 
L 1269 2991 
Q 1406 3038 1543 3061 
Q 1681 3084 1819 3084 
Q 2600 3084 3056 2656 
Q 3513 2228 3513 1497 
Q 3513 744 3044 326 
Q 2575 -91 1722 -91 
Q 1428 -91 1123 -41 
Q 819 9 494 109 
L 494 744 
Q 775 591 1075 516 
Q 1375 441 1709 441 
Q 2250 441 2565 725 
Q 2881 1009 2881 1497 
Q 2881 1984 2565 2268 
Q 2250 2553 1709 2553 
Q 1456 2553 1204 2497 
Q 953 2441 691 2322 
L 691 4666 
z
" transform="scale(0.015625)"/>
       </defs>
       <use xlink:href="#DejaVuSans-2212"/>
       <use xlink:href="#DejaVuSans-30" x="83.789062"/>
       <use xlink:href="#DejaVuSans-2e" x="147.412109"/>
       <use xlink:href="#DejaVuSans-30" x="179.199219"/>
       <use xlink:href="#DejaVuSans-35" x="242.822266"/>
      </g>
     </g>
    </g>
    <g id="ytick_5">
     <g id="line2d_24">
      <path d="M 65.45 157.703702 
L 450 157.703702 
" clip-path="url(#p00d9580ebb)" style="fill: none; stroke: #ffffff; stroke-width: 0.8; stroke-linecap: square"/>
     </g>
     <g id="line2d_25">
      <g>
       <use xlink:href="#m44e065492c" x="65.45" y="157.703702" style="fill: #555555; stroke: #555555; stroke-width: 0.8"/>
      </g>
     </g>
     <g id="text_6">
      <!-- 0.00 -->
      <g style="fill: #555555" transform="translate(36.184375 161.502921) scale(0.1 -0.1)">
       <use xlink:href="#DejaVuSans-30"/>
       <use xlink:href="#DejaVuSans-2e" x="63.623047"/>
       <use xlink:href="#DejaVuSans-30" x="95.410156"/>
       <use xlink:href="#DejaVuSans-30" x="159.033203"/>
      </g>
     </g>
    </g>
    <g id="ytick_6">
     <g id="line2d_26">
      <path d="M 65.45 121.608676 
L 450 121.608676 
" clip-path="url(#p00d9580ebb)" style="fill: none; stroke: #ffffff; stroke-width: 0.8; stroke-linecap: square"/>
     </g>
     <g id="line2d_27">
      <g>
       <use xlink:href="#m44e065492c" x="65.45" y="121.608676" style="fill: #555555; stroke: #555555; stroke-width: 0.8"/>
      </g>
     </g>
     <g id="text_7">
      <!-- 0.05 -->
      <g style="fill: #555555" transform="translate(36.184375 125.407895) scale(0.1 -0.1)">
       <use xlink:href="#DejaVuSans-30"/>
       <use xlink:href="#DejaVuSans-2e" x="63.623047"/>
       <use xlink:href="#DejaVuSans-30" x="95.410156"/>
       <use xlink:href="#DejaVuSans-35" x="159.033203"/>
      </g>
     </g>
    </g>
    <g id="text_8">
     <!-- $F(t)$ [au] -->
     <g style="fill: #555555" transform="translate(21.309062 182.293926) rotate(-90) scale(0.12 -0.12)">
      <defs>
       <path id="DejaVuSans-Oblique-46" d="M 1081 4666 
L 3756 4666 
L 3653 4134 
L 1606 4134 
L 1338 2759 
L 3188 2759 
L 3084 2228 
L 1234 2228 
L 800 0 
L 172 0 
L 1081 4666 
z
" transform="scale(0.015625)"/>
      </defs>
      <use xlink:href="#DejaVuSans-Oblique-46" transform="translate(0 0.015625)"/>
      <use xlink:href="#DejaVuSans-28" transform="translate(57.519531 0.015625)"/>
      <use xlink:href="#DejaVuSans-Oblique-74" transform="translate(96.533203 0.015625)"/>
      <use xlink:href="#DejaVuSans-29" transform="translate(135.742188 0.015625)"/>
      <use xlink:href="#DejaVuSans-20" transform="translate(174.755859 0.015625)"/>
      <use xlink:href="#DejaVuSans-5b" transform="translate(206.542969 0.015625)"/>
      <use xlink:href="#DejaVuSans-61" transform="translate(245.556641 0.015625)"/>
      <use xlink:href="#DejaVuSans-75" transform="translate(306.835938 0.015625)"/>
      <use xlink:href="#DejaVuSans-5d" transform="translate(370.214844 0.015625)"/>
     </g>
    </g>
   </g>
   <g id="line2d_28">
    <path d="M 82.929545 157.706993 
L 123.16603 157.632802 
L 130.746817 157.453471 
L 134.245642 157.60373 
L 138.619173 158.037578 
L 142.992704 158.417909 
L 145.325254 158.406256 
L 147.657804 158.158174 
L 149.990354 157.670464 
L 157.279572 155.888746 
L 158.737416 155.851833 
L 160.195259 156.028791 
L 161.653103 156.438174 
L 163.110947 157.073253 
L 164.860359 158.080886 
L 170.108596 161.317945 
L 171.274871 161.713447 
L 172.441146 161.866095 
L 173.315852 161.795153 
L 174.190558 161.551448 
L 175.356833 160.948762 
L 176.523108 160.035424 
L 177.689383 158.841661 
L 179.147227 157.041216 
L 183.520758 151.329419 
L 184.687033 150.272821 
L 185.561739 149.748718 
L 186.436445 149.499538 
L 187.311151 149.556843 
L 188.185858 149.941904 
L 189.060564 150.664026 
L 189.93527 151.719263 
L 190.809976 153.089618 
L 191.976251 155.34907 
L 193.434095 158.699385 
L 197.224488 167.817774 
L 198.390763 169.946017 
L 199.265469 171.11161 
L 199.848607 171.643348 
L 200.431744 171.957872 
L 201.014882 172.040753 
L 201.598019 171.88114 
L 202.181157 171.472096 
L 202.764294 170.810883 
L 203.639 169.351146 
L 204.513706 167.353756 
L 205.679981 163.940686 
L 207.137825 158.728072 
L 211.802925 141.010194 
L 212.677631 138.647763 
L 213.552337 136.900415 
L 214.135475 136.126521 
L 214.718612 135.693275 
L 215.30175 135.618619 
L 215.884887 135.91469 
L 216.468024 136.587424 
L 217.051162 137.636276 
L 217.925868 139.89716 
L 218.800574 142.933887 
L 219.966849 148.036905 
L 221.424693 155.689509 
L 225.506655 178.166974 
L 226.67293 182.935475 
L 227.547636 185.554996 
L 228.130774 186.771479 
L 228.713911 187.52823 
L 229.297049 187.802815 
L 229.588617 187.754456 
L 230.171755 187.281314 
L 230.754892 186.305728 
L 231.33803 184.834716 
L 232.212736 181.736224 
L 233.087442 177.650241 
L 234.253717 170.89786 
L 235.711561 160.955952 
L 239.210386 136.222956 
L 240.37666 129.681852 
L 241.251367 125.867397 
L 242.126073 123.172537 
L 242.70921 122.05999 
L 243.292348 121.524936 
L 243.583917 121.479055 
L 243.875485 121.582397 
L 244.167054 121.835254 
L 244.750191 122.787453 
L 245.333329 124.325075 
L 245.916466 126.427297 
L 246.791173 130.56931 
L 247.665879 135.766912 
L 248.832154 144.012241 
L 250.873135 160.494983 
L 252.914116 176.701813 
L 254.080391 184.542297 
L 254.955097 189.319493 
L 255.829803 192.943022 
L 256.412941 194.646671 
L 256.996078 195.74502 
L 257.579216 196.219145 
L 257.870784 196.219145 
L 258.162353 196.060876 
L 258.745491 195.27294 
L 259.328628 193.868915 
L 259.911765 191.872982 
L 260.786472 187.847032 
L 261.661178 182.724213 
L 262.827453 174.533601 
L 264.868434 158.07647 
L 266.909415 141.834079 
L 268.07569 133.927763 
L 268.950396 129.063339 
L 269.825102 125.307306 
L 270.40824 123.48415 
L 270.991377 122.237273 
L 271.574515 121.582397 
L 271.866083 121.479055 
L 272.157652 121.524936 
L 272.449221 121.719104 
L 273.032358 122.545403 
L 273.615496 123.937992 
L 274.198633 125.867397 
L 275.07334 129.681852 
L 276.239614 136.222956 
L 277.697458 146.053681 
L 281.487852 172.707668 
L 282.654127 179.114687 
L 283.528833 182.884082 
L 284.403539 185.631368 
L 284.986676 186.856094 
L 285.569814 187.580785 
L 286.152951 187.802815 
L 286.44452 187.726889 
L 287.027658 187.208905 
L 287.610795 186.219004 
L 288.193932 184.783415 
L 289.068639 181.869059 
L 289.943345 178.166974 
L 291.10962 172.292338 
L 293.44217 158.998588 
L 295.191582 149.472025 
L 296.357857 144.104632 
L 297.232563 140.826767 
L 298.107269 138.299755 
L 298.690407 137.065129 
L 299.273544 136.203854 
L 299.856682 135.719793 
L 300.439819 135.610224 
L 301.022957 135.866065 
L 301.606094 136.472223 
L 302.189232 137.408028 
L 303.063938 139.372334 
L 303.938644 141.914579 
L 305.104919 145.990259 
L 307.437469 155.277571 
L 309.186881 161.961096 
L 310.353156 165.746293 
L 311.519431 168.743187 
L 312.394137 170.386059 
L 313.268843 171.472096 
L 313.851981 171.88114 
L 314.435118 172.040753 
L 315.018256 171.957872 
L 315.601393 171.643348 
L 316.184531 171.11161 
L 317.059237 169.946017 
L 317.933943 168.402509 
L 319.100218 165.897378 
L 321.432768 160.141274 
L 323.473749 155.34907 
L 324.640024 153.089618 
L 325.806299 151.331321 
L 326.681005 150.385827 
L 327.555711 149.776297 
L 328.430417 149.502143 
L 329.305124 149.549908 
L 330.17983 149.894691 
L 331.054536 150.501922 
L 332.220811 151.646086 
L 333.678655 153.451714 
L 338.052186 159.1638 
L 339.21846 160.291655 
L 340.384735 161.129193 
L 341.55101 161.652374 
L 342.425717 161.837523 
L 343.591991 161.823107 
L 344.758266 161.542891 
L 346.21611 160.894156 
L 347.965522 159.830386 
L 352.047485 157.22474 
L 353.796897 156.438174 
L 355.254741 156.028791 
L 356.712584 155.851833 
L 358.170428 155.888746 
L 359.91984 156.160967 
L 362.543959 156.848916 
L 366.625921 157.941486 
L 368.958471 158.313663 
L 371.291021 158.438813 
L 373.91514 158.330932 
L 378.580239 157.843498 
L 382.662201 157.515612 
L 386.452595 157.451933 
L 392.28397 157.632802 
L 399.281619 157.781818 
L 410.069662 157.69431 
L 426.105942 157.707946 
L 432.520455 157.706993 
L 432.520455 157.706993 
" clip-path="url(#p00d9580ebb)" style="fill: none; stroke: #e24a33; stroke-width: 1.5; stroke-linecap: square"/>
   </g>
   <g id="line2d_29">
    <path d="M 82.929545 157.700027 
L 120.541912 157.574685 
L 134.537211 157.314431 
L 144.158979 156.927459 
L 152.031335 156.394272 
L 158.737416 155.719264 
L 164.56879 154.917529 
L 170.108596 153.930486 
L 175.356833 152.760292 
L 180.313502 151.420746 
L 184.978601 149.936461 
L 189.643701 148.227358 
L 194.60037 146.165517 
L 199.557038 143.862641 
L 205.096844 141.036979 
L 211.802925 137.346595 
L 229.880186 127.226755 
L 234.545286 124.950596 
L 238.627248 123.194832 
L 242.417642 121.80592 
L 245.916466 120.760485 
L 249.123722 120.021481 
L 252.330978 119.506213 
L 255.538235 119.224175 
L 258.745491 119.1806 
L 261.952747 119.376299 
L 265.160003 119.807636 
L 268.367259 120.466638 
L 271.574515 121.341243 
L 275.07334 122.522612 
L 278.863733 124.041767 
L 282.945695 125.915134 
L 287.902364 128.449678 
L 294.316876 132.005704 
L 310.936294 141.345421 
L 316.476099 144.145346 
L 321.724337 146.547416 
L 326.681005 148.565052 
L 331.346105 150.231752 
L 336.011204 151.67454 
L 340.967873 152.97243 
L 345.924541 154.045828 
L 351.172778 154.963059 
L 357.004153 155.753706 
L 363.418665 156.394272 
L 370.707883 156.895762 
L 379.454945 157.269954 
L 390.826126 157.523453 
L 408.028681 157.662583 
L 432.520455 157.700027 
L 432.520455 157.700027 
" clip-path="url(#p00d9580ebb)" style="fill: none; stroke: #348abd; stroke-width: 1.5; stroke-linecap: square"/>
   </g>
   <g id="patch_8">
    <path d="M 65.45 200.071667 
L 65.45 115.316185 
" style="fill: none; stroke: #ffffff; stroke-linejoin: miter; stroke-linecap: square"/>
   </g>
   <g id="patch_9">
    <path d="M 450 200.071667 
L 450 115.316185 
" style="fill: none; stroke: #ffffff; stroke-linejoin: miter; stroke-linecap: square"/>
   </g>
   <g id="patch_10">
    <path d="M 65.45 200.071667 
L 450 200.071667 
" style="fill: none; stroke: #ffffff; stroke-linejoin: miter; stroke-linecap: square"/>
   </g>
   <g id="patch_11">
    <path d="M 65.45 115.316185 
L 450 115.316185 
" style="fill: none; stroke: #ffffff; stroke-linejoin: miter; stroke-linecap: square"/>
   </g>
  </g>
  <g id="axes_3">
   <g id="patch_12">
    <path d="M 65.45 301.1875 
L 450 301.1875 
L 450 216.432018 
L 65.45 216.432018 
z
" style="fill: #e5e5e5"/>
   </g>
   <g id="matplotlib.axis_5">
    <g id="xtick_15">
     <g id="line2d_30">
      <path d="M 94.716712 301.1875 
L 94.716712 216.432018 
" clip-path="url(#pe320eb4ade)" style="fill: none; stroke: #ffffff; stroke-width: 0.8; stroke-linecap: square"/>
     </g>
     <g id="line2d_31">
      <defs>
       <path id="mfbf74ba658" d="M 0 0 
L 0 3.5 
" style="stroke: #555555; stroke-width: 0.8"/>
      </defs>
      <g>
       <use xlink:href="#mfbf74ba658" x="94.716712" y="301.1875" style="fill: #555555; stroke: #555555; stroke-width: 0.8"/>
      </g>
     </g>
     <g id="text_9">
      <!-- −15 -->
      <g style="fill: #555555" transform="translate(84.164368 315.785937) scale(0.1 -0.1)">
       <use xlink:href="#DejaVuSans-2212"/>
       <use xlink:href="#DejaVuSans-31" x="83.789062"/>
       <use xlink:href="#DejaVuSans-35" x="147.412109"/>
      </g>
     </g>
    </g>
    <g id="xtick_16">
     <g id="line2d_32">
      <path d="M 149.052808 301.1875 
L 149.052808 216.432018 
" clip-path="url(#pe320eb4ade)" style="fill: none; stroke: #ffffff; stroke-width: 0.8; stroke-linecap: square"/>
     </g>
     <g id="line2d_33">
      <g>
       <use xlink:href="#mfbf74ba658" x="149.052808" y="301.1875" style="fill: #555555; stroke: #555555; stroke-width: 0.8"/>
      </g>
     </g>
     <g id="text_10">
      <!-- −10 -->
      <g style="fill: #555555" transform="translate(138.500464 315.785937) scale(0.1 -0.1)">
       <use xlink:href="#DejaVuSans-2212"/>
       <use xlink:href="#DejaVuSans-31" x="83.789062"/>
       <use xlink:href="#DejaVuSans-30" x="147.412109"/>
      </g>
     </g>
    </g>
    <g id="xtick_17">
     <g id="line2d_34">
      <path d="M 203.388904 301.1875 
L 203.388904 216.432018 
" clip-path="url(#pe320eb4ade)" style="fill: none; stroke: #ffffff; stroke-width: 0.8; stroke-linecap: square"/>
     </g>
     <g id="line2d_35">
      <g>
       <use xlink:href="#mfbf74ba658" x="203.388904" y="301.1875" style="fill: #555555; stroke: #555555; stroke-width: 0.8"/>
      </g>
     </g>
     <g id="text_11">
      <!-- −5 -->
      <g style="fill: #555555" transform="translate(196.01781 315.785937) scale(0.1 -0.1)">
       <use xlink:href="#DejaVuSans-2212"/>
       <use xlink:href="#DejaVuSans-35" x="83.789062"/>
      </g>
     </g>
    </g>
    <g id="xtick_18">
     <g id="line2d_36">
      <path d="M 257.725 301.1875 
L 257.725 216.432018 
" clip-path="url(#pe320eb4ade)" style="fill: none; stroke: #ffffff; stroke-width: 0.8; stroke-linecap: square"/>
     </g>
     <g id="line2d_37">
      <g>
       <use xlink:href="#mfbf74ba658" x="257.725" y="301.1875" style="fill: #555555; stroke: #555555; stroke-width: 0.8"/>
      </g>
     </g>
     <g id="text_12">
      <!-- 0 -->
      <g style="fill: #555555" transform="translate(254.54375 315.785937) scale(0.1 -0.1)">
       <use xlink:href="#DejaVuSans-30"/>
      </g>
     </g>
    </g>
    <g id="xtick_19">
     <g id="line2d_38">
      <path d="M 312.061096 301.1875 
L 312.061096 216.432018 
" clip-path="url(#pe320eb4ade)" style="fill: none; stroke: #ffffff; stroke-width: 0.8; stroke-linecap: square"/>
     </g>
     <g id="line2d_39">
      <g>
       <use xlink:href="#mfbf74ba658" x="312.061096" y="301.1875" style="fill: #555555; stroke: #555555; stroke-width: 0.8"/>
      </g>
     </g>
     <g id="text_13">
      <!-- 5 -->
      <g style="fill: #555555" transform="translate(308.879846 315.785937) scale(0.1 -0.1)">
       <use xlink:href="#DejaVuSans-35"/>
      </g>
     </g>
    </g>
    <g id="xtick_20">
     <g id="line2d_40">
      <path d="M 366.397192 301.1875 
L 366.397192 216.432018 
" clip-path="url(#pe320eb4ade)" style="fill: none; stroke: #ffffff; stroke-width: 0.8; stroke-linecap: square"/>
     </g>
     <g id="line2d_41">
      <g>
       <use xlink:href="#mfbf74ba658" x="366.397192" y="301.1875" style="fill: #555555; stroke: #555555; stroke-width: 0.8"/>
      </g>
     </g>
     <g id="text_14">
      <!-- 10 -->
      <g style="fill: #555555" transform="translate(360.034692 315.785937) scale(0.1 -0.1)">
       <use xlink:href="#DejaVuSans-31"/>
       <use xlink:href="#DejaVuSans-30" x="63.623047"/>
      </g>
     </g>
    </g>
    <g id="xtick_21">
     <g id="line2d_42">
      <path d="M 420.733288 301.1875 
L 420.733288 216.432018 
" clip-path="url(#pe320eb4ade)" style="fill: none; stroke: #ffffff; stroke-width: 0.8; stroke-linecap: square"/>
     </g>
     <g id="line2d_43">
      <g>
       <use xlink:href="#mfbf74ba658" x="420.733288" y="301.1875" style="fill: #555555; stroke: #555555; stroke-width: 0.8"/>
      </g>
     </g>
     <g id="text_15">
      <!-- 15 -->
      <g style="fill: #555555" transform="translate(414.370788 315.785937) scale(0.1 -0.1)">
       <use xlink:href="#DejaVuSans-31"/>
       <use xlink:href="#DejaVuSans-35" x="63.623047"/>
      </g>
     </g>
    </g>
    <g id="text_16">
     <!-- $t$ [fs] -->
     <g style="fill: #555555" transform="translate(243.505 330.98375) scale(0.12 -0.12)">
      <defs>
       <path id="DejaVuSans-66" d="M 2375 4863 
L 2375 4384 
L 1825 4384 
Q 1516 4384 1395 4259 
Q 1275 4134 1275 3809 
L 1275 3500 
L 2222 3500 
L 2222 3053 
L 1275 3053 
L 1275 0 
L 697 0 
L 697 3053 
L 147 3053 
L 147 3500 
L 697 3500 
L 697 3744 
Q 697 4328 969 4595 
Q 1241 4863 1831 4863 
L 2375 4863 
z
" transform="scale(0.015625)"/>
       <path id="DejaVuSans-73" d="M 2834 3397 
L 2834 2853 
Q 2591 2978 2328 3040 
Q 2066 3103 1784 3103 
Q 1356 3103 1142 2972 
Q 928 2841 928 2578 
Q 928 2378 1081 2264 
Q 1234 2150 1697 2047 
L 1894 2003 
Q 2506 1872 2764 1633 
Q 3022 1394 3022 966 
Q 3022 478 2636 193 
Q 2250 -91 1575 -91 
Q 1294 -91 989 -36 
Q 684 19 347 128 
L 347 722 
Q 666 556 975 473 
Q 1284 391 1588 391 
Q 1994 391 2212 530 
Q 2431 669 2431 922 
Q 2431 1156 2273 1281 
Q 2116 1406 1581 1522 
L 1381 1569 
Q 847 1681 609 1914 
Q 372 2147 372 2553 
Q 372 3047 722 3315 
Q 1072 3584 1716 3584 
Q 2034 3584 2315 3537 
Q 2597 3491 2834 3397 
z
" transform="scale(0.015625)"/>
      </defs>
      <use xlink:href="#DejaVuSans-Oblique-74" transform="translate(0 0.015625)"/>
      <use xlink:href="#DejaVuSans-20" transform="translate(39.208984 0.015625)"/>
      <use xlink:href="#DejaVuSans-5b" transform="translate(70.996094 0.015625)"/>
      <use xlink:href="#DejaVuSans-66" transform="translate(110.009766 0.015625)"/>
      <use xlink:href="#DejaVuSans-73" transform="translate(145.214844 0.015625)"/>
      <use xlink:href="#DejaVuSans-5d" transform="translate(197.314453 0.015625)"/>
     </g>
    </g>
   </g>
   <g id="matplotlib.axis_6">
    <g id="ytick_7">
     <g id="line2d_44">
      <path d="M 65.45 297.334978 
L 450 297.334978 
" clip-path="url(#pe320eb4ade)" style="fill: none; stroke: #ffffff; stroke-width: 0.8; stroke-linecap: square"/>
     </g>
     <g id="line2d_45">
      <g>
       <use xlink:href="#m44e065492c" x="65.45" y="297.334978" style="fill: #555555; stroke: #555555; stroke-width: 0.8"/>
      </g>
     </g>
     <g id="text_17">
      <!-- 0.000 -->
      <g style="fill: #555555" transform="translate(29.821875 301.134197) scale(0.1 -0.1)">
       <use xlink:href="#DejaVuSans-30"/>
       <use xlink:href="#DejaVuSans-2e" x="63.623047"/>
       <use xlink:href="#DejaVuSans-30" x="95.410156"/>
       <use xlink:href="#DejaVuSans-30" x="159.033203"/>
       <use xlink:href="#DejaVuSans-30" x="222.65625"/>
      </g>
     </g>
    </g>
    <g id="ytick_8">
     <g id="line2d_46">
      <path d="M 65.45 270.294199 
L 450 270.294199 
" clip-path="url(#pe320eb4ade)" style="fill: none; stroke: #ffffff; stroke-width: 0.8; stroke-linecap: square"/>
     </g>
     <g id="line2d_47">
      <g>
       <use xlink:href="#m44e065492c" x="65.45" y="270.294199" style="fill: #555555; stroke: #555555; stroke-width: 0.8"/>
      </g>
     </g>
     <g id="text_18">
      <!-- 0.001 -->
      <g style="fill: #555555" transform="translate(29.821875 274.093418) scale(0.1 -0.1)">
       <use xlink:href="#DejaVuSans-30"/>
       <use xlink:href="#DejaVuSans-2e" x="63.623047"/>
       <use xlink:href="#DejaVuSans-30" x="95.410156"/>
       <use xlink:href="#DejaVuSans-30" x="159.033203"/>
       <use xlink:href="#DejaVuSans-31" x="222.65625"/>
      </g>
     </g>
    </g>
    <g id="ytick_9">
     <g id="line2d_48">
      <path d="M 65.45 243.25342 
L 450 243.25342 
" clip-path="url(#pe320eb4ade)" style="fill: none; stroke: #ffffff; stroke-width: 0.8; stroke-linecap: square"/>
     </g>
     <g id="line2d_49">
      <g>
       <use xlink:href="#m44e065492c" x="65.45" y="243.25342" style="fill: #555555; stroke: #555555; stroke-width: 0.8"/>
      </g>
     </g>
     <g id="text_19">
      <!-- 0.002 -->
      <g style="fill: #555555" transform="translate(29.821875 247.052639) scale(0.1 -0.1)">
       <defs>
        <path id="DejaVuSans-32" d="M 1228 531 
L 3431 531 
L 3431 0 
L 469 0 
L 469 531 
Q 828 903 1448 1529 
Q 2069 2156 2228 2338 
Q 2531 2678 2651 2914 
Q 2772 3150 2772 3378 
Q 2772 3750 2511 3984 
Q 2250 4219 1831 4219 
Q 1534 4219 1204 4116 
Q 875 4013 500 3803 
L 500 4441 
Q 881 4594 1212 4672 
Q 1544 4750 1819 4750 
Q 2544 4750 2975 4387 
Q 3406 4025 3406 3419 
Q 3406 3131 3298 2873 
Q 3191 2616 2906 2266 
Q 2828 2175 2409 1742 
Q 1991 1309 1228 531 
z
" transform="scale(0.015625)"/>
       </defs>
       <use xlink:href="#DejaVuSans-30"/>
       <use xlink:href="#DejaVuSans-2e" x="63.623047"/>
       <use xlink:href="#DejaVuSans-30" x="95.410156"/>
       <use xlink:href="#DejaVuSans-30" x="159.033203"/>
       <use xlink:href="#DejaVuSans-32" x="222.65625"/>
      </g>
     </g>
    </g>
    <g id="text_20">
     <!-- $I(t)$ [au] -->
     <g style="fill: #555555" transform="translate(23.32625 281.729759) rotate(-90) scale(0.12 -0.12)">
      <defs>
       <path id="DejaVuSans-Oblique-49" d="M 1081 4666 
L 1716 4666 
L 806 0 
L 172 0 
L 1081 4666 
z
" transform="scale(0.015625)"/>
      </defs>
      <use xlink:href="#DejaVuSans-Oblique-49" transform="translate(0 0.015625)"/>
      <use xlink:href="#DejaVuSans-28" transform="translate(29.492188 0.015625)"/>
      <use xlink:href="#DejaVuSans-Oblique-74" transform="translate(68.505859 0.015625)"/>
      <use xlink:href="#DejaVuSans-29" transform="translate(107.714844 0.015625)"/>
      <use xlink:href="#DejaVuSans-20" transform="translate(146.728516 0.015625)"/>
      <use xlink:href="#DejaVuSans-5b" transform="translate(178.515625 0.015625)"/>
      <use xlink:href="#DejaVuSans-61" transform="translate(217.529297 0.015625)"/>
      <use xlink:href="#DejaVuSans-75" transform="translate(278.808594 0.015625)"/>
      <use xlink:href="#DejaVuSans-5d" transform="translate(342.1875 0.015625)"/>
     </g>
    </g>
   </g>
   <g id="line2d_50">
    <path d="M 82.929545 297.334978 
L 154.947022 297.231732 
L 159.612122 297.171857 
L 166.026634 297.267032 
L 168.359184 296.960684 
L 171.858009 296.45447 
L 173.315852 296.466379 
L 175.065265 296.726128 
L 178.272521 297.324369 
L 179.438796 297.277596 
L 180.605071 296.969151 
L 181.771345 296.396879 
L 183.520758 295.226704 
L 184.978601 294.311215 
L 185.853308 293.955511 
L 186.728014 293.828671 
L 187.60272 293.96781 
L 188.477426 294.370484 
L 189.643701 295.227962 
L 191.684682 296.880076 
L 192.559389 297.275435 
L 193.142526 297.330579 
L 193.725663 297.182879 
L 194.308801 296.813857 
L 194.891938 296.218798 
L 195.766645 294.930074 
L 196.932919 292.652642 
L 198.973901 288.476724 
L 199.848607 287.252484 
L 200.431744 286.792363 
L 201.014882 286.669405 
L 201.598019 286.905561 
L 202.181157 287.498693 
L 202.764294 288.420763 
L 203.639 290.295738 
L 205.97155 295.8954 
L 206.554688 296.799987 
L 207.137825 297.280531 
L 207.429394 297.334378 
L 207.720963 297.252702 
L 208.012531 297.029561 
L 208.595669 296.146304 
L 209.178806 294.683558 
L 210.053512 291.499254 
L 211.219787 285.917211 
L 212.9692 277.173319 
L 213.843906 273.945259 
L 214.427043 272.590643 
L 214.718612 272.197516 
L 215.010181 272.007457 
L 215.30175 272.026702 
L 215.593318 272.258051 
L 215.884887 272.700714 
L 216.468024 274.198395 
L 217.051162 276.439715 
L 217.925868 280.882791 
L 220.258418 293.81904 
L 220.841555 295.928382 
L 221.424693 297.124471 
L 221.716262 297.327839 
L 222.00783 297.247976 
L 222.299399 296.875295 
L 222.590968 296.204947 
L 223.174105 293.976727 
L 223.757243 290.625062 
L 224.631949 283.821961 
L 226.089793 269.859634 
L 227.256068 259.285157 
L 228.130774 253.4932 
L 228.713911 251.18073 
L 229.00548 250.563823 
L 229.297049 250.326964 
L 229.588617 250.477895 
L 229.880186 251.017927 
L 230.171755 251.941787 
L 230.754892 254.886893 
L 231.33803 259.140855 
L 232.212736 267.366602 
L 234.545286 290.69227 
L 235.128423 294.51172 
L 235.711561 296.786155 
L 236.00313 297.267382 
L 236.294698 297.284074 
L 236.586267 296.825207 
L 236.877836 295.88765 
L 237.460973 292.60432 
L 238.044111 287.570037 
L 238.918817 277.332159 
L 242.126073 235.464004 
L 242.70921 231.412984 
L 243.000779 230.146034 
L 243.292348 229.418993 
L 243.583917 229.246627 
L 243.875485 229.634558 
L 244.167054 230.579075 
L 244.750191 234.076368 
L 245.333329 239.525181 
L 246.208035 250.564999 
L 248.832154 287.608311 
L 249.415291 292.986337 
L 249.998429 296.311885 
L 250.289997 297.118791 
L 250.581566 297.327768 
L 250.873135 296.930708 
L 251.164704 295.929688 
L 251.747841 292.174909 
L 252.330978 286.279932 
L 253.205685 274.251873 
L 256.121372 229.46987 
L 256.704509 224.098193 
L 257.287647 220.994004 
L 257.579216 220.362708 
L 257.870784 220.362708 
L 258.162353 220.994004 
L 258.453922 222.246101 
L 259.037059 226.519515 
L 259.620197 232.900319 
L 260.494903 245.470189 
L 263.119022 286.279932 
L 263.702159 292.174909 
L 264.285296 295.929688 
L 264.576865 296.930708 
L 264.868434 297.327768 
L 265.160003 297.118791 
L 265.451571 296.311885 
L 265.74314 294.925154 
L 266.326278 290.53229 
L 266.909415 284.267322 
L 267.784121 272.365433 
L 269.825102 242.877452 
L 270.699809 234.076368 
L 271.282946 230.579075 
L 271.574515 229.634558 
L 271.866083 229.246627 
L 272.157652 229.418993 
L 272.449221 230.146034 
L 272.74079 231.412984 
L 273.323927 235.464004 
L 273.907065 241.287528 
L 274.781771 252.459516 
L 277.114321 284.47272 
L 277.989027 292.60432 
L 278.572164 295.88765 
L 278.863733 296.825207 
L 279.155302 297.284074 
L 279.44687 297.267382 
L 279.738439 296.786155 
L 280.030008 295.859008 
L 280.613145 292.776686 
L 281.196283 288.302064 
L 282.070989 279.793435 
L 284.11197 259.140855 
L 284.695108 254.886893 
L 285.278245 251.941787 
L 285.569814 251.017927 
L 285.861383 250.477895 
L 286.152951 250.326964 
L 286.44452 250.563823 
L 286.736089 251.18073 
L 287.319226 253.4932 
L 287.902364 257.085963 
L 288.77707 264.301063 
L 291.692757 290.625062 
L 292.275895 293.976727 
L 292.859032 296.204947 
L 293.150601 296.875295 
L 293.44217 297.247976 
L 293.733738 297.327839 
L 294.025307 297.124471 
L 294.316876 296.651928 
L 294.900013 294.975712 
L 295.483151 292.486229 
L 296.649426 286.015808 
L 298.107269 277.798572 
L 298.981976 274.198395 
L 299.565113 272.700714 
L 299.856682 272.258051 
L 300.14825 272.026702 
L 300.439819 272.007457 
L 300.731388 272.197516 
L 301.022957 272.590643 
L 301.606094 273.945259 
L 302.189232 275.961685 
L 303.063938 279.898681 
L 305.688056 292.680334 
L 306.562763 295.485882 
L 307.1459 296.661222 
L 307.729037 297.252702 
L 308.020606 297.334378 
L 308.312175 297.280531 
L 308.895312 296.799987 
L 309.47845 295.8954 
L 310.353156 293.978711 
L 312.685706 288.420763 
L 313.268843 287.498693 
L 313.851981 286.905561 
L 314.435118 286.669405 
L 315.018256 286.792363 
L 315.601393 287.252484 
L 316.184531 288.007021 
L 317.059237 289.558345 
L 320.266493 295.839209 
L 321.141199 296.813857 
L 321.724337 297.182879 
L 322.307474 297.330579 
L 322.890611 297.275435 
L 323.765318 296.880076 
L 324.931593 295.983165 
L 326.681005 294.556324 
L 327.555711 294.07416 
L 328.430417 293.844721 
L 329.305124 293.885258 
L 330.17983 294.170831 
L 331.346105 294.829998 
L 334.553361 296.849262 
L 335.719636 297.226324 
L 336.885911 297.33455 
L 338.343754 297.172964 
L 342.425717 296.448296 
L 343.88356 296.474379 
L 345.924541 296.75545 
L 349.423366 297.267032 
L 351.755916 297.329658 
L 360.502978 297.231732 
L 366.334352 297.333394 
L 390.242988 297.333835 
L 432.520455 297.334978 
L 432.520455 297.334978 
" clip-path="url(#pe320eb4ade)" style="fill: none; stroke: #e24a33; stroke-width: 1.5; stroke-linecap: square"/>
   </g>
   <g id="line2d_51">
    <path d="M 82.929545 297.334977 
L 153.780747 297.223877 
L 163.402515 296.982148 
L 169.817027 296.61879 
L 175.065265 296.103396 
L 179.438796 295.448819 
L 183.229189 294.65665 
L 186.728014 293.68978 
L 189.93527 292.562296 
L 192.850957 291.302922 
L 195.766645 289.789373 
L 198.390763 288.185952 
L 201.014882 286.333974 
L 203.639 284.217005 
L 206.263119 281.822598 
L 208.887237 279.143509 
L 211.802925 275.832098 
L 214.718612 272.178252 
L 217.925868 267.791383 
L 221.424693 262.625397 
L 225.798224 255.75544 
L 237.169404 237.668177 
L 240.37666 233.113088 
L 243.000779 229.75745 
L 245.333329 227.120755 
L 247.37431 225.120545 
L 249.415291 223.436869 
L 251.164704 222.264355 
L 252.914116 221.355191 
L 254.663528 220.719329 
L 256.121372 220.403363 
L 257.579216 220.28454 
L 259.037059 220.363776 
L 260.494903 220.640459 
L 261.952747 221.112462 
L 263.702159 221.931489 
L 265.451571 223.0175 
L 267.200984 224.358681 
L 269.241965 226.226511 
L 271.282946 228.394992 
L 273.615496 231.201949 
L 276.239614 234.718241 
L 279.44687 239.422285 
L 283.528833 245.837476 
L 294.900013 263.949594 
L 298.398838 269.023604 
L 301.606094 273.309262 
L 304.521781 276.862167 
L 307.437469 280.068366 
L 310.353156 282.921629 
L 312.977275 285.191499 
L 315.601393 287.188892 
L 318.225512 288.928178 
L 321.141199 290.579766 
L 324.056886 291.962517 
L 326.972574 293.106022 
L 330.17983 294.123311 
L 333.678655 294.989736 
L 337.469048 295.694416 
L 341.842579 296.272011 
L 347.090816 296.722552 
L 353.505328 297.03667 
L 362.543959 297.235512 
L 378.580239 297.323877 
L 432.520455 297.334977 
L 432.520455 297.334977 
" clip-path="url(#pe320eb4ade)" style="fill: none; stroke: #348abd; stroke-width: 1.5; stroke-linecap: square"/>
   </g>
   <g id="patch_13">
    <path d="M 65.45 301.1875 
L 65.45 216.432018 
" style="fill: none; stroke: #ffffff; stroke-linejoin: miter; stroke-linecap: square"/>
   </g>
   <g id="patch_14">
    <path d="M 450 301.1875 
L 450 216.432018 
" style="fill: none; stroke: #ffffff; stroke-linejoin: miter; stroke-linecap: square"/>
   </g>
   <g id="patch_15">
    <path d="M 65.45 301.1875 
L 450 301.1875 
" style="fill: none; stroke: #ffffff; stroke-linejoin: miter; stroke-linecap: square"/>
   </g>
   <g id="patch_16">
    <path d="M 65.45 216.432018 
L 450 216.432018 
" style="fill: none; stroke: #ffffff; stroke-linejoin: miter; stroke-linecap: square"/>
   </g>
  </g>
 </g>
 <defs>
  <clipPath id="p4cfcbb4b6a">
   <rect x="65.45" y="14.200352" width="384.55" height="84.755482"/>
  </clipPath>
  <clipPath id="p00d9580ebb">
   <rect x="65.45" y="115.316185" width="384.55" height="84.755482"/>
  </clipPath>
  <clipPath id="pe320eb4ade">
   <rect x="65.45" y="216.432018" width="384.55" height="84.755482"/>
  </clipPath>
 </defs>
</svg>
