<?xml version="1.0" encoding="utf-8" standalone="no"?>
<!DOCTYPE svg PUBLIC "-//W3C//DTD SVG 1.1//EN"
  "http://www.w3.org/Graphics/SVG/1.1/DTD/svg11.dtd">
<!-- Created with matplotlib (https://matplotlib.org/) -->
<svg height="345.6pt" version="1.1" viewBox="0 0 460.8 345.6" width="460.8pt" xmlns="http://www.w3.org/2000/svg" xmlns:xlink="http://www.w3.org/1999/xlink">
 <metadata>
  <rdf:RDF xmlns:cc="http://creativecommons.org/ns#" xmlns:dc="http://purl.org/dc/elements/1.1/" xmlns:rdf="http://www.w3.org/1999/02/22-rdf-syntax-ns#">
   <cc:Work>
    <dc:type rdf:resource="http://purl.org/dc/dcmitype/StillImage"/>
    <dc:date>2021-04-18T00:40:34.505031</dc:date>
    <dc:format>image/svg+xml</dc:format>
    <dc:creator>
     <cc:Agent>
      <dc:title>Matplotlib v3.3.4, https://matplotlib.org/</dc:title>
     </cc:Agent>
    </dc:creator>
   </cc:Work>
  </rdf:RDF>
 </metadata>
 <defs>
  <style type="text/css">*{stroke-linecap:butt;stroke-linejoin:round;}</style>
 </defs>
 <g id="figure_1">
  <g id="patch_1">
   <path d="M 0 345.6 
L 460.8 345.6 
L 460.8 0 
L 0 0 
z
" style="fill:#ffffff;"/>
  </g>
  <g id="axes_1">
   <g id="patch_2">
    <path d="M 65.45 98.955833 
L 450 98.955833 
L 450 14.20821 
L 65.45 14.20821 
z
" style="fill:none;"/>
   </g>
   <g id="matplotlib.axis_1">
    <g id="xtick_1">
     <g id="line2d_1">
      <path clip-path="url(#pd986114aa3)" d="M 94.716712 98.955833 
L 94.716712 14.20821 
" style="fill:none;stroke:#ffffff;stroke-linecap:square;stroke-width:0.8;"/>
     </g>
    </g>
    <g id="xtick_2">
     <g id="line2d_2">
      <path clip-path="url(#pd986114aa3)" d="M 149.052808 98.955833 
L 149.052808 14.20821 
" style="fill:none;stroke:#ffffff;stroke-linecap:square;stroke-width:0.8;"/>
     </g>
    </g>
    <g id="xtick_3">
     <g id="line2d_3">
      <path clip-path="url(#pd986114aa3)" d="M 203.388904 98.955833 
L 203.388904 14.20821 
" style="fill:none;stroke:#ffffff;stroke-linecap:square;stroke-width:0.8;"/>
     </g>
    </g>
    <g id="xtick_4">
     <g id="line2d_4">
      <path clip-path="url(#pd986114aa3)" d="M 257.725 98.955833 
L 257.725 14.20821 
" style="fill:none;stroke:#ffffff;stroke-linecap:square;stroke-width:0.8;"/>
     </g>
    </g>
    <g id="xtick_5">
     <g id="line2d_5">
      <path clip-path="url(#pd986114aa3)" d="M 312.061096 98.955833 
L 312.061096 14.20821 
" style="fill:none;stroke:#ffffff;stroke-linecap:square;stroke-width:0.8;"/>
     </g>
    </g>
    <g id="xtick_6">
     <g id="line2d_6">
      <path clip-path="url(#pd986114aa3)" d="M 366.397192 98.955833 
L 366.397192 14.20821 
" style="fill:none;stroke:#ffffff;stroke-linecap:square;stroke-width:0.8;"/>
     </g>
    </g>
    <g id="xtick_7">
     <g id="line2d_7">
      <path clip-path="url(#pd986114aa3)" d="M 420.733288 98.955833 
L 420.733288 14.20821 
" style="fill:none;stroke:#ffffff;stroke-linecap:square;stroke-width:0.8;"/>
     </g>
    </g>
   </g>
   <g id="matplotlib.axis_2">
    <g id="ytick_1">
     <g id="line2d_8">
      <path clip-path="url(#pd986114aa3)" d="M 65.45 98.358364 
L 450 98.358364 
" style="fill:none;stroke:#ffffff;stroke-linecap:square;stroke-width:0.8;"/>
     </g>
     <g id="line2d_9">
      <defs>
       <path d="M 0 0 
L -3.5 0 
" id="m30d5abb6e0" style="stroke:#555555;stroke-width:0.8;"/>
      </defs>
      <g>
       <use style="fill:#555555;stroke:#555555;stroke-width:0.8;" x="65.45" xlink:href="#m30d5abb6e0" y="98.358364"/>
      </g>
     </g>
     <g id="text_1">
      <!-- −1 -->
      <g style="fill:#555555;" transform="translate(43.707813 102.157582)scale(0.1 -0.1)">
       <defs>
        <path d="M 10.59375 35.5 
L 73.1875 35.5 
L 73.1875 27.203125 
L 10.59375 27.203125 
z
" id="DejaVuSans-8722"/>
        <path d="M 12.40625 8.296875 
L 28.515625 8.296875 
L 28.515625 63.921875 
L 10.984375 60.40625 
L 10.984375 69.390625 
L 28.421875 72.90625 
L 38.28125 72.90625 
L 38.28125 8.296875 
L 54.390625 8.296875 
L 54.390625 0 
L 12.40625 0 
z
" id="DejaVuSans-49"/>
       </defs>
       <use xlink:href="#DejaVuSans-8722"/>
       <use x="83.789062" xlink:href="#DejaVuSans-49"/>
      </g>
     </g>
    </g>
    <g id="ytick_2">
     <g id="line2d_10">
      <path clip-path="url(#pd986114aa3)" d="M 65.45 56.582022 
L 450 56.582022 
" style="fill:none;stroke:#ffffff;stroke-linecap:square;stroke-width:0.8;"/>
     </g>
     <g id="line2d_11">
      <g>
       <use style="fill:#555555;stroke:#555555;stroke-width:0.8;" x="65.45" xlink:href="#m30d5abb6e0" y="56.582022"/>
      </g>
     </g>
     <g id="text_2">
      <!-- 0 -->
      <g style="fill:#555555;" transform="translate(52.0875 60.38124)scale(0.1 -0.1)">
       <defs>
        <path d="M 31.78125 66.40625 
Q 24.171875 66.40625 20.328125 58.90625 
Q 16.5 51.421875 16.5 36.375 
Q 16.5 21.390625 20.328125 13.890625 
Q 24.171875 6.390625 31.78125 6.390625 
Q 39.453125 6.390625 43.28125 13.890625 
Q 47.125 21.390625 47.125 36.375 
Q 47.125 51.421875 43.28125 58.90625 
Q 39.453125 66.40625 31.78125 66.40625 
z
M 31.78125 74.21875 
Q 44.046875 74.21875 50.515625 64.515625 
Q 56.984375 54.828125 56.984375 36.375 
Q 56.984375 17.96875 50.515625 8.265625 
Q 44.046875 -1.421875 31.78125 -1.421875 
Q 19.53125 -1.421875 13.0625 8.265625 
Q 6.59375 17.96875 6.59375 36.375 
Q 6.59375 54.828125 13.0625 64.515625 
Q 19.53125 74.21875 31.78125 74.21875 
z
" id="DejaVuSans-48"/>
       </defs>
       <use xlink:href="#DejaVuSans-48"/>
      </g>
     </g>
    </g>
    <g id="ytick_3">
     <g id="line2d_12">
      <path clip-path="url(#pd986114aa3)" d="M 65.45 14.80568 
L 450 14.80568 
" style="fill:none;stroke:#ffffff;stroke-linecap:square;stroke-width:0.8;"/>
     </g>
     <g id="line2d_13">
      <g>
       <use style="fill:#555555;stroke:#555555;stroke-width:0.8;" x="65.45" xlink:href="#m30d5abb6e0" y="14.80568"/>
      </g>
     </g>
     <g id="text_3">
      <!-- 1 -->
      <g style="fill:#555555;" transform="translate(52.0875 18.604898)scale(0.1 -0.1)">
       <use xlink:href="#DejaVuSans-49"/>
      </g>
     </g>
    </g>
    <g id="text_4">
     <!-- $A(t)$ [au] -->
     <g style="fill:#555555;" transform="translate(37.212187 81.842022)rotate(-90)scale(0.12 -0.12)">
      <defs>
       <path d="M 36.8125 72.90625 
L 48 72.90625 
L 61.53125 0 
L 51.21875 0 
L 48.1875 18.703125 
L 15.375 18.703125 
L 5.078125 0 
L -5.328125 0 
z
M 40.375 63.1875 
L 19.921875 26.90625 
L 46.6875 26.90625 
z
" id="DejaVuSans-Oblique-65"/>
       <path d="M 31 75.875 
Q 24.46875 64.65625 21.28125 53.65625 
Q 18.109375 42.671875 18.109375 31.390625 
Q 18.109375 20.125 21.3125 9.0625 
Q 24.515625 -2 31 -13.1875 
L 23.1875 -13.1875 
Q 15.875 -1.703125 12.234375 9.375 
Q 8.59375 20.453125 8.59375 31.390625 
Q 8.59375 42.28125 12.203125 53.3125 
Q 15.828125 64.359375 23.1875 75.875 
z
" id="DejaVuSans-40"/>
       <path d="M 42.28125 54.6875 
L 40.921875 47.703125 
L 23 47.703125 
L 17.1875 18.015625 
Q 16.890625 16.359375 16.75 15.234375 
Q 16.609375 14.109375 16.609375 13.484375 
Q 16.609375 10.359375 18.484375 8.9375 
Q 20.359375 7.515625 24.515625 7.515625 
L 33.59375 7.515625 
L 32.078125 0 
L 23.484375 0 
Q 15.484375 0 11.546875 3.125 
Q 7.625 6.25 7.625 12.59375 
Q 7.625 13.71875 7.765625 15.0625 
Q 7.90625 16.40625 8.203125 18.015625 
L 14.015625 47.703125 
L 6.390625 47.703125 
L 7.8125 54.6875 
L 15.28125 54.6875 
L 18.3125 70.21875 
L 27.296875 70.21875 
L 24.3125 54.6875 
z
" id="DejaVuSans-Oblique-116"/>
       <path d="M 8.015625 75.875 
L 15.828125 75.875 
Q 23.140625 64.359375 26.78125 53.3125 
Q 30.421875 42.28125 30.421875 31.390625 
Q 30.421875 20.453125 26.78125 9.375 
Q 23.140625 -1.703125 15.828125 -13.1875 
L 8.015625 -13.1875 
Q 14.5 -2 17.703125 9.0625 
Q 20.90625 20.125 20.90625 31.390625 
Q 20.90625 42.671875 17.703125 53.65625 
Q 14.5 64.65625 8.015625 75.875 
z
" id="DejaVuSans-41"/>
       <path id="DejaVuSans-32"/>
       <path d="M 8.59375 75.984375 
L 29.296875 75.984375 
L 29.296875 69 
L 17.578125 69 
L 17.578125 -6.203125 
L 29.296875 -6.203125 
L 29.296875 -13.1875 
L 8.59375 -13.1875 
z
" id="DejaVuSans-91"/>
       <path d="M 34.28125 27.484375 
Q 23.390625 27.484375 19.1875 25 
Q 14.984375 22.515625 14.984375 16.5 
Q 14.984375 11.71875 18.140625 8.90625 
Q 21.296875 6.109375 26.703125 6.109375 
Q 34.1875 6.109375 38.703125 11.40625 
Q 43.21875 16.703125 43.21875 25.484375 
L 43.21875 27.484375 
z
M 52.203125 31.203125 
L 52.203125 0 
L 43.21875 0 
L 43.21875 8.296875 
Q 40.140625 3.328125 35.546875 0.953125 
Q 30.953125 -1.421875 24.3125 -1.421875 
Q 15.921875 -1.421875 10.953125 3.296875 
Q 6 8.015625 6 15.921875 
Q 6 25.140625 12.171875 29.828125 
Q 18.359375 34.515625 30.609375 34.515625 
L 43.21875 34.515625 
L 43.21875 35.40625 
Q 43.21875 41.609375 39.140625 45 
Q 35.0625 48.390625 27.6875 48.390625 
Q 23 48.390625 18.546875 47.265625 
Q 14.109375 46.140625 10.015625 43.890625 
L 10.015625 52.203125 
Q 14.9375 54.109375 19.578125 55.046875 
Q 24.21875 56 28.609375 56 
Q 40.484375 56 46.34375 49.84375 
Q 52.203125 43.703125 52.203125 31.203125 
z
" id="DejaVuSans-97"/>
       <path d="M 8.5 21.578125 
L 8.5 54.6875 
L 17.484375 54.6875 
L 17.484375 21.921875 
Q 17.484375 14.15625 20.5 10.265625 
Q 23.53125 6.390625 29.59375 6.390625 
Q 36.859375 6.390625 41.078125 11.03125 
Q 45.3125 15.671875 45.3125 23.6875 
L 45.3125 54.6875 
L 54.296875 54.6875 
L 54.296875 0 
L 45.3125 0 
L 45.3125 8.40625 
Q 42.046875 3.421875 37.71875 1 
Q 33.40625 -1.421875 27.6875 -1.421875 
Q 18.265625 -1.421875 13.375 4.4375 
Q 8.5 10.296875 8.5 21.578125 
z
M 31.109375 56 
z
" id="DejaVuSans-117"/>
       <path d="M 30.421875 75.984375 
L 30.421875 -13.1875 
L 9.71875 -13.1875 
L 9.71875 -6.203125 
L 21.390625 -6.203125 
L 21.390625 69 
L 9.71875 69 
L 9.71875 75.984375 
z
" id="DejaVuSans-93"/>
      </defs>
      <use transform="translate(0 0.015625)" xlink:href="#DejaVuSans-Oblique-65"/>
      <use transform="translate(68.408203 0.015625)" xlink:href="#DejaVuSans-40"/>
      <use transform="translate(107.421875 0.015625)" xlink:href="#DejaVuSans-Oblique-116"/>
      <use transform="translate(146.630859 0.015625)" xlink:href="#DejaVuSans-41"/>
      <use transform="translate(185.644531 0.015625)" xlink:href="#DejaVuSans-32"/>
      <use transform="translate(217.431641 0.015625)" xlink:href="#DejaVuSans-91"/>
      <use transform="translate(256.445312 0.015625)" xlink:href="#DejaVuSans-97"/>
      <use transform="translate(317.724609 0.015625)" xlink:href="#DejaVuSans-117"/>
      <use transform="translate(381.103516 0.015625)" xlink:href="#DejaVuSans-93"/>
     </g>
    </g>
   </g>
   <g id="line2d_14">
    <path clip-path="url(#pd986114aa3)" d="M 82.929545 56.582022 
L 128.122699 56.649273 
L 135.995055 56.935612 
L 139.202311 56.789788 
L 142.409567 56.418954 
L 148.824079 55.600692 
L 150.86506 55.599985 
L 152.906041 55.836762 
L 154.947022 56.324962 
L 157.279572 57.130619 
L 161.653103 58.709662 
L 163.110947 59.009734 
L 164.56879 59.083818 
L 165.735065 58.945966 
L 166.90134 58.616127 
L 168.067615 58.091977 
L 169.525459 57.183381 
L 171.274871 55.802121 
L 175.648402 52.176844 
L 176.814677 51.532159 
L 177.980952 51.167084 
L 178.855658 51.113848 
L 179.730364 51.271527 
L 180.605071 51.652291 
L 181.479777 52.260185 
L 182.646052 53.414129 
L 183.812327 54.923856 
L 185.27017 57.204105 
L 189.93527 64.900291 
L 191.101545 66.181616 
L 191.976251 66.797252 
L 192.559389 67.01651 
L 193.142526 67.069406 
L 193.725663 66.94712 
L 194.308801 66.643529 
L 195.183507 65.842058 
L 196.058213 64.628737 
L 196.932919 63.022827 
L 198.099194 60.336106 
L 199.557038 56.295102 
L 203.930569 43.487512 
L 205.096844 41.050957 
L 205.97155 39.776786 
L 206.554688 39.23513 
L 207.137825 38.961946 
L 207.720963 38.971841 
L 208.3041 39.275014 
L 208.887237 39.876914 
L 209.470375 40.777976 
L 210.345081 42.678635 
L 211.219787 45.202059 
L 212.386062 49.419509 
L 213.843906 55.736059 
L 217.925868 74.42572 
L 219.092143 78.448974 
L 219.966849 80.681497 
L 220.549987 81.730712 
L 221.133124 82.395949 
L 221.716262 82.655759 
L 222.299399 82.495114 
L 222.882537 81.905836 
L 223.465674 80.886915 
L 224.048812 79.444704 
L 224.923518 76.51989 
L 225.798224 72.752804 
L 226.964499 66.619478 
L 228.713911 55.792191 
L 231.629599 37.27644 
L 232.795873 31.163502 
L 233.67058 27.498093 
L 234.545286 24.799995 
L 235.128423 23.602452 
L 235.711561 22.919595 
L 236.00313 22.777645 
L 236.294698 22.771047 
L 236.586267 22.900877 
L 237.169404 23.57126 
L 237.752542 24.78588 
L 238.335679 26.532519 
L 239.210386 30.100645 
L 240.085092 34.705664 
L 241.251367 42.191065 
L 243.000779 55.335413 
L 245.916466 77.591587 
L 247.082741 84.889393 
L 247.957447 89.266168 
L 248.832154 92.507435 
L 249.415291 93.970534 
L 249.998429 94.841866 
L 250.289997 95.049673 
L 250.581566 95.103669 
L 250.873135 95.003228 
L 251.164704 94.748379 
L 251.747841 93.778819 
L 252.330978 92.208198 
L 252.914116 90.059927 
L 253.788822 85.829724 
L 254.663528 80.527509 
L 255.829803 72.127171 
L 257.870784 55.351121 
L 259.911765 38.818788 
L 261.07804 30.761092 
L 261.952747 25.796786 
L 262.827453 21.959627 
L 263.41059 20.096629 
L 263.993728 18.824244 
L 264.576865 18.160815 
L 264.868434 18.060375 
L 265.160003 18.11437 
L 265.451571 18.322177 
L 266.034709 19.193509 
L 266.617846 20.656608 
L 267.200984 22.68387 
L 268.07569 26.699461 
L 268.950396 31.739366 
L 270.116671 39.708128 
L 272.157652 55.524352 
L 274.198633 70.972978 
L 275.364908 78.45838 
L 276.239614 83.063398 
L 277.114321 86.631525 
L 277.697458 88.378163 
L 278.280596 89.592783 
L 278.863733 90.263167 
L 279.155302 90.392997 
L 279.44687 90.386399 
L 279.738439 90.244448 
L 280.321577 89.561591 
L 280.904714 88.364048 
L 281.487852 86.679762 
L 282.362558 83.320608 
L 283.528833 77.526966 
L 284.986676 68.786923 
L 288.77707 44.907808 
L 289.943345 39.068221 
L 290.818051 35.571056 
L 291.692757 32.94601 
L 292.275895 31.714185 
L 292.859032 30.909755 
L 293.44217 30.535374 
L 294.025307 30.586416 
L 294.608445 31.05123 
L 295.191582 31.911519 
L 295.774719 33.142816 
L 296.649426 35.618295 
L 297.815701 39.897689 
L 299.273544 46.336275 
L 303.063938 63.744534 
L 304.230213 67.961985 
L 305.104919 70.485408 
L 305.979625 72.386068 
L 306.562763 73.28713 
L 307.1459 73.889029 
L 307.729037 74.192202 
L 308.312175 74.202097 
L 308.895312 73.928913 
L 309.47845 73.387258 
L 310.353156 72.113086 
L 311.227862 70.35478 
L 312.394137 67.416364 
L 314.14355 62.231962 
L 316.767668 54.368852 
L 318.225512 50.757974 
L 319.391787 48.535306 
L 320.266493 47.321985 
L 321.141199 46.520515 
L 321.724337 46.216924 
L 322.307474 46.094638 
L 322.890611 46.147533 
L 323.473749 46.366791 
L 324.348455 46.982428 
L 325.223161 47.900047 
L 326.389436 49.497834 
L 328.138849 52.400913 
L 331.054536 57.372175 
L 332.51238 59.403673 
L 333.678655 60.651336 
L 334.553361 61.334306 
L 335.428067 61.790758 
L 336.302773 62.021828 
L 337.177479 62.037086 
L 338.052186 61.853514 
L 339.21846 61.340165 
L 340.384735 60.582384 
L 342.134148 59.155066 
L 345.632973 56.192029 
L 347.090816 55.232386 
L 348.54866 54.547917 
L 349.714935 54.218078 
L 350.88121 54.080225 
L 352.339053 54.15431 
L 353.796897 54.454382 
L 355.837878 55.128124 
L 361.086115 57.002829 
L 363.127096 57.420967 
L 365.168078 57.586248 
L 367.209059 57.526694 
L 370.124746 57.183671 
L 376.247689 56.374255 
L 379.454945 56.228432 
L 383.245339 56.308261 
L 394.033382 56.692075 
L 402.488875 56.59326 
L 412.98535 56.562766 
L 432.520455 56.582022 
L 432.520455 56.582022 
" style="fill:none;stroke:#e24a33;stroke-linecap:square;stroke-width:1.5;"/>
   </g>
   <g id="patch_3">
    <path d="M 65.45 98.955833 
L 65.45 14.20821 
" style="fill:none;stroke:#ffffff;stroke-linecap:square;stroke-linejoin:miter;"/>
   </g>
   <g id="patch_4">
    <path d="M 450 98.955833 
L 450 14.20821 
" style="fill:none;stroke:#ffffff;stroke-linecap:square;stroke-linejoin:miter;"/>
   </g>
   <g id="patch_5">
    <path d="M 65.45 98.955833 
L 450 98.955833 
" style="fill:none;stroke:#ffffff;stroke-linecap:square;stroke-linejoin:miter;"/>
   </g>
   <g id="patch_6">
    <path d="M 65.45 14.20821 
L 450 14.20821 
" style="fill:none;stroke:#ffffff;stroke-linecap:square;stroke-linejoin:miter;"/>
   </g>
  </g>
  <g id="axes_2">
   <g id="patch_7">
    <path d="M 65.45 200.071667 
L 450 200.071667 
L 450 115.324043 
L 65.45 115.324043 
z
" style="fill:none;"/>
   </g>
   <g id="matplotlib.axis_3">
    <g id="xtick_8">
     <g id="line2d_15">
      <path clip-path="url(#p5544e3fcd6)" d="M 94.716712 200.071667 
L 94.716712 115.324043 
" style="fill:none;stroke:#ffffff;stroke-linecap:square;stroke-width:0.8;"/>
     </g>
    </g>
    <g id="xtick_9">
     <g id="line2d_16">
      <path clip-path="url(#p5544e3fcd6)" d="M 149.052808 200.071667 
L 149.052808 115.324043 
" style="fill:none;stroke:#ffffff;stroke-linecap:square;stroke-width:0.8;"/>
     </g>
    </g>
    <g id="xtick_10">
     <g id="line2d_17">
      <path clip-path="url(#p5544e3fcd6)" d="M 203.388904 200.071667 
L 203.388904 115.324043 
" style="fill:none;stroke:#ffffff;stroke-linecap:square;stroke-width:0.8;"/>
     </g>
    </g>
    <g id="xtick_11">
     <g id="line2d_18">
      <path clip-path="url(#p5544e3fcd6)" d="M 257.725 200.071667 
L 257.725 115.324043 
" style="fill:none;stroke:#ffffff;stroke-linecap:square;stroke-width:0.8;"/>
     </g>
    </g>
    <g id="xtick_12">
     <g id="line2d_19">
      <path clip-path="url(#p5544e3fcd6)" d="M 312.061096 200.071667 
L 312.061096 115.324043 
" style="fill:none;stroke:#ffffff;stroke-linecap:square;stroke-width:0.8;"/>
     </g>
    </g>
    <g id="xtick_13">
     <g id="line2d_20">
      <path clip-path="url(#p5544e3fcd6)" d="M 366.397192 200.071667 
L 366.397192 115.324043 
" style="fill:none;stroke:#ffffff;stroke-linecap:square;stroke-width:0.8;"/>
     </g>
    </g>
    <g id="xtick_14">
     <g id="line2d_21">
      <path clip-path="url(#p5544e3fcd6)" d="M 420.733288 200.071667 
L 420.733288 115.324043 
" style="fill:none;stroke:#ffffff;stroke-linecap:square;stroke-width:0.8;"/>
     </g>
    </g>
   </g>
   <g id="matplotlib.axis_4">
    <g id="ytick_4">
     <g id="line2d_22">
      <path clip-path="url(#p5544e3fcd6)" d="M 65.45 193.799318 
L 450 193.799318 
" style="fill:none;stroke:#ffffff;stroke-linecap:square;stroke-width:0.8;"/>
     </g>
     <g id="line2d_23">
      <g>
       <use style="fill:#555555;stroke:#555555;stroke-width:0.8;" x="65.45" xlink:href="#m30d5abb6e0" y="193.799318"/>
      </g>
     </g>
     <g id="text_5">
      <!-- −0.05 -->
      <g style="fill:#555555;" transform="translate(27.804688 197.598537)scale(0.1 -0.1)">
       <defs>
        <path d="M 10.6875 12.40625 
L 21 12.40625 
L 21 0 
L 10.6875 0 
z
" id="DejaVuSans-46"/>
        <path d="M 10.796875 72.90625 
L 49.515625 72.90625 
L 49.515625 64.59375 
L 19.828125 64.59375 
L 19.828125 46.734375 
Q 21.96875 47.46875 24.109375 47.828125 
Q 26.265625 48.1875 28.421875 48.1875 
Q 40.625 48.1875 47.75 41.5 
Q 54.890625 34.8125 54.890625 23.390625 
Q 54.890625 11.625 47.5625 5.09375 
Q 40.234375 -1.421875 26.90625 -1.421875 
Q 22.3125 -1.421875 17.546875 -0.640625 
Q 12.796875 0.140625 7.71875 1.703125 
L 7.71875 11.625 
Q 12.109375 9.234375 16.796875 8.0625 
Q 21.484375 6.890625 26.703125 6.890625 
Q 35.15625 6.890625 40.078125 11.328125 
Q 45.015625 15.765625 45.015625 23.390625 
Q 45.015625 31 40.078125 35.4375 
Q 35.15625 39.890625 26.703125 39.890625 
Q 22.75 39.890625 18.8125 39.015625 
Q 14.890625 38.140625 10.796875 36.28125 
z
" id="DejaVuSans-53"/>
       </defs>
       <use xlink:href="#DejaVuSans-8722"/>
       <use x="83.789062" xlink:href="#DejaVuSans-48"/>
       <use x="147.412109" xlink:href="#DejaVuSans-46"/>
       <use x="179.199219" xlink:href="#DejaVuSans-48"/>
       <use x="242.822266" xlink:href="#DejaVuSans-53"/>
      </g>
     </g>
    </g>
    <g id="ytick_5">
     <g id="line2d_24">
      <path clip-path="url(#p5544e3fcd6)" d="M 65.45 157.707633 
L 450 157.707633 
" style="fill:none;stroke:#ffffff;stroke-linecap:square;stroke-width:0.8;"/>
     </g>
     <g id="line2d_25">
      <g>
       <use style="fill:#555555;stroke:#555555;stroke-width:0.8;" x="65.45" xlink:href="#m30d5abb6e0" y="157.707633"/>
      </g>
     </g>
     <g id="text_6">
      <!-- 0.00 -->
      <g style="fill:#555555;" transform="translate(36.184375 161.506852)scale(0.1 -0.1)">
       <use xlink:href="#DejaVuSans-48"/>
       <use x="63.623047" xlink:href="#DejaVuSans-46"/>
       <use x="95.410156" xlink:href="#DejaVuSans-48"/>
       <use x="159.033203" xlink:href="#DejaVuSans-48"/>
      </g>
     </g>
    </g>
    <g id="ytick_6">
     <g id="line2d_26">
      <path clip-path="url(#p5544e3fcd6)" d="M 65.45 121.615948 
L 450 121.615948 
" style="fill:none;stroke:#ffffff;stroke-linecap:square;stroke-width:0.8;"/>
     </g>
     <g id="line2d_27">
      <g>
       <use style="fill:#555555;stroke:#555555;stroke-width:0.8;" x="65.45" xlink:href="#m30d5abb6e0" y="121.615948"/>
      </g>
     </g>
     <g id="text_7">
      <!-- 0.05 -->
      <g style="fill:#555555;" transform="translate(36.184375 125.415167)scale(0.1 -0.1)">
       <use xlink:href="#DejaVuSans-48"/>
       <use x="63.623047" xlink:href="#DejaVuSans-46"/>
       <use x="95.410156" xlink:href="#DejaVuSans-48"/>
       <use x="159.033203" xlink:href="#DejaVuSans-53"/>
      </g>
     </g>
    </g>
    <g id="text_8">
     <!-- $F(t)$ [au] -->
     <g style="fill:#555555;" transform="translate(21.309062 182.297855)rotate(-90)scale(0.12 -0.12)">
      <defs>
       <path d="M 16.890625 72.90625 
L 58.6875 72.90625 
L 57.078125 64.59375 
L 25.09375 64.59375 
L 20.90625 43.109375 
L 49.8125 43.109375 
L 48.1875 34.8125 
L 19.28125 34.8125 
L 12.5 0 
L 2.6875 0 
z
" id="DejaVuSans-Oblique-70"/>
      </defs>
      <use transform="translate(0 0.015625)" xlink:href="#DejaVuSans-Oblique-70"/>
      <use transform="translate(57.519531 0.015625)" xlink:href="#DejaVuSans-40"/>
      <use transform="translate(96.533203 0.015625)" xlink:href="#DejaVuSans-Oblique-116"/>
      <use transform="translate(135.742188 0.015625)" xlink:href="#DejaVuSans-41"/>
      <use transform="translate(174.755859 0.015625)" xlink:href="#DejaVuSans-32"/>
      <use transform="translate(206.542969 0.015625)" xlink:href="#DejaVuSans-91"/>
      <use transform="translate(245.556641 0.015625)" xlink:href="#DejaVuSans-97"/>
      <use transform="translate(306.835938 0.015625)" xlink:href="#DejaVuSans-117"/>
      <use transform="translate(370.214844 0.015625)" xlink:href="#DejaVuSans-93"/>
     </g>
    </g>
   </g>
   <g id="line2d_28">
    <path clip-path="url(#p5544e3fcd6)" d="M 82.929545 157.710546 
L 123.457599 157.631963 
L 130.746817 157.472082 
L 134.537211 157.632582 
L 139.493879 158.114446 
L 143.284273 158.395885 
L 145.616823 158.361891 
L 147.949373 158.098082 
L 150.281922 157.608283 
L 156.988003 155.992061 
L 158.737416 155.922933 
L 160.195259 156.089352 
L 161.653103 156.480549 
L 163.110947 157.091004 
L 164.860359 158.063615 
L 170.108596 161.211938 
L 171.274871 161.601621 
L 172.441146 161.756136 
L 173.607421 161.633536 
L 174.482127 161.343322 
L 175.648402 160.684831 
L 176.814677 159.727095 
L 178.272521 158.164298 
L 180.313502 155.524792 
L 182.93762 152.118613 
L 184.103895 150.912117 
L 184.978601 150.233709 
L 185.853308 149.79849 
L 186.728014 149.643573 
L 187.60272 149.797315 
L 188.477426 150.277443 
L 189.352132 151.08949 
L 190.226839 152.225653 
L 191.393114 154.205002 
L 192.850957 157.290862 
L 195.183507 162.971953 
L 196.932919 167.052859 
L 198.099194 169.298596 
L 198.973901 170.590625 
L 199.848607 171.463304 
L 200.431744 171.781084 
L 201.014882 171.870304 
L 201.598019 171.720003 
L 202.181157 171.323081 
L 202.764294 170.676581 
L 203.639 169.24318 
L 204.513706 167.276277 
L 205.679981 163.908141 
L 207.137825 158.753968 
L 211.802925 141.171286 
L 212.677631 138.816987 
L 213.552337 137.071164 
L 214.135475 136.294653 
L 214.718612 135.855991 
L 215.30175 135.773272 
L 215.884887 136.058831 
L 216.468024 136.718851 
L 217.051162 137.753067 
L 217.925868 139.989091 
L 218.800574 142.998509 
L 219.966849 148.063436 
L 221.424693 155.669818 
L 225.506655 178.063851 
L 226.67293 182.826947 
L 227.547636 185.448052 
L 228.130774 186.66809 
L 228.713911 187.430216 
L 229.297049 187.711806 
L 229.588617 187.667494 
L 230.171755 187.20339 
L 230.754892 186.237894 
L 231.33803 184.777763 
L 232.212736 181.696503 
L 233.087442 177.628056 
L 234.253717 170.898094 
L 235.711561 160.980291 
L 239.210386 136.276105 
L 240.37666 129.734743 
L 241.251367 125.917375 
L 242.126073 123.217741 
L 242.70921 122.101216 
L 243.292348 121.561726 
L 243.583917 121.513504 
L 243.875485 121.614449 
L 244.167054 121.86487 
L 244.750191 122.812159 
L 245.333329 124.344929 
L 245.916466 126.442488 
L 246.791173 130.578093 
L 247.665879 135.770247 
L 248.832154 144.010123 
L 250.873135 160.488543 
L 252.914116 176.696365 
L 254.080391 184.538658 
L 254.955097 189.317314 
L 255.829803 192.942114 
L 256.412941 194.646408 
L 256.996078 195.745187 
L 257.579216 196.219502 
L 257.870784 196.219502 
L 258.162353 196.061169 
L 258.745491 195.27292 
L 259.328628 193.868353 
L 259.911765 191.871684 
L 260.786472 187.844376 
L 261.661178 182.720088 
L 262.827453 174.527791 
L 264.868434 158.070267 
L 266.909415 141.833119 
L 268.07569 133.932793 
L 268.950396 129.074164 
L 269.825102 125.324798 
L 270.40824 123.506414 
L 270.991377 122.264434 
L 271.574515 121.614449 
L 271.866083 121.513504 
L 272.157652 121.561726 
L 272.449221 121.758159 
L 273.032358 122.588685 
L 273.615496 123.984966 
L 274.198633 125.917375 
L 275.07334 129.734743 
L 276.239614 136.276105 
L 277.697458 146.100356 
L 281.487852 172.702485 
L 282.654127 179.086676 
L 283.528833 182.838541 
L 284.403539 185.568892 
L 284.986676 186.7831 
L 285.569814 187.498195 
L 286.152951 187.711806 
L 286.44452 187.632187 
L 287.027658 187.107987 
L 287.610795 186.1136 
L 288.193932 184.675427 
L 289.068639 181.76106 
L 289.943345 178.063851 
L 291.10962 172.203429 
L 293.44217 158.961935 
L 295.191582 149.48904 
L 296.357857 144.159819 
L 297.232563 140.909807 
L 298.107269 138.408605 
L 298.690407 137.189459 
L 299.273544 136.341896 
L 299.856682 135.869482 
L 300.439819 135.769227 
L 301.022957 136.03183 
L 301.606094 136.64202 
L 302.189232 137.579003 
L 303.063938 139.539578 
L 303.938644 142.071516 
L 305.104919 146.123753 
L 307.437469 155.337222 
L 309.186881 161.95194 
L 310.353156 165.690834 
L 311.519431 168.644981 
L 312.394137 170.260004 
L 313.268843 171.323081 
L 313.851981 171.720003 
L 314.435118 171.870304 
L 315.018256 171.781084 
L 315.601393 171.463304 
L 316.184531 170.931444 
L 317.059237 169.771514 
L 317.933943 168.240426 
L 319.100218 165.761394 
L 321.432768 160.082056 
L 323.473749 155.369032 
L 324.640024 153.152977 
L 325.806299 151.432983 
L 326.681005 150.511348 
L 327.555711 149.920556 
L 328.430417 149.659414 
L 329.305124 149.714107 
L 330.17983 150.059625 
L 331.054536 150.661549 
L 332.220811 151.789941 
L 333.678655 153.564084 
L 337.760617 158.832369 
L 339.21846 160.241774 
L 340.384735 161.052698 
L 341.55101 161.55612 
L 342.717285 161.75279 
L 343.88356 161.664164 
L 345.049835 161.328645 
L 346.507679 160.640217 
L 348.54866 159.381138 
L 351.755916 157.390036 
L 353.505328 156.585755 
L 354.963172 156.149405 
L 356.421016 155.93883 
L 357.878859 155.939669 
L 359.628272 156.17063 
L 361.960822 156.730315 
L 366.91749 157.995032 
L 369.25004 158.31854 
L 371.58259 158.406675 
L 374.206708 158.279222 
L 384.994751 157.469119 
L 389.659851 157.549381 
L 399.573188 157.780534 
L 432.520455 157.710546 
L 432.520455 157.710546 
" style="fill:none;stroke:#e24a33;stroke-linecap:square;stroke-width:1.5;"/>
   </g>
   <g id="line2d_29">
    <path clip-path="url(#p5544e3fcd6)" d="M 82.929545 157.704372 
L 121.125049 157.581736 
L 135.120348 157.324253 
L 144.742117 156.938961 
L 152.614472 156.405887 
L 159.320553 155.729008 
L 165.151928 154.923281 
L 170.691734 153.929639 
L 175.648402 152.82216 
L 180.605071 151.48465 
L 185.27017 149.999954 
L 189.93527 148.287739 
L 194.60037 146.347929 
L 199.557038 144.048753 
L 205.096844 141.220958 
L 211.511356 137.684169 
L 230.754892 126.875434 
L 235.419992 124.624934 
L 239.501954 122.904374 
L 243.292348 121.558799 
L 246.791173 120.562081 
L 249.998429 119.874502 
L 253.205685 119.416378 
L 256.412941 119.19628 
L 259.620197 119.218346 
L 262.827453 119.482163 
L 266.034709 119.982769 
L 269.241965 120.710816 
L 272.74079 121.748542 
L 276.239614 123.018436 
L 280.030008 124.624934 
L 284.403539 126.727268 
L 289.651776 129.514274 
L 297.232563 133.826039 
L 308.603744 140.279936 
L 314.435118 143.329165 
L 319.683355 145.828332 
L 324.640024 147.941209 
L 329.305124 149.69637 
L 333.970223 151.223318 
L 338.926892 152.603424 
L 343.88356 153.749962 
L 349.131797 154.733863 
L 354.671603 155.548375 
L 360.794547 156.22464 
L 367.792196 156.769193 
L 375.956121 157.177945 
L 386.452595 157.46858 
L 401.3226 157.638678 
L 430.479473 157.703578 
L 432.520455 157.704372 
L 432.520455 157.704372 
" style="fill:none;stroke:#348abd;stroke-linecap:square;stroke-width:1.5;"/>
   </g>
   <g id="patch_8">
    <path d="M 65.45 200.071667 
L 65.45 115.324043 
" style="fill:none;stroke:#ffffff;stroke-linecap:square;stroke-linejoin:miter;"/>
   </g>
   <g id="patch_9">
    <path d="M 450 200.071667 
L 450 115.324043 
" style="fill:none;stroke:#ffffff;stroke-linecap:square;stroke-linejoin:miter;"/>
   </g>
   <g id="patch_10">
    <path d="M 65.45 200.071667 
L 450 200.071667 
" style="fill:none;stroke:#ffffff;stroke-linecap:square;stroke-linejoin:miter;"/>
   </g>
   <g id="patch_11">
    <path d="M 65.45 115.324043 
L 450 115.324043 
" style="fill:none;stroke:#ffffff;stroke-linecap:square;stroke-linejoin:miter;"/>
   </g>
  </g>
  <g id="axes_3">
   <g id="patch_12">
    <path d="M 65.45 301.1875 
L 450 301.1875 
L 450 216.439877 
L 65.45 216.439877 
z
" style="fill:none;"/>
   </g>
   <g id="matplotlib.axis_5">
    <g id="xtick_15">
     <g id="line2d_30">
      <path clip-path="url(#p2269f2fe05)" d="M 94.716712 301.1875 
L 94.716712 216.439877 
" style="fill:none;stroke:#ffffff;stroke-linecap:square;stroke-width:0.8;"/>
     </g>
     <g id="line2d_31">
      <defs>
       <path d="M 0 0 
L 0 3.5 
" id="m920f446244" style="stroke:#555555;stroke-width:0.8;"/>
      </defs>
      <g>
       <use style="fill:#555555;stroke:#555555;stroke-width:0.8;" x="94.716712" xlink:href="#m920f446244" y="301.1875"/>
      </g>
     </g>
     <g id="text_9">
      <!-- −15 -->
      <g style="fill:#555555;" transform="translate(84.164368 315.785937)scale(0.1 -0.1)">
       <use xlink:href="#DejaVuSans-8722"/>
       <use x="83.789062" xlink:href="#DejaVuSans-49"/>
       <use x="147.412109" xlink:href="#DejaVuSans-53"/>
      </g>
     </g>
    </g>
    <g id="xtick_16">
     <g id="line2d_32">
      <path clip-path="url(#p2269f2fe05)" d="M 149.052808 301.1875 
L 149.052808 216.439877 
" style="fill:none;stroke:#ffffff;stroke-linecap:square;stroke-width:0.8;"/>
     </g>
     <g id="line2d_33">
      <g>
       <use style="fill:#555555;stroke:#555555;stroke-width:0.8;" x="149.052808" xlink:href="#m920f446244" y="301.1875"/>
      </g>
     </g>
     <g id="text_10">
      <!-- −10 -->
      <g style="fill:#555555;" transform="translate(138.500464 315.785937)scale(0.1 -0.1)">
       <use xlink:href="#DejaVuSans-8722"/>
       <use x="83.789062" xlink:href="#DejaVuSans-49"/>
       <use x="147.412109" xlink:href="#DejaVuSans-48"/>
      </g>
     </g>
    </g>
    <g id="xtick_17">
     <g id="line2d_34">
      <path clip-path="url(#p2269f2fe05)" d="M 203.388904 301.1875 
L 203.388904 216.439877 
" style="fill:none;stroke:#ffffff;stroke-linecap:square;stroke-width:0.8;"/>
     </g>
     <g id="line2d_35">
      <g>
       <use style="fill:#555555;stroke:#555555;stroke-width:0.8;" x="203.388904" xlink:href="#m920f446244" y="301.1875"/>
      </g>
     </g>
     <g id="text_11">
      <!-- −5 -->
      <g style="fill:#555555;" transform="translate(196.01781 315.785937)scale(0.1 -0.1)">
       <use xlink:href="#DejaVuSans-8722"/>
       <use x="83.789062" xlink:href="#DejaVuSans-53"/>
      </g>
     </g>
    </g>
    <g id="xtick_18">
     <g id="line2d_36">
      <path clip-path="url(#p2269f2fe05)" d="M 257.725 301.1875 
L 257.725 216.439877 
" style="fill:none;stroke:#ffffff;stroke-linecap:square;stroke-width:0.8;"/>
     </g>
     <g id="line2d_37">
      <g>
       <use style="fill:#555555;stroke:#555555;stroke-width:0.8;" x="257.725" xlink:href="#m920f446244" y="301.1875"/>
      </g>
     </g>
     <g id="text_12">
      <!-- 0 -->
      <g style="fill:#555555;" transform="translate(254.54375 315.785937)scale(0.1 -0.1)">
       <use xlink:href="#DejaVuSans-48"/>
      </g>
     </g>
    </g>
    <g id="xtick_19">
     <g id="line2d_38">
      <path clip-path="url(#p2269f2fe05)" d="M 312.061096 301.1875 
L 312.061096 216.439877 
" style="fill:none;stroke:#ffffff;stroke-linecap:square;stroke-width:0.8;"/>
     </g>
     <g id="line2d_39">
      <g>
       <use style="fill:#555555;stroke:#555555;stroke-width:0.8;" x="312.061096" xlink:href="#m920f446244" y="301.1875"/>
      </g>
     </g>
     <g id="text_13">
      <!-- 5 -->
      <g style="fill:#555555;" transform="translate(308.879846 315.785937)scale(0.1 -0.1)">
       <use xlink:href="#DejaVuSans-53"/>
      </g>
     </g>
    </g>
    <g id="xtick_20">
     <g id="line2d_40">
      <path clip-path="url(#p2269f2fe05)" d="M 366.397192 301.1875 
L 366.397192 216.439877 
" style="fill:none;stroke:#ffffff;stroke-linecap:square;stroke-width:0.8;"/>
     </g>
     <g id="line2d_41">
      <g>
       <use style="fill:#555555;stroke:#555555;stroke-width:0.8;" x="366.397192" xlink:href="#m920f446244" y="301.1875"/>
      </g>
     </g>
     <g id="text_14">
      <!-- 10 -->
      <g style="fill:#555555;" transform="translate(360.034692 315.785937)scale(0.1 -0.1)">
       <use xlink:href="#DejaVuSans-49"/>
       <use x="63.623047" xlink:href="#DejaVuSans-48"/>
      </g>
     </g>
    </g>
    <g id="xtick_21">
     <g id="line2d_42">
      <path clip-path="url(#p2269f2fe05)" d="M 420.733288 301.1875 
L 420.733288 216.439877 
" style="fill:none;stroke:#ffffff;stroke-linecap:square;stroke-width:0.8;"/>
     </g>
     <g id="line2d_43">
      <g>
       <use style="fill:#555555;stroke:#555555;stroke-width:0.8;" x="420.733288" xlink:href="#m920f446244" y="301.1875"/>
      </g>
     </g>
     <g id="text_15">
      <!-- 15 -->
      <g style="fill:#555555;" transform="translate(414.370788 315.785937)scale(0.1 -0.1)">
       <use xlink:href="#DejaVuSans-49"/>
       <use x="63.623047" xlink:href="#DejaVuSans-53"/>
      </g>
     </g>
    </g>
    <g id="text_16">
     <!-- $t$ [fs] -->
     <g style="fill:#555555;" transform="translate(243.505 330.98375)scale(0.12 -0.12)">
      <defs>
       <path d="M 37.109375 75.984375 
L 37.109375 68.5 
L 28.515625 68.5 
Q 23.6875 68.5 21.796875 66.546875 
Q 19.921875 64.59375 19.921875 59.515625 
L 19.921875 54.6875 
L 34.71875 54.6875 
L 34.71875 47.703125 
L 19.921875 47.703125 
L 19.921875 0 
L 10.890625 0 
L 10.890625 47.703125 
L 2.296875 47.703125 
L 2.296875 54.6875 
L 10.890625 54.6875 
L 10.890625 58.5 
Q 10.890625 67.625 15.140625 71.796875 
Q 19.390625 75.984375 28.609375 75.984375 
z
" id="DejaVuSans-102"/>
       <path d="M 44.28125 53.078125 
L 44.28125 44.578125 
Q 40.484375 46.53125 36.375 47.5 
Q 32.28125 48.484375 27.875 48.484375 
Q 21.1875 48.484375 17.84375 46.4375 
Q 14.5 44.390625 14.5 40.28125 
Q 14.5 37.15625 16.890625 35.375 
Q 19.28125 33.59375 26.515625 31.984375 
L 29.59375 31.296875 
Q 39.15625 29.25 43.1875 25.515625 
Q 47.21875 21.78125 47.21875 15.09375 
Q 47.21875 7.46875 41.1875 3.015625 
Q 35.15625 -1.421875 24.609375 -1.421875 
Q 20.21875 -1.421875 15.453125 -0.5625 
Q 10.6875 0.296875 5.421875 2 
L 5.421875 11.28125 
Q 10.40625 8.6875 15.234375 7.390625 
Q 20.0625 6.109375 24.8125 6.109375 
Q 31.15625 6.109375 34.5625 8.28125 
Q 37.984375 10.453125 37.984375 14.40625 
Q 37.984375 18.0625 35.515625 20.015625 
Q 33.0625 21.96875 24.703125 23.78125 
L 21.578125 24.515625 
Q 13.234375 26.265625 9.515625 29.90625 
Q 5.8125 33.546875 5.8125 39.890625 
Q 5.8125 47.609375 11.28125 51.796875 
Q 16.75 56 26.8125 56 
Q 31.78125 56 36.171875 55.265625 
Q 40.578125 54.546875 44.28125 53.078125 
z
" id="DejaVuSans-115"/>
      </defs>
      <use transform="translate(0 0.015625)" xlink:href="#DejaVuSans-Oblique-116"/>
      <use transform="translate(39.208984 0.015625)" xlink:href="#DejaVuSans-32"/>
      <use transform="translate(70.996094 0.015625)" xlink:href="#DejaVuSans-91"/>
      <use transform="translate(110.009766 0.015625)" xlink:href="#DejaVuSans-102"/>
      <use transform="translate(145.214844 0.015625)" xlink:href="#DejaVuSans-115"/>
      <use transform="translate(197.314453 0.015625)" xlink:href="#DejaVuSans-93"/>
     </g>
    </g>
   </g>
   <g id="matplotlib.axis_6">
    <g id="ytick_7">
     <g id="line2d_44">
      <path clip-path="url(#p2269f2fe05)" d="M 65.45 297.335335 
L 450 297.335335 
" style="fill:none;stroke:#ffffff;stroke-linecap:square;stroke-width:0.8;"/>
     </g>
     <g id="line2d_45">
      <g>
       <use style="fill:#555555;stroke:#555555;stroke-width:0.8;" x="65.45" xlink:href="#m30d5abb6e0" y="297.335335"/>
      </g>
     </g>
     <g id="text_17">
      <!-- 0.000 -->
      <g style="fill:#555555;" transform="translate(29.821875 301.134554)scale(0.1 -0.1)">
       <use xlink:href="#DejaVuSans-48"/>
       <use x="63.623047" xlink:href="#DejaVuSans-46"/>
       <use x="95.410156" xlink:href="#DejaVuSans-48"/>
       <use x="159.033203" xlink:href="#DejaVuSans-48"/>
       <use x="222.65625" xlink:href="#DejaVuSans-48"/>
      </g>
     </g>
    </g>
    <g id="ytick_8">
     <g id="line2d_46">
      <path clip-path="url(#p2269f2fe05)" d="M 65.45 270.297059 
L 450 270.297059 
" style="fill:none;stroke:#ffffff;stroke-linecap:square;stroke-width:0.8;"/>
     </g>
     <g id="line2d_47">
      <g>
       <use style="fill:#555555;stroke:#555555;stroke-width:0.8;" x="65.45" xlink:href="#m30d5abb6e0" y="270.297059"/>
      </g>
     </g>
     <g id="text_18">
      <!-- 0.001 -->
      <g style="fill:#555555;" transform="translate(29.821875 274.096278)scale(0.1 -0.1)">
       <use xlink:href="#DejaVuSans-48"/>
       <use x="63.623047" xlink:href="#DejaVuSans-46"/>
       <use x="95.410156" xlink:href="#DejaVuSans-48"/>
       <use x="159.033203" xlink:href="#DejaVuSans-48"/>
       <use x="222.65625" xlink:href="#DejaVuSans-49"/>
      </g>
     </g>
    </g>
    <g id="ytick_9">
     <g id="line2d_48">
      <path clip-path="url(#p2269f2fe05)" d="M 65.45 243.258782 
L 450 243.258782 
" style="fill:none;stroke:#ffffff;stroke-linecap:square;stroke-width:0.8;"/>
     </g>
     <g id="line2d_49">
      <g>
       <use style="fill:#555555;stroke:#555555;stroke-width:0.8;" x="65.45" xlink:href="#m30d5abb6e0" y="243.258782"/>
      </g>
     </g>
     <g id="text_19">
      <!-- 0.002 -->
      <g style="fill:#555555;" transform="translate(29.821875 247.058001)scale(0.1 -0.1)">
       <defs>
        <path d="M 19.1875 8.296875 
L 53.609375 8.296875 
L 53.609375 0 
L 7.328125 0 
L 7.328125 8.296875 
Q 12.9375 14.109375 22.625 23.890625 
Q 32.328125 33.6875 34.8125 36.53125 
Q 39.546875 41.84375 41.421875 45.53125 
Q 43.3125 49.21875 43.3125 52.78125 
Q 43.3125 58.59375 39.234375 62.25 
Q 35.15625 65.921875 28.609375 65.921875 
Q 23.96875 65.921875 18.8125 64.3125 
Q 13.671875 62.703125 7.8125 59.421875 
L 7.8125 69.390625 
Q 13.765625 71.78125 18.9375 73 
Q 24.125 74.21875 28.421875 74.21875 
Q 39.75 74.21875 46.484375 68.546875 
Q 53.21875 62.890625 53.21875 53.421875 
Q 53.21875 48.921875 51.53125 44.890625 
Q 49.859375 40.875 45.40625 35.40625 
Q 44.1875 33.984375 37.640625 27.21875 
Q 31.109375 20.453125 19.1875 8.296875 
z
" id="DejaVuSans-50"/>
       </defs>
       <use xlink:href="#DejaVuSans-48"/>
       <use x="63.623047" xlink:href="#DejaVuSans-46"/>
       <use x="95.410156" xlink:href="#DejaVuSans-48"/>
       <use x="159.033203" xlink:href="#DejaVuSans-48"/>
       <use x="222.65625" xlink:href="#DejaVuSans-50"/>
      </g>
     </g>
    </g>
    <g id="text_20">
     <!-- $I(t)$ [au] -->
     <g style="fill:#555555;" transform="translate(23.32625 281.733688)rotate(-90)scale(0.12 -0.12)">
      <defs>
       <path d="M 16.890625 72.90625 
L 26.8125 72.90625 
L 12.59375 0 
L 2.6875 0 
z
" id="DejaVuSans-Oblique-73"/>
      </defs>
      <use transform="translate(0 0.015625)" xlink:href="#DejaVuSans-Oblique-73"/>
      <use transform="translate(29.492188 0.015625)" xlink:href="#DejaVuSans-40"/>
      <use transform="translate(68.505859 0.015625)" xlink:href="#DejaVuSans-Oblique-116"/>
      <use transform="translate(107.714844 0.015625)" xlink:href="#DejaVuSans-41"/>
      <use transform="translate(146.728516 0.015625)" xlink:href="#DejaVuSans-32"/>
      <use transform="translate(178.515625 0.015625)" xlink:href="#DejaVuSans-91"/>
      <use transform="translate(217.529297 0.015625)" xlink:href="#DejaVuSans-97"/>
      <use transform="translate(278.808594 0.015625)" xlink:href="#DejaVuSans-117"/>
      <use transform="translate(342.1875 0.015625)" xlink:href="#DejaVuSans-93"/>
     </g>
    </g>
   </g>
   <g id="line2d_50">
    <path clip-path="url(#p2269f2fe05)" d="M 82.929545 297.335335 
L 155.238591 297.231101 
L 159.903691 297.19074 
L 166.026634 297.272685 
L 168.359184 296.985378 
L 171.858009 296.503567 
L 173.607421 296.535531 
L 175.356833 296.813645 
L 178.272521 297.324513 
L 179.438796 297.282322 
L 180.605071 296.990221 
L 181.771345 296.444393 
L 183.520758 295.321529 
L 184.978601 294.436644 
L 185.853308 294.089223 
L 186.728014 293.960813 
L 187.60272 294.088258 
L 188.477426 294.470468 
L 189.643701 295.292263 
L 191.684682 296.888712 
L 192.559389 297.275043 
L 193.142526 297.331782 
L 193.725663 297.192337 
L 194.308801 296.838221 
L 194.891938 296.264243 
L 195.766645 295.016554 
L 196.932919 292.803394 
L 198.973901 288.722658 
L 199.848607 287.516314 
L 200.431744 287.0574 
L 201.014882 286.926671 
L 201.598019 287.146421 
L 202.181157 287.71548 
L 202.764294 288.607347 
L 203.639 290.430059 
L 205.97155 295.909158 
L 206.554688 296.800743 
L 207.137825 297.278523 
L 207.429394 297.33505 
L 207.720963 297.25879 
L 208.012531 297.043759 
L 208.595669 296.184411 
L 209.178806 294.754705 
L 210.053512 291.632697 
L 211.219787 286.143456 
L 212.9692 277.511072 
L 213.843906 274.307512 
L 214.427043 272.954135 
L 214.718612 272.556958 
L 215.010181 272.359798 
L 215.30175 272.369006 
L 215.593318 272.587544 
L 215.884887 273.014838 
L 216.468024 274.47518 
L 217.051162 276.672529 
L 217.925868 281.043851 
L 220.258418 293.830241 
L 220.841555 295.925568 
L 221.424693 297.119842 
L 221.716262 297.3269 
L 222.00783 297.253694 
L 222.299399 296.890496 
L 222.590968 296.232267 
L 223.174105 294.0352 
L 223.757243 290.721867 
L 224.631949 283.983386 
L 226.089793 270.121562 
L 227.256068 259.595888 
L 228.130774 253.812667 
L 228.713911 251.491834 
L 229.00548 250.866686 
L 229.297049 250.619082 
L 229.588617 250.756967 
L 229.880186 251.281894 
L 230.171755 252.188868 
L 230.754892 255.096088 
L 231.33803 259.308921 
L 232.212736 267.472965 
L 234.545286 290.690193 
L 235.128423 294.503047 
L 235.711561 296.779551 
L 236.00313 297.2648 
L 236.294698 297.287294 
L 236.586267 296.835812 
L 236.877836 295.907003 
L 237.460973 292.644278 
L 238.044111 287.632996 
L 238.918817 277.42948 
L 242.126073 235.606459 
L 242.70921 231.54513 
L 243.000779 230.271285 
L 243.292348 229.536386 
L 243.583917 229.355368 
L 243.875485 229.734027 
L 244.167054 230.668835 
L 244.750191 234.146127 
L 245.333329 239.575337 
L 246.208035 250.589169 
L 248.832154 287.59917 
L 249.415291 292.978737 
L 249.998429 296.307858 
L 250.289997 297.117052 
L 250.581566 297.328511 
L 250.873135 296.934027 
L 251.164704 295.935578 
L 251.747841 292.185592 
L 252.330978 286.294479 
L 253.205685 274.269729 
L 256.121372 229.480808 
L 256.704509 224.107176 
L 257.287647 221.001777 
L 257.579216 220.370228 
L 257.870784 220.370228 
L 258.162353 221.001777 
L 258.453922 222.254369 
L 259.037059 226.529401 
L 259.620197 232.912411 
L 260.494903 245.485796 
L 263.119022 286.294479 
L 263.702159 292.185592 
L 264.285296 295.935578 
L 264.576865 296.934027 
L 264.868434 297.328511 
L 265.160003 297.117052 
L 265.451571 296.307858 
L 265.74314 294.919137 
L 266.326278 290.523616 
L 266.909415 284.258411 
L 267.784121 272.36212 
L 269.825102 242.918355 
L 270.699809 234.146127 
L 271.282946 230.668835 
L 271.574515 229.734027 
L 271.866083 229.355368 
L 272.157652 229.536386 
L 272.449221 230.271285 
L 272.74079 231.54513 
L 273.323927 235.606459 
L 273.907065 241.434859 
L 274.781771 252.602785 
L 277.114321 284.547411 
L 277.989027 292.644278 
L 278.572164 295.907003 
L 278.863733 296.835812 
L 279.155302 297.287294 
L 279.44687 297.2648 
L 279.738439 296.779551 
L 280.030008 295.85033 
L 280.613145 292.770194 
L 281.196283 288.306648 
L 282.362558 276.743181 
L 283.820401 261.825386 
L 284.695108 255.096088 
L 285.278245 252.188868 
L 285.569814 251.281894 
L 285.861383 250.756967 
L 286.152951 250.619082 
L 286.44452 250.866686 
L 286.736089 251.491834 
L 287.319226 253.812667 
L 287.902364 257.402447 
L 288.77707 264.592202 
L 291.401188 288.687045 
L 292.275895 294.0352 
L 292.859032 296.232267 
L 293.150601 296.890496 
L 293.44217 297.253694 
L 293.733738 297.3269 
L 294.025307 297.119842 
L 294.316876 296.646663 
L 294.900013 294.978412 
L 295.483151 292.508785 
L 296.649426 286.107958 
L 298.107269 278.007839 
L 298.981976 274.47518 
L 299.565113 273.014838 
L 299.856682 272.587544 
L 300.14825 272.369006 
L 300.439819 272.359798 
L 300.731388 272.556958 
L 301.022957 272.954135 
L 301.606094 274.307512 
L 302.189232 276.310473 
L 303.063938 280.206747 
L 305.688056 292.791718 
L 306.562763 295.539474 
L 307.1459 296.686138 
L 307.729037 297.25879 
L 308.020606 297.33505 
L 308.312175 297.278523 
L 308.895312 296.800743 
L 309.47845 295.909158 
L 310.353156 294.028148 
L 312.685706 288.607347 
L 313.268843 287.71548 
L 313.851981 287.146421 
L 314.435118 286.926671 
L 315.018256 287.0574 
L 315.601393 287.516314 
L 316.184531 288.260935 
L 317.059237 289.783044 
L 319.974924 295.480121 
L 320.84963 296.578469 
L 321.432768 297.042771 
L 322.015905 297.288025 
L 322.599043 297.326322 
L 323.18218 297.181946 
L 324.056886 296.698696 
L 325.806299 295.292263 
L 326.972574 294.470468 
L 327.84728 294.088258 
L 328.721986 293.960813 
L 329.596692 294.089223 
L 330.471399 294.436644 
L 331.929242 295.321529 
L 333.970223 296.602128 
L 335.136498 297.088078 
L 336.302773 297.314692 
L 337.469048 297.302358 
L 339.21846 297.002088 
L 341.842579 296.535531 
L 343.300423 296.490691 
L 345.049835 296.654935 
L 350.298072 297.320379 
L 352.922191 297.294634 
L 358.170428 297.177292 
L 371.291021 297.309914 
L 432.520455 297.335335 
L 432.520455 297.335335 
" style="fill:none;stroke:#e24a33;stroke-linecap:square;stroke-width:1.5;"/>
   </g>
   <g id="line2d_51">
    <path clip-path="url(#p2269f2fe05)" d="M 82.929545 297.335335 
L 154.363885 297.225348 
L 163.985653 296.983239 
L 170.400165 296.617401 
L 175.648402 296.096773 
L 180.021933 295.434018 
L 183.812327 294.630626 
L 187.311151 293.648855 
L 190.518407 292.502951 
L 193.434095 291.222173 
L 196.349782 289.682215 
L 198.973901 288.050383 
L 201.598019 286.165394 
L 204.222138 284.010789 
L 206.846256 281.574301 
L 209.470375 278.849119 
L 212.386062 275.482665 
L 215.30175 271.771139 
L 218.509006 267.320071 
L 222.00783 262.086827 
L 226.67293 254.671143 
L 236.586267 238.749297 
L 239.793523 234.072212 
L 242.417642 230.598032 
L 244.750191 227.844248 
L 246.791173 225.73446 
L 248.832154 223.936388 
L 250.581566 222.663395 
L 252.330978 221.65279 
L 254.080391 220.915741 
L 255.538235 220.516517 
L 256.996078 220.316124 
L 258.453922 220.316124 
L 259.911765 220.516517 
L 261.369609 220.915741 
L 263.119022 221.65279 
L 264.868434 222.663395 
L 266.617846 223.936388 
L 268.658827 225.73446 
L 270.699809 227.844248 
L 273.032358 230.598032 
L 275.656477 234.072212 
L 278.572164 238.308043 
L 282.362558 244.227489 
L 296.066288 266.045514 
L 299.565113 270.989362 
L 302.772369 275.126741 
L 305.688056 278.528423 
L 308.603744 281.574301 
L 311.227862 284.010789 
L 313.851981 286.165394 
L 316.476099 288.050383 
L 319.100218 289.682215 
L 322.015905 291.222173 
L 324.931593 292.502951 
L 328.138849 293.648855 
L 331.346105 294.558325 
L 334.844929 295.325771 
L 338.926892 295.983382 
L 343.591991 296.497139 
L 349.131797 296.876434 
L 356.421016 297.139217 
L 367.500627 297.287802 
L 392.28397 297.33418 
L 432.520455 297.335335 
L 432.520455 297.335335 
" style="fill:none;stroke:#348abd;stroke-linecap:square;stroke-width:1.5;"/>
   </g>
   <g id="patch_13">
    <path d="M 65.45 301.1875 
L 65.45 216.439877 
" style="fill:none;stroke:#ffffff;stroke-linecap:square;stroke-linejoin:miter;"/>
   </g>
   <g id="patch_14">
    <path d="M 450 301.1875 
L 450 216.439877 
" style="fill:none;stroke:#ffffff;stroke-linecap:square;stroke-linejoin:miter;"/>
   </g>
   <g id="patch_15">
    <path d="M 65.45 301.1875 
L 450 301.1875 
" style="fill:none;stroke:#ffffff;stroke-linecap:square;stroke-linejoin:miter;"/>
   </g>
   <g id="patch_16">
    <path d="M 65.45 216.439877 
L 450 216.439877 
" style="fill:none;stroke:#ffffff;stroke-linecap:square;stroke-linejoin:miter;"/>
   </g>
  </g>
 </g>
 <defs>
  <clipPath id="pd986114aa3">
   <rect height="84.747623" width="384.55" x="65.45" y="14.20821"/>
  </clipPath>
  <clipPath id="p5544e3fcd6">
   <rect height="84.747623" width="384.55" x="65.45" y="115.324043"/>
  </clipPath>
  <clipPath id="p2269f2fe05">
   <rect height="84.747623" width="384.55" x="65.45" y="216.439877"/>
  </clipPath>
 </defs>
</svg>
