<?xml version="1.0" encoding="utf-8" standalone="no"?>
<!DOCTYPE svg PUBLIC "-//W3C//DTD SVG 1.1//EN"
  "http://www.w3.org/Graphics/SVG/1.1/DTD/svg11.dtd">
<svg xmlns:xlink="http://www.w3.org/1999/xlink" width="504pt" height="576pt" viewBox="0 0 504 576" xmlns="http://www.w3.org/2000/svg" version="1.1">
 <metadata>
  <rdf:RDF xmlns:dc="http://purl.org/dc/elements/1.1/" xmlns:cc="http://creativecommons.org/ns#" xmlns:rdf="http://www.w3.org/1999/02/22-rdf-syntax-ns#">
   <cc:Work>
    <dc:type rdf:resource="http://purl.org/dc/dcmitype/StillImage"/>
    <dc:date>2024-04-02T17:02:40.214584</dc:date>
    <dc:format>image/svg+xml</dc:format>
    <dc:creator>
     <cc:Agent>
      <dc:title>Matplotlib v3.8.3, https://matplotlib.org/</dc:title>
     </cc:Agent>
    </dc:creator>
   </cc:Work>
  </rdf:RDF>
 </metadata>
 <defs>
  <style type="text/css">*{stroke-linejoin: round; stroke-linecap: butt}</style>
 </defs>
 <g id="figure_1">
  <g id="patch_1">
   <path d="M 0 576 
L 504 576 
L 504 0 
L 0 0 
z
" style="fill: #ffffff"/>
  </g>
  <g id="axes_1">
   <g id="patch_2">
    <path d="M 65.45 265.79375 
L 493.2 265.79375 
L 493.2 10.8 
L 65.45 10.8 
z
" style="fill: #e5e5e5"/>
   </g>
   <g id="matplotlib.axis_1">
    <g id="xtick_1">
     <g id="line2d_1">
      <path d="M 84.893182 265.79375 
L 84.893182 10.8 
" clip-path="url(#p763d14d2ec)" style="fill: none; stroke: #ffffff; stroke-width: 0.8; stroke-linecap: square"/>
     </g>
    </g>
    <g id="xtick_2">
     <g id="line2d_2">
      <path d="M 170.140523 265.79375 
L 170.140523 10.8 
" clip-path="url(#p763d14d2ec)" style="fill: none; stroke: #ffffff; stroke-width: 0.8; stroke-linecap: square"/>
     </g>
    </g>
    <g id="xtick_3">
     <g id="line2d_3">
      <path d="M 255.387865 265.79375 
L 255.387865 10.8 
" clip-path="url(#p763d14d2ec)" style="fill: none; stroke: #ffffff; stroke-width: 0.8; stroke-linecap: square"/>
     </g>
    </g>
    <g id="xtick_4">
     <g id="line2d_4">
      <path d="M 340.635206 265.79375 
L 340.635206 10.8 
" clip-path="url(#p763d14d2ec)" style="fill: none; stroke: #ffffff; stroke-width: 0.8; stroke-linecap: square"/>
     </g>
    </g>
    <g id="xtick_5">
     <g id="line2d_5">
      <path d="M 425.882548 265.79375 
L 425.882548 10.8 
" clip-path="url(#p763d14d2ec)" style="fill: none; stroke: #ffffff; stroke-width: 0.8; stroke-linecap: square"/>
     </g>
    </g>
   </g>
   <g id="matplotlib.axis_2">
    <g id="ytick_1">
     <g id="line2d_6">
      <path d="M 65.45 254.20313 
L 493.2 254.20313 
" clip-path="url(#p763d14d2ec)" style="fill: none; stroke: #ffffff; stroke-width: 0.8; stroke-linecap: square"/>
     </g>
     <g id="line2d_7">
      <defs>
       <path id="mbfe37689db" d="M 0 0 
L -3.5 0 
" style="stroke: #555555; stroke-width: 0.8"/>
      </defs>
      <g>
       <use xlink:href="#mbfe37689db" x="65.45" y="254.20313" style="fill: #555555; stroke: #555555; stroke-width: 0.8"/>
      </g>
     </g>
     <g id="text_1">
      <!-- −1.00 -->
      <g style="fill: #555555" transform="translate(27.804688 258.002349) scale(0.1 -0.1)">
       <defs>
        <path id="DejaVuSans-2212" d="M 678 2272 
L 4684 2272 
L 4684 1741 
L 678 1741 
L 678 2272 
z
" transform="scale(0.015625)"/>
        <path id="DejaVuSans-31" d="M 794 531 
L 1825 531 
L 1825 4091 
L 703 3866 
L 703 4441 
L 1819 4666 
L 2450 4666 
L 2450 531 
L 3481 531 
L 3481 0 
L 794 0 
L 794 531 
z
" transform="scale(0.015625)"/>
        <path id="DejaVuSans-2e" d="M 684 794 
L 1344 794 
L 1344 0 
L 684 0 
L 684 794 
z
" transform="scale(0.015625)"/>
        <path id="DejaVuSans-30" d="M 2034 4250 
Q 1547 4250 1301 3770 
Q 1056 3291 1056 2328 
Q 1056 1369 1301 889 
Q 1547 409 2034 409 
Q 2525 409 2770 889 
Q 3016 1369 3016 2328 
Q 3016 3291 2770 3770 
Q 2525 4250 2034 4250 
z
M 2034 4750 
Q 2819 4750 3233 4129 
Q 3647 3509 3647 2328 
Q 3647 1150 3233 529 
Q 2819 -91 2034 -91 
Q 1250 -91 836 529 
Q 422 1150 422 2328 
Q 422 3509 836 4129 
Q 1250 4750 2034 4750 
z
" transform="scale(0.015625)"/>
       </defs>
       <use xlink:href="#DejaVuSans-2212"/>
       <use xlink:href="#DejaVuSans-31" x="83.789062"/>
       <use xlink:href="#DejaVuSans-2e" x="147.412109"/>
       <use xlink:href="#DejaVuSans-30" x="179.199219"/>
       <use xlink:href="#DejaVuSans-30" x="242.822266"/>
      </g>
     </g>
    </g>
    <g id="ytick_2">
     <g id="line2d_8">
      <path d="M 65.45 225.225767 
L 493.2 225.225767 
" clip-path="url(#p763d14d2ec)" style="fill: none; stroke: #ffffff; stroke-width: 0.8; stroke-linecap: square"/>
     </g>
     <g id="line2d_9">
      <g>
       <use xlink:href="#mbfe37689db" x="65.45" y="225.225767" style="fill: #555555; stroke: #555555; stroke-width: 0.8"/>
      </g>
     </g>
     <g id="text_2">
      <!-- −0.75 -->
      <g style="fill: #555555" transform="translate(27.804688 229.024985) scale(0.1 -0.1)">
       <defs>
        <path id="DejaVuSans-37" d="M 525 4666 
L 3525 4666 
L 3525 4397 
L 1831 0 
L 1172 0 
L 2766 4134 
L 525 4134 
L 525 4666 
z
" transform="scale(0.015625)"/>
        <path id="DejaVuSans-35" d="M 691 4666 
L 3169 4666 
L 3169 4134 
L 1269 4134 
L 1269 2991 
Q 1406 3038 1543 3061 
Q 1681 3084 1819 3084 
Q 2600 3084 3056 2656 
Q 3513 2228 3513 1497 
Q 3513 744 3044 326 
Q 2575 -91 1722 -91 
Q 1428 -91 1123 -41 
Q 819 9 494 109 
L 494 744 
Q 775 591 1075 516 
Q 1375 441 1709 441 
Q 2250 441 2565 725 
Q 2881 1009 2881 1497 
Q 2881 1984 2565 2268 
Q 2250 2553 1709 2553 
Q 1456 2553 1204 2497 
Q 953 2441 691 2322 
L 691 4666 
z
" transform="scale(0.015625)"/>
       </defs>
       <use xlink:href="#DejaVuSans-2212"/>
       <use xlink:href="#DejaVuSans-30" x="83.789062"/>
       <use xlink:href="#DejaVuSans-2e" x="147.412109"/>
       <use xlink:href="#DejaVuSans-37" x="179.199219"/>
       <use xlink:href="#DejaVuSans-35" x="242.822266"/>
      </g>
     </g>
    </g>
    <g id="ytick_3">
     <g id="line2d_10">
      <path d="M 65.45 196.248403 
L 493.2 196.248403 
" clip-path="url(#p763d14d2ec)" style="fill: none; stroke: #ffffff; stroke-width: 0.8; stroke-linecap: square"/>
     </g>
     <g id="line2d_11">
      <g>
       <use xlink:href="#mbfe37689db" x="65.45" y="196.248403" style="fill: #555555; stroke: #555555; stroke-width: 0.8"/>
      </g>
     </g>
     <g id="text_3">
      <!-- −0.50 -->
      <g style="fill: #555555" transform="translate(27.804688 200.047622) scale(0.1 -0.1)">
       <use xlink:href="#DejaVuSans-2212"/>
       <use xlink:href="#DejaVuSans-30" x="83.789062"/>
       <use xlink:href="#DejaVuSans-2e" x="147.412109"/>
       <use xlink:href="#DejaVuSans-35" x="179.199219"/>
       <use xlink:href="#DejaVuSans-30" x="242.822266"/>
      </g>
     </g>
    </g>
    <g id="ytick_4">
     <g id="line2d_12">
      <path d="M 65.45 167.27104 
L 493.2 167.27104 
" clip-path="url(#p763d14d2ec)" style="fill: none; stroke: #ffffff; stroke-width: 0.8; stroke-linecap: square"/>
     </g>
     <g id="line2d_13">
      <g>
       <use xlink:href="#mbfe37689db" x="65.45" y="167.27104" style="fill: #555555; stroke: #555555; stroke-width: 0.8"/>
      </g>
     </g>
     <g id="text_4">
      <!-- −0.25 -->
      <g style="fill: #555555" transform="translate(27.804688 171.070258) scale(0.1 -0.1)">
       <defs>
        <path id="DejaVuSans-32" d="M 1228 531 
L 3431 531 
L 3431 0 
L 469 0 
L 469 531 
Q 828 903 1448 1529 
Q 2069 2156 2228 2338 
Q 2531 2678 2651 2914 
Q 2772 3150 2772 3378 
Q 2772 3750 2511 3984 
Q 2250 4219 1831 4219 
Q 1534 4219 1204 4116 
Q 875 4013 500 3803 
L 500 4441 
Q 881 4594 1212 4672 
Q 1544 4750 1819 4750 
Q 2544 4750 2975 4387 
Q 3406 4025 3406 3419 
Q 3406 3131 3298 2873 
Q 3191 2616 2906 2266 
Q 2828 2175 2409 1742 
Q 1991 1309 1228 531 
z
" transform="scale(0.015625)"/>
       </defs>
       <use xlink:href="#DejaVuSans-2212"/>
       <use xlink:href="#DejaVuSans-30" x="83.789062"/>
       <use xlink:href="#DejaVuSans-2e" x="147.412109"/>
       <use xlink:href="#DejaVuSans-32" x="179.199219"/>
       <use xlink:href="#DejaVuSans-35" x="242.822266"/>
      </g>
     </g>
    </g>
    <g id="ytick_5">
     <g id="line2d_14">
      <path d="M 65.45 138.293676 
L 493.2 138.293676 
" clip-path="url(#p763d14d2ec)" style="fill: none; stroke: #ffffff; stroke-width: 0.8; stroke-linecap: square"/>
     </g>
     <g id="line2d_15">
      <g>
       <use xlink:href="#mbfe37689db" x="65.45" y="138.293676" style="fill: #555555; stroke: #555555; stroke-width: 0.8"/>
      </g>
     </g>
     <g id="text_5">
      <!-- 0.00 -->
      <g style="fill: #555555" transform="translate(36.184375 142.092895) scale(0.1 -0.1)">
       <use xlink:href="#DejaVuSans-30"/>
       <use xlink:href="#DejaVuSans-2e" x="63.623047"/>
       <use xlink:href="#DejaVuSans-30" x="95.410156"/>
       <use xlink:href="#DejaVuSans-30" x="159.033203"/>
      </g>
     </g>
    </g>
    <g id="ytick_6">
     <g id="line2d_16">
      <path d="M 65.45 109.316312 
L 493.2 109.316312 
" clip-path="url(#p763d14d2ec)" style="fill: none; stroke: #ffffff; stroke-width: 0.8; stroke-linecap: square"/>
     </g>
     <g id="line2d_17">
      <g>
       <use xlink:href="#mbfe37689db" x="65.45" y="109.316312" style="fill: #555555; stroke: #555555; stroke-width: 0.8"/>
      </g>
     </g>
     <g id="text_6">
      <!-- 0.25 -->
      <g style="fill: #555555" transform="translate(36.184375 113.115531) scale(0.1 -0.1)">
       <use xlink:href="#DejaVuSans-30"/>
       <use xlink:href="#DejaVuSans-2e" x="63.623047"/>
       <use xlink:href="#DejaVuSans-32" x="95.410156"/>
       <use xlink:href="#DejaVuSans-35" x="159.033203"/>
      </g>
     </g>
    </g>
    <g id="ytick_7">
     <g id="line2d_18">
      <path d="M 65.45 80.338949 
L 493.2 80.338949 
" clip-path="url(#p763d14d2ec)" style="fill: none; stroke: #ffffff; stroke-width: 0.8; stroke-linecap: square"/>
     </g>
     <g id="line2d_19">
      <g>
       <use xlink:href="#mbfe37689db" x="65.45" y="80.338949" style="fill: #555555; stroke: #555555; stroke-width: 0.8"/>
      </g>
     </g>
     <g id="text_7">
      <!-- 0.50 -->
      <g style="fill: #555555" transform="translate(36.184375 84.138168) scale(0.1 -0.1)">
       <use xlink:href="#DejaVuSans-30"/>
       <use xlink:href="#DejaVuSans-2e" x="63.623047"/>
       <use xlink:href="#DejaVuSans-35" x="95.410156"/>
       <use xlink:href="#DejaVuSans-30" x="159.033203"/>
      </g>
     </g>
    </g>
    <g id="ytick_8">
     <g id="line2d_20">
      <path d="M 65.45 51.361585 
L 493.2 51.361585 
" clip-path="url(#p763d14d2ec)" style="fill: none; stroke: #ffffff; stroke-width: 0.8; stroke-linecap: square"/>
     </g>
     <g id="line2d_21">
      <g>
       <use xlink:href="#mbfe37689db" x="65.45" y="51.361585" style="fill: #555555; stroke: #555555; stroke-width: 0.8"/>
      </g>
     </g>
     <g id="text_8">
      <!-- 0.75 -->
      <g style="fill: #555555" transform="translate(36.184375 55.160804) scale(0.1 -0.1)">
       <use xlink:href="#DejaVuSans-30"/>
       <use xlink:href="#DejaVuSans-2e" x="63.623047"/>
       <use xlink:href="#DejaVuSans-37" x="95.410156"/>
       <use xlink:href="#DejaVuSans-35" x="159.033203"/>
      </g>
     </g>
    </g>
    <g id="ytick_9">
     <g id="line2d_22">
      <path d="M 65.45 22.384222 
L 493.2 22.384222 
" clip-path="url(#p763d14d2ec)" style="fill: none; stroke: #ffffff; stroke-width: 0.8; stroke-linecap: square"/>
     </g>
     <g id="line2d_23">
      <g>
       <use xlink:href="#mbfe37689db" x="65.45" y="22.384222" style="fill: #555555; stroke: #555555; stroke-width: 0.8"/>
      </g>
     </g>
     <g id="text_9">
      <!-- 1.00 -->
      <g style="fill: #555555" transform="translate(36.184375 26.18344) scale(0.1 -0.1)">
       <use xlink:href="#DejaVuSans-31"/>
       <use xlink:href="#DejaVuSans-2e" x="63.623047"/>
       <use xlink:href="#DejaVuSans-30" x="95.410156"/>
       <use xlink:href="#DejaVuSans-30" x="159.033203"/>
      </g>
     </g>
    </g>
    <g id="text_10">
     <!-- $F(t)$ -->
     <g style="fill: #555555" transform="translate(21.309062 148.796875) rotate(-90) scale(0.12 -0.12)">
      <defs>
       <path id="DejaVuSans-Oblique-46" d="M 1081 4666 
L 3756 4666 
L 3653 4134 
L 1606 4134 
L 1338 2759 
L 3188 2759 
L 3084 2228 
L 1234 2228 
L 800 0 
L 172 0 
L 1081 4666 
z
" transform="scale(0.015625)"/>
       <path id="DejaVuSans-28" d="M 1984 4856 
Q 1566 4138 1362 3434 
Q 1159 2731 1159 2009 
Q 1159 1288 1364 580 
Q 1569 -128 1984 -844 
L 1484 -844 
Q 1016 -109 783 600 
Q 550 1309 550 2009 
Q 550 2706 781 3412 
Q 1013 4119 1484 4856 
L 1984 4856 
z
" transform="scale(0.015625)"/>
       <path id="DejaVuSans-Oblique-74" d="M 2706 3500 
L 2619 3053 
L 1472 3053 
L 1100 1153 
Q 1081 1047 1072 975 
Q 1063 903 1063 863 
Q 1063 663 1183 572 
Q 1303 481 1569 481 
L 2150 481 
L 2053 0 
L 1503 0 
Q 991 0 739 200 
Q 488 400 488 806 
Q 488 878 497 964 
Q 506 1050 525 1153 
L 897 3053 
L 409 3053 
L 500 3500 
L 978 3500 
L 1172 4494 
L 1747 4494 
L 1556 3500 
L 2706 3500 
z
" transform="scale(0.015625)"/>
       <path id="DejaVuSans-29" d="M 513 4856 
L 1013 4856 
Q 1481 4119 1714 3412 
Q 1947 2706 1947 2009 
Q 1947 1309 1714 600 
Q 1481 -109 1013 -844 
L 513 -844 
Q 928 -128 1133 580 
Q 1338 1288 1338 2009 
Q 1338 2731 1133 3434 
Q 928 4138 513 4856 
z
" transform="scale(0.015625)"/>
      </defs>
      <use xlink:href="#DejaVuSans-Oblique-46" transform="translate(0 0.125)"/>
      <use xlink:href="#DejaVuSans-28" transform="translate(57.519531 0.125)"/>
      <use xlink:href="#DejaVuSans-Oblique-74" transform="translate(96.533203 0.125)"/>
      <use xlink:href="#DejaVuSans-29" transform="translate(135.742188 0.125)"/>
     </g>
    </g>
   </g>
   <g id="line2d_24">
    <path d="M 84.893182 254.203125 
L 86.193729 253.972872 
L 87.494276 253.283029 
L 88.794824 252.136335 
L 90.095371 250.537347 
L 91.395918 248.492418 
L 92.696465 246.009672 
L 93.997013 243.098972 
L 95.29756 239.771884 
L 96.598107 236.041624 
L 97.898655 231.923015 
L 100.499749 222.587676 
L 103.100844 211.914074 
L 105.701938 200.071667 
L 108.303033 187.248464 
L 112.204675 166.623473 
L 118.707411 130.383735 
L 123.9096 101.78145 
L 127.811242 81.750857 
L 130.412337 69.475971 
L 133.013431 58.293644 
L 135.614526 48.381408 
L 138.21562 39.896629 
L 139.516168 36.232579 
L 140.816715 32.974014 
L 142.117262 30.133883 
L 143.417809 27.723467 
L 144.718357 25.752345 
L 146.018904 24.228347 
L 147.319451 23.157527 
L 148.619998 22.544141 
L 149.920546 22.390625 
L 151.221093 22.697589 
L 152.52164 23.463814 
L 153.822188 24.686255 
L 155.122735 26.360056 
L 156.423282 28.478566 
L 157.723829 31.03337 
L 159.024377 34.014316 
L 160.324924 37.409561 
L 161.625471 41.205617 
L 164.226566 49.9383 
L 166.82766 60.073724 
L 169.428755 71.450978 
L 172.029849 83.889434 
L 175.931491 104.101059 
L 181.13368 132.815346 
L 187.636417 168.978893 
L 191.538059 189.445306 
L 194.139153 202.118799 
L 196.740248 213.778996 
L 199.341342 224.240779 
L 201.942437 233.338056 
L 203.242984 237.328958 
L 204.543531 240.926396 
L 205.844079 244.116076 
L 207.144626 246.885327 
L 208.445173 249.223145 
L 209.745721 251.120243 
L 211.046268 252.569083 
L 212.346815 253.56391 
L 213.647362 254.100772 
L 214.94791 254.177534 
L 216.248457 253.793892 
L 217.549004 252.951371 
L 218.849552 251.653317 
L 220.150099 249.904888 
L 221.450646 247.713031 
L 222.751193 245.086452 
L 224.051741 242.035589 
L 225.352288 238.572561 
L 226.652835 234.711128 
L 229.25393 225.855931 
L 231.855024 215.610586 
L 234.456119 204.137748 
L 237.057213 191.619561 
L 240.958855 171.320763 
L 246.161044 142.555227 
L 252.663781 106.435766 
L 256.565423 86.052035 
L 259.166517 73.4555 
L 261.767612 61.888343 
L 264.368706 51.534208 
L 266.969801 42.557476 
L 268.270348 38.631091 
L 269.570895 35.100664 
L 270.871443 31.980219 
L 272.17199 29.282156 
L 273.472537 27.017193 
L 274.773085 25.194329 
L 276.073632 23.820806 
L 277.374179 22.902081 
L 278.674726 22.441805 
L 279.975274 22.441805 
L 281.275821 22.902081 
L 282.576368 23.820806 
L 283.876915 25.194329 
L 285.177463 27.017193 
L 286.47801 29.282156 
L 287.778557 31.980219 
L 289.079105 35.100664 
L 290.379652 38.631091 
L 291.680199 42.557476 
L 294.281294 51.534208 
L 296.882388 61.888343 
L 299.483483 73.4555 
L 302.084577 86.052035 
L 305.986219 106.435766 
L 311.188408 135.249375 
L 317.691145 171.320763 
L 321.592787 191.619561 
L 324.193881 204.137748 
L 326.794976 215.610586 
L 329.39607 225.855931 
L 331.997165 234.711128 
L 333.297712 238.572561 
L 334.598259 242.035589 
L 335.898807 245.086452 
L 337.199354 247.713031 
L 338.499901 249.904888 
L 339.800448 251.653317 
L 341.100996 252.951371 
L 342.401543 253.793892 
L 343.70209 254.177534 
L 345.002638 254.100772 
L 346.303185 253.56391 
L 347.603732 252.569083 
L 348.904279 251.120243 
L 350.204827 249.223145 
L 351.505374 246.885327 
L 352.805921 244.116076 
L 354.106469 240.926396 
L 355.407016 237.328958 
L 356.707563 233.338056 
L 359.308658 224.240779 
L 361.909752 213.778996 
L 364.510847 202.118799 
L 367.111941 189.445306 
L 371.013583 168.978893 
L 376.215772 140.120391 
L 382.718509 104.101059 
L 386.620151 83.889434 
L 389.221245 71.450978 
L 391.82234 60.073724 
L 394.423434 49.9383 
L 397.024529 41.205617 
L 398.325076 37.409561 
L 399.625623 34.014316 
L 400.926171 31.03337 
L 402.226718 28.478566 
L 403.527265 26.360056 
L 404.827812 24.686255 
L 406.12836 23.463814 
L 407.428907 22.697589 
L 408.729454 22.390625 
L 410.030002 22.544141 
L 411.330549 23.157527 
L 412.631096 24.228347 
L 413.931643 25.752345 
L 415.232191 27.723467 
L 416.532738 30.133883 
L 417.833285 32.974014 
L 419.133832 36.232579 
L 420.43438 39.896629 
L 421.734927 43.951609 
L 424.336022 53.168426 
L 426.937116 63.736701 
L 429.538211 75.488653 
L 432.139305 88.237704 
L 436.040947 108.78454 
L 442.543683 144.988181 
L 447.745873 173.648049 
L 451.647514 193.770269 
L 454.248609 206.127622 
L 456.849704 217.408035 
L 459.450798 227.432418 
L 462.051893 236.041624 
L 463.35244 239.771884 
L 464.652987 243.098972 
L 465.953535 246.009672 
L 467.254082 248.492418 
L 468.554629 250.537347 
L 469.855176 252.136335 
L 471.155724 253.283029 
L 472.456271 253.972872 
L 473.756818 138.293676 
L 473.756818 138.293676 
" clip-path="url(#p763d14d2ec)" style="fill: none; stroke: #e24a33; stroke-width: 1.5; stroke-linecap: square"/>
   </g>
   <g id="line2d_25">
    <path d="M 84.893182 138.293676 
L 104.401391 138.293676 
L 105.701938 138.5448 
L 114.805769 139.122379 
L 121.308506 139.441196 
L 125.210147 139.380903 
L 127.811242 139.152763 
L 130.412337 138.723257 
L 133.013431 138.049771 
L 135.614526 137.094237 
L 138.21562 135.826747 
L 140.816715 134.229344 
L 143.417809 132.299739 
L 146.018904 130.054714 
L 148.619998 127.532932 
L 152.52164 123.374828 
L 159.024377 116.294611 
L 161.625471 113.804928 
L 164.226566 111.752665 
L 165.527113 110.944883 
L 166.82766 110.311934 
L 168.128208 109.875509 
L 169.428755 109.656762 
L 170.729302 109.676031 
L 172.029849 109.952544 
L 173.330397 110.504132 
L 174.630944 111.346936 
L 175.931491 112.495128 
L 177.232039 113.960634 
L 178.532586 115.752876 
L 179.833133 117.878527 
L 181.13368 120.341296 
L 182.434228 123.141726 
L 183.734775 126.277034 
L 185.035322 129.740976 
L 187.636417 137.611921 
L 190.237511 146.632605 
L 192.838606 156.623528 
L 196.740248 172.903006 
L 204.543531 206.258016 
L 207.144626 216.299908 
L 209.745721 225.183625 
L 211.046268 229.080109 
L 212.346815 232.557592 
L 213.647362 235.577715 
L 214.94791 238.105219 
L 216.248457 240.108358 
L 217.549004 241.55929 
L 218.849552 242.434425 
L 220.150099 242.714738 
L 221.450646 242.386034 
L 222.751193 241.439162 
L 224.051741 239.870186 
L 225.352288 237.680493 
L 226.652835 234.87685 
L 227.953382 231.471398 
L 229.25393 227.481596 
L 230.554477 222.930104 
L 231.855024 217.844601 
L 234.456119 206.205978 
L 237.057213 192.877612 
L 239.658308 178.231837 
L 243.55995 154.717914 
L 250.062686 115.202497 
L 252.663781 100.598327 
L 255.264875 87.297264 
L 257.86597 75.643351 
L 259.166517 70.5241 
L 260.467064 65.915696 
L 261.767612 61.841411 
L 263.068159 58.319525 
L 264.368706 55.363226 
L 265.669254 52.980579 
L 266.969801 51.174546 
L 268.270348 49.943051 
L 269.570895 49.279116 
L 270.871443 49.171031 
L 272.17199 49.602582 
L 273.472537 50.553316 
L 274.773085 51.998848 
L 276.073632 53.911206 
L 277.374179 56.259207 
L 278.674726 59.008848 
L 279.975274 62.123736 
L 282.576368 69.294302 
L 285.177463 77.448523 
L 289.079105 90.797672 
L 295.581841 113.38393 
L 298.182936 121.725336 
L 300.78403 129.339917 
L 303.385125 136.071103 
L 305.986219 141.812043 
L 307.286766 144.291286 
L 308.587314 146.505058 
L 309.887861 148.453384 
L 311.188408 150.138919 
L 312.488956 151.566765 
L 313.789503 152.744275 
L 315.09005 153.680828 
L 316.390597 154.387607 
L 317.691145 154.877358 
L 318.991692 155.164147 
L 320.292239 155.263111 
L 321.592787 155.190216 
L 322.893334 154.962017 
L 324.193881 154.595422 
L 326.794976 153.515123 
L 329.39607 152.083525 
L 333.297712 149.552224 
L 339.800448 145.184982 
L 343.70209 142.896615 
L 346.303185 141.605401 
L 348.904279 140.524552 
L 351.505374 139.656803 
L 354.106469 138.992785 
L 356.707563 138.513924 
L 360.609205 138.087458 
L 364.510847 137.92505 
L 369.713036 137.955375 
L 373.614678 138.060308 
L 374.915225 138.293676 
L 473.756818 138.293676 
L 473.756818 138.293676 
" clip-path="url(#p763d14d2ec)" style="fill: none; stroke: #348abd; stroke-width: 1.5; stroke-linecap: square"/>
   </g>
   <g id="patch_3">
    <path d="M 65.45 265.79375 
L 65.45 10.8 
" style="fill: none; stroke: #ffffff; stroke-linejoin: miter; stroke-linecap: square"/>
   </g>
   <g id="patch_4">
    <path d="M 493.2 265.79375 
L 493.2 10.8 
" style="fill: none; stroke: #ffffff; stroke-linejoin: miter; stroke-linecap: square"/>
   </g>
   <g id="patch_5">
    <path d="M 65.45 265.79375 
L 493.2 265.79375 
" style="fill: none; stroke: #ffffff; stroke-linejoin: miter; stroke-linecap: square"/>
   </g>
   <g id="patch_6">
    <path d="M 65.45 10.8 
L 493.2 10.8 
" style="fill: none; stroke: #ffffff; stroke-linejoin: miter; stroke-linecap: square"/>
   </g>
  </g>
  <g id="axes_2">
   <g id="patch_7">
    <path d="M 65.45 531.5875 
L 493.2 531.5875 
L 493.2 276.59375 
L 65.45 276.59375 
z
" style="fill: #e5e5e5"/>
   </g>
   <g id="matplotlib.axis_3">
    <g id="xtick_6">
     <g id="line2d_26">
      <path d="M 84.893182 531.5875 
L 84.893182 276.59375 
" clip-path="url(#p0e5b2c16e6)" style="fill: none; stroke: #ffffff; stroke-width: 0.8; stroke-linecap: square"/>
     </g>
     <g id="line2d_27">
      <defs>
       <path id="m574acab666" d="M 0 0 
L 0 3.5 
" style="stroke: #555555; stroke-width: 0.8"/>
      </defs>
      <g>
       <use xlink:href="#m574acab666" x="84.893182" y="531.5875" style="fill: #555555; stroke: #555555; stroke-width: 0.8"/>
      </g>
     </g>
     <g id="text_11">
      <!-- 0.0 -->
      <g style="fill: #555555" transform="translate(76.941619 546.185938) scale(0.1 -0.1)">
       <use xlink:href="#DejaVuSans-30"/>
       <use xlink:href="#DejaVuSans-2e" x="63.623047"/>
       <use xlink:href="#DejaVuSans-30" x="95.410156"/>
      </g>
     </g>
    </g>
    <g id="xtick_7">
     <g id="line2d_28">
      <path d="M 170.140523 531.5875 
L 170.140523 276.59375 
" clip-path="url(#p0e5b2c16e6)" style="fill: none; stroke: #ffffff; stroke-width: 0.8; stroke-linecap: square"/>
     </g>
     <g id="line2d_29">
      <g>
       <use xlink:href="#m574acab666" x="170.140523" y="531.5875" style="fill: #555555; stroke: #555555; stroke-width: 0.8"/>
      </g>
     </g>
     <g id="text_12">
      <!-- 0.1 -->
      <g style="fill: #555555" transform="translate(162.188961 546.185938) scale(0.1 -0.1)">
       <use xlink:href="#DejaVuSans-30"/>
       <use xlink:href="#DejaVuSans-2e" x="63.623047"/>
       <use xlink:href="#DejaVuSans-31" x="95.410156"/>
      </g>
     </g>
    </g>
    <g id="xtick_8">
     <g id="line2d_30">
      <path d="M 255.387865 531.5875 
L 255.387865 276.59375 
" clip-path="url(#p0e5b2c16e6)" style="fill: none; stroke: #ffffff; stroke-width: 0.8; stroke-linecap: square"/>
     </g>
     <g id="line2d_31">
      <g>
       <use xlink:href="#m574acab666" x="255.387865" y="531.5875" style="fill: #555555; stroke: #555555; stroke-width: 0.8"/>
      </g>
     </g>
     <g id="text_13">
      <!-- 0.2 -->
      <g style="fill: #555555" transform="translate(247.436302 546.185938) scale(0.1 -0.1)">
       <use xlink:href="#DejaVuSans-30"/>
       <use xlink:href="#DejaVuSans-2e" x="63.623047"/>
       <use xlink:href="#DejaVuSans-32" x="95.410156"/>
      </g>
     </g>
    </g>
    <g id="xtick_9">
     <g id="line2d_32">
      <path d="M 340.635206 531.5875 
L 340.635206 276.59375 
" clip-path="url(#p0e5b2c16e6)" style="fill: none; stroke: #ffffff; stroke-width: 0.8; stroke-linecap: square"/>
     </g>
     <g id="line2d_33">
      <g>
       <use xlink:href="#m574acab666" x="340.635206" y="531.5875" style="fill: #555555; stroke: #555555; stroke-width: 0.8"/>
      </g>
     </g>
     <g id="text_14">
      <!-- 0.3 -->
      <g style="fill: #555555" transform="translate(332.683644 546.185938) scale(0.1 -0.1)">
       <defs>
        <path id="DejaVuSans-33" d="M 2597 2516 
Q 3050 2419 3304 2112 
Q 3559 1806 3559 1356 
Q 3559 666 3084 287 
Q 2609 -91 1734 -91 
Q 1441 -91 1130 -33 
Q 819 25 488 141 
L 488 750 
Q 750 597 1062 519 
Q 1375 441 1716 441 
Q 2309 441 2620 675 
Q 2931 909 2931 1356 
Q 2931 1769 2642 2001 
Q 2353 2234 1838 2234 
L 1294 2234 
L 1294 2753 
L 1863 2753 
Q 2328 2753 2575 2939 
Q 2822 3125 2822 3475 
Q 2822 3834 2567 4026 
Q 2313 4219 1838 4219 
Q 1578 4219 1281 4162 
Q 984 4106 628 3988 
L 628 4550 
Q 988 4650 1302 4700 
Q 1616 4750 1894 4750 
Q 2613 4750 3031 4423 
Q 3450 4097 3450 3541 
Q 3450 3153 3228 2886 
Q 3006 2619 2597 2516 
z
" transform="scale(0.015625)"/>
       </defs>
       <use xlink:href="#DejaVuSans-30"/>
       <use xlink:href="#DejaVuSans-2e" x="63.623047"/>
       <use xlink:href="#DejaVuSans-33" x="95.410156"/>
      </g>
     </g>
    </g>
    <g id="xtick_10">
     <g id="line2d_34">
      <path d="M 425.882548 531.5875 
L 425.882548 276.59375 
" clip-path="url(#p0e5b2c16e6)" style="fill: none; stroke: #ffffff; stroke-width: 0.8; stroke-linecap: square"/>
     </g>
     <g id="line2d_35">
      <g>
       <use xlink:href="#m574acab666" x="425.882548" y="531.5875" style="fill: #555555; stroke: #555555; stroke-width: 0.8"/>
      </g>
     </g>
     <g id="text_15">
      <!-- 0.4 -->
      <g style="fill: #555555" transform="translate(417.930985 546.185938) scale(0.1 -0.1)">
       <defs>
        <path id="DejaVuSans-34" d="M 2419 4116 
L 825 1625 
L 2419 1625 
L 2419 4116 
z
M 2253 4666 
L 3047 4666 
L 3047 1625 
L 3713 1625 
L 3713 1100 
L 3047 1100 
L 3047 0 
L 2419 0 
L 2419 1100 
L 313 1100 
L 313 1709 
L 2253 4666 
z
" transform="scale(0.015625)"/>
       </defs>
       <use xlink:href="#DejaVuSans-30"/>
       <use xlink:href="#DejaVuSans-2e" x="63.623047"/>
       <use xlink:href="#DejaVuSans-34" x="95.410156"/>
      </g>
     </g>
    </g>
    <g id="text_16">
     <!-- $t$ [fs] -->
     <g style="fill: #555555" transform="translate(265.105 561.38375) scale(0.12 -0.12)">
      <defs>
       <path id="DejaVuSans-20" transform="scale(0.015625)"/>
       <path id="DejaVuSans-5b" d="M 550 4863 
L 1875 4863 
L 1875 4416 
L 1125 4416 
L 1125 -397 
L 1875 -397 
L 1875 -844 
L 550 -844 
L 550 4863 
z
" transform="scale(0.015625)"/>
       <path id="DejaVuSans-66" d="M 2375 4863 
L 2375 4384 
L 1825 4384 
Q 1516 4384 1395 4259 
Q 1275 4134 1275 3809 
L 1275 3500 
L 2222 3500 
L 2222 3053 
L 1275 3053 
L 1275 0 
L 697 0 
L 697 3053 
L 147 3053 
L 147 3500 
L 697 3500 
L 697 3744 
Q 697 4328 969 4595 
Q 1241 4863 1831 4863 
L 2375 4863 
z
" transform="scale(0.015625)"/>
       <path id="DejaVuSans-73" d="M 2834 3397 
L 2834 2853 
Q 2591 2978 2328 3040 
Q 2066 3103 1784 3103 
Q 1356 3103 1142 2972 
Q 928 2841 928 2578 
Q 928 2378 1081 2264 
Q 1234 2150 1697 2047 
L 1894 2003 
Q 2506 1872 2764 1633 
Q 3022 1394 3022 966 
Q 3022 478 2636 193 
Q 2250 -91 1575 -91 
Q 1294 -91 989 -36 
Q 684 19 347 128 
L 347 722 
Q 666 556 975 473 
Q 1284 391 1588 391 
Q 1994 391 2212 530 
Q 2431 669 2431 922 
Q 2431 1156 2273 1281 
Q 2116 1406 1581 1522 
L 1381 1569 
Q 847 1681 609 1914 
Q 372 2147 372 2553 
Q 372 3047 722 3315 
Q 1072 3584 1716 3584 
Q 2034 3584 2315 3537 
Q 2597 3491 2834 3397 
z
" transform="scale(0.015625)"/>
       <path id="DejaVuSans-5d" d="M 1947 4863 
L 1947 -844 
L 622 -844 
L 622 -397 
L 1369 -397 
L 1369 4416 
L 622 4416 
L 622 4863 
L 1947 4863 
z
" transform="scale(0.015625)"/>
      </defs>
      <use xlink:href="#DejaVuSans-Oblique-74" transform="translate(0 0.015625)"/>
      <use xlink:href="#DejaVuSans-20" transform="translate(39.208984 0.015625)"/>
      <use xlink:href="#DejaVuSans-5b" transform="translate(70.996094 0.015625)"/>
      <use xlink:href="#DejaVuSans-66" transform="translate(110.009766 0.015625)"/>
      <use xlink:href="#DejaVuSans-73" transform="translate(145.214844 0.015625)"/>
      <use xlink:href="#DejaVuSans-5d" transform="translate(197.314453 0.015625)"/>
     </g>
    </g>
   </g>
   <g id="matplotlib.axis_4">
    <g id="ytick_10">
     <g id="line2d_36">
      <path d="M 65.45 519.99848 
L 493.2 519.99848 
" clip-path="url(#p0e5b2c16e6)" style="fill: none; stroke: #ffffff; stroke-width: 0.8; stroke-linecap: square"/>
     </g>
     <g id="line2d_37">
      <g>
       <use xlink:href="#mbfe37689db" x="65.45" y="519.99848" style="fill: #555555; stroke: #555555; stroke-width: 0.8"/>
      </g>
     </g>
     <g id="text_17">
      <!-- −1.00 -->
      <g style="fill: #555555" transform="translate(27.804688 523.797699) scale(0.1 -0.1)">
       <use xlink:href="#DejaVuSans-2212"/>
       <use xlink:href="#DejaVuSans-31" x="83.789062"/>
       <use xlink:href="#DejaVuSans-2e" x="147.412109"/>
       <use xlink:href="#DejaVuSans-30" x="179.199219"/>
       <use xlink:href="#DejaVuSans-30" x="242.822266"/>
      </g>
     </g>
    </g>
    <g id="ytick_11">
     <g id="line2d_38">
      <path d="M 65.45 491.021711 
L 493.2 491.021711 
" clip-path="url(#p0e5b2c16e6)" style="fill: none; stroke: #ffffff; stroke-width: 0.8; stroke-linecap: square"/>
     </g>
     <g id="line2d_39">
      <g>
       <use xlink:href="#mbfe37689db" x="65.45" y="491.021711" style="fill: #555555; stroke: #555555; stroke-width: 0.8"/>
      </g>
     </g>
     <g id="text_18">
      <!-- −0.75 -->
      <g style="fill: #555555" transform="translate(27.804688 494.820929) scale(0.1 -0.1)">
       <use xlink:href="#DejaVuSans-2212"/>
       <use xlink:href="#DejaVuSans-30" x="83.789062"/>
       <use xlink:href="#DejaVuSans-2e" x="147.412109"/>
       <use xlink:href="#DejaVuSans-37" x="179.199219"/>
       <use xlink:href="#DejaVuSans-35" x="242.822266"/>
      </g>
     </g>
    </g>
    <g id="ytick_12">
     <g id="line2d_40">
      <path d="M 65.45 462.044941 
L 493.2 462.044941 
" clip-path="url(#p0e5b2c16e6)" style="fill: none; stroke: #ffffff; stroke-width: 0.8; stroke-linecap: square"/>
     </g>
     <g id="line2d_41">
      <g>
       <use xlink:href="#mbfe37689db" x="65.45" y="462.044941" style="fill: #555555; stroke: #555555; stroke-width: 0.8"/>
      </g>
     </g>
     <g id="text_19">
      <!-- −0.50 -->
      <g style="fill: #555555" transform="translate(27.804688 465.84416) scale(0.1 -0.1)">
       <use xlink:href="#DejaVuSans-2212"/>
       <use xlink:href="#DejaVuSans-30" x="83.789062"/>
       <use xlink:href="#DejaVuSans-2e" x="147.412109"/>
       <use xlink:href="#DejaVuSans-35" x="179.199219"/>
       <use xlink:href="#DejaVuSans-30" x="242.822266"/>
      </g>
     </g>
    </g>
    <g id="ytick_13">
     <g id="line2d_42">
      <path d="M 65.45 433.068172 
L 493.2 433.068172 
" clip-path="url(#p0e5b2c16e6)" style="fill: none; stroke: #ffffff; stroke-width: 0.8; stroke-linecap: square"/>
     </g>
     <g id="line2d_43">
      <g>
       <use xlink:href="#mbfe37689db" x="65.45" y="433.068172" style="fill: #555555; stroke: #555555; stroke-width: 0.8"/>
      </g>
     </g>
     <g id="text_20">
      <!-- −0.25 -->
      <g style="fill: #555555" transform="translate(27.804688 436.867391) scale(0.1 -0.1)">
       <use xlink:href="#DejaVuSans-2212"/>
       <use xlink:href="#DejaVuSans-30" x="83.789062"/>
       <use xlink:href="#DejaVuSans-2e" x="147.412109"/>
       <use xlink:href="#DejaVuSans-32" x="179.199219"/>
       <use xlink:href="#DejaVuSans-35" x="242.822266"/>
      </g>
     </g>
    </g>
    <g id="ytick_14">
     <g id="line2d_44">
      <path d="M 65.45 404.091403 
L 493.2 404.091403 
" clip-path="url(#p0e5b2c16e6)" style="fill: none; stroke: #ffffff; stroke-width: 0.8; stroke-linecap: square"/>
     </g>
     <g id="line2d_45">
      <g>
       <use xlink:href="#mbfe37689db" x="65.45" y="404.091403" style="fill: #555555; stroke: #555555; stroke-width: 0.8"/>
      </g>
     </g>
     <g id="text_21">
      <!-- 0.00 -->
      <g style="fill: #555555" transform="translate(36.184375 407.890622) scale(0.1 -0.1)">
       <use xlink:href="#DejaVuSans-30"/>
       <use xlink:href="#DejaVuSans-2e" x="63.623047"/>
       <use xlink:href="#DejaVuSans-30" x="95.410156"/>
       <use xlink:href="#DejaVuSans-30" x="159.033203"/>
      </g>
     </g>
    </g>
    <g id="ytick_15">
     <g id="line2d_46">
      <path d="M 65.45 375.114634 
L 493.2 375.114634 
" clip-path="url(#p0e5b2c16e6)" style="fill: none; stroke: #ffffff; stroke-width: 0.8; stroke-linecap: square"/>
     </g>
     <g id="line2d_47">
      <g>
       <use xlink:href="#mbfe37689db" x="65.45" y="375.114634" style="fill: #555555; stroke: #555555; stroke-width: 0.8"/>
      </g>
     </g>
     <g id="text_22">
      <!-- 0.25 -->
      <g style="fill: #555555" transform="translate(36.184375 378.913853) scale(0.1 -0.1)">
       <use xlink:href="#DejaVuSans-30"/>
       <use xlink:href="#DejaVuSans-2e" x="63.623047"/>
       <use xlink:href="#DejaVuSans-32" x="95.410156"/>
       <use xlink:href="#DejaVuSans-35" x="159.033203"/>
      </g>
     </g>
    </g>
    <g id="ytick_16">
     <g id="line2d_48">
      <path d="M 65.45 346.137865 
L 493.2 346.137865 
" clip-path="url(#p0e5b2c16e6)" style="fill: none; stroke: #ffffff; stroke-width: 0.8; stroke-linecap: square"/>
     </g>
     <g id="line2d_49">
      <g>
       <use xlink:href="#mbfe37689db" x="65.45" y="346.137865" style="fill: #555555; stroke: #555555; stroke-width: 0.8"/>
      </g>
     </g>
     <g id="text_23">
      <!-- 0.50 -->
      <g style="fill: #555555" transform="translate(36.184375 349.937083) scale(0.1 -0.1)">
       <use xlink:href="#DejaVuSans-30"/>
       <use xlink:href="#DejaVuSans-2e" x="63.623047"/>
       <use xlink:href="#DejaVuSans-35" x="95.410156"/>
       <use xlink:href="#DejaVuSans-30" x="159.033203"/>
      </g>
     </g>
    </g>
    <g id="ytick_17">
     <g id="line2d_50">
      <path d="M 65.45 317.161095 
L 493.2 317.161095 
" clip-path="url(#p0e5b2c16e6)" style="fill: none; stroke: #ffffff; stroke-width: 0.8; stroke-linecap: square"/>
     </g>
     <g id="line2d_51">
      <g>
       <use xlink:href="#mbfe37689db" x="65.45" y="317.161095" style="fill: #555555; stroke: #555555; stroke-width: 0.8"/>
      </g>
     </g>
     <g id="text_24">
      <!-- 0.75 -->
      <g style="fill: #555555" transform="translate(36.184375 320.960314) scale(0.1 -0.1)">
       <use xlink:href="#DejaVuSans-30"/>
       <use xlink:href="#DejaVuSans-2e" x="63.623047"/>
       <use xlink:href="#DejaVuSans-37" x="95.410156"/>
       <use xlink:href="#DejaVuSans-35" x="159.033203"/>
      </g>
     </g>
    </g>
    <g id="ytick_18">
     <g id="line2d_52">
      <path d="M 65.45 288.184326 
L 493.2 288.184326 
" clip-path="url(#p0e5b2c16e6)" style="fill: none; stroke: #ffffff; stroke-width: 0.8; stroke-linecap: square"/>
     </g>
     <g id="line2d_53">
      <g>
       <use xlink:href="#mbfe37689db" x="65.45" y="288.184326" style="fill: #555555; stroke: #555555; stroke-width: 0.8"/>
      </g>
     </g>
     <g id="text_25">
      <!-- 1.00 -->
      <g style="fill: #555555" transform="translate(36.184375 291.983545) scale(0.1 -0.1)">
       <use xlink:href="#DejaVuSans-31"/>
       <use xlink:href="#DejaVuSans-2e" x="63.623047"/>
       <use xlink:href="#DejaVuSans-30" x="95.410156"/>
       <use xlink:href="#DejaVuSans-30" x="159.033203"/>
      </g>
     </g>
    </g>
    <g id="text_26">
     <!-- $A(t)$ -->
     <g style="fill: #555555" transform="translate(21.309062 415.250625) rotate(-90) scale(0.12 -0.12)">
      <defs>
       <path id="DejaVuSans-Oblique-41" d="M 2356 4666 
L 3072 4666 
L 3938 0 
L 3278 0 
L 3084 1197 
L 984 1197 
L 325 0 
L -341 0 
L 2356 4666 
z
M 2584 4044 
L 1275 1722 
L 2988 1722 
L 2584 4044 
z
" transform="scale(0.015625)"/>
      </defs>
      <use xlink:href="#DejaVuSans-Oblique-41" transform="translate(0 0.125)"/>
      <use xlink:href="#DejaVuSans-28" transform="translate(68.408203 0.125)"/>
      <use xlink:href="#DejaVuSans-Oblique-74" transform="translate(107.421875 0.125)"/>
      <use xlink:href="#DejaVuSans-29" transform="translate(146.630859 0.125)"/>
     </g>
    </g>
   </g>
   <g id="line2d_54">
    <path d="M 84.893182 404.091403 
L 91.395918 368.158345 
L 95.29756 348.082073 
L 97.898655 335.766036 
L 100.499749 324.534742 
L 103.100844 314.566499 
L 105.701938 306.019564 
L 107.002486 302.322434 
L 108.303033 299.029629 
L 109.60358 296.154233 
L 110.904127 293.707669 
L 112.204675 291.699656 
L 113.505222 290.138174 
L 114.805769 289.029425 
L 116.106317 288.377814 
L 117.406864 288.185931 
L 118.707411 288.454538 
L 120.007958 289.182567 
L 121.308506 290.367126 
L 122.609053 292.00351 
L 123.9096 294.085216 
L 125.210147 296.603974 
L 126.510695 299.549777 
L 127.811242 302.910921 
L 129.111789 306.674053 
L 131.712884 315.34494 
L 134.313978 325.424776 
L 136.915073 336.753533 
L 139.516168 349.151354 
L 143.417809 369.318141 
L 148.619998 398.005026 
L 155.122735 434.188377 
L 159.024377 454.694864 
L 161.625471 467.406051 
L 164.226566 479.112047 
L 166.82766 489.627006 
L 169.428755 498.783991 
L 170.729302 502.806905 
L 172.029849 506.437625 
L 173.330397 509.661725 
L 174.630944 512.466397 
L 175.931491 514.840498 
L 177.232039 516.774596 
L 178.532586 518.261005 
L 179.833133 519.293821 
L 181.13368 519.868941 
L 182.434228 519.984079 
L 183.734775 519.638779 
L 185.035322 518.834411 
L 186.33587 517.574172 
L 187.636417 515.863069 
L 188.936964 513.707899 
L 190.237511 511.117226 
L 191.538059 508.101341 
L 192.838606 504.672228 
L 194.139153 500.843509 
L 196.740248 492.049628 
L 199.341342 481.859312 
L 201.942437 470.434343 
L 204.543531 457.956105 
L 208.445173 437.701029 
L 213.647362 408.961311 
L 220.150099 372.820049 
L 224.051741 352.395114 
L 226.652835 339.760185 
L 229.25393 328.146586 
L 231.855024 317.738697 
L 234.456119 308.701753 
L 235.756666 304.743136 
L 237.057213 301.179228 
L 238.357761 298.024187 
L 239.658308 295.290548 
L 240.958855 292.989173 
L 242.259403 291.129205 
L 243.55995 289.718032 
L 244.860497 288.761263 
L 246.161044 288.262697 
L 247.461592 288.224316 
L 248.762139 288.646273 
L 250.062686 289.52689 
L 251.363234 290.862669 
L 252.663781 292.648304 
L 253.964328 294.876699 
L 255.264875 297.539002 
L 256.565423 300.624635 
L 257.86597 304.121339 
L 259.166517 308.015222 
L 261.767612 316.931126 
L 264.368706 327.230798 
L 266.969801 338.750718 
L 269.570895 351.307994 
L 273.472537 371.649122 
L 278.674726 400.438502 
L 285.177463 436.533684 
L 289.079105 456.874812 
L 291.680199 469.432088 
L 294.281294 480.952008 
L 296.882388 491.25168 
L 299.483483 500.167584 
L 300.78403 504.061467 
L 302.084577 507.558171 
L 303.385125 510.643804 
L 304.685672 513.306107 
L 305.986219 515.534502 
L 307.286766 517.320137 
L 308.587314 518.655916 
L 309.887861 519.536534 
L 311.188408 519.95849 
L 312.488956 519.920109 
L 313.789503 519.421543 
L 315.09005 518.464774 
L 316.390597 517.053602 
L 317.691145 515.193633 
L 318.991692 512.892258 
L 320.292239 510.158619 
L 321.592787 507.003578 
L 322.893334 503.43967 
L 324.193881 499.481053 
L 326.794976 490.444109 
L 329.39607 480.03622 
L 331.997165 468.422621 
L 334.598259 455.787692 
L 338.499901 435.362757 
L 343.70209 406.526895 
L 350.204827 370.481777 
L 354.106469 350.226701 
L 356.707563 337.748463 
L 359.308658 326.323494 
L 361.909752 316.133178 
L 364.510847 307.339297 
L 365.811394 303.510578 
L 367.111941 300.081465 
L 368.412489 297.06558 
L 369.713036 294.474907 
L 371.013583 292.319737 
L 372.31413 290.608634 
L 373.614678 289.348395 
L 374.915225 288.544027 
L 376.215772 288.198727 
L 377.51632 288.313865 
L 378.816867 288.888985 
L 380.117414 289.921801 
L 381.417961 291.408211 
L 382.718509 293.342308 
L 384.019056 295.716409 
L 385.319603 298.521081 
L 386.620151 301.745181 
L 387.920698 305.375901 
L 389.221245 309.398815 
L 391.82234 318.5558 
L 394.423434 329.070759 
L 397.024529 340.776755 
L 399.625623 353.487942 
L 403.527265 373.994429 
L 408.729454 402.87359 
L 415.232191 438.864665 
L 419.133832 459.031452 
L 421.734927 471.429273 
L 424.336022 482.75803 
L 426.937116 492.837866 
L 429.538211 501.508753 
L 430.838758 505.271885 
L 432.139305 508.63303 
L 433.439853 511.578833 
L 434.7404 514.09759 
L 436.040947 516.179296 
L 437.341494 517.81568 
L 438.642042 519.000239 
L 439.942589 519.728268 
L 441.243136 519.996875 
L 442.543683 519.804992 
L 443.844231 519.153381 
L 445.144778 518.044632 
L 446.445325 516.48315 
L 447.745873 514.475137 
L 449.04642 512.028573 
L 450.346967 509.153177 
L 451.647514 505.860372 
L 452.948062 502.163242 
L 454.248609 498.076475 
L 456.849704 488.800459 
L 459.450798 478.179592 
L 462.051893 466.382492 
L 464.652987 453.596451 
L 468.554629 433.010675 
L 473.756818 404.091403 
L 473.756818 404.091403 
" clip-path="url(#p0e5b2c16e6)" style="fill: none; stroke: #e24a33; stroke-width: 1.5; stroke-linecap: square"/>
   </g>
   <g id="line2d_55">
    <path d="M 84.893182 404.091403 
L 107.002486 403.994813 
L 113.505222 403.689325 
L 118.707411 403.237238 
L 125.210147 402.427921 
L 133.013431 401.421759 
L 136.915073 401.163552 
L 139.516168 401.193112 
L 142.117262 401.452027 
L 144.718357 402.002013 
L 147.319451 402.904635 
L 149.920546 404.21781 
L 152.52164 405.991893 
L 155.122735 408.265521 
L 157.723829 411.061422 
L 160.324924 414.382431 
L 162.926019 418.207959 
L 165.527113 422.491188 
L 168.128208 427.157219 
L 172.029849 434.639563 
L 177.232039 444.759368 
L 179.833133 449.483637 
L 182.434228 453.717886 
L 183.734775 455.585642 
L 185.035322 457.251984 
L 186.33587 458.690896 
L 187.636417 459.876988 
L 188.936964 460.785777 
L 190.237511 461.393983 
L 191.538059 461.679812 
L 192.838606 461.623238 
L 194.139153 461.206281 
L 195.439701 460.413268 
L 196.740248 459.231077 
L 198.040795 457.649368 
L 199.341342 455.660787 
L 200.64189 453.261148 
L 201.942437 450.449583 
L 203.242984 447.228664 
L 204.543531 443.604496 
L 205.844079 439.586762 
L 208.445173 430.427324 
L 211.046268 419.899207 
L 213.647362 408.205763 
L 217.549004 389.045748 
L 227.953382 336.147096 
L 230.554477 324.420667 
L 233.155572 313.976852 
L 234.456119 309.329384 
L 235.756666 305.109351 
L 237.057213 301.346188 
L 238.357761 298.065856 
L 239.658308 295.290594 
L 240.958855 293.038718 
L 242.259403 291.324449 
L 243.55995 290.157791 
L 244.860497 289.544446 
L 246.161044 289.485774 
L 247.461592 289.978797 
L 248.762139 291.01625 
L 250.062686 292.586667 
L 251.363234 294.674516 
L 252.663781 297.260373 
L 253.964328 300.321128 
L 255.264875 303.830235 
L 256.565423 307.757986 
L 259.166517 316.736655 
L 261.767612 326.968529 
L 264.368706 338.13633 
L 269.570895 361.941426 
L 274.773085 385.510313 
L 277.374179 396.456208 
L 279.975274 406.509546 
L 282.576368 415.474687 
L 285.177463 423.205127 
L 286.47801 426.57553 
L 287.778557 429.605512 
L 289.079105 432.291109 
L 290.379652 434.631413 
L 291.680199 436.628453 
L 292.980746 438.28705 
L 294.281294 439.614656 
L 295.581841 440.621157 
L 296.882388 441.318673 
L 298.182936 441.72133 
L 299.483483 441.845028 
L 300.78403 441.7072 
L 302.084577 441.326556 
L 303.385125 440.722839 
L 304.685672 439.91657 
L 305.986219 438.928803 
L 308.587314 436.494206 
L 311.188408 433.589191 
L 315.09005 428.706119 
L 321.592787 420.350604 
L 324.193881 417.263218 
L 326.794976 414.442032 
L 329.39607 411.936365 
L 331.997165 409.77427 
L 334.598259 407.96464 
L 337.199354 406.499934 
L 339.800448 405.359295 
L 342.401543 404.511856 
L 345.002638 403.920025 
L 347.603732 403.54258 
L 351.505374 403.286676 
L 355.407016 403.284902 
L 361.909752 403.548943 
L 372.31413 403.986052 
L 380.117414 404.091403 
L 473.756818 404.091403 
L 473.756818 404.091403 
" clip-path="url(#p0e5b2c16e6)" style="fill: none; stroke: #348abd; stroke-width: 1.5; stroke-linecap: square"/>
   </g>
   <g id="line2d_56">
    <path d="M 84.893182 404.091403 
L 107.002486 403.981394 
L 113.505222 403.682431 
L 118.707411 403.235242 
L 123.9096 402.525496 
L 127.811242 401.771965 
L 131.712884 400.787922 
L 135.614526 399.535449 
L 139.516168 397.976875 
L 143.417809 396.076143 
L 146.018904 394.602453 
L 148.619998 392.953275 
L 151.221093 391.12106 
L 153.822188 389.099597 
L 156.423282 386.884212 
L 160.324924 383.191593 
L 164.226566 379.05469 
L 168.128208 374.48249 
L 172.029849 369.495618 
L 175.931491 364.126894 
L 179.833133 358.421519 
L 185.035322 350.391508 
L 192.838606 337.793013 
L 201.942437 323.099498 
L 207.144626 315.162541 
L 211.046268 309.615624 
L 214.94791 304.528006 
L 217.549004 301.438385 
L 220.150099 298.621107 
L 222.751193 296.100266 
L 225.352288 293.897679 
L 227.953382 292.032604 
L 230.554477 290.521487 
L 233.155572 289.377743 
L 235.756666 288.61158 
L 238.357761 288.229861 
L 240.958855 288.236014 
L 243.55995 288.629982 
L 246.161044 289.40823 
L 248.762139 290.563787 
L 251.363234 292.08634 
L 253.964328 293.962375 
L 256.565423 296.175354 
L 259.166517 298.705934 
L 261.767612 301.532219 
L 264.368706 304.630052 
L 268.270348 309.728372 
L 272.17199 315.283924 
L 276.073632 321.196568 
L 282.576368 331.564848 
L 295.581841 352.565694 
L 300.78403 360.478977 
L 304.685672 366.070969 
L 308.587314 371.308877 
L 312.488956 376.151883 
L 316.390597 380.571534 
L 320.292239 384.551411 
L 324.193881 388.086453 
L 326.794976 390.198252 
L 329.39607 392.118411 
L 331.997165 393.852447 
L 335.898807 396.120055 
L 339.800448 398.013207 
L 343.70209 399.564935 
L 347.603732 400.811346 
L 351.505374 401.79013 
L 355.407016 402.539197 
L 359.308658 403.095472 
L 364.510847 403.597264 
L 371.013583 403.942331 
L 378.816867 404.091403 
L 473.756818 404.091403 
L 473.756818 404.091403 
" clip-path="url(#p0e5b2c16e6)" style="fill: none; stroke-dasharray: 5.55,2.4; stroke-dashoffset: 0; stroke: #988ed5; stroke-width: 1.5"/>
   </g>
   <g id="patch_8">
    <path d="M 65.45 531.5875 
L 65.45 276.59375 
" style="fill: none; stroke: #ffffff; stroke-linejoin: miter; stroke-linecap: square"/>
   </g>
   <g id="patch_9">
    <path d="M 493.2 531.5875 
L 493.2 276.59375 
" style="fill: none; stroke: #ffffff; stroke-linejoin: miter; stroke-linecap: square"/>
   </g>
   <g id="patch_10">
    <path d="M 65.45 531.5875 
L 493.2 531.5875 
" style="fill: none; stroke: #ffffff; stroke-linejoin: miter; stroke-linecap: square"/>
   </g>
   <g id="patch_11">
    <path d="M 65.45 276.59375 
L 493.2 276.59375 
" style="fill: none; stroke: #ffffff; stroke-linejoin: miter; stroke-linecap: square"/>
   </g>
   <g id="legend_1">
    <g id="patch_12">
     <path d="M 377.51875 328.628125 
L 486.2 328.628125 
Q 488.2 328.628125 488.2 326.628125 
L 488.2 283.59375 
Q 488.2 281.59375 486.2 281.59375 
L 377.51875 281.59375 
Q 375.51875 281.59375 375.51875 283.59375 
L 375.51875 326.628125 
Q 375.51875 328.628125 377.51875 328.628125 
z
" style="fill: #e5e5e5; opacity: 0.8; stroke: #cccccc; stroke-width: 0.5; stroke-linejoin: miter"/>
    </g>
    <g id="line2d_57">
     <path d="M 379.51875 289.692188 
L 389.51875 289.692188 
L 399.51875 289.692188 
" style="fill: none; stroke: #e24a33; stroke-width: 1.5; stroke-linecap: square"/>
    </g>
    <g id="text_27">
     <!-- Original field -->
     <g transform="translate(407.51875 293.192188) scale(0.1 -0.1)">
      <defs>
       <path id="DejaVuSans-4f" d="M 2522 4238 
Q 1834 4238 1429 3725 
Q 1025 3213 1025 2328 
Q 1025 1447 1429 934 
Q 1834 422 2522 422 
Q 3209 422 3611 934 
Q 4013 1447 4013 2328 
Q 4013 3213 3611 3725 
Q 3209 4238 2522 4238 
z
M 2522 4750 
Q 3503 4750 4090 4092 
Q 4678 3434 4678 2328 
Q 4678 1225 4090 567 
Q 3503 -91 2522 -91 
Q 1538 -91 948 565 
Q 359 1222 359 2328 
Q 359 3434 948 4092 
Q 1538 4750 2522 4750 
z
" transform="scale(0.015625)"/>
       <path id="DejaVuSans-72" d="M 2631 2963 
Q 2534 3019 2420 3045 
Q 2306 3072 2169 3072 
Q 1681 3072 1420 2755 
Q 1159 2438 1159 1844 
L 1159 0 
L 581 0 
L 581 3500 
L 1159 3500 
L 1159 2956 
Q 1341 3275 1631 3429 
Q 1922 3584 2338 3584 
Q 2397 3584 2469 3576 
Q 2541 3569 2628 3553 
L 2631 2963 
z
" transform="scale(0.015625)"/>
       <path id="DejaVuSans-69" d="M 603 3500 
L 1178 3500 
L 1178 0 
L 603 0 
L 603 3500 
z
M 603 4863 
L 1178 4863 
L 1178 4134 
L 603 4134 
L 603 4863 
z
" transform="scale(0.015625)"/>
       <path id="DejaVuSans-67" d="M 2906 1791 
Q 2906 2416 2648 2759 
Q 2391 3103 1925 3103 
Q 1463 3103 1205 2759 
Q 947 2416 947 1791 
Q 947 1169 1205 825 
Q 1463 481 1925 481 
Q 2391 481 2648 825 
Q 2906 1169 2906 1791 
z
M 3481 434 
Q 3481 -459 3084 -895 
Q 2688 -1331 1869 -1331 
Q 1566 -1331 1297 -1286 
Q 1028 -1241 775 -1147 
L 775 -588 
Q 1028 -725 1275 -790 
Q 1522 -856 1778 -856 
Q 2344 -856 2625 -561 
Q 2906 -266 2906 331 
L 2906 616 
Q 2728 306 2450 153 
Q 2172 0 1784 0 
Q 1141 0 747 490 
Q 353 981 353 1791 
Q 353 2603 747 3093 
Q 1141 3584 1784 3584 
Q 2172 3584 2450 3431 
Q 2728 3278 2906 2969 
L 2906 3500 
L 3481 3500 
L 3481 434 
z
" transform="scale(0.015625)"/>
       <path id="DejaVuSans-6e" d="M 3513 2113 
L 3513 0 
L 2938 0 
L 2938 2094 
Q 2938 2591 2744 2837 
Q 2550 3084 2163 3084 
Q 1697 3084 1428 2787 
Q 1159 2491 1159 1978 
L 1159 0 
L 581 0 
L 581 3500 
L 1159 3500 
L 1159 2956 
Q 1366 3272 1645 3428 
Q 1925 3584 2291 3584 
Q 2894 3584 3203 3211 
Q 3513 2838 3513 2113 
z
" transform="scale(0.015625)"/>
       <path id="DejaVuSans-61" d="M 2194 1759 
Q 1497 1759 1228 1600 
Q 959 1441 959 1056 
Q 959 750 1161 570 
Q 1363 391 1709 391 
Q 2188 391 2477 730 
Q 2766 1069 2766 1631 
L 2766 1759 
L 2194 1759 
z
M 3341 1997 
L 3341 0 
L 2766 0 
L 2766 531 
Q 2569 213 2275 61 
Q 1981 -91 1556 -91 
Q 1019 -91 701 211 
Q 384 513 384 1019 
Q 384 1609 779 1909 
Q 1175 2209 1959 2209 
L 2766 2209 
L 2766 2266 
Q 2766 2663 2505 2880 
Q 2244 3097 1772 3097 
Q 1472 3097 1187 3025 
Q 903 2953 641 2809 
L 641 3341 
Q 956 3463 1253 3523 
Q 1550 3584 1831 3584 
Q 2591 3584 2966 3190 
Q 3341 2797 3341 1997 
z
" transform="scale(0.015625)"/>
       <path id="DejaVuSans-6c" d="M 603 4863 
L 1178 4863 
L 1178 0 
L 603 0 
L 603 4863 
z
" transform="scale(0.015625)"/>
       <path id="DejaVuSans-65" d="M 3597 1894 
L 3597 1613 
L 953 1613 
Q 991 1019 1311 708 
Q 1631 397 2203 397 
Q 2534 397 2845 478 
Q 3156 559 3463 722 
L 3463 178 
Q 3153 47 2828 -22 
Q 2503 -91 2169 -91 
Q 1331 -91 842 396 
Q 353 884 353 1716 
Q 353 2575 817 3079 
Q 1281 3584 2069 3584 
Q 2775 3584 3186 3129 
Q 3597 2675 3597 1894 
z
M 3022 2063 
Q 3016 2534 2758 2815 
Q 2500 3097 2075 3097 
Q 1594 3097 1305 2825 
Q 1016 2553 972 2059 
L 3022 2063 
z
" transform="scale(0.015625)"/>
       <path id="DejaVuSans-64" d="M 2906 2969 
L 2906 4863 
L 3481 4863 
L 3481 0 
L 2906 0 
L 2906 525 
Q 2725 213 2448 61 
Q 2172 -91 1784 -91 
Q 1150 -91 751 415 
Q 353 922 353 1747 
Q 353 2572 751 3078 
Q 1150 3584 1784 3584 
Q 2172 3584 2448 3432 
Q 2725 3281 2906 2969 
z
M 947 1747 
Q 947 1113 1208 752 
Q 1469 391 1925 391 
Q 2381 391 2643 752 
Q 2906 1113 2906 1747 
Q 2906 2381 2643 2742 
Q 2381 3103 1925 3103 
Q 1469 3103 1208 2742 
Q 947 2381 947 1747 
z
" transform="scale(0.015625)"/>
      </defs>
      <use xlink:href="#DejaVuSans-4f"/>
      <use xlink:href="#DejaVuSans-72" x="78.710938"/>
      <use xlink:href="#DejaVuSans-69" x="119.824219"/>
      <use xlink:href="#DejaVuSans-67" x="147.607422"/>
      <use xlink:href="#DejaVuSans-69" x="211.083984"/>
      <use xlink:href="#DejaVuSans-6e" x="238.867188"/>
      <use xlink:href="#DejaVuSans-61" x="302.246094"/>
      <use xlink:href="#DejaVuSans-6c" x="363.525391"/>
      <use xlink:href="#DejaVuSans-20" x="391.308594"/>
      <use xlink:href="#DejaVuSans-66" x="423.095703"/>
      <use xlink:href="#DejaVuSans-69" x="458.300781"/>
      <use xlink:href="#DejaVuSans-65" x="486.083984"/>
      <use xlink:href="#DejaVuSans-6c" x="547.607422"/>
      <use xlink:href="#DejaVuSans-64" x="575.390625"/>
     </g>
    </g>
    <g id="line2d_58">
     <path d="M 379.51875 304.370313 
L 389.51875 304.370313 
L 399.51875 304.370313 
" style="fill: none; stroke: #348abd; stroke-width: 1.5; stroke-linecap: square"/>
    </g>
    <g id="text_28">
     <!-- Windowed field -->
     <g transform="translate(407.51875 307.870313) scale(0.1 -0.1)">
      <defs>
       <path id="DejaVuSans-57" d="M 213 4666 
L 850 4666 
L 1831 722 
L 2809 4666 
L 3519 4666 
L 4500 722 
L 5478 4666 
L 6119 4666 
L 4947 0 
L 4153 0 
L 3169 4050 
L 2175 0 
L 1381 0 
L 213 4666 
z
" transform="scale(0.015625)"/>
       <path id="DejaVuSans-6f" d="M 1959 3097 
Q 1497 3097 1228 2736 
Q 959 2375 959 1747 
Q 959 1119 1226 758 
Q 1494 397 1959 397 
Q 2419 397 2687 759 
Q 2956 1122 2956 1747 
Q 2956 2369 2687 2733 
Q 2419 3097 1959 3097 
z
M 1959 3584 
Q 2709 3584 3137 3096 
Q 3566 2609 3566 1747 
Q 3566 888 3137 398 
Q 2709 -91 1959 -91 
Q 1206 -91 779 398 
Q 353 888 353 1747 
Q 353 2609 779 3096 
Q 1206 3584 1959 3584 
z
" transform="scale(0.015625)"/>
       <path id="DejaVuSans-77" d="M 269 3500 
L 844 3500 
L 1563 769 
L 2278 3500 
L 2956 3500 
L 3675 769 
L 4391 3500 
L 4966 3500 
L 4050 0 
L 3372 0 
L 2619 2869 
L 1863 0 
L 1184 0 
L 269 3500 
z
" transform="scale(0.015625)"/>
      </defs>
      <use xlink:href="#DejaVuSans-57"/>
      <use xlink:href="#DejaVuSans-69" x="96.626953"/>
      <use xlink:href="#DejaVuSans-6e" x="124.410156"/>
      <use xlink:href="#DejaVuSans-64" x="187.789062"/>
      <use xlink:href="#DejaVuSans-6f" x="251.265625"/>
      <use xlink:href="#DejaVuSans-77" x="312.447266"/>
      <use xlink:href="#DejaVuSans-65" x="394.234375"/>
      <use xlink:href="#DejaVuSans-64" x="455.757812"/>
      <use xlink:href="#DejaVuSans-20" x="519.234375"/>
      <use xlink:href="#DejaVuSans-66" x="551.021484"/>
      <use xlink:href="#DejaVuSans-69" x="586.226562"/>
      <use xlink:href="#DejaVuSans-65" x="614.009766"/>
      <use xlink:href="#DejaVuSans-6c" x="675.533203"/>
      <use xlink:href="#DejaVuSans-64" x="703.316406"/>
     </g>
    </g>
    <g id="line2d_59">
     <path d="M 379.51875 319.048438 
L 389.51875 319.048438 
L 399.51875 319.048438 
" style="fill: none; stroke-dasharray: 5.55,2.4; stroke-dashoffset: 0; stroke: #988ed5; stroke-width: 1.5"/>
    </g>
    <g id="text_29">
     <!-- Window -->
     <g transform="translate(407.51875 322.548438) scale(0.1 -0.1)">
      <use xlink:href="#DejaVuSans-57"/>
      <use xlink:href="#DejaVuSans-69" x="96.626953"/>
      <use xlink:href="#DejaVuSans-6e" x="124.410156"/>
      <use xlink:href="#DejaVuSans-64" x="187.789062"/>
      <use xlink:href="#DejaVuSans-6f" x="251.265625"/>
      <use xlink:href="#DejaVuSans-77" x="312.447266"/>
     </g>
    </g>
   </g>
  </g>
 </g>
 <defs>
  <clipPath id="p763d14d2ec">
   <rect x="65.45" y="10.8" width="427.75" height="254.99375"/>
  </clipPath>
  <clipPath id="p0e5b2c16e6">
   <rect x="65.45" y="276.59375" width="427.75" height="254.99375"/>
  </clipPath>
 </defs>
</svg>
