<?xml version="1.0" encoding="utf-8" standalone="no"?>
<!DOCTYPE svg PUBLIC "-//W3C//DTD SVG 1.1//EN"
  "http://www.w3.org/Graphics/SVG/1.1/DTD/svg11.dtd">
<svg xmlns:xlink="http://www.w3.org/1999/xlink" width="504pt" height="576pt" viewBox="0 0 504 576" xmlns="http://www.w3.org/2000/svg" version="1.1">
 <metadata>
  <rdf:RDF xmlns:dc="http://purl.org/dc/elements/1.1/" xmlns:cc="http://creativecommons.org/ns#" xmlns:rdf="http://www.w3.org/1999/02/22-rdf-syntax-ns#">
   <cc:Work>
    <dc:type rdf:resource="http://purl.org/dc/dcmitype/StillImage"/>
    <dc:date>2024-03-28T15:14:29.412691</dc:date>
    <dc:format>image/svg+xml</dc:format>
    <dc:creator>
     <cc:Agent>
      <dc:title>Matplotlib v3.8.3, https://matplotlib.org/</dc:title>
     </cc:Agent>
    </dc:creator>
   </cc:Work>
  </rdf:RDF>
 </metadata>
 <defs>
  <style type="text/css">*{stroke-linejoin: round; stroke-linecap: butt}</style>
 </defs>
 <g id="figure_1">
  <g id="patch_1">
   <path d="M 0 576 
L 504 576 
L 504 0 
L 0 0 
z
" style="fill: #ffffff"/>
  </g>
  <g id="axes_1">
   <g id="patch_2">
    <path d="M 62.372 177.195833 
L 246.711592 177.195833 
L 246.711592 10.8 
L 62.372 10.8 
z
" style="fill: #e5e5e5"/>
   </g>
   <g id="matplotlib.axis_1">
    <g id="xtick_1">
     <g id="line2d_1">
      <path d="M 67.173137 177.195833 
L 67.173137 10.8 
" clip-path="url(#pb326fc593a)" style="fill: none; stroke: #ffffff; stroke-width: 0.8; stroke-linecap: square"/>
     </g>
    </g>
    <g id="xtick_2">
     <g id="line2d_2">
      <path d="M 101.154359 177.195833 
L 101.154359 10.8 
" clip-path="url(#pb326fc593a)" style="fill: none; stroke: #ffffff; stroke-width: 0.8; stroke-linecap: square"/>
     </g>
    </g>
    <g id="xtick_3">
     <g id="line2d_3">
      <path d="M 135.13558 177.195833 
L 135.13558 10.8 
" clip-path="url(#pb326fc593a)" style="fill: none; stroke: #ffffff; stroke-width: 0.8; stroke-linecap: square"/>
     </g>
    </g>
    <g id="xtick_4">
     <g id="line2d_4">
      <path d="M 169.116802 177.195833 
L 169.116802 10.8 
" clip-path="url(#pb326fc593a)" style="fill: none; stroke: #ffffff; stroke-width: 0.8; stroke-linecap: square"/>
     </g>
    </g>
    <g id="xtick_5">
     <g id="line2d_5">
      <path d="M 203.098024 177.195833 
L 203.098024 10.8 
" clip-path="url(#pb326fc593a)" style="fill: none; stroke: #ffffff; stroke-width: 0.8; stroke-linecap: square"/>
     </g>
    </g>
    <g id="xtick_6">
     <g id="line2d_6">
      <path d="M 237.079246 177.195833 
L 237.079246 10.8 
" clip-path="url(#pb326fc593a)" style="fill: none; stroke: #ffffff; stroke-width: 0.8; stroke-linecap: square"/>
     </g>
    </g>
   </g>
   <g id="matplotlib.axis_2">
    <g id="ytick_1">
     <g id="line2d_7">
      <path d="M 62.372 176.289127 
L 246.711592 176.289127 
" clip-path="url(#pb326fc593a)" style="fill: none; stroke: #ffffff; stroke-width: 0.8; stroke-linecap: square"/>
     </g>
     <g id="line2d_8">
      <defs>
       <path id="m0ddd13d9c7" d="M 0 0 
L -3.5 0 
" style="stroke: #555555; stroke-width: 0.8"/>
      </defs>
      <g>
       <use xlink:href="#m0ddd13d9c7" x="62.372" y="176.289127" style="fill: #555555; stroke: #555555; stroke-width: 0.8"/>
      </g>
     </g>
     <g id="text_1">
      <!-- −0.75 -->
      <g style="fill: #555555" transform="translate(24.726688 180.088346) scale(0.1 -0.1)">
       <defs>
        <path id="DejaVuSans-2212" d="M 678 2272 
L 4684 2272 
L 4684 1741 
L 678 1741 
L 678 2272 
z
" transform="scale(0.015625)"/>
        <path id="DejaVuSans-30" d="M 2034 4250 
Q 1547 4250 1301 3770 
Q 1056 3291 1056 2328 
Q 1056 1369 1301 889 
Q 1547 409 2034 409 
Q 2525 409 2770 889 
Q 3016 1369 3016 2328 
Q 3016 3291 2770 3770 
Q 2525 4250 2034 4250 
z
M 2034 4750 
Q 2819 4750 3233 4129 
Q 3647 3509 3647 2328 
Q 3647 1150 3233 529 
Q 2819 -91 2034 -91 
Q 1250 -91 836 529 
Q 422 1150 422 2328 
Q 422 3509 836 4129 
Q 1250 4750 2034 4750 
z
" transform="scale(0.015625)"/>
        <path id="DejaVuSans-2e" d="M 684 794 
L 1344 794 
L 1344 0 
L 684 0 
L 684 794 
z
" transform="scale(0.015625)"/>
        <path id="DejaVuSans-37" d="M 525 4666 
L 3525 4666 
L 3525 4397 
L 1831 0 
L 1172 0 
L 2766 4134 
L 525 4134 
L 525 4666 
z
" transform="scale(0.015625)"/>
        <path id="DejaVuSans-35" d="M 691 4666 
L 3169 4666 
L 3169 4134 
L 1269 4134 
L 1269 2991 
Q 1406 3038 1543 3061 
Q 1681 3084 1819 3084 
Q 2600 3084 3056 2656 
Q 3513 2228 3513 1497 
Q 3513 744 3044 326 
Q 2575 -91 1722 -91 
Q 1428 -91 1123 -41 
Q 819 9 494 109 
L 494 744 
Q 775 591 1075 516 
Q 1375 441 1709 441 
Q 2250 441 2565 725 
Q 2881 1009 2881 1497 
Q 2881 1984 2565 2268 
Q 2250 2553 1709 2553 
Q 1456 2553 1204 2497 
Q 953 2441 691 2322 
L 691 4666 
z
" transform="scale(0.015625)"/>
       </defs>
       <use xlink:href="#DejaVuSans-2212"/>
       <use xlink:href="#DejaVuSans-30" x="83.789062"/>
       <use xlink:href="#DejaVuSans-2e" x="147.412109"/>
       <use xlink:href="#DejaVuSans-37" x="179.199219"/>
       <use xlink:href="#DejaVuSans-35" x="242.822266"/>
      </g>
     </g>
    </g>
    <g id="ytick_2">
     <g id="line2d_9">
      <path d="M 62.372 150.884187 
L 246.711592 150.884187 
" clip-path="url(#pb326fc593a)" style="fill: none; stroke: #ffffff; stroke-width: 0.8; stroke-linecap: square"/>
     </g>
     <g id="line2d_10">
      <g>
       <use xlink:href="#m0ddd13d9c7" x="62.372" y="150.884187" style="fill: #555555; stroke: #555555; stroke-width: 0.8"/>
      </g>
     </g>
     <g id="text_2">
      <!-- −0.50 -->
      <g style="fill: #555555" transform="translate(24.726688 154.683406) scale(0.1 -0.1)">
       <use xlink:href="#DejaVuSans-2212"/>
       <use xlink:href="#DejaVuSans-30" x="83.789062"/>
       <use xlink:href="#DejaVuSans-2e" x="147.412109"/>
       <use xlink:href="#DejaVuSans-35" x="179.199219"/>
       <use xlink:href="#DejaVuSans-30" x="242.822266"/>
      </g>
     </g>
    </g>
    <g id="ytick_3">
     <g id="line2d_11">
      <path d="M 62.372 125.479247 
L 246.711592 125.479247 
" clip-path="url(#pb326fc593a)" style="fill: none; stroke: #ffffff; stroke-width: 0.8; stroke-linecap: square"/>
     </g>
     <g id="line2d_12">
      <g>
       <use xlink:href="#m0ddd13d9c7" x="62.372" y="125.479247" style="fill: #555555; stroke: #555555; stroke-width: 0.8"/>
      </g>
     </g>
     <g id="text_3">
      <!-- −0.25 -->
      <g style="fill: #555555" transform="translate(24.726688 129.278466) scale(0.1 -0.1)">
       <defs>
        <path id="DejaVuSans-32" d="M 1228 531 
L 3431 531 
L 3431 0 
L 469 0 
L 469 531 
Q 828 903 1448 1529 
Q 2069 2156 2228 2338 
Q 2531 2678 2651 2914 
Q 2772 3150 2772 3378 
Q 2772 3750 2511 3984 
Q 2250 4219 1831 4219 
Q 1534 4219 1204 4116 
Q 875 4013 500 3803 
L 500 4441 
Q 881 4594 1212 4672 
Q 1544 4750 1819 4750 
Q 2544 4750 2975 4387 
Q 3406 4025 3406 3419 
Q 3406 3131 3298 2873 
Q 3191 2616 2906 2266 
Q 2828 2175 2409 1742 
Q 1991 1309 1228 531 
z
" transform="scale(0.015625)"/>
       </defs>
       <use xlink:href="#DejaVuSans-2212"/>
       <use xlink:href="#DejaVuSans-30" x="83.789062"/>
       <use xlink:href="#DejaVuSans-2e" x="147.412109"/>
       <use xlink:href="#DejaVuSans-32" x="179.199219"/>
       <use xlink:href="#DejaVuSans-35" x="242.822266"/>
      </g>
     </g>
    </g>
    <g id="ytick_4">
     <g id="line2d_13">
      <path d="M 62.372 100.074307 
L 246.711592 100.074307 
" clip-path="url(#pb326fc593a)" style="fill: none; stroke: #ffffff; stroke-width: 0.8; stroke-linecap: square"/>
     </g>
     <g id="line2d_14">
      <g>
       <use xlink:href="#m0ddd13d9c7" x="62.372" y="100.074307" style="fill: #555555; stroke: #555555; stroke-width: 0.8"/>
      </g>
     </g>
     <g id="text_4">
      <!-- 0.00 -->
      <g style="fill: #555555" transform="translate(33.106375 103.873526) scale(0.1 -0.1)">
       <use xlink:href="#DejaVuSans-30"/>
       <use xlink:href="#DejaVuSans-2e" x="63.623047"/>
       <use xlink:href="#DejaVuSans-30" x="95.410156"/>
       <use xlink:href="#DejaVuSans-30" x="159.033203"/>
      </g>
     </g>
    </g>
    <g id="ytick_5">
     <g id="line2d_15">
      <path d="M 62.372 74.669367 
L 246.711592 74.669367 
" clip-path="url(#pb326fc593a)" style="fill: none; stroke: #ffffff; stroke-width: 0.8; stroke-linecap: square"/>
     </g>
     <g id="line2d_16">
      <g>
       <use xlink:href="#m0ddd13d9c7" x="62.372" y="74.669367" style="fill: #555555; stroke: #555555; stroke-width: 0.8"/>
      </g>
     </g>
     <g id="text_5">
      <!-- 0.25 -->
      <g style="fill: #555555" transform="translate(33.106375 78.468586) scale(0.1 -0.1)">
       <use xlink:href="#DejaVuSans-30"/>
       <use xlink:href="#DejaVuSans-2e" x="63.623047"/>
       <use xlink:href="#DejaVuSans-32" x="95.410156"/>
       <use xlink:href="#DejaVuSans-35" x="159.033203"/>
      </g>
     </g>
    </g>
    <g id="ytick_6">
     <g id="line2d_17">
      <path d="M 62.372 49.264427 
L 246.711592 49.264427 
" clip-path="url(#pb326fc593a)" style="fill: none; stroke: #ffffff; stroke-width: 0.8; stroke-linecap: square"/>
     </g>
     <g id="line2d_18">
      <g>
       <use xlink:href="#m0ddd13d9c7" x="62.372" y="49.264427" style="fill: #555555; stroke: #555555; stroke-width: 0.8"/>
      </g>
     </g>
     <g id="text_6">
      <!-- 0.50 -->
      <g style="fill: #555555" transform="translate(33.106375 53.063646) scale(0.1 -0.1)">
       <use xlink:href="#DejaVuSans-30"/>
       <use xlink:href="#DejaVuSans-2e" x="63.623047"/>
       <use xlink:href="#DejaVuSans-35" x="95.410156"/>
       <use xlink:href="#DejaVuSans-30" x="159.033203"/>
      </g>
     </g>
    </g>
    <g id="ytick_7">
     <g id="line2d_19">
      <path d="M 62.372 23.859487 
L 246.711592 23.859487 
" clip-path="url(#pb326fc593a)" style="fill: none; stroke: #ffffff; stroke-width: 0.8; stroke-linecap: square"/>
     </g>
     <g id="line2d_20">
      <g>
       <use xlink:href="#m0ddd13d9c7" x="62.372" y="23.859487" style="fill: #555555; stroke: #555555; stroke-width: 0.8"/>
      </g>
     </g>
     <g id="text_7">
      <!-- 0.75 -->
      <g style="fill: #555555" transform="translate(33.106375 27.658706) scale(0.1 -0.1)">
       <use xlink:href="#DejaVuSans-30"/>
       <use xlink:href="#DejaVuSans-2e" x="63.623047"/>
       <use xlink:href="#DejaVuSans-37" x="95.410156"/>
       <use xlink:href="#DejaVuSans-35" x="159.033203"/>
      </g>
     </g>
    </g>
    <g id="text_8">
     <!-- $F_x(t)$ -->
     <g style="fill: #555555" transform="translate(18.231063 107.137917) rotate(-90) scale(0.12 -0.12)">
      <defs>
       <path id="DejaVuSans-Oblique-46" d="M 1081 4666 
L 3756 4666 
L 3653 4134 
L 1606 4134 
L 1338 2759 
L 3188 2759 
L 3084 2228 
L 1234 2228 
L 800 0 
L 172 0 
L 1081 4666 
z
" transform="scale(0.015625)"/>
       <path id="DejaVuSans-Oblique-78" d="M 3841 3500 
L 2234 1784 
L 3219 0 
L 2559 0 
L 1819 1388 
L 531 0 
L -166 0 
L 1556 1844 
L 641 3500 
L 1300 3500 
L 1972 2234 
L 3144 3500 
L 3841 3500 
z
" transform="scale(0.015625)"/>
       <path id="DejaVuSans-28" d="M 1984 4856 
Q 1566 4138 1362 3434 
Q 1159 2731 1159 2009 
Q 1159 1288 1364 580 
Q 1569 -128 1984 -844 
L 1484 -844 
Q 1016 -109 783 600 
Q 550 1309 550 2009 
Q 550 2706 781 3412 
Q 1013 4119 1484 4856 
L 1984 4856 
z
" transform="scale(0.015625)"/>
       <path id="DejaVuSans-Oblique-74" d="M 2706 3500 
L 2619 3053 
L 1472 3053 
L 1100 1153 
Q 1081 1047 1072 975 
Q 1063 903 1063 863 
Q 1063 663 1183 572 
Q 1303 481 1569 481 
L 2150 481 
L 2053 0 
L 1503 0 
Q 991 0 739 200 
Q 488 400 488 806 
Q 488 878 497 964 
Q 506 1050 525 1153 
L 897 3053 
L 409 3053 
L 500 3500 
L 978 3500 
L 1172 4494 
L 1747 4494 
L 1556 3500 
L 2706 3500 
z
" transform="scale(0.015625)"/>
       <path id="DejaVuSans-29" d="M 513 4856 
L 1013 4856 
Q 1481 4119 1714 3412 
Q 1947 2706 1947 2009 
Q 1947 1309 1714 600 
Q 1481 -109 1013 -844 
L 513 -844 
Q 928 -128 1133 580 
Q 1338 1288 1338 2009 
Q 1338 2731 1133 3434 
Q 928 4138 513 4856 
z
" transform="scale(0.015625)"/>
      </defs>
      <use xlink:href="#DejaVuSans-Oblique-46" transform="translate(0 0.125)"/>
      <use xlink:href="#DejaVuSans-Oblique-78" transform="translate(57.519531 -16.28125) scale(0.7)"/>
      <use xlink:href="#DejaVuSans-28" transform="translate(101.679688 0.125)"/>
      <use xlink:href="#DejaVuSans-Oblique-74" transform="translate(140.693359 0.125)"/>
      <use xlink:href="#DejaVuSans-29" transform="translate(179.902344 0.125)"/>
     </g>
    </g>
   </g>
   <g id="line2d_21">
    <path d="M 70.751072 100.074307 
L 91.970801 100.183397 
L 94.872644 100.274527 
L 96.323566 100.102261 
L 97.774487 99.711619 
L 100.132235 98.781083 
L 101.583157 98.337283 
L 102.489983 98.300091 
L 103.215444 98.489778 
L 103.940904 98.928565 
L 104.666365 99.652772 
L 105.391826 100.676712 
L 106.298652 102.349529 
L 107.749574 105.607945 
L 109.01913 108.306569 
L 109.744591 109.368869 
L 110.288686 109.768127 
L 110.651417 109.793918 
L 111.014147 109.598062 
L 111.376878 109.158418 
L 111.920973 108.0027 
L 112.465069 106.215998 
L 113.19053 102.835989 
L 114.097356 97.128425 
L 115.366912 87.210056 
L 116.999199 74.566266 
L 117.72466 70.532916 
L 118.268755 68.680205 
L 118.631486 68.132635 
L 118.812851 68.087648 
L 118.994216 68.203822 
L 119.356947 68.941298 
L 119.719677 70.380319 
L 120.263773 73.896382 
L 120.807868 79.039397 
L 121.533329 88.271504 
L 122.440155 102.9482 
L 125.341998 153.539647 
L 126.067459 161.15205 
L 126.430189 163.462462 
L 126.79292 164.646177 
L 126.974285 164.792557 
L 127.15565 164.632673 
L 127.337015 164.161547 
L 127.699746 162.27399 
L 128.062476 159.124016 
L 128.606572 152.088877 
L 129.332033 138.738499 
L 130.238859 116.933551 
L 133.322067 36.491495 
L 134.047528 25.083905 
L 134.591624 20.064093 
L 134.954354 18.552909 
L 135.135719 18.363447 
L 135.317084 18.553489 
L 135.49845 19.12199 
L 135.86118 21.37979 
L 136.22391 25.087275 
L 136.768006 33.180814 
L 137.493467 48.047492 
L 138.581658 76.36821 
L 140.75804 134.781259 
L 141.483501 149.1598 
L 142.208962 159.126903 
L 142.753058 163.3773 
L 143.115788 164.633154 
L 143.297153 164.792566 
L 143.478518 164.645722 
L 143.841249 163.461115 
L 144.203979 161.149874 
L 144.748075 155.778 
L 145.473536 145.683887 
L 146.561727 126.543668 
L 148.556744 90.956428 
L 149.46357 79.036371 
L 150.189031 72.540148 
L 150.733127 69.570342 
L 151.095857 68.486198 
L 151.458587 68.087595 
L 151.639953 68.132824 
L 152.002683 68.680846 
L 152.365413 69.789744 
L 152.909509 72.358556 
L 153.63497 77.0856 
L 155.085891 88.704514 
L 156.355448 98.389154 
L 157.262274 103.787438 
L 157.987735 106.884076 
L 158.53183 108.457167 
L 159.075926 109.4103 
L 159.438656 109.725304 
L 159.801387 109.807205 
L 160.164117 109.679642 
L 160.708213 109.152741 
L 161.433673 107.969114 
L 162.521865 105.607302 
L 164.335517 101.63233 
L 165.242343 100.127094 
L 165.967804 99.253199 
L 166.693264 98.675187 
L 167.418725 98.366609 
L 168.144186 98.283485 
L 169.051012 98.415614 
L 170.320568 98.853212 
L 173.222412 99.933703 
L 174.673333 100.214864 
L 176.30562 100.287253 
L 179.932924 100.09781 
L 184.104324 100.074302 
L 238.332519 100.074307 
L 238.332519 100.074307 
" clip-path="url(#pb326fc593a)" style="fill: none; stroke: #000000; stroke-width: 1.5; stroke-linecap: square"/>
   </g>
   <g id="line2d_22">
    <path d="M 70.751072 100.005612 
L 74.559742 100.152017 
L 77.824315 100.537357 
L 81.451619 100.965264 
L 82.721176 100.916477 
L 84.172097 100.591866 
L 85.078923 100.198577 
L 85.985749 99.642969 
L 86.892575 98.927015 
L 87.980767 97.895258 
L 90.88261 94.971171 
L 91.789436 94.406358 
L 92.696262 94.240169 
L 93.421723 94.439481 
L 94.328549 95.324052 
L 95.41674 97.409551 
L 96.323566 99.931361 
L 97.593122 104.607945 
L 99.044044 110.894569 
L 100.676331 117.657118 
L 101.764522 120.573821 
L 102.489983 121.562785 
L 103.396809 120.981986 
L 104.303635 118.246755 
L 105.391826 111.782135 
L 106.480017 102.360069 
L 107.749574 88.656151 
L 110.107321 62.834446 
L 110.832782 57.092874 
L 111.558243 53.198686 
L 112.283704 52.27771 
L 112.465069 52.276265 
L 113.371895 55.969834 
L 114.278721 64.452433 
L 115.366912 80.624477 
L 116.817834 108.566155 
L 118.812851 147.96394 
L 119.901042 162.679199 
L 120.626503 168.649124 
L 121.351964 169.632386 
L 121.533329 169.437965 
L 122.440155 162.966122 
L 123.528346 145.836791 
L 124.616537 121.498692 
L 127.699746 47.031575 
L 128.243841 39.006828 
L 128.787937 32.370206 
L 129.513398 29.093027 
L 129.694763 28.861114 
L 130.420224 32.271049 
L 130.601589 33.677392 
L 131.508415 46.147325 
L 132.777972 73.346242 
L 135.317084 132.439293 
L 136.22391 146.397771 
L 136.949371 153.137149 
L 137.674832 154.451206 
L 137.856197 154.194839 
L 138.763023 148.034898 
L 139.851214 132.830747 
L 143.115788 77.135154 
L 143.659884 71.945008 
L 144.203979 67.8112 
L 144.92944 66.152016 
L 145.110805 66.214312 
L 146.017631 69.907411 
L 147.105822 79.78943 
L 149.826301 109.680989 
L 150.551761 115.007566 
L 151.458587 118.248068 
L 152.184048 118.216475 
L 152.365413 117.904784 
L 153.272239 114.534147 
L 154.723161 105.471069 
L 155.992717 97.413443 
L 156.899543 93.230864 
L 157.806369 91.060099 
L 158.53183 90.85355 
L 158.713195 90.994793 
L 159.620021 92.70584 
L 161.070943 97.522998 
L 162.340499 101.695429 
L 163.247325 103.710944 
L 164.154151 104.577604 
L 165.060978 104.314615 
L 166.149169 102.864083 
L 168.506916 98.8943 
L 169.232377 98.228432 
L 169.595108 97.994239 
L 170.501934 97.924369 
L 171.590125 98.532207 
L 174.491968 100.852284 
L 175.217429 101.08889 
L 176.124255 101.083779 
L 177.212446 100.737082 
L 179.932924 99.649749 
L 180.83975 99.551443 
L 181.927941 99.648522 
L 183.378863 99.983127 
L 185.01115 100.303954 
L 186.643437 100.32849 
L 191.903027 99.952456 
L 197.525349 100.11781 
L 201.878114 100.03311 
L 209.676817 100.060652 
L 216.931425 100.089636 
L 238.332519 100.080316 
L 238.332519 100.080316 
" clip-path="url(#pb326fc593a)" style="fill: none; stroke: #e24a33; stroke-width: 1.5; stroke-linecap: square"/>
   </g>
   <g id="patch_3">
    <path d="M 62.372 177.195833 
L 62.372 10.8 
" style="fill: none; stroke: #ffffff; stroke-linejoin: miter; stroke-linecap: square"/>
   </g>
   <g id="patch_4">
    <path d="M 246.711592 177.195833 
L 246.711592 10.8 
" style="fill: none; stroke: #ffffff; stroke-linejoin: miter; stroke-linecap: square"/>
   </g>
   <g id="patch_5">
    <path d="M 62.372 177.195833 
L 246.711592 177.195833 
" style="fill: none; stroke: #ffffff; stroke-linejoin: miter; stroke-linecap: square"/>
   </g>
   <g id="patch_6">
    <path d="M 62.372 10.8 
L 246.711592 10.8 
" style="fill: none; stroke: #ffffff; stroke-linejoin: miter; stroke-linecap: square"/>
   </g>
  </g>
  <g id="axes_2">
   <g id="patch_7">
    <path d="M 263.462408 177.195833 
L 447.802 177.195833 
L 447.802 10.8 
L 263.462408 10.8 
z
" style="fill: #e5e5e5"/>
   </g>
   <g id="matplotlib.axis_3">
    <g id="xtick_7">
     <g id="line2d_23">
      <path d="M 268.263545 177.195833 
L 268.263545 10.8 
" clip-path="url(#pe85899af61)" style="fill: none; stroke: #ffffff; stroke-width: 0.8; stroke-linecap: square"/>
     </g>
    </g>
    <g id="xtick_8">
     <g id="line2d_24">
      <path d="M 302.244767 177.195833 
L 302.244767 10.8 
" clip-path="url(#pe85899af61)" style="fill: none; stroke: #ffffff; stroke-width: 0.8; stroke-linecap: square"/>
     </g>
    </g>
    <g id="xtick_9">
     <g id="line2d_25">
      <path d="M 336.225989 177.195833 
L 336.225989 10.8 
" clip-path="url(#pe85899af61)" style="fill: none; stroke: #ffffff; stroke-width: 0.8; stroke-linecap: square"/>
     </g>
    </g>
    <g id="xtick_10">
     <g id="line2d_26">
      <path d="M 370.207211 177.195833 
L 370.207211 10.8 
" clip-path="url(#pe85899af61)" style="fill: none; stroke: #ffffff; stroke-width: 0.8; stroke-linecap: square"/>
     </g>
    </g>
    <g id="xtick_11">
     <g id="line2d_27">
      <path d="M 404.188432 177.195833 
L 404.188432 10.8 
" clip-path="url(#pe85899af61)" style="fill: none; stroke: #ffffff; stroke-width: 0.8; stroke-linecap: square"/>
     </g>
    </g>
    <g id="xtick_12">
     <g id="line2d_28">
      <path d="M 438.169654 177.195833 
L 438.169654 10.8 
" clip-path="url(#pe85899af61)" style="fill: none; stroke: #ffffff; stroke-width: 0.8; stroke-linecap: square"/>
     </g>
    </g>
   </g>
   <g id="matplotlib.axis_4">
    <g id="ytick_8">
     <g id="line2d_29">
      <path d="M 263.462408 151.399304 
L 447.802 151.399304 
" clip-path="url(#pe85899af61)" style="fill: none; stroke: #ffffff; stroke-width: 0.8; stroke-linecap: square"/>
     </g>
     <g id="line2d_30">
      <defs>
       <path id="md438bbb755" d="M 0 0 
L 3.5 0 
" style="stroke: #555555; stroke-width: 0.8"/>
      </defs>
      <g>
       <use xlink:href="#md438bbb755" x="447.802" y="151.399304" style="fill: #555555; stroke: #555555; stroke-width: 0.8"/>
      </g>
     </g>
     <g id="text_9">
      <!-- −10 -->
      <g style="fill: #555555" transform="translate(454.802 155.198523) scale(0.1 -0.1)">
       <defs>
        <path id="DejaVuSans-31" d="M 794 531 
L 1825 531 
L 1825 4091 
L 703 3866 
L 703 4441 
L 1819 4666 
L 2450 4666 
L 2450 531 
L 3481 531 
L 3481 0 
L 794 0 
L 794 531 
z
" transform="scale(0.015625)"/>
       </defs>
       <use xlink:href="#DejaVuSans-2212"/>
       <use xlink:href="#DejaVuSans-31" x="83.789062"/>
       <use xlink:href="#DejaVuSans-30" x="147.412109"/>
      </g>
     </g>
    </g>
    <g id="ytick_9">
     <g id="line2d_31">
      <path d="M 263.462408 122.698658 
L 447.802 122.698658 
" clip-path="url(#pe85899af61)" style="fill: none; stroke: #ffffff; stroke-width: 0.8; stroke-linecap: square"/>
     </g>
     <g id="line2d_32">
      <g>
       <use xlink:href="#md438bbb755" x="447.802" y="122.698658" style="fill: #555555; stroke: #555555; stroke-width: 0.8"/>
      </g>
     </g>
     <g id="text_10">
      <!-- −5 -->
      <g style="fill: #555555" transform="translate(454.802 126.497877) scale(0.1 -0.1)">
       <use xlink:href="#DejaVuSans-2212"/>
       <use xlink:href="#DejaVuSans-35" x="83.789062"/>
      </g>
     </g>
    </g>
    <g id="ytick_10">
     <g id="line2d_33">
      <path d="M 263.462408 93.998011 
L 447.802 93.998011 
" clip-path="url(#pe85899af61)" style="fill: none; stroke: #ffffff; stroke-width: 0.8; stroke-linecap: square"/>
     </g>
     <g id="line2d_34">
      <g>
       <use xlink:href="#md438bbb755" x="447.802" y="93.998011" style="fill: #555555; stroke: #555555; stroke-width: 0.8"/>
      </g>
     </g>
     <g id="text_11">
      <!-- 0 -->
      <g style="fill: #555555" transform="translate(454.802 97.79723) scale(0.1 -0.1)">
       <use xlink:href="#DejaVuSans-30"/>
      </g>
     </g>
    </g>
    <g id="ytick_11">
     <g id="line2d_35">
      <path d="M 263.462408 65.297365 
L 447.802 65.297365 
" clip-path="url(#pe85899af61)" style="fill: none; stroke: #ffffff; stroke-width: 0.8; stroke-linecap: square"/>
     </g>
     <g id="line2d_36">
      <g>
       <use xlink:href="#md438bbb755" x="447.802" y="65.297365" style="fill: #555555; stroke: #555555; stroke-width: 0.8"/>
      </g>
     </g>
     <g id="text_12">
      <!-- 5 -->
      <g style="fill: #555555" transform="translate(454.802 69.096584) scale(0.1 -0.1)">
       <use xlink:href="#DejaVuSans-35"/>
      </g>
     </g>
    </g>
    <g id="ytick_12">
     <g id="line2d_37">
      <path d="M 263.462408 36.596719 
L 447.802 36.596719 
" clip-path="url(#pe85899af61)" style="fill: none; stroke: #ffffff; stroke-width: 0.8; stroke-linecap: square"/>
     </g>
     <g id="line2d_38">
      <g>
       <use xlink:href="#md438bbb755" x="447.802" y="36.596719" style="fill: #555555; stroke: #555555; stroke-width: 0.8"/>
      </g>
     </g>
     <g id="text_13">
      <!-- 10 -->
      <g style="fill: #555555" transform="translate(454.802 40.395937) scale(0.1 -0.1)">
       <use xlink:href="#DejaVuSans-31"/>
       <use xlink:href="#DejaVuSans-30" x="63.623047"/>
      </g>
     </g>
    </g>
    <g id="text_14">
     <!-- $A_x(t)$ -->
     <g style="fill: #555555" transform="translate(489.024813 107.797917) rotate(-90) scale(0.12 -0.12)">
      <defs>
       <path id="DejaVuSans-Oblique-41" d="M 2356 4666 
L 3072 4666 
L 3938 0 
L 3278 0 
L 3084 1197 
L 984 1197 
L 325 0 
L -341 0 
L 2356 4666 
z
M 2584 4044 
L 1275 1722 
L 2988 1722 
L 2584 4044 
z
" transform="scale(0.015625)"/>
      </defs>
      <use xlink:href="#DejaVuSans-Oblique-41" transform="translate(0 0.125)"/>
      <use xlink:href="#DejaVuSans-Oblique-78" transform="translate(68.408203 -16.28125) scale(0.7)"/>
      <use xlink:href="#DejaVuSans-28" transform="translate(112.568359 0.125)"/>
      <use xlink:href="#DejaVuSans-Oblique-74" transform="translate(151.582031 0.125)"/>
      <use xlink:href="#DejaVuSans-29" transform="translate(190.791016 0.125)"/>
     </g>
    </g>
   </g>
   <g id="line2d_39">
    <path d="M 271.841481 93.998011 
L 294.330766 93.894991 
L 298.3208 93.736206 
L 299.771722 93.95178 
L 301.041278 94.370763 
L 302.4922 95.110377 
L 305.212678 96.607254 
L 305.938139 96.761319 
L 306.6636 96.67885 
L 307.207695 96.418083 
L 307.751791 95.956724 
L 308.477252 94.994795 
L 309.202712 93.615933 
L 310.109538 91.331009 
L 311.379095 87.354715 
L 313.011382 82.179004 
L 313.736843 80.493668 
L 314.280938 79.720677 
L 314.643669 79.504639 
L 315.006399 79.566093 
L 315.369129 79.934308 
L 315.73186 80.634424 
L 316.275955 82.348932 
L 316.820051 84.894061 
L 317.545512 89.577391 
L 318.452338 97.313982 
L 319.721894 110.553744 
L 321.354181 127.516793 
L 322.079642 133.202483 
L 322.623737 136.101081 
L 322.986468 137.234176 
L 323.349198 137.648484 
L 323.530563 137.568257 
L 323.711929 137.288529 
L 324.074659 136.112175 
L 324.437389 134.092387 
L 324.981485 129.463264 
L 325.525581 122.957603 
L 326.251041 111.611626 
L 327.339233 90.154141 
L 329.878346 37.150128 
L 330.603806 26.624632 
L 331.147902 21.337342 
L 331.510632 19.238893 
L 331.873363 18.363447 
L 332.054728 18.39898 
L 332.236093 18.754713 
L 332.598824 20.431215 
L 332.961554 23.385402 
L 333.50565 30.131027 
L 334.23111 43.065252 
L 335.137936 64.29264 
L 338.583875 151.926573 
L 339.309336 162.667181 
L 339.853432 167.56658 
L 340.216162 169.242099 
L 340.397527 169.597341 
L 340.578892 169.632386 
L 340.760258 169.350365 
L 341.122988 167.855494 
L 341.485718 165.168535 
L 342.029814 159.080549 
L 342.755275 147.689434 
L 343.843466 125.782958 
L 346.201214 76.379534 
L 347.10804 62.664258 
L 347.833501 55.231564 
L 348.377596 51.882628 
L 348.740327 50.706911 
L 349.103057 50.347567 
L 349.284422 50.461406 
L 349.647153 51.24335 
L 350.009883 52.711904 
L 350.553979 56.042962 
L 351.279439 62.156354 
L 352.548996 75.452564 
L 354.181283 92.379276 
L 355.088109 99.725854 
L 355.813569 104.044991 
L 356.357665 106.310557 
L 356.901761 107.755061 
L 357.264491 108.286129 
L 357.627221 108.497303 
L 357.989952 108.415923 
L 358.352682 108.072932 
L 358.896778 107.141682 
L 359.622239 105.307635 
L 360.891795 101.245962 
L 362.524082 96.161621 
L 363.430908 93.995717 
L 364.156369 92.721635 
L 364.88183 91.861537 
L 365.60729 91.383248 
L 366.332751 91.230226 
L 367.058212 91.332251 
L 367.965038 91.705347 
L 369.960055 92.885808 
L 371.410977 93.625376 
L 372.680533 94.04431 
L 373.95009 94.246245 
L 375.582376 94.268934 
L 384.106541 93.997965 
L 439.422928 93.998011 
L 439.422928 93.998011 
" clip-path="url(#pe85899af61)" style="fill: none; stroke: #000000; stroke-width: 1.5; stroke-linecap: square"/>
   </g>
   <g id="line2d_40">
    <path d="M 271.841481 94.119197 
L 276.375611 94.115644 
L 278.733358 93.889592 
L 280.909741 93.443086 
L 286.350697 92.129795 
L 287.438888 92.248469 
L 288.345714 92.583745 
L 289.25254 93.180698 
L 290.159366 94.069596 
L 291.066192 95.258974 
L 292.154383 97.049268 
L 293.78667 100.221067 
L 295.418957 103.273625 
L 296.325783 104.505624 
L 296.869879 104.959767 
L 297.413974 105.143698 
L 297.776705 105.084822 
L 298.3208 104.704034 
L 298.864896 103.924907 
L 299.408992 102.72497 
L 300.134452 100.427708 
L 300.859913 97.330349 
L 301.766739 92.402434 
L 303.036296 83.948007 
L 305.756774 65.130728 
L 306.482234 61.606301 
L 307.02633 59.819128 
L 307.38906 59.091078 
L 307.751791 58.80619 
L 307.933156 58.832659 
L 308.295886 59.234954 
L 308.658617 60.145263 
L 309.202712 62.475713 
L 309.746808 65.994558 
L 310.472269 72.501282 
L 311.379095 83.311091 
L 312.467286 99.32422 
L 315.187764 141.533042 
L 315.913225 149.763071 
L 316.457321 154.246496 
L 317.001416 156.968308 
L 317.364147 157.744986 
L 317.545512 157.791503 
L 317.726877 157.607736 
L 318.089607 156.549177 
L 318.452338 154.558252 
L 318.996433 149.81206 
L 319.540529 143.064163 
L 320.26599 131.194547 
L 321.172816 112.68228 
L 324.618755 37.479931 
L 325.344215 27.949253 
L 325.888311 23.52063 
L 326.251041 21.979917 
L 326.432407 21.64602 
L 326.613772 21.610841 
L 326.795137 21.874381 
L 327.157867 23.29663 
L 327.520598 25.866539 
L 328.064693 31.822956 
L 328.790154 43.213989 
L 329.69698 61.851732 
L 332.780189 131.328754 
L 333.50565 142.050573 
L 334.049745 147.456719 
L 334.412476 149.696013 
L 334.775206 150.816746 
L 334.956571 150.952591 
L 335.137936 150.805421 
L 335.500667 149.687481 
L 335.863397 147.539436 
L 336.407493 142.452381 
L 337.132954 132.815352 
L 338.221145 114.214871 
L 340.216162 79.090115 
L 341.122988 67.580379 
L 341.667084 62.92816 
L 342.211179 60.143218 
L 342.57391 59.356476 
L 342.755275 59.272042 
L 342.93664 59.387693 
L 343.29937 60.219252 
L 343.662101 61.808196 
L 344.206196 65.386225 
L 344.931657 72.003613 
L 346.382579 88.346165 
L 347.652135 101.499885 
L 348.377596 107.026715 
L 348.921692 109.863182 
L 349.465787 111.505185 
L 349.828518 111.922794 
L 350.009883 111.941403 
L 350.372613 111.615561 
L 350.735344 110.809274 
L 351.279439 108.881046 
L 352.0049 105.209033 
L 354.906743 88.83372 
L 355.450839 87.031702 
L 355.994935 85.907713 
L 356.357665 85.53654 
L 356.720395 85.453873 
L 357.083126 85.656896 
L 357.445856 86.097903 
L 357.989952 87.166265 
L 358.715413 89.110671 
L 360.891795 95.535842 
L 361.617256 96.951905 
L 362.161352 97.612153 
L 362.705447 97.909996 
L 363.249543 97.868958 
L 363.793638 97.526925 
L 364.519099 96.712879 
L 365.788656 94.826811 
L 366.876847 93.333449 
L 367.602308 92.638636 
L 368.327768 92.262856 
L 368.871864 92.196535 
L 369.597325 92.357198 
L 370.504151 92.859437 
L 373.043264 94.534203 
L 373.95009 94.793756 
L 374.856916 94.798641 
L 375.945107 94.543678 
L 378.84695 93.669599 
L 380.116507 93.616782 
L 381.567428 93.802784 
L 384.287906 94.179627 
L 385.920193 94.150953 
L 390.454323 93.904356 
L 397.164836 94.004966 
L 401.5176 93.985403 
L 407.865382 93.995722 
L 419.835486 93.992941 
L 439.422928 93.998912 
L 439.422928 93.998912 
" clip-path="url(#pe85899af61)" style="fill: none; stroke: #e24a33; stroke-width: 1.5; stroke-linecap: square"/>
   </g>
   <g id="patch_8">
    <path d="M 263.462408 177.195833 
L 263.462408 10.8 
" style="fill: none; stroke: #ffffff; stroke-linejoin: miter; stroke-linecap: square"/>
   </g>
   <g id="patch_9">
    <path d="M 447.802 177.195833 
L 447.802 10.8 
" style="fill: none; stroke: #ffffff; stroke-linejoin: miter; stroke-linecap: square"/>
   </g>
   <g id="patch_10">
    <path d="M 263.462408 177.195833 
L 447.802 177.195833 
" style="fill: none; stroke: #ffffff; stroke-linejoin: miter; stroke-linecap: square"/>
   </g>
   <g id="patch_11">
    <path d="M 263.462408 10.8 
L 447.802 10.8 
" style="fill: none; stroke: #ffffff; stroke-linejoin: miter; stroke-linecap: square"/>
   </g>
  </g>
  <g id="axes_3">
   <g id="patch_12">
    <path d="M 62.372 354.391667 
L 246.711592 354.391667 
L 246.711592 187.995833 
L 62.372 187.995833 
z
" style="fill: #e5e5e5"/>
   </g>
   <g id="matplotlib.axis_5">
    <g id="xtick_13">
     <g id="line2d_41">
      <path d="M 67.173137 354.391667 
L 67.173137 187.995833 
" clip-path="url(#p6ca1dcf94a)" style="fill: none; stroke: #ffffff; stroke-width: 0.8; stroke-linecap: square"/>
     </g>
    </g>
    <g id="xtick_14">
     <g id="line2d_42">
      <path d="M 101.154359 354.391667 
L 101.154359 187.995833 
" clip-path="url(#p6ca1dcf94a)" style="fill: none; stroke: #ffffff; stroke-width: 0.8; stroke-linecap: square"/>
     </g>
    </g>
    <g id="xtick_15">
     <g id="line2d_43">
      <path d="M 135.13558 354.391667 
L 135.13558 187.995833 
" clip-path="url(#p6ca1dcf94a)" style="fill: none; stroke: #ffffff; stroke-width: 0.8; stroke-linecap: square"/>
     </g>
    </g>
    <g id="xtick_16">
     <g id="line2d_44">
      <path d="M 169.116802 354.391667 
L 169.116802 187.995833 
" clip-path="url(#p6ca1dcf94a)" style="fill: none; stroke: #ffffff; stroke-width: 0.8; stroke-linecap: square"/>
     </g>
    </g>
    <g id="xtick_17">
     <g id="line2d_45">
      <path d="M 203.098024 354.391667 
L 203.098024 187.995833 
" clip-path="url(#p6ca1dcf94a)" style="fill: none; stroke: #ffffff; stroke-width: 0.8; stroke-linecap: square"/>
     </g>
    </g>
    <g id="xtick_18">
     <g id="line2d_46">
      <path d="M 237.079246 354.391667 
L 237.079246 187.995833 
" clip-path="url(#p6ca1dcf94a)" style="fill: none; stroke: #ffffff; stroke-width: 0.8; stroke-linecap: square"/>
     </g>
    </g>
   </g>
   <g id="matplotlib.axis_6">
    <g id="ytick_13">
     <g id="line2d_47">
      <path d="M 62.372 341.247367 
L 246.711592 341.247367 
" clip-path="url(#p6ca1dcf94a)" style="fill: none; stroke: #ffffff; stroke-width: 0.8; stroke-linecap: square"/>
     </g>
     <g id="line2d_48">
      <g>
       <use xlink:href="#m0ddd13d9c7" x="62.372" y="341.247367" style="fill: #555555; stroke: #555555; stroke-width: 0.8"/>
      </g>
     </g>
     <g id="text_15">
      <!-- −0.3 -->
      <g style="fill: #555555" transform="translate(31.089188 345.046586) scale(0.1 -0.1)">
       <defs>
        <path id="DejaVuSans-33" d="M 2597 2516 
Q 3050 2419 3304 2112 
Q 3559 1806 3559 1356 
Q 3559 666 3084 287 
Q 2609 -91 1734 -91 
Q 1441 -91 1130 -33 
Q 819 25 488 141 
L 488 750 
Q 750 597 1062 519 
Q 1375 441 1716 441 
Q 2309 441 2620 675 
Q 2931 909 2931 1356 
Q 2931 1769 2642 2001 
Q 2353 2234 1838 2234 
L 1294 2234 
L 1294 2753 
L 1863 2753 
Q 2328 2753 2575 2939 
Q 2822 3125 2822 3475 
Q 2822 3834 2567 4026 
Q 2313 4219 1838 4219 
Q 1578 4219 1281 4162 
Q 984 4106 628 3988 
L 628 4550 
Q 988 4650 1302 4700 
Q 1616 4750 1894 4750 
Q 2613 4750 3031 4423 
Q 3450 4097 3450 3541 
Q 3450 3153 3228 2886 
Q 3006 2619 2597 2516 
z
" transform="scale(0.015625)"/>
       </defs>
       <use xlink:href="#DejaVuSans-2212"/>
       <use xlink:href="#DejaVuSans-30" x="83.789062"/>
       <use xlink:href="#DejaVuSans-2e" x="147.412109"/>
       <use xlink:href="#DejaVuSans-33" x="179.199219"/>
      </g>
     </g>
    </g>
    <g id="ytick_14">
     <g id="line2d_49">
      <path d="M 62.372 315.450388 
L 246.711592 315.450388 
" clip-path="url(#p6ca1dcf94a)" style="fill: none; stroke: #ffffff; stroke-width: 0.8; stroke-linecap: square"/>
     </g>
     <g id="line2d_50">
      <g>
       <use xlink:href="#m0ddd13d9c7" x="62.372" y="315.450388" style="fill: #555555; stroke: #555555; stroke-width: 0.8"/>
      </g>
     </g>
     <g id="text_16">
      <!-- −0.2 -->
      <g style="fill: #555555" transform="translate(31.089188 319.249607) scale(0.1 -0.1)">
       <use xlink:href="#DejaVuSans-2212"/>
       <use xlink:href="#DejaVuSans-30" x="83.789062"/>
       <use xlink:href="#DejaVuSans-2e" x="147.412109"/>
       <use xlink:href="#DejaVuSans-32" x="179.199219"/>
      </g>
     </g>
    </g>
    <g id="ytick_15">
     <g id="line2d_51">
      <path d="M 62.372 289.65341 
L 246.711592 289.65341 
" clip-path="url(#p6ca1dcf94a)" style="fill: none; stroke: #ffffff; stroke-width: 0.8; stroke-linecap: square"/>
     </g>
     <g id="line2d_52">
      <g>
       <use xlink:href="#m0ddd13d9c7" x="62.372" y="289.65341" style="fill: #555555; stroke: #555555; stroke-width: 0.8"/>
      </g>
     </g>
     <g id="text_17">
      <!-- −0.1 -->
      <g style="fill: #555555" transform="translate(31.089188 293.452628) scale(0.1 -0.1)">
       <use xlink:href="#DejaVuSans-2212"/>
       <use xlink:href="#DejaVuSans-30" x="83.789062"/>
       <use xlink:href="#DejaVuSans-2e" x="147.412109"/>
       <use xlink:href="#DejaVuSans-31" x="179.199219"/>
      </g>
     </g>
    </g>
    <g id="ytick_16">
     <g id="line2d_53">
      <path d="M 62.372 263.856431 
L 246.711592 263.856431 
" clip-path="url(#p6ca1dcf94a)" style="fill: none; stroke: #ffffff; stroke-width: 0.8; stroke-linecap: square"/>
     </g>
     <g id="line2d_54">
      <g>
       <use xlink:href="#m0ddd13d9c7" x="62.372" y="263.856431" style="fill: #555555; stroke: #555555; stroke-width: 0.8"/>
      </g>
     </g>
     <g id="text_18">
      <!-- 0.0 -->
      <g style="fill: #555555" transform="translate(39.468875 267.65565) scale(0.1 -0.1)">
       <use xlink:href="#DejaVuSans-30"/>
       <use xlink:href="#DejaVuSans-2e" x="63.623047"/>
       <use xlink:href="#DejaVuSans-30" x="95.410156"/>
      </g>
     </g>
    </g>
    <g id="ytick_17">
     <g id="line2d_55">
      <path d="M 62.372 238.059452 
L 246.711592 238.059452 
" clip-path="url(#p6ca1dcf94a)" style="fill: none; stroke: #ffffff; stroke-width: 0.8; stroke-linecap: square"/>
     </g>
     <g id="line2d_56">
      <g>
       <use xlink:href="#m0ddd13d9c7" x="62.372" y="238.059452" style="fill: #555555; stroke: #555555; stroke-width: 0.8"/>
      </g>
     </g>
     <g id="text_19">
      <!-- 0.1 -->
      <g style="fill: #555555" transform="translate(39.468875 241.858671) scale(0.1 -0.1)">
       <use xlink:href="#DejaVuSans-30"/>
       <use xlink:href="#DejaVuSans-2e" x="63.623047"/>
       <use xlink:href="#DejaVuSans-31" x="95.410156"/>
      </g>
     </g>
    </g>
    <g id="ytick_18">
     <g id="line2d_57">
      <path d="M 62.372 212.262474 
L 246.711592 212.262474 
" clip-path="url(#p6ca1dcf94a)" style="fill: none; stroke: #ffffff; stroke-width: 0.8; stroke-linecap: square"/>
     </g>
     <g id="line2d_58">
      <g>
       <use xlink:href="#m0ddd13d9c7" x="62.372" y="212.262474" style="fill: #555555; stroke: #555555; stroke-width: 0.8"/>
      </g>
     </g>
     <g id="text_20">
      <!-- 0.2 -->
      <g style="fill: #555555" transform="translate(39.468875 216.061692) scale(0.1 -0.1)">
       <use xlink:href="#DejaVuSans-30"/>
       <use xlink:href="#DejaVuSans-2e" x="63.623047"/>
       <use xlink:href="#DejaVuSans-32" x="95.410156"/>
      </g>
     </g>
    </g>
    <g id="text_21">
     <!-- $F_y(t)$ -->
     <g style="fill: #555555" transform="translate(23.369188 284.33375) rotate(-90) scale(0.12 -0.12)">
      <defs>
       <path id="DejaVuSans-Oblique-79" d="M 1588 -325 
Q 1188 -997 936 -1164 
Q 684 -1331 294 -1331 
L -159 -1331 
L -63 -850 
L 269 -850 
Q 509 -850 678 -719 
Q 847 -588 1056 -206 
L 1234 128 
L 459 3500 
L 1069 3500 
L 1650 819 
L 3256 3500 
L 3859 3500 
L 1588 -325 
z
" transform="scale(0.015625)"/>
      </defs>
      <use xlink:href="#DejaVuSans-Oblique-46" transform="translate(0 0.125)"/>
      <use xlink:href="#DejaVuSans-Oblique-79" transform="translate(57.519531 -16.28125) scale(0.7)"/>
      <use xlink:href="#DejaVuSans-28" transform="translate(101.679688 0.125)"/>
      <use xlink:href="#DejaVuSans-Oblique-74" transform="translate(140.693359 0.125)"/>
      <use xlink:href="#DejaVuSans-29" transform="translate(179.902344 0.125)"/>
     </g>
    </g>
   </g>
   <g id="line2d_59">
    <path d="M 70.751072 263.856431 
L 91.970801 263.745658 
L 94.872644 263.653121 
L 96.323566 263.828045 
L 97.774487 264.224716 
L 100.132235 265.169612 
L 101.583157 265.62026 
L 102.489983 265.658026 
L 103.215444 265.465412 
L 103.940904 265.019853 
L 104.666365 264.284471 
L 105.391826 263.24473 
L 106.298652 261.546099 
L 107.749574 258.2374 
L 109.01913 255.497132 
L 109.744591 254.418439 
L 110.288686 254.01302 
L 110.651417 253.986831 
L 111.014147 254.185709 
L 111.376878 254.632138 
L 111.920973 255.80569 
L 112.465069 257.619964 
L 113.19053 261.052131 
L 114.097356 266.847773 
L 115.366912 276.919198 
L 116.999199 289.758102 
L 117.72466 293.853692 
L 118.268755 295.734994 
L 118.631486 296.291013 
L 118.812851 296.336695 
L 118.994216 296.218728 
L 119.356947 295.469872 
L 119.719677 294.008645 
L 120.263773 290.438323 
L 120.807868 285.215943 
L 121.533329 275.84137 
L 122.440155 260.938189 
L 125.341998 209.566035 
L 126.067459 201.836161 
L 126.430189 199.490095 
L 126.79292 198.288114 
L 126.974285 198.139475 
L 127.15565 198.301826 
L 127.337015 198.780223 
L 127.699746 200.696908 
L 128.062476 203.895491 
L 128.606572 211.039193 
L 129.332033 224.595589 
L 130.238859 246.737021 
L 133.322067 328.420427 
L 134.047528 340.004055 
L 134.591624 345.10133 
L 134.954354 346.635834 
L 135.135719 346.82822 
L 135.317084 346.635245 
L 135.49845 346.057971 
L 135.86118 343.765329 
L 136.22391 340.000632 
L 136.768006 331.782198 
L 137.493467 316.686103 
L 138.581658 287.92835 
L 140.75804 228.613896 
L 141.483501 214.01347 
L 142.208962 203.892559 
L 142.753058 199.576572 
L 143.115788 198.301338 
L 143.297153 198.139466 
L 143.478518 198.288576 
L 143.841249 199.491463 
L 144.203979 201.83837 
L 144.748075 207.293141 
L 145.473536 217.543022 
L 146.561727 236.978606 
L 148.556744 273.115013 
L 149.46357 285.219016 
L 150.189031 291.815486 
L 150.733127 294.831121 
L 151.095857 295.931995 
L 151.458587 296.336748 
L 151.639953 296.290821 
L 152.002683 295.734343 
L 152.365413 294.608333 
L 152.909509 291.99988 
L 153.63497 287.19989 
L 155.085891 275.401678 
L 156.355448 265.567589 
L 157.262274 260.086 
L 157.987735 256.941576 
L 158.53183 255.34421 
L 159.075926 254.376369 
L 159.438656 254.056503 
L 159.801387 253.973338 
L 160.164117 254.10287 
L 160.708213 254.637903 
L 161.433673 255.839794 
L 162.521865 258.238053 
L 164.335517 262.274365 
L 165.242343 263.80283 
L 165.967804 264.69021 
L 166.693264 265.277142 
L 167.418725 265.590481 
L 168.144186 265.674888 
L 169.051012 265.54072 
L 170.320568 265.096369 
L 173.222412 263.999205 
L 174.673333 263.713705 
L 176.30562 263.640199 
L 179.751559 263.825921 
L 183.560228 263.85651 
L 238.332519 263.856431 
L 238.332519 263.856431 
" clip-path="url(#p6ca1dcf94a)" style="fill: none; stroke: #000000; stroke-width: 1.5; stroke-linecap: square"/>
   </g>
   <g id="line2d_60">
    <path d="M 70.751072 263.913984 
L 75.647933 263.817033 
L 78.912506 263.522103 
L 83.265271 263.082308 
L 84.534828 263.142038 
L 85.985749 263.445107 
L 86.892575 263.799756 
L 87.799401 264.294382 
L 88.887593 265.060656 
L 91.426705 267.355455 
L 92.696262 268.397316 
L 93.603088 268.898984 
L 94.509914 269.058687 
L 95.235375 268.900369 
L 96.142201 268.152035 
L 97.230392 266.358344 
L 98.137218 264.169531 
L 99.406774 260.066688 
L 100.676331 255.187558 
L 102.489983 248.243428 
L 103.578174 245.359839 
L 104.303635 244.234204 
L 105.210461 244.379165 
L 106.117287 246.41206 
L 107.205478 251.723907 
L 108.112304 258.23692 
L 109.38186 270.152037 
L 112.646434 302.498885 
L 113.371895 306.997564 
L 114.278721 309.267914 
L 115.004182 307.990076 
L 115.185547 307.434973 
L 116.092373 301.153317 
L 117.180564 287.695871 
L 118.268755 269.446301 
L 121.533329 209.563136 
L 122.440155 199.586005 
L 123.346981 195.55928 
L 124.072442 197.425014 
L 124.253807 198.334586 
L 125.160633 208.022716 
L 126.248824 228.00459 
L 127.699746 263.060163 
L 129.694763 311.348691 
L 130.782954 328.44883 
L 131.508415 334.95857 
L 132.233876 335.587101 
L 132.415241 335.140565 
L 133.322067 327.170614 
L 134.410258 308.013773 
L 135.679815 277.894236 
L 137.493467 234.176787 
L 138.037562 223.809974 
L 138.763023 212.912632 
L 139.669849 206.373376 
L 140.39531 206.877882 
L 140.576675 207.615812 
L 141.483501 216.090906 
L 142.571692 233.740056 
L 145.29217 284.853283 
L 146.017631 294.467227 
L 146.924457 301.007726 
L 147.649918 301.78173 
L 147.831283 301.448478 
L 148.738109 296.268102 
L 149.826301 284.421808 
L 152.365413 252.296161 
L 153.272239 245.058846 
L 154.179065 241.866548 
L 154.904526 242.308432 
L 155.085891 242.776924 
L 155.992717 247.134767 
L 157.443639 258.237145 
L 158.713195 267.971777 
L 159.620021 272.995053 
L 160.526847 275.564712 
L 161.252308 275.748006 
L 161.433673 275.54618 
L 162.340499 273.313806 
L 163.791421 267.06739 
L 165.060978 261.570793 
L 165.967804 258.840052 
L 166.87463 257.594365 
L 167.60009 257.688558 
L 167.962821 258.137525 
L 168.688282 259.340741 
L 171.590125 266.00022 
L 172.315586 266.898912 
L 173.222412 267.159004 
L 174.129238 266.617743 
L 175.398794 265.015857 
L 176.849716 263.107307 
L 177.756542 262.350767 
L 178.663368 262.099668 
L 179.570194 262.3294 
L 181.021115 263.329928 
L 182.472037 264.347518 
L 183.378863 264.712052 
L 184.285689 264.78444 
L 185.37388 264.530722 
L 187.368897 263.697125 
L 188.275723 263.429433 
L 189.001184 263.339879 
L 189.90801 263.37418 
L 191.177567 263.626997 
L 193.535314 264.125741 
L 194.804871 264.157396 
L 196.981253 263.864506 
L 198.97627 263.673264 
L 200.608557 263.731685 
L 204.417226 263.969731 
L 207.31907 263.828933 
L 209.858182 263.797007 
L 217.294156 263.84775 
L 222.916477 263.862666 
L 238.332519 263.852564 
L 238.332519 263.852564 
" clip-path="url(#p6ca1dcf94a)" style="fill: none; stroke: #e24a33; stroke-width: 1.5; stroke-linecap: square"/>
   </g>
   <g id="patch_13">
    <path d="M 62.372 354.391667 
L 62.372 187.995833 
" style="fill: none; stroke: #ffffff; stroke-linejoin: miter; stroke-linecap: square"/>
   </g>
   <g id="patch_14">
    <path d="M 246.711592 354.391667 
L 246.711592 187.995833 
" style="fill: none; stroke: #ffffff; stroke-linejoin: miter; stroke-linecap: square"/>
   </g>
   <g id="patch_15">
    <path d="M 62.372 354.391667 
L 246.711592 354.391667 
" style="fill: none; stroke: #ffffff; stroke-linejoin: miter; stroke-linecap: square"/>
   </g>
   <g id="patch_16">
    <path d="M 62.372 187.995833 
L 246.711592 187.995833 
" style="fill: none; stroke: #ffffff; stroke-linejoin: miter; stroke-linecap: square"/>
   </g>
  </g>
  <g id="axes_4">
   <g id="patch_17">
    <path d="M 263.462408 354.391667 
L 447.802 354.391667 
L 447.802 187.995833 
L 263.462408 187.995833 
z
" style="fill: #e5e5e5"/>
   </g>
   <g id="matplotlib.axis_7">
    <g id="xtick_19">
     <g id="line2d_61">
      <path d="M 268.263545 354.391667 
L 268.263545 187.995833 
" clip-path="url(#pac9f2ef898)" style="fill: none; stroke: #ffffff; stroke-width: 0.8; stroke-linecap: square"/>
     </g>
    </g>
    <g id="xtick_20">
     <g id="line2d_62">
      <path d="M 302.244767 354.391667 
L 302.244767 187.995833 
" clip-path="url(#pac9f2ef898)" style="fill: none; stroke: #ffffff; stroke-width: 0.8; stroke-linecap: square"/>
     </g>
    </g>
    <g id="xtick_21">
     <g id="line2d_63">
      <path d="M 336.225989 354.391667 
L 336.225989 187.995833 
" clip-path="url(#pac9f2ef898)" style="fill: none; stroke: #ffffff; stroke-width: 0.8; stroke-linecap: square"/>
     </g>
    </g>
    <g id="xtick_22">
     <g id="line2d_64">
      <path d="M 370.207211 354.391667 
L 370.207211 187.995833 
" clip-path="url(#pac9f2ef898)" style="fill: none; stroke: #ffffff; stroke-width: 0.8; stroke-linecap: square"/>
     </g>
    </g>
    <g id="xtick_23">
     <g id="line2d_65">
      <path d="M 404.188432 354.391667 
L 404.188432 187.995833 
" clip-path="url(#pac9f2ef898)" style="fill: none; stroke: #ffffff; stroke-width: 0.8; stroke-linecap: square"/>
     </g>
    </g>
    <g id="xtick_24">
     <g id="line2d_66">
      <path d="M 438.169654 354.391667 
L 438.169654 187.995833 
" clip-path="url(#pac9f2ef898)" style="fill: none; stroke: #ffffff; stroke-width: 0.8; stroke-linecap: square"/>
     </g>
    </g>
   </g>
   <g id="matplotlib.axis_8">
    <g id="ytick_19">
     <g id="line2d_67">
      <path d="M 263.462408 328.594948 
L 447.802 328.594948 
" clip-path="url(#pac9f2ef898)" style="fill: none; stroke: #ffffff; stroke-width: 0.8; stroke-linecap: square"/>
     </g>
     <g id="line2d_68">
      <g>
       <use xlink:href="#md438bbb755" x="447.802" y="328.594948" style="fill: #555555; stroke: #555555; stroke-width: 0.8"/>
      </g>
     </g>
     <g id="text_22">
      <!-- −4 -->
      <g style="fill: #555555" transform="translate(454.802 332.394167) scale(0.1 -0.1)">
       <defs>
        <path id="DejaVuSans-34" d="M 2419 4116 
L 825 1625 
L 2419 1625 
L 2419 4116 
z
M 2253 4666 
L 3047 4666 
L 3047 1625 
L 3713 1625 
L 3713 1100 
L 3047 1100 
L 3047 0 
L 2419 0 
L 2419 1100 
L 313 1100 
L 313 1709 
L 2253 4666 
z
" transform="scale(0.015625)"/>
       </defs>
       <use xlink:href="#DejaVuSans-2212"/>
       <use xlink:href="#DejaVuSans-34" x="83.789062"/>
      </g>
     </g>
    </g>
    <g id="ytick_20">
     <g id="line2d_69">
      <path d="M 263.462408 299.894302 
L 447.802 299.894302 
" clip-path="url(#pac9f2ef898)" style="fill: none; stroke: #ffffff; stroke-width: 0.8; stroke-linecap: square"/>
     </g>
     <g id="line2d_70">
      <g>
       <use xlink:href="#md438bbb755" x="447.802" y="299.894302" style="fill: #555555; stroke: #555555; stroke-width: 0.8"/>
      </g>
     </g>
     <g id="text_23">
      <!-- −2 -->
      <g style="fill: #555555" transform="translate(454.802 303.69352) scale(0.1 -0.1)">
       <use xlink:href="#DejaVuSans-2212"/>
       <use xlink:href="#DejaVuSans-32" x="83.789062"/>
      </g>
     </g>
    </g>
    <g id="ytick_21">
     <g id="line2d_71">
      <path d="M 263.462408 271.193655 
L 447.802 271.193655 
" clip-path="url(#pac9f2ef898)" style="fill: none; stroke: #ffffff; stroke-width: 0.8; stroke-linecap: square"/>
     </g>
     <g id="line2d_72">
      <g>
       <use xlink:href="#md438bbb755" x="447.802" y="271.193655" style="fill: #555555; stroke: #555555; stroke-width: 0.8"/>
      </g>
     </g>
     <g id="text_24">
      <!-- 0 -->
      <g style="fill: #555555" transform="translate(454.802 274.992874) scale(0.1 -0.1)">
       <use xlink:href="#DejaVuSans-30"/>
      </g>
     </g>
    </g>
    <g id="ytick_22">
     <g id="line2d_73">
      <path d="M 263.462408 242.493009 
L 447.802 242.493009 
" clip-path="url(#pac9f2ef898)" style="fill: none; stroke: #ffffff; stroke-width: 0.8; stroke-linecap: square"/>
     </g>
     <g id="line2d_74">
      <g>
       <use xlink:href="#md438bbb755" x="447.802" y="242.493009" style="fill: #555555; stroke: #555555; stroke-width: 0.8"/>
      </g>
     </g>
     <g id="text_25">
      <!-- 2 -->
      <g style="fill: #555555" transform="translate(454.802 246.292228) scale(0.1 -0.1)">
       <use xlink:href="#DejaVuSans-32"/>
      </g>
     </g>
    </g>
    <g id="ytick_23">
     <g id="line2d_75">
      <path d="M 263.462408 213.792362 
L 447.802 213.792362 
" clip-path="url(#pac9f2ef898)" style="fill: none; stroke: #ffffff; stroke-width: 0.8; stroke-linecap: square"/>
     </g>
     <g id="line2d_76">
      <g>
       <use xlink:href="#md438bbb755" x="447.802" y="213.792362" style="fill: #555555; stroke: #555555; stroke-width: 0.8"/>
      </g>
     </g>
     <g id="text_26">
      <!-- 4 -->
      <g style="fill: #555555" transform="translate(454.802 217.591581) scale(0.1 -0.1)">
       <use xlink:href="#DejaVuSans-34"/>
      </g>
     </g>
    </g>
    <g id="text_27">
     <!-- $A_y(t)$ -->
     <g style="fill: #555555" transform="translate(482.664188 284.99375) rotate(-90) scale(0.12 -0.12)">
      <use xlink:href="#DejaVuSans-Oblique-41" transform="translate(0 0.125)"/>
      <use xlink:href="#DejaVuSans-Oblique-79" transform="translate(68.408203 -16.28125) scale(0.7)"/>
      <use xlink:href="#DejaVuSans-28" transform="translate(112.568359 0.125)"/>
      <use xlink:href="#DejaVuSans-Oblique-74" transform="translate(151.582031 0.125)"/>
      <use xlink:href="#DejaVuSans-29" transform="translate(190.791016 0.125)"/>
     </g>
    </g>
   </g>
   <g id="line2d_77">
    <path d="M 271.841481 271.193655 
L 294.330766 271.296675 
L 298.3208 271.455461 
L 299.771722 271.239887 
L 301.041278 270.820903 
L 302.4922 270.08129 
L 305.212678 268.584412 
L 305.938139 268.430348 
L 306.6636 268.512817 
L 307.207695 268.773584 
L 307.751791 269.234942 
L 308.477252 270.196872 
L 309.202712 271.575734 
L 310.109538 273.860658 
L 311.379095 277.836952 
L 313.011382 283.012663 
L 313.736843 284.697999 
L 314.280938 285.47099 
L 314.643669 285.687028 
L 315.006399 285.625574 
L 315.369129 285.257359 
L 315.73186 284.557243 
L 316.275955 282.842735 
L 316.820051 280.297606 
L 317.545512 275.614275 
L 318.452338 267.877685 
L 319.721894 254.637922 
L 321.354181 237.674874 
L 322.079642 231.989183 
L 322.623737 229.090586 
L 322.986468 227.957491 
L 323.349198 227.543183 
L 323.530563 227.62341 
L 323.711929 227.903138 
L 324.074659 229.079492 
L 324.437389 231.099279 
L 324.981485 235.728403 
L 325.525581 242.234064 
L 326.251041 253.580041 
L 327.339233 275.037526 
L 329.878346 328.041538 
L 330.603806 338.567034 
L 331.147902 343.854325 
L 331.510632 345.952774 
L 331.873363 346.82822 
L 332.054728 346.792687 
L 332.236093 346.436953 
L 332.598824 344.760451 
L 332.961554 341.806265 
L 333.50565 335.060639 
L 334.23111 322.126415 
L 335.137936 300.899027 
L 338.583875 213.265094 
L 339.309336 202.524486 
L 339.853432 197.625086 
L 340.216162 195.949568 
L 340.397527 195.594325 
L 340.578892 195.55928 
L 340.760258 195.841302 
L 341.122988 197.336172 
L 341.485718 200.023132 
L 342.029814 206.111118 
L 342.755275 217.502232 
L 343.843466 239.408709 
L 346.201214 288.812133 
L 347.10804 302.527409 
L 347.833501 309.960103 
L 348.377596 313.309038 
L 348.740327 314.484756 
L 349.103057 314.8441 
L 349.284422 314.730261 
L 349.647153 313.948316 
L 350.009883 312.479762 
L 350.553979 309.148705 
L 351.279439 303.035312 
L 352.548996 289.739103 
L 354.181283 272.812391 
L 355.088109 265.465813 
L 355.813569 261.146675 
L 356.357665 258.88111 
L 356.901761 257.436606 
L 357.264491 256.905538 
L 357.627221 256.694363 
L 357.989952 256.775743 
L 358.352682 257.118735 
L 358.896778 258.049984 
L 359.622239 259.884031 
L 360.891795 263.945705 
L 362.524082 269.030046 
L 363.430908 271.19595 
L 364.156369 272.470032 
L 364.88183 273.33013 
L 365.60729 273.808418 
L 366.332751 273.96144 
L 367.058212 273.859416 
L 367.965038 273.486319 
L 369.960055 272.305858 
L 371.410977 271.566291 
L 372.680533 271.147357 
L 373.95009 270.945422 
L 375.582376 270.922733 
L 384.106541 271.193702 
L 439.422928 271.193655 
L 439.422928 271.193655 
" clip-path="url(#pac9f2ef898)" style="fill: none; stroke: #000000; stroke-width: 1.5; stroke-linecap: square"/>
   </g>
   <g id="line2d_78">
    <path d="M 271.841481 271.121029 
L 278.189263 271.106991 
L 280.728376 271.344221 
L 283.086123 271.800236 
L 287.620253 272.79278 
L 288.708445 272.777431 
L 289.796636 272.525421 
L 290.703462 272.08431 
L 291.610288 271.399612 
L 292.517114 270.456076 
L 293.605305 268.993713 
L 295.056227 266.61445 
L 297.413974 262.705513 
L 298.3208 261.686099 
L 298.864896 261.338048 
L 299.408992 261.233742 
L 299.953087 261.423438 
L 300.497183 261.942953 
L 301.041278 262.821851 
L 301.585374 264.088457 
L 302.310835 266.395451 
L 303.217661 270.265407 
L 304.305852 276.193972 
L 305.938139 286.718241 
L 307.570426 296.839869 
L 308.477252 301.02345 
L 309.021347 302.698125 
L 309.384078 303.387874 
L 309.746808 303.690165 
L 310.109538 303.592589 
L 310.472269 303.046549 
L 310.834999 302.046913 
L 311.379095 299.657894 
L 311.92319 296.182633 
L 312.648651 289.898335 
L 313.555477 279.626199 
L 314.825034 261.87648 
L 317.364147 225.259908 
L 318.089607 217.639434 
L 318.633703 213.511502 
L 319.177799 210.977886 
L 319.540529 210.291775 
L 319.721894 210.259342 
L 319.903259 210.434574 
L 320.26599 211.441719 
L 320.62872 213.334098 
L 321.172816 217.810989 
L 321.716911 224.206651 
L 322.442372 235.4263 
L 323.530563 256.924831 
L 326.795137 326.017847 
L 327.520598 335.738748 
L 328.064693 340.457199 
L 328.427424 342.260785 
L 328.790154 342.927137 
L 328.971519 342.833723 
L 329.152885 342.454277 
L 329.515615 340.835853 
L 329.878346 338.073235 
L 330.422441 331.948702 
L 331.147902 320.373603 
L 332.054728 301.667727 
L 335.319302 229.140123 
L 336.044762 219.289095 
L 336.588858 214.59565 
L 336.951588 212.872623 
L 337.314319 212.276537 
L 337.495684 212.399648 
L 337.677049 212.803441 
L 338.03978 214.450183 
L 338.583875 218.81865 
L 339.127971 225.312906 
L 339.853432 236.545317 
L 341.304353 263.819876 
L 342.755275 289.679048 
L 343.480736 299.360863 
L 344.024831 304.58422 
L 344.568927 307.867094 
L 344.931657 308.936215 
L 345.113022 309.132119 
L 345.294388 309.104301 
L 345.475753 308.868723 
L 345.838483 307.784425 
L 346.201214 305.887442 
L 346.745309 301.788952 
L 347.47077 294.356354 
L 348.740327 278.598558 
L 350.009883 263.541759 
L 350.735344 256.948917 
L 351.279439 253.380473 
L 351.823535 251.125758 
L 352.186265 250.373408 
L 352.367631 250.223816 
L 352.548996 250.22308 
L 352.911726 250.622891 
L 353.274457 251.550922 
L 353.818552 253.814801 
L 354.544013 258.096773 
L 355.994935 268.579994 
L 357.083126 275.726939 
L 357.808587 279.191656 
L 358.352682 280.91293 
L 358.715413 281.602652 
L 359.078143 281.93248 
L 359.440873 281.919182 
L 359.803604 281.566324 
L 360.347699 280.516958 
L 361.07316 278.305821 
L 362.342717 273.363871 
L 363.430908 269.368893 
L 364.156369 267.403245 
L 364.700464 266.421317 
L 365.24456 265.907862 
L 365.60729 265.815278 
L 365.970021 265.916496 
L 366.514116 266.389439 
L 367.058212 267.180866 
L 367.965038 268.93526 
L 369.597325 272.17174 
L 370.322786 273.17307 
L 370.866881 273.642568 
L 371.410977 273.854429 
L 371.955072 273.821075 
L 372.499168 273.568379 
L 373.224629 272.98029 
L 376.126472 270.184346 
L 376.851933 269.899726 
L 377.577394 269.861077 
L 378.302855 270.040726 
L 379.391046 270.577821 
L 381.386063 271.623422 
L 382.292889 271.850763 
L 383.199715 271.864358 
L 384.287906 271.650404 
L 387.371115 270.855993 
L 388.640671 270.843838 
L 390.454323 271.110169 
L 392.44934 271.377458 
L 394.081627 271.364945 
L 399.159853 271.092045 
L 404.419444 271.23826 
L 409.497669 271.163594 
L 415.482721 271.19088 
L 423.46279 271.198422 
L 439.422928 271.184966 
L 439.422928 271.184966 
" clip-path="url(#pac9f2ef898)" style="fill: none; stroke: #e24a33; stroke-width: 1.5; stroke-linecap: square"/>
   </g>
   <g id="patch_18">
    <path d="M 263.462408 354.391667 
L 263.462408 187.995833 
" style="fill: none; stroke: #ffffff; stroke-linejoin: miter; stroke-linecap: square"/>
   </g>
   <g id="patch_19">
    <path d="M 447.802 354.391667 
L 447.802 187.995833 
" style="fill: none; stroke: #ffffff; stroke-linejoin: miter; stroke-linecap: square"/>
   </g>
   <g id="patch_20">
    <path d="M 263.462408 354.391667 
L 447.802 354.391667 
" style="fill: none; stroke: #ffffff; stroke-linejoin: miter; stroke-linecap: square"/>
   </g>
   <g id="patch_21">
    <path d="M 263.462408 187.995833 
L 447.802 187.995833 
" style="fill: none; stroke: #ffffff; stroke-linejoin: miter; stroke-linecap: square"/>
   </g>
  </g>
  <g id="axes_5">
   <g id="patch_22">
    <path d="M 62.372 531.5875 
L 246.711592 531.5875 
L 246.711592 365.191667 
L 62.372 365.191667 
z
" style="fill: #e5e5e5"/>
   </g>
   <g id="matplotlib.axis_9">
    <g id="xtick_25">
     <g id="line2d_79">
      <path d="M 67.173137 531.5875 
L 67.173137 365.191667 
" clip-path="url(#p9b61d40324)" style="fill: none; stroke: #ffffff; stroke-width: 0.8; stroke-linecap: square"/>
     </g>
     <g id="line2d_80">
      <defs>
       <path id="mb2895cb9f6" d="M 0 0 
L 0 3.5 
" style="stroke: #555555; stroke-width: 0.8"/>
      </defs>
      <g>
       <use xlink:href="#mb2895cb9f6" x="67.173137" y="531.5875" style="fill: #555555; stroke: #555555; stroke-width: 0.8"/>
      </g>
     </g>
     <g id="text_28">
      <!-- −10 -->
      <g style="fill: #555555" transform="translate(56.620793 546.185938) scale(0.1 -0.1)">
       <use xlink:href="#DejaVuSans-2212"/>
       <use xlink:href="#DejaVuSans-31" x="83.789062"/>
       <use xlink:href="#DejaVuSans-30" x="147.412109"/>
      </g>
     </g>
    </g>
    <g id="xtick_26">
     <g id="line2d_81">
      <path d="M 101.154359 531.5875 
L 101.154359 365.191667 
" clip-path="url(#p9b61d40324)" style="fill: none; stroke: #ffffff; stroke-width: 0.8; stroke-linecap: square"/>
     </g>
     <g id="line2d_82">
      <g>
       <use xlink:href="#mb2895cb9f6" x="101.154359" y="531.5875" style="fill: #555555; stroke: #555555; stroke-width: 0.8"/>
      </g>
     </g>
     <g id="text_29">
      <!-- −5 -->
      <g style="fill: #555555" transform="translate(93.783265 546.185938) scale(0.1 -0.1)">
       <use xlink:href="#DejaVuSans-2212"/>
       <use xlink:href="#DejaVuSans-35" x="83.789062"/>
      </g>
     </g>
    </g>
    <g id="xtick_27">
     <g id="line2d_83">
      <path d="M 135.13558 531.5875 
L 135.13558 365.191667 
" clip-path="url(#p9b61d40324)" style="fill: none; stroke: #ffffff; stroke-width: 0.8; stroke-linecap: square"/>
     </g>
     <g id="line2d_84">
      <g>
       <use xlink:href="#mb2895cb9f6" x="135.13558" y="531.5875" style="fill: #555555; stroke: #555555; stroke-width: 0.8"/>
      </g>
     </g>
     <g id="text_30">
      <!-- 0 -->
      <g style="fill: #555555" transform="translate(131.95433 546.185938) scale(0.1 -0.1)">
       <use xlink:href="#DejaVuSans-30"/>
      </g>
     </g>
    </g>
    <g id="xtick_28">
     <g id="line2d_85">
      <path d="M 169.116802 531.5875 
L 169.116802 365.191667 
" clip-path="url(#p9b61d40324)" style="fill: none; stroke: #ffffff; stroke-width: 0.8; stroke-linecap: square"/>
     </g>
     <g id="line2d_86">
      <g>
       <use xlink:href="#mb2895cb9f6" x="169.116802" y="531.5875" style="fill: #555555; stroke: #555555; stroke-width: 0.8"/>
      </g>
     </g>
     <g id="text_31">
      <!-- 5 -->
      <g style="fill: #555555" transform="translate(165.935552 546.185938) scale(0.1 -0.1)">
       <use xlink:href="#DejaVuSans-35"/>
      </g>
     </g>
    </g>
    <g id="xtick_29">
     <g id="line2d_87">
      <path d="M 203.098024 531.5875 
L 203.098024 365.191667 
" clip-path="url(#p9b61d40324)" style="fill: none; stroke: #ffffff; stroke-width: 0.8; stroke-linecap: square"/>
     </g>
     <g id="line2d_88">
      <g>
       <use xlink:href="#mb2895cb9f6" x="203.098024" y="531.5875" style="fill: #555555; stroke: #555555; stroke-width: 0.8"/>
      </g>
     </g>
     <g id="text_32">
      <!-- 10 -->
      <g style="fill: #555555" transform="translate(196.735524 546.185938) scale(0.1 -0.1)">
       <use xlink:href="#DejaVuSans-31"/>
       <use xlink:href="#DejaVuSans-30" x="63.623047"/>
      </g>
     </g>
    </g>
    <g id="xtick_30">
     <g id="line2d_89">
      <path d="M 237.079246 531.5875 
L 237.079246 365.191667 
" clip-path="url(#p9b61d40324)" style="fill: none; stroke: #ffffff; stroke-width: 0.8; stroke-linecap: square"/>
     </g>
     <g id="line2d_90">
      <g>
       <use xlink:href="#mb2895cb9f6" x="237.079246" y="531.5875" style="fill: #555555; stroke: #555555; stroke-width: 0.8"/>
      </g>
     </g>
     <g id="text_33">
      <!-- 15 -->
      <g style="fill: #555555" transform="translate(230.716746 546.185938) scale(0.1 -0.1)">
       <use xlink:href="#DejaVuSans-31"/>
       <use xlink:href="#DejaVuSans-35" x="63.623047"/>
      </g>
     </g>
    </g>
    <g id="text_34">
     <!-- $t$ [fs] -->
     <g style="fill: #555555" transform="translate(140.321796 561.38375) scale(0.12 -0.12)">
      <defs>
       <path id="DejaVuSans-20" transform="scale(0.015625)"/>
       <path id="DejaVuSans-5b" d="M 550 4863 
L 1875 4863 
L 1875 4416 
L 1125 4416 
L 1125 -397 
L 1875 -397 
L 1875 -844 
L 550 -844 
L 550 4863 
z
" transform="scale(0.015625)"/>
       <path id="DejaVuSans-66" d="M 2375 4863 
L 2375 4384 
L 1825 4384 
Q 1516 4384 1395 4259 
Q 1275 4134 1275 3809 
L 1275 3500 
L 2222 3500 
L 2222 3053 
L 1275 3053 
L 1275 0 
L 697 0 
L 697 3053 
L 147 3053 
L 147 3500 
L 697 3500 
L 697 3744 
Q 697 4328 969 4595 
Q 1241 4863 1831 4863 
L 2375 4863 
z
" transform="scale(0.015625)"/>
       <path id="DejaVuSans-73" d="M 2834 3397 
L 2834 2853 
Q 2591 2978 2328 3040 
Q 2066 3103 1784 3103 
Q 1356 3103 1142 2972 
Q 928 2841 928 2578 
Q 928 2378 1081 2264 
Q 1234 2150 1697 2047 
L 1894 2003 
Q 2506 1872 2764 1633 
Q 3022 1394 3022 966 
Q 3022 478 2636 193 
Q 2250 -91 1575 -91 
Q 1294 -91 989 -36 
Q 684 19 347 128 
L 347 722 
Q 666 556 975 473 
Q 1284 391 1588 391 
Q 1994 391 2212 530 
Q 2431 669 2431 922 
Q 2431 1156 2273 1281 
Q 2116 1406 1581 1522 
L 1381 1569 
Q 847 1681 609 1914 
Q 372 2147 372 2553 
Q 372 3047 722 3315 
Q 1072 3584 1716 3584 
Q 2034 3584 2315 3537 
Q 2597 3491 2834 3397 
z
" transform="scale(0.015625)"/>
       <path id="DejaVuSans-5d" d="M 1947 4863 
L 1947 -844 
L 622 -844 
L 622 -397 
L 1369 -397 
L 1369 4416 
L 622 4416 
L 622 4863 
L 1947 4863 
z
" transform="scale(0.015625)"/>
      </defs>
      <use xlink:href="#DejaVuSans-Oblique-74" transform="translate(0 0.015625)"/>
      <use xlink:href="#DejaVuSans-20" transform="translate(39.208984 0.015625)"/>
      <use xlink:href="#DejaVuSans-5b" transform="translate(70.996094 0.015625)"/>
      <use xlink:href="#DejaVuSans-66" transform="translate(110.009766 0.015625)"/>
      <use xlink:href="#DejaVuSans-73" transform="translate(145.214844 0.015625)"/>
      <use xlink:href="#DejaVuSans-5d" transform="translate(197.314453 0.015625)"/>
     </g>
    </g>
   </g>
   <g id="matplotlib.axis_10">
    <g id="ytick_24">
     <g id="line2d_91">
      <path d="M 62.372 524.695983 
L 246.711592 524.695983 
" clip-path="url(#p9b61d40324)" style="fill: none; stroke: #ffffff; stroke-width: 0.8; stroke-linecap: square"/>
     </g>
     <g id="line2d_92">
      <g>
       <use xlink:href="#m0ddd13d9c7" x="62.372" y="524.695983" style="fill: #555555; stroke: #555555; stroke-width: 0.8"/>
      </g>
     </g>
     <g id="text_35">
      <!-- −0.4 -->
      <g style="fill: #555555" transform="translate(31.089188 528.495202) scale(0.1 -0.1)">
       <use xlink:href="#DejaVuSans-2212"/>
       <use xlink:href="#DejaVuSans-30" x="83.789062"/>
       <use xlink:href="#DejaVuSans-2e" x="147.412109"/>
       <use xlink:href="#DejaVuSans-34" x="179.199219"/>
      </g>
     </g>
    </g>
    <g id="ytick_25">
     <g id="line2d_93">
      <path d="M 62.372 490.931345 
L 246.711592 490.931345 
" clip-path="url(#p9b61d40324)" style="fill: none; stroke: #ffffff; stroke-width: 0.8; stroke-linecap: square"/>
     </g>
     <g id="line2d_94">
      <g>
       <use xlink:href="#m0ddd13d9c7" x="62.372" y="490.931345" style="fill: #555555; stroke: #555555; stroke-width: 0.8"/>
      </g>
     </g>
     <g id="text_36">
      <!-- −0.2 -->
      <g style="fill: #555555" transform="translate(31.089188 494.730564) scale(0.1 -0.1)">
       <use xlink:href="#DejaVuSans-2212"/>
       <use xlink:href="#DejaVuSans-30" x="83.789062"/>
       <use xlink:href="#DejaVuSans-2e" x="147.412109"/>
       <use xlink:href="#DejaVuSans-32" x="179.199219"/>
      </g>
     </g>
    </g>
    <g id="ytick_26">
     <g id="line2d_95">
      <path d="M 62.372 457.166706 
L 246.711592 457.166706 
" clip-path="url(#p9b61d40324)" style="fill: none; stroke: #ffffff; stroke-width: 0.8; stroke-linecap: square"/>
     </g>
     <g id="line2d_96">
      <g>
       <use xlink:href="#m0ddd13d9c7" x="62.372" y="457.166706" style="fill: #555555; stroke: #555555; stroke-width: 0.8"/>
      </g>
     </g>
     <g id="text_37">
      <!-- 0.0 -->
      <g style="fill: #555555" transform="translate(39.468875 460.965925) scale(0.1 -0.1)">
       <use xlink:href="#DejaVuSans-30"/>
       <use xlink:href="#DejaVuSans-2e" x="63.623047"/>
       <use xlink:href="#DejaVuSans-30" x="95.410156"/>
      </g>
     </g>
    </g>
    <g id="ytick_27">
     <g id="line2d_97">
      <path d="M 62.372 423.402068 
L 246.711592 423.402068 
" clip-path="url(#p9b61d40324)" style="fill: none; stroke: #ffffff; stroke-width: 0.8; stroke-linecap: square"/>
     </g>
     <g id="line2d_98">
      <g>
       <use xlink:href="#m0ddd13d9c7" x="62.372" y="423.402068" style="fill: #555555; stroke: #555555; stroke-width: 0.8"/>
      </g>
     </g>
     <g id="text_38">
      <!-- 0.2 -->
      <g style="fill: #555555" transform="translate(39.468875 427.201286) scale(0.1 -0.1)">
       <use xlink:href="#DejaVuSans-30"/>
       <use xlink:href="#DejaVuSans-2e" x="63.623047"/>
       <use xlink:href="#DejaVuSans-32" x="95.410156"/>
      </g>
     </g>
    </g>
    <g id="ytick_28">
     <g id="line2d_99">
      <path d="M 62.372 389.637429 
L 246.711592 389.637429 
" clip-path="url(#p9b61d40324)" style="fill: none; stroke: #ffffff; stroke-width: 0.8; stroke-linecap: square"/>
     </g>
     <g id="line2d_100">
      <g>
       <use xlink:href="#m0ddd13d9c7" x="62.372" y="389.637429" style="fill: #555555; stroke: #555555; stroke-width: 0.8"/>
      </g>
     </g>
     <g id="text_39">
      <!-- 0.4 -->
      <g style="fill: #555555" transform="translate(39.468875 393.436648) scale(0.1 -0.1)">
       <use xlink:href="#DejaVuSans-30"/>
       <use xlink:href="#DejaVuSans-2e" x="63.623047"/>
       <use xlink:href="#DejaVuSans-34" x="95.410156"/>
      </g>
     </g>
    </g>
    <g id="text_40">
     <!-- $F_z(t)$ -->
     <g style="fill: #555555" transform="translate(24.593563 461.289583) rotate(-90) scale(0.12 -0.12)">
      <defs>
       <path id="DejaVuSans-Oblique-7a" d="M 744 3500 
L 3475 3500 
L 3372 2975 
L 738 459 
L 2913 459 
L 2822 0 
L -19 0 
L 84 525 
L 2719 3041 
L 653 3041 
L 744 3500 
z
" transform="scale(0.015625)"/>
      </defs>
      <use xlink:href="#DejaVuSans-Oblique-46" transform="translate(0 0.125)"/>
      <use xlink:href="#DejaVuSans-Oblique-7a" transform="translate(57.519531 -16.28125) scale(0.7)"/>
      <use xlink:href="#DejaVuSans-28" transform="translate(96.99707 0.125)"/>
      <use xlink:href="#DejaVuSans-Oblique-74" transform="translate(136.010742 0.125)"/>
      <use xlink:href="#DejaVuSans-29" transform="translate(175.219727 0.125)"/>
     </g>
    </g>
   </g>
   <g id="line2d_101">
    <path d="M 70.751072 457.166706 
L 91.789436 457.267227 
L 94.872644 457.373544 
L 96.323566 457.195585 
L 97.774487 456.792031 
L 100.132235 455.830738 
L 101.401792 455.408903 
L 102.308618 455.319251 
L 103.034078 455.458523 
L 103.759539 455.843279 
L 104.485 456.515276 
L 105.210461 457.495854 
L 106.117287 459.139458 
L 107.386843 462.011985 
L 109.01913 465.671063 
L 109.744591 466.768475 
L 110.288686 467.180929 
L 110.651417 467.207573 
L 111.014147 467.005243 
L 111.376878 466.551068 
L 111.920973 465.357151 
L 112.465069 463.511394 
L 113.19053 460.019669 
L 114.097356 454.123456 
L 115.366912 443.877262 
L 116.999199 430.815566 
L 117.72466 426.648905 
L 118.268755 424.734957 
L 118.631486 424.169289 
L 118.812851 424.122815 
L 118.994216 424.242828 
L 119.356947 425.004679 
L 119.719677 426.491263 
L 120.263773 430.123541 
L 120.807868 435.436544 
L 121.533329 444.973794 
L 122.440155 460.135588 
L 125.341998 512.3992 
L 126.067459 520.26321 
L 126.430189 522.649986 
L 126.79292 523.872826 
L 126.974285 524.024044 
L 127.15565 523.858875 
L 127.337015 523.372177 
L 127.699746 521.422232 
L 128.062476 518.168144 
L 128.606572 510.900478 
L 129.332033 497.108839 
L 130.238859 474.583188 
L 133.322067 391.482336 
L 134.047528 379.697698 
L 134.591624 374.51197 
L 134.954354 372.950838 
L 135.135719 372.755114 
L 135.317084 372.951437 
L 135.49845 373.538728 
L 135.86118 375.871154 
L 136.22391 379.70118 
L 136.768006 388.062228 
L 137.493467 403.420284 
L 138.581658 432.677069 
L 140.75804 493.020803 
L 141.483501 507.874588 
L 142.208962 518.171127 
L 142.753058 522.56201 
L 143.115788 523.859372 
L 143.297153 524.024053 
L 143.478518 523.872356 
L 143.841249 522.648595 
L 144.203979 520.260962 
L 144.748075 514.711535 
L 145.473536 504.283789 
L 146.561727 484.51094 
L 148.556744 447.74746 
L 149.46357 435.433418 
L 150.189031 428.72248 
L 150.733127 425.654515 
L 151.095857 424.534537 
L 151.458587 424.12276 
L 151.639953 424.169484 
L 152.002683 424.735619 
L 152.365413 425.881169 
L 152.909509 428.534886 
L 153.63497 433.41817 
L 155.085891 445.421116 
L 156.355448 455.425855 
L 157.262274 461.002565 
L 157.987735 464.201554 
L 158.53183 465.82664 
L 159.075926 466.811275 
L 159.438656 467.136691 
L 159.801387 467.221299 
L 160.164117 467.08952 
L 160.708213 466.545203 
L 161.433673 465.322455 
L 162.521865 462.88258 
L 164.335517 458.776225 
L 165.242343 457.221238 
L 165.967804 456.318458 
L 166.693264 455.721342 
L 167.418725 455.402565 
L 168.144186 455.316694 
L 169.051012 455.45319 
L 170.320568 455.905252 
L 173.222412 457.021455 
L 174.673333 457.311909 
L 176.30562 457.38669 
L 179.751559 457.197745 
L 183.560228 457.166625 
L 238.332519 457.166706 
L 238.332519 457.166706 
" clip-path="url(#p9b61d40324)" style="fill: none; stroke: #000000; stroke-width: 1.5; stroke-linecap: square"/>
   </g>
   <g id="line2d_102">
    <path d="M 70.751072 457.166576 
L 99.044044 457.295008 
L 105.391826 457.495923 
L 107.568208 457.27874 
L 109.01913 456.958318 
L 111.014147 456.2633 
L 115.548277 454.476864 
L 116.455103 454.393283 
L 117.180564 454.472145 
L 118.08739 454.814186 
L 118.994216 455.460888 
L 119.901042 456.441567 
L 120.989233 458.073408 
L 122.077425 460.126424 
L 123.528346 463.291591 
L 125.341998 467.115045 
L 126.248824 468.517334 
L 126.974285 469.246702 
L 127.881111 469.355878 
L 128.787937 468.453702 
L 129.694763 466.400331 
L 130.782954 462.267691 
L 131.871145 456.573854 
L 133.140702 448.461838 
L 135.679815 431.778423 
L 136.22391 429.073598 
L 136.949371 426.279666 
L 137.856197 424.885685 
L 138.581658 425.669999 
L 138.763023 426.099526 
L 139.669849 430.199916 
L 140.75804 439.110479 
L 141.846232 451.524134 
L 143.297153 471.536008 
L 145.110805 496.393934 
L 146.198996 506.99529 
L 146.924457 511.493247 
L 147.649918 512.78723 
L 147.831283 512.642485 
L 148.556744 509.860017 
L 148.919475 506.950026 
L 149.644935 499.576361 
L 150.733127 482.423995 
L 152.184048 453.12316 
L 154.179065 412.30423 
L 155.267257 396.946485 
L 155.992717 390.627314 
L 156.718178 388.916895 
L 156.899543 389.216768 
L 157.625004 393.173019 
L 157.987735 397.207057 
L 158.713195 407.169409 
L 159.982752 433.398166 
L 163.247325 507.01698 
L 164.154151 518.233569 
L 164.879612 522.064282 
L 165.060978 522.147228 
L 165.786438 519.75389 
L 166.149169 516.255923 
L 166.87463 507.307781 
L 168.144186 482.545719 
L 170.864664 423.998997 
L 171.40876 415.442684 
L 172.315586 406.89012 
L 173.041046 405.041496 
L 173.222412 405.450166 
L 173.947872 409.304294 
L 174.491968 415.412745 
L 175.036064 422.530738 
L 176.66835 451.846231 
L 178.119272 476.83752 
L 178.844733 486.100671 
L 179.570194 492.326075 
L 180.295654 494.639084 
L 180.47702 494.446773 
L 181.202481 492.047243 
L 181.746576 487.574012 
L 182.290672 482.303664 
L 183.922959 460.426205 
L 185.192515 444.432257 
L 185.917976 437.488162 
L 186.824802 432.733809 
L 187.550263 432.060119 
L 187.912993 433.180817 
L 188.457089 435.251781 
L 189.182549 440.480063 
L 189.726645 445.187374 
L 192.084393 466.735296 
L 192.991219 471.746998 
L 193.353949 472.583576 
L 193.898045 473.578023 
L 194.07941 473.439362 
L 194.804871 472.207162 
L 195.530331 469.035453 
L 195.893062 467.150099 
L 198.61354 450.652557 
L 199.520366 447.611671 
L 200.245827 446.693206 
L 200.608557 447.021239 
L 201.152653 447.664501 
L 202.059479 450.421118 
L 203.691766 457.349617 
L 204.417226 460.094266 
L 204.961322 461.814013 
L 205.868148 463.472323 
L 206.593609 463.754542 
L 207.137704 463.150995 
L 207.6818 462.321891 
L 208.951356 459.062841 
L 210.402278 455.205157 
L 211.309104 453.615884 
L 212.034565 453.004296 
L 212.760026 453.195049 
L 212.941391 453.250919 
L 213.848217 454.358721 
L 216.75006 459.154862 
L 217.656886 459.753045 
L 218.563712 459.654829 
L 219.470538 458.970556 
L 222.372381 455.87992 
L 223.097842 455.531288 
L 224.004668 455.544377 
L 225.092859 456.098045 
L 227.994703 458.080829 
L 228.538798 458.236385 
L 229.445624 458.215926 
L 230.715181 457.740514 
L 233.254294 456.573758 
L 234.16112 456.448346 
L 235.067946 456.536116 
L 236.337502 456.915223 
L 238.332519 457.563188 
L 238.332519 457.563188 
" clip-path="url(#p9b61d40324)" style="fill: none; stroke: #e24a33; stroke-width: 1.5; stroke-linecap: square"/>
   </g>
   <g id="patch_23">
    <path d="M 62.372 531.5875 
L 62.372 365.191667 
" style="fill: none; stroke: #ffffff; stroke-linejoin: miter; stroke-linecap: square"/>
   </g>
   <g id="patch_24">
    <path d="M 246.711592 531.5875 
L 246.711592 365.191667 
" style="fill: none; stroke: #ffffff; stroke-linejoin: miter; stroke-linecap: square"/>
   </g>
   <g id="patch_25">
    <path d="M 62.372 531.5875 
L 246.711592 531.5875 
" style="fill: none; stroke: #ffffff; stroke-linejoin: miter; stroke-linecap: square"/>
   </g>
   <g id="patch_26">
    <path d="M 62.372 365.191667 
L 246.711592 365.191667 
" style="fill: none; stroke: #ffffff; stroke-linejoin: miter; stroke-linecap: square"/>
   </g>
  </g>
  <g id="axes_6">
   <g id="patch_27">
    <path d="M 263.462408 531.5875 
L 447.802 531.5875 
L 447.802 365.191667 
L 263.462408 365.191667 
z
" style="fill: #e5e5e5"/>
   </g>
   <g id="matplotlib.axis_11">
    <g id="xtick_31">
     <g id="line2d_103">
      <path d="M 268.263545 531.5875 
L 268.263545 365.191667 
" clip-path="url(#p29b2201bcd)" style="fill: none; stroke: #ffffff; stroke-width: 0.8; stroke-linecap: square"/>
     </g>
     <g id="line2d_104">
      <g>
       <use xlink:href="#mb2895cb9f6" x="268.263545" y="531.5875" style="fill: #555555; stroke: #555555; stroke-width: 0.8"/>
      </g>
     </g>
     <g id="text_41">
      <!-- −10 -->
      <g style="fill: #555555" transform="translate(257.711202 546.185938) scale(0.1 -0.1)">
       <use xlink:href="#DejaVuSans-2212"/>
       <use xlink:href="#DejaVuSans-31" x="83.789062"/>
       <use xlink:href="#DejaVuSans-30" x="147.412109"/>
      </g>
     </g>
    </g>
    <g id="xtick_32">
     <g id="line2d_105">
      <path d="M 302.244767 531.5875 
L 302.244767 365.191667 
" clip-path="url(#p29b2201bcd)" style="fill: none; stroke: #ffffff; stroke-width: 0.8; stroke-linecap: square"/>
     </g>
     <g id="line2d_106">
      <g>
       <use xlink:href="#mb2895cb9f6" x="302.244767" y="531.5875" style="fill: #555555; stroke: #555555; stroke-width: 0.8"/>
      </g>
     </g>
     <g id="text_42">
      <!-- −5 -->
      <g style="fill: #555555" transform="translate(294.873673 546.185938) scale(0.1 -0.1)">
       <use xlink:href="#DejaVuSans-2212"/>
       <use xlink:href="#DejaVuSans-35" x="83.789062"/>
      </g>
     </g>
    </g>
    <g id="xtick_33">
     <g id="line2d_107">
      <path d="M 336.225989 531.5875 
L 336.225989 365.191667 
" clip-path="url(#p29b2201bcd)" style="fill: none; stroke: #ffffff; stroke-width: 0.8; stroke-linecap: square"/>
     </g>
     <g id="line2d_108">
      <g>
       <use xlink:href="#mb2895cb9f6" x="336.225989" y="531.5875" style="fill: #555555; stroke: #555555; stroke-width: 0.8"/>
      </g>
     </g>
     <g id="text_43">
      <!-- 0 -->
      <g style="fill: #555555" transform="translate(333.044739 546.185938) scale(0.1 -0.1)">
       <use xlink:href="#DejaVuSans-30"/>
      </g>
     </g>
    </g>
    <g id="xtick_34">
     <g id="line2d_109">
      <path d="M 370.207211 531.5875 
L 370.207211 365.191667 
" clip-path="url(#p29b2201bcd)" style="fill: none; stroke: #ffffff; stroke-width: 0.8; stroke-linecap: square"/>
     </g>
     <g id="line2d_110">
      <g>
       <use xlink:href="#mb2895cb9f6" x="370.207211" y="531.5875" style="fill: #555555; stroke: #555555; stroke-width: 0.8"/>
      </g>
     </g>
     <g id="text_44">
      <!-- 5 -->
      <g style="fill: #555555" transform="translate(367.025961 546.185938) scale(0.1 -0.1)">
       <use xlink:href="#DejaVuSans-35"/>
      </g>
     </g>
    </g>
    <g id="xtick_35">
     <g id="line2d_111">
      <path d="M 404.188432 531.5875 
L 404.188432 365.191667 
" clip-path="url(#p29b2201bcd)" style="fill: none; stroke: #ffffff; stroke-width: 0.8; stroke-linecap: square"/>
     </g>
     <g id="line2d_112">
      <g>
       <use xlink:href="#mb2895cb9f6" x="404.188432" y="531.5875" style="fill: #555555; stroke: #555555; stroke-width: 0.8"/>
      </g>
     </g>
     <g id="text_45">
      <!-- 10 -->
      <g style="fill: #555555" transform="translate(397.825932 546.185938) scale(0.1 -0.1)">
       <use xlink:href="#DejaVuSans-31"/>
       <use xlink:href="#DejaVuSans-30" x="63.623047"/>
      </g>
     </g>
    </g>
    <g id="xtick_36">
     <g id="line2d_113">
      <path d="M 438.169654 531.5875 
L 438.169654 365.191667 
" clip-path="url(#p29b2201bcd)" style="fill: none; stroke: #ffffff; stroke-width: 0.8; stroke-linecap: square"/>
     </g>
     <g id="line2d_114">
      <g>
       <use xlink:href="#mb2895cb9f6" x="438.169654" y="531.5875" style="fill: #555555; stroke: #555555; stroke-width: 0.8"/>
      </g>
     </g>
     <g id="text_46">
      <!-- 15 -->
      <g style="fill: #555555" transform="translate(431.807154 546.185938) scale(0.1 -0.1)">
       <use xlink:href="#DejaVuSans-31"/>
       <use xlink:href="#DejaVuSans-35" x="63.623047"/>
      </g>
     </g>
    </g>
    <g id="text_47">
     <!-- $t$ [fs] -->
     <g style="fill: #555555" transform="translate(341.412204 561.38375) scale(0.12 -0.12)">
      <use xlink:href="#DejaVuSans-Oblique-74" transform="translate(0 0.015625)"/>
      <use xlink:href="#DejaVuSans-20" transform="translate(39.208984 0.015625)"/>
      <use xlink:href="#DejaVuSans-5b" transform="translate(70.996094 0.015625)"/>
      <use xlink:href="#DejaVuSans-66" transform="translate(110.009766 0.015625)"/>
      <use xlink:href="#DejaVuSans-73" transform="translate(145.214844 0.015625)"/>
      <use xlink:href="#DejaVuSans-5d" transform="translate(197.314453 0.015625)"/>
     </g>
    </g>
   </g>
   <g id="matplotlib.axis_12">
    <g id="ytick_29">
     <g id="line2d_115">
      <path d="M 263.462408 517.622904 
L 447.802 517.622904 
" clip-path="url(#p29b2201bcd)" style="fill: none; stroke: #ffffff; stroke-width: 0.8; stroke-linecap: square"/>
     </g>
     <g id="line2d_116">
      <g>
       <use xlink:href="#md438bbb755" x="447.802" y="517.622904" style="fill: #555555; stroke: #555555; stroke-width: 0.8"/>
      </g>
     </g>
     <g id="text_48">
      <!-- −7.5 -->
      <g style="fill: #555555" transform="translate(454.802 521.422123) scale(0.1 -0.1)">
       <use xlink:href="#DejaVuSans-2212"/>
       <use xlink:href="#DejaVuSans-37" x="83.789062"/>
       <use xlink:href="#DejaVuSans-2e" x="147.412109"/>
       <use xlink:href="#DejaVuSans-35" x="179.199219"/>
      </g>
     </g>
    </g>
    <g id="ytick_30">
     <g id="line2d_117">
      <path d="M 263.462408 494.545162 
L 447.802 494.545162 
" clip-path="url(#p29b2201bcd)" style="fill: none; stroke: #ffffff; stroke-width: 0.8; stroke-linecap: square"/>
     </g>
     <g id="line2d_118">
      <g>
       <use xlink:href="#md438bbb755" x="447.802" y="494.545162" style="fill: #555555; stroke: #555555; stroke-width: 0.8"/>
      </g>
     </g>
     <g id="text_49">
      <!-- −5.0 -->
      <g style="fill: #555555" transform="translate(454.802 498.344381) scale(0.1 -0.1)">
       <use xlink:href="#DejaVuSans-2212"/>
       <use xlink:href="#DejaVuSans-35" x="83.789062"/>
       <use xlink:href="#DejaVuSans-2e" x="147.412109"/>
       <use xlink:href="#DejaVuSans-30" x="179.199219"/>
      </g>
     </g>
    </g>
    <g id="ytick_31">
     <g id="line2d_119">
      <path d="M 263.462408 471.46742 
L 447.802 471.46742 
" clip-path="url(#p29b2201bcd)" style="fill: none; stroke: #ffffff; stroke-width: 0.8; stroke-linecap: square"/>
     </g>
     <g id="line2d_120">
      <g>
       <use xlink:href="#md438bbb755" x="447.802" y="471.46742" style="fill: #555555; stroke: #555555; stroke-width: 0.8"/>
      </g>
     </g>
     <g id="text_50">
      <!-- −2.5 -->
      <g style="fill: #555555" transform="translate(454.802 475.266639) scale(0.1 -0.1)">
       <use xlink:href="#DejaVuSans-2212"/>
       <use xlink:href="#DejaVuSans-32" x="83.789062"/>
       <use xlink:href="#DejaVuSans-2e" x="147.412109"/>
       <use xlink:href="#DejaVuSans-35" x="179.199219"/>
      </g>
     </g>
    </g>
    <g id="ytick_32">
     <g id="line2d_121">
      <path d="M 263.462408 448.389678 
L 447.802 448.389678 
" clip-path="url(#p29b2201bcd)" style="fill: none; stroke: #ffffff; stroke-width: 0.8; stroke-linecap: square"/>
     </g>
     <g id="line2d_122">
      <g>
       <use xlink:href="#md438bbb755" x="447.802" y="448.389678" style="fill: #555555; stroke: #555555; stroke-width: 0.8"/>
      </g>
     </g>
     <g id="text_51">
      <!-- 0.0 -->
      <g style="fill: #555555" transform="translate(454.802 452.188897) scale(0.1 -0.1)">
       <use xlink:href="#DejaVuSans-30"/>
       <use xlink:href="#DejaVuSans-2e" x="63.623047"/>
       <use xlink:href="#DejaVuSans-30" x="95.410156"/>
      </g>
     </g>
    </g>
    <g id="ytick_33">
     <g id="line2d_123">
      <path d="M 263.462408 425.311936 
L 447.802 425.311936 
" clip-path="url(#p29b2201bcd)" style="fill: none; stroke: #ffffff; stroke-width: 0.8; stroke-linecap: square"/>
     </g>
     <g id="line2d_124">
      <g>
       <use xlink:href="#md438bbb755" x="447.802" y="425.311936" style="fill: #555555; stroke: #555555; stroke-width: 0.8"/>
      </g>
     </g>
     <g id="text_52">
      <!-- 2.5 -->
      <g style="fill: #555555" transform="translate(454.802 429.111155) scale(0.1 -0.1)">
       <use xlink:href="#DejaVuSans-32"/>
       <use xlink:href="#DejaVuSans-2e" x="63.623047"/>
       <use xlink:href="#DejaVuSans-35" x="95.410156"/>
      </g>
     </g>
    </g>
    <g id="ytick_34">
     <g id="line2d_125">
      <path d="M 263.462408 402.234194 
L 447.802 402.234194 
" clip-path="url(#p29b2201bcd)" style="fill: none; stroke: #ffffff; stroke-width: 0.8; stroke-linecap: square"/>
     </g>
     <g id="line2d_126">
      <g>
       <use xlink:href="#md438bbb755" x="447.802" y="402.234194" style="fill: #555555; stroke: #555555; stroke-width: 0.8"/>
      </g>
     </g>
     <g id="text_53">
      <!-- 5.0 -->
      <g style="fill: #555555" transform="translate(454.802 406.033413) scale(0.1 -0.1)">
       <use xlink:href="#DejaVuSans-35"/>
       <use xlink:href="#DejaVuSans-2e" x="63.623047"/>
       <use xlink:href="#DejaVuSans-30" x="95.410156"/>
      </g>
     </g>
    </g>
    <g id="ytick_35">
     <g id="line2d_127">
      <path d="M 263.462408 379.156452 
L 447.802 379.156452 
" clip-path="url(#p29b2201bcd)" style="fill: none; stroke: #ffffff; stroke-width: 0.8; stroke-linecap: square"/>
     </g>
     <g id="line2d_128">
      <g>
       <use xlink:href="#md438bbb755" x="447.802" y="379.156452" style="fill: #555555; stroke: #555555; stroke-width: 0.8"/>
      </g>
     </g>
     <g id="text_54">
      <!-- 7.5 -->
      <g style="fill: #555555" transform="translate(454.802 382.955671) scale(0.1 -0.1)">
       <use xlink:href="#DejaVuSans-37"/>
       <use xlink:href="#DejaVuSans-2e" x="63.623047"/>
       <use xlink:href="#DejaVuSans-35" x="95.410156"/>
      </g>
     </g>
    </g>
    <g id="text_55">
     <!-- $A_z(t)$ -->
     <g style="fill: #555555" transform="translate(492.202938 461.949583) rotate(-90) scale(0.12 -0.12)">
      <use xlink:href="#DejaVuSans-Oblique-41" transform="translate(0 0.125)"/>
      <use xlink:href="#DejaVuSans-Oblique-7a" transform="translate(68.408203 -16.28125) scale(0.7)"/>
      <use xlink:href="#DejaVuSans-28" transform="translate(107.885742 0.125)"/>
      <use xlink:href="#DejaVuSans-Oblique-74" transform="translate(146.899414 0.125)"/>
      <use xlink:href="#DejaVuSans-29" transform="translate(186.108398 0.125)"/>
     </g>
    </g>
   </g>
   <g id="line2d_129">
    <path d="M 271.841481 448.389678 
L 294.330766 448.286658 
L 298.3208 448.127872 
L 299.771722 448.343446 
L 301.041278 448.76243 
L 302.4922 449.502044 
L 305.212678 450.998921 
L 305.938139 451.152985 
L 306.6636 451.070516 
L 307.207695 450.809749 
L 307.751791 450.348391 
L 308.477252 449.386461 
L 309.202712 448.007599 
L 310.109538 445.722675 
L 311.379095 441.746381 
L 313.011382 436.57067 
L 313.736843 434.885335 
L 314.280938 434.112344 
L 314.643669 433.896305 
L 315.006399 433.957759 
L 315.369129 434.325975 
L 315.73186 435.02609 
L 316.275955 436.740598 
L 316.820051 439.285728 
L 317.545512 443.969058 
L 318.452338 451.705648 
L 319.721894 464.945411 
L 321.354181 481.90846 
L 322.079642 487.59415 
L 322.623737 490.492747 
L 322.986468 491.625842 
L 323.349198 492.04015 
L 323.530563 491.959924 
L 323.711929 491.680196 
L 324.074659 490.503842 
L 324.437389 488.484054 
L 324.981485 483.854931 
L 325.525581 477.34927 
L 326.251041 466.003292 
L 327.339233 444.545807 
L 329.878346 391.541795 
L 330.603806 381.016299 
L 331.147902 375.729009 
L 331.510632 373.630559 
L 331.873363 372.755114 
L 332.054728 372.790647 
L 332.236093 373.14638 
L 332.598824 374.822882 
L 332.961554 377.777068 
L 333.50565 384.522694 
L 334.23111 397.456918 
L 335.137936 418.684306 
L 338.583875 506.31824 
L 339.309336 517.058847 
L 339.853432 521.958247 
L 340.216162 523.633766 
L 340.397527 523.989008 
L 340.578892 524.024053 
L 340.760258 523.742031 
L 341.122988 522.247161 
L 341.485718 519.560202 
L 342.029814 513.472216 
L 342.755275 502.081101 
L 343.843466 480.174624 
L 346.201214 430.771201 
L 347.10804 417.055925 
L 347.833501 409.62323 
L 348.377596 406.274295 
L 348.740327 405.098578 
L 349.103057 404.739233 
L 349.284422 404.853073 
L 349.647153 405.635017 
L 350.009883 407.103571 
L 350.553979 410.434628 
L 351.279439 416.548021 
L 352.548996 429.844231 
L 354.181283 446.770943 
L 355.088109 454.117521 
L 355.813569 458.436658 
L 356.357665 460.702223 
L 356.901761 462.146727 
L 357.264491 462.677795 
L 357.627221 462.88897 
L 357.989952 462.80759 
L 358.352682 462.464598 
L 358.896778 461.533349 
L 359.622239 459.699302 
L 360.891795 455.637629 
L 362.524082 450.553287 
L 363.430908 448.387384 
L 364.156369 447.113302 
L 364.88183 446.253203 
L 365.60729 445.774915 
L 366.332751 445.621893 
L 367.058212 445.723917 
L 367.965038 446.097014 
L 369.960055 447.277475 
L 371.410977 448.017043 
L 372.680533 448.435977 
L 373.95009 448.637912 
L 375.582376 448.660601 
L 384.106541 448.389631 
L 439.422928 448.389678 
L 439.422928 448.389678 
" clip-path="url(#p29b2201bcd)" style="fill: none; stroke: #000000; stroke-width: 1.5; stroke-linecap: square"/>
   </g>
   <g id="line2d_130">
    <path d="M 271.841481 448.389783 
L 301.766739 448.280344 
L 305.756774 447.883261 
L 309.021347 447.61375 
L 310.653634 447.692076 
L 312.104556 447.993105 
L 313.374112 448.489227 
L 314.643669 449.225982 
L 316.09459 450.342267 
L 320.26599 453.804006 
L 321.172816 454.119304 
L 321.898277 454.112159 
L 322.623737 453.81789 
L 323.349198 453.19219 
L 324.074659 452.20099 
L 324.80012 450.821217 
L 325.706946 448.546187 
L 326.795137 445.073199 
L 328.246059 439.519313 
L 330.422441 431.092137 
L 331.329267 428.422833 
L 332.054728 427.001144 
L 332.598824 426.472365 
L 332.961554 426.414705 
L 333.324284 426.615418 
L 333.687015 427.082468 
L 334.23111 428.328814 
L 334.775206 430.242575 
L 335.500667 433.860801 
L 336.226128 438.662117 
L 337.132954 446.161368 
L 338.40251 458.732696 
L 340.941623 484.479806 
L 341.848449 491.147318 
L 342.392544 493.900246 
L 342.93664 495.547986 
L 343.29937 495.948349 
L 343.480736 495.936808 
L 343.662101 495.772041 
L 344.024831 494.975161 
L 344.387562 493.554929 
L 344.931657 490.242761 
L 345.475753 485.520358 
L 346.201214 477.17043 
L 347.10804 463.881115 
L 348.558961 438.382826 
L 350.372613 406.624796 
L 351.279439 394.303476 
L 352.0049 387.436352 
L 352.548996 384.414512 
L 352.911726 383.5069 
L 353.093091 383.401959 
L 353.274457 383.529594 
L 353.637187 384.486875 
L 353.999917 386.389452 
L 354.544013 390.993543 
L 355.088109 397.56205 
L 355.813569 409.064652 
L 356.901761 430.787777 
L 359.622239 488.801103 
L 360.347699 500.019892 
L 360.891795 506.187067 
L 361.435891 510.105435 
L 361.798621 511.420022 
L 361.979986 511.66881 
L 362.161352 511.644629 
L 362.342717 511.347476 
L 362.705447 509.950607 
L 363.068178 507.515499 
L 363.612273 501.971747 
L 364.337734 491.519082 
L 365.24456 474.683684 
L 368.146403 416.621033 
L 368.871864 406.887978 
L 369.41596 401.931566 
L 369.77869 399.841365 
L 370.14142 398.762195 
L 370.322786 398.606974 
L 370.504151 398.707997 
L 370.866881 399.654051 
L 371.229612 401.548428 
L 371.773707 406.101443 
L 372.499168 414.83823 
L 373.405994 428.826848 
L 375.763742 466.936683 
L 376.489202 475.244671 
L 377.033298 479.571176 
L 377.577394 482.092864 
L 377.940124 482.736318 
L 378.121489 482.754273 
L 378.302855 482.572127 
L 378.665585 481.60753 
L 379.028315 479.891381 
L 379.572411 476.08599 
L 380.297872 469.108039 
L 381.567428 453.974566 
L 382.836985 439.333405 
L 383.562445 432.828067 
L 384.106541 429.314673 
L 384.650637 427.102823 
L 385.013367 426.400452 
L 385.194732 426.278949 
L 385.376097 426.303058 
L 385.738828 426.786618 
L 386.101558 427.84318 
L 386.645654 430.317214 
L 387.371115 435.024149 
L 388.640671 445.231042 
L 389.910227 454.86165 
L 390.635688 458.882434 
L 391.179784 460.893837 
L 391.542514 461.712436 
L 391.905245 462.10638 
L 392.267975 462.073776 
L 392.630705 461.639327 
L 392.993436 460.844555 
L 393.537531 459.024368 
L 394.262992 455.751499 
L 396.802105 443.231264 
L 397.346201 441.528115 
L 397.890296 440.443232 
L 398.253027 440.076019 
L 398.615757 439.998861 
L 398.978488 440.19572 
L 399.341218 440.641371 
L 399.885314 441.742696 
L 400.610774 443.796541 
L 403.149887 451.7016 
L 403.693983 452.721949 
L 404.238078 453.326347 
L 404.600809 453.494068 
L 404.963539 453.472 
L 405.507635 453.116887 
L 406.05173 452.417607 
L 406.777191 451.111976 
L 409.134939 446.446784 
L 409.8604 445.62571 
L 410.404495 445.329646 
L 410.948591 445.308165 
L 411.492687 445.548522 
L 412.218147 446.191256 
L 413.306339 447.582503 
L 414.75726 449.3959 
L 415.482721 449.99464 
L 416.208182 450.282558 
L 416.752277 450.286812 
L 417.477738 450.039536 
L 418.384564 449.422807 
L 420.742312 447.578728 
L 421.467773 447.290706 
L 422.193233 447.212399 
L 422.918694 447.333138 
L 424.006885 447.796045 
L 426.364633 448.956503 
L 427.271459 449.135653 
L 428.178285 449.099219 
L 429.266476 448.827488 
L 431.986954 447.986875 
L 433.075146 447.916174 
L 434.344702 448.074249 
L 437.972006 448.71297 
L 439.422928 448.623179 
L 439.422928 448.623179 
" clip-path="url(#p29b2201bcd)" style="fill: none; stroke: #e24a33; stroke-width: 1.5; stroke-linecap: square"/>
   </g>
   <g id="patch_28">
    <path d="M 263.462408 531.5875 
L 263.462408 365.191667 
" style="fill: none; stroke: #ffffff; stroke-linejoin: miter; stroke-linecap: square"/>
   </g>
   <g id="patch_29">
    <path d="M 447.802 531.5875 
L 447.802 365.191667 
" style="fill: none; stroke: #ffffff; stroke-linejoin: miter; stroke-linecap: square"/>
   </g>
   <g id="patch_30">
    <path d="M 263.462408 531.5875 
L 447.802 531.5875 
" style="fill: none; stroke: #ffffff; stroke-linejoin: miter; stroke-linecap: square"/>
   </g>
   <g id="patch_31">
    <path d="M 263.462408 365.191667 
L 447.802 365.191667 
" style="fill: none; stroke: #ffffff; stroke-linejoin: miter; stroke-linecap: square"/>
   </g>
  </g>
 </g>
 <defs>
  <clipPath id="pb326fc593a">
   <rect x="62.372" y="10.8" width="184.339592" height="166.395833"/>
  </clipPath>
  <clipPath id="pe85899af61">
   <rect x="263.462408" y="10.8" width="184.339592" height="166.395833"/>
  </clipPath>
  <clipPath id="p6ca1dcf94a">
   <rect x="62.372" y="187.995833" width="184.339592" height="166.395833"/>
  </clipPath>
  <clipPath id="pac9f2ef898">
   <rect x="263.462408" y="187.995833" width="184.339592" height="166.395833"/>
  </clipPath>
  <clipPath id="p9b61d40324">
   <rect x="62.372" y="365.191667" width="184.339592" height="166.395833"/>
  </clipPath>
  <clipPath id="p29b2201bcd">
   <rect x="263.462408" y="365.191667" width="184.339592" height="166.395833"/>
  </clipPath>
 </defs>
</svg>
