<?xml version="1.0" encoding="utf-8" standalone="no"?>
<!DOCTYPE svg PUBLIC "-//W3C//DTD SVG 1.1//EN"
  "http://www.w3.org/Graphics/SVG/1.1/DTD/svg11.dtd">
<svg xmlns:xlink="http://www.w3.org/1999/xlink" width="504pt" height="576pt" viewBox="0 0 504 576" xmlns="http://www.w3.org/2000/svg" version="1.1">
 <metadata>
  <rdf:RDF xmlns:dc="http://purl.org/dc/elements/1.1/" xmlns:cc="http://creativecommons.org/ns#" xmlns:rdf="http://www.w3.org/1999/02/22-rdf-syntax-ns#">
   <cc:Work>
    <dc:type rdf:resource="http://purl.org/dc/dcmitype/StillImage"/>
    <dc:date>2024-04-02T11:49:12.269808</dc:date>
    <dc:format>image/svg+xml</dc:format>
    <dc:creator>
     <cc:Agent>
      <dc:title>Matplotlib v3.8.3, https://matplotlib.org/</dc:title>
     </cc:Agent>
    </dc:creator>
   </cc:Work>
  </rdf:RDF>
 </metadata>
 <defs>
  <style type="text/css">*{stroke-linejoin: round; stroke-linecap: butt}</style>
 </defs>
 <g id="figure_1">
  <g id="patch_1">
   <path d="M 0 576 
L 504 576 
L 504 0 
L 0 0 
z
" style="fill: #ffffff"/>
  </g>
  <g id="axes_1">
   <g id="patch_2">
    <path d="M 50.69 265.79375 
L 486.84905 265.79375 
L 486.84905 10.8 
L 50.69 10.8 
z
" style="fill: #e5e5e5"/>
   </g>
   <g id="matplotlib.axis_1">
    <g id="xtick_1">
     <g id="line2d_1">
      <path d="M 52.49231 265.79375 
L 52.49231 10.8 
" clip-path="url(#p6fe03602e0)" style="fill: none; stroke: #ffffff; stroke-width: 0.8; stroke-linecap: square"/>
     </g>
    </g>
    <g id="xtick_2">
     <g id="line2d_2">
      <path d="M 124.584715 265.79375 
L 124.584715 10.8 
" clip-path="url(#p6fe03602e0)" style="fill: none; stroke: #ffffff; stroke-width: 0.8; stroke-linecap: square"/>
     </g>
    </g>
    <g id="xtick_3">
     <g id="line2d_3">
      <path d="M 196.67712 265.79375 
L 196.67712 10.8 
" clip-path="url(#p6fe03602e0)" style="fill: none; stroke: #ffffff; stroke-width: 0.8; stroke-linecap: square"/>
     </g>
    </g>
    <g id="xtick_4">
     <g id="line2d_4">
      <path d="M 268.769525 265.79375 
L 268.769525 10.8 
" clip-path="url(#p6fe03602e0)" style="fill: none; stroke: #ffffff; stroke-width: 0.8; stroke-linecap: square"/>
     </g>
    </g>
    <g id="xtick_5">
     <g id="line2d_5">
      <path d="M 340.86193 265.79375 
L 340.86193 10.8 
" clip-path="url(#p6fe03602e0)" style="fill: none; stroke: #ffffff; stroke-width: 0.8; stroke-linecap: square"/>
     </g>
    </g>
    <g id="xtick_6">
     <g id="line2d_6">
      <path d="M 412.954335 265.79375 
L 412.954335 10.8 
" clip-path="url(#p6fe03602e0)" style="fill: none; stroke: #ffffff; stroke-width: 0.8; stroke-linecap: square"/>
     </g>
    </g>
    <g id="xtick_7">
     <g id="line2d_7">
      <path d="M 485.046739 265.79375 
L 485.046739 10.8 
" clip-path="url(#p6fe03602e0)" style="fill: none; stroke: #ffffff; stroke-width: 0.8; stroke-linecap: square"/>
     </g>
    </g>
   </g>
   <g id="matplotlib.axis_2">
    <g id="ytick_1">
     <g id="line2d_8">
      <path d="M 50.69 254.203125 
L 486.84905 254.203125 
" clip-path="url(#p6fe03602e0)" style="fill: none; stroke: #ffffff; stroke-width: 0.8; stroke-linecap: square"/>
     </g>
     <g id="line2d_9">
      <defs>
       <path id="m5e495335af" d="M 0 0 
L -3.5 0 
" style="stroke: #555555; stroke-width: 0.8"/>
      </defs>
      <g>
       <use xlink:href="#m5e495335af" x="50.69" y="254.203125" style="fill: #555555; stroke: #555555; stroke-width: 0.8"/>
      </g>
     </g>
     <g id="text_1">
      <!-- 0.0 -->
      <g style="fill: #555555" transform="translate(27.786875 258.002344) scale(0.1 -0.1)">
       <defs>
        <path id="DejaVuSans-30" d="M 2034 4250 
Q 1547 4250 1301 3770 
Q 1056 3291 1056 2328 
Q 1056 1369 1301 889 
Q 1547 409 2034 409 
Q 2525 409 2770 889 
Q 3016 1369 3016 2328 
Q 3016 3291 2770 3770 
Q 2525 4250 2034 4250 
z
M 2034 4750 
Q 2819 4750 3233 4129 
Q 3647 3509 3647 2328 
Q 3647 1150 3233 529 
Q 2819 -91 2034 -91 
Q 1250 -91 836 529 
Q 422 1150 422 2328 
Q 422 3509 836 4129 
Q 1250 4750 2034 4750 
z
" transform="scale(0.015625)"/>
        <path id="DejaVuSans-2e" d="M 684 794 
L 1344 794 
L 1344 0 
L 684 0 
L 684 794 
z
" transform="scale(0.015625)"/>
       </defs>
       <use xlink:href="#DejaVuSans-30"/>
       <use xlink:href="#DejaVuSans-2e" x="63.623047"/>
       <use xlink:href="#DejaVuSans-30" x="95.410156"/>
      </g>
     </g>
    </g>
    <g id="ytick_2">
     <g id="line2d_10">
      <path d="M 50.69 207.840625 
L 486.84905 207.840625 
" clip-path="url(#p6fe03602e0)" style="fill: none; stroke: #ffffff; stroke-width: 0.8; stroke-linecap: square"/>
     </g>
     <g id="line2d_11">
      <g>
       <use xlink:href="#m5e495335af" x="50.69" y="207.840625" style="fill: #555555; stroke: #555555; stroke-width: 0.8"/>
      </g>
     </g>
     <g id="text_2">
      <!-- 0.2 -->
      <g style="fill: #555555" transform="translate(27.786875 211.639844) scale(0.1 -0.1)">
       <defs>
        <path id="DejaVuSans-32" d="M 1228 531 
L 3431 531 
L 3431 0 
L 469 0 
L 469 531 
Q 828 903 1448 1529 
Q 2069 2156 2228 2338 
Q 2531 2678 2651 2914 
Q 2772 3150 2772 3378 
Q 2772 3750 2511 3984 
Q 2250 4219 1831 4219 
Q 1534 4219 1204 4116 
Q 875 4013 500 3803 
L 500 4441 
Q 881 4594 1212 4672 
Q 1544 4750 1819 4750 
Q 2544 4750 2975 4387 
Q 3406 4025 3406 3419 
Q 3406 3131 3298 2873 
Q 3191 2616 2906 2266 
Q 2828 2175 2409 1742 
Q 1991 1309 1228 531 
z
" transform="scale(0.015625)"/>
       </defs>
       <use xlink:href="#DejaVuSans-30"/>
       <use xlink:href="#DejaVuSans-2e" x="63.623047"/>
       <use xlink:href="#DejaVuSans-32" x="95.410156"/>
      </g>
     </g>
    </g>
    <g id="ytick_3">
     <g id="line2d_12">
      <path d="M 50.69 161.478125 
L 486.84905 161.478125 
" clip-path="url(#p6fe03602e0)" style="fill: none; stroke: #ffffff; stroke-width: 0.8; stroke-linecap: square"/>
     </g>
     <g id="line2d_13">
      <g>
       <use xlink:href="#m5e495335af" x="50.69" y="161.478125" style="fill: #555555; stroke: #555555; stroke-width: 0.8"/>
      </g>
     </g>
     <g id="text_3">
      <!-- 0.4 -->
      <g style="fill: #555555" transform="translate(27.786875 165.277344) scale(0.1 -0.1)">
       <defs>
        <path id="DejaVuSans-34" d="M 2419 4116 
L 825 1625 
L 2419 1625 
L 2419 4116 
z
M 2253 4666 
L 3047 4666 
L 3047 1625 
L 3713 1625 
L 3713 1100 
L 3047 1100 
L 3047 0 
L 2419 0 
L 2419 1100 
L 313 1100 
L 313 1709 
L 2253 4666 
z
" transform="scale(0.015625)"/>
       </defs>
       <use xlink:href="#DejaVuSans-30"/>
       <use xlink:href="#DejaVuSans-2e" x="63.623047"/>
       <use xlink:href="#DejaVuSans-34" x="95.410156"/>
      </g>
     </g>
    </g>
    <g id="ytick_4">
     <g id="line2d_14">
      <path d="M 50.69 115.115625 
L 486.84905 115.115625 
" clip-path="url(#p6fe03602e0)" style="fill: none; stroke: #ffffff; stroke-width: 0.8; stroke-linecap: square"/>
     </g>
     <g id="line2d_15">
      <g>
       <use xlink:href="#m5e495335af" x="50.69" y="115.115625" style="fill: #555555; stroke: #555555; stroke-width: 0.8"/>
      </g>
     </g>
     <g id="text_4">
      <!-- 0.6 -->
      <g style="fill: #555555" transform="translate(27.786875 118.914844) scale(0.1 -0.1)">
       <defs>
        <path id="DejaVuSans-36" d="M 2113 2584 
Q 1688 2584 1439 2293 
Q 1191 2003 1191 1497 
Q 1191 994 1439 701 
Q 1688 409 2113 409 
Q 2538 409 2786 701 
Q 3034 994 3034 1497 
Q 3034 2003 2786 2293 
Q 2538 2584 2113 2584 
z
M 3366 4563 
L 3366 3988 
Q 3128 4100 2886 4159 
Q 2644 4219 2406 4219 
Q 1781 4219 1451 3797 
Q 1122 3375 1075 2522 
Q 1259 2794 1537 2939 
Q 1816 3084 2150 3084 
Q 2853 3084 3261 2657 
Q 3669 2231 3669 1497 
Q 3669 778 3244 343 
Q 2819 -91 2113 -91 
Q 1303 -91 875 529 
Q 447 1150 447 2328 
Q 447 3434 972 4092 
Q 1497 4750 2381 4750 
Q 2619 4750 2861 4703 
Q 3103 4656 3366 4563 
z
" transform="scale(0.015625)"/>
       </defs>
       <use xlink:href="#DejaVuSans-30"/>
       <use xlink:href="#DejaVuSans-2e" x="63.623047"/>
       <use xlink:href="#DejaVuSans-36" x="95.410156"/>
      </g>
     </g>
    </g>
    <g id="ytick_5">
     <g id="line2d_16">
      <path d="M 50.69 68.753125 
L 486.84905 68.753125 
" clip-path="url(#p6fe03602e0)" style="fill: none; stroke: #ffffff; stroke-width: 0.8; stroke-linecap: square"/>
     </g>
     <g id="line2d_17">
      <g>
       <use xlink:href="#m5e495335af" x="50.69" y="68.753125" style="fill: #555555; stroke: #555555; stroke-width: 0.8"/>
      </g>
     </g>
     <g id="text_5">
      <!-- 0.8 -->
      <g style="fill: #555555" transform="translate(27.786875 72.552344) scale(0.1 -0.1)">
       <defs>
        <path id="DejaVuSans-38" d="M 2034 2216 
Q 1584 2216 1326 1975 
Q 1069 1734 1069 1313 
Q 1069 891 1326 650 
Q 1584 409 2034 409 
Q 2484 409 2743 651 
Q 3003 894 3003 1313 
Q 3003 1734 2745 1975 
Q 2488 2216 2034 2216 
z
M 1403 2484 
Q 997 2584 770 2862 
Q 544 3141 544 3541 
Q 544 4100 942 4425 
Q 1341 4750 2034 4750 
Q 2731 4750 3128 4425 
Q 3525 4100 3525 3541 
Q 3525 3141 3298 2862 
Q 3072 2584 2669 2484 
Q 3125 2378 3379 2068 
Q 3634 1759 3634 1313 
Q 3634 634 3220 271 
Q 2806 -91 2034 -91 
Q 1263 -91 848 271 
Q 434 634 434 1313 
Q 434 1759 690 2068 
Q 947 2378 1403 2484 
z
M 1172 3481 
Q 1172 3119 1398 2916 
Q 1625 2713 2034 2713 
Q 2441 2713 2670 2916 
Q 2900 3119 2900 3481 
Q 2900 3844 2670 4047 
Q 2441 4250 2034 4250 
Q 1625 4250 1398 4047 
Q 1172 3844 1172 3481 
z
" transform="scale(0.015625)"/>
       </defs>
       <use xlink:href="#DejaVuSans-30"/>
       <use xlink:href="#DejaVuSans-2e" x="63.623047"/>
       <use xlink:href="#DejaVuSans-38" x="95.410156"/>
      </g>
     </g>
    </g>
    <g id="ytick_6">
     <g id="line2d_18">
      <path d="M 50.69 22.390625 
L 486.84905 22.390625 
" clip-path="url(#p6fe03602e0)" style="fill: none; stroke: #ffffff; stroke-width: 0.8; stroke-linecap: square"/>
     </g>
     <g id="line2d_19">
      <g>
       <use xlink:href="#m5e495335af" x="50.69" y="22.390625" style="fill: #555555; stroke: #555555; stroke-width: 0.8"/>
      </g>
     </g>
     <g id="text_6">
      <!-- 1.0 -->
      <g style="fill: #555555" transform="translate(27.786875 26.189844) scale(0.1 -0.1)">
       <defs>
        <path id="DejaVuSans-31" d="M 794 531 
L 1825 531 
L 1825 4091 
L 703 3866 
L 703 4441 
L 1819 4666 
L 2450 4666 
L 2450 531 
L 3481 531 
L 3481 0 
L 794 0 
L 794 531 
z
" transform="scale(0.015625)"/>
       </defs>
       <use xlink:href="#DejaVuSans-31"/>
       <use xlink:href="#DejaVuSans-2e" x="63.623047"/>
       <use xlink:href="#DejaVuSans-30" x="95.410156"/>
      </g>
     </g>
    </g>
    <g id="text_7">
     <!-- $w(x)$ -->
     <g style="fill: #555555" transform="translate(21.29125 151.436875) rotate(-90) scale(0.12 -0.12)">
      <defs>
       <path id="DejaVuSans-Oblique-77" d="M 544 3500 
L 1113 3500 
L 1259 684 
L 2566 3500 
L 3231 3500 
L 3425 684 
L 4666 3500 
L 5241 3500 
L 3641 0 
L 2969 0 
L 2797 2900 
L 1459 0 
L 781 0 
L 544 3500 
z
" transform="scale(0.015625)"/>
       <path id="DejaVuSans-28" d="M 1984 4856 
Q 1566 4138 1362 3434 
Q 1159 2731 1159 2009 
Q 1159 1288 1364 580 
Q 1569 -128 1984 -844 
L 1484 -844 
Q 1016 -109 783 600 
Q 550 1309 550 2009 
Q 550 2706 781 3412 
Q 1013 4119 1484 4856 
L 1984 4856 
z
" transform="scale(0.015625)"/>
       <path id="DejaVuSans-Oblique-78" d="M 3841 3500 
L 2234 1784 
L 3219 0 
L 2559 0 
L 1819 1388 
L 531 0 
L -166 0 
L 1556 1844 
L 641 3500 
L 1300 3500 
L 1972 2234 
L 3144 3500 
L 3841 3500 
z
" transform="scale(0.015625)"/>
       <path id="DejaVuSans-29" d="M 513 4856 
L 1013 4856 
Q 1481 4119 1714 3412 
Q 1947 2706 1947 2009 
Q 1947 1309 1714 600 
Q 1481 -109 1013 -844 
L 513 -844 
Q 928 -128 1133 580 
Q 1338 1288 1338 2009 
Q 1338 2731 1133 3434 
Q 928 4138 513 4856 
z
" transform="scale(0.015625)"/>
      </defs>
      <use xlink:href="#DejaVuSans-Oblique-77" transform="translate(0 0.125)"/>
      <use xlink:href="#DejaVuSans-28" transform="translate(81.787109 0.125)"/>
      <use xlink:href="#DejaVuSans-Oblique-78" transform="translate(120.800781 0.125)"/>
      <use xlink:href="#DejaVuSans-29" transform="translate(179.980469 0.125)"/>
     </g>
    </g>
   </g>
   <g id="line2d_20">
    <path d="M 70.515411 254.203125 
L 90.737331 254.118003 
L 93.11638 253.834306 
L 95.49543 253.35195 
L 97.874479 252.671764 
L 100.650037 251.629759 
L 103.425594 250.32253 
L 106.201152 248.753137 
L 108.976709 246.925252 
L 111.752267 244.843152 
L 114.924333 242.158604 
L 118.096399 239.156611 
L 121.268464 235.846346 
L 124.44053 232.237929 
L 128.009104 227.83584 
L 131.577678 223.087411 
L 135.542761 217.427561 
L 139.507843 211.389863 
L 143.869433 204.34644 
L 148.627532 196.228976 
L 153.782139 186.987436 
L 159.729762 175.840928 
L 166.86691 161.943797 
L 176.779616 142.083156 
L 192.243437 111.097492 
L 199.380585 97.326931 
L 205.328208 86.326458 
L 210.482815 77.240038 
L 215.240914 69.288167 
L 219.602505 62.414439 
L 223.567587 56.545021 
L 227.532669 51.065968 
L 231.101243 46.490245 
L 234.669817 42.269633 
L 237.841883 38.829325 
L 241.013949 35.693033 
L 244.186015 32.870343 
L 247.358081 30.369881 
L 250.133638 28.452338 
L 252.909196 26.791855 
L 255.684753 25.392319 
L 258.460311 24.257003 
L 261.235868 23.388566 
L 263.614918 22.858163 
L 265.993967 22.526248 
L 268.373017 22.393393 
L 270.752066 22.459827 
L 273.131115 22.725435 
L 275.510165 23.18976 
L 277.889214 23.852004 
L 280.664772 24.873232 
L 283.440329 26.159896 
L 286.215887 27.708985 
L 288.991444 29.516874 
L 291.767002 31.579332 
L 294.939068 34.241926 
L 298.111134 37.222556 
L 301.283199 40.512113 
L 304.455265 44.100542 
L 308.023839 48.48108 
L 311.592413 53.209028 
L 315.557496 58.847474 
L 319.522578 64.86529 
L 323.884168 71.888713 
L 328.642267 79.986726 
L 333.796874 89.210129 
L 339.744497 100.339692 
L 346.485137 113.439322 
L 356.001335 132.473244 
L 372.65468 165.850085 
L 379.791828 179.607239 
L 385.739452 190.59251 
L 390.894059 199.662922 
L 395.652157 207.597799 
L 400.013748 214.454182 
L 403.97883 220.30645 
L 407.943912 225.767123 
L 411.512486 230.325325 
L 415.081061 234.527557 
L 418.253126 237.950864 
L 421.425192 241.069586 
L 424.597258 243.87419 
L 427.769324 246.356104 
L 430.544881 248.257085 
L 433.320439 249.900734 
L 436.095997 251.283207 
L 438.871554 252.401266 
L 441.647112 253.252296 
L 444.026161 253.767691 
L 446.40521 254.084541 
L 448.78426 254.202301 
L 467.023638 254.203125 
L 467.023638 254.203125 
" clip-path="url(#p6fe03602e0)" style="fill: none; stroke: #e24a33; stroke-width: 1.5; stroke-linecap: square"/>
   </g>
   <g id="line2d_21">
    <path d="M 70.515411 254.203125 
L 88.358282 254.203125 
L 88.75479 234.044764 
L 91.530347 233.901641 
L 94.305905 233.511195 
L 97.081463 232.874341 
L 99.85702 231.992567 
L 102.632578 230.867939 
L 105.408135 229.503087 
L 108.183693 227.901207 
L 110.95925 226.066046 
L 114.131316 223.688603 
L 117.303382 221.019362 
L 120.475448 218.06648 
L 124.044022 214.416719 
L 127.612596 210.433538 
L 131.18117 206.132346 
L 135.146252 201.000541 
L 139.507843 194.955147 
L 143.869433 188.524195 
L 148.627532 181.112597 
L 153.782139 172.67467 
L 159.729762 162.497424 
L 166.86691 149.808739 
L 176.779616 131.675109 
L 192.243437 103.383851 
L 199.380585 90.810731 
L 205.328208 80.76682 
L 210.482815 72.470523 
L 215.240914 65.21012 
L 219.602505 58.934107 
L 223.964095 53.058366 
L 227.929177 48.092737 
L 231.497751 43.950153 
L 235.066326 40.13352 
L 238.6349 36.657601 
L 241.806965 33.864826 
L 244.979031 31.360435 
L 248.151097 29.152083 
L 250.926655 27.467948 
L 253.702212 26.01959 
L 256.47777 24.810399 
L 259.253327 23.843204 
L 262.028885 23.12027 
L 264.804443 22.643287 
L 267.58 22.413373 
L 270.355558 22.431064 
L 273.131115 22.696321 
L 275.906673 23.208521 
L 278.68223 23.966467 
L 281.457788 24.968384 
L 284.233346 26.211928 
L 287.008903 27.694189 
L 289.784461 29.411698 
L 292.956527 31.657443 
L 296.128592 34.198318 
L 299.300658 37.026559 
L 302.472724 40.13352 
L 306.041298 43.950153 
L 309.609872 48.092737 
L 313.574954 53.058366 
L 317.540037 58.382882 
L 321.901627 64.623971 
L 326.659726 71.850145 
L 331.814333 80.114179 
L 337.365448 89.445931 
L 343.70958 100.549694 
L 352.036252 115.614322 
L 376.223254 159.716708 
L 382.567386 170.673982 
L 388.118501 179.840563 
L 393.273108 187.921712 
L 398.031207 194.955147 
L 402.392797 201.000541 
L 406.35788 206.132346 
L 410.322962 210.892111 
L 413.891536 214.838982 
L 417.46011 218.450801 
L 420.632176 221.368704 
L 423.804242 224.001899 
L 426.976307 226.342337 
L 430.148373 228.382865 
L 432.923931 229.917382 
L 435.699488 231.213899 
L 438.475046 232.269385 
L 441.250603 233.081367 
L 444.026161 233.647946 
L 446.801719 233.967796 
L 448.78426 234.044764 
L 449.180768 254.203125 
L 467.023638 254.203125 
L 467.023638 254.203125 
" clip-path="url(#p6fe03602e0)" style="fill: none; stroke: #348abd; stroke-width: 1.5; stroke-linecap: square"/>
   </g>
   <g id="line2d_22">
    <path d="M 70.515411 254.203125 
L 92.719872 254.092083 
L 96.684954 253.77939 
L 100.650037 253.25843 
L 104.615119 252.519023 
L 108.580201 251.547414 
L 112.545283 250.326673 
L 116.113857 248.998832 
L 119.682431 247.437552 
L 123.251006 245.626055 
L 126.81958 243.54698 
L 130.388154 241.182831 
L 133.560219 238.828146 
L 136.732285 236.223088 
L 139.904351 233.356873 
L 143.076417 230.219739 
L 146.644991 226.356129 
L 150.213565 222.129204 
L 153.782139 217.532089 
L 157.350713 212.561157 
L 160.919287 207.216376 
L 164.884369 200.844103 
L 168.849452 194.026464 
L 172.814534 186.781379 
L 177.176124 178.347804 
L 181.934223 168.642192 
L 187.08883 157.610904 
L 193.036453 144.350028 
L 201.363126 125.180924 
L 214.844406 94.120429 
L 220.395521 81.894872 
L 225.15362 71.918267 
L 229.51521 63.299626 
L 233.480293 55.986901 
L 237.048867 49.891029 
L 240.220932 44.899249 
L 243.392998 40.342073 
L 246.168556 36.73399 
L 248.944113 33.498745 
L 251.323163 31.034645 
L 253.702212 28.865323 
L 256.081262 26.998765 
L 258.460311 25.441868 
L 260.442852 24.385198 
L 262.425393 23.550324 
L 264.407934 22.939404 
L 266.390475 22.554018 
L 268.373017 22.395165 
L 270.355558 22.463257 
L 272.338099 22.758116 
L 274.32064 23.27898 
L 276.303181 24.024499 
L 278.285722 24.992747 
L 280.268263 26.181222 
L 282.647313 27.893742 
L 285.026362 29.912613 
L 287.405411 32.230389 
L 289.784461 34.838554 
L 292.560018 38.235656 
L 295.335576 41.998181 
L 298.507642 46.72188 
L 301.679708 51.868626 
L 305.248282 58.123969 
L 308.816856 64.82448 
L 312.781938 72.728413 
L 317.540037 82.749365 
L 323.091152 95.012613 
L 330.624808 112.277207 
L 346.881645 149.712215 
L 352.829269 162.763069 
L 357.983876 173.557148 
L 362.741975 183.006003 
L 367.103565 191.178493 
L 371.068647 198.169639 
L 375.03373 204.72178 
L 378.998812 210.820994 
L 382.567386 215.916726 
L 386.13596 220.638215 
L 389.704534 224.987925 
L 393.273108 228.97169 
L 396.841682 232.598343 
L 400.410256 235.879304 
L 403.97883 238.828146 
L 407.547404 241.460131 
L 411.115978 243.791748 
L 414.684552 245.840226 
L 418.253126 247.623071 
L 421.8217 249.157599 
L 425.390274 250.460498 
L 429.355357 251.655484 
L 433.320439 252.603159 
L 437.285521 253.320159 
L 441.250603 253.819896 
L 445.215686 254.112176 
L 449.577276 254.203125 
L 467.023638 254.203125 
L 467.023638 254.203125 
" clip-path="url(#p6fe03602e0)" style="fill: none; stroke: #988ed5; stroke-width: 1.5; stroke-linecap: square"/>
   </g>
   <g id="line2d_23">
    <path d="M 70.515411 254.203125 
L 88.358282 254.203125 
L 88.75479 252.60823 
L 92.719872 252.491869 
L 96.684954 252.163569 
L 100.650037 251.617393 
L 104.615119 250.843779 
L 108.580201 249.829819 
L 112.148775 248.698687 
L 115.717349 247.346721 
L 119.285923 245.759279 
L 122.854497 243.920769 
L 126.423071 241.815044 
L 129.991645 239.425823 
L 133.560219 236.737129 
L 137.128793 233.733749 
L 140.697368 230.401677 
L 144.265942 226.728576 
L 147.834516 222.704206 
L 151.40309 218.320847 
L 154.971664 213.573687 
L 158.540238 208.461179 
L 162.108812 202.985352 
L 166.073894 196.482262 
L 170.038976 189.551922 
L 174.400567 181.459598 
L 179.158666 172.113252 
L 184.313272 161.446331 
L 189.864388 149.435091 
L 197.001536 133.41782 
L 217.223455 87.62088 
L 222.378062 76.661798 
L 226.739653 67.86222 
L 230.704735 60.326703 
L 234.273309 53.983174 
L 237.841883 48.105906 
L 241.013949 43.310409 
L 243.789506 39.470132 
L 246.565064 35.98146 
L 249.340622 32.861414 
L 251.719671 30.492149 
L 254.09872 28.413596 
L 256.47777 26.633328 
L 258.856819 25.157853 
L 260.83936 24.165058 
L 262.821901 23.390237 
L 264.804443 22.835372 
L 266.786984 22.501883 
L 268.769525 22.390625 
L 270.752066 22.501883 
L 272.734607 22.835372 
L 274.717148 23.390237 
L 276.699689 24.165058 
L 278.68223 25.157853 
L 280.664772 26.366089 
L 283.043821 28.095982 
L 285.42287 30.125318 
L 287.80192 32.446701 
L 290.180969 35.0517 
L 292.956527 38.436715 
L 295.732084 42.178365 
L 298.90415 46.867864 
L 302.076216 51.969938 
L 305.64479 58.163358 
L 309.213364 64.790657 
L 313.178446 72.601497 
L 317.936545 82.496929 
L 323.48766 94.599011 
L 331.021316 111.629254 
L 347.278154 148.559818 
L 353.225777 161.446331 
L 358.380384 172.113252 
L 363.138483 181.459598 
L 367.500073 189.551922 
L 371.465156 196.482262 
L 375.430238 202.985352 
L 379.39532 209.047247 
L 382.963894 214.119193 
L 386.532468 218.825791 
L 390.101042 223.168968 
L 393.669616 227.153878 
L 397.23819 230.78854 
L 400.806764 234.083446 
L 404.375338 237.051144 
L 407.943912 239.705793 
L 411.512486 242.062717 
L 415.081061 244.137946 
L 418.649635 245.947768 
L 422.218209 247.50829 
L 425.786783 248.835018 
L 429.355357 249.942462 
L 433.320439 250.931719 
L 437.285521 251.68206 
L 441.250603 252.206076 
L 445.215686 252.512977 
L 448.78426 252.60823 
L 449.180768 254.203125 
L 467.023638 254.203125 
L 467.023638 254.203125 
" clip-path="url(#p6fe03602e0)" style="fill: none; stroke: #777777; stroke-width: 1.5; stroke-linecap: square"/>
   </g>
   <g id="line2d_24">
    <path d="M 70.515411 254.203125 
L 99.460512 254.092555 
L 107.787185 253.793208 
L 114.131316 253.345217 
L 119.285923 252.76852 
L 124.044022 252.006474 
L 128.009104 251.15886 
L 131.974187 250.077191 
L 135.542761 248.869469 
L 139.111335 247.406993 
L 142.2834 245.86668 
L 145.455466 244.075844 
L 148.627532 242.011157 
L 151.799598 239.649702 
L 154.575155 237.322588 
L 157.350713 234.737299 
L 160.126271 231.880783 
L 162.901828 228.741211 
L 166.073894 224.793316 
L 169.24596 220.449545 
L 172.418026 215.700605 
L 175.590091 210.541058 
L 178.762157 204.96975 
L 182.330731 198.214407 
L 185.899305 190.9551 
L 189.467879 183.212907 
L 193.432962 174.080794 
L 197.794552 163.454716 
L 202.552651 151.273581 
L 208.500274 135.400311 
L 228.325686 81.837115 
L 232.687276 70.983195 
L 236.652358 61.734779 
L 239.824424 54.849705 
L 242.99649 48.489072 
L 245.772048 43.400012 
L 248.547605 38.794051 
L 250.926655 35.256047 
L 253.305704 32.116683 
L 255.288245 29.817431 
L 257.270786 27.815624 
L 259.253327 26.118896 
L 261.235868 24.733747 
L 263.21841 23.665499 
L 264.804443 23.041876 
L 266.390475 22.625269 
L 267.976508 22.416707 
L 269.562541 22.416707 
L 271.148574 22.625269 
L 272.734607 23.041876 
L 274.32064 23.665499 
L 275.906673 24.494596 
L 277.889214 25.816752 
L 279.871755 27.451647 
L 281.854296 29.393014 
L 283.836837 31.633441 
L 286.215887 34.70465 
L 288.594936 38.177486 
L 290.973985 42.033203 
L 293.749543 46.987836 
L 296.525101 52.399765 
L 299.697166 59.095312 
L 303.265741 67.205296 
L 307.230823 76.825616 
L 311.592413 87.997392 
L 317.540037 103.914854 
L 336.175923 154.369371 
L 340.934022 166.408467 
L 345.295613 176.876176 
L 349.260695 185.84563 
L 353.225777 194.242528 
L 356.794351 201.279939 
L 360.362925 207.806769 
L 363.534991 213.172335 
L 366.707057 218.126156 
L 369.879123 222.671581 
L 373.051188 226.816029 
L 376.223254 230.570552 
L 379.39532 233.94937 
L 382.567386 236.969384 
L 385.739452 239.649702 
L 388.911518 242.011157 
L 392.083583 244.075844 
L 395.255649 245.86668 
L 398.427715 247.406993 
L 401.599781 248.720144 
L 405.168355 249.954583 
L 408.736929 250.962535 
L 412.702011 251.853785 
L 417.063602 252.601033 
L 421.8217 253.191371 
L 427.372816 253.653094 
L 434.113455 253.981508 
L 442.836636 254.170112 
L 456.317916 254.203125 
L 467.023638 254.203125 
L 467.023638 254.203125 
" clip-path="url(#p6fe03602e0)" style="fill: none; stroke: #fbc15e; stroke-width: 1.5; stroke-linecap: square"/>
   </g>
   <g id="line2d_25">
    <path d="M 70.515411 254.203125 
L 92.719872 254.09506 
L 101.046545 253.888434 
L 107.787185 253.514137 
L 113.3383 253.003894 
L 118.492907 252.306168 
L 122.854497 251.498981 
L 126.81958 250.553176 
L 130.784662 249.367579 
L 134.353236 248.063081 
L 137.92181 246.502547 
L 141.093876 244.875573 
L 144.265942 243.000131 
L 147.438007 240.854534 
L 150.610073 238.417598 
L 153.782139 235.669026 
L 156.954205 232.589811 
L 160.126271 229.162656 
L 163.298336 225.372409 
L 166.470402 221.206494 
L 169.642468 216.655343 
L 172.814534 211.712812 
L 175.9866 206.376572 
L 179.555174 199.905172 
L 183.123748 192.94741 
L 186.692322 185.52042 
L 190.657404 176.748769 
L 195.018995 166.522825 
L 199.777093 154.769338 
L 205.328208 140.436386 
L 213.654881 118.209609 
L 223.567587 91.854479 
L 228.722194 78.777631 
L 233.083784 68.317922 
L 236.652358 60.295517 
L 239.824424 53.645236 
L 242.99649 47.508276 
L 245.772048 42.602682 
L 248.547605 38.166121 
L 250.926655 34.760348 
L 253.305704 31.739818 
L 255.684753 29.120373 
L 257.667294 27.253923 
L 259.649836 25.682521 
L 261.632377 24.411977 
L 263.614918 23.447006 
L 265.200951 22.897493 
L 266.786984 22.547175 
L 268.373017 22.396889 
L 269.959049 22.446994 
L 271.545082 22.697371 
L 273.131115 23.147421 
L 274.717148 23.796071 
L 276.699689 24.883765 
L 278.68223 26.27528 
L 280.664772 27.965459 
L 282.647313 29.94806 
L 284.629854 32.21579 
L 287.008903 35.30168 
L 289.387953 38.769986 
L 291.767002 42.602682 
L 294.54256 47.508276 
L 297.318117 52.848883 
L 300.490183 59.438124 
L 304.058757 67.400789 
L 308.023839 76.828956 
L 312.781938 88.781152 
L 318.729561 104.387176 
L 336.96894 152.758079 
L 342.123547 165.565717 
L 346.485137 175.843142 
L 350.45022 184.667249 
L 354.415302 192.94741 
L 357.983876 199.905172 
L 361.55245 206.376572 
L 365.121024 212.35215 
L 368.29309 217.24555 
L 371.465156 221.748136 
L 374.637221 225.866504 
L 377.809287 229.61062 
L 380.981353 232.993405 
L 384.153419 236.030305 
L 387.325485 238.738852 
L 390.49755 241.138239 
L 393.669616 243.248894 
L 396.841682 245.092085 
L 400.013748 246.689537 
L 403.582322 248.220112 
L 407.150896 249.498032 
L 410.71947 250.553176 
L 414.684552 251.498981 
L 419.046143 252.306168 
L 423.804242 252.958681 
L 429.355357 253.484556 
L 435.699488 253.85558 
L 443.233145 254.073043 
L 458.300457 254.203125 
L 467.023638 254.203125 
L 467.023638 254.203125 
" clip-path="url(#p6fe03602e0)" style="fill: none; stroke: #8eba42; stroke-width: 1.5; stroke-linecap: square"/>
   </g>
   <g id="line2d_26">
    <path d="M 70.515411 254.203125 
L 97.874479 254.096785 
L 106.201152 253.806747 
L 112.545283 253.37065 
L 117.69989 252.810529 
L 122.457989 252.071759 
L 126.81958 251.157094 
L 130.784662 250.085559 
L 134.353236 248.891363 
L 137.92181 247.447386 
L 141.093876 245.92833 
L 144.265942 244.163871 
L 147.438007 242.131234 
L 150.610073 239.808033 
L 153.782139 237.172657 
L 156.557697 234.594539 
L 159.729762 231.320103 
L 162.901828 227.679593 
L 166.073894 223.658546 
L 169.24596 219.245459 
L 172.418026 214.432236 
L 175.590091 209.214618 
L 178.762157 203.592578 
L 182.330731 196.790244 
L 185.899305 189.495909 
L 189.864388 180.841354 
L 193.82947 171.649902 
L 198.19106 160.986601 
L 203.345667 147.763383 
L 209.689799 130.832457 
L 226.343145 86.049761 
L 231.101243 74.09185 
L 235.066326 64.713889 
L 238.6349 56.841956 
L 241.806965 50.370919 
L 244.582523 45.16323 
L 247.358081 40.418164 
L 249.73713 36.74487 
L 252.116179 33.455752 
L 254.495229 30.568338 
L 256.47777 28.480261 
L 258.460311 26.689772 
L 260.442852 25.203613 
L 262.425393 24.027397 
L 264.011426 23.312619 
L 265.597459 22.800816 
L 267.183492 22.493235 
L 268.769525 22.390625 
L 270.355558 22.493235 
L 271.941591 22.800816 
L 273.527624 23.312619 
L 275.113656 24.027397 
L 277.096198 25.203613 
L 279.078739 26.689772 
L 281.06128 28.480261 
L 283.043821 30.568338 
L 285.026362 32.946176 
L 287.405411 36.169507 
L 289.784461 39.780071 
L 292.560018 44.456219 
L 295.335576 49.599999 
L 298.507642 56.004616 
L 301.679708 62.914579 
L 305.248282 71.215689 
L 309.213364 80.986725 
L 313.971463 93.296708 
L 320.712103 111.411451 
L 333.796874 146.723126 
L 339.347989 160.986601 
L 344.106088 172.591711 
L 348.467678 182.61678 
L 352.432761 191.158386 
L 356.001335 198.345009 
L 359.569909 205.035834 
L 363.138483 211.218713 
L 366.310549 216.284445 
L 369.482614 220.946902 
L 372.65468 225.211833 
L 375.826746 229.088661 
L 378.998812 232.590055 
L 382.170878 235.731466 
L 385.342944 238.530675 
L 388.515009 241.007328 
L 391.687075 243.182487 
L 394.859141 245.078204 
L 398.031207 246.717105 
L 401.203273 248.12202 
L 404.771847 249.451085 
L 408.340421 250.544281 
L 412.305503 251.519177 
L 416.667093 252.345239 
L 421.425192 253.006529 
L 426.976307 253.532784 
L 433.320439 253.89975 
L 441.250603 254.126721 
L 452.352834 254.203125 
L 467.023638 254.203125 
L 467.023638 254.203125 
" clip-path="url(#p6fe03602e0)" style="fill: none; stroke: #ffb5b8; stroke-width: 1.5; stroke-linecap: square"/>
   </g>
   <g id="line2d_27">
    <path d="M 70.515411 254.203125 
L 88.358282 254.203125 
L 88.75479 254.053516 
L 95.49543 253.701373 
L 101.046545 253.199023 
L 105.804644 252.563239 
L 110.166234 251.772465 
L 114.131316 250.847413 
L 118.096399 249.694166 
L 121.664973 248.434657 
L 125.233547 246.940483 
L 128.802121 245.18766 
L 131.974187 243.393268 
L 135.146252 241.359524 
L 138.318318 239.070846 
L 141.490384 236.512556 
L 144.66245 233.67113 
L 147.834516 230.534454 
L 151.006581 227.092087 
L 154.178647 223.335501 
L 157.350713 219.258334 
L 160.919287 214.283478 
L 164.487861 208.89623 
L 168.056435 203.099402 
L 171.625009 196.90061 
L 175.590091 189.557194 
L 179.555174 181.758189 
L 183.916764 172.692703 
L 188.674863 162.285317 
L 194.225978 149.575377 
L 200.966618 133.550628 
L 220.395521 86.972476 
L 225.550128 75.416577 
L 229.911719 66.185508 
L 233.876801 58.332025 
L 237.445375 51.773436 
L 240.617441 46.397019 
L 243.789506 41.486611 
L 246.565064 37.59967 
L 249.340622 34.117438 
L 251.719671 31.469398 
L 254.09872 29.143641 
L 256.47777 27.149701 
L 258.460311 25.747519 
L 260.442852 24.585515 
L 262.425393 23.667029 
L 264.407934 22.994711 
L 266.390475 22.5705 
L 268.373017 22.395623 
L 270.355558 22.470585 
L 272.338099 22.795169 
L 274.32064 23.368438 
L 276.303181 24.188734 
L 278.285722 25.253694 
L 280.268263 26.560249 
L 282.250805 28.104649 
L 284.629854 30.265608 
L 287.008903 32.753779 
L 289.387953 35.558986 
L 292.16351 39.217141 
L 294.939068 43.271131 
L 297.714625 47.698857 
L 300.886691 53.186006 
L 304.455265 59.857427 
L 308.023839 67.00062 
L 311.988922 75.416577 
L 316.74702 86.062773 
L 322.298135 99.043353 
L 331.021316 120.096806 
L 341.727039 145.852823 
L 347.674662 159.608619 
L 352.829269 170.993643 
L 357.587368 180.954431 
L 361.948958 189.557194 
L 365.91404 196.90061 
L 369.879123 203.763526 
L 373.447697 209.515131 
L 377.016271 214.856612 
L 380.584845 219.785672 
L 384.153419 224.304493 
L 387.325485 227.981839 
L 390.49755 231.346905 
L 393.669616 234.408719 
L 396.841682 237.178167 
L 400.013748 239.667736 
L 403.185814 241.891265 
L 406.35788 243.863681 
L 409.529945 245.600751 
L 413.098519 247.294031 
L 416.667093 248.733983 
L 420.235667 249.944596 
L 424.20075 251.049671 
L 428.165832 251.932833 
L 432.527423 252.684432 
L 437.285521 253.285158 
L 442.836636 253.755738 
L 451.163309 254.203125 
L 467.023638 254.203125 
L 467.023638 254.203125 
" clip-path="url(#p6fe03602e0)" style="fill: none; stroke: #e24a33; stroke-width: 1.5; stroke-linecap: square"/>
   </g>
   <g id="line2d_28">
    <path d="M 70.515411 254.203125 
L 88.358282 254.203125 
L 88.75479 251.478561 
L 92.719872 250.194018 
L 96.684954 248.663517 
L 100.253528 247.060336 
L 103.822102 245.229921 
L 107.390676 243.160222 
L 110.95925 240.840192 
L 114.527825 238.259938 
L 118.096399 235.410874 
L 121.664973 232.285868 
L 125.233547 228.87938 
L 128.802121 225.18759 
L 132.767203 220.748642 
L 136.732285 215.955169 
L 140.697368 210.810384 
L 144.66245 205.320731 
L 149.02404 198.895554 
L 153.385631 192.082711 
L 158.143729 184.235207 
L 163.298336 175.285861 
L 168.849452 165.189143 
L 175.193583 153.16878 
L 183.123748 137.625696 
L 206.517733 91.389595 
L 212.465357 80.312806 
L 217.619964 71.176866 
L 221.981554 63.859866 
L 226.343145 56.98284 
L 230.308227 51.158964 
L 233.876801 46.299282 
L 237.445375 41.828873 
L 240.617441 38.201921 
L 243.789506 34.917914 
L 246.565064 32.33715 
L 249.340622 30.038815 
L 252.116179 28.030736 
L 254.891737 26.319776 
L 257.270786 25.094195 
L 259.649836 24.094324 
L 262.028885 23.322692 
L 264.407934 22.781253 
L 266.786984 22.471379 
L 269.166033 22.393856 
L 271.545082 22.54888 
L 273.924132 22.936059 
L 276.303181 23.55441 
L 278.68223 24.402368 
L 281.06128 25.477784 
L 283.440329 26.777942 
L 286.215887 28.574436 
L 288.991444 30.666188 
L 291.767002 33.046058 
L 294.54256 35.705948 
L 297.714625 39.077105 
L 300.886691 42.787364 
L 304.058757 46.820492 
L 307.627331 51.721823 
L 311.592413 57.588381 
L 315.557496 63.859866 
L 319.919086 71.176866 
L 324.677185 79.593293 
L 330.2283 89.884694 
L 336.96894 102.892122 
L 346.881645 122.58751 
L 360.362925 149.327379 
L 367.500073 162.970916 
L 373.447697 173.87097 
L 378.602304 182.887512 
L 383.360402 190.804057 
L 388.118501 198.291918 
L 392.480092 204.753146 
L 396.841682 210.810384 
L 400.806764 215.955169 
L 404.771847 220.748642 
L 408.736929 225.18759 
L 412.702011 229.271913 
L 416.270585 232.646904 
L 419.839159 235.740946 
L 423.407733 238.559763 
L 426.976307 241.110654 
L 430.544881 243.402358 
L 434.113455 245.444904 
L 437.682029 247.24946 
L 441.647112 248.990202 
L 445.612194 250.469991 
L 448.78426 251.478561 
L 449.180768 254.203125 
L 467.023638 254.203125 
L 467.023638 254.203125 
" clip-path="url(#p6fe03602e0)" style="fill: none; stroke: #348abd; stroke-width: 1.5; stroke-linecap: square"/>
   </g>
   <g id="line2d_29">
    <path d="M 70.515411 254.203125 
L 88.358282 254.203125 
L 88.75479 22.390625 
L 448.78426 22.390625 
L 449.180768 254.203125 
L 467.023638 254.203125 
L 467.023638 254.203125 
" clip-path="url(#p6fe03602e0)" style="fill: none; stroke: #988ed5; stroke-width: 1.5; stroke-linecap: square"/>
   </g>
   <g id="patch_3">
    <path d="M 50.69 265.79375 
L 50.69 10.8 
" style="fill: none; stroke: #ffffff; stroke-linejoin: miter; stroke-linecap: square"/>
   </g>
   <g id="patch_4">
    <path d="M 486.84905 265.79375 
L 486.84905 10.8 
" style="fill: none; stroke: #ffffff; stroke-linejoin: miter; stroke-linecap: square"/>
   </g>
   <g id="patch_5">
    <path d="M 50.69 265.79375 
L 486.84905 265.79375 
" style="fill: none; stroke: #ffffff; stroke-linejoin: miter; stroke-linecap: square"/>
   </g>
   <g id="patch_6">
    <path d="M 50.69 10.8 
L 486.84905 10.8 
" style="fill: none; stroke: #ffffff; stroke-linejoin: miter; stroke-linecap: square"/>
   </g>
  </g>
  <g id="axes_2">
   <g id="patch_7">
    <path d="M 50.69 531.5875 
L 486.84905 531.5875 
L 486.84905 276.59375 
L 50.69 276.59375 
z
" style="fill: #e5e5e5"/>
   </g>
   <g id="matplotlib.axis_3">
    <g id="xtick_8">
     <g id="line2d_30">
      <path d="M 52.49231 531.5875 
L 52.49231 276.59375 
" clip-path="url(#p07490ce1ea)" style="fill: none; stroke: #ffffff; stroke-width: 0.8; stroke-linecap: square"/>
     </g>
     <g id="line2d_31">
      <defs>
       <path id="m25e3f3d61b" d="M 0 0 
L 0 3.5 
" style="stroke: #555555; stroke-width: 0.8"/>
      </defs>
      <g>
       <use xlink:href="#m25e3f3d61b" x="52.49231" y="531.5875" style="fill: #555555; stroke: #555555; stroke-width: 0.8"/>
      </g>
     </g>
     <g id="text_8">
      <!-- −0.6 -->
      <g style="fill: #555555" transform="translate(40.350904 546.185938) scale(0.1 -0.1)">
       <defs>
        <path id="DejaVuSans-2212" d="M 678 2272 
L 4684 2272 
L 4684 1741 
L 678 1741 
L 678 2272 
z
" transform="scale(0.015625)"/>
       </defs>
       <use xlink:href="#DejaVuSans-2212"/>
       <use xlink:href="#DejaVuSans-30" x="83.789062"/>
       <use xlink:href="#DejaVuSans-2e" x="147.412109"/>
       <use xlink:href="#DejaVuSans-36" x="179.199219"/>
      </g>
     </g>
    </g>
    <g id="xtick_9">
     <g id="line2d_32">
      <path d="M 124.584715 531.5875 
L 124.584715 276.59375 
" clip-path="url(#p07490ce1ea)" style="fill: none; stroke: #ffffff; stroke-width: 0.8; stroke-linecap: square"/>
     </g>
     <g id="line2d_33">
      <g>
       <use xlink:href="#m25e3f3d61b" x="124.584715" y="531.5875" style="fill: #555555; stroke: #555555; stroke-width: 0.8"/>
      </g>
     </g>
     <g id="text_9">
      <!-- −0.4 -->
      <g style="fill: #555555" transform="translate(112.443309 546.185938) scale(0.1 -0.1)">
       <use xlink:href="#DejaVuSans-2212"/>
       <use xlink:href="#DejaVuSans-30" x="83.789062"/>
       <use xlink:href="#DejaVuSans-2e" x="147.412109"/>
       <use xlink:href="#DejaVuSans-34" x="179.199219"/>
      </g>
     </g>
    </g>
    <g id="xtick_10">
     <g id="line2d_34">
      <path d="M 196.67712 531.5875 
L 196.67712 276.59375 
" clip-path="url(#p07490ce1ea)" style="fill: none; stroke: #ffffff; stroke-width: 0.8; stroke-linecap: square"/>
     </g>
     <g id="line2d_35">
      <g>
       <use xlink:href="#m25e3f3d61b" x="196.67712" y="531.5875" style="fill: #555555; stroke: #555555; stroke-width: 0.8"/>
      </g>
     </g>
     <g id="text_10">
      <!-- −0.2 -->
      <g style="fill: #555555" transform="translate(184.535714 546.185938) scale(0.1 -0.1)">
       <use xlink:href="#DejaVuSans-2212"/>
       <use xlink:href="#DejaVuSans-30" x="83.789062"/>
       <use xlink:href="#DejaVuSans-2e" x="147.412109"/>
       <use xlink:href="#DejaVuSans-32" x="179.199219"/>
      </g>
     </g>
    </g>
    <g id="xtick_11">
     <g id="line2d_36">
      <path d="M 268.769525 531.5875 
L 268.769525 276.59375 
" clip-path="url(#p07490ce1ea)" style="fill: none; stroke: #ffffff; stroke-width: 0.8; stroke-linecap: square"/>
     </g>
     <g id="line2d_37">
      <g>
       <use xlink:href="#m25e3f3d61b" x="268.769525" y="531.5875" style="fill: #555555; stroke: #555555; stroke-width: 0.8"/>
      </g>
     </g>
     <g id="text_11">
      <!-- 0.0 -->
      <g style="fill: #555555" transform="translate(260.817962 546.185938) scale(0.1 -0.1)">
       <use xlink:href="#DejaVuSans-30"/>
       <use xlink:href="#DejaVuSans-2e" x="63.623047"/>
       <use xlink:href="#DejaVuSans-30" x="95.410156"/>
      </g>
     </g>
    </g>
    <g id="xtick_12">
     <g id="line2d_38">
      <path d="M 340.86193 531.5875 
L 340.86193 276.59375 
" clip-path="url(#p07490ce1ea)" style="fill: none; stroke: #ffffff; stroke-width: 0.8; stroke-linecap: square"/>
     </g>
     <g id="line2d_39">
      <g>
       <use xlink:href="#m25e3f3d61b" x="340.86193" y="531.5875" style="fill: #555555; stroke: #555555; stroke-width: 0.8"/>
      </g>
     </g>
     <g id="text_12">
      <!-- 0.2 -->
      <g style="fill: #555555" transform="translate(332.910367 546.185938) scale(0.1 -0.1)">
       <use xlink:href="#DejaVuSans-30"/>
       <use xlink:href="#DejaVuSans-2e" x="63.623047"/>
       <use xlink:href="#DejaVuSans-32" x="95.410156"/>
      </g>
     </g>
    </g>
    <g id="xtick_13">
     <g id="line2d_40">
      <path d="M 412.954335 531.5875 
L 412.954335 276.59375 
" clip-path="url(#p07490ce1ea)" style="fill: none; stroke: #ffffff; stroke-width: 0.8; stroke-linecap: square"/>
     </g>
     <g id="line2d_41">
      <g>
       <use xlink:href="#m25e3f3d61b" x="412.954335" y="531.5875" style="fill: #555555; stroke: #555555; stroke-width: 0.8"/>
      </g>
     </g>
     <g id="text_13">
      <!-- 0.4 -->
      <g style="fill: #555555" transform="translate(405.002772 546.185938) scale(0.1 -0.1)">
       <use xlink:href="#DejaVuSans-30"/>
       <use xlink:href="#DejaVuSans-2e" x="63.623047"/>
       <use xlink:href="#DejaVuSans-34" x="95.410156"/>
      </g>
     </g>
    </g>
    <g id="xtick_14">
     <g id="line2d_42">
      <path d="M 485.046739 531.5875 
L 485.046739 276.59375 
" clip-path="url(#p07490ce1ea)" style="fill: none; stroke: #ffffff; stroke-width: 0.8; stroke-linecap: square"/>
     </g>
     <g id="line2d_43">
      <g>
       <use xlink:href="#m25e3f3d61b" x="485.046739" y="531.5875" style="fill: #555555; stroke: #555555; stroke-width: 0.8"/>
      </g>
     </g>
     <g id="text_14">
      <!-- 0.6 -->
      <g style="fill: #555555" transform="translate(477.095177 546.185938) scale(0.1 -0.1)">
       <use xlink:href="#DejaVuSans-30"/>
       <use xlink:href="#DejaVuSans-2e" x="63.623047"/>
       <use xlink:href="#DejaVuSans-36" x="95.410156"/>
      </g>
     </g>
    </g>
    <g id="text_15">
     <!-- $t$ [fs] -->
     <g style="fill: #555555" transform="translate(254.549525 561.38375) scale(0.12 -0.12)">
      <defs>
       <path id="DejaVuSans-Oblique-74" d="M 2706 3500 
L 2619 3053 
L 1472 3053 
L 1100 1153 
Q 1081 1047 1072 975 
Q 1063 903 1063 863 
Q 1063 663 1183 572 
Q 1303 481 1569 481 
L 2150 481 
L 2053 0 
L 1503 0 
Q 991 0 739 200 
Q 488 400 488 806 
Q 488 878 497 964 
Q 506 1050 525 1153 
L 897 3053 
L 409 3053 
L 500 3500 
L 978 3500 
L 1172 4494 
L 1747 4494 
L 1556 3500 
L 2706 3500 
z
" transform="scale(0.015625)"/>
       <path id="DejaVuSans-20" transform="scale(0.015625)"/>
       <path id="DejaVuSans-5b" d="M 550 4863 
L 1875 4863 
L 1875 4416 
L 1125 4416 
L 1125 -397 
L 1875 -397 
L 1875 -844 
L 550 -844 
L 550 4863 
z
" transform="scale(0.015625)"/>
       <path id="DejaVuSans-66" d="M 2375 4863 
L 2375 4384 
L 1825 4384 
Q 1516 4384 1395 4259 
Q 1275 4134 1275 3809 
L 1275 3500 
L 2222 3500 
L 2222 3053 
L 1275 3053 
L 1275 0 
L 697 0 
L 697 3053 
L 147 3053 
L 147 3500 
L 697 3500 
L 697 3744 
Q 697 4328 969 4595 
Q 1241 4863 1831 4863 
L 2375 4863 
z
" transform="scale(0.015625)"/>
       <path id="DejaVuSans-73" d="M 2834 3397 
L 2834 2853 
Q 2591 2978 2328 3040 
Q 2066 3103 1784 3103 
Q 1356 3103 1142 2972 
Q 928 2841 928 2578 
Q 928 2378 1081 2264 
Q 1234 2150 1697 2047 
L 1894 2003 
Q 2506 1872 2764 1633 
Q 3022 1394 3022 966 
Q 3022 478 2636 193 
Q 2250 -91 1575 -91 
Q 1294 -91 989 -36 
Q 684 19 347 128 
L 347 722 
Q 666 556 975 473 
Q 1284 391 1588 391 
Q 1994 391 2212 530 
Q 2431 669 2431 922 
Q 2431 1156 2273 1281 
Q 2116 1406 1581 1522 
L 1381 1569 
Q 847 1681 609 1914 
Q 372 2147 372 2553 
Q 372 3047 722 3315 
Q 1072 3584 1716 3584 
Q 2034 3584 2315 3537 
Q 2597 3491 2834 3397 
z
" transform="scale(0.015625)"/>
       <path id="DejaVuSans-5d" d="M 1947 4863 
L 1947 -844 
L 622 -844 
L 622 -397 
L 1369 -397 
L 1369 4416 
L 622 4416 
L 622 4863 
L 1947 4863 
z
" transform="scale(0.015625)"/>
      </defs>
      <use xlink:href="#DejaVuSans-Oblique-74" transform="translate(0 0.015625)"/>
      <use xlink:href="#DejaVuSans-20" transform="translate(39.208984 0.015625)"/>
      <use xlink:href="#DejaVuSans-5b" transform="translate(70.996094 0.015625)"/>
      <use xlink:href="#DejaVuSans-66" transform="translate(110.009766 0.015625)"/>
      <use xlink:href="#DejaVuSans-73" transform="translate(145.214844 0.015625)"/>
      <use xlink:href="#DejaVuSans-5d" transform="translate(197.314453 0.015625)"/>
     </g>
    </g>
   </g>
   <g id="matplotlib.axis_4">
    <g id="ytick_7">
     <g id="line2d_44">
      <path d="M 50.69 512.549122 
L 486.84905 512.549122 
" clip-path="url(#p07490ce1ea)" style="fill: none; stroke: #ffffff; stroke-width: 0.8; stroke-linecap: square"/>
     </g>
     <g id="line2d_45">
      <g>
       <use xlink:href="#m5e495335af" x="50.69" y="512.549122" style="fill: #555555; stroke: #555555; stroke-width: 0.8"/>
      </g>
     </g>
     <g id="text_16">
      <!-- −4 -->
      <g style="fill: #555555" transform="translate(28.947813 516.34834) scale(0.1 -0.1)">
       <use xlink:href="#DejaVuSans-2212"/>
       <use xlink:href="#DejaVuSans-34" x="83.789062"/>
      </g>
     </g>
    </g>
    <g id="ytick_8">
     <g id="line2d_46">
      <path d="M 50.69 458.319873 
L 486.84905 458.319873 
" clip-path="url(#p07490ce1ea)" style="fill: none; stroke: #ffffff; stroke-width: 0.8; stroke-linecap: square"/>
     </g>
     <g id="line2d_47">
      <g>
       <use xlink:href="#m5e495335af" x="50.69" y="458.319873" style="fill: #555555; stroke: #555555; stroke-width: 0.8"/>
      </g>
     </g>
     <g id="text_17">
      <!-- −2 -->
      <g style="fill: #555555" transform="translate(28.947813 462.119092) scale(0.1 -0.1)">
       <use xlink:href="#DejaVuSans-2212"/>
       <use xlink:href="#DejaVuSans-32" x="83.789062"/>
      </g>
     </g>
    </g>
    <g id="ytick_9">
     <g id="line2d_48">
      <path d="M 50.69 404.090625 
L 486.84905 404.090625 
" clip-path="url(#p07490ce1ea)" style="fill: none; stroke: #ffffff; stroke-width: 0.8; stroke-linecap: square"/>
     </g>
     <g id="line2d_49">
      <g>
       <use xlink:href="#m5e495335af" x="50.69" y="404.090625" style="fill: #555555; stroke: #555555; stroke-width: 0.8"/>
      </g>
     </g>
     <g id="text_18">
      <!-- 0 -->
      <g style="fill: #555555" transform="translate(37.3275 407.889844) scale(0.1 -0.1)">
       <use xlink:href="#DejaVuSans-30"/>
      </g>
     </g>
    </g>
    <g id="ytick_10">
     <g id="line2d_50">
      <path d="M 50.69 349.861377 
L 486.84905 349.861377 
" clip-path="url(#p07490ce1ea)" style="fill: none; stroke: #ffffff; stroke-width: 0.8; stroke-linecap: square"/>
     </g>
     <g id="line2d_51">
      <g>
       <use xlink:href="#m5e495335af" x="50.69" y="349.861377" style="fill: #555555; stroke: #555555; stroke-width: 0.8"/>
      </g>
     </g>
     <g id="text_19">
      <!-- 2 -->
      <g style="fill: #555555" transform="translate(37.3275 353.660595) scale(0.1 -0.1)">
       <use xlink:href="#DejaVuSans-32"/>
      </g>
     </g>
    </g>
    <g id="ytick_11">
     <g id="line2d_52">
      <path d="M 50.69 295.632128 
L 486.84905 295.632128 
" clip-path="url(#p07490ce1ea)" style="fill: none; stroke: #ffffff; stroke-width: 0.8; stroke-linecap: square"/>
     </g>
     <g id="line2d_53">
      <g>
       <use xlink:href="#m5e495335af" x="50.69" y="295.632128" style="fill: #555555; stroke: #555555; stroke-width: 0.8"/>
      </g>
     </g>
     <g id="text_20">
      <!-- 4 -->
      <g style="fill: #555555" transform="translate(37.3275 299.431347) scale(0.1 -0.1)">
       <use xlink:href="#DejaVuSans-34"/>
      </g>
     </g>
    </g>
    <g id="text_21">
     <!-- $w'(x)$ -->
     <g style="fill: #555555" transform="translate(22.452188 418.850625) rotate(-90) scale(0.12 -0.12)">
      <defs>
       <path id="Cmsy10-30" d="M 225 347 
Q 184 359 184 409 
L 966 3316 
Q 1003 3434 1093 3506 
Q 1184 3578 1300 3578 
Q 1450 3578 1564 3479 
Q 1678 3381 1678 3231 
Q 1678 3166 1644 3084 
L 488 319 
Q 466 275 428 275 
Q 394 275 320 306 
Q 247 338 225 347 
z
" transform="scale(0.015625)"/>
      </defs>
      <use xlink:href="#DejaVuSans-Oblique-77" transform="translate(0 0.584375)"/>
      <use xlink:href="#Cmsy10-30" transform="translate(86.253255 38.865625) scale(0.7)"/>
      <use xlink:href="#DejaVuSans-28" transform="translate(108.230794 0.584375)"/>
      <use xlink:href="#DejaVuSans-Oblique-78" transform="translate(147.244466 0.584375)"/>
      <use xlink:href="#DejaVuSans-29" transform="translate(206.424154 0.584375)"/>
     </g>
    </g>
   </g>
   <g id="line2d_54">
    <path d="M 70.515411 404.090625 
L 88.358282 404.090625 
L 88.75479 403.769493 
L 102.236069 383.944906 
L 109.373218 373.830393 
L 115.320841 365.752498 
L 120.871956 358.582887 
L 125.630055 352.773925 
L 130.388154 347.317754 
L 134.749744 342.658263 
L 138.714826 338.729674 
L 142.679909 335.113182 
L 146.248483 332.139487 
L 149.817057 329.444102 
L 153.385631 327.037452 
L 156.557697 325.148154 
L 159.729762 323.500137 
L 162.901828 322.09844 
L 166.073894 320.947347 
L 169.24596 320.050375 
L 172.418026 319.410266 
L 175.193583 319.062436 
L 177.969141 318.913591 
L 180.744698 318.964079 
L 183.520256 319.213781 
L 186.295814 319.662114 
L 189.467879 320.416348 
L 192.639945 321.426327 
L 195.812011 322.688963 
L 198.984077 324.200398 
L 202.156143 325.956011 
L 205.328208 327.950438 
L 208.896783 330.472006 
L 212.465357 333.278334 
L 216.033931 336.358565 
L 219.999013 340.087765 
L 223.964095 344.122577 
L 228.325686 348.890818 
L 233.083784 354.455241 
L 237.841883 360.360897 
L 243.392998 367.627825 
L 249.340622 375.7905 
L 256.47777 385.978899 
L 266.390475 400.559177 
L 282.647313 424.496263 
L 289.784461 434.600863 
L 295.732084 442.667537 
L 301.283199 449.824359 
L 306.041298 455.620671 
L 310.799397 461.062726 
L 315.160987 465.70807 
L 319.12607 469.622869 
L 323.091152 473.224753 
L 326.659726 476.184659 
L 330.2283 478.865702 
L 333.796874 481.257513 
L 336.96894 483.13325 
L 340.141006 484.767398 
L 343.313071 486.154964 
L 346.485137 487.291706 
L 349.657203 488.17415 
L 352.829269 488.799598 
L 355.604826 489.134526 
L 358.380384 489.270433 
L 361.155942 489.207001 
L 363.931499 488.944378 
L 366.707057 488.483178 
L 369.879123 487.714344 
L 373.051188 486.68992 
L 376.223254 485.413037 
L 379.39532 483.887597 
L 382.567386 482.118264 
L 385.739452 480.110444 
L 389.308026 477.574251 
L 392.8766 474.753821 
L 396.445174 471.660063 
L 400.410256 467.916574 
L 404.375338 463.868317 
L 408.736929 459.08634 
L 413.495028 453.508279 
L 418.253126 447.590482 
L 423.804242 440.311391 
L 429.751865 432.138201 
L 436.889013 421.94077 
L 446.801719 407.354675 
L 448.78426 404.411757 
L 449.180768 404.090625 
L 467.023638 404.090625 
L 467.023638 404.090625 
" clip-path="url(#p07490ce1ea)" style="fill: none; stroke: #e24a33; stroke-width: 1.5; stroke-linecap: square"/>
   </g>
   <g id="line2d_55">
    <path d="M 70.515411 404.090625 
L 88.358282 404.090625 
L 88.75479 403.797418 
L 102.236069 385.696708 
L 109.769726 375.959894 
L 116.113857 368.129567 
L 121.664973 361.635262 
L 126.81958 355.959241 
L 131.577678 351.06349 
L 135.939269 346.895189 
L 139.904351 343.391965 
L 143.869433 340.178577 
L 147.834516 337.270368 
L 151.40309 334.925416 
L 154.971664 332.847998 
L 158.540238 331.046149 
L 161.712304 329.681506 
L 164.884369 328.544288 
L 168.056435 327.637973 
L 171.228501 326.96533 
L 174.400567 326.528415 
L 177.572633 326.328564 
L 180.744698 326.366387 
L 183.916764 326.641768 
L 187.08883 327.153867 
L 190.260896 327.901117 
L 193.432962 328.881236 
L 196.605027 330.091226 
L 199.777093 331.527391 
L 203.345667 333.407932 
L 206.914241 335.561877 
L 210.482815 337.980893 
L 214.051389 340.655623 
L 218.016472 343.914842 
L 221.981554 347.4614 
L 226.343145 351.674239 
L 230.704735 356.1899 
L 235.462834 361.430746 
L 240.617441 367.438105 
L 246.565064 374.733892 
L 253.305704 383.379188 
L 261.632377 394.439696 
L 286.612395 427.892193 
L 293.353035 436.407974 
L 299.300658 443.555509 
L 304.455265 449.409888 
L 309.213364 454.490449 
L 313.574954 458.84406 
L 317.936545 462.881347 
L 321.901627 466.257448 
L 325.866709 469.336702 
L 329.435284 471.842046 
L 333.003858 474.085325 
L 336.572432 476.057861 
L 339.744497 477.577746 
L 342.916563 478.873023 
L 346.088629 479.939732 
L 349.260695 480.774614 
L 352.432761 481.375117 
L 355.604826 481.739405 
L 358.776892 481.866364 
L 361.948958 481.755608 
L 365.121024 481.407475 
L 368.29309 480.823027 
L 371.465156 480.004053 
L 374.637221 478.953054 
L 377.809287 477.673244 
L 380.981353 476.168534 
L 384.549927 474.212661 
L 388.118501 471.985554 
L 391.687075 469.495828 
L 395.255649 466.753112 
L 399.220731 463.421869 
L 403.185814 459.80732 
L 407.547404 455.524736 
L 412.305503 450.514831 
L 417.063602 445.18577 
L 422.614717 438.614142 
L 428.56234 431.216389 
L 435.699488 421.961808 
L 445.215686 409.218046 
L 448.78426 404.383832 
L 449.180768 404.090625 
L 467.023638 404.090625 
L 467.023638 404.090625 
" clip-path="url(#p07490ce1ea)" style="fill: none; stroke: #348abd; stroke-width: 1.5; stroke-linecap: square"/>
   </g>
   <g id="line2d_56">
    <path d="M 70.515411 404.090625 
L 88.358282 404.090625 
L 89.151298 403.763043 
L 98.667495 398.555554 
L 104.218611 395.266785 
L 108.976709 392.201423 
L 113.3383 389.142304 
L 117.69989 385.810799 
L 122.061481 382.183943 
L 126.423071 378.249731 
L 130.784662 374.007947 
L 135.542761 369.044315 
L 140.300859 363.762007 
L 145.851974 357.264564 
L 153.385631 348.062377 
L 166.073894 332.522488 
L 171.228501 326.597874 
L 175.590091 321.935047 
L 179.158666 318.431283 
L 182.330731 315.598034 
L 185.502797 313.067173 
L 188.278355 311.128175 
L 191.053912 309.469692 
L 193.432962 308.287382 
L 195.812011 307.339042 
L 198.19106 306.636193 
L 200.57011 306.189394 
L 202.552651 306.019547 
L 204.535192 306.039043 
L 206.517733 306.252221 
L 208.500274 306.662821 
L 210.482815 307.273964 
L 212.465357 308.088128 
L 214.447898 309.107132 
L 216.826947 310.601887 
L 219.205996 312.39389 
L 221.585046 314.482356 
L 223.964095 316.865038 
L 226.343145 319.538222 
L 229.118702 323.017102 
L 231.89426 326.873549 
L 234.669817 331.094198 
L 237.841883 336.343202 
L 241.013949 342.019272 
L 244.582523 348.875682 
L 248.547605 357.018696 
L 252.909196 366.52421 
L 258.063803 378.347713 
L 264.804443 394.451908 
L 280.664772 432.609304 
L 285.819379 444.300453 
L 290.180969 453.659254 
L 294.146051 461.643604 
L 297.714625 468.338622 
L 300.886691 473.858051 
L 304.058757 478.939534 
L 306.834315 483.005899 
L 309.609872 486.702016 
L 312.38543 490.015643 
L 314.764479 492.544132 
L 317.143528 494.780079 
L 319.522578 496.720503 
L 321.901627 498.363888 
L 324.280677 499.710181 
L 326.659726 500.760763 
L 328.642267 501.412332 
L 330.624808 501.862812 
L 332.607349 502.115194 
L 334.58989 502.173099 
L 336.572432 502.040746 
L 338.951481 501.637575 
L 341.33053 500.976695 
L 343.70958 500.068495 
L 346.088629 498.924341 
L 348.467678 497.556496 
L 351.243236 495.695423 
L 354.018794 493.569631 
L 357.190859 490.845598 
L 360.759433 487.448318 
L 364.724516 483.321907 
L 369.086106 478.439738 
L 374.637221 471.85484 
L 383.756911 460.609855 
L 392.480092 449.96995 
L 398.427715 443.071244 
L 403.582322 437.445002 
L 408.340421 432.595744 
L 412.702011 428.46506 
L 417.063602 424.643273 
L 421.425192 421.125804 
L 425.786783 417.89655 
L 430.544881 414.670817 
L 435.699488 411.472157 
L 441.647112 408.067703 
L 448.78426 404.206234 
L 449.577276 404.090625 
L 467.023638 404.090625 
L 467.023638 404.090625 
" clip-path="url(#p07490ce1ea)" style="fill: none; stroke: #988ed5; stroke-width: 1.5; stroke-linecap: square"/>
   </g>
   <g id="line2d_57">
    <path d="M 70.515411 404.090625 
L 88.358282 404.090625 
L 89.151298 403.746364 
L 99.064004 398.050642 
L 104.615119 394.612249 
L 109.769726 391.151905 
L 114.527825 387.673222 
L 118.889415 384.211699 
L 123.251006 380.470308 
L 127.612596 376.441562 
L 132.370695 371.723802 
L 137.128793 366.690242 
L 142.679909 360.470501 
L 149.420548 352.541435 
L 167.659927 330.834193 
L 172.418026 325.640563 
L 176.383108 321.630584 
L 179.951682 318.330946 
L 183.123748 315.686399 
L 186.295814 313.349277 
L 189.071371 311.582514 
L 191.846929 310.097496 
L 194.225978 309.063883 
L 196.605027 308.263399 
L 198.984077 307.706754 
L 201.363126 307.403699 
L 203.742176 307.362942 
L 205.724717 307.53486 
L 207.707258 307.898003 
L 209.689799 308.455555 
L 211.67234 309.210088 
L 214.051389 310.378233 
L 216.430439 311.834918 
L 218.809488 313.580897 
L 221.188538 315.615526 
L 223.567587 317.936752 
L 225.946636 320.541105 
L 228.722194 323.930759 
L 231.497751 327.688901 
L 234.273309 331.802806 
L 237.445375 336.920413 
L 240.617441 342.456204 
L 244.186015 349.145815 
L 248.151097 357.094711 
L 252.512687 366.379428 
L 257.667294 377.937661 
L 264.011426 392.758797 
L 281.457788 433.857125 
L 286.612395 445.237344 
L 290.973985 454.326954 
L 294.939068 462.066179 
L 298.507642 468.543402 
L 301.679708 473.873665 
L 304.851773 478.771978 
L 307.627331 482.684295 
L 310.402889 486.233269 
L 313.178446 489.407626 
L 315.557496 491.823684 
L 317.936545 493.954144 
L 320.315594 495.79648 
L 322.694644 497.349581 
L 325.073693 498.613737 
L 327.452742 499.590618 
L 329.435284 500.18738 
L 331.417825 500.589169 
L 333.400366 500.79905 
L 335.382907 500.82068 
L 337.761956 500.604143 
L 340.141006 500.130995 
L 342.520055 499.410646 
L 344.899104 498.453497 
L 347.278154 497.270855 
L 350.053711 495.622334 
L 352.829269 493.703945 
L 356.001335 491.20888 
L 359.173401 488.423472 
L 362.741975 484.986445 
L 366.707057 480.850478 
L 371.465156 475.542803 
L 377.412779 468.552884 
L 396.841682 445.451077 
L 402.392797 439.357379 
L 407.150896 434.451731 
L 411.908995 429.872798 
L 416.270585 425.974879 
L 420.632176 422.362292 
L 424.993766 419.022573 
L 429.751865 415.663432 
L 434.906472 412.311065 
L 440.854095 408.726161 
L 448.78426 404.212121 
L 449.180768 404.090625 
L 467.023638 404.090625 
L 467.023638 404.090625 
" clip-path="url(#p07490ce1ea)" style="fill: none; stroke: #777777; stroke-width: 1.5; stroke-linecap: square"/>
   </g>
   <g id="line2d_58">
    <path d="M 70.515411 404.090625 
L 89.944314 403.990498 
L 98.270987 403.288849 
L 103.425594 402.636599 
L 107.787185 401.864937 
L 111.752267 400.934816 
L 115.320841 399.873316 
L 118.889415 398.566209 
L 122.061481 397.173372 
L 125.233547 395.541975 
L 128.405612 393.653269 
L 131.577678 391.490502 
L 134.749744 389.039412 
L 137.92181 386.288751 
L 141.093876 383.230818 
L 144.265942 379.862001 
L 147.438007 376.183298 
L 151.006581 371.682147 
L 154.575155 366.813749 
L 158.540238 361.006385 
L 162.901828 354.19412 
L 168.056435 345.691559 
L 175.9866 332.087297 
L 183.520256 319.290558 
L 187.881847 312.294537 
L 191.450421 306.960846 
L 194.622486 302.607291 
L 197.398044 299.15844 
L 199.777093 296.509354 
L 202.156143 294.175626 
L 204.535192 292.18635 
L 206.517733 290.81177 
L 208.500274 289.71078 
L 210.482815 288.897564 
L 212.068848 288.463045 
L 213.654881 288.227304 
L 215.240914 288.196007 
L 216.826947 288.374272 
L 218.41298 288.766636 
L 219.999013 289.377026 
L 221.585046 290.208733 
L 223.171079 291.264387 
L 224.757112 292.545932 
L 226.739653 294.467349 
L 228.722194 296.744455 
L 230.704735 299.376298 
L 232.687276 302.360106 
L 235.066326 306.398642 
L 237.445375 310.925795 
L 239.824424 315.926305 
L 242.599982 322.332973 
L 245.375539 329.321586 
L 248.547605 337.966038 
L 251.719671 347.241203 
L 255.288245 358.326505 
L 259.649836 372.626842 
L 265.200951 391.635508 
L 279.078739 439.52359 
L 283.440329 453.619134 
L 287.008903 464.487093 
L 290.180969 473.534945 
L 293.353035 481.923443 
L 296.128592 488.66752 
L 298.90415 494.813269 
L 301.283199 499.579243 
L 303.662249 503.86376 
L 306.041298 507.653447 
L 308.023839 510.426512 
L 310.00638 512.845729 
L 311.988922 514.90942 
L 313.971463 516.617715 
L 315.557496 517.729686 
L 317.143528 518.61716 
L 318.729561 519.282596 
L 320.315594 519.729123 
L 321.901627 519.960511 
L 323.48766 519.981147 
L 325.073693 519.796006 
L 326.659726 519.410621 
L 328.245759 518.831049 
L 330.2283 517.843524 
L 332.210841 516.576614 
L 334.193382 515.045086 
L 336.572432 512.880028 
L 338.951481 510.384908 
L 341.33053 507.589408 
L 344.106088 503.989241 
L 347.278154 499.488959 
L 350.846728 494.023799 
L 355.208318 486.914737 
L 361.55245 476.093953 
L 371.861664 458.514642 
L 376.619763 450.840479 
L 380.981353 444.221466 
L 384.946435 438.618851 
L 388.515009 433.951818 
L 392.083583 429.662659 
L 395.255649 426.177254 
L 398.427715 423.002927 
L 401.599781 420.137733 
L 404.771847 417.575444 
L 407.943912 415.306077 
L 411.115978 413.316438 
L 414.288044 411.59065 
L 417.46011 410.110659 
L 420.632176 408.856695 
L 424.20075 407.689905 
L 427.769324 406.751159 
L 431.734406 405.936281 
L 436.095997 405.265322 
L 441.250603 404.696747 
L 448.78426 404.105979 
L 451.956326 404.090625 
L 467.023638 404.090625 
L 467.023638 404.090625 
" clip-path="url(#p07490ce1ea)" style="fill: none; stroke: #fbc15e; stroke-width: 1.5; stroke-linecap: square"/>
   </g>
   <g id="line2d_59">
    <path d="M 70.515411 404.090625 
L 89.151298 404.020446 
L 97.874479 402.919833 
L 103.029086 402.050748 
L 107.390676 401.094846 
L 111.355759 399.996646 
L 114.924333 398.784233 
L 118.492907 397.327996 
L 121.664973 395.805734 
L 124.837038 394.04976 
L 128.009104 392.043491 
L 131.18117 389.772629 
L 134.353236 387.225588 
L 137.525302 384.393934 
L 140.697368 381.272839 
L 143.869433 377.861523 
L 147.438007 373.681672 
L 151.006581 369.151958 
L 154.971664 363.734473 
L 159.333254 357.35673 
L 164.091353 349.985751 
L 170.435485 339.702816 
L 182.330731 320.311309 
L 186.692322 313.660292 
L 190.260896 308.594762 
L 193.432962 304.461671 
L 196.208519 301.18708 
L 198.984077 298.279145 
L 201.363126 296.111914 
L 203.742176 294.273138 
L 205.724717 293.010067 
L 207.707258 292.006574 
L 209.689799 291.275639 
L 211.275832 290.895239 
L 212.861865 290.702641 
L 214.447898 290.703034 
L 216.033931 290.901106 
L 217.619964 291.301019 
L 219.205996 291.906379 
L 220.792029 292.720214 
L 222.378062 293.74495 
L 224.360603 295.325142 
L 226.343145 297.239766 
L 228.325686 299.48934 
L 230.308227 302.072748 
L 232.290768 304.987209 
L 234.669817 308.915167 
L 237.048867 313.302461 
L 239.427916 318.134763 
L 242.203474 324.311063 
L 244.979031 331.03502 
L 248.151097 339.339069 
L 251.719671 349.389275 
L 255.684753 361.306583 
L 260.046344 375.134533 
L 265.993967 394.776982 
L 278.285722 435.606768 
L 283.043821 450.523731 
L 287.008903 462.21928 
L 290.577477 472.029828 
L 293.749543 480.092574 
L 296.525101 486.586341 
L 299.300658 492.517235 
L 301.679708 497.129038 
L 304.058757 501.28824 
L 306.437806 504.982233 
L 308.420347 507.698489 
L 310.402889 510.081823 
L 312.38543 512.130455 
L 314.367971 513.844254 
L 316.350512 515.224706 
L 317.936545 516.091062 
L 319.522578 516.74828 
L 321.108611 517.199239 
L 322.694644 517.447403 
L 324.280677 517.496796 
L 325.866709 517.351978 
L 327.452742 517.018016 
L 329.435284 516.343067 
L 331.417825 515.393077 
L 333.400366 514.180839 
L 335.382907 512.720038 
L 337.761956 510.659388 
L 340.141006 508.287931 
L 342.916563 505.164984 
L 345.692121 501.701195 
L 348.864187 497.384094 
L 352.432761 492.152829 
L 356.794351 485.357772 
L 363.138483 475.019906 
L 373.844205 457.567529 
L 378.998812 449.635289 
L 383.360402 443.33262 
L 387.325485 437.993394 
L 390.894059 433.539915 
L 394.462633 429.439811 
L 398.031207 425.703939 
L 401.203273 422.691703 
L 404.375338 419.967548 
L 407.547404 417.525241 
L 410.71947 415.355115 
L 413.891536 413.444514 
L 417.063602 411.778234 
L 420.632176 410.174059 
L 424.20075 408.829836 
L 427.769324 407.716118 
L 431.734406 406.711161 
L 436.095997 405.837143 
L 441.250603 405.036201 
L 448.78426 404.115385 
L 450.766801 404.090625 
L 467.023638 404.090625 
L 467.023638 404.090625 
" clip-path="url(#p07490ce1ea)" style="fill: none; stroke: #8eba42; stroke-width: 1.5; stroke-linecap: square"/>
   </g>
   <g id="line2d_60">
    <path d="M 70.515411 404.090625 
L 89.547806 404.005705 
L 98.270987 403.158477 
L 103.425594 402.430235 
L 107.787185 401.588407 
L 111.752267 400.589338 
L 115.320841 399.461681 
L 118.889415 398.08502 
L 122.061481 396.628181 
L 125.233547 394.931598 
L 128.405612 392.977565 
L 131.577678 390.750567 
L 134.749744 388.237739 
L 137.92181 385.429355 
L 141.093876 382.319324 
L 144.265942 378.90568 
L 147.438007 375.191058 
L 151.006581 370.662105 
L 154.575155 365.781243 
L 158.540238 359.980195 
L 162.901828 353.201612 
L 168.056435 344.777054 
L 178.365649 327.356448 
L 184.313272 317.581177 
L 188.278355 311.449554 
L 191.846929 306.328921 
L 195.018995 302.18013 
L 197.794552 298.920051 
L 200.173602 296.438269 
L 202.552651 294.275452 
L 204.535192 292.736737 
L 206.517733 291.453973 
L 208.500274 290.441571 
L 210.482815 289.713008 
L 212.068848 289.342916 
L 213.654881 289.168304 
L 215.240914 289.194512 
L 216.826947 289.426344 
L 218.41298 289.868041 
L 219.999013 290.523251 
L 221.585046 291.395008 
L 223.171079 292.485703 
L 225.15362 294.15953 
L 227.136161 296.179995 
L 229.118702 298.547289 
L 231.101243 301.259866 
L 233.083784 304.314425 
L 235.462834 308.42405 
L 237.841883 313.006618 
L 240.220932 318.046384 
L 242.99649 324.478019 
L 245.772048 331.468981 
L 248.944113 340.088596 
L 252.512687 350.501324 
L 256.47777 362.822259 
L 261.235868 378.408286 
L 267.976508 401.362595 
L 277.492706 433.735261 
L 282.250805 449.128664 
L 286.215887 461.228544 
L 289.784461 471.399664 
L 292.956527 479.774285 
L 295.732084 486.53041 
L 298.507642 492.710775 
L 300.886691 497.524135 
L 303.265741 501.871974 
L 305.64479 505.740354 
L 307.627331 508.590219 
L 309.609872 511.09591 
L 311.592413 513.25518 
L 313.574954 515.06753 
L 315.557496 516.534173 
L 317.143528 517.460465 
L 318.729561 518.169553 
L 320.315594 518.664309 
L 321.901627 518.948233 
L 323.48766 519.025418 
L 325.073693 518.900531 
L 326.659726 518.57878 
L 328.245759 518.065886 
L 330.2283 517.165458 
L 332.210841 515.989159 
L 334.193382 514.55104 
L 336.175923 512.866018 
L 338.554973 510.540185 
L 340.934022 507.909657 
L 343.70958 504.494703 
L 346.881645 500.194105 
L 350.45022 494.935153 
L 354.415302 488.689871 
L 359.966417 479.489517 
L 373.844205 456.250298 
L 378.602304 448.801205 
L 382.963894 442.400007 
L 386.928976 436.998122 
L 390.49755 432.509616 
L 394.066124 428.393756 
L 397.23819 425.055956 
L 400.410256 422.02169 
L 403.582322 419.287917 
L 406.754388 416.84759 
L 409.926454 414.690151 
L 413.098519 412.802028 
L 416.270585 411.167117 
L 419.442651 409.767233 
L 423.011225 408.448542 
L 426.579799 407.372009 
L 430.544881 406.421374 
L 434.906472 405.622368 
L 440.061079 404.93038 
L 446.801719 404.276671 
L 449.973784 404.090625 
L 467.023638 404.090625 
L 467.023638 404.090625 
" clip-path="url(#p07490ce1ea)" style="fill: none; stroke: #ffb5b8; stroke-width: 1.5; stroke-linecap: square"/>
   </g>
   <g id="line2d_61">
    <path d="M 70.515411 404.090625 
L 88.358282 404.090625 
L 88.75479 403.334316 
L 94.702413 402.696775 
L 100.253528 401.869728 
L 105.408135 400.869113 
L 110.166234 399.723668 
L 114.924333 398.347805 
L 119.682431 396.728858 
L 124.44053 394.859497 
L 129.198629 392.738703 
L 133.956728 390.372624 
L 139.111335 387.549024 
L 144.66245 384.238227 
L 151.006581 380.177147 
L 159.729762 374.296029 
L 171.228501 366.562908 
L 176.779616 363.090315 
L 181.537715 360.369566 
L 185.502797 358.339513 
L 189.071371 356.734329 
L 192.639945 355.370236 
L 195.812011 354.382954 
L 198.984077 353.62695 
L 202.156143 353.11914 
L 204.9317 352.890333 
L 207.707258 352.872 
L 210.482815 353.071678 
L 213.258373 353.49549 
L 216.033931 354.148054 
L 218.809488 355.032403 
L 221.585046 356.149925 
L 224.360603 357.500311 
L 227.136161 359.081524 
L 230.308227 361.166337 
L 233.480293 363.539206 
L 236.652358 366.188761 
L 240.220932 369.482407 
L 243.789506 373.083734 
L 247.754589 377.411231 
L 252.116179 382.516043 
L 257.270786 388.925632 
L 263.614918 397.203755 
L 281.854296 421.264841 
L 287.008903 427.559439 
L 291.370494 432.539629 
L 295.335576 436.734357 
L 298.90415 440.202221 
L 302.472724 443.351029 
L 305.64479 445.863843 
L 308.816856 448.093923 
L 311.988922 450.03136 
L 314.764479 451.481023 
L 317.540037 452.698482 
L 320.315594 453.68269 
L 323.091152 454.434314 
L 325.866709 454.955688 
L 328.642267 455.25076 
L 331.417825 455.325017 
L 334.193382 455.185403 
L 336.96894 454.840219 
L 340.141006 454.206304 
L 343.313071 453.332444 
L 346.485137 452.236363 
L 350.053711 450.761531 
L 354.018794 448.856701 
L 358.380384 446.486002 
L 363.138483 443.635821 
L 369.086106 439.796194 
L 378.998812 433.073085 
L 388.515009 426.708507 
L 394.859141 422.731237 
L 400.410256 419.515702 
L 405.564863 416.793664 
L 410.322962 414.528549 
L 415.081061 412.512201 
L 419.839159 410.747686 
L 424.597258 409.231244 
L 429.355357 407.953198 
L 434.113455 406.898968 
L 439.268062 405.988027 
L 444.819178 405.245529 
L 448.78426 404.846934 
L 449.180768 404.090625 
L 467.023638 404.090625 
L 467.023638 404.090625 
" clip-path="url(#p07490ce1ea)" style="fill: none; stroke: #e24a33; stroke-width: 1.5; stroke-linecap: square"/>
   </g>
   <g id="line2d_62">
    <path d="M 70.515411 404.090625 
L 88.358282 404.090625 
L 88.75479 397.880767 
L 94.702413 395.957512 
L 101.046545 393.660784 
L 107.787185 390.970112 
L 115.320841 387.707441 
L 124.44053 383.501361 
L 147.438007 372.770469 
L 154.178647 369.940207 
L 160.126271 367.690121 
L 165.280878 365.97575 
L 170.038976 364.621332 
L 174.400567 363.596226 
L 178.762157 362.798226 
L 182.72724 362.284679 
L 186.692322 361.98505 
L 190.657404 361.909387 
L 194.622486 362.065961 
L 198.587569 362.461141 
L 202.552651 363.099287 
L 206.517733 363.982659 
L 210.482815 365.111356 
L 214.447898 366.483274 
L 218.41298 368.09409 
L 222.378062 369.937267 
L 226.739653 372.222679 
L 231.101243 374.764111 
L 235.859342 377.807915 
L 241.013949 381.394782 
L 246.565064 385.55096 
L 252.909196 390.605822 
L 260.442852 396.91386 
L 287.80192 420.138631 
L 293.749543 424.743332 
L 299.300658 428.753151 
L 304.058757 431.929143 
L 308.816856 434.834127 
L 313.178446 437.237897 
L 317.540037 439.377333 
L 321.505119 441.082 
L 325.470201 442.550121 
L 329.435284 443.776483 
L 333.400366 444.758096 
L 337.365448 445.494181 
L 341.33053 445.98614 
L 345.295613 446.237502 
L 349.260695 446.253845 
L 353.225777 446.042694 
L 357.190859 445.613401 
L 361.55245 444.90245 
L 365.91404 443.95777 
L 370.672139 442.682781 
L 375.430238 441.178704 
L 380.584845 439.323929 
L 386.532468 436.941274 
L 393.669616 433.820728 
L 403.185814 429.38883 
L 422.218209 420.473809 
L 430.148373 417.046379 
L 436.889013 414.369906 
L 443.233145 412.088408 
L 448.78426 410.300483 
L 449.180768 404.090625 
L 467.023638 404.090625 
L 467.023638 404.090625 
" clip-path="url(#p07490ce1ea)" style="fill: none; stroke: #348abd; stroke-width: 1.5; stroke-linecap: square"/>
   </g>
   <g id="line2d_63">
    <path d="M 70.515411 404.090625 
L 467.023638 404.090625 
L 467.023638 404.090625 
" clip-path="url(#p07490ce1ea)" style="fill: none; stroke: #988ed5; stroke-width: 1.5; stroke-linecap: square"/>
   </g>
   <g id="patch_8">
    <path d="M 50.69 531.5875 
L 50.69 276.59375 
" style="fill: none; stroke: #ffffff; stroke-linejoin: miter; stroke-linecap: square"/>
   </g>
   <g id="patch_9">
    <path d="M 486.84905 531.5875 
L 486.84905 276.59375 
" style="fill: none; stroke: #ffffff; stroke-linejoin: miter; stroke-linecap: square"/>
   </g>
   <g id="patch_10">
    <path d="M 50.69 531.5875 
L 486.84905 531.5875 
" style="fill: none; stroke: #ffffff; stroke-linejoin: miter; stroke-linecap: square"/>
   </g>
   <g id="patch_11">
    <path d="M 50.69 276.59375 
L 486.84905 276.59375 
" style="fill: none; stroke: #ffffff; stroke-linejoin: miter; stroke-linecap: square"/>
   </g>
   <g id="legend_1">
    <g id="patch_12">
     <path d="M 232.358425 357.984375 
L 479.84905 357.984375 
Q 481.84905 357.984375 481.84905 355.984375 
L 481.84905 283.59375 
Q 481.84905 281.59375 479.84905 281.59375 
L 232.358425 281.59375 
Q 230.358425 281.59375 230.358425 283.59375 
L 230.358425 355.984375 
Q 230.358425 357.984375 232.358425 357.984375 
z
" style="fill: #e5e5e5; opacity: 0.8; stroke: #cccccc; stroke-width: 0.5; stroke-linejoin: miter"/>
    </g>
    <g id="line2d_64">
     <path d="M 234.358425 289.692188 
L 244.358425 289.692188 
L 254.358425 289.692188 
" style="fill: none; stroke: #e24a33; stroke-width: 1.5; stroke-linecap: square"/>
    </g>
    <g id="text_22">
     <!-- Hann -->
     <g transform="translate(262.358425 293.192188) scale(0.1 -0.1)">
      <defs>
       <path id="DejaVuSans-48" d="M 628 4666 
L 1259 4666 
L 1259 2753 
L 3553 2753 
L 3553 4666 
L 4184 4666 
L 4184 0 
L 3553 0 
L 3553 2222 
L 1259 2222 
L 1259 0 
L 628 0 
L 628 4666 
z
" transform="scale(0.015625)"/>
       <path id="DejaVuSans-61" d="M 2194 1759 
Q 1497 1759 1228 1600 
Q 959 1441 959 1056 
Q 959 750 1161 570 
Q 1363 391 1709 391 
Q 2188 391 2477 730 
Q 2766 1069 2766 1631 
L 2766 1759 
L 2194 1759 
z
M 3341 1997 
L 3341 0 
L 2766 0 
L 2766 531 
Q 2569 213 2275 61 
Q 1981 -91 1556 -91 
Q 1019 -91 701 211 
Q 384 513 384 1019 
Q 384 1609 779 1909 
Q 1175 2209 1959 2209 
L 2766 2209 
L 2766 2266 
Q 2766 2663 2505 2880 
Q 2244 3097 1772 3097 
Q 1472 3097 1187 3025 
Q 903 2953 641 2809 
L 641 3341 
Q 956 3463 1253 3523 
Q 1550 3584 1831 3584 
Q 2591 3584 2966 3190 
Q 3341 2797 3341 1997 
z
" transform="scale(0.015625)"/>
       <path id="DejaVuSans-6e" d="M 3513 2113 
L 3513 0 
L 2938 0 
L 2938 2094 
Q 2938 2591 2744 2837 
Q 2550 3084 2163 3084 
Q 1697 3084 1428 2787 
Q 1159 2491 1159 1978 
L 1159 0 
L 581 0 
L 581 3500 
L 1159 3500 
L 1159 2956 
Q 1366 3272 1645 3428 
Q 1925 3584 2291 3584 
Q 2894 3584 3203 3211 
Q 3513 2838 3513 2113 
z
" transform="scale(0.015625)"/>
      </defs>
      <use xlink:href="#DejaVuSans-48"/>
      <use xlink:href="#DejaVuSans-61" x="75.195312"/>
      <use xlink:href="#DejaVuSans-6e" x="136.474609"/>
      <use xlink:href="#DejaVuSans-6e" x="199.853516"/>
     </g>
    </g>
    <g id="line2d_65">
     <path d="M 234.358425 304.370313 
L 244.358425 304.370313 
L 254.358425 304.370313 
" style="fill: none; stroke: #348abd; stroke-width: 1.5; stroke-linecap: square"/>
    </g>
    <g id="text_23">
     <!-- Hamming -->
     <g transform="translate(262.358425 307.870313) scale(0.1 -0.1)">
      <defs>
       <path id="DejaVuSans-6d" d="M 3328 2828 
Q 3544 3216 3844 3400 
Q 4144 3584 4550 3584 
Q 5097 3584 5394 3201 
Q 5691 2819 5691 2113 
L 5691 0 
L 5113 0 
L 5113 2094 
Q 5113 2597 4934 2840 
Q 4756 3084 4391 3084 
Q 3944 3084 3684 2787 
Q 3425 2491 3425 1978 
L 3425 0 
L 2847 0 
L 2847 2094 
Q 2847 2600 2669 2842 
Q 2491 3084 2119 3084 
Q 1678 3084 1418 2786 
Q 1159 2488 1159 1978 
L 1159 0 
L 581 0 
L 581 3500 
L 1159 3500 
L 1159 2956 
Q 1356 3278 1631 3431 
Q 1906 3584 2284 3584 
Q 2666 3584 2933 3390 
Q 3200 3197 3328 2828 
z
" transform="scale(0.015625)"/>
       <path id="DejaVuSans-69" d="M 603 3500 
L 1178 3500 
L 1178 0 
L 603 0 
L 603 3500 
z
M 603 4863 
L 1178 4863 
L 1178 4134 
L 603 4134 
L 603 4863 
z
" transform="scale(0.015625)"/>
       <path id="DejaVuSans-67" d="M 2906 1791 
Q 2906 2416 2648 2759 
Q 2391 3103 1925 3103 
Q 1463 3103 1205 2759 
Q 947 2416 947 1791 
Q 947 1169 1205 825 
Q 1463 481 1925 481 
Q 2391 481 2648 825 
Q 2906 1169 2906 1791 
z
M 3481 434 
Q 3481 -459 3084 -895 
Q 2688 -1331 1869 -1331 
Q 1566 -1331 1297 -1286 
Q 1028 -1241 775 -1147 
L 775 -588 
Q 1028 -725 1275 -790 
Q 1522 -856 1778 -856 
Q 2344 -856 2625 -561 
Q 2906 -266 2906 331 
L 2906 616 
Q 2728 306 2450 153 
Q 2172 0 1784 0 
Q 1141 0 747 490 
Q 353 981 353 1791 
Q 353 2603 747 3093 
Q 1141 3584 1784 3584 
Q 2172 3584 2450 3431 
Q 2728 3278 2906 2969 
L 2906 3500 
L 3481 3500 
L 3481 434 
z
" transform="scale(0.015625)"/>
      </defs>
      <use xlink:href="#DejaVuSans-48"/>
      <use xlink:href="#DejaVuSans-61" x="75.195312"/>
      <use xlink:href="#DejaVuSans-6d" x="136.474609"/>
      <use xlink:href="#DejaVuSans-6d" x="233.886719"/>
      <use xlink:href="#DejaVuSans-69" x="331.298828"/>
      <use xlink:href="#DejaVuSans-6e" x="359.082031"/>
      <use xlink:href="#DejaVuSans-67" x="422.460938"/>
     </g>
    </g>
    <g id="line2d_66">
     <path d="M 234.358425 319.048438 
L 244.358425 319.048438 
L 254.358425 319.048438 
" style="fill: none; stroke: #988ed5; stroke-width: 1.5; stroke-linecap: square"/>
    </g>
    <g id="text_24">
     <!-- Blackman -->
     <g transform="translate(262.358425 322.548438) scale(0.1 -0.1)">
      <defs>
       <path id="DejaVuSans-42" d="M 1259 2228 
L 1259 519 
L 2272 519 
Q 2781 519 3026 730 
Q 3272 941 3272 1375 
Q 3272 1813 3026 2020 
Q 2781 2228 2272 2228 
L 1259 2228 
z
M 1259 4147 
L 1259 2741 
L 2194 2741 
Q 2656 2741 2882 2914 
Q 3109 3088 3109 3444 
Q 3109 3797 2882 3972 
Q 2656 4147 2194 4147 
L 1259 4147 
z
M 628 4666 
L 2241 4666 
Q 2963 4666 3353 4366 
Q 3744 4066 3744 3513 
Q 3744 3084 3544 2831 
Q 3344 2578 2956 2516 
Q 3422 2416 3680 2098 
Q 3938 1781 3938 1306 
Q 3938 681 3513 340 
Q 3088 0 2303 0 
L 628 0 
L 628 4666 
z
" transform="scale(0.015625)"/>
       <path id="DejaVuSans-6c" d="M 603 4863 
L 1178 4863 
L 1178 0 
L 603 0 
L 603 4863 
z
" transform="scale(0.015625)"/>
       <path id="DejaVuSans-63" d="M 3122 3366 
L 3122 2828 
Q 2878 2963 2633 3030 
Q 2388 3097 2138 3097 
Q 1578 3097 1268 2742 
Q 959 2388 959 1747 
Q 959 1106 1268 751 
Q 1578 397 2138 397 
Q 2388 397 2633 464 
Q 2878 531 3122 666 
L 3122 134 
Q 2881 22 2623 -34 
Q 2366 -91 2075 -91 
Q 1284 -91 818 406 
Q 353 903 353 1747 
Q 353 2603 823 3093 
Q 1294 3584 2113 3584 
Q 2378 3584 2631 3529 
Q 2884 3475 3122 3366 
z
" transform="scale(0.015625)"/>
       <path id="DejaVuSans-6b" d="M 581 4863 
L 1159 4863 
L 1159 1991 
L 2875 3500 
L 3609 3500 
L 1753 1863 
L 3688 0 
L 2938 0 
L 1159 1709 
L 1159 0 
L 581 0 
L 581 4863 
z
" transform="scale(0.015625)"/>
      </defs>
      <use xlink:href="#DejaVuSans-42"/>
      <use xlink:href="#DejaVuSans-6c" x="68.603516"/>
      <use xlink:href="#DejaVuSans-61" x="96.386719"/>
      <use xlink:href="#DejaVuSans-63" x="157.666016"/>
      <use xlink:href="#DejaVuSans-6b" x="212.646484"/>
      <use xlink:href="#DejaVuSans-6d" x="270.556641"/>
      <use xlink:href="#DejaVuSans-61" x="367.96875"/>
      <use xlink:href="#DejaVuSans-6e" x="429.248047"/>
     </g>
    </g>
    <g id="line2d_67">
     <path d="M 234.358425 333.726563 
L 244.358425 333.726563 
L 254.358425 333.726563 
" style="fill: none; stroke: #777777; stroke-width: 1.5; stroke-linecap: square"/>
    </g>
    <g id="text_25">
     <!-- Blackman exact -->
     <g transform="translate(262.358425 337.226563) scale(0.1 -0.1)">
      <defs>
       <path id="DejaVuSans-65" d="M 3597 1894 
L 3597 1613 
L 953 1613 
Q 991 1019 1311 708 
Q 1631 397 2203 397 
Q 2534 397 2845 478 
Q 3156 559 3463 722 
L 3463 178 
Q 3153 47 2828 -22 
Q 2503 -91 2169 -91 
Q 1331 -91 842 396 
Q 353 884 353 1716 
Q 353 2575 817 3079 
Q 1281 3584 2069 3584 
Q 2775 3584 3186 3129 
Q 3597 2675 3597 1894 
z
M 3022 2063 
Q 3016 2534 2758 2815 
Q 2500 3097 2075 3097 
Q 1594 3097 1305 2825 
Q 1016 2553 972 2059 
L 3022 2063 
z
" transform="scale(0.015625)"/>
       <path id="DejaVuSans-78" d="M 3513 3500 
L 2247 1797 
L 3578 0 
L 2900 0 
L 1881 1375 
L 863 0 
L 184 0 
L 1544 1831 
L 300 3500 
L 978 3500 
L 1906 2253 
L 2834 3500 
L 3513 3500 
z
" transform="scale(0.015625)"/>
       <path id="DejaVuSans-74" d="M 1172 4494 
L 1172 3500 
L 2356 3500 
L 2356 3053 
L 1172 3053 
L 1172 1153 
Q 1172 725 1289 603 
Q 1406 481 1766 481 
L 2356 481 
L 2356 0 
L 1766 0 
Q 1100 0 847 248 
Q 594 497 594 1153 
L 594 3053 
L 172 3053 
L 172 3500 
L 594 3500 
L 594 4494 
L 1172 4494 
z
" transform="scale(0.015625)"/>
      </defs>
      <use xlink:href="#DejaVuSans-42"/>
      <use xlink:href="#DejaVuSans-6c" x="68.603516"/>
      <use xlink:href="#DejaVuSans-61" x="96.386719"/>
      <use xlink:href="#DejaVuSans-63" x="157.666016"/>
      <use xlink:href="#DejaVuSans-6b" x="212.646484"/>
      <use xlink:href="#DejaVuSans-6d" x="270.556641"/>
      <use xlink:href="#DejaVuSans-61" x="367.96875"/>
      <use xlink:href="#DejaVuSans-6e" x="429.248047"/>
      <use xlink:href="#DejaVuSans-20" x="492.626953"/>
      <use xlink:href="#DejaVuSans-65" x="524.414062"/>
      <use xlink:href="#DejaVuSans-78" x="584.1875"/>
      <use xlink:href="#DejaVuSans-61" x="643.367188"/>
      <use xlink:href="#DejaVuSans-63" x="704.646484"/>
      <use xlink:href="#DejaVuSans-74" x="759.626953"/>
     </g>
    </g>
    <g id="line2d_68">
     <path d="M 234.358425 348.404688 
L 244.358425 348.404688 
L 254.358425 348.404688 
" style="fill: none; stroke: #fbc15e; stroke-width: 1.5; stroke-linecap: square"/>
    </g>
    <g id="text_26">
     <!-- Nuttall -->
     <g transform="translate(262.358425 351.904688) scale(0.1 -0.1)">
      <defs>
       <path id="DejaVuSans-4e" d="M 628 4666 
L 1478 4666 
L 3547 763 
L 3547 4666 
L 4159 4666 
L 4159 0 
L 3309 0 
L 1241 3903 
L 1241 0 
L 628 0 
L 628 4666 
z
" transform="scale(0.015625)"/>
       <path id="DejaVuSans-75" d="M 544 1381 
L 544 3500 
L 1119 3500 
L 1119 1403 
Q 1119 906 1312 657 
Q 1506 409 1894 409 
Q 2359 409 2629 706 
Q 2900 1003 2900 1516 
L 2900 3500 
L 3475 3500 
L 3475 0 
L 2900 0 
L 2900 538 
Q 2691 219 2414 64 
Q 2138 -91 1772 -91 
Q 1169 -91 856 284 
Q 544 659 544 1381 
z
M 1991 3584 
L 1991 3584 
z
" transform="scale(0.015625)"/>
      </defs>
      <use xlink:href="#DejaVuSans-4e"/>
      <use xlink:href="#DejaVuSans-75" x="74.804688"/>
      <use xlink:href="#DejaVuSans-74" x="138.183594"/>
      <use xlink:href="#DejaVuSans-74" x="177.392578"/>
      <use xlink:href="#DejaVuSans-61" x="216.601562"/>
      <use xlink:href="#DejaVuSans-6c" x="277.880859"/>
      <use xlink:href="#DejaVuSans-6c" x="305.664062"/>
     </g>
    </g>
    <g id="line2d_69">
     <path d="M 362.2428 289.692188 
L 372.2428 289.692188 
L 382.2428 289.692188 
" style="fill: none; stroke: #8eba42; stroke-width: 1.5; stroke-linecap: square"/>
    </g>
    <g id="text_27">
     <!-- Blackman–Nuttall -->
     <g transform="translate(390.2428 293.192188) scale(0.1 -0.1)">
      <defs>
       <path id="DejaVuSans-2013" d="M 313 1978 
L 2888 1978 
L 2888 1528 
L 313 1528 
L 313 1978 
z
" transform="scale(0.015625)"/>
      </defs>
      <use xlink:href="#DejaVuSans-42"/>
      <use xlink:href="#DejaVuSans-6c" x="68.603516"/>
      <use xlink:href="#DejaVuSans-61" x="96.386719"/>
      <use xlink:href="#DejaVuSans-63" x="157.666016"/>
      <use xlink:href="#DejaVuSans-6b" x="212.646484"/>
      <use xlink:href="#DejaVuSans-6d" x="270.556641"/>
      <use xlink:href="#DejaVuSans-61" x="367.96875"/>
      <use xlink:href="#DejaVuSans-6e" x="429.248047"/>
      <use xlink:href="#DejaVuSans-2013" x="492.626953"/>
      <use xlink:href="#DejaVuSans-4e" x="542.626953"/>
      <use xlink:href="#DejaVuSans-75" x="617.431641"/>
      <use xlink:href="#DejaVuSans-74" x="680.810547"/>
      <use xlink:href="#DejaVuSans-74" x="720.019531"/>
      <use xlink:href="#DejaVuSans-61" x="759.228516"/>
      <use xlink:href="#DejaVuSans-6c" x="820.507812"/>
      <use xlink:href="#DejaVuSans-6c" x="848.291016"/>
     </g>
    </g>
    <g id="line2d_70">
     <path d="M 362.2428 304.370313 
L 372.2428 304.370313 
L 382.2428 304.370313 
" style="fill: none; stroke: #ffb5b8; stroke-width: 1.5; stroke-linecap: square"/>
    </g>
    <g id="text_28">
     <!-- Blackman–Harris -->
     <g transform="translate(390.2428 307.870313) scale(0.1 -0.1)">
      <defs>
       <path id="DejaVuSans-72" d="M 2631 2963 
Q 2534 3019 2420 3045 
Q 2306 3072 2169 3072 
Q 1681 3072 1420 2755 
Q 1159 2438 1159 1844 
L 1159 0 
L 581 0 
L 581 3500 
L 1159 3500 
L 1159 2956 
Q 1341 3275 1631 3429 
Q 1922 3584 2338 3584 
Q 2397 3584 2469 3576 
Q 2541 3569 2628 3553 
L 2631 2963 
z
" transform="scale(0.015625)"/>
      </defs>
      <use xlink:href="#DejaVuSans-42"/>
      <use xlink:href="#DejaVuSans-6c" x="68.603516"/>
      <use xlink:href="#DejaVuSans-61" x="96.386719"/>
      <use xlink:href="#DejaVuSans-63" x="157.666016"/>
      <use xlink:href="#DejaVuSans-6b" x="212.646484"/>
      <use xlink:href="#DejaVuSans-6d" x="270.556641"/>
      <use xlink:href="#DejaVuSans-61" x="367.96875"/>
      <use xlink:href="#DejaVuSans-6e" x="429.248047"/>
      <use xlink:href="#DejaVuSans-2013" x="492.626953"/>
      <use xlink:href="#DejaVuSans-48" x="542.626953"/>
      <use xlink:href="#DejaVuSans-61" x="617.822266"/>
      <use xlink:href="#DejaVuSans-72" x="679.101562"/>
      <use xlink:href="#DejaVuSans-72" x="718.464844"/>
      <use xlink:href="#DejaVuSans-69" x="759.578125"/>
      <use xlink:href="#DejaVuSans-73" x="787.361328"/>
     </g>
    </g>
    <g id="line2d_71">
     <path d="M 362.2428 319.048438 
L 372.2428 319.048438 
L 382.2428 319.048438 
" style="fill: none; stroke: #e24a33; stroke-width: 1.5; stroke-linecap: square"/>
    </g>
    <g id="text_29">
     <!-- Kaiser(α = 3) -->
     <g transform="translate(390.2428 322.548438) scale(0.1 -0.1)">
      <defs>
       <path id="DejaVuSans-4b" d="M 628 4666 
L 1259 4666 
L 1259 2694 
L 3353 4666 
L 4166 4666 
L 1850 2491 
L 4331 0 
L 3500 0 
L 1259 2247 
L 1259 0 
L 628 0 
L 628 4666 
z
" transform="scale(0.015625)"/>
       <path id="DejaVuSans-3b1" d="M 2644 1628 
L 2506 2350 
Q 2366 3091 1809 3091 
Q 1391 3091 1200 2747 
Q 959 2316 959 1747 
Q 959 1059 1194 731 
Q 1431 397 1809 397 
Q 2228 397 2453 1063 
L 2644 1628 
z
M 2966 2584 
L 3275 3500 
L 3788 3500 
L 3147 1603 
L 3272 919 
Q 3300 766 3409 638 
Q 3538 488 3638 488 
L 3913 488 
L 3913 0 
L 3569 0 
Q 3275 0 3013 263 
Q 2884 394 2831 669 
Q 2688 322 2394 50 
Q 2256 -78 1809 -78 
Q 1075 -78 719 397 
Q 353 888 353 1747 
Q 353 2666 750 3097 
Q 1191 3578 1809 3578 
Q 2781 3578 2966 2584 
z
" transform="scale(0.015625)"/>
       <path id="DejaVuSans-3d" d="M 678 2906 
L 4684 2906 
L 4684 2381 
L 678 2381 
L 678 2906 
z
M 678 1631 
L 4684 1631 
L 4684 1100 
L 678 1100 
L 678 1631 
z
" transform="scale(0.015625)"/>
       <path id="DejaVuSans-33" d="M 2597 2516 
Q 3050 2419 3304 2112 
Q 3559 1806 3559 1356 
Q 3559 666 3084 287 
Q 2609 -91 1734 -91 
Q 1441 -91 1130 -33 
Q 819 25 488 141 
L 488 750 
Q 750 597 1062 519 
Q 1375 441 1716 441 
Q 2309 441 2620 675 
Q 2931 909 2931 1356 
Q 2931 1769 2642 2001 
Q 2353 2234 1838 2234 
L 1294 2234 
L 1294 2753 
L 1863 2753 
Q 2328 2753 2575 2939 
Q 2822 3125 2822 3475 
Q 2822 3834 2567 4026 
Q 2313 4219 1838 4219 
Q 1578 4219 1281 4162 
Q 984 4106 628 3988 
L 628 4550 
Q 988 4650 1302 4700 
Q 1616 4750 1894 4750 
Q 2613 4750 3031 4423 
Q 3450 4097 3450 3541 
Q 3450 3153 3228 2886 
Q 3006 2619 2597 2516 
z
" transform="scale(0.015625)"/>
      </defs>
      <use xlink:href="#DejaVuSans-4b"/>
      <use xlink:href="#DejaVuSans-61" x="63.826172"/>
      <use xlink:href="#DejaVuSans-69" x="125.105469"/>
      <use xlink:href="#DejaVuSans-73" x="152.888672"/>
      <use xlink:href="#DejaVuSans-65" x="204.988281"/>
      <use xlink:href="#DejaVuSans-72" x="266.511719"/>
      <use xlink:href="#DejaVuSans-28" x="307.625"/>
      <use xlink:href="#DejaVuSans-3b1" x="346.638672"/>
      <use xlink:href="#DejaVuSans-20" x="412.556641"/>
      <use xlink:href="#DejaVuSans-3d" x="444.34375"/>
      <use xlink:href="#DejaVuSans-20" x="528.132812"/>
      <use xlink:href="#DejaVuSans-33" x="559.919922"/>
      <use xlink:href="#DejaVuSans-29" x="623.542969"/>
     </g>
    </g>
    <g id="line2d_72">
     <path d="M 362.2428 333.726563 
L 372.2428 333.726563 
L 382.2428 333.726563 
" style="fill: none; stroke: #348abd; stroke-width: 1.5; stroke-linecap: square"/>
    </g>
    <g id="text_30">
     <!-- Kaiser(α = 2) -->
     <g transform="translate(390.2428 337.226563) scale(0.1 -0.1)">
      <use xlink:href="#DejaVuSans-4b"/>
      <use xlink:href="#DejaVuSans-61" x="63.826172"/>
      <use xlink:href="#DejaVuSans-69" x="125.105469"/>
      <use xlink:href="#DejaVuSans-73" x="152.888672"/>
      <use xlink:href="#DejaVuSans-65" x="204.988281"/>
      <use xlink:href="#DejaVuSans-72" x="266.511719"/>
      <use xlink:href="#DejaVuSans-28" x="307.625"/>
      <use xlink:href="#DejaVuSans-3b1" x="346.638672"/>
      <use xlink:href="#DejaVuSans-20" x="412.556641"/>
      <use xlink:href="#DejaVuSans-3d" x="444.34375"/>
      <use xlink:href="#DejaVuSans-20" x="528.132812"/>
      <use xlink:href="#DejaVuSans-32" x="559.919922"/>
      <use xlink:href="#DejaVuSans-29" x="623.542969"/>
     </g>
    </g>
    <g id="line2d_73">
     <path d="M 362.2428 348.404688 
L 372.2428 348.404688 
L 382.2428 348.404688 
" style="fill: none; stroke: #988ed5; stroke-width: 1.5; stroke-linecap: square"/>
    </g>
    <g id="text_31">
     <!-- Rectangular -->
     <g transform="translate(390.2428 351.904688) scale(0.1 -0.1)">
      <defs>
       <path id="DejaVuSans-52" d="M 2841 2188 
Q 3044 2119 3236 1894 
Q 3428 1669 3622 1275 
L 4263 0 
L 3584 0 
L 2988 1197 
Q 2756 1666 2539 1819 
Q 2322 1972 1947 1972 
L 1259 1972 
L 1259 0 
L 628 0 
L 628 4666 
L 2053 4666 
Q 2853 4666 3247 4331 
Q 3641 3997 3641 3322 
Q 3641 2881 3436 2590 
Q 3231 2300 2841 2188 
z
M 1259 4147 
L 1259 2491 
L 2053 2491 
Q 2509 2491 2742 2702 
Q 2975 2913 2975 3322 
Q 2975 3731 2742 3939 
Q 2509 4147 2053 4147 
L 1259 4147 
z
" transform="scale(0.015625)"/>
      </defs>
      <use xlink:href="#DejaVuSans-52"/>
      <use xlink:href="#DejaVuSans-65" x="64.982422"/>
      <use xlink:href="#DejaVuSans-63" x="126.505859"/>
      <use xlink:href="#DejaVuSans-74" x="181.486328"/>
      <use xlink:href="#DejaVuSans-61" x="220.695312"/>
      <use xlink:href="#DejaVuSans-6e" x="281.974609"/>
      <use xlink:href="#DejaVuSans-67" x="345.353516"/>
      <use xlink:href="#DejaVuSans-75" x="408.830078"/>
      <use xlink:href="#DejaVuSans-6c" x="472.208984"/>
      <use xlink:href="#DejaVuSans-61" x="499.992188"/>
      <use xlink:href="#DejaVuSans-72" x="561.271484"/>
     </g>
    </g>
   </g>
  </g>
 </g>
 <defs>
  <clipPath id="p6fe03602e0">
   <rect x="50.69" y="10.8" width="436.15905" height="254.99375"/>
  </clipPath>
  <clipPath id="p07490ce1ea">
   <rect x="50.69" y="276.59375" width="436.15905" height="254.99375"/>
  </clipPath>
 </defs>
</svg>
