<?xml version="1.0" encoding="utf-8" standalone="no"?>
<!DOCTYPE svg PUBLIC "-//W3C//DTD SVG 1.1//EN"
  "http://www.w3.org/Graphics/SVG/1.1/DTD/svg11.dtd">
<!-- Created with matplotlib (http://matplotlib.org/) -->
<svg height="345pt" version="1.1" viewBox="0 0 460 345" width="460pt" xmlns="http://www.w3.org/2000/svg" xmlns:xlink="http://www.w3.org/1999/xlink">
 <defs>
  <style type="text/css">
*{stroke-linecap:butt;stroke-linejoin:round;}
  </style>
 </defs>
 <g id="figure_1">
  <g id="patch_1">
   <path d="M 0 345.6 
L 460.8 345.6 
L 460.8 0 
L 0 0 
z
" style="fill:none;"/>
  </g>
  <g id="axes_1">
   <g id="patch_2">
    <path d="M 57.6 307.584 
L 414.72 307.584 
L 414.72 41.472 
L 57.6 41.472 
z
" style="fill:none;"/>
   </g>
   <g id="matplotlib.axis_1">
    <g id="xtick_1">
     <g id="line2d_1">
      <defs>
       <path d="M 0 0 
L 0 3.5 
" id="ma44676f956" style="stroke:#000000;stroke-width:0.8;"/>
      </defs>
      <g>
       <use style="stroke:#000000;stroke-width:0.8;" x="84.083462" xlink:href="#ma44676f956" y="307.584"/>
      </g>
     </g>
     <g id="text_1">
      <!-- −60 -->
      <defs>
       <path d="M 10.59375 35.5 
L 73.1875 35.5 
L 73.1875 27.203125 
L 10.59375 27.203125 
z
" id="DejaVuSans-2212"/>
       <path d="M 33.015625 40.375 
Q 26.375 40.375 22.484375 35.828125 
Q 18.609375 31.296875 18.609375 23.390625 
Q 18.609375 15.53125 22.484375 10.953125 
Q 26.375 6.390625 33.015625 6.390625 
Q 39.65625 6.390625 43.53125 10.953125 
Q 47.40625 15.53125 47.40625 23.390625 
Q 47.40625 31.296875 43.53125 35.828125 
Q 39.65625 40.375 33.015625 40.375 
z
M 52.59375 71.296875 
L 52.59375 62.3125 
Q 48.875 64.0625 45.09375 64.984375 
Q 41.3125 65.921875 37.59375 65.921875 
Q 27.828125 65.921875 22.671875 59.328125 
Q 17.53125 52.734375 16.796875 39.40625 
Q 19.671875 43.65625 24.015625 45.921875 
Q 28.375 48.1875 33.59375 48.1875 
Q 44.578125 48.1875 50.953125 41.515625 
Q 57.328125 34.859375 57.328125 23.390625 
Q 57.328125 12.15625 50.6875 5.359375 
Q 44.046875 -1.421875 33.015625 -1.421875 
Q 20.359375 -1.421875 13.671875 8.265625 
Q 6.984375 17.96875 6.984375 36.375 
Q 6.984375 53.65625 15.1875 63.9375 
Q 23.390625 74.21875 37.203125 74.21875 
Q 40.921875 74.21875 44.703125 73.484375 
Q 48.484375 72.75 52.59375 71.296875 
z
" id="DejaVuSans-36"/>
       <path d="M 31.78125 66.40625 
Q 24.171875 66.40625 20.328125 58.90625 
Q 16.5 51.421875 16.5 36.375 
Q 16.5 21.390625 20.328125 13.890625 
Q 24.171875 6.390625 31.78125 6.390625 
Q 39.453125 6.390625 43.28125 13.890625 
Q 47.125 21.390625 47.125 36.375 
Q 47.125 51.421875 43.28125 58.90625 
Q 39.453125 66.40625 31.78125 66.40625 
z
M 31.78125 74.21875 
Q 44.046875 74.21875 50.515625 64.515625 
Q 56.984375 54.828125 56.984375 36.375 
Q 56.984375 17.96875 50.515625 8.265625 
Q 44.046875 -1.421875 31.78125 -1.421875 
Q 19.53125 -1.421875 13.0625 8.265625 
Q 6.59375 17.96875 6.59375 36.375 
Q 6.59375 54.828125 13.0625 64.515625 
Q 19.53125 74.21875 31.78125 74.21875 
z
" id="DejaVuSans-30"/>
      </defs>
      <g transform="translate(73.531118 322.182437)scale(0.1 -0.1)">
       <use xlink:href="#DejaVuSans-2212"/>
       <use x="83.789062" xlink:href="#DejaVuSans-36"/>
       <use x="147.412109" xlink:href="#DejaVuSans-30"/>
      </g>
     </g>
    </g>
    <g id="xtick_2">
     <g id="line2d_2">
      <g>
       <use style="stroke:#000000;stroke-width:0.8;" x="134.775641" xlink:href="#ma44676f956" y="307.584"/>
      </g>
     </g>
     <g id="text_2">
      <!-- −40 -->
      <defs>
       <path d="M 37.796875 64.3125 
L 12.890625 25.390625 
L 37.796875 25.390625 
z
M 35.203125 72.90625 
L 47.609375 72.90625 
L 47.609375 25.390625 
L 58.015625 25.390625 
L 58.015625 17.1875 
L 47.609375 17.1875 
L 47.609375 0 
L 37.796875 0 
L 37.796875 17.1875 
L 4.890625 17.1875 
L 4.890625 26.703125 
z
" id="DejaVuSans-34"/>
      </defs>
      <g transform="translate(124.223298 322.182437)scale(0.1 -0.1)">
       <use xlink:href="#DejaVuSans-2212"/>
       <use x="83.789062" xlink:href="#DejaVuSans-34"/>
       <use x="147.412109" xlink:href="#DejaVuSans-30"/>
      </g>
     </g>
    </g>
    <g id="xtick_3">
     <g id="line2d_3">
      <g>
       <use style="stroke:#000000;stroke-width:0.8;" x="185.467821" xlink:href="#ma44676f956" y="307.584"/>
      </g>
     </g>
     <g id="text_3">
      <!-- −20 -->
      <defs>
       <path d="M 19.1875 8.296875 
L 53.609375 8.296875 
L 53.609375 0 
L 7.328125 0 
L 7.328125 8.296875 
Q 12.9375 14.109375 22.625 23.890625 
Q 32.328125 33.6875 34.8125 36.53125 
Q 39.546875 41.84375 41.421875 45.53125 
Q 43.3125 49.21875 43.3125 52.78125 
Q 43.3125 58.59375 39.234375 62.25 
Q 35.15625 65.921875 28.609375 65.921875 
Q 23.96875 65.921875 18.8125 64.3125 
Q 13.671875 62.703125 7.8125 59.421875 
L 7.8125 69.390625 
Q 13.765625 71.78125 18.9375 73 
Q 24.125 74.21875 28.421875 74.21875 
Q 39.75 74.21875 46.484375 68.546875 
Q 53.21875 62.890625 53.21875 53.421875 
Q 53.21875 48.921875 51.53125 44.890625 
Q 49.859375 40.875 45.40625 35.40625 
Q 44.1875 33.984375 37.640625 27.21875 
Q 31.109375 20.453125 19.1875 8.296875 
z
" id="DejaVuSans-32"/>
      </defs>
      <g transform="translate(174.915477 322.182437)scale(0.1 -0.1)">
       <use xlink:href="#DejaVuSans-2212"/>
       <use x="83.789062" xlink:href="#DejaVuSans-32"/>
       <use x="147.412109" xlink:href="#DejaVuSans-30"/>
      </g>
     </g>
    </g>
    <g id="xtick_4">
     <g id="line2d_4">
      <g>
       <use style="stroke:#000000;stroke-width:0.8;" x="236.16" xlink:href="#ma44676f956" y="307.584"/>
      </g>
     </g>
     <g id="text_4">
      <!-- 0 -->
      <g transform="translate(232.97875 322.182437)scale(0.1 -0.1)">
       <use xlink:href="#DejaVuSans-30"/>
      </g>
     </g>
    </g>
    <g id="xtick_5">
     <g id="line2d_5">
      <g>
       <use style="stroke:#000000;stroke-width:0.8;" x="286.852179" xlink:href="#ma44676f956" y="307.584"/>
      </g>
     </g>
     <g id="text_5">
      <!-- 20 -->
      <g transform="translate(280.489679 322.182437)scale(0.1 -0.1)">
       <use xlink:href="#DejaVuSans-32"/>
       <use x="63.623047" xlink:href="#DejaVuSans-30"/>
      </g>
     </g>
    </g>
    <g id="xtick_6">
     <g id="line2d_6">
      <g>
       <use style="stroke:#000000;stroke-width:0.8;" x="337.544359" xlink:href="#ma44676f956" y="307.584"/>
      </g>
     </g>
     <g id="text_6">
      <!-- 40 -->
      <g transform="translate(331.181859 322.182437)scale(0.1 -0.1)">
       <use xlink:href="#DejaVuSans-34"/>
       <use x="63.623047" xlink:href="#DejaVuSans-30"/>
      </g>
     </g>
    </g>
    <g id="xtick_7">
     <g id="line2d_7">
      <g>
       <use style="stroke:#000000;stroke-width:0.8;" x="388.236538" xlink:href="#ma44676f956" y="307.584"/>
      </g>
     </g>
     <g id="text_7">
      <!-- 60 -->
      <g transform="translate(381.874038 322.182437)scale(0.1 -0.1)">
       <use xlink:href="#DejaVuSans-36"/>
       <use x="63.623047" xlink:href="#DejaVuSans-30"/>
      </g>
     </g>
    </g>
    <g id="text_8">
     <!-- $t$ [fs] -->
     <defs>
      <path d="M 42.28125 54.6875 
L 40.921875 47.703125 
L 23 47.703125 
L 17.1875 18.015625 
Q 16.890625 16.359375 16.75 15.234375 
Q 16.609375 14.109375 16.609375 13.484375 
Q 16.609375 10.359375 18.484375 8.9375 
Q 20.359375 7.515625 24.515625 7.515625 
L 33.59375 7.515625 
L 32.078125 0 
L 23.484375 0 
Q 15.484375 0 11.546875 3.125 
Q 7.625 6.25 7.625 12.59375 
Q 7.625 13.71875 7.765625 15.0625 
Q 7.90625 16.40625 8.203125 18.015625 
L 14.015625 47.703125 
L 6.390625 47.703125 
L 7.8125 54.6875 
L 15.28125 54.6875 
L 18.3125 70.21875 
L 27.296875 70.21875 
L 24.3125 54.6875 
z
" id="DejaVuSans-Oblique-74"/>
      <path id="DejaVuSans-20"/>
      <path d="M 8.59375 75.984375 
L 29.296875 75.984375 
L 29.296875 69 
L 17.578125 69 
L 17.578125 -6.203125 
L 29.296875 -6.203125 
L 29.296875 -13.1875 
L 8.59375 -13.1875 
z
" id="DejaVuSans-5b"/>
      <path d="M 37.109375 75.984375 
L 37.109375 68.5 
L 28.515625 68.5 
Q 23.6875 68.5 21.796875 66.546875 
Q 19.921875 64.59375 19.921875 59.515625 
L 19.921875 54.6875 
L 34.71875 54.6875 
L 34.71875 47.703125 
L 19.921875 47.703125 
L 19.921875 0 
L 10.890625 0 
L 10.890625 47.703125 
L 2.296875 47.703125 
L 2.296875 54.6875 
L 10.890625 54.6875 
L 10.890625 58.5 
Q 10.890625 67.625 15.140625 71.796875 
Q 19.390625 75.984375 28.609375 75.984375 
z
" id="DejaVuSans-66"/>
      <path d="M 44.28125 53.078125 
L 44.28125 44.578125 
Q 40.484375 46.53125 36.375 47.5 
Q 32.28125 48.484375 27.875 48.484375 
Q 21.1875 48.484375 17.84375 46.4375 
Q 14.5 44.390625 14.5 40.28125 
Q 14.5 37.15625 16.890625 35.375 
Q 19.28125 33.59375 26.515625 31.984375 
L 29.59375 31.296875 
Q 39.15625 29.25 43.1875 25.515625 
Q 47.21875 21.78125 47.21875 15.09375 
Q 47.21875 7.46875 41.1875 3.015625 
Q 35.15625 -1.421875 24.609375 -1.421875 
Q 20.21875 -1.421875 15.453125 -0.5625 
Q 10.6875 0.296875 5.421875 2 
L 5.421875 11.28125 
Q 10.40625 8.6875 15.234375 7.390625 
Q 20.0625 6.109375 24.8125 6.109375 
Q 31.15625 6.109375 34.5625 8.28125 
Q 37.984375 10.453125 37.984375 14.40625 
Q 37.984375 18.0625 35.515625 20.015625 
Q 33.0625 21.96875 24.703125 23.78125 
L 21.578125 24.515625 
Q 13.234375 26.265625 9.515625 29.90625 
Q 5.8125 33.546875 5.8125 39.890625 
Q 5.8125 47.609375 11.28125 51.796875 
Q 16.75 56 26.8125 56 
Q 31.78125 56 36.171875 55.265625 
Q 40.578125 54.546875 44.28125 53.078125 
z
" id="DejaVuSans-73"/>
      <path d="M 30.421875 75.984375 
L 30.421875 -13.1875 
L 9.71875 -13.1875 
L 9.71875 -6.203125 
L 21.390625 -6.203125 
L 21.390625 69 
L 9.71875 69 
L 9.71875 75.984375 
z
" id="DejaVuSans-5d"/>
     </defs>
     <g transform="translate(224.31 335.860562)scale(0.1 -0.1)">
      <use transform="translate(0 0.015625)" xlink:href="#DejaVuSans-Oblique-74"/>
      <use transform="translate(39.208984 0.015625)" xlink:href="#DejaVuSans-20"/>
      <use transform="translate(70.996094 0.015625)" xlink:href="#DejaVuSans-5b"/>
      <use transform="translate(110.009766 0.015625)" xlink:href="#DejaVuSans-66"/>
      <use transform="translate(145.214844 0.015625)" xlink:href="#DejaVuSans-73"/>
      <use transform="translate(197.314453 0.015625)" xlink:href="#DejaVuSans-5d"/>
     </g>
    </g>
   </g>
   <g id="matplotlib.axis_2">
    <g id="ytick_1">
     <g id="line2d_8">
      <defs>
       <path d="M 0 0 
L -3.5 0 
" id="m864dcdf0cd" style="stroke:#000000;stroke-width:0.8;"/>
      </defs>
      <g>
       <use style="stroke:#000000;stroke-width:0.8;" x="57.6" xlink:href="#m864dcdf0cd" y="279.015664"/>
      </g>
     </g>
     <g id="text_9">
      <!-- −1.0 -->
      <defs>
       <path d="M 12.40625 8.296875 
L 28.515625 8.296875 
L 28.515625 63.921875 
L 10.984375 60.40625 
L 10.984375 69.390625 
L 28.421875 72.90625 
L 38.28125 72.90625 
L 38.28125 8.296875 
L 54.390625 8.296875 
L 54.390625 0 
L 12.40625 0 
z
" id="DejaVuSans-31"/>
       <path d="M 10.6875 12.40625 
L 21 12.40625 
L 21 0 
L 10.6875 0 
z
" id="DejaVuSans-2e"/>
      </defs>
      <g transform="translate(26.317187 282.814883)scale(0.1 -0.1)">
       <use xlink:href="#DejaVuSans-2212"/>
       <use x="83.789062" xlink:href="#DejaVuSans-31"/>
       <use x="147.412109" xlink:href="#DejaVuSans-2e"/>
       <use x="179.199219" xlink:href="#DejaVuSans-30"/>
      </g>
     </g>
    </g>
    <g id="ytick_2">
     <g id="line2d_9">
      <g>
       <use style="stroke:#000000;stroke-width:0.8;" x="57.6" xlink:href="#m864dcdf0cd" y="226.054111"/>
      </g>
     </g>
     <g id="text_10">
      <!-- −0.5 -->
      <defs>
       <path d="M 10.796875 72.90625 
L 49.515625 72.90625 
L 49.515625 64.59375 
L 19.828125 64.59375 
L 19.828125 46.734375 
Q 21.96875 47.46875 24.109375 47.828125 
Q 26.265625 48.1875 28.421875 48.1875 
Q 40.625 48.1875 47.75 41.5 
Q 54.890625 34.8125 54.890625 23.390625 
Q 54.890625 11.625 47.5625 5.09375 
Q 40.234375 -1.421875 26.90625 -1.421875 
Q 22.3125 -1.421875 17.546875 -0.640625 
Q 12.796875 0.140625 7.71875 1.703125 
L 7.71875 11.625 
Q 12.109375 9.234375 16.796875 8.0625 
Q 21.484375 6.890625 26.703125 6.890625 
Q 35.15625 6.890625 40.078125 11.328125 
Q 45.015625 15.765625 45.015625 23.390625 
Q 45.015625 31 40.078125 35.4375 
Q 35.15625 39.890625 26.703125 39.890625 
Q 22.75 39.890625 18.8125 39.015625 
Q 14.890625 38.140625 10.796875 36.28125 
z
" id="DejaVuSans-35"/>
      </defs>
      <g transform="translate(26.317187 229.853329)scale(0.1 -0.1)">
       <use xlink:href="#DejaVuSans-2212"/>
       <use x="83.789062" xlink:href="#DejaVuSans-30"/>
       <use x="147.412109" xlink:href="#DejaVuSans-2e"/>
       <use x="179.199219" xlink:href="#DejaVuSans-35"/>
      </g>
     </g>
    </g>
    <g id="ytick_3">
     <g id="line2d_10">
      <g>
       <use style="stroke:#000000;stroke-width:0.8;" x="57.6" xlink:href="#m864dcdf0cd" y="173.092557"/>
      </g>
     </g>
     <g id="text_11">
      <!-- 0.0 -->
      <g transform="translate(34.696875 176.891776)scale(0.1 -0.1)">
       <use xlink:href="#DejaVuSans-30"/>
       <use x="63.623047" xlink:href="#DejaVuSans-2e"/>
       <use x="95.410156" xlink:href="#DejaVuSans-30"/>
      </g>
     </g>
    </g>
    <g id="ytick_4">
     <g id="line2d_11">
      <g>
       <use style="stroke:#000000;stroke-width:0.8;" x="57.6" xlink:href="#m864dcdf0cd" y="120.131003"/>
      </g>
     </g>
     <g id="text_12">
      <!-- 0.5 -->
      <g transform="translate(34.696875 123.930222)scale(0.1 -0.1)">
       <use xlink:href="#DejaVuSans-30"/>
       <use x="63.623047" xlink:href="#DejaVuSans-2e"/>
       <use x="95.410156" xlink:href="#DejaVuSans-35"/>
      </g>
     </g>
    </g>
    <g id="ytick_5">
     <g id="line2d_12">
      <g>
       <use style="stroke:#000000;stroke-width:0.8;" x="57.6" xlink:href="#m864dcdf0cd" y="67.16945"/>
      </g>
     </g>
     <g id="text_13">
      <!-- 1.0 -->
      <g transform="translate(34.696875 70.968668)scale(0.1 -0.1)">
       <use xlink:href="#DejaVuSans-31"/>
       <use x="63.623047" xlink:href="#DejaVuSans-2e"/>
       <use x="95.410156" xlink:href="#DejaVuSans-30"/>
      </g>
     </g>
    </g>
   </g>
   <g id="line2d_13">
    <path clip-path="url(#pf9128523b2)" d="M 73.832727 173.092794 
L 113.814148 173.040084 
L 116.520166 172.695655 
L 117.602573 172.835158 
L 118.752631 173.233281 
L 120.849795 174.024131 
L 121.59395 174.026791 
L 122.270455 173.801365 
L 123.01461 173.297796 
L 124.097017 172.245963 
L 125.179425 171.277113 
L 125.788279 171.01536 
L 126.261832 171.039957 
L 126.735385 171.298315 
L 127.276589 171.888148 
L 127.953093 173.013031 
L 130.050257 176.889997 
L 130.45616 177.161732 
L 130.794412 177.155825 
L 131.132665 176.916136 
L 131.538568 176.308613 
L 132.012121 175.176078 
L 132.688625 172.916419 
L 134.379887 166.879291 
L 134.85344 166.040849 
L 135.124042 165.878107 
L 135.394644 165.975038 
L 135.665245 166.34536 
L 136.003498 167.197755 
L 136.477051 169.082782 
L 137.153555 172.902075 
L 138.844817 183.032126 
L 139.25072 184.254405 
L 139.521321 184.589498 
L 139.724273 184.561681 
L 139.927224 184.283465 
L 140.197826 183.516223 
L 140.603729 181.533583 
L 141.144932 177.510021 
L 142.024388 168.887558 
L 142.971495 160.12151 
L 143.445048 157.362246 
L 143.7833 156.43265 
L 143.986252 156.35109 
L 144.189203 156.646306 
L 144.459805 157.635969 
L 144.798057 159.813227 
L 145.27161 164.4527 
L 146.015765 174.39434 
L 147.233474 190.664402 
L 147.707027 194.379493 
L 148.045279 195.514446 
L 148.18058 195.571798 
L 148.315881 195.393525 
L 148.518832 194.679177 
L 148.857085 192.309177 
L 149.262987 187.648336 
L 149.871841 177.72535 
L 151.495452 149.418834 
L 151.901355 145.865353 
L 152.171957 144.900087 
L 152.307258 144.87351 
L 152.442559 145.159063 
L 152.64551 146.175583 
L 152.983763 149.405096 
L 153.457316 156.847785 
L 154.13382 171.695236 
L 155.351529 198.820175 
L 155.825082 204.960939 
L 156.095684 206.597996 
L 156.298635 206.832005 
L 156.433936 206.499576 
L 156.636887 205.264852 
L 156.97514 201.295485 
L 157.448693 192.142175 
L 158.192848 172.063591 
L 159.275255 143.381702 
L 159.748808 136.096673 
L 160.01941 134.232118 
L 160.154711 133.991749 
L 160.290012 134.226225 
L 160.492963 135.473455 
L 160.763565 138.778267 
L 161.169468 146.983559 
L 161.778322 164.910588 
L 163.198982 209.288783 
L 163.604884 215.947273 
L 163.875486 217.774291 
L 164.010787 217.836073 
L 164.146088 217.315751 
L 164.349039 215.442549 
L 164.687292 209.4967 
L 165.160845 195.945522 
L 165.97265 164.146141 
L 166.852106 132.410107 
L 167.258009 123.966172 
L 167.528611 121.573676 
L 167.663912 121.447083 
L 167.799213 122.055856 
L 168.002164 124.353914 
L 168.340416 131.768118 
L 168.81397 148.741649 
L 169.693426 191.433805 
L 170.437581 222.818367 
L 170.843483 232.020961 
L 171.046435 233.723097 
L 171.114085 233.824916 
L 171.249386 233.312823 
L 171.452337 230.742621 
L 171.722939 224.015783 
L 172.128842 207.519124 
L 172.805347 168.388725 
L 173.752453 114.945751 
L 174.158356 102.427722 
L 174.428958 99.60565 
L 174.496608 99.657323 
L 174.631909 100.69345 
L 174.83486 104.583166 
L 175.173113 117.066433 
L 175.646666 145.261354 
L 177.337927 258.264247 
L 177.608529 263.741191 
L 177.74383 264.219852 
L 177.879131 263.136649 
L 178.082082 258.572632 
L 178.420335 243.430071 
L 178.893888 208.840941 
L 180.585149 70.307253 
L 180.855751 63.457224 
L 180.991052 62.727989 
L 181.126353 63.850186 
L 181.329304 68.997996 
L 181.667556 86.387872 
L 182.14111 126.190066 
L 183.832371 285.429417 
L 184.102973 294.073195 
L 184.238274 295.488 
L 184.305924 295.451319 
L 184.441225 293.888819 
L 184.644177 287.882787 
L 184.982429 268.751729 
L 185.455982 226.499741 
L 187.079593 67.731501 
L 187.417845 55.413029 
L 187.620797 53.568 
L 187.756098 54.678433 
L 187.959049 59.764966 
L 188.297301 76.672133 
L 188.770855 114.462752 
L 190.394466 259.002364 
L 190.732718 271.949141 
L 191.00332 275.391443 
L 191.07097 275.280965 
L 191.206271 273.917743 
L 191.409222 269.120414 
L 191.747475 254.481867 
L 192.288678 218.017628 
L 193.709338 113.531734 
L 194.115241 98.074186 
L 194.385843 93.513875 
L 194.521143 93.008791 
L 194.656444 93.669791 
L 194.859396 96.77017 
L 195.197648 107.079938 
L 195.671201 130.099451 
L 197.430113 226.131909 
L 197.768365 233.708063 
L 197.971317 235.49681 
L 198.038967 235.625506 
L 198.106618 235.521652 
L 198.241919 234.624982 
L 198.44487 231.611104 
L 198.783122 222.514016 
L 199.324326 199.753686 
L 200.812636 131.321146 
L 201.218539 122.931603 
L 201.42149 121.453355 
L 201.489141 121.377408 
L 201.624441 121.849008 
L 201.827393 124.083311 
L 202.165645 131.592693 
L 202.639198 148.51441 
L 204.262809 212.685229 
L 204.601062 217.484628 
L 204.804013 218.044222 
L 204.939314 217.436139 
L 205.142265 215.09005 
L 205.480518 207.659277 
L 205.954071 191.467513 
L 207.37473 139.056419 
L 207.712983 133.744818 
L 207.915934 132.730204 
L 207.983584 132.765388 
L 208.118885 133.39305 
L 208.321837 135.692046 
L 208.660089 142.835592 
L 209.201293 160.706237 
L 210.419001 202.859551 
L 210.757253 208.522184 
L 210.960205 209.894926 
L 211.027855 209.99985 
L 211.095506 209.927719 
L 211.230806 209.256471 
L 211.433758 206.969691 
L 211.77201 200.057761 
L 212.313214 183.092344 
L 213.395621 147.466256 
L 213.801524 140.540667 
L 214.072126 139.090739 
L 214.139776 139.145336 
L 214.275077 139.752682 
L 214.478028 141.873598 
L 214.816281 148.33602 
L 215.357484 164.218285 
L 216.439892 197.200559 
L 216.845794 203.344114 
L 217.048746 204.395864 
L 217.116396 204.432145 
L 217.251697 204.033836 
L 217.454649 202.287148 
L 217.792901 196.57289 
L 218.334104 182.040278 
L 219.416512 151.201293 
L 219.822415 145.361558 
L 220.025366 144.330962 
L 220.093016 144.282061 
L 220.228317 144.625964 
L 220.431269 146.220139 
L 220.769521 151.506011 
L 221.310725 164.999304 
L 222.393132 193.425685 
L 222.799035 198.633472 
L 223.001986 199.461681 
L 223.069636 199.462343 
L 223.204937 199.052329 
L 223.407889 197.437416 
L 223.746141 192.329551 
L 224.287345 179.633335 
L 225.302102 154.951863 
L 225.708004 149.927585 
L 225.910956 149.056078 
L 225.978606 149.021378 
L 226.113907 149.334971 
L 226.316858 150.73827 
L 226.655111 155.338163 
L 227.196314 166.948837 
L 228.211071 189.622778 
L 228.616974 194.192275 
L 228.819925 194.954453 
L 228.887576 194.971576 
L 229.022877 194.65168 
L 229.225828 193.311069 
L 229.56408 189.0007 
L 230.105284 178.255661 
L 231.120041 157.713155 
L 231.525944 153.799792 
L 231.728895 153.261503 
L 231.864196 153.448806 
L 232.067147 154.529792 
L 232.4054 158.27649 
L 232.946603 167.93564 
L 233.96136 186.80044 
L 234.367263 190.468839 
L 234.570214 191.003469 
L 234.705515 190.857963 
L 234.908467 189.903533 
L 235.179068 187.359913 
L 235.652622 180.193658 
L 236.87033 159.88808 
L 237.208582 157.386904 
L 237.411533 156.957196 
L 237.546834 157.130209 
L 237.749786 158.06094 
L 238.088038 161.234446 
L 238.629242 169.311585 
L 239.576348 183.903205 
L 239.982251 187.07217 
L 240.185202 187.576128 
L 240.320503 187.492445 
L 240.523455 186.750058 
L 240.794056 184.694101 
L 241.26761 178.822836 
L 242.485318 162.289767 
L 242.82357 160.368793 
L 243.026521 160.112107 
L 243.161822 160.322098 
L 243.364774 161.189144 
L 243.703026 163.950196 
L 244.24423 170.709246 
L 245.123686 181.707589 
L 245.529588 184.293998 
L 245.73254 184.693642 
L 245.867841 184.613385 
L 246.070792 183.98464 
L 246.341394 182.271806 
L 246.814947 177.434518 
L 247.965005 164.673957 
L 248.303257 163.008214 
L 248.506208 162.741196 
L 248.641509 162.876689 
L 248.844461 163.535589 
L 249.182713 165.722935 
L 249.723917 171.16403 
L 250.603373 180.009304 
L 251.009275 182.028923 
L 251.212227 182.30405 
L 251.347528 182.204206 
L 251.550479 181.641634 
L 251.888731 179.714559 
L 252.429935 174.860123 
L 253.309391 166.940286 
L 253.715294 165.145534 
L 253.918245 164.910987 
L 254.053546 165.009741 
L 254.256497 165.528888 
L 254.59475 167.279977 
L 255.135953 171.648427 
L 256.015409 178.661416 
L 256.353662 180.037079 
L 256.556613 180.335155 
L 256.691914 180.304364 
L 256.894865 179.92097 
L 257.165467 178.830171 
L 257.63902 175.7128 
L 258.721428 167.977392 
L 259.05968 166.863863 
L 259.262631 166.674824 
L 259.397932 166.754492 
L 259.600884 167.172769 
L 259.939136 168.580653 
L 260.480339 172.072799 
L 261.292145 177.26639 
L 261.698048 178.581329 
L 261.900999 178.761855 
L 262.10395 178.611734 
L 262.374552 177.924905 
L 262.780455 176.040103 
L 264.201115 168.498859 
L 264.471716 168.107848 
L 264.674668 168.159136 
L 264.877619 168.498132 
L 265.215871 169.627649 
L 265.824726 172.785275 
L 266.568881 176.440352 
L 266.907133 177.308339 
L 267.177735 177.493702 
L 267.380686 177.326286 
L 267.651288 176.722373 
L 268.057191 175.166034 
L 269.342549 169.677168 
L 269.680802 169.231169 
L 269.883753 169.275278 
L 270.154355 169.685691 
L 270.560258 170.931425 
L 272.048568 176.302347 
L 272.31917 176.493617 
L 272.522121 176.393913 
L 272.792723 175.955727 
L 273.198625 174.770377 
L 274.483984 170.472248 
L 274.822236 170.118672 
L 275.025188 170.152472 
L 275.29579 170.474777 
L 275.701692 171.452894 
L 277.122352 175.51089 
L 277.392954 175.702376 
L 277.663556 175.602778 
L 278.001808 175.100065 
L 278.475361 173.88421 
L 279.490118 171.205732 
L 279.82837 170.840724 
L 280.098972 170.835714 
L 280.369574 171.081008 
L 280.775477 171.837631 
L 282.196136 174.958231 
L 282.534389 175.088022 
L 282.80499 174.937749 
L 283.143243 174.469706 
L 283.752097 173.150439 
L 284.496252 171.683485 
L 284.834504 171.382275 
L 285.105106 171.364527 
L 285.443358 171.61577 
L 285.916911 172.367623 
L 287.066969 174.403917 
L 287.405222 174.607212 
L 287.743474 174.534953 
L 288.081726 174.209487 
L 288.69058 173.21833 
L 289.434735 172.059985 
L 289.840638 171.78201 
L 290.17889 171.815081 
L 290.584793 172.151065 
L 291.261298 173.138616 
L 291.937802 174.023803 
L 292.343705 174.240919 
L 292.681957 174.188067 
L 293.08786 173.869542 
L 293.899665 172.811268 
L 294.50852 172.202037 
L 294.914422 172.088491 
L 295.320325 172.241261 
L 295.861529 172.762293 
L 296.876286 173.823622 
L 297.282188 173.965 
L 297.688091 173.870843 
L 298.161644 173.513089 
L 299.447003 172.391827 
L 299.852906 172.340688 
L 300.326459 172.533334 
L 301.070614 173.1638 
L 301.814769 173.682922 
L 302.288322 173.74257 
L 302.761875 173.564986 
L 303.641331 172.906944 
L 304.317836 172.552181 
L 304.791389 172.545408 
L 305.332593 172.777637 
L 306.820903 173.57926 
L 307.362106 173.521154 
L 308.038611 173.183292 
L 309.053368 172.695023 
L 309.594572 172.687174 
L 310.271076 172.939314 
L 311.488784 173.447411 
L 312.097639 173.416943 
L 312.909444 173.101217 
L 313.85655 172.784656 
L 314.465405 172.813993 
L 315.34486 173.117359 
L 316.224316 173.360651 
L 316.900821 173.315758 
L 319.200937 172.892975 
L 321.636353 173.246534 
L 323.801168 172.938247 
L 326.439536 173.179418 
L 328.266098 172.967036 
L 329.889709 173.189129 
L 330.904466 173.17126 
L 333.136931 173.020469 
L 335.504697 173.14635 
L 337.737162 173.044193 
L 340.104928 173.126168 
L 342.337393 173.063046 
L 344.705159 173.110369 
L 347.005275 173.081093 
L 349.373041 173.095467 
L 351.740807 173.096339 
L 354.176223 173.081884 
L 357.085193 173.111531 
L 398.487273 173.0927 
L 398.487273 173.0927 
" style="fill:none;stroke:#1f77b4;stroke-linecap:square;stroke-width:1.5;"/>
   </g>
   <g id="line2d_14">
    <path clip-path="url(#pf9128523b2)" d="M 73.832727 173.092319 
L 113.814148 173.14503 
L 116.520166 173.489459 
L 117.602573 173.349956 
L 118.752631 172.951833 
L 120.849795 172.160982 
L 121.59395 172.158323 
L 122.270455 172.383749 
L 123.01461 172.887318 
L 124.097017 173.939151 
L 125.179425 174.908001 
L 125.788279 175.169754 
L 126.261832 175.145157 
L 126.735385 174.886799 
L 127.276589 174.296966 
L 127.953093 173.172082 
L 130.050257 169.295117 
L 130.45616 169.023381 
L 130.794412 169.029289 
L 131.132665 169.268978 
L 131.538568 169.876501 
L 132.012121 171.009036 
L 132.688625 173.268695 
L 134.379887 179.305823 
L 134.85344 180.144265 
L 135.124042 180.307007 
L 135.394644 180.210076 
L 135.665245 179.839753 
L 136.003498 178.987359 
L 136.477051 177.102332 
L 137.153555 173.28304 
L 138.844817 163.152987 
L 139.25072 161.930707 
L 139.521321 161.595613 
L 139.724273 161.623429 
L 139.927224 161.901645 
L 140.197826 162.668887 
L 140.603729 164.651526 
L 141.144932 168.67509 
L 142.024388 177.297564 
L 142.971495 186.063639 
L 143.445048 188.822918 
L 143.7833 189.752519 
L 143.986252 189.83408 
L 144.189203 189.53886 
L 144.459805 188.549185 
L 144.798057 186.371898 
L 145.27161 181.732348 
L 146.015765 171.790505 
L 147.233474 155.520137 
L 147.707027 151.805145 
L 148.045279 150.670423 
L 148.18058 150.61321 
L 148.315881 150.791652 
L 148.518832 151.50631 
L 148.857085 153.876979 
L 149.262987 158.53884 
L 149.871841 168.46352 
L 151.495452 196.767706 
L 151.901355 200.316828 
L 152.171957 201.278125 
L 152.307258 201.302431 
L 152.442559 201.014445 
L 152.64551 199.994045 
L 152.983763 196.757832 
L 153.457316 189.306969 
L 154.13382 174.45714 
L 155.351529 147.389647 
L 155.825082 141.296556 
L 156.095684 139.690342 
L 156.298635 139.479565 
L 156.433936 139.826868 
L 156.636887 141.081945 
L 156.97514 145.076111 
L 157.448693 154.231575 
L 158.192848 174.19159 
L 159.275255 202.395759 
L 159.748808 209.424263 
L 160.01941 211.164228 
L 160.154711 211.354744 
L 160.290012 211.081587 
L 160.492963 209.802067 
L 160.763565 206.513425 
L 161.169468 198.489769 
L 161.778322 181.248534 
L 163.131331 141.112751 
L 163.604884 133.638359 
L 163.875486 131.952509 
L 164.010787 131.867259 
L 164.146088 132.292826 
L 164.349039 133.878557 
L 164.687292 138.927179 
L 165.160845 150.329558 
L 166.040301 178.964476 
L 166.852106 203.136262 
L 167.32566 211.813365 
L 167.663912 214.592318 
L 167.799213 214.847155 
L 167.934514 214.608965 
L 168.137465 213.341959 
L 168.408067 210.031067 
L 168.81397 201.984905 
L 169.422824 184.890435 
L 170.911134 141.161298 
L 171.384687 133.226678 
L 171.722939 130.497094 
L 171.925891 130.127588 
L 172.061192 130.420614 
L 172.264143 131.669035 
L 172.534745 134.8182 
L 172.940647 142.550792 
L 173.481851 157.696688 
L 174.428958 191.976688 
L 175.308413 221.071089 
L 175.781967 230.197128 
L 176.052569 232.186256 
L 176.120219 232.263266 
L 176.25552 231.884158 
L 176.458471 229.938149 
L 176.729073 224.703949 
L 177.134976 211.28179 
L 177.67618 184.408861 
L 179.367441 92.705536 
L 179.705693 86.479078 
L 179.840994 86.039177 
L 179.976295 86.845895 
L 180.179246 90.443248 
L 180.449848 99.672745 
L 180.855751 122.314863 
L 181.464605 170.82831 
L 182.547012 258.618431 
L 182.952915 276.792216 
L 183.223517 281.39096 
L 183.291167 281.51475 
L 183.426468 280.50216 
L 183.62942 275.83567 
L 183.900022 263.932229 
L 184.305924 235.345633 
L 185.050079 162.534664 
L 185.861885 88.638587 
L 186.267788 67.420559 
L 186.538389 61.699416 
L 186.60604 61.397601 
L 186.67369 61.552066 
L 186.808991 63.223713 
L 187.011943 69.063022 
L 187.350195 86.996637 
L 187.891399 132.058045 
L 189.176757 247.935242 
L 189.58266 265.797129 
L 189.853262 269.55669 
L 189.920912 269.444018 
L 190.056213 267.973188 
L 190.259165 262.760982 
L 190.597417 246.854558 
L 191.138621 207.755118 
L 192.288678 120.634465 
L 192.694581 104.661354 
L 192.965183 100.742252 
L 193.032833 100.630681 
L 193.168134 101.432154 
L 193.371086 105.099002 
L 193.709338 117.084547 
L 194.250542 147.144089 
L 195.332949 209.860344 
L 195.738852 222.124208 
L 196.009453 224.999107 
L 196.077104 225.033933 
L 196.212405 224.297912 
L 196.415356 221.261171 
L 196.753609 211.626981 
L 197.294812 187.943008 
L 198.309569 142.69146 
L 198.715472 133.440065 
L 198.918423 131.718284 
L 198.986074 131.593381 
L 199.053724 131.692419 
L 199.189025 132.552979 
L 199.459627 136.797592 
L 199.86553 148.544511 
L 200.677335 181.827344 
L 201.286189 203.218972 
L 201.692092 210.8159 
L 201.895043 212.035984 
L 201.962694 212.042584 
L 202.097995 211.457388 
L 202.300946 209.121506 
L 202.639198 201.680947 
L 203.180402 182.978833 
L 204.33046 141.698322 
L 204.668712 135.772775 
L 204.871663 134.376588 
L 204.939314 134.288507 
L 205.074615 134.68061 
L 205.277566 136.664002 
L 205.615818 143.414571 
L 206.089372 158.526111 
L 207.442381 205.256627 
L 207.780633 210.21772 
L 207.983584 211.076457 
L 208.051235 210.997973 
L 208.186536 210.29667 
L 208.389487 207.920237 
L 208.727739 200.741481 
L 209.268943 183.092303 
L 210.419001 144.236627 
L 210.824904 137.853841 
L 211.027855 136.926036 
L 211.095506 136.966604 
L 211.230806 137.57031 
L 211.433758 139.748387 
L 211.77201 146.473917 
L 212.313214 163.174084 
L 213.463272 200.049443 
L 213.869174 206.064997 
L 214.072126 206.914452 
L 214.139776 206.864676 
L 214.275077 206.268585 
L 214.478028 204.167671 
L 214.816281 197.743136 
L 215.357484 181.920708 
L 216.439892 149.010193 
L 216.845794 142.874125 
L 217.048746 141.823037 
L 217.116396 141.786604 
L 217.251697 142.18413 
L 217.454649 143.928644 
L 217.792901 149.637437 
L 218.334104 164.159463 
L 219.416512 194.982595 
L 219.822415 200.819745 
L 220.025366 201.84967 
L 220.093016 201.898428 
L 220.228317 201.554344 
L 220.431269 199.960131 
L 220.769521 194.674674 
L 221.310725 181.182727 
L 222.393132 152.759015 
L 222.799035 147.551795 
L 223.001986 146.723772 
L 223.069636 146.723157 
L 223.204937 147.13325 
L 223.407889 148.748238 
L 223.746141 153.856137 
L 224.287345 166.552253 
L 225.302102 191.233404 
L 225.708004 196.257585 
L 225.910956 197.129056 
L 225.978606 197.163746 
L 226.113907 196.850135 
L 226.316858 195.446815 
L 226.655111 190.846901 
L 227.196314 179.236222 
L 228.211071 156.562308 
L 228.616974 151.992823 
L 228.819925 151.230651 
L 228.887576 151.213529 
L 229.022877 151.533428 
L 229.225828 152.874043 
L 229.56408 157.184415 
L 230.105284 167.929457 
L 231.120041 188.471962 
L 231.525944 192.385324 
L 231.728895 192.923613 
L 231.864196 192.736309 
L 232.067147 191.655323 
L 232.4054 187.908624 
L 232.946603 178.249473 
L 233.96136 159.384674 
L 234.367263 155.716275 
L 234.570214 155.181645 
L 234.705515 155.327151 
L 234.908467 156.28158 
L 235.179068 158.8252 
L 235.652622 165.991456 
L 236.87033 186.297034 
L 237.208582 188.798209 
L 237.411533 189.227918 
L 237.546834 189.054905 
L 237.749786 188.124174 
L 238.088038 184.950668 
L 238.629242 176.873529 
L 239.576348 162.281909 
L 239.982251 159.112943 
L 240.185202 158.608986 
L 240.320503 158.692669 
L 240.523455 159.435056 
L 240.794056 161.491013 
L 241.26761 167.362278 
L 242.485318 183.895347 
L 242.82357 185.816321 
L 243.026521 186.073007 
L 243.161822 185.863016 
L 243.364774 184.995969 
L 243.703026 182.234918 
L 244.24423 175.475868 
L 245.123686 164.477525 
L 245.529588 161.891116 
L 245.73254 161.491471 
L 245.867841 161.571729 
L 246.070792 162.200474 
L 246.341394 163.913308 
L 246.814947 168.750595 
L 247.965005 181.511156 
L 248.303257 183.1769 
L 248.506208 183.443918 
L 248.641509 183.308425 
L 248.844461 182.649525 
L 249.182713 180.462179 
L 249.723917 175.021084 
L 250.603373 166.17581 
L 251.009275 164.156191 
L 251.212227 163.881064 
L 251.347528 163.980908 
L 251.550479 164.54348 
L 251.888731 166.470555 
L 252.429935 171.324991 
L 253.309391 179.244828 
L 253.715294 181.03958 
L 253.918245 181.274126 
L 254.053546 181.175373 
L 254.256497 180.656226 
L 254.59475 178.905137 
L 255.135953 174.536687 
L 256.015409 167.523698 
L 256.353662 166.148034 
L 256.556613 165.849959 
L 256.691914 165.88075 
L 256.894865 166.264144 
L 257.165467 167.354943 
L 257.63902 170.472314 
L 258.721428 178.207722 
L 259.05968 179.32125 
L 259.262631 179.51029 
L 259.397932 179.430622 
L 259.600884 179.012345 
L 259.939136 177.604461 
L 260.480339 174.112314 
L 261.292145 168.918724 
L 261.698048 167.603785 
L 261.900999 167.423259 
L 262.10395 167.57338 
L 262.374552 168.260209 
L 262.780455 170.145011 
L 264.201115 177.686254 
L 264.471716 178.077266 
L 264.674668 178.025978 
L 264.877619 177.686982 
L 265.215871 176.557465 
L 265.824726 173.399839 
L 266.568881 169.744762 
L 266.907133 168.876775 
L 267.177735 168.691412 
L 267.380686 168.858828 
L 267.651288 169.462741 
L 268.057191 171.01908 
L 269.342549 176.507946 
L 269.680802 176.953945 
L 269.883753 176.909836 
L 270.154355 176.499423 
L 270.560258 175.253689 
L 272.048568 169.882767 
L 272.31917 169.691497 
L 272.522121 169.791201 
L 272.792723 170.229386 
L 273.198625 171.414737 
L 274.483984 175.712866 
L 274.822236 176.066442 
L 275.025188 176.032641 
L 275.29579 175.710337 
L 275.701692 174.73222 
L 277.122352 170.674224 
L 277.392954 170.482738 
L 277.663556 170.582336 
L 278.001808 171.085049 
L 278.475361 172.300904 
L 279.490118 174.979382 
L 279.82837 175.34439 
L 280.098972 175.349399 
L 280.369574 175.104106 
L 280.775477 174.347483 
L 282.196136 171.226883 
L 282.534389 171.097092 
L 282.80499 171.247365 
L 283.143243 171.715407 
L 283.752097 173.034675 
L 284.496252 174.501629 
L 284.834504 174.802839 
L 285.105106 174.820587 
L 285.443358 174.569344 
L 285.916911 173.817491 
L 287.066969 171.781197 
L 287.405222 171.577902 
L 287.743474 171.650161 
L 288.081726 171.975627 
L 288.69058 172.966784 
L 289.434735 174.125129 
L 289.840638 174.403104 
L 290.17889 174.370033 
L 290.584793 174.034049 
L 291.261298 173.046498 
L 291.937802 172.161311 
L 292.343705 171.944195 
L 292.681957 171.997047 
L 293.08786 172.315572 
L 293.899665 173.373846 
L 294.50852 173.983077 
L 294.914422 174.096623 
L 295.320325 173.943853 
L 295.861529 173.422821 
L 296.876286 172.361492 
L 297.282188 172.220114 
L 297.688091 172.314271 
L 298.161644 172.672025 
L 299.447003 173.793287 
L 299.852906 173.844426 
L 300.326459 173.65178 
L 301.070614 173.021314 
L 301.814769 172.502192 
L 302.288322 172.442544 
L 302.761875 172.620128 
L 303.641331 173.27817 
L 304.317836 173.632933 
L 304.791389 173.639706 
L 305.332593 173.407477 
L 306.820903 172.605854 
L 307.362106 172.66396 
L 308.038611 173.001822 
L 309.053368 173.490091 
L 309.594572 173.49794 
L 310.271076 173.2458 
L 311.488784 172.737703 
L 312.097639 172.768171 
L 312.909444 173.083897 
L 313.85655 173.400458 
L 314.465405 173.371121 
L 315.34486 173.067755 
L 316.224316 172.824463 
L 316.900821 172.869356 
L 319.200937 173.292139 
L 321.636353 172.93858 
L 323.801168 173.246867 
L 326.439536 173.005696 
L 328.266098 173.218078 
L 329.889709 172.995985 
L 330.904466 173.013854 
L 333.136931 173.164645 
L 335.504697 173.038764 
L 337.737162 173.140921 
L 340.104928 173.058946 
L 342.337393 173.122068 
L 344.705159 173.074745 
L 347.005275 173.104021 
L 349.373041 173.089647 
L 351.740807 173.088775 
L 354.176223 173.10323 
L 357.085193 173.073583 
L 398.487273 173.092414 
L 398.487273 173.092414 
" style="fill:none;stroke:#ff7f0e;stroke-linecap:square;stroke-width:1.5;"/>
   </g>
   <g id="patch_3">
    <path d="M 57.6 307.584 
L 57.6 41.472 
" style="fill:none;stroke:#000000;stroke-linecap:square;stroke-linejoin:miter;stroke-width:0.8;"/>
   </g>
   <g id="patch_4">
    <path d="M 414.72 307.584 
L 414.72 41.472 
" style="fill:none;stroke:#000000;stroke-linecap:square;stroke-linejoin:miter;stroke-width:0.8;"/>
   </g>
   <g id="patch_5">
    <path d="M 57.6 307.584 
L 414.72 307.584 
" style="fill:none;stroke:#000000;stroke-linecap:square;stroke-linejoin:miter;stroke-width:0.8;"/>
   </g>
   <g id="patch_6">
    <path d="M 57.6 41.472 
L 414.72 41.472 
" style="fill:none;stroke:#000000;stroke-linecap:square;stroke-linejoin:miter;stroke-width:0.8;"/>
   </g>
   <g id="text_14">
    <!-- IR &amp; dispersed field -->
    <defs>
     <path d="M 9.8125 72.90625 
L 19.671875 72.90625 
L 19.671875 0 
L 9.8125 0 
z
" id="DejaVuSans-49"/>
     <path d="M 44.390625 34.1875 
Q 47.5625 33.109375 50.5625 29.59375 
Q 53.5625 26.078125 56.59375 19.921875 
L 66.609375 0 
L 56 0 
L 46.6875 18.703125 
Q 43.0625 26.03125 39.671875 28.421875 
Q 36.28125 30.8125 30.421875 30.8125 
L 19.671875 30.8125 
L 19.671875 0 
L 9.8125 0 
L 9.8125 72.90625 
L 32.078125 72.90625 
Q 44.578125 72.90625 50.734375 67.671875 
Q 56.890625 62.453125 56.890625 51.90625 
Q 56.890625 45.015625 53.6875 40.46875 
Q 50.484375 35.9375 44.390625 34.1875 
z
M 19.671875 64.796875 
L 19.671875 38.921875 
L 32.078125 38.921875 
Q 39.203125 38.921875 42.84375 42.21875 
Q 46.484375 45.515625 46.484375 51.90625 
Q 46.484375 58.296875 42.84375 61.546875 
Q 39.203125 64.796875 32.078125 64.796875 
z
" id="DejaVuSans-52"/>
     <path d="M 24.3125 39.203125 
Q 19.875 35.25 17.796875 31.3125 
Q 15.71875 27.390625 15.71875 23.09375 
Q 15.71875 15.96875 20.890625 11.234375 
Q 26.078125 6.5 33.890625 6.5 
Q 38.53125 6.5 42.578125 8.03125 
Q 46.625 9.578125 50.203125 12.703125 
z
M 31.203125 44.671875 
L 56 19.28125 
Q 58.890625 23.640625 60.5 28.59375 
Q 62.109375 33.546875 62.40625 39.109375 
L 71.484375 39.109375 
Q 70.90625 32.671875 68.359375 26.359375 
Q 65.828125 20.0625 61.28125 13.921875 
L 74.90625 0 
L 62.59375 0 
L 55.609375 7.171875 
Q 50.53125 2.828125 44.96875 0.703125 
Q 39.40625 -1.421875 33.015625 -1.421875 
Q 21.234375 -1.421875 13.765625 5.296875 
Q 6.296875 12.015625 6.296875 22.515625 
Q 6.296875 28.765625 9.5625 34.25 
Q 12.84375 39.75 19.390625 44.578125 
Q 17.046875 47.65625 15.8125 50.703125 
Q 14.59375 53.765625 14.59375 56.6875 
Q 14.59375 64.59375 20.015625 69.40625 
Q 25.4375 74.21875 34.421875 74.21875 
Q 38.484375 74.21875 42.5 73.34375 
Q 46.53125 72.46875 50.6875 70.703125 
L 50.6875 61.8125 
Q 46.4375 64.109375 42.578125 65.296875 
Q 38.71875 66.5 35.40625 66.5 
Q 30.28125 66.5 27.078125 63.78125 
Q 23.875 61.078125 23.875 56.78125 
Q 23.875 54.296875 25.3125 51.78125 
Q 26.765625 49.265625 31.203125 44.671875 
z
" id="DejaVuSans-26"/>
     <path d="M 45.40625 46.390625 
L 45.40625 75.984375 
L 54.390625 75.984375 
L 54.390625 0 
L 45.40625 0 
L 45.40625 8.203125 
Q 42.578125 3.328125 38.25 0.953125 
Q 33.9375 -1.421875 27.875 -1.421875 
Q 17.96875 -1.421875 11.734375 6.484375 
Q 5.515625 14.40625 5.515625 27.296875 
Q 5.515625 40.1875 11.734375 48.09375 
Q 17.96875 56 27.875 56 
Q 33.9375 56 38.25 53.625 
Q 42.578125 51.265625 45.40625 46.390625 
z
M 14.796875 27.296875 
Q 14.796875 17.390625 18.875 11.75 
Q 22.953125 6.109375 30.078125 6.109375 
Q 37.203125 6.109375 41.296875 11.75 
Q 45.40625 17.390625 45.40625 27.296875 
Q 45.40625 37.203125 41.296875 42.84375 
Q 37.203125 48.484375 30.078125 48.484375 
Q 22.953125 48.484375 18.875 42.84375 
Q 14.796875 37.203125 14.796875 27.296875 
z
" id="DejaVuSans-64"/>
     <path d="M 9.421875 54.6875 
L 18.40625 54.6875 
L 18.40625 0 
L 9.421875 0 
z
M 9.421875 75.984375 
L 18.40625 75.984375 
L 18.40625 64.59375 
L 9.421875 64.59375 
z
" id="DejaVuSans-69"/>
     <path d="M 18.109375 8.203125 
L 18.109375 -20.796875 
L 9.078125 -20.796875 
L 9.078125 54.6875 
L 18.109375 54.6875 
L 18.109375 46.390625 
Q 20.953125 51.265625 25.265625 53.625 
Q 29.59375 56 35.59375 56 
Q 45.5625 56 51.78125 48.09375 
Q 58.015625 40.1875 58.015625 27.296875 
Q 58.015625 14.40625 51.78125 6.484375 
Q 45.5625 -1.421875 35.59375 -1.421875 
Q 29.59375 -1.421875 25.265625 0.953125 
Q 20.953125 3.328125 18.109375 8.203125 
z
M 48.6875 27.296875 
Q 48.6875 37.203125 44.609375 42.84375 
Q 40.53125 48.484375 33.40625 48.484375 
Q 26.265625 48.484375 22.1875 42.84375 
Q 18.109375 37.203125 18.109375 27.296875 
Q 18.109375 17.390625 22.1875 11.75 
Q 26.265625 6.109375 33.40625 6.109375 
Q 40.53125 6.109375 44.609375 11.75 
Q 48.6875 17.390625 48.6875 27.296875 
z
" id="DejaVuSans-70"/>
     <path d="M 56.203125 29.59375 
L 56.203125 25.203125 
L 14.890625 25.203125 
Q 15.484375 15.921875 20.484375 11.0625 
Q 25.484375 6.203125 34.421875 6.203125 
Q 39.59375 6.203125 44.453125 7.46875 
Q 49.3125 8.734375 54.109375 11.28125 
L 54.109375 2.78125 
Q 49.265625 0.734375 44.1875 -0.34375 
Q 39.109375 -1.421875 33.890625 -1.421875 
Q 20.796875 -1.421875 13.15625 6.1875 
Q 5.515625 13.8125 5.515625 26.8125 
Q 5.515625 40.234375 12.765625 48.109375 
Q 20.015625 56 32.328125 56 
Q 43.359375 56 49.78125 48.890625 
Q 56.203125 41.796875 56.203125 29.59375 
z
M 47.21875 32.234375 
Q 47.125 39.59375 43.09375 43.984375 
Q 39.0625 48.390625 32.421875 48.390625 
Q 24.90625 48.390625 20.390625 44.140625 
Q 15.875 39.890625 15.1875 32.171875 
z
" id="DejaVuSans-65"/>
     <path d="M 41.109375 46.296875 
Q 39.59375 47.171875 37.8125 47.578125 
Q 36.03125 48 33.890625 48 
Q 26.265625 48 22.1875 43.046875 
Q 18.109375 38.09375 18.109375 28.8125 
L 18.109375 0 
L 9.078125 0 
L 9.078125 54.6875 
L 18.109375 54.6875 
L 18.109375 46.1875 
Q 20.953125 51.171875 25.484375 53.578125 
Q 30.03125 56 36.53125 56 
Q 37.453125 56 38.578125 55.875 
Q 39.703125 55.765625 41.0625 55.515625 
z
" id="DejaVuSans-72"/>
     <path d="M 9.421875 75.984375 
L 18.40625 75.984375 
L 18.40625 0 
L 9.421875 0 
z
" id="DejaVuSans-6c"/>
    </defs>
    <g transform="translate(177.67875 35.472)scale(0.12 -0.12)">
     <use xlink:href="#DejaVuSans-49"/>
     <use x="29.492188" xlink:href="#DejaVuSans-52"/>
     <use x="98.974609" xlink:href="#DejaVuSans-20"/>
     <use x="130.761719" xlink:href="#DejaVuSans-26"/>
     <use x="208.740234" xlink:href="#DejaVuSans-20"/>
     <use x="240.527344" xlink:href="#DejaVuSans-64"/>
     <use x="304.003906" xlink:href="#DejaVuSans-69"/>
     <use x="331.787109" xlink:href="#DejaVuSans-73"/>
     <use x="383.886719" xlink:href="#DejaVuSans-70"/>
     <use x="447.363281" xlink:href="#DejaVuSans-65"/>
     <use x="508.886719" xlink:href="#DejaVuSans-72"/>
     <use x="550" xlink:href="#DejaVuSans-73"/>
     <use x="602.099609" xlink:href="#DejaVuSans-65"/>
     <use x="663.623047" xlink:href="#DejaVuSans-64"/>
     <use x="727.099609" xlink:href="#DejaVuSans-20"/>
     <use x="758.886719" xlink:href="#DejaVuSans-66"/>
     <use x="794.091797" xlink:href="#DejaVuSans-69"/>
     <use x="821.875" xlink:href="#DejaVuSans-65"/>
     <use x="883.398438" xlink:href="#DejaVuSans-6c"/>
     <use x="911.181641" xlink:href="#DejaVuSans-64"/>
    </g>
   </g>
   <g id="legend_1">
    <g id="patch_7">
     <path d="M 323.798125 78.82825 
L 407.72 78.82825 
Q 409.72 78.82825 409.72 76.82825 
L 409.72 48.472 
Q 409.72 46.472 407.72 46.472 
L 323.798125 46.472 
Q 321.798125 46.472 321.798125 48.472 
L 321.798125 76.82825 
Q 321.798125 78.82825 323.798125 78.82825 
z
" style="fill:#ffffff;opacity:0.8;stroke:#cccccc;stroke-linejoin:miter;"/>
    </g>
    <g id="line2d_15">
     <path d="M 325.798125 54.570437 
L 345.798125 54.570437 
" style="fill:none;stroke:#1f77b4;stroke-linecap:square;stroke-width:1.5;"/>
    </g>
    <g id="line2d_16"/>
    <g id="text_15">
     <!-- Sum -->
     <defs>
      <path d="M 53.515625 70.515625 
L 53.515625 60.890625 
Q 47.90625 63.578125 42.921875 64.890625 
Q 37.9375 66.21875 33.296875 66.21875 
Q 25.25 66.21875 20.875 63.09375 
Q 16.5 59.96875 16.5 54.203125 
Q 16.5 49.359375 19.40625 46.890625 
Q 22.3125 44.4375 30.421875 42.921875 
L 36.375 41.703125 
Q 47.40625 39.59375 52.65625 34.296875 
Q 57.90625 29 57.90625 20.125 
Q 57.90625 9.515625 50.796875 4.046875 
Q 43.703125 -1.421875 29.984375 -1.421875 
Q 24.8125 -1.421875 18.96875 -0.25 
Q 13.140625 0.921875 6.890625 3.21875 
L 6.890625 13.375 
Q 12.890625 10.015625 18.65625 8.296875 
Q 24.421875 6.59375 29.984375 6.59375 
Q 38.421875 6.59375 43.015625 9.90625 
Q 47.609375 13.234375 47.609375 19.390625 
Q 47.609375 24.75 44.3125 27.78125 
Q 41.015625 30.8125 33.5 32.328125 
L 27.484375 33.5 
Q 16.453125 35.6875 11.515625 40.375 
Q 6.59375 45.0625 6.59375 53.421875 
Q 6.59375 63.09375 13.40625 68.65625 
Q 20.21875 74.21875 32.171875 74.21875 
Q 37.3125 74.21875 42.625 73.28125 
Q 47.953125 72.359375 53.515625 70.515625 
z
" id="DejaVuSans-53"/>
      <path d="M 8.5 21.578125 
L 8.5 54.6875 
L 17.484375 54.6875 
L 17.484375 21.921875 
Q 17.484375 14.15625 20.5 10.265625 
Q 23.53125 6.390625 29.59375 6.390625 
Q 36.859375 6.390625 41.078125 11.03125 
Q 45.3125 15.671875 45.3125 23.6875 
L 45.3125 54.6875 
L 54.296875 54.6875 
L 54.296875 0 
L 45.3125 0 
L 45.3125 8.40625 
Q 42.046875 3.421875 37.71875 1 
Q 33.40625 -1.421875 27.6875 -1.421875 
Q 18.265625 -1.421875 13.375 4.4375 
Q 8.5 10.296875 8.5 21.578125 
z
M 31.109375 56 
z
" id="DejaVuSans-75"/>
      <path d="M 52 44.1875 
Q 55.375 50.25 60.0625 53.125 
Q 64.75 56 71.09375 56 
Q 79.640625 56 84.28125 50.015625 
Q 88.921875 44.046875 88.921875 33.015625 
L 88.921875 0 
L 79.890625 0 
L 79.890625 32.71875 
Q 79.890625 40.578125 77.09375 44.375 
Q 74.3125 48.1875 68.609375 48.1875 
Q 61.625 48.1875 57.5625 43.546875 
Q 53.515625 38.921875 53.515625 30.90625 
L 53.515625 0 
L 44.484375 0 
L 44.484375 32.71875 
Q 44.484375 40.625 41.703125 44.40625 
Q 38.921875 48.1875 33.109375 48.1875 
Q 26.21875 48.1875 22.15625 43.53125 
Q 18.109375 38.875 18.109375 30.90625 
L 18.109375 0 
L 9.078125 0 
L 9.078125 54.6875 
L 18.109375 54.6875 
L 18.109375 46.1875 
Q 21.1875 51.21875 25.484375 53.609375 
Q 29.78125 56 35.6875 56 
Q 41.65625 56 45.828125 52.96875 
Q 50 49.953125 52 44.1875 
z
" id="DejaVuSans-6d"/>
     </defs>
     <g transform="translate(353.798125 58.070437)scale(0.1 -0.1)">
      <use xlink:href="#DejaVuSans-53"/>
      <use x="63.476562" xlink:href="#DejaVuSans-75"/>
      <use x="126.855469" xlink:href="#DejaVuSans-6d"/>
     </g>
    </g>
    <g id="line2d_17">
     <path d="M 325.798125 69.248562 
L 345.798125 69.248562 
" style="fill:none;stroke:#ff7f0e;stroke-linecap:square;stroke-width:1.5;"/>
    </g>
    <g id="line2d_18"/>
    <g id="text_16">
     <!-- Difference -->
     <defs>
      <path d="M 19.671875 64.796875 
L 19.671875 8.109375 
L 31.59375 8.109375 
Q 46.6875 8.109375 53.6875 14.9375 
Q 60.6875 21.78125 60.6875 36.53125 
Q 60.6875 51.171875 53.6875 57.984375 
Q 46.6875 64.796875 31.59375 64.796875 
z
M 9.8125 72.90625 
L 30.078125 72.90625 
Q 51.265625 72.90625 61.171875 64.09375 
Q 71.09375 55.28125 71.09375 36.53125 
Q 71.09375 17.671875 61.125 8.828125 
Q 51.171875 0 30.078125 0 
L 9.8125 0 
z
" id="DejaVuSans-44"/>
      <path d="M 54.890625 33.015625 
L 54.890625 0 
L 45.90625 0 
L 45.90625 32.71875 
Q 45.90625 40.484375 42.875 44.328125 
Q 39.84375 48.1875 33.796875 48.1875 
Q 26.515625 48.1875 22.3125 43.546875 
Q 18.109375 38.921875 18.109375 30.90625 
L 18.109375 0 
L 9.078125 0 
L 9.078125 54.6875 
L 18.109375 54.6875 
L 18.109375 46.1875 
Q 21.34375 51.125 25.703125 53.5625 
Q 30.078125 56 35.796875 56 
Q 45.21875 56 50.046875 50.171875 
Q 54.890625 44.34375 54.890625 33.015625 
z
" id="DejaVuSans-6e"/>
      <path d="M 48.78125 52.59375 
L 48.78125 44.1875 
Q 44.96875 46.296875 41.140625 47.34375 
Q 37.3125 48.390625 33.40625 48.390625 
Q 24.65625 48.390625 19.8125 42.84375 
Q 14.984375 37.3125 14.984375 27.296875 
Q 14.984375 17.28125 19.8125 11.734375 
Q 24.65625 6.203125 33.40625 6.203125 
Q 37.3125 6.203125 41.140625 7.25 
Q 44.96875 8.296875 48.78125 10.40625 
L 48.78125 2.09375 
Q 45.015625 0.34375 40.984375 -0.53125 
Q 36.96875 -1.421875 32.421875 -1.421875 
Q 20.0625 -1.421875 12.78125 6.34375 
Q 5.515625 14.109375 5.515625 27.296875 
Q 5.515625 40.671875 12.859375 48.328125 
Q 20.21875 56 33.015625 56 
Q 37.15625 56 41.109375 55.140625 
Q 45.0625 54.296875 48.78125 52.59375 
z
" id="DejaVuSans-63"/>
     </defs>
     <g transform="translate(353.798125 72.748562)scale(0.1 -0.1)">
      <use xlink:href="#DejaVuSans-44"/>
      <use x="77.001953" xlink:href="#DejaVuSans-69"/>
      <use x="104.785156" xlink:href="#DejaVuSans-66"/>
      <use x="139.990234" xlink:href="#DejaVuSans-66"/>
      <use x="175.195312" xlink:href="#DejaVuSans-65"/>
      <use x="236.71875" xlink:href="#DejaVuSans-72"/>
      <use x="277.800781" xlink:href="#DejaVuSans-65"/>
      <use x="339.324219" xlink:href="#DejaVuSans-6e"/>
      <use x="402.703125" xlink:href="#DejaVuSans-63"/>
      <use x="457.683594" xlink:href="#DejaVuSans-65"/>
     </g>
    </g>
   </g>
  </g>
 </g>
 <defs>
  <clipPath id="pf9128523b2">
   <rect height="266.112" width="357.12" x="57.6" y="41.472"/>
  </clipPath>
 </defs>
</svg>
