<?xml version="1.0" encoding="utf-8" standalone="no"?>
<!DOCTYPE svg PUBLIC "-//W3C//DTD SVG 1.1//EN"
  "http://www.w3.org/Graphics/SVG/1.1/DTD/svg11.dtd">
<!-- Created with matplotlib (http://matplotlib.org/) -->
<svg height="345pt" version="1.1" viewBox="0 0 460 345" width="460pt" xmlns="http://www.w3.org/2000/svg" xmlns:xlink="http://www.w3.org/1999/xlink">
 <defs>
  <style type="text/css">
*{stroke-linecap:butt;stroke-linejoin:round;}
  </style>
 </defs>
 <g id="figure_1">
  <g id="patch_1">
   <path d="M 0 345.6 
L 460.8 345.6 
L 460.8 0 
L 0 0 
z
" style="fill:none;"/>
  </g>
  <g id="axes_1">
   <g id="patch_2">
    <path d="M 52.1345 299.6575 
L 447.48 299.6575 
L 447.48 14.057632 
L 52.1345 14.057632 
z
" style="fill:none;"/>
   </g>
   <g id="matplotlib.axis_1">
    <g id="xtick_1">
     <g id="line2d_1">
      <path clip-path="url(#pbc5d6bbe52)" d="M 115.123615 299.6575 
L 115.123615 14.057632 
" style="fill:none;stroke:#ffffff;stroke-linecap:square;stroke-width:0.8;"/>
     </g>
     <g id="line2d_2">
      <defs>
       <path d="M 0 0 
L 0 3.5 
" id="mee2879fca0" style="stroke:#555555;stroke-width:0.8;"/>
      </defs>
      <g>
       <use style="fill:#555555;stroke:#555555;stroke-width:0.8;" x="115.123615" xlink:href="#mee2879fca0" y="299.6575"/>
      </g>
     </g>
     <g id="text_1">
      <!-- −20 -->
      <defs>
       <path d="M 10.59375 35.5 
L 73.1875 35.5 
L 73.1875 27.203125 
L 10.59375 27.203125 
z
" id="DejaVuSans-2212"/>
       <path d="M 19.1875 8.296875 
L 53.609375 8.296875 
L 53.609375 0 
L 7.328125 0 
L 7.328125 8.296875 
Q 12.9375 14.109375 22.625 23.890625 
Q 32.328125 33.6875 34.8125 36.53125 
Q 39.546875 41.84375 41.421875 45.53125 
Q 43.3125 49.21875 43.3125 52.78125 
Q 43.3125 58.59375 39.234375 62.25 
Q 35.15625 65.921875 28.609375 65.921875 
Q 23.96875 65.921875 18.8125 64.3125 
Q 13.671875 62.703125 7.8125 59.421875 
L 7.8125 69.390625 
Q 13.765625 71.78125 18.9375 73 
Q 24.125 74.21875 28.421875 74.21875 
Q 39.75 74.21875 46.484375 68.546875 
Q 53.21875 62.890625 53.21875 53.421875 
Q 53.21875 48.921875 51.53125 44.890625 
Q 49.859375 40.875 45.40625 35.40625 
Q 44.1875 33.984375 37.640625 27.21875 
Q 31.109375 20.453125 19.1875 8.296875 
z
" id="DejaVuSans-32"/>
       <path d="M 31.78125 66.40625 
Q 24.171875 66.40625 20.328125 58.90625 
Q 16.5 51.421875 16.5 36.375 
Q 16.5 21.390625 20.328125 13.890625 
Q 24.171875 6.390625 31.78125 6.390625 
Q 39.453125 6.390625 43.28125 13.890625 
Q 47.125 21.390625 47.125 36.375 
Q 47.125 51.421875 43.28125 58.90625 
Q 39.453125 66.40625 31.78125 66.40625 
z
M 31.78125 74.21875 
Q 44.046875 74.21875 50.515625 64.515625 
Q 56.984375 54.828125 56.984375 36.375 
Q 56.984375 17.96875 50.515625 8.265625 
Q 44.046875 -1.421875 31.78125 -1.421875 
Q 19.53125 -1.421875 13.0625 8.265625 
Q 6.59375 17.96875 6.59375 36.375 
Q 6.59375 54.828125 13.0625 64.515625 
Q 19.53125 74.21875 31.78125 74.21875 
z
" id="DejaVuSans-30"/>
      </defs>
      <g style="fill:#555555;" transform="translate(104.571271 314.255937)scale(0.1 -0.1)">
       <use xlink:href="#DejaVuSans-2212"/>
       <use x="83.789062" xlink:href="#DejaVuSans-32"/>
       <use x="147.412109" xlink:href="#DejaVuSans-30"/>
      </g>
     </g>
    </g>
    <g id="xtick_2">
     <g id="line2d_3">
      <path clip-path="url(#pbc5d6bbe52)" d="M 182.465432 299.6575 
L 182.465432 14.057632 
" style="fill:none;stroke:#ffffff;stroke-linecap:square;stroke-width:0.8;"/>
     </g>
     <g id="line2d_4">
      <g>
       <use style="fill:#555555;stroke:#555555;stroke-width:0.8;" x="182.465432" xlink:href="#mee2879fca0" y="299.6575"/>
      </g>
     </g>
     <g id="text_2">
      <!-- −10 -->
      <defs>
       <path d="M 12.40625 8.296875 
L 28.515625 8.296875 
L 28.515625 63.921875 
L 10.984375 60.40625 
L 10.984375 69.390625 
L 28.421875 72.90625 
L 38.28125 72.90625 
L 38.28125 8.296875 
L 54.390625 8.296875 
L 54.390625 0 
L 12.40625 0 
z
" id="DejaVuSans-31"/>
      </defs>
      <g style="fill:#555555;" transform="translate(171.913089 314.255937)scale(0.1 -0.1)">
       <use xlink:href="#DejaVuSans-2212"/>
       <use x="83.789062" xlink:href="#DejaVuSans-31"/>
       <use x="147.412109" xlink:href="#DejaVuSans-30"/>
      </g>
     </g>
    </g>
    <g id="xtick_3">
     <g id="line2d_5">
      <path clip-path="url(#pbc5d6bbe52)" d="M 249.80725 299.6575 
L 249.80725 14.057632 
" style="fill:none;stroke:#ffffff;stroke-linecap:square;stroke-width:0.8;"/>
     </g>
     <g id="line2d_6">
      <g>
       <use style="fill:#555555;stroke:#555555;stroke-width:0.8;" x="249.80725" xlink:href="#mee2879fca0" y="299.6575"/>
      </g>
     </g>
     <g id="text_3">
      <!-- 0 -->
      <g style="fill:#555555;" transform="translate(246.626 314.255937)scale(0.1 -0.1)">
       <use xlink:href="#DejaVuSans-30"/>
      </g>
     </g>
    </g>
    <g id="xtick_4">
     <g id="line2d_7">
      <path clip-path="url(#pbc5d6bbe52)" d="M 317.149068 299.6575 
L 317.149068 14.057632 
" style="fill:none;stroke:#ffffff;stroke-linecap:square;stroke-width:0.8;"/>
     </g>
     <g id="line2d_8">
      <g>
       <use style="fill:#555555;stroke:#555555;stroke-width:0.8;" x="317.149068" xlink:href="#mee2879fca0" y="299.6575"/>
      </g>
     </g>
     <g id="text_4">
      <!-- 10 -->
      <g style="fill:#555555;" transform="translate(310.786568 314.255937)scale(0.1 -0.1)">
       <use xlink:href="#DejaVuSans-31"/>
       <use x="63.623047" xlink:href="#DejaVuSans-30"/>
      </g>
     </g>
    </g>
    <g id="xtick_5">
     <g id="line2d_9">
      <path clip-path="url(#pbc5d6bbe52)" d="M 384.490885 299.6575 
L 384.490885 14.057632 
" style="fill:none;stroke:#ffffff;stroke-linecap:square;stroke-width:0.8;"/>
     </g>
     <g id="line2d_10">
      <g>
       <use style="fill:#555555;stroke:#555555;stroke-width:0.8;" x="384.490885" xlink:href="#mee2879fca0" y="299.6575"/>
      </g>
     </g>
     <g id="text_5">
      <!-- 20 -->
      <g style="fill:#555555;" transform="translate(378.128385 314.255937)scale(0.1 -0.1)">
       <use xlink:href="#DejaVuSans-32"/>
       <use x="63.623047" xlink:href="#DejaVuSans-30"/>
      </g>
     </g>
    </g>
    <g id="text_6">
     <!-- $t$ [fs] -->
     <defs>
      <path d="M 42.28125 54.6875 
L 40.921875 47.703125 
L 23 47.703125 
L 17.1875 18.015625 
Q 16.890625 16.359375 16.75 15.234375 
Q 16.609375 14.109375 16.609375 13.484375 
Q 16.609375 10.359375 18.484375 8.9375 
Q 20.359375 7.515625 24.515625 7.515625 
L 33.59375 7.515625 
L 32.078125 0 
L 23.484375 0 
Q 15.484375 0 11.546875 3.125 
Q 7.625 6.25 7.625 12.59375 
Q 7.625 13.71875 7.765625 15.0625 
Q 7.90625 16.40625 8.203125 18.015625 
L 14.015625 47.703125 
L 6.390625 47.703125 
L 7.8125 54.6875 
L 15.28125 54.6875 
L 18.3125 70.21875 
L 27.296875 70.21875 
L 24.3125 54.6875 
z
" id="DejaVuSans-Oblique-74"/>
      <path id="DejaVuSans-20"/>
      <path d="M 8.59375 75.984375 
L 29.296875 75.984375 
L 29.296875 69 
L 17.578125 69 
L 17.578125 -6.203125 
L 29.296875 -6.203125 
L 29.296875 -13.1875 
L 8.59375 -13.1875 
z
" id="DejaVuSans-5b"/>
      <path d="M 37.109375 75.984375 
L 37.109375 68.5 
L 28.515625 68.5 
Q 23.6875 68.5 21.796875 66.546875 
Q 19.921875 64.59375 19.921875 59.515625 
L 19.921875 54.6875 
L 34.71875 54.6875 
L 34.71875 47.703125 
L 19.921875 47.703125 
L 19.921875 0 
L 10.890625 0 
L 10.890625 47.703125 
L 2.296875 47.703125 
L 2.296875 54.6875 
L 10.890625 54.6875 
L 10.890625 58.5 
Q 10.890625 67.625 15.140625 71.796875 
Q 19.390625 75.984375 28.609375 75.984375 
z
" id="DejaVuSans-66"/>
      <path d="M 44.28125 53.078125 
L 44.28125 44.578125 
Q 40.484375 46.53125 36.375 47.5 
Q 32.28125 48.484375 27.875 48.484375 
Q 21.1875 48.484375 17.84375 46.4375 
Q 14.5 44.390625 14.5 40.28125 
Q 14.5 37.15625 16.890625 35.375 
Q 19.28125 33.59375 26.515625 31.984375 
L 29.59375 31.296875 
Q 39.15625 29.25 43.1875 25.515625 
Q 47.21875 21.78125 47.21875 15.09375 
Q 47.21875 7.46875 41.1875 3.015625 
Q 35.15625 -1.421875 24.609375 -1.421875 
Q 20.21875 -1.421875 15.453125 -0.5625 
Q 10.6875 0.296875 5.421875 2 
L 5.421875 11.28125 
Q 10.40625 8.6875 15.234375 7.390625 
Q 20.0625 6.109375 24.8125 6.109375 
Q 31.15625 6.109375 34.5625 8.28125 
Q 37.984375 10.453125 37.984375 14.40625 
Q 37.984375 18.0625 35.515625 20.015625 
Q 33.0625 21.96875 24.703125 23.78125 
L 21.578125 24.515625 
Q 13.234375 26.265625 9.515625 29.90625 
Q 5.8125 33.546875 5.8125 39.890625 
Q 5.8125 47.609375 11.28125 51.796875 
Q 16.75 56 26.8125 56 
Q 31.78125 56 36.171875 55.265625 
Q 40.578125 54.546875 44.28125 53.078125 
z
" id="DejaVuSans-73"/>
      <path d="M 30.421875 75.984375 
L 30.421875 -13.1875 
L 9.71875 -13.1875 
L 9.71875 -6.203125 
L 21.390625 -6.203125 
L 21.390625 69 
L 9.71875 69 
L 9.71875 75.984375 
z
" id="DejaVuSans-5d"/>
     </defs>
     <g style="fill:#555555;" transform="translate(235.58725 329.45375)scale(0.12 -0.12)">
      <use transform="translate(0 0.015625)" xlink:href="#DejaVuSans-Oblique-74"/>
      <use transform="translate(39.208984 0.015625)" xlink:href="#DejaVuSans-20"/>
      <use transform="translate(70.996094 0.015625)" xlink:href="#DejaVuSans-5b"/>
      <use transform="translate(110.009766 0.015625)" xlink:href="#DejaVuSans-66"/>
      <use transform="translate(145.214844 0.015625)" xlink:href="#DejaVuSans-73"/>
      <use transform="translate(197.314453 0.015625)" xlink:href="#DejaVuSans-5d"/>
     </g>
    </g>
   </g>
   <g id="matplotlib.axis_2">
    <g id="ytick_1">
     <g id="line2d_11">
      <path clip-path="url(#pbc5d6bbe52)" d="M 52.1345 253.220906 
L 447.48 253.220906 
" style="fill:none;stroke:#ffffff;stroke-linecap:square;stroke-width:0.8;"/>
     </g>
     <g id="line2d_12">
      <defs>
       <path d="M 0 0 
L -3.5 0 
" id="mc4d1c19eaf" style="stroke:#555555;stroke-width:0.8;"/>
      </defs>
      <g>
       <use style="fill:#555555;stroke:#555555;stroke-width:0.8;" x="52.1345" xlink:href="#mc4d1c19eaf" y="253.220906"/>
      </g>
     </g>
     <g id="text_7">
      <!-- −2 -->
      <g style="fill:#555555;" transform="translate(30.392313 257.020125)scale(0.1 -0.1)">
       <use xlink:href="#DejaVuSans-2212"/>
       <use x="83.789062" xlink:href="#DejaVuSans-32"/>
      </g>
     </g>
    </g>
    <g id="ytick_2">
     <g id="line2d_13">
      <path clip-path="url(#pbc5d6bbe52)" d="M 52.1345 205.539012 
L 447.48 205.539012 
" style="fill:none;stroke:#ffffff;stroke-linecap:square;stroke-width:0.8;"/>
     </g>
     <g id="line2d_14">
      <g>
       <use style="fill:#555555;stroke:#555555;stroke-width:0.8;" x="52.1345" xlink:href="#mc4d1c19eaf" y="205.539012"/>
      </g>
     </g>
     <g id="text_8">
      <!-- −1 -->
      <g style="fill:#555555;" transform="translate(30.392313 209.338231)scale(0.1 -0.1)">
       <use xlink:href="#DejaVuSans-2212"/>
       <use x="83.789062" xlink:href="#DejaVuSans-31"/>
      </g>
     </g>
    </g>
    <g id="ytick_3">
     <g id="line2d_15">
      <path clip-path="url(#pbc5d6bbe52)" d="M 52.1345 157.857118 
L 447.48 157.857118 
" style="fill:none;stroke:#ffffff;stroke-linecap:square;stroke-width:0.8;"/>
     </g>
     <g id="line2d_16">
      <g>
       <use style="fill:#555555;stroke:#555555;stroke-width:0.8;" x="52.1345" xlink:href="#mc4d1c19eaf" y="157.857118"/>
      </g>
     </g>
     <g id="text_9">
      <!-- 0 -->
      <g style="fill:#555555;" transform="translate(38.772 161.656337)scale(0.1 -0.1)">
       <use xlink:href="#DejaVuSans-30"/>
      </g>
     </g>
    </g>
    <g id="ytick_4">
     <g id="line2d_17">
      <path clip-path="url(#pbc5d6bbe52)" d="M 52.1345 110.175224 
L 447.48 110.175224 
" style="fill:none;stroke:#ffffff;stroke-linecap:square;stroke-width:0.8;"/>
     </g>
     <g id="line2d_18">
      <g>
       <use style="fill:#555555;stroke:#555555;stroke-width:0.8;" x="52.1345" xlink:href="#mc4d1c19eaf" y="110.175224"/>
      </g>
     </g>
     <g id="text_10">
      <!-- 1 -->
      <g style="fill:#555555;" transform="translate(38.772 113.974443)scale(0.1 -0.1)">
       <use xlink:href="#DejaVuSans-31"/>
      </g>
     </g>
    </g>
    <g id="ytick_5">
     <g id="line2d_19">
      <path clip-path="url(#pbc5d6bbe52)" d="M 52.1345 62.49333 
L 447.48 62.49333 
" style="fill:none;stroke:#ffffff;stroke-linecap:square;stroke-width:0.8;"/>
     </g>
     <g id="line2d_20">
      <g>
       <use style="fill:#555555;stroke:#555555;stroke-width:0.8;" x="52.1345" xlink:href="#mc4d1c19eaf" y="62.49333"/>
      </g>
     </g>
     <g id="text_11">
      <!-- 2 -->
      <g style="fill:#555555;" transform="translate(38.772 66.292549)scale(0.1 -0.1)">
       <use xlink:href="#DejaVuSans-32"/>
      </g>
     </g>
    </g>
    <g id="ytick_6">
     <g id="line2d_21">
      <path clip-path="url(#pbc5d6bbe52)" d="M 52.1345 14.811436 
L 447.48 14.811436 
" style="fill:none;stroke:#ffffff;stroke-linecap:square;stroke-width:0.8;"/>
     </g>
     <g id="line2d_22">
      <g>
       <use style="fill:#555555;stroke:#555555;stroke-width:0.8;" x="52.1345" xlink:href="#mc4d1c19eaf" y="14.811436"/>
      </g>
     </g>
     <g id="text_12">
      <!-- 3 -->
      <defs>
       <path d="M 40.578125 39.3125 
Q 47.65625 37.796875 51.625 33 
Q 55.609375 28.21875 55.609375 21.1875 
Q 55.609375 10.40625 48.1875 4.484375 
Q 40.765625 -1.421875 27.09375 -1.421875 
Q 22.515625 -1.421875 17.65625 -0.515625 
Q 12.796875 0.390625 7.625 2.203125 
L 7.625 11.71875 
Q 11.71875 9.328125 16.59375 8.109375 
Q 21.484375 6.890625 26.8125 6.890625 
Q 36.078125 6.890625 40.9375 10.546875 
Q 45.796875 14.203125 45.796875 21.1875 
Q 45.796875 27.640625 41.28125 31.265625 
Q 36.765625 34.90625 28.71875 34.90625 
L 20.21875 34.90625 
L 20.21875 43.015625 
L 29.109375 43.015625 
Q 36.375 43.015625 40.234375 45.921875 
Q 44.09375 48.828125 44.09375 54.296875 
Q 44.09375 59.90625 40.109375 62.90625 
Q 36.140625 65.921875 28.71875 65.921875 
Q 24.65625 65.921875 20.015625 65.03125 
Q 15.375 64.15625 9.8125 62.3125 
L 9.8125 71.09375 
Q 15.4375 72.65625 20.34375 73.4375 
Q 25.25 74.21875 29.59375 74.21875 
Q 40.828125 74.21875 47.359375 69.109375 
Q 53.90625 64.015625 53.90625 55.328125 
Q 53.90625 49.265625 50.4375 45.09375 
Q 46.96875 40.921875 40.578125 39.3125 
z
" id="DejaVuSans-33"/>
      </defs>
      <g style="fill:#555555;" transform="translate(38.772 18.610654)scale(0.1 -0.1)">
       <use xlink:href="#DejaVuSans-33"/>
      </g>
     </g>
    </g>
    <g id="text_13">
     <!-- $E$ [$10^{10}$ V/m] -->
     <defs>
      <path d="M 16.890625 72.90625 
L 62.984375 72.90625 
L 61.375 64.59375 
L 25.09375 64.59375 
L 20.90625 43.015625 
L 55.71875 43.015625 
L 54.109375 34.71875 
L 19.28125 34.71875 
L 14.203125 8.296875 
L 51.3125 8.296875 
L 49.703125 0 
L 2.6875 0 
z
" id="DejaVuSans-Oblique-45"/>
      <path d="M 28.609375 0 
L 0.78125 72.90625 
L 11.078125 72.90625 
L 34.1875 11.53125 
L 57.328125 72.90625 
L 67.578125 72.90625 
L 39.796875 0 
z
" id="DejaVuSans-56"/>
      <path d="M 25.390625 72.90625 
L 33.6875 72.90625 
L 8.296875 -9.28125 
L 0 -9.28125 
z
" id="DejaVuSans-2f"/>
      <path d="M 52 44.1875 
Q 55.375 50.25 60.0625 53.125 
Q 64.75 56 71.09375 56 
Q 79.640625 56 84.28125 50.015625 
Q 88.921875 44.046875 88.921875 33.015625 
L 88.921875 0 
L 79.890625 0 
L 79.890625 32.71875 
Q 79.890625 40.578125 77.09375 44.375 
Q 74.3125 48.1875 68.609375 48.1875 
Q 61.625 48.1875 57.5625 43.546875 
Q 53.515625 38.921875 53.515625 30.90625 
L 53.515625 0 
L 44.484375 0 
L 44.484375 32.71875 
Q 44.484375 40.625 41.703125 44.40625 
Q 38.921875 48.1875 33.109375 48.1875 
Q 26.21875 48.1875 22.15625 43.53125 
Q 18.109375 38.875 18.109375 30.90625 
L 18.109375 0 
L 9.078125 0 
L 9.078125 54.6875 
L 18.109375 54.6875 
L 18.109375 46.1875 
Q 21.1875 51.21875 25.484375 53.609375 
Q 29.78125 56 35.6875 56 
Q 41.65625 56 45.828125 52.96875 
Q 50 49.953125 52 44.1875 
z
" id="DejaVuSans-6d"/>
     </defs>
     <g style="fill:#555555;" transform="translate(23.896687 194.357566)rotate(-90)scale(0.12 -0.12)">
      <use transform="translate(0 0.765625)" xlink:href="#DejaVuSans-Oblique-45"/>
      <use transform="translate(63.183594 0.765625)" xlink:href="#DejaVuSans-20"/>
      <use transform="translate(94.970703 0.765625)" xlink:href="#DejaVuSans-5b"/>
      <use transform="translate(133.984375 0.765625)" xlink:href="#DejaVuSans-31"/>
      <use transform="translate(197.607422 0.765625)" xlink:href="#DejaVuSans-30"/>
      <use transform="translate(262.1875 39.046875)scale(0.7)" xlink:href="#DejaVuSans-31"/>
      <use transform="translate(306.723633 39.046875)scale(0.7)" xlink:href="#DejaVuSans-30"/>
      <use transform="translate(353.994141 0.765625)" xlink:href="#DejaVuSans-20"/>
      <use transform="translate(385.78125 0.765625)" xlink:href="#DejaVuSans-56"/>
      <use transform="translate(454.189453 0.765625)" xlink:href="#DejaVuSans-2f"/>
      <use transform="translate(487.880859 0.765625)" xlink:href="#DejaVuSans-6d"/>
      <use transform="translate(585.292969 0.765625)" xlink:href="#DejaVuSans-5d"/>
     </g>
    </g>
   </g>
   <g id="line2d_23">
    <path clip-path="url(#pbc5d6bbe52)" d="M 70.10475 157.857118 
L 155.506138 157.968176 
L 159.101986 157.912578 
L 162.697834 157.600572 
L 165.574512 157.428711 
L 167.372436 157.550162 
L 169.17036 157.916631 
L 174.204547 159.196332 
L 175.283302 159.118349 
L 176.362056 158.790216 
L 177.440811 158.200581 
L 178.699357 157.230312 
L 181.93562 154.548235 
L 182.834582 154.19974 
L 183.553752 154.178076 
L 184.272922 154.428447 
L 184.992091 154.97547 
L 185.711261 155.824655 
L 186.610223 157.282836 
L 187.688977 159.491014 
L 190.385863 165.258185 
L 191.105033 166.258951 
L 191.64441 166.707938 
L 192.183787 166.846732 
L 192.543372 166.747899 
L 193.082749 166.291158 
L 193.622126 165.448742 
L 194.161503 164.216442 
L 194.880673 161.989474 
L 195.779635 158.381852 
L 197.217974 151.388178 
L 198.836106 143.661665 
L 199.555275 141.030084 
L 200.094652 139.616184 
L 200.63403 138.794693 
L 200.993614 138.618815 
L 201.353199 138.764593 
L 201.712784 139.24763 
L 202.072369 140.078329 
L 202.611746 141.984945 
L 203.330916 145.736388 
L 204.050085 150.758959 
L 205.12884 160.167189 
L 208.005518 186.806259 
L 208.724687 191.174987 
L 209.264065 193.245208 
L 209.623649 193.960718 
L 209.803442 194.104277 
L 209.983234 194.099639 
L 210.163027 193.943442 
L 210.522611 193.165902 
L 210.882196 191.756967 
L 211.421573 188.453497 
L 211.960951 183.755175 
L 212.68012 175.485971 
L 213.579082 162.484921 
L 215.556799 129.170453 
L 216.635553 112.912716 
L 217.354722 104.672077 
L 217.8941 100.396603 
L 218.253684 98.601984 
L 218.613269 97.725825 
L 218.793062 97.647752 
L 218.972854 97.816153 
L 219.332439 98.905887 
L 219.692024 101.011726 
L 220.231401 106.070047 
L 220.770778 113.333616 
L 221.489948 126.148203 
L 222.38891 146.255426 
L 225.804965 228.929671 
L 226.524135 239.429509 
L 227.063512 244.181274 
L 227.423097 245.692789 
L 227.602889 245.927175 
L 227.782681 245.806301 
L 227.962474 245.326204 
L 228.322059 243.279955 
L 228.681643 239.786906 
L 229.221021 231.892261 
L 229.94019 216.727632 
L 230.839152 191.46694 
L 232.097699 148.573249 
L 233.895623 87.310729 
L 234.794585 63.832675 
L 235.513755 51.096697 
L 236.053132 45.780209 
L 236.412716 44.425051 
L 236.592509 44.42561 
L 236.772301 44.883448 
L 237.131886 47.175066 
L 237.491471 51.288735 
L 238.030848 60.77472 
L 238.750018 79.149909 
L 239.64898 109.77596 
L 241.087319 169.264587 
L 242.70545 234.799099 
L 243.604412 262.768578 
L 244.323582 278.051098 
L 244.862959 284.622633 
L 245.222544 286.503863 
L 245.402336 286.675688 
L 245.582129 286.331586 
L 245.941713 284.098396 
L 246.301298 279.83158 
L 246.840675 269.762365 
L 247.559845 250.070709 
L 248.458807 217.218422 
L 249.897146 153.743949 
L 251.515278 84.428102 
L 252.41424 54.960226 
L 253.133409 38.760729 
L 253.672787 31.61584 
L 254.032371 29.382651 
L 254.212164 29.038548 
L 254.391956 29.210374 
L 254.571748 29.896114 
L 254.931333 32.790543 
L 255.290918 37.663138 
L 255.830295 48.472326 
L 256.549465 68.699889 
L 257.448427 101.282109 
L 261.044275 241.727755 
L 261.763444 258.532034 
L 262.302822 266.708179 
L 262.662406 269.914162 
L 263.021991 271.288626 
L 263.201784 271.289185 
L 263.381576 270.835885 
L 263.741161 268.590759 
L 264.100745 264.617539 
L 264.640123 255.626387 
L 265.359292 238.660927 
L 266.258254 211.319475 
L 269.67431 98.986604 
L 270.393479 83.821975 
L 270.932857 75.92733 
L 271.472234 71.229827 
L 271.831819 69.907936 
L 272.011611 69.787061 
L 272.191403 70.021448 
L 272.550988 71.532962 
L 272.910573 74.382596 
L 273.44995 80.984044 
L 274.16912 93.562194 
L 275.068082 113.855975 
L 278.484137 196.391634 
L 279.203307 207.461662 
L 279.742684 213.267983 
L 280.282061 216.808349 
L 280.641646 217.898083 
L 280.821438 218.066484 
L 281.001231 217.988412 
L 281.181023 217.668481 
L 281.540608 216.326194 
L 281.900193 214.094715 
L 282.43957 209.232429 
L 283.158739 200.363642 
L 284.237494 183.547358 
L 286.754587 142.616856 
L 287.653549 131.959061 
L 288.372719 126.001807 
L 288.912096 123.173362 
L 289.271681 122.08132 
L 289.631266 121.614598 
L 289.811058 121.609959 
L 289.990851 121.753518 
L 290.350435 122.469028 
L 290.71002 123.723605 
L 291.249397 126.516068 
L 291.968567 131.656337 
L 293.047321 141.410694 
L 295.384622 163.524521 
L 296.283584 169.977848 
L 297.002754 173.729291 
L 297.542131 175.635907 
L 298.081508 176.75106 
L 298.441093 177.06383 
L 298.800678 177.046526 
L 299.160263 176.717147 
L 299.519848 176.098053 
L 300.059225 174.684152 
L 300.778394 172.052571 
L 301.857149 167.050119 
L 304.19445 155.792128 
L 305.093412 152.530858 
L 305.812581 150.633178 
L 306.351959 149.660512 
L 306.891336 149.0766 
L 307.430713 148.867505 
L 307.97009 149.006298 
L 308.509467 149.455285 
L 309.228637 150.456052 
L 310.127599 152.177037 
L 313.543654 159.356041 
L 314.442616 160.55454 
L 315.161786 161.177416 
L 315.880956 161.500321 
L 316.600125 161.543467 
L 317.319295 161.343033 
L 318.218257 160.822981 
L 319.476804 159.783015 
L 321.993897 157.635706 
L 323.072651 157.00444 
L 324.151406 156.632408 
L 325.23016 156.515123 
L 326.488707 156.644955 
L 328.106839 157.07638 
L 331.522894 158.046386 
L 333.141026 158.25437 
L 334.93895 158.266818 
L 337.815628 158.023252 
L 341.591268 157.756286 
L 345.187116 157.768854 
L 353.817151 157.880464 
L 376.291201 157.857025 
L 429.50975 157.857118 
L 429.50975 157.857118 
" style="fill:none;stroke:#e24a33;stroke-linecap:square;stroke-width:1.5;"/>
   </g>
   <g id="line2d_24">
    <path clip-path="url(#pbc5d6bbe52)" d="M 70.10475 157.857118 
L 157.663647 157.750728 
L 161.798872 157.635997 
L 164.136173 157.815482 
L 167.012852 158.295804 
L 169.350153 158.609984 
L 170.788492 158.586064 
L 172.047039 158.354837 
L 173.305585 157.912918 
L 175.103509 157.004368 
L 177.261018 155.919123 
L 178.339773 155.627102 
L 179.238734 155.620811 
L 179.957904 155.807924 
L 180.856866 156.30681 
L 181.755828 157.100805 
L 182.834582 158.392573 
L 186.43043 163.1475 
L 187.1496 163.604272 
L 187.688977 163.717847 
L 188.228354 163.604626 
L 188.767731 163.244252 
L 189.307109 162.624639 
L 190.026278 161.392594 
L 190.745448 159.721161 
L 191.824202 156.534857 
L 194.880673 146.715904 
L 195.599843 145.276895 
L 196.13922 144.657583 
L 196.498805 144.500159 
L 196.858389 144.565833 
L 197.217974 144.867239 
L 197.577559 145.413498 
L 198.116936 146.702276 
L 198.656313 148.552302 
L 199.375483 151.847696 
L 200.274445 157.111913 
L 201.712784 167.142872 
L 203.151123 176.920502 
L 204.050085 181.579184 
L 204.589462 183.469516 
L 204.949047 184.268191 
L 205.308632 184.657783 
L 205.668217 184.610312 
L 206.027802 184.104167 
L 206.387386 183.124816 
L 206.926764 180.755808 
L 207.466141 177.320553 
L 208.18531 171.184644 
L 209.084272 161.399421 
L 210.702404 140.482499 
L 212.140743 122.985446 
L 212.859913 116.368466 
L 213.39929 112.852918 
L 213.938667 110.82368 
L 214.298252 110.384104 
L 214.478044 110.453573 
L 214.657837 110.720973 
L 215.017421 111.860127 
L 215.377006 113.814394 
L 215.916383 118.2682 
L 216.635553 126.930406 
L 217.534515 141.597677 
L 218.793062 167.058987 
L 220.770778 207.845279 
L 221.66974 221.719067 
L 222.209117 227.482589 
L 222.748494 230.925091 
L 223.108079 231.807803 
L 223.287872 231.804997 
L 223.467664 231.499685 
L 223.827249 229.969732 
L 224.186834 227.207103 
L 224.726211 220.77984 
L 225.44538 208.16942 
L 226.344342 186.799492 
L 227.602889 149.876848 
L 229.580605 91.248539 
L 230.479567 71.360917 
L 231.018945 63.025201 
L 231.558322 57.902692 
L 231.917907 56.423674 
L 232.097699 56.288678 
L 232.277491 56.563447 
L 232.637076 58.352379 
L 232.996661 61.793302 
L 233.536038 69.989139 
L 234.075415 81.634532 
L 234.794585 101.917619 
L 235.873339 140.042017 
L 238.570225 241.398876 
L 239.289395 260.913928 
L 239.828772 271.556003 
L 240.368149 278.254805 
L 240.727734 280.368264 
L 240.907526 280.695743 
L 241.087319 280.531267 
L 241.267111 279.873061 
L 241.626696 277.078744 
L 241.986281 272.340196 
L 242.525658 261.728199 
L 243.244828 241.606387 
L 244.14379 208.643892 
L 245.761921 137.737456 
L 247.20026 78.117193 
L 248.099222 49.878971 
L 248.818392 34.815052 
L 249.357769 28.607721 
L 249.717354 27.039444 
L 249.897146 27.039444 
L 250.076939 27.562937 
L 250.436523 30.169404 
L 250.796108 34.815052 
L 251.335485 45.427294 
L 252.054655 65.715959 
L 252.953617 98.967012 
L 254.571748 170.060539 
L 256.010088 229.321304 
L 256.90905 257.304826 
L 257.628219 272.340196 
L 258.167596 278.721425 
L 258.527181 280.531267 
L 258.706974 280.695743 
L 258.886766 280.368264 
L 259.246351 278.254805 
L 259.605936 274.245713 
L 260.145313 264.873941 
L 260.864482 246.785792 
L 261.763444 217.112418 
L 263.561368 146.990769 
L 264.819915 101.917619 
L 265.718877 77.387808 
L 266.438047 64.126463 
L 266.977424 58.352379 
L 267.337009 56.563447 
L 267.516801 56.288678 
L 267.696593 56.423674 
L 267.876386 56.963782 
L 268.235971 59.232477 
L 268.595555 63.025201 
L 269.134933 71.360917 
L 269.854102 86.757698 
L 270.753064 111.146819 
L 273.989327 204.352509 
L 274.708497 218.045617 
L 275.247874 225.36586 
L 275.787251 229.969732 
L 276.146836 231.499685 
L 276.326628 231.804997 
L 276.506421 231.807803 
L 276.686213 231.512604 
L 277.045798 230.05211 
L 277.405383 227.482589 
L 277.94476 221.719067 
L 278.66393 210.981515 
L 279.742684 190.236808 
L 282.43957 135.276198 
L 283.338532 122.22487 
L 284.057701 115.097456 
L 284.597079 111.860127 
L 284.956663 110.720973 
L 285.316248 110.384104 
L 285.496041 110.508936 
L 285.855625 111.32323 
L 286.21521 112.852918 
L 286.754587 116.368466 
L 287.473757 122.985446 
L 288.552511 135.784499 
L 291.249397 169.397763 
L 292.148359 177.320553 
L 292.867529 181.665424 
L 293.406906 183.674256 
L 293.766491 184.415655 
L 294.126076 184.690189 
L 294.48566 184.516012 
L 294.845245 183.918013 
L 295.384622 182.29531 
L 296.103792 178.977243 
L 297.002754 173.469513 
L 300.41881 150.939929 
L 301.137979 147.874232 
L 301.857149 145.780242 
L 302.396526 144.867239 
L 302.756111 144.565833 
L 303.115695 144.500159 
L 303.47528 144.657583 
L 304.014657 145.276895 
L 304.554035 146.29847 
L 305.273204 148.158445 
L 306.351959 151.627972 
L 308.509467 158.738406 
L 309.408429 161.014172 
L 310.127599 162.359773 
L 310.846769 163.244252 
L 311.386146 163.604626 
L 311.925523 163.717847 
L 312.4649 163.604272 
L 313.18407 163.1475 
L 314.083032 162.196053 
L 315.341578 160.454303 
L 317.319295 157.706368 
L 318.398049 156.590031 
L 319.297011 155.971465 
L 320.195973 155.650617 
L 321.094935 155.606432 
L 321.993897 155.793175 
L 323.252444 156.324593 
L 327.207877 158.249456 
L 328.466423 158.541586 
L 329.904763 158.6249 
L 331.522894 158.475471 
L 337.815628 157.635997 
L 340.512514 157.67694 
L 347.884002 157.917268 
L 387.258537 157.857141 
L 429.50975 157.857118 
L 429.50975 157.857118 
" style="fill:none;stroke:#348abd;stroke-linecap:square;stroke-width:1.5;"/>
   </g>
   <g id="patch_3">
    <path d="M 52.1345 299.6575 
L 52.1345 14.057632 
" style="fill:none;stroke:#ffffff;stroke-linecap:square;stroke-linejoin:miter;"/>
   </g>
   <g id="patch_4">
    <path d="M 447.48 299.6575 
L 447.48 14.057632 
" style="fill:none;stroke:#ffffff;stroke-linecap:square;stroke-linejoin:miter;"/>
   </g>
   <g id="patch_5">
    <path d="M 52.1345 299.6575 
L 447.48 299.6575 
" style="fill:none;stroke:#ffffff;stroke-linecap:square;stroke-linejoin:miter;"/>
   </g>
   <g id="patch_6">
    <path d="M 52.1345 14.057632 
L 447.48 14.057632 
" style="fill:none;stroke:#ffffff;stroke-linecap:square;stroke-linejoin:miter;"/>
   </g>
  </g>
 </g>
 <defs>
  <clipPath id="pbc5d6bbe52">
   <rect height="285.599868" width="395.3455" x="52.1345" y="14.057632"/>
  </clipPath>
 </defs>
</svg>
