<?xml version="1.0" encoding="utf-8" standalone="no"?>
<!DOCTYPE svg PUBLIC "-//W3C//DTD SVG 1.1//EN"
  "http://www.w3.org/Graphics/SVG/1.1/DTD/svg11.dtd">
<!-- Created with matplotlib (http://matplotlib.org/) -->
<svg height="345pt" version="1.1" viewBox="0 0 460 345" width="460pt" xmlns="http://www.w3.org/2000/svg" xmlns:xlink="http://www.w3.org/1999/xlink">
 <defs>
  <style type="text/css">
*{stroke-linecap:butt;stroke-linejoin:round;}
  </style>
 </defs>
 <g id="figure_1">
  <g id="patch_1">
   <path d="M 0 345.6 
L 460.8 345.6 
L 460.8 0 
L 0 0 
z
" style="fill:none;"/>
  </g>
  <g id="axes_1">
   <g id="patch_2">
    <path d="M 52.1345 299.6575 
L 447.48 299.6575 
L 447.48 13.993474 
L 52.1345 13.993474 
z
" style="fill:none;"/>
   </g>
   <g id="matplotlib.axis_1">
    <g id="xtick_1">
     <g id="line2d_1">
      <path clip-path="url(#p2b5d564e99)" d="M 70.10475 299.6575 
L 70.10475 13.993474 
" style="fill:none;stroke:#ffffff;stroke-linecap:square;stroke-width:0.8;"/>
     </g>
     <g id="line2d_2">
      <defs>
       <path d="M 0 0 
L 0 3.5 
" id="mcea6073dd9" style="stroke:#555555;stroke-width:0.8;"/>
      </defs>
      <g>
       <use style="fill:#555555;stroke:#555555;stroke-width:0.8;" x="70.10475" xlink:href="#mcea6073dd9" y="299.6575"/>
      </g>
     </g>
     <g id="text_1">
      <!-- −10.0 -->
      <defs>
       <path d="M 10.59375 35.5 
L 73.1875 35.5 
L 73.1875 27.203125 
L 10.59375 27.203125 
z
" id="DejaVuSans-2212"/>
       <path d="M 12.40625 8.296875 
L 28.515625 8.296875 
L 28.515625 63.921875 
L 10.984375 60.40625 
L 10.984375 69.390625 
L 28.421875 72.90625 
L 38.28125 72.90625 
L 38.28125 8.296875 
L 54.390625 8.296875 
L 54.390625 0 
L 12.40625 0 
z
" id="DejaVuSans-31"/>
       <path d="M 31.78125 66.40625 
Q 24.171875 66.40625 20.328125 58.90625 
Q 16.5 51.421875 16.5 36.375 
Q 16.5 21.390625 20.328125 13.890625 
Q 24.171875 6.390625 31.78125 6.390625 
Q 39.453125 6.390625 43.28125 13.890625 
Q 47.125 21.390625 47.125 36.375 
Q 47.125 51.421875 43.28125 58.90625 
Q 39.453125 66.40625 31.78125 66.40625 
z
M 31.78125 74.21875 
Q 44.046875 74.21875 50.515625 64.515625 
Q 56.984375 54.828125 56.984375 36.375 
Q 56.984375 17.96875 50.515625 8.265625 
Q 44.046875 -1.421875 31.78125 -1.421875 
Q 19.53125 -1.421875 13.0625 8.265625 
Q 6.59375 17.96875 6.59375 36.375 
Q 6.59375 54.828125 13.0625 64.515625 
Q 19.53125 74.21875 31.78125 74.21875 
z
" id="DejaVuSans-30"/>
       <path d="M 10.6875 12.40625 
L 21 12.40625 
L 21 0 
L 10.6875 0 
z
" id="DejaVuSans-2e"/>
      </defs>
      <g style="fill:#555555;" transform="translate(54.782094 314.255937)scale(0.1 -0.1)">
       <use xlink:href="#DejaVuSans-2212"/>
       <use x="83.789062" xlink:href="#DejaVuSans-31"/>
       <use x="147.412109" xlink:href="#DejaVuSans-30"/>
       <use x="211.035156" xlink:href="#DejaVuSans-2e"/>
       <use x="242.822266" xlink:href="#DejaVuSans-30"/>
      </g>
     </g>
    </g>
    <g id="xtick_2">
     <g id="line2d_3">
      <path clip-path="url(#p2b5d564e99)" d="M 115.030375 299.6575 
L 115.030375 13.993474 
" style="fill:none;stroke:#ffffff;stroke-linecap:square;stroke-width:0.8;"/>
     </g>
     <g id="line2d_4">
      <g>
       <use style="fill:#555555;stroke:#555555;stroke-width:0.8;" x="115.030375" xlink:href="#mcea6073dd9" y="299.6575"/>
      </g>
     </g>
     <g id="text_2">
      <!-- −7.5 -->
      <defs>
       <path d="M 8.203125 72.90625 
L 55.078125 72.90625 
L 55.078125 68.703125 
L 28.609375 0 
L 18.3125 0 
L 43.21875 64.59375 
L 8.203125 64.59375 
z
" id="DejaVuSans-37"/>
       <path d="M 10.796875 72.90625 
L 49.515625 72.90625 
L 49.515625 64.59375 
L 19.828125 64.59375 
L 19.828125 46.734375 
Q 21.96875 47.46875 24.109375 47.828125 
Q 26.265625 48.1875 28.421875 48.1875 
Q 40.625 48.1875 47.75 41.5 
Q 54.890625 34.8125 54.890625 23.390625 
Q 54.890625 11.625 47.5625 5.09375 
Q 40.234375 -1.421875 26.90625 -1.421875 
Q 22.3125 -1.421875 17.546875 -0.640625 
Q 12.796875 0.140625 7.71875 1.703125 
L 7.71875 11.625 
Q 12.109375 9.234375 16.796875 8.0625 
Q 21.484375 6.890625 26.703125 6.890625 
Q 35.15625 6.890625 40.078125 11.328125 
Q 45.015625 15.765625 45.015625 23.390625 
Q 45.015625 31 40.078125 35.4375 
Q 35.15625 39.890625 26.703125 39.890625 
Q 22.75 39.890625 18.8125 39.015625 
Q 14.890625 38.140625 10.796875 36.28125 
z
" id="DejaVuSans-35"/>
      </defs>
      <g style="fill:#555555;" transform="translate(102.888969 314.255937)scale(0.1 -0.1)">
       <use xlink:href="#DejaVuSans-2212"/>
       <use x="83.789062" xlink:href="#DejaVuSans-37"/>
       <use x="147.412109" xlink:href="#DejaVuSans-2e"/>
       <use x="179.199219" xlink:href="#DejaVuSans-35"/>
      </g>
     </g>
    </g>
    <g id="xtick_3">
     <g id="line2d_5">
      <path clip-path="url(#p2b5d564e99)" d="M 159.956 299.6575 
L 159.956 13.993474 
" style="fill:none;stroke:#ffffff;stroke-linecap:square;stroke-width:0.8;"/>
     </g>
     <g id="line2d_6">
      <g>
       <use style="fill:#555555;stroke:#555555;stroke-width:0.8;" x="159.956" xlink:href="#mcea6073dd9" y="299.6575"/>
      </g>
     </g>
     <g id="text_3">
      <!-- −5.0 -->
      <g style="fill:#555555;" transform="translate(147.814594 314.255937)scale(0.1 -0.1)">
       <use xlink:href="#DejaVuSans-2212"/>
       <use x="83.789062" xlink:href="#DejaVuSans-35"/>
       <use x="147.412109" xlink:href="#DejaVuSans-2e"/>
       <use x="179.199219" xlink:href="#DejaVuSans-30"/>
      </g>
     </g>
    </g>
    <g id="xtick_4">
     <g id="line2d_7">
      <path clip-path="url(#p2b5d564e99)" d="M 204.881625 299.6575 
L 204.881625 13.993474 
" style="fill:none;stroke:#ffffff;stroke-linecap:square;stroke-width:0.8;"/>
     </g>
     <g id="line2d_8">
      <g>
       <use style="fill:#555555;stroke:#555555;stroke-width:0.8;" x="204.881625" xlink:href="#mcea6073dd9" y="299.6575"/>
      </g>
     </g>
     <g id="text_4">
      <!-- −2.5 -->
      <defs>
       <path d="M 19.1875 8.296875 
L 53.609375 8.296875 
L 53.609375 0 
L 7.328125 0 
L 7.328125 8.296875 
Q 12.9375 14.109375 22.625 23.890625 
Q 32.328125 33.6875 34.8125 36.53125 
Q 39.546875 41.84375 41.421875 45.53125 
Q 43.3125 49.21875 43.3125 52.78125 
Q 43.3125 58.59375 39.234375 62.25 
Q 35.15625 65.921875 28.609375 65.921875 
Q 23.96875 65.921875 18.8125 64.3125 
Q 13.671875 62.703125 7.8125 59.421875 
L 7.8125 69.390625 
Q 13.765625 71.78125 18.9375 73 
Q 24.125 74.21875 28.421875 74.21875 
Q 39.75 74.21875 46.484375 68.546875 
Q 53.21875 62.890625 53.21875 53.421875 
Q 53.21875 48.921875 51.53125 44.890625 
Q 49.859375 40.875 45.40625 35.40625 
Q 44.1875 33.984375 37.640625 27.21875 
Q 31.109375 20.453125 19.1875 8.296875 
z
" id="DejaVuSans-32"/>
      </defs>
      <g style="fill:#555555;" transform="translate(192.740219 314.255937)scale(0.1 -0.1)">
       <use xlink:href="#DejaVuSans-2212"/>
       <use x="83.789062" xlink:href="#DejaVuSans-32"/>
       <use x="147.412109" xlink:href="#DejaVuSans-2e"/>
       <use x="179.199219" xlink:href="#DejaVuSans-35"/>
      </g>
     </g>
    </g>
    <g id="xtick_5">
     <g id="line2d_9">
      <path clip-path="url(#p2b5d564e99)" d="M 249.80725 299.6575 
L 249.80725 13.993474 
" style="fill:none;stroke:#ffffff;stroke-linecap:square;stroke-width:0.8;"/>
     </g>
     <g id="line2d_10">
      <g>
       <use style="fill:#555555;stroke:#555555;stroke-width:0.8;" x="249.80725" xlink:href="#mcea6073dd9" y="299.6575"/>
      </g>
     </g>
     <g id="text_5">
      <!-- 0.0 -->
      <g style="fill:#555555;" transform="translate(241.855688 314.255937)scale(0.1 -0.1)">
       <use xlink:href="#DejaVuSans-30"/>
       <use x="63.623047" xlink:href="#DejaVuSans-2e"/>
       <use x="95.410156" xlink:href="#DejaVuSans-30"/>
      </g>
     </g>
    </g>
    <g id="xtick_6">
     <g id="line2d_11">
      <path clip-path="url(#p2b5d564e99)" d="M 294.732875 299.6575 
L 294.732875 13.993474 
" style="fill:none;stroke:#ffffff;stroke-linecap:square;stroke-width:0.8;"/>
     </g>
     <g id="line2d_12">
      <g>
       <use style="fill:#555555;stroke:#555555;stroke-width:0.8;" x="294.732875" xlink:href="#mcea6073dd9" y="299.6575"/>
      </g>
     </g>
     <g id="text_6">
      <!-- 2.5 -->
      <g style="fill:#555555;" transform="translate(286.781313 314.255937)scale(0.1 -0.1)">
       <use xlink:href="#DejaVuSans-32"/>
       <use x="63.623047" xlink:href="#DejaVuSans-2e"/>
       <use x="95.410156" xlink:href="#DejaVuSans-35"/>
      </g>
     </g>
    </g>
    <g id="xtick_7">
     <g id="line2d_13">
      <path clip-path="url(#p2b5d564e99)" d="M 339.6585 299.6575 
L 339.6585 13.993474 
" style="fill:none;stroke:#ffffff;stroke-linecap:square;stroke-width:0.8;"/>
     </g>
     <g id="line2d_14">
      <g>
       <use style="fill:#555555;stroke:#555555;stroke-width:0.8;" x="339.6585" xlink:href="#mcea6073dd9" y="299.6575"/>
      </g>
     </g>
     <g id="text_7">
      <!-- 5.0 -->
      <g style="fill:#555555;" transform="translate(331.706937 314.255937)scale(0.1 -0.1)">
       <use xlink:href="#DejaVuSans-35"/>
       <use x="63.623047" xlink:href="#DejaVuSans-2e"/>
       <use x="95.410156" xlink:href="#DejaVuSans-30"/>
      </g>
     </g>
    </g>
    <g id="xtick_8">
     <g id="line2d_15">
      <path clip-path="url(#p2b5d564e99)" d="M 384.584125 299.6575 
L 384.584125 13.993474 
" style="fill:none;stroke:#ffffff;stroke-linecap:square;stroke-width:0.8;"/>
     </g>
     <g id="line2d_16">
      <g>
       <use style="fill:#555555;stroke:#555555;stroke-width:0.8;" x="384.584125" xlink:href="#mcea6073dd9" y="299.6575"/>
      </g>
     </g>
     <g id="text_8">
      <!-- 7.5 -->
      <g style="fill:#555555;" transform="translate(376.632562 314.255937)scale(0.1 -0.1)">
       <use xlink:href="#DejaVuSans-37"/>
       <use x="63.623047" xlink:href="#DejaVuSans-2e"/>
       <use x="95.410156" xlink:href="#DejaVuSans-35"/>
      </g>
     </g>
    </g>
    <g id="xtick_9">
     <g id="line2d_17">
      <path clip-path="url(#p2b5d564e99)" d="M 429.50975 299.6575 
L 429.50975 13.993474 
" style="fill:none;stroke:#ffffff;stroke-linecap:square;stroke-width:0.8;"/>
     </g>
     <g id="line2d_18">
      <g>
       <use style="fill:#555555;stroke:#555555;stroke-width:0.8;" x="429.50975" xlink:href="#mcea6073dd9" y="299.6575"/>
      </g>
     </g>
     <g id="text_9">
      <!-- 10.0 -->
      <g style="fill:#555555;" transform="translate(418.376937 314.255937)scale(0.1 -0.1)">
       <use xlink:href="#DejaVuSans-31"/>
       <use x="63.623047" xlink:href="#DejaVuSans-30"/>
       <use x="127.246094" xlink:href="#DejaVuSans-2e"/>
       <use x="159.033203" xlink:href="#DejaVuSans-30"/>
      </g>
     </g>
    </g>
    <g id="text_10">
     <!-- $t$ [fs] -->
     <defs>
      <path d="M 42.28125 54.6875 
L 40.921875 47.703125 
L 23 47.703125 
L 17.1875 18.015625 
Q 16.890625 16.359375 16.75 15.234375 
Q 16.609375 14.109375 16.609375 13.484375 
Q 16.609375 10.359375 18.484375 8.9375 
Q 20.359375 7.515625 24.515625 7.515625 
L 33.59375 7.515625 
L 32.078125 0 
L 23.484375 0 
Q 15.484375 0 11.546875 3.125 
Q 7.625 6.25 7.625 12.59375 
Q 7.625 13.71875 7.765625 15.0625 
Q 7.90625 16.40625 8.203125 18.015625 
L 14.015625 47.703125 
L 6.390625 47.703125 
L 7.8125 54.6875 
L 15.28125 54.6875 
L 18.3125 70.21875 
L 27.296875 70.21875 
L 24.3125 54.6875 
z
" id="DejaVuSans-Oblique-74"/>
      <path id="DejaVuSans-20"/>
      <path d="M 8.59375 75.984375 
L 29.296875 75.984375 
L 29.296875 69 
L 17.578125 69 
L 17.578125 -6.203125 
L 29.296875 -6.203125 
L 29.296875 -13.1875 
L 8.59375 -13.1875 
z
" id="DejaVuSans-5b"/>
      <path d="M 37.109375 75.984375 
L 37.109375 68.5 
L 28.515625 68.5 
Q 23.6875 68.5 21.796875 66.546875 
Q 19.921875 64.59375 19.921875 59.515625 
L 19.921875 54.6875 
L 34.71875 54.6875 
L 34.71875 47.703125 
L 19.921875 47.703125 
L 19.921875 0 
L 10.890625 0 
L 10.890625 47.703125 
L 2.296875 47.703125 
L 2.296875 54.6875 
L 10.890625 54.6875 
L 10.890625 58.5 
Q 10.890625 67.625 15.140625 71.796875 
Q 19.390625 75.984375 28.609375 75.984375 
z
" id="DejaVuSans-66"/>
      <path d="M 44.28125 53.078125 
L 44.28125 44.578125 
Q 40.484375 46.53125 36.375 47.5 
Q 32.28125 48.484375 27.875 48.484375 
Q 21.1875 48.484375 17.84375 46.4375 
Q 14.5 44.390625 14.5 40.28125 
Q 14.5 37.15625 16.890625 35.375 
Q 19.28125 33.59375 26.515625 31.984375 
L 29.59375 31.296875 
Q 39.15625 29.25 43.1875 25.515625 
Q 47.21875 21.78125 47.21875 15.09375 
Q 47.21875 7.46875 41.1875 3.015625 
Q 35.15625 -1.421875 24.609375 -1.421875 
Q 20.21875 -1.421875 15.453125 -0.5625 
Q 10.6875 0.296875 5.421875 2 
L 5.421875 11.28125 
Q 10.40625 8.6875 15.234375 7.390625 
Q 20.0625 6.109375 24.8125 6.109375 
Q 31.15625 6.109375 34.5625 8.28125 
Q 37.984375 10.453125 37.984375 14.40625 
Q 37.984375 18.0625 35.515625 20.015625 
Q 33.0625 21.96875 24.703125 23.78125 
L 21.578125 24.515625 
Q 13.234375 26.265625 9.515625 29.90625 
Q 5.8125 33.546875 5.8125 39.890625 
Q 5.8125 47.609375 11.28125 51.796875 
Q 16.75 56 26.8125 56 
Q 31.78125 56 36.171875 55.265625 
Q 40.578125 54.546875 44.28125 53.078125 
z
" id="DejaVuSans-73"/>
      <path d="M 30.421875 75.984375 
L 30.421875 -13.1875 
L 9.71875 -13.1875 
L 9.71875 -6.203125 
L 21.390625 -6.203125 
L 21.390625 69 
L 9.71875 69 
L 9.71875 75.984375 
z
" id="DejaVuSans-5d"/>
     </defs>
     <g style="fill:#555555;" transform="translate(235.58725 329.45375)scale(0.12 -0.12)">
      <use transform="translate(0 0.015625)" xlink:href="#DejaVuSans-Oblique-74"/>
      <use transform="translate(39.208984 0.015625)" xlink:href="#DejaVuSans-20"/>
      <use transform="translate(70.996094 0.015625)" xlink:href="#DejaVuSans-5b"/>
      <use transform="translate(110.009766 0.015625)" xlink:href="#DejaVuSans-66"/>
      <use transform="translate(145.214844 0.015625)" xlink:href="#DejaVuSans-73"/>
      <use transform="translate(197.314453 0.015625)" xlink:href="#DejaVuSans-5d"/>
     </g>
    </g>
   </g>
   <g id="matplotlib.axis_2">
    <g id="ytick_1">
     <g id="line2d_19">
      <path clip-path="url(#p2b5d564e99)" d="M 52.1345 253.213325 
L 447.48 253.213325 
" style="fill:none;stroke:#ffffff;stroke-linecap:square;stroke-width:0.8;"/>
     </g>
     <g id="line2d_20">
      <defs>
       <path d="M 0 0 
L -3.5 0 
" id="m3b9f149c8e" style="stroke:#555555;stroke-width:0.8;"/>
      </defs>
      <g>
       <use style="fill:#555555;stroke:#555555;stroke-width:0.8;" x="52.1345" xlink:href="#m3b9f149c8e" y="253.213325"/>
      </g>
     </g>
     <g id="text_11">
      <!-- −2 -->
      <g style="fill:#555555;" transform="translate(30.392313 257.012544)scale(0.1 -0.1)">
       <use xlink:href="#DejaVuSans-2212"/>
       <use x="83.789062" xlink:href="#DejaVuSans-32"/>
      </g>
     </g>
    </g>
    <g id="ytick_2">
     <g id="line2d_21">
      <path clip-path="url(#p2b5d564e99)" d="M 52.1345 205.533924 
L 447.48 205.533924 
" style="fill:none;stroke:#ffffff;stroke-linecap:square;stroke-width:0.8;"/>
     </g>
     <g id="line2d_22">
      <g>
       <use style="fill:#555555;stroke:#555555;stroke-width:0.8;" x="52.1345" xlink:href="#m3b9f149c8e" y="205.533924"/>
      </g>
     </g>
     <g id="text_12">
      <!-- −1 -->
      <g style="fill:#555555;" transform="translate(30.392313 209.333143)scale(0.1 -0.1)">
       <use xlink:href="#DejaVuSans-2212"/>
       <use x="83.789062" xlink:href="#DejaVuSans-31"/>
      </g>
     </g>
    </g>
    <g id="ytick_3">
     <g id="line2d_23">
      <path clip-path="url(#p2b5d564e99)" d="M 52.1345 157.854523 
L 447.48 157.854523 
" style="fill:none;stroke:#ffffff;stroke-linecap:square;stroke-width:0.8;"/>
     </g>
     <g id="line2d_24">
      <g>
       <use style="fill:#555555;stroke:#555555;stroke-width:0.8;" x="52.1345" xlink:href="#m3b9f149c8e" y="157.854523"/>
      </g>
     </g>
     <g id="text_13">
      <!-- 0 -->
      <g style="fill:#555555;" transform="translate(38.772 161.653741)scale(0.1 -0.1)">
       <use xlink:href="#DejaVuSans-30"/>
      </g>
     </g>
    </g>
    <g id="ytick_4">
     <g id="line2d_25">
      <path clip-path="url(#p2b5d564e99)" d="M 52.1345 110.175121 
L 447.48 110.175121 
" style="fill:none;stroke:#ffffff;stroke-linecap:square;stroke-width:0.8;"/>
     </g>
     <g id="line2d_26">
      <g>
       <use style="fill:#555555;stroke:#555555;stroke-width:0.8;" x="52.1345" xlink:href="#m3b9f149c8e" y="110.175121"/>
      </g>
     </g>
     <g id="text_14">
      <!-- 1 -->
      <g style="fill:#555555;" transform="translate(38.772 113.97434)scale(0.1 -0.1)">
       <use xlink:href="#DejaVuSans-31"/>
      </g>
     </g>
    </g>
    <g id="ytick_5">
     <g id="line2d_27">
      <path clip-path="url(#p2b5d564e99)" d="M 52.1345 62.49572 
L 447.48 62.49572 
" style="fill:none;stroke:#ffffff;stroke-linecap:square;stroke-width:0.8;"/>
     </g>
     <g id="line2d_28">
      <g>
       <use style="fill:#555555;stroke:#555555;stroke-width:0.8;" x="52.1345" xlink:href="#m3b9f149c8e" y="62.49572"/>
      </g>
     </g>
     <g id="text_15">
      <!-- 2 -->
      <g style="fill:#555555;" transform="translate(38.772 66.294939)scale(0.1 -0.1)">
       <use xlink:href="#DejaVuSans-32"/>
      </g>
     </g>
    </g>
    <g id="ytick_6">
     <g id="line2d_29">
      <path clip-path="url(#p2b5d564e99)" d="M 52.1345 14.816319 
L 447.48 14.816319 
" style="fill:none;stroke:#ffffff;stroke-linecap:square;stroke-width:0.8;"/>
     </g>
     <g id="line2d_30">
      <g>
       <use style="fill:#555555;stroke:#555555;stroke-width:0.8;" x="52.1345" xlink:href="#m3b9f149c8e" y="14.816319"/>
      </g>
     </g>
     <g id="text_16">
      <!-- 3 -->
      <defs>
       <path d="M 40.578125 39.3125 
Q 47.65625 37.796875 51.625 33 
Q 55.609375 28.21875 55.609375 21.1875 
Q 55.609375 10.40625 48.1875 4.484375 
Q 40.765625 -1.421875 27.09375 -1.421875 
Q 22.515625 -1.421875 17.65625 -0.515625 
Q 12.796875 0.390625 7.625 2.203125 
L 7.625 11.71875 
Q 11.71875 9.328125 16.59375 8.109375 
Q 21.484375 6.890625 26.8125 6.890625 
Q 36.078125 6.890625 40.9375 10.546875 
Q 45.796875 14.203125 45.796875 21.1875 
Q 45.796875 27.640625 41.28125 31.265625 
Q 36.765625 34.90625 28.71875 34.90625 
L 20.21875 34.90625 
L 20.21875 43.015625 
L 29.109375 43.015625 
Q 36.375 43.015625 40.234375 45.921875 
Q 44.09375 48.828125 44.09375 54.296875 
Q 44.09375 59.90625 40.109375 62.90625 
Q 36.140625 65.921875 28.71875 65.921875 
Q 24.65625 65.921875 20.015625 65.03125 
Q 15.375 64.15625 9.8125 62.3125 
L 9.8125 71.09375 
Q 15.4375 72.65625 20.34375 73.4375 
Q 25.25 74.21875 29.59375 74.21875 
Q 40.828125 74.21875 47.359375 69.109375 
Q 53.90625 64.015625 53.90625 55.328125 
Q 53.90625 49.265625 50.4375 45.09375 
Q 46.96875 40.921875 40.578125 39.3125 
z
" id="DejaVuSans-33"/>
      </defs>
      <g style="fill:#555555;" transform="translate(38.772 18.615538)scale(0.1 -0.1)">
       <use xlink:href="#DejaVuSans-33"/>
      </g>
     </g>
    </g>
    <g id="text_17">
     <!-- $E$ [$10^{10}$ V/m] -->
     <defs>
      <path d="M 16.890625 72.90625 
L 62.984375 72.90625 
L 61.375 64.59375 
L 25.09375 64.59375 
L 20.90625 43.015625 
L 55.71875 43.015625 
L 54.109375 34.71875 
L 19.28125 34.71875 
L 14.203125 8.296875 
L 51.3125 8.296875 
L 49.703125 0 
L 2.6875 0 
z
" id="DejaVuSans-Oblique-45"/>
      <path d="M 28.609375 0 
L 0.78125 72.90625 
L 11.078125 72.90625 
L 34.1875 11.53125 
L 57.328125 72.90625 
L 67.578125 72.90625 
L 39.796875 0 
z
" id="DejaVuSans-56"/>
      <path d="M 25.390625 72.90625 
L 33.6875 72.90625 
L 8.296875 -9.28125 
L 0 -9.28125 
z
" id="DejaVuSans-2f"/>
      <path d="M 52 44.1875 
Q 55.375 50.25 60.0625 53.125 
Q 64.75 56 71.09375 56 
Q 79.640625 56 84.28125 50.015625 
Q 88.921875 44.046875 88.921875 33.015625 
L 88.921875 0 
L 79.890625 0 
L 79.890625 32.71875 
Q 79.890625 40.578125 77.09375 44.375 
Q 74.3125 48.1875 68.609375 48.1875 
Q 61.625 48.1875 57.5625 43.546875 
Q 53.515625 38.921875 53.515625 30.90625 
L 53.515625 0 
L 44.484375 0 
L 44.484375 32.71875 
Q 44.484375 40.625 41.703125 44.40625 
Q 38.921875 48.1875 33.109375 48.1875 
Q 26.21875 48.1875 22.15625 43.53125 
Q 18.109375 38.875 18.109375 30.90625 
L 18.109375 0 
L 9.078125 0 
L 9.078125 54.6875 
L 18.109375 54.6875 
L 18.109375 46.1875 
Q 21.1875 51.21875 25.484375 53.609375 
Q 29.78125 56 35.6875 56 
Q 41.65625 56 45.828125 52.96875 
Q 50 49.953125 52 44.1875 
z
" id="DejaVuSans-6d"/>
     </defs>
     <g style="fill:#555555;" transform="translate(23.896687 194.325487)rotate(-90)scale(0.12 -0.12)">
      <use transform="translate(0 0.765625)" xlink:href="#DejaVuSans-Oblique-45"/>
      <use transform="translate(63.183594 0.765625)" xlink:href="#DejaVuSans-20"/>
      <use transform="translate(94.970703 0.765625)" xlink:href="#DejaVuSans-5b"/>
      <use transform="translate(133.984375 0.765625)" xlink:href="#DejaVuSans-31"/>
      <use transform="translate(197.607422 0.765625)" xlink:href="#DejaVuSans-30"/>
      <use transform="translate(262.1875 39.046875)scale(0.7)" xlink:href="#DejaVuSans-31"/>
      <use transform="translate(306.723633 39.046875)scale(0.7)" xlink:href="#DejaVuSans-30"/>
      <use transform="translate(353.994141 0.765625)" xlink:href="#DejaVuSans-20"/>
      <use transform="translate(385.78125 0.765625)" xlink:href="#DejaVuSans-56"/>
      <use transform="translate(454.189453 0.765625)" xlink:href="#DejaVuSans-2f"/>
      <use transform="translate(487.880859 0.765625)" xlink:href="#DejaVuSans-6d"/>
      <use transform="translate(585.292969 0.765625)" xlink:href="#DejaVuSans-5d"/>
     </g>
    </g>
   </g>
   <g id="line2d_31">
    <path clip-path="url(#p2b5d564e99)" d="M 70.10475 154.301726 
L 71.901775 154.15722 
L 73.6988 154.232704 
L 75.495825 154.556312 
L 77.29285 155.143524 
L 79.089875 155.994258 
L 80.8869 157.090638 
L 83.04333 158.677113 
L 86.277975 161.388703 
L 89.51262 164.055189 
L 91.309645 165.298016 
L 92.747265 166.076422 
L 94.184885 166.60561 
L 95.2631 166.809963 
L 96.341315 166.829638 
L 97.41953 166.650142 
L 98.497745 166.260536 
L 99.57596 165.653952 
L 100.654175 164.828054 
L 102.091795 163.390912 
L 103.529415 161.589697 
L 105.32644 158.885369 
L 107.48287 155.128368 
L 113.592755 143.969592 
L 115.030375 141.872504 
L 116.10859 140.582232 
L 117.186805 139.584632 
L 118.26502 138.921164 
L 118.98383 138.682747 
L 119.70264 138.618529 
L 120.42145 138.736502 
L 121.14026 139.043161 
L 121.85907 139.543376 
L 122.937285 140.662968 
L 124.0155 142.227383 
L 125.093715 144.229385 
L 126.17193 146.651364 
L 127.60955 150.4837 
L 129.406575 156.102603 
L 131.563005 163.711654 
L 136.594675 181.844972 
L 138.032295 186.183326 
L 139.469915 189.754599 
L 140.54813 191.810683 
L 141.26694 192.843033 
L 141.98575 193.58151 
L 142.70456 194.008727 
L 143.42337 194.109768 
L 144.14218 193.872429 
L 144.86099 193.287429 
L 145.5798 192.348603 
L 146.29861 191.053065 
L 147.376825 188.44305 
L 148.45504 185.0492 
L 149.533255 180.906553 
L 150.970875 174.313184 
L 152.408495 166.661908 
L 154.564925 153.716739 
L 160.315405 117.986379 
L 161.753025 110.682883 
L 162.83124 106.075381 
L 163.909455 102.361098 
L 164.628265 100.439861 
L 165.347075 98.998844 
L 166.065885 98.064843 
L 166.784695 97.66044 
L 167.1441 97.662658 
L 167.503505 97.803665 
L 167.86291 98.084955 
L 168.58172 99.072753 
L 169.30053 100.631491 
L 170.01934 102.761206 
L 170.73815 105.456389 
L 171.816365 110.53351 
L 172.89458 116.795135 
L 174.3322 126.827565 
L 175.76982 138.515882 
L 177.566845 154.890716 
L 184.036135 216.165655 
L 185.473755 227.019583 
L 186.55197 233.804556 
L 187.630185 239.225165 
L 188.348995 242.002573 
L 189.067805 244.06403 
L 189.786615 245.376174 
L 190.14602 245.742612 
L 190.505425 245.912207 
L 190.86483 245.882698 
L 191.224235 245.65228 
L 191.58364 245.21961 
L 192.30245 243.744512 
L 193.02126 241.456201 
L 193.74007 238.361263 
L 194.45888 234.474137 
L 195.537095 227.209004 
L 196.61531 218.321322 
L 198.05293 204.204251 
L 199.849955 183.555687 
L 202.006385 155.8222 
L 206.319245 99.331944 
L 208.11627 79.003845 
L 209.55389 65.430004 
L 210.632105 57.200414 
L 211.71032 50.873788 
L 212.42913 47.797851 
L 213.14794 45.682874 
L 213.507345 44.995785 
L 213.86675 44.559862 
L 214.226155 44.377557 
L 214.58556 44.450734 
L 214.944965 44.780661 
L 215.30437 45.368003 
L 216.02318 47.314554 
L 216.74199 50.283508 
L 217.4608 54.258188 
L 218.539015 62.045531 
L 219.61723 71.904765 
L 220.695445 83.660297 
L 222.133065 101.900446 
L 223.93009 127.92829 
L 226.80533 173.571875 
L 229.68057 218.315948 
L 231.477595 242.847168 
L 232.915215 259.348304 
L 233.99343 269.471481 
L 235.071645 277.409163 
L 235.790455 281.395456 
L 236.509265 284.287369 
L 237.228075 286.053451 
L 237.58748 286.507346 
L 237.946885 286.672772 
L 238.30629 286.548794 
L 238.665695 286.135163 
L 239.0251 285.432313 
L 239.74391 283.164111 
L 240.46272 279.761304 
L 241.18153 275.251791 
L 242.259745 266.499332 
L 243.33796 255.517958 
L 244.77558 237.795989 
L 246.2132 217.147514 
L 248.36963 182.355879 
L 253.4013 98.561531 
L 255.198325 73.181103 
L 256.635945 56.295628 
L 257.71416 46.035036 
L 258.792375 38.066318 
L 259.511185 34.106005 
L 260.229995 31.267683 
L 260.948805 29.573882 
L 261.30821 29.160252 
L 261.667615 29.036274 
L 262.02702 29.201699 
L 262.386425 29.655594 
L 262.74583 30.396348 
L 263.46464 32.728627 
L 264.18345 36.172306 
L 264.90226 40.690801 
L 265.980475 49.379398 
L 267.05869 60.182969 
L 268.49631 77.457953 
L 270.293335 102.704917 
L 272.80917 142.137171 
L 276.40322 198.545388 
L 278.200245 223.264572 
L 279.637865 240.086521 
L 280.71608 250.599569 
L 281.794295 259.094249 
L 282.513105 263.562489 
L 283.231915 267.037002 
L 283.950725 269.496227 
L 284.669535 270.928385 
L 285.02894 271.258312 
L 285.388345 271.331489 
L 285.74775 271.149184 
L 286.107155 270.71326 
L 286.46656 270.026172 
L 287.18537 267.911195 
L 287.90418 264.835257 
L 288.62299 260.83805 
L 289.701205 253.221731 
L 290.77942 243.835326 
L 292.21704 228.963127 
L 294.014065 207.460365 
L 296.889305 169.500349 
L 299.764545 132.153358 
L 301.56157 111.504795 
L 302.99919 97.387724 
L 304.077405 88.500041 
L 305.15562 81.234908 
L 306.233835 75.700203 
L 306.952645 73.007265 
L 307.671455 71.125227 
L 308.390265 70.056766 
L 308.74967 69.826347 
L 309.109075 69.796838 
L 309.46848 69.966433 
L 309.827885 70.332871 
L 310.546695 71.645016 
L 311.265505 73.706472 
L 311.984315 76.48388 
L 313.06253 81.904489 
L 314.140745 88.689463 
L 315.578365 99.54339 
L 317.37539 115.331536 
L 320.25063 143.292762 
L 323.12587 170.839612 
L 324.922895 186.101618 
L 326.360515 196.57818 
L 327.43873 203.216085 
L 328.516945 208.696274 
L 329.59516 212.94784 
L 330.31397 215.077554 
L 331.03278 216.636293 
L 331.75159 217.62409 
L 332.4704 218.046387 
L 332.829805 218.048606 
L 333.18921 217.913841 
L 333.90802 217.242093 
L 334.62683 216.05149 
L 335.34564 214.366764 
L 336.423855 210.977133 
L 337.50207 206.653367 
L 338.93969 199.657166 
L 340.736715 189.407075 
L 343.611955 171.182653 
L 346.487195 153.199689 
L 348.28422 143.217595 
L 349.72184 136.341065 
L 351.15946 130.659846 
L 352.237675 127.265996 
L 353.31589 124.65598 
L 354.0347 123.360443 
L 354.75351 122.421616 
L 355.47232 121.836617 
L 356.19113 121.599278 
L 356.90994 121.700319 
L 357.62875 122.127535 
L 358.34756 122.866013 
L 359.06637 123.898362 
L 360.144585 125.954447 
L 361.2228 128.552981 
L 362.66042 132.718978 
L 364.457445 138.757668 
L 368.051495 151.997391 
L 370.56733 160.793683 
L 372.364355 166.243926 
L 373.801975 169.91015 
L 374.88019 172.194745 
L 375.958405 174.052323 
L 377.03662 175.468765 
L 378.114835 176.440209 
L 378.833645 176.843143 
L 379.552455 177.054746 
L 380.271265 177.080715 
L 380.990075 176.928311 
L 381.708885 176.606219 
L 382.7871 175.827049 
L 383.865315 174.727074 
L 385.302935 172.835976 
L 386.740555 170.561388 
L 388.896985 166.683962 
L 393.928655 157.416496 
L 395.72568 154.622493 
L 397.1633 152.735484 
L 398.60092 151.204729 
L 400.03854 150.055094 
L 401.116755 149.448509 
L 402.19497 149.058903 
L 403.273185 148.879408 
L 404.3514 148.899082 
L 405.429615 149.103435 
L 406.867235 149.632624 
L 408.304855 150.411029 
L 410.10188 151.653857 
L 412.617715 153.703946 
L 417.28998 157.588637 
L 419.44641 159.084505 
L 421.243435 160.085978 
L 423.04046 160.832412 
L 424.837485 161.313262 
L 426.63451 161.534983 
L 428.431535 161.518496 
L 429.50975 161.407319 
L 429.50975 161.407319 
" style="fill:none;stroke:#e24a33;stroke-linecap:square;stroke-width:1.5;"/>
   </g>
   <g id="line2d_32">
    <path clip-path="url(#p2b5d564e99)" d="M 70.10475 157.91244 
L 72.97999 159.380449 
L 78.73047 162.394473 
L 80.8869 163.207054 
L 82.683925 163.613122 
L 84.121545 163.714839 
L 85.559165 163.589029 
L 86.996785 163.215812 
L 88.434405 162.583611 
L 89.872025 161.690548 
L 91.309645 160.545543 
L 93.10667 158.792306 
L 95.2631 156.307136 
L 99.216555 151.242503 
L 101.73239 148.225443 
L 103.529415 146.453549 
L 104.967035 145.386456 
L 106.04525 144.839798 
L 107.123465 144.542017 
L 108.20168 144.517389 
L 109.279895 144.785583 
L 110.35811 145.360881 
L 111.436325 146.25148 
L 112.51454 147.458889 
L 113.592755 148.977445 
L 115.030375 151.462318 
L 116.467995 154.423513 
L 118.26502 158.675756 
L 120.780855 165.284832 
L 124.374905 174.729623 
L 126.17193 178.785635 
L 127.60955 181.425409 
L 128.687765 182.953104 
L 129.76598 184.029046 
L 130.48479 184.470111 
L 131.2036 184.67485 
L 131.92241 184.632184 
L 132.64122 184.333075 
L 133.36003 183.770693 
L 134.07884 182.940571 
L 134.79765 181.840734 
L 135.875865 179.687377 
L 136.95408 176.942766 
L 138.032295 173.634497 
L 139.469915 168.420873 
L 141.26694 160.814669 
L 143.42337 150.575199 
L 148.095635 127.989905 
L 149.533255 122.055776 
L 150.970875 117.089915 
L 152.04909 114.156292 
L 152.7679 112.631908 
L 153.48671 111.482842 
L 154.20552 110.731789 
L 154.92433 110.398242 
L 155.64314 110.498194 
L 156.36195 111.043878 
L 157.08076 112.04353 
L 157.79957 113.501191 
L 158.51838 115.416543 
L 159.596595 119.135991 
L 160.67481 123.837872 
L 161.753025 129.463444 
L 163.190645 138.256724 
L 164.98767 150.957002 
L 167.503505 170.758729 
L 171.097555 199.185852 
L 172.89458 211.55744 
L 174.3322 219.79301 
L 175.410415 224.740905 
L 176.48863 228.473136 
L 177.20744 230.224081 
L 177.92625 231.348974 
L 178.285655 231.668579 
L 178.64506 231.822687 
L 179.004465 231.809054 
L 179.36387 231.625814 
L 179.723275 231.271487 
L 180.442085 230.045639 
L 181.160895 228.127686 
L 181.879705 225.520404 
L 182.598515 222.23328 
L 183.67673 216.065278 
L 184.754945 208.488971 
L 186.192565 196.402485 
L 187.630185 182.385909 
L 189.786615 158.752847 
L 195.17769 97.718763 
L 196.61531 84.040462 
L 198.05293 72.599068 
L 199.131145 65.793696 
L 199.849955 62.206059 
L 200.568765 59.432325 
L 201.287575 57.511304 
L 202.006385 56.474253 
L 202.36579 56.294814 
L 202.725195 56.344454 
L 203.0846 56.624781 
L 203.444005 57.136865 
L 204.162815 58.857852 
L 204.881625 61.505003 
L 205.600435 65.06702 
L 206.67865 72.078833 
L 207.756865 80.99639 
L 208.83508 91.671315 
L 210.2727 108.305858 
L 212.069725 132.166179 
L 214.944965 174.312294 
L 217.820205 215.9906 
L 219.61723 239.010788 
L 221.05485 254.580656 
L 222.133065 264.177927 
L 223.21128 271.739036 
L 223.93009 275.555764 
L 224.6489 278.341094 
L 225.36771 280.060852 
L 225.727115 280.513144 
L 226.08652 280.690704 
L 226.445925 280.592079 
L 226.80533 280.216466 
L 227.164735 279.563712 
L 227.883545 277.429458 
L 228.602355 274.201227 
L 229.321165 269.901384 
L 230.39938 261.51657 
L 231.477595 250.948806 
L 232.55581 238.398352 
L 233.99343 219.008134 
L 235.790455 191.482728 
L 239.384505 131.514814 
L 241.90034 91.616369 
L 243.33796 71.650715 
L 244.77558 54.697422 
L 245.853795 44.346281 
L 246.93201 36.268541 
L 247.65082 32.232934 
L 248.36963 29.322855 
L 249.08844 27.565752 
L 249.447845 27.125177 
L 249.80725 26.978203 
L 250.166655 27.125177 
L 250.52606 27.565752 
L 250.885465 28.298888 
L 251.604275 30.635236 
L 252.323085 34.11218 
L 253.041895 38.696932 
L 254.12011 47.553928 
L 255.198325 58.616461 
L 256.635945 76.387171 
L 258.073565 96.993098 
L 260.229995 131.514814 
L 265.261665 213.756209 
L 267.05869 238.398352 
L 268.49631 254.70253 
L 269.574525 264.562599 
L 270.65274 272.183455 
L 271.37155 275.950936 
L 272.09036 278.634323 
L 272.80917 280.216466 
L 273.168575 280.592079 
L 273.52798 280.690704 
L 273.887385 280.513144 
L 274.24679 280.060852 
L 274.606195 279.335925 
L 275.325005 277.079716 
L 276.043815 273.773815 
L 276.762625 269.45717 
L 277.84084 261.194759 
L 278.919055 250.966882 
L 280.356675 234.687289 
L 282.1537 211.022936 
L 284.669535 174.312294 
L 287.90418 127.174239 
L 289.701205 103.914467 
L 291.138825 87.928613 
L 292.21704 77.820415 
L 293.295255 69.523712 
L 294.37347 63.172707 
L 295.09228 60.066154 
L 295.81109 57.88123 
L 296.5299 56.624781 
L 296.889305 56.344454 
L 297.24871 56.294814 
L 297.608115 56.474253 
L 297.96752 56.880636 
L 298.68633 58.363089 
L 299.40514 60.714857 
L 300.12395 63.900847 
L 301.202165 70.149359 
L 302.28038 78.006673 
L 303.718 90.634526 
L 305.515025 109.102557 
L 308.03086 137.84108 
L 311.62491 178.631427 
L 313.421935 196.402485 
L 314.859555 208.488971 
L 315.93777 216.065278 
L 317.015985 222.23328 
L 318.0942 226.909777 
L 318.81301 229.173158 
L 319.53182 230.74499 
L 320.25063 231.625814 
L 320.610035 231.809054 
L 320.96944 231.822687 
L 321.328845 231.668579 
L 321.68825 231.348974 
L 322.40706 230.224081 
L 323.12587 228.473136 
L 323.84468 226.126617 
L 324.922895 221.568852 
L 326.00111 215.889718 
L 327.43873 206.846491 
L 329.235755 193.762604 
L 332.4704 167.851185 
L 334.986235 148.290572 
L 336.78326 135.931048 
L 338.22088 127.490197 
L 339.299095 122.164568 
L 340.37731 117.784784 
L 341.455525 114.40185 
L 342.174335 112.715026 
L 342.893145 111.486605 
L 343.611955 110.714709 
L 344.330765 110.393175 
L 345.049575 110.511743 
L 345.768385 111.056267 
L 346.487195 112.00897 
L 347.206005 113.348721 
L 348.28422 116.03041 
L 349.362435 119.435165 
L 350.800055 124.918775 
L 352.59708 132.90974 
L 355.47232 147.014942 
L 358.34756 160.814669 
L 360.144585 168.420873 
L 361.582205 173.634497 
L 363.019825 177.921919 
L 364.09804 180.471813 
L 365.176255 182.42439 
L 365.895065 183.389283 
L 366.613875 184.085129 
L 367.332685 184.515165 
L 368.051495 184.685058 
L 368.770305 184.602759 
L 369.489115 184.278352 
L 370.207925 183.723868 
L 371.28614 182.491361 
L 372.364355 180.82553 
L 373.801975 178.033492 
L 375.239595 174.729623 
L 377.396025 169.165623 
L 382.06829 156.911737 
L 383.865315 152.887611 
L 385.302935 150.156486 
L 386.740555 147.930996 
L 387.81877 146.618877 
L 388.896985 145.622497 
L 389.9752 144.94269 
L 391.053415 144.573428 
L 392.13163 144.502383 
L 393.209845 144.7116 
L 394.28806 145.178247 
L 395.366275 145.875435 
L 396.803895 147.111269 
L 398.60092 149.038498 
L 401.116755 152.166138 
L 405.429615 157.593453 
L 407.22664 159.533319 
L 409.023665 161.148536 
L 410.461285 162.169394 
L 411.898905 162.932443 
L 413.336525 163.434282 
L 414.774145 163.681795 
L 416.211765 163.690896 
L 417.649385 163.485039 
L 419.44641 162.970546 
L 421.60284 162.064007 
L 424.47808 160.566159 
L 429.50975 157.91244 
L 429.50975 157.91244 
" style="fill:none;stroke:#348abd;stroke-linecap:square;stroke-width:1.5;"/>
   </g>
   <g id="patch_3">
    <path d="M 52.1345 299.6575 
L 52.1345 13.993474 
" style="fill:none;stroke:#ffffff;stroke-linecap:square;stroke-linejoin:miter;"/>
   </g>
   <g id="patch_4">
    <path d="M 447.48 299.6575 
L 447.48 13.993474 
" style="fill:none;stroke:#ffffff;stroke-linecap:square;stroke-linejoin:miter;"/>
   </g>
   <g id="patch_5">
    <path d="M 52.1345 299.6575 
L 447.48 299.6575 
" style="fill:none;stroke:#ffffff;stroke-linecap:square;stroke-linejoin:miter;"/>
   </g>
   <g id="patch_6">
    <path d="M 52.1345 13.993474 
L 447.48 13.993474 
" style="fill:none;stroke:#ffffff;stroke-linecap:square;stroke-linejoin:miter;"/>
   </g>
  </g>
 </g>
 <defs>
  <clipPath id="p2b5d564e99">
   <rect height="285.664026" width="395.3455" x="52.1345" y="13.993474"/>
  </clipPath>
 </defs>
</svg>
