<?xml version="1.0" encoding="utf-8" standalone="no"?>
<!DOCTYPE svg PUBLIC "-//W3C//DTD SVG 1.1//EN"
  "http://www.w3.org/Graphics/SVG/1.1/DTD/svg11.dtd">
<!-- Created with matplotlib (http://matplotlib.org/) -->
<svg height="345pt" version="1.1" viewBox="0 0 460 345" width="460pt" xmlns="http://www.w3.org/2000/svg" xmlns:xlink="http://www.w3.org/1999/xlink">
 <defs>
  <style type="text/css">
*{stroke-linecap:butt;stroke-linejoin:round;}
  </style>
 </defs>
 <g id="figure_1">
  <g id="patch_1">
   <path d="M 0 345.6 
L 460.8 345.6 
L 460.8 0 
L 0 0 
z
" style="fill:none;"/>
  </g>
  <g id="axes_1">
   <g id="patch_2">
    <path d="M 50.8745 301.9975 
L 447.48 301.9975 
L 447.48 14.057632 
L 50.8745 14.057632 
z
" style="fill:none;"/>
   </g>
   <g id="matplotlib.axis_1">
    <g id="xtick_1">
     <g id="line2d_1">
      <defs>
       <path d="M 0 0 
L 0 3.5 
" id="m7b3cf8239a" style="stroke:#000000;stroke-width:0.8;"/>
      </defs>
      <g>
       <use style="stroke:#000000;stroke-width:0.8;" x="114.064366" xlink:href="#m7b3cf8239a" y="301.9975"/>
      </g>
     </g>
     <g id="text_1">
      <!-- −20 -->
      <defs>
       <path d="M 10.59375 35.5 
L 73.1875 35.5 
L 73.1875 27.203125 
L 10.59375 27.203125 
z
" id="DejaVuSans-2212"/>
       <path d="M 19.1875 8.296875 
L 53.609375 8.296875 
L 53.609375 0 
L 7.328125 0 
L 7.328125 8.296875 
Q 12.9375 14.109375 22.625 23.890625 
Q 32.328125 33.6875 34.8125 36.53125 
Q 39.546875 41.84375 41.421875 45.53125 
Q 43.3125 49.21875 43.3125 52.78125 
Q 43.3125 58.59375 39.234375 62.25 
Q 35.15625 65.921875 28.609375 65.921875 
Q 23.96875 65.921875 18.8125 64.3125 
Q 13.671875 62.703125 7.8125 59.421875 
L 7.8125 69.390625 
Q 13.765625 71.78125 18.9375 73 
Q 24.125 74.21875 28.421875 74.21875 
Q 39.75 74.21875 46.484375 68.546875 
Q 53.21875 62.890625 53.21875 53.421875 
Q 53.21875 48.921875 51.53125 44.890625 
Q 49.859375 40.875 45.40625 35.40625 
Q 44.1875 33.984375 37.640625 27.21875 
Q 31.109375 20.453125 19.1875 8.296875 
z
" id="DejaVuSans-32"/>
       <path d="M 31.78125 66.40625 
Q 24.171875 66.40625 20.328125 58.90625 
Q 16.5 51.421875 16.5 36.375 
Q 16.5 21.390625 20.328125 13.890625 
Q 24.171875 6.390625 31.78125 6.390625 
Q 39.453125 6.390625 43.28125 13.890625 
Q 47.125 21.390625 47.125 36.375 
Q 47.125 51.421875 43.28125 58.90625 
Q 39.453125 66.40625 31.78125 66.40625 
z
M 31.78125 74.21875 
Q 44.046875 74.21875 50.515625 64.515625 
Q 56.984375 54.828125 56.984375 36.375 
Q 56.984375 17.96875 50.515625 8.265625 
Q 44.046875 -1.421875 31.78125 -1.421875 
Q 19.53125 -1.421875 13.0625 8.265625 
Q 6.59375 17.96875 6.59375 36.375 
Q 6.59375 54.828125 13.0625 64.515625 
Q 19.53125 74.21875 31.78125 74.21875 
z
" id="DejaVuSans-30"/>
      </defs>
      <g transform="translate(103.512022 316.595937)scale(0.1 -0.1)">
       <use xlink:href="#DejaVuSans-2212"/>
       <use x="83.789062" xlink:href="#DejaVuSans-32"/>
       <use x="147.412109" xlink:href="#DejaVuSans-30"/>
      </g>
     </g>
    </g>
    <g id="xtick_2">
     <g id="line2d_2">
      <g>
       <use style="stroke:#000000;stroke-width:0.8;" x="181.620808" xlink:href="#m7b3cf8239a" y="301.9975"/>
      </g>
     </g>
     <g id="text_2">
      <!-- −10 -->
      <defs>
       <path d="M 12.40625 8.296875 
L 28.515625 8.296875 
L 28.515625 63.921875 
L 10.984375 60.40625 
L 10.984375 69.390625 
L 28.421875 72.90625 
L 38.28125 72.90625 
L 38.28125 8.296875 
L 54.390625 8.296875 
L 54.390625 0 
L 12.40625 0 
z
" id="DejaVuSans-31"/>
      </defs>
      <g transform="translate(171.068464 316.595937)scale(0.1 -0.1)">
       <use xlink:href="#DejaVuSans-2212"/>
       <use x="83.789062" xlink:href="#DejaVuSans-31"/>
       <use x="147.412109" xlink:href="#DejaVuSans-30"/>
      </g>
     </g>
    </g>
    <g id="xtick_3">
     <g id="line2d_3">
      <g>
       <use style="stroke:#000000;stroke-width:0.8;" x="249.17725" xlink:href="#m7b3cf8239a" y="301.9975"/>
      </g>
     </g>
     <g id="text_3">
      <!-- 0 -->
      <g transform="translate(245.996 316.595937)scale(0.1 -0.1)">
       <use xlink:href="#DejaVuSans-30"/>
      </g>
     </g>
    </g>
    <g id="xtick_4">
     <g id="line2d_4">
      <g>
       <use style="stroke:#000000;stroke-width:0.8;" x="316.733692" xlink:href="#m7b3cf8239a" y="301.9975"/>
      </g>
     </g>
     <g id="text_4">
      <!-- 10 -->
      <g transform="translate(310.371192 316.595937)scale(0.1 -0.1)">
       <use xlink:href="#DejaVuSans-31"/>
       <use x="63.623047" xlink:href="#DejaVuSans-30"/>
      </g>
     </g>
    </g>
    <g id="xtick_5">
     <g id="line2d_5">
      <g>
       <use style="stroke:#000000;stroke-width:0.8;" x="384.290134" xlink:href="#m7b3cf8239a" y="301.9975"/>
      </g>
     </g>
     <g id="text_5">
      <!-- 20 -->
      <g transform="translate(377.927634 316.595937)scale(0.1 -0.1)">
       <use xlink:href="#DejaVuSans-32"/>
       <use x="63.623047" xlink:href="#DejaVuSans-30"/>
      </g>
     </g>
    </g>
    <g id="text_6">
     <!-- $t$ [fs] -->
     <defs>
      <path d="M 42.28125 54.6875 
L 40.921875 47.703125 
L 23 47.703125 
L 17.1875 18.015625 
Q 16.890625 16.359375 16.75 15.234375 
Q 16.609375 14.109375 16.609375 13.484375 
Q 16.609375 10.359375 18.484375 8.9375 
Q 20.359375 7.515625 24.515625 7.515625 
L 33.59375 7.515625 
L 32.078125 0 
L 23.484375 0 
Q 15.484375 0 11.546875 3.125 
Q 7.625 6.25 7.625 12.59375 
Q 7.625 13.71875 7.765625 15.0625 
Q 7.90625 16.40625 8.203125 18.015625 
L 14.015625 47.703125 
L 6.390625 47.703125 
L 7.8125 54.6875 
L 15.28125 54.6875 
L 18.3125 70.21875 
L 27.296875 70.21875 
L 24.3125 54.6875 
z
" id="DejaVuSans-Oblique-74"/>
      <path id="DejaVuSans-20"/>
      <path d="M 8.59375 75.984375 
L 29.296875 75.984375 
L 29.296875 69 
L 17.578125 69 
L 17.578125 -6.203125 
L 29.296875 -6.203125 
L 29.296875 -13.1875 
L 8.59375 -13.1875 
z
" id="DejaVuSans-5b"/>
      <path d="M 37.109375 75.984375 
L 37.109375 68.5 
L 28.515625 68.5 
Q 23.6875 68.5 21.796875 66.546875 
Q 19.921875 64.59375 19.921875 59.515625 
L 19.921875 54.6875 
L 34.71875 54.6875 
L 34.71875 47.703125 
L 19.921875 47.703125 
L 19.921875 0 
L 10.890625 0 
L 10.890625 47.703125 
L 2.296875 47.703125 
L 2.296875 54.6875 
L 10.890625 54.6875 
L 10.890625 58.5 
Q 10.890625 67.625 15.140625 71.796875 
Q 19.390625 75.984375 28.609375 75.984375 
z
" id="DejaVuSans-66"/>
      <path d="M 44.28125 53.078125 
L 44.28125 44.578125 
Q 40.484375 46.53125 36.375 47.5 
Q 32.28125 48.484375 27.875 48.484375 
Q 21.1875 48.484375 17.84375 46.4375 
Q 14.5 44.390625 14.5 40.28125 
Q 14.5 37.15625 16.890625 35.375 
Q 19.28125 33.59375 26.515625 31.984375 
L 29.59375 31.296875 
Q 39.15625 29.25 43.1875 25.515625 
Q 47.21875 21.78125 47.21875 15.09375 
Q 47.21875 7.46875 41.1875 3.015625 
Q 35.15625 -1.421875 24.609375 -1.421875 
Q 20.21875 -1.421875 15.453125 -0.5625 
Q 10.6875 0.296875 5.421875 2 
L 5.421875 11.28125 
Q 10.40625 8.6875 15.234375 7.390625 
Q 20.0625 6.109375 24.8125 6.109375 
Q 31.15625 6.109375 34.5625 8.28125 
Q 37.984375 10.453125 37.984375 14.40625 
Q 37.984375 18.0625 35.515625 20.015625 
Q 33.0625 21.96875 24.703125 23.78125 
L 21.578125 24.515625 
Q 13.234375 26.265625 9.515625 29.90625 
Q 5.8125 33.546875 5.8125 39.890625 
Q 5.8125 47.609375 11.28125 51.796875 
Q 16.75 56 26.8125 56 
Q 31.78125 56 36.171875 55.265625 
Q 40.578125 54.546875 44.28125 53.078125 
z
" id="DejaVuSans-73"/>
      <path d="M 30.421875 75.984375 
L 30.421875 -13.1875 
L 9.71875 -13.1875 
L 9.71875 -6.203125 
L 21.390625 -6.203125 
L 21.390625 69 
L 9.71875 69 
L 9.71875 75.984375 
z
" id="DejaVuSans-5d"/>
     </defs>
     <g transform="translate(237.32725 330.274062)scale(0.1 -0.1)">
      <use transform="translate(0 0.015625)" xlink:href="#DejaVuSans-Oblique-74"/>
      <use transform="translate(39.208984 0.015625)" xlink:href="#DejaVuSans-20"/>
      <use transform="translate(70.996094 0.015625)" xlink:href="#DejaVuSans-5b"/>
      <use transform="translate(110.009766 0.015625)" xlink:href="#DejaVuSans-66"/>
      <use transform="translate(145.214844 0.015625)" xlink:href="#DejaVuSans-73"/>
      <use transform="translate(197.314453 0.015625)" xlink:href="#DejaVuSans-5d"/>
     </g>
    </g>
   </g>
   <g id="matplotlib.axis_2">
    <g id="ytick_1">
     <g id="line2d_6">
      <defs>
       <path d="M 0 0 
L -3.5 0 
" id="mcd96d84c58" style="stroke:#000000;stroke-width:0.8;"/>
      </defs>
      <g>
       <use style="stroke:#000000;stroke-width:0.8;" x="50.8745" xlink:href="#mcd96d84c58" y="255.180438"/>
      </g>
     </g>
     <g id="text_7">
      <!-- −2 -->
      <g transform="translate(29.132313 258.979657)scale(0.1 -0.1)">
       <use xlink:href="#DejaVuSans-2212"/>
       <use x="83.789062" xlink:href="#DejaVuSans-32"/>
      </g>
     </g>
    </g>
    <g id="ytick_2">
     <g id="line2d_7">
      <g>
       <use style="stroke:#000000;stroke-width:0.8;" x="50.8745" xlink:href="#mcd96d84c58" y="207.107873"/>
      </g>
     </g>
     <g id="text_8">
      <!-- −1 -->
      <g transform="translate(29.132313 210.907092)scale(0.1 -0.1)">
       <use xlink:href="#DejaVuSans-2212"/>
       <use x="83.789062" xlink:href="#DejaVuSans-31"/>
      </g>
     </g>
    </g>
    <g id="ytick_3">
     <g id="line2d_8">
      <g>
       <use style="stroke:#000000;stroke-width:0.8;" x="50.8745" xlink:href="#mcd96d84c58" y="159.035308"/>
      </g>
     </g>
     <g id="text_9">
      <!-- 0 -->
      <g transform="translate(37.512 162.834526)scale(0.1 -0.1)">
       <use xlink:href="#DejaVuSans-30"/>
      </g>
     </g>
    </g>
    <g id="ytick_4">
     <g id="line2d_9">
      <g>
       <use style="stroke:#000000;stroke-width:0.8;" x="50.8745" xlink:href="#mcd96d84c58" y="110.962742"/>
      </g>
     </g>
     <g id="text_10">
      <!-- 1 -->
      <g transform="translate(37.512 114.761961)scale(0.1 -0.1)">
       <use xlink:href="#DejaVuSans-31"/>
      </g>
     </g>
    </g>
    <g id="ytick_5">
     <g id="line2d_10">
      <g>
       <use style="stroke:#000000;stroke-width:0.8;" x="50.8745" xlink:href="#mcd96d84c58" y="62.890177"/>
      </g>
     </g>
     <g id="text_11">
      <!-- 2 -->
      <g transform="translate(37.512 66.689396)scale(0.1 -0.1)">
       <use xlink:href="#DejaVuSans-32"/>
      </g>
     </g>
    </g>
    <g id="ytick_6">
     <g id="line2d_11">
      <g>
       <use style="stroke:#000000;stroke-width:0.8;" x="50.8745" xlink:href="#mcd96d84c58" y="14.817612"/>
      </g>
     </g>
     <g id="text_12">
      <!-- 3 -->
      <defs>
       <path d="M 40.578125 39.3125 
Q 47.65625 37.796875 51.625 33 
Q 55.609375 28.21875 55.609375 21.1875 
Q 55.609375 10.40625 48.1875 4.484375 
Q 40.765625 -1.421875 27.09375 -1.421875 
Q 22.515625 -1.421875 17.65625 -0.515625 
Q 12.796875 0.390625 7.625 2.203125 
L 7.625 11.71875 
Q 11.71875 9.328125 16.59375 8.109375 
Q 21.484375 6.890625 26.8125 6.890625 
Q 36.078125 6.890625 40.9375 10.546875 
Q 45.796875 14.203125 45.796875 21.1875 
Q 45.796875 27.640625 41.28125 31.265625 
Q 36.765625 34.90625 28.71875 34.90625 
L 20.21875 34.90625 
L 20.21875 43.015625 
L 29.109375 43.015625 
Q 36.375 43.015625 40.234375 45.921875 
Q 44.09375 48.828125 44.09375 54.296875 
Q 44.09375 59.90625 40.109375 62.90625 
Q 36.140625 65.921875 28.71875 65.921875 
Q 24.65625 65.921875 20.015625 65.03125 
Q 15.375 64.15625 9.8125 62.3125 
L 9.8125 71.09375 
Q 15.4375 72.65625 20.34375 73.4375 
Q 25.25 74.21875 29.59375 74.21875 
Q 40.828125 74.21875 47.359375 69.109375 
Q 53.90625 64.015625 53.90625 55.328125 
Q 53.90625 49.265625 50.4375 45.09375 
Q 46.96875 40.921875 40.578125 39.3125 
z
" id="DejaVuSans-33"/>
      </defs>
      <g transform="translate(37.512 18.616831)scale(0.1 -0.1)">
       <use xlink:href="#DejaVuSans-33"/>
      </g>
     </g>
    </g>
    <g id="text_13">
     <!-- $E$ [$10^{10}$ V/m] -->
     <defs>
      <path d="M 16.890625 72.90625 
L 62.984375 72.90625 
L 61.375 64.59375 
L 25.09375 64.59375 
L 20.90625 43.015625 
L 55.71875 43.015625 
L 54.109375 34.71875 
L 19.28125 34.71875 
L 14.203125 8.296875 
L 51.3125 8.296875 
L 49.703125 0 
L 2.6875 0 
z
" id="DejaVuSans-Oblique-45"/>
      <path d="M 28.609375 0 
L 0.78125 72.90625 
L 11.078125 72.90625 
L 34.1875 11.53125 
L 57.328125 72.90625 
L 67.578125 72.90625 
L 39.796875 0 
z
" id="DejaVuSans-56"/>
      <path d="M 25.390625 72.90625 
L 33.6875 72.90625 
L 8.296875 -9.28125 
L 0 -9.28125 
z
" id="DejaVuSans-2f"/>
      <path d="M 52 44.1875 
Q 55.375 50.25 60.0625 53.125 
Q 64.75 56 71.09375 56 
Q 79.640625 56 84.28125 50.015625 
Q 88.921875 44.046875 88.921875 33.015625 
L 88.921875 0 
L 79.890625 0 
L 79.890625 32.71875 
Q 79.890625 40.578125 77.09375 44.375 
Q 74.3125 48.1875 68.609375 48.1875 
Q 61.625 48.1875 57.5625 43.546875 
Q 53.515625 38.921875 53.515625 30.90625 
L 53.515625 0 
L 44.484375 0 
L 44.484375 32.71875 
Q 44.484375 40.625 41.703125 44.40625 
Q 38.921875 48.1875 33.109375 48.1875 
Q 26.21875 48.1875 22.15625 43.53125 
Q 18.109375 38.875 18.109375 30.90625 
L 18.109375 0 
L 9.078125 0 
L 9.078125 54.6875 
L 18.109375 54.6875 
L 18.109375 46.1875 
Q 21.1875 51.21875 25.484375 53.609375 
Q 29.78125 56 35.6875 56 
Q 41.65625 56 45.828125 52.96875 
Q 50 49.953125 52 44.1875 
z
" id="DejaVuSans-6d"/>
     </defs>
     <g transform="translate(23.052625 189.277566)rotate(-90)scale(0.1 -0.1)">
      <use transform="translate(0 0.765625)" xlink:href="#DejaVuSans-Oblique-45"/>
      <use transform="translate(63.183594 0.765625)" xlink:href="#DejaVuSans-20"/>
      <use transform="translate(94.970703 0.765625)" xlink:href="#DejaVuSans-5b"/>
      <use transform="translate(133.984375 0.765625)" xlink:href="#DejaVuSans-31"/>
      <use transform="translate(197.607422 0.765625)" xlink:href="#DejaVuSans-30"/>
      <use transform="translate(262.1875 39.046875)scale(0.7)" xlink:href="#DejaVuSans-31"/>
      <use transform="translate(306.723633 39.046875)scale(0.7)" xlink:href="#DejaVuSans-30"/>
      <use transform="translate(353.994141 0.765625)" xlink:href="#DejaVuSans-20"/>
      <use transform="translate(385.78125 0.765625)" xlink:href="#DejaVuSans-56"/>
      <use transform="translate(454.189453 0.765625)" xlink:href="#DejaVuSans-2f"/>
      <use transform="translate(487.880859 0.765625)" xlink:href="#DejaVuSans-6d"/>
      <use transform="translate(585.292969 0.765625)" xlink:href="#DejaVuSans-5d"/>
     </g>
    </g>
   </g>
   <g id="line2d_12">
    <path clip-path="url(#pb04e10ae04)" d="M 68.902023 159.035308 
L 154.395227 159.144181 
L 158.002535 159.1008 
L 161.429478 158.81286 
L 164.49569 158.603511 
L 166.299344 158.702575 
L 167.922633 159.002707 
L 170.087018 159.648029 
L 172.251403 160.257402 
L 173.513961 160.388298 
L 174.596153 160.270052 
L 175.678345 159.894972 
L 176.760538 159.258534 
L 178.023096 158.245463 
L 180.908942 155.805042 
L 181.810769 155.391878 
L 182.532231 155.307205 
L 183.253693 155.488071 
L 183.975154 155.963465 
L 184.696616 156.74412 
L 185.598443 158.129841 
L 186.680635 160.285696 
L 189.746847 166.786968 
L 190.468309 167.688897 
L 191.009405 168.042111 
L 191.550502 168.068864 
L 191.911232 167.887767 
L 192.452329 167.299071 
L 192.993425 166.318436 
L 193.714886 164.405207 
L 194.436348 161.846796 
L 195.518541 157.039098 
L 198.404387 143.303046 
L 199.125849 141.058443 
L 199.666945 140.020753 
L 200.027676 139.688676 
L 200.388407 139.67123 
L 200.749137 139.986563 
L 201.109868 140.647848 
L 201.650964 142.303638 
L 202.192061 144.754276 
L 202.913522 149.198326 
L 203.815349 156.388278 
L 205.258273 170.246812 
L 206.881561 185.450759 
L 207.603023 190.633144 
L 208.144119 193.448487 
L 208.685215 195.144517 
L 209.045946 195.57945 
L 209.226312 195.574773 
L 209.406677 195.417297 
L 209.767408 194.633386 
L 210.128139 193.212907 
L 210.669235 189.882371 
L 211.210331 185.145554 
L 211.931793 176.808599 
L 212.83362 163.701028 
L 214.817639 130.113605 
L 215.899832 113.722663 
L 216.621293 105.414506 
L 217.16239 101.104002 
L 217.523121 99.294679 
L 217.883851 98.411342 
L 218.064217 98.33263 
L 218.244582 98.50241 
L 218.605313 99.601073 
L 218.966044 101.724166 
L 219.50714 106.823931 
L 220.048236 114.147012 
L 220.769698 127.066592 
L 221.671525 147.33856 
L 225.098468 230.690178 
L 225.819929 241.276044 
L 226.361026 246.066742 
L 226.721756 247.590641 
L 226.902122 247.826948 
L 227.082487 247.705083 
L 227.262853 247.221052 
L 227.623584 245.158038 
L 227.984314 241.636369 
L 228.525411 233.677042 
L 229.246872 218.388165 
L 230.148699 192.920504 
L 231.411257 149.675374 
L 233.214911 87.910912 
L 234.116738 64.240496 
L 234.8382 51.400169 
L 235.379296 46.040121 
L 235.740027 44.67386 
L 235.920392 44.674423 
L 236.100758 45.136013 
L 236.461489 47.446407 
L 236.822219 51.593779 
L 237.363316 61.157487 
L 238.084777 79.683228 
L 238.986604 110.560207 
L 240.429528 170.536241 
L 242.052816 236.607696 
L 242.954643 264.806337 
L 243.676105 280.214071 
L 244.217201 286.839448 
L 244.577932 288.736091 
L 244.758297 288.909324 
L 244.938663 288.562403 
L 245.299394 286.310916 
L 245.660125 282.00914 
L 246.201221 271.857425 
L 246.922682 252.004431 
L 247.824509 218.882975 
L 249.267433 154.888438 
L 250.890721 85.004667 
L 251.792548 55.295352 
L 252.51401 38.963128 
L 253.055106 31.759699 
L 253.415837 29.508213 
L 253.596203 29.161291 
L 253.776568 29.334524 
L 253.956933 30.025883 
L 254.317664 32.944027 
L 254.678395 37.856545 
L 255.219491 48.754295 
L 255.940953 69.147589 
L 256.84278 101.996763 
L 260.450088 243.59312 
L 261.17155 260.535082 
L 261.712646 268.778216 
L 262.073377 272.010466 
L 262.434108 273.396192 
L 262.614473 273.396756 
L 262.794838 272.939741 
L 263.155569 270.676221 
L 263.5163 266.670447 
L 264.057396 257.605628 
L 264.778858 240.501165 
L 265.680685 212.935697 
L 269.107628 99.682451 
L 269.829089 84.393574 
L 270.370186 76.434246 
L 270.911282 71.698255 
L 271.272013 70.365533 
L 271.452378 70.243668 
L 271.632744 70.479975 
L 271.993474 72.003874 
L 272.354205 74.876855 
L 272.895301 81.532391 
L 273.616763 94.213597 
L 274.51859 114.673651 
L 277.945533 197.885547 
L 278.666995 209.046276 
L 279.208091 214.90017 
L 279.749187 218.469543 
L 280.109918 219.568205 
L 280.290283 219.737986 
L 280.470649 219.659274 
L 280.651014 219.336722 
L 281.011745 217.983437 
L 281.372476 215.733675 
L 281.913572 210.831551 
L 282.635034 201.8901 
L 283.717226 184.936035 
L 286.242342 143.670178 
L 287.144169 132.925061 
L 287.86563 126.918997 
L 288.406727 124.067378 
L 288.767457 122.966388 
L 289.128188 122.495842 
L 289.308554 122.491165 
L 289.488919 122.635901 
L 289.84965 123.357273 
L 290.210381 124.622129 
L 290.751477 127.437471 
L 291.472939 132.619857 
L 292.555131 142.454133 
L 294.899881 164.749145 
L 295.801708 171.255346 
L 296.52317 175.037526 
L 297.064266 176.959763 
L 297.605363 178.084053 
L 297.966093 178.399386 
L 298.326824 178.38194 
L 298.687555 178.049862 
L 299.048286 177.425695 
L 299.589382 176.000211 
L 300.310844 173.347068 
L 301.393036 168.303629 
L 303.737787 156.953399 
L 304.639614 153.665408 
L 305.361075 151.75218 
L 305.902171 150.771544 
L 306.443268 150.182848 
L 306.984364 149.97204 
L 307.345095 150.028505 
L 307.886191 150.381718 
L 308.427287 151.017514 
L 309.148749 152.216809 
L 310.230941 154.50308 
L 312.575692 159.614295 
L 313.477519 161.084424 
L 314.19898 161.940566 
L 314.920442 162.492071 
L 315.641904 162.744493 
L 316.363365 162.722651 
L 317.084827 162.466322 
L 317.986654 161.892859 
L 319.429577 160.646509 
L 321.413597 158.941328 
L 322.495789 158.264089 
L 323.577982 157.844601 
L 324.660174 157.685565 
L 325.742367 157.751332 
L 327.18529 158.082714 
L 331.694425 159.31895 
L 333.498079 159.465325 
L 335.662464 159.37728 
L 342.335984 158.914781 
L 346.84512 159.000568 
L 353.157909 159.060848 
L 378.409066 159.035094 
L 429.452477 159.035308 
L 429.452477 159.035308 
" style="fill:none;stroke:#1f77b4;stroke-linecap:square;stroke-width:1.5;"/>
   </g>
   <g id="line2d_13">
    <path clip-path="url(#pb04e10ae04)" d="M 68.902023 159.035308 
L 156.739977 158.928046 
L 160.888382 158.812375 
L 163.233132 158.99333 
L 166.118979 159.477588 
L 168.463729 159.794342 
L 169.906652 159.770226 
L 171.16921 159.537105 
L 172.431768 159.091565 
L 174.235422 158.175571 
L 176.399807 157.081434 
L 177.482 156.787021 
L 178.383827 156.780678 
L 179.105288 156.969324 
L 179.82675 157.347482 
L 180.728577 158.089974 
L 181.810769 159.336604 
L 183.434058 161.653772 
L 184.876981 163.628628 
L 185.778808 164.513635 
L 186.50027 164.891562 
L 187.041366 164.93258 
L 187.582462 164.737272 
L 188.123559 164.287724 
L 188.664655 163.574854 
L 189.386117 162.218228 
L 190.287944 159.923817 
L 191.550502 155.885139 
L 193.714886 148.743423 
L 194.436348 146.997988 
L 194.977444 146.095411 
L 195.518541 145.621076 
L 195.879271 145.573028 
L 196.240002 145.756691 
L 196.600733 146.183083 
L 197.141829 147.292598 
L 197.682925 148.970629 
L 198.404387 152.061445 
L 199.306214 157.135511 
L 200.568772 165.781725 
L 202.372426 178.254883 
L 203.274253 182.951735 
L 203.815349 184.857555 
L 204.17608 185.662774 
L 204.536811 186.055558 
L 204.717176 186.088229 
L 205.077907 185.811446 
L 205.438638 185.063973 
L 205.799369 183.834966 
L 206.340465 181.084735 
L 207.061927 175.778019 
L 207.963754 166.797472 
L 209.226312 151.134461 
L 211.210331 125.830174 
L 212.112158 117.206727 
L 212.653254 113.662376 
L 213.194351 111.616512 
L 213.555082 111.173334 
L 213.735447 111.243372 
L 213.915812 111.512963 
L 214.276543 112.661451 
L 214.637274 114.631729 
L 215.17837 119.122027 
L 215.899832 127.855204 
L 216.801659 142.642648 
L 218.064217 168.31257 
L 220.048236 209.433036 
L 220.950063 223.420496 
L 221.49116 229.231239 
L 222.032256 232.701947 
L 222.392987 233.591891 
L 222.573352 233.589062 
L 222.753717 233.281249 
L 223.114448 231.738761 
L 223.475179 228.953496 
L 224.016275 222.473573 
L 224.737737 209.759832 
L 225.639564 188.214814 
L 226.902122 150.989653 
L 228.886141 91.880985 
L 229.787968 71.830419 
L 230.329065 63.426406 
L 230.870161 58.261927 
L 231.230892 56.770791 
L 231.411257 56.634689 
L 231.591623 56.911709 
L 231.952353 58.715298 
L 232.313084 62.184414 
L 232.85418 70.447401 
L 233.395277 82.188209 
L 234.116738 102.637481 
L 235.198931 141.074242 
L 237.904412 243.261547 
L 238.625874 262.936491 
L 239.16697 273.665759 
L 239.708066 280.419447 
L 240.068797 282.550222 
L 240.249162 282.880384 
L 240.429528 282.714561 
L 240.609893 282.050962 
L 240.970624 279.23375 
L 241.331355 274.456378 
L 241.872451 263.757433 
L 242.593913 243.470758 
L 243.49574 210.238192 
L 245.119028 138.7508 
L 246.561952 78.642051 
L 247.463779 50.172466 
L 248.18524 34.985123 
L 248.726336 28.726934 
L 249.087067 27.145807 
L 249.267433 27.145807 
L 249.447798 27.67359 
L 249.808529 30.301412 
L 250.16926 34.985123 
L 250.710356 45.684314 
L 251.431818 66.13921 
L 252.333645 99.662698 
L 253.956933 171.338715 
L 255.399857 231.085019 
L 256.301684 259.297818 
L 257.023145 274.456378 
L 257.564242 280.88989 
L 257.924972 282.714561 
L 258.105338 282.880384 
L 258.285703 282.550222 
L 258.646434 280.419447 
L 259.007165 276.377507 
L 259.548261 266.92895 
L 260.269723 248.692599 
L 261.17155 218.776103 
L 262.975204 148.079928 
L 264.237762 102.637481 
L 265.139589 77.90669 
L 265.86105 64.536691 
L 266.402147 58.715298 
L 266.762877 56.911709 
L 266.943243 56.634689 
L 267.123608 56.770791 
L 267.303974 57.315324 
L 267.664705 59.602607 
L 268.025435 63.426406 
L 268.566532 71.830419 
L 269.287993 87.35335 
L 270.18982 111.942298 
L 273.436398 205.911649 
L 274.157859 219.716948 
L 274.698956 227.097168 
L 275.240052 231.738761 
L 275.600783 233.281249 
L 275.781148 233.589062 
L 275.961513 233.591891 
L 276.141879 233.294273 
L 276.50261 231.821814 
L 276.86334 229.231239 
L 277.404437 223.420496 
L 278.125898 212.594967 
L 279.208091 191.680294 
L 281.913572 136.269376 
L 282.815399 123.111114 
L 283.536861 115.925304 
L 284.077957 112.661451 
L 284.438688 111.512963 
L 284.799418 111.173334 
L 284.979784 111.299188 
L 285.340515 112.120154 
L 285.701246 113.662376 
L 286.242342 117.206727 
L 286.963803 123.877922 
L 288.045996 136.781842 
L 290.751477 170.670508 
L 291.653304 178.658212 
L 292.374766 183.038682 
L 292.915862 185.063973 
L 293.276593 185.811446 
L 293.637324 186.088229 
L 293.998054 185.912625 
L 294.358785 185.309727 
L 294.899881 183.673728 
L 295.621343 180.328476 
L 296.52317 174.775619 
L 299.950113 152.061445 
L 300.671575 148.970629 
L 301.393036 146.859482 
L 301.934132 145.938999 
L 302.294863 145.635124 
L 302.655594 145.568912 
L 303.016325 145.727626 
L 303.557421 146.352011 
L 304.098517 147.381956 
L 304.819979 149.257171 
L 305.902171 152.755125 
L 308.066556 159.923817 
L 308.968383 162.218228 
L 309.689845 163.574854 
L 310.411307 164.46658 
L 310.952403 164.829906 
L 311.493499 164.944055 
L 312.034595 164.82955 
L 312.575692 164.513635 
L 313.297153 163.835341 
L 314.379346 162.440831 
L 317.265192 158.466284 
L 318.167019 157.609132 
L 319.068846 157.045747 
L 319.970673 156.780678 
L 320.8725 156.787021 
L 321.774328 157.014783 
L 323.036885 157.583234 
L 326.644194 159.371226 
L 327.906751 159.696536 
L 329.169309 159.811204 
L 330.792598 159.708401 
L 333.678445 159.214711 
L 336.20356 158.880049 
L 338.548311 158.804265 
L 342.155619 158.957163 
L 346.84512 159.0964 
L 374.080296 159.034782 
L 429.452477 159.035308 
L 429.452477 159.035308 
" style="fill:none;stroke:#ff7f0e;stroke-linecap:square;stroke-width:1.5;"/>
   </g>
   <g id="patch_3">
    <path d="M 50.8745 301.9975 
L 50.8745 14.057632 
" style="fill:none;stroke:#000000;stroke-linecap:square;stroke-linejoin:miter;stroke-width:0.8;"/>
   </g>
   <g id="patch_4">
    <path d="M 447.48 301.9975 
L 447.48 14.057632 
" style="fill:none;stroke:#000000;stroke-linecap:square;stroke-linejoin:miter;stroke-width:0.8;"/>
   </g>
   <g id="patch_5">
    <path d="M 50.8745 301.9975 
L 447.48 301.9975 
" style="fill:none;stroke:#000000;stroke-linecap:square;stroke-linejoin:miter;stroke-width:0.8;"/>
   </g>
   <g id="patch_6">
    <path d="M 50.8745 14.057632 
L 447.48 14.057632 
" style="fill:none;stroke:#000000;stroke-linecap:square;stroke-linejoin:miter;stroke-width:0.8;"/>
   </g>
  </g>
 </g>
 <defs>
  <clipPath id="pb04e10ae04">
   <rect height="287.939868" width="396.6055" x="50.8745" y="14.057632"/>
  </clipPath>
 </defs>
</svg>
