<?xml version="1.0" encoding="utf-8" standalone="no"?>
<!DOCTYPE svg PUBLIC "-//W3C//DTD SVG 1.1//EN"
  "http://www.w3.org/Graphics/SVG/1.1/DTD/svg11.dtd">
<!-- Created with matplotlib (http://matplotlib.org/) -->
<svg height="345pt" version="1.1" viewBox="0 0 460 345" width="460pt" xmlns="http://www.w3.org/2000/svg" xmlns:xlink="http://www.w3.org/1999/xlink">
 <defs>
  <style type="text/css">
*{stroke-linecap:butt;stroke-linejoin:round;}
  </style>
 </defs>
 <g id="figure_1">
  <g id="patch_1">
   <path d="M 0 345.6 
L 460.8 345.6 
L 460.8 0 
L 0 0 
z
" style="fill:none;"/>
  </g>
  <g id="axes_1">
   <g id="patch_2">
    <path d="M 52.1345 299.6575 
L 447.48 299.6575 
L 447.48 13.959411 
L 52.1345 13.959411 
z
" style="fill:none;"/>
   </g>
   <g id="matplotlib.axis_1">
    <g id="xtick_1">
     <g id="line2d_1">
      <path clip-path="url(#p32ee080bf2)" d="M 70.10475 299.6575 
L 70.10475 13.959411 
" style="fill:none;stroke:#ffffff;stroke-linecap:square;stroke-width:0.8;"/>
     </g>
     <g id="line2d_2">
      <defs>
       <path d="M 0 0 
L 0 3.5 
" id="m0a500a376f" style="stroke:#555555;stroke-width:0.8;"/>
      </defs>
      <g>
       <use style="fill:#555555;stroke:#555555;stroke-width:0.8;" x="70.10475" xlink:href="#m0a500a376f" y="299.6575"/>
      </g>
     </g>
     <g id="text_1">
      <!-- −10.0 -->
      <defs>
       <path d="M 10.59375 35.5 
L 73.1875 35.5 
L 73.1875 27.203125 
L 10.59375 27.203125 
z
" id="DejaVuSans-2212"/>
       <path d="M 12.40625 8.296875 
L 28.515625 8.296875 
L 28.515625 63.921875 
L 10.984375 60.40625 
L 10.984375 69.390625 
L 28.421875 72.90625 
L 38.28125 72.90625 
L 38.28125 8.296875 
L 54.390625 8.296875 
L 54.390625 0 
L 12.40625 0 
z
" id="DejaVuSans-31"/>
       <path d="M 31.78125 66.40625 
Q 24.171875 66.40625 20.328125 58.90625 
Q 16.5 51.421875 16.5 36.375 
Q 16.5 21.390625 20.328125 13.890625 
Q 24.171875 6.390625 31.78125 6.390625 
Q 39.453125 6.390625 43.28125 13.890625 
Q 47.125 21.390625 47.125 36.375 
Q 47.125 51.421875 43.28125 58.90625 
Q 39.453125 66.40625 31.78125 66.40625 
z
M 31.78125 74.21875 
Q 44.046875 74.21875 50.515625 64.515625 
Q 56.984375 54.828125 56.984375 36.375 
Q 56.984375 17.96875 50.515625 8.265625 
Q 44.046875 -1.421875 31.78125 -1.421875 
Q 19.53125 -1.421875 13.0625 8.265625 
Q 6.59375 17.96875 6.59375 36.375 
Q 6.59375 54.828125 13.0625 64.515625 
Q 19.53125 74.21875 31.78125 74.21875 
z
" id="DejaVuSans-30"/>
       <path d="M 10.6875 12.40625 
L 21 12.40625 
L 21 0 
L 10.6875 0 
z
" id="DejaVuSans-2e"/>
      </defs>
      <g style="fill:#555555;" transform="translate(54.782094 314.255937)scale(0.1 -0.1)">
       <use xlink:href="#DejaVuSans-2212"/>
       <use x="83.789062" xlink:href="#DejaVuSans-31"/>
       <use x="147.412109" xlink:href="#DejaVuSans-30"/>
       <use x="211.035156" xlink:href="#DejaVuSans-2e"/>
       <use x="242.822266" xlink:href="#DejaVuSans-30"/>
      </g>
     </g>
    </g>
    <g id="xtick_2">
     <g id="line2d_3">
      <path clip-path="url(#p32ee080bf2)" d="M 115.030375 299.6575 
L 115.030375 13.959411 
" style="fill:none;stroke:#ffffff;stroke-linecap:square;stroke-width:0.8;"/>
     </g>
     <g id="line2d_4">
      <g>
       <use style="fill:#555555;stroke:#555555;stroke-width:0.8;" x="115.030375" xlink:href="#m0a500a376f" y="299.6575"/>
      </g>
     </g>
     <g id="text_2">
      <!-- −7.5 -->
      <defs>
       <path d="M 8.203125 72.90625 
L 55.078125 72.90625 
L 55.078125 68.703125 
L 28.609375 0 
L 18.3125 0 
L 43.21875 64.59375 
L 8.203125 64.59375 
z
" id="DejaVuSans-37"/>
       <path d="M 10.796875 72.90625 
L 49.515625 72.90625 
L 49.515625 64.59375 
L 19.828125 64.59375 
L 19.828125 46.734375 
Q 21.96875 47.46875 24.109375 47.828125 
Q 26.265625 48.1875 28.421875 48.1875 
Q 40.625 48.1875 47.75 41.5 
Q 54.890625 34.8125 54.890625 23.390625 
Q 54.890625 11.625 47.5625 5.09375 
Q 40.234375 -1.421875 26.90625 -1.421875 
Q 22.3125 -1.421875 17.546875 -0.640625 
Q 12.796875 0.140625 7.71875 1.703125 
L 7.71875 11.625 
Q 12.109375 9.234375 16.796875 8.0625 
Q 21.484375 6.890625 26.703125 6.890625 
Q 35.15625 6.890625 40.078125 11.328125 
Q 45.015625 15.765625 45.015625 23.390625 
Q 45.015625 31 40.078125 35.4375 
Q 35.15625 39.890625 26.703125 39.890625 
Q 22.75 39.890625 18.8125 39.015625 
Q 14.890625 38.140625 10.796875 36.28125 
z
" id="DejaVuSans-35"/>
      </defs>
      <g style="fill:#555555;" transform="translate(102.888969 314.255937)scale(0.1 -0.1)">
       <use xlink:href="#DejaVuSans-2212"/>
       <use x="83.789062" xlink:href="#DejaVuSans-37"/>
       <use x="147.412109" xlink:href="#DejaVuSans-2e"/>
       <use x="179.199219" xlink:href="#DejaVuSans-35"/>
      </g>
     </g>
    </g>
    <g id="xtick_3">
     <g id="line2d_5">
      <path clip-path="url(#p32ee080bf2)" d="M 159.956 299.6575 
L 159.956 13.959411 
" style="fill:none;stroke:#ffffff;stroke-linecap:square;stroke-width:0.8;"/>
     </g>
     <g id="line2d_6">
      <g>
       <use style="fill:#555555;stroke:#555555;stroke-width:0.8;" x="159.956" xlink:href="#m0a500a376f" y="299.6575"/>
      </g>
     </g>
     <g id="text_3">
      <!-- −5.0 -->
      <g style="fill:#555555;" transform="translate(147.814594 314.255937)scale(0.1 -0.1)">
       <use xlink:href="#DejaVuSans-2212"/>
       <use x="83.789062" xlink:href="#DejaVuSans-35"/>
       <use x="147.412109" xlink:href="#DejaVuSans-2e"/>
       <use x="179.199219" xlink:href="#DejaVuSans-30"/>
      </g>
     </g>
    </g>
    <g id="xtick_4">
     <g id="line2d_7">
      <path clip-path="url(#p32ee080bf2)" d="M 204.881625 299.6575 
L 204.881625 13.959411 
" style="fill:none;stroke:#ffffff;stroke-linecap:square;stroke-width:0.8;"/>
     </g>
     <g id="line2d_8">
      <g>
       <use style="fill:#555555;stroke:#555555;stroke-width:0.8;" x="204.881625" xlink:href="#m0a500a376f" y="299.6575"/>
      </g>
     </g>
     <g id="text_4">
      <!-- −2.5 -->
      <defs>
       <path d="M 19.1875 8.296875 
L 53.609375 8.296875 
L 53.609375 0 
L 7.328125 0 
L 7.328125 8.296875 
Q 12.9375 14.109375 22.625 23.890625 
Q 32.328125 33.6875 34.8125 36.53125 
Q 39.546875 41.84375 41.421875 45.53125 
Q 43.3125 49.21875 43.3125 52.78125 
Q 43.3125 58.59375 39.234375 62.25 
Q 35.15625 65.921875 28.609375 65.921875 
Q 23.96875 65.921875 18.8125 64.3125 
Q 13.671875 62.703125 7.8125 59.421875 
L 7.8125 69.390625 
Q 13.765625 71.78125 18.9375 73 
Q 24.125 74.21875 28.421875 74.21875 
Q 39.75 74.21875 46.484375 68.546875 
Q 53.21875 62.890625 53.21875 53.421875 
Q 53.21875 48.921875 51.53125 44.890625 
Q 49.859375 40.875 45.40625 35.40625 
Q 44.1875 33.984375 37.640625 27.21875 
Q 31.109375 20.453125 19.1875 8.296875 
z
" id="DejaVuSans-32"/>
      </defs>
      <g style="fill:#555555;" transform="translate(192.740219 314.255937)scale(0.1 -0.1)">
       <use xlink:href="#DejaVuSans-2212"/>
       <use x="83.789062" xlink:href="#DejaVuSans-32"/>
       <use x="147.412109" xlink:href="#DejaVuSans-2e"/>
       <use x="179.199219" xlink:href="#DejaVuSans-35"/>
      </g>
     </g>
    </g>
    <g id="xtick_5">
     <g id="line2d_9">
      <path clip-path="url(#p32ee080bf2)" d="M 249.80725 299.6575 
L 249.80725 13.959411 
" style="fill:none;stroke:#ffffff;stroke-linecap:square;stroke-width:0.8;"/>
     </g>
     <g id="line2d_10">
      <g>
       <use style="fill:#555555;stroke:#555555;stroke-width:0.8;" x="249.80725" xlink:href="#m0a500a376f" y="299.6575"/>
      </g>
     </g>
     <g id="text_5">
      <!-- 0.0 -->
      <g style="fill:#555555;" transform="translate(241.855688 314.255937)scale(0.1 -0.1)">
       <use xlink:href="#DejaVuSans-30"/>
       <use x="63.623047" xlink:href="#DejaVuSans-2e"/>
       <use x="95.410156" xlink:href="#DejaVuSans-30"/>
      </g>
     </g>
    </g>
    <g id="xtick_6">
     <g id="line2d_11">
      <path clip-path="url(#p32ee080bf2)" d="M 294.732875 299.6575 
L 294.732875 13.959411 
" style="fill:none;stroke:#ffffff;stroke-linecap:square;stroke-width:0.8;"/>
     </g>
     <g id="line2d_12">
      <g>
       <use style="fill:#555555;stroke:#555555;stroke-width:0.8;" x="294.732875" xlink:href="#m0a500a376f" y="299.6575"/>
      </g>
     </g>
     <g id="text_6">
      <!-- 2.5 -->
      <g style="fill:#555555;" transform="translate(286.781313 314.255937)scale(0.1 -0.1)">
       <use xlink:href="#DejaVuSans-32"/>
       <use x="63.623047" xlink:href="#DejaVuSans-2e"/>
       <use x="95.410156" xlink:href="#DejaVuSans-35"/>
      </g>
     </g>
    </g>
    <g id="xtick_7">
     <g id="line2d_13">
      <path clip-path="url(#p32ee080bf2)" d="M 339.6585 299.6575 
L 339.6585 13.959411 
" style="fill:none;stroke:#ffffff;stroke-linecap:square;stroke-width:0.8;"/>
     </g>
     <g id="line2d_14">
      <g>
       <use style="fill:#555555;stroke:#555555;stroke-width:0.8;" x="339.6585" xlink:href="#m0a500a376f" y="299.6575"/>
      </g>
     </g>
     <g id="text_7">
      <!-- 5.0 -->
      <g style="fill:#555555;" transform="translate(331.706938 314.255937)scale(0.1 -0.1)">
       <use xlink:href="#DejaVuSans-35"/>
       <use x="63.623047" xlink:href="#DejaVuSans-2e"/>
       <use x="95.410156" xlink:href="#DejaVuSans-30"/>
      </g>
     </g>
    </g>
    <g id="xtick_8">
     <g id="line2d_15">
      <path clip-path="url(#p32ee080bf2)" d="M 384.584125 299.6575 
L 384.584125 13.959411 
" style="fill:none;stroke:#ffffff;stroke-linecap:square;stroke-width:0.8;"/>
     </g>
     <g id="line2d_16">
      <g>
       <use style="fill:#555555;stroke:#555555;stroke-width:0.8;" x="384.584125" xlink:href="#m0a500a376f" y="299.6575"/>
      </g>
     </g>
     <g id="text_8">
      <!-- 7.5 -->
      <g style="fill:#555555;" transform="translate(376.632563 314.255937)scale(0.1 -0.1)">
       <use xlink:href="#DejaVuSans-37"/>
       <use x="63.623047" xlink:href="#DejaVuSans-2e"/>
       <use x="95.410156" xlink:href="#DejaVuSans-35"/>
      </g>
     </g>
    </g>
    <g id="xtick_9">
     <g id="line2d_17">
      <path clip-path="url(#p32ee080bf2)" d="M 429.50975 299.6575 
L 429.50975 13.959411 
" style="fill:none;stroke:#ffffff;stroke-linecap:square;stroke-width:0.8;"/>
     </g>
     <g id="line2d_18">
      <g>
       <use style="fill:#555555;stroke:#555555;stroke-width:0.8;" x="429.50975" xlink:href="#m0a500a376f" y="299.6575"/>
      </g>
     </g>
     <g id="text_9">
      <!-- 10.0 -->
      <g style="fill:#555555;" transform="translate(418.376938 314.255937)scale(0.1 -0.1)">
       <use xlink:href="#DejaVuSans-31"/>
       <use x="63.623047" xlink:href="#DejaVuSans-30"/>
       <use x="127.246094" xlink:href="#DejaVuSans-2e"/>
       <use x="159.033203" xlink:href="#DejaVuSans-30"/>
      </g>
     </g>
    </g>
    <g id="text_10">
     <!-- $t$ [fs] -->
     <defs>
      <path d="M 42.28125 54.6875 
L 40.921875 47.703125 
L 23 47.703125 
L 17.1875 18.015625 
Q 16.890625 16.359375 16.75 15.234375 
Q 16.609375 14.109375 16.609375 13.484375 
Q 16.609375 10.359375 18.484375 8.9375 
Q 20.359375 7.515625 24.515625 7.515625 
L 33.59375 7.515625 
L 32.078125 0 
L 23.484375 0 
Q 15.484375 0 11.546875 3.125 
Q 7.625 6.25 7.625 12.59375 
Q 7.625 13.71875 7.765625 15.0625 
Q 7.90625 16.40625 8.203125 18.015625 
L 14.015625 47.703125 
L 6.390625 47.703125 
L 7.8125 54.6875 
L 15.28125 54.6875 
L 18.3125 70.21875 
L 27.296875 70.21875 
L 24.3125 54.6875 
z
" id="DejaVuSans-Oblique-74"/>
      <path id="DejaVuSans-20"/>
      <path d="M 8.59375 75.984375 
L 29.296875 75.984375 
L 29.296875 69 
L 17.578125 69 
L 17.578125 -6.203125 
L 29.296875 -6.203125 
L 29.296875 -13.1875 
L 8.59375 -13.1875 
z
" id="DejaVuSans-5b"/>
      <path d="M 37.109375 75.984375 
L 37.109375 68.5 
L 28.515625 68.5 
Q 23.6875 68.5 21.796875 66.546875 
Q 19.921875 64.59375 19.921875 59.515625 
L 19.921875 54.6875 
L 34.71875 54.6875 
L 34.71875 47.703125 
L 19.921875 47.703125 
L 19.921875 0 
L 10.890625 0 
L 10.890625 47.703125 
L 2.296875 47.703125 
L 2.296875 54.6875 
L 10.890625 54.6875 
L 10.890625 58.5 
Q 10.890625 67.625 15.140625 71.796875 
Q 19.390625 75.984375 28.609375 75.984375 
z
" id="DejaVuSans-66"/>
      <path d="M 44.28125 53.078125 
L 44.28125 44.578125 
Q 40.484375 46.53125 36.375 47.5 
Q 32.28125 48.484375 27.875 48.484375 
Q 21.1875 48.484375 17.84375 46.4375 
Q 14.5 44.390625 14.5 40.28125 
Q 14.5 37.15625 16.890625 35.375 
Q 19.28125 33.59375 26.515625 31.984375 
L 29.59375 31.296875 
Q 39.15625 29.25 43.1875 25.515625 
Q 47.21875 21.78125 47.21875 15.09375 
Q 47.21875 7.46875 41.1875 3.015625 
Q 35.15625 -1.421875 24.609375 -1.421875 
Q 20.21875 -1.421875 15.453125 -0.5625 
Q 10.6875 0.296875 5.421875 2 
L 5.421875 11.28125 
Q 10.40625 8.6875 15.234375 7.390625 
Q 20.0625 6.109375 24.8125 6.109375 
Q 31.15625 6.109375 34.5625 8.28125 
Q 37.984375 10.453125 37.984375 14.40625 
Q 37.984375 18.0625 35.515625 20.015625 
Q 33.0625 21.96875 24.703125 23.78125 
L 21.578125 24.515625 
Q 13.234375 26.265625 9.515625 29.90625 
Q 5.8125 33.546875 5.8125 39.890625 
Q 5.8125 47.609375 11.28125 51.796875 
Q 16.75 56 26.8125 56 
Q 31.78125 56 36.171875 55.265625 
Q 40.578125 54.546875 44.28125 53.078125 
z
" id="DejaVuSans-73"/>
      <path d="M 30.421875 75.984375 
L 30.421875 -13.1875 
L 9.71875 -13.1875 
L 9.71875 -6.203125 
L 21.390625 -6.203125 
L 21.390625 69 
L 9.71875 69 
L 9.71875 75.984375 
z
" id="DejaVuSans-5d"/>
     </defs>
     <g style="fill:#555555;" transform="translate(235.58725 329.45375)scale(0.12 -0.12)">
      <use transform="translate(0 0.015625)" xlink:href="#DejaVuSans-Oblique-74"/>
      <use transform="translate(39.208984 0.015625)" xlink:href="#DejaVuSans-20"/>
      <use transform="translate(70.996094 0.015625)" xlink:href="#DejaVuSans-5b"/>
      <use transform="translate(110.009766 0.015625)" xlink:href="#DejaVuSans-66"/>
      <use transform="translate(145.214844 0.015625)" xlink:href="#DejaVuSans-73"/>
      <use transform="translate(197.314453 0.015625)" xlink:href="#DejaVuSans-5d"/>
     </g>
    </g>
   </g>
   <g id="matplotlib.axis_2">
    <g id="ytick_1">
     <g id="line2d_19">
      <path clip-path="url(#p32ee080bf2)" d="M 52.1345 253.207787 
L 447.48 253.207787 
" style="fill:none;stroke:#ffffff;stroke-linecap:square;stroke-width:0.8;"/>
     </g>
     <g id="line2d_20">
      <defs>
       <path d="M 0 0 
L -3.5 0 
" id="m4c767992f4" style="stroke:#555555;stroke-width:0.8;"/>
      </defs>
      <g>
       <use style="fill:#555555;stroke:#555555;stroke-width:0.8;" x="52.1345" xlink:href="#m4c767992f4" y="253.207787"/>
      </g>
     </g>
     <g id="text_11">
      <!-- −2 -->
      <g style="fill:#555555;" transform="translate(30.392313 257.007006)scale(0.1 -0.1)">
       <use xlink:href="#DejaVuSans-2212"/>
       <use x="83.789062" xlink:href="#DejaVuSans-32"/>
      </g>
     </g>
    </g>
    <g id="ytick_2">
     <g id="line2d_21">
      <path clip-path="url(#p32ee080bf2)" d="M 52.1345 205.522701 
L 447.48 205.522701 
" style="fill:none;stroke:#ffffff;stroke-linecap:square;stroke-width:0.8;"/>
     </g>
     <g id="line2d_22">
      <g>
       <use style="fill:#555555;stroke:#555555;stroke-width:0.8;" x="52.1345" xlink:href="#m4c767992f4" y="205.522701"/>
      </g>
     </g>
     <g id="text_12">
      <!-- −1 -->
      <g style="fill:#555555;" transform="translate(30.392313 209.321919)scale(0.1 -0.1)">
       <use xlink:href="#DejaVuSans-2212"/>
       <use x="83.789062" xlink:href="#DejaVuSans-31"/>
      </g>
     </g>
    </g>
    <g id="ytick_3">
     <g id="line2d_23">
      <path clip-path="url(#p32ee080bf2)" d="M 52.1345 157.837614 
L 447.48 157.837614 
" style="fill:none;stroke:#ffffff;stroke-linecap:square;stroke-width:0.8;"/>
     </g>
     <g id="line2d_24">
      <g>
       <use style="fill:#555555;stroke:#555555;stroke-width:0.8;" x="52.1345" xlink:href="#m4c767992f4" y="157.837614"/>
      </g>
     </g>
     <g id="text_13">
      <!-- 0 -->
      <g style="fill:#555555;" transform="translate(38.772 161.636833)scale(0.1 -0.1)">
       <use xlink:href="#DejaVuSans-30"/>
      </g>
     </g>
    </g>
    <g id="ytick_4">
     <g id="line2d_25">
      <path clip-path="url(#p32ee080bf2)" d="M 52.1345 110.152527 
L 447.48 110.152527 
" style="fill:none;stroke:#ffffff;stroke-linecap:square;stroke-width:0.8;"/>
     </g>
     <g id="line2d_26">
      <g>
       <use style="fill:#555555;stroke:#555555;stroke-width:0.8;" x="52.1345" xlink:href="#m4c767992f4" y="110.152527"/>
      </g>
     </g>
     <g id="text_14">
      <!-- 1 -->
      <g style="fill:#555555;" transform="translate(38.772 113.951746)scale(0.1 -0.1)">
       <use xlink:href="#DejaVuSans-31"/>
      </g>
     </g>
    </g>
    <g id="ytick_5">
     <g id="line2d_27">
      <path clip-path="url(#p32ee080bf2)" d="M 52.1345 62.467441 
L 447.48 62.467441 
" style="fill:none;stroke:#ffffff;stroke-linecap:square;stroke-width:0.8;"/>
     </g>
     <g id="line2d_28">
      <g>
       <use style="fill:#555555;stroke:#555555;stroke-width:0.8;" x="52.1345" xlink:href="#m4c767992f4" y="62.467441"/>
      </g>
     </g>
     <g id="text_15">
      <!-- 2 -->
      <g style="fill:#555555;" transform="translate(38.772 66.266659)scale(0.1 -0.1)">
       <use xlink:href="#DejaVuSans-32"/>
      </g>
     </g>
    </g>
    <g id="ytick_6">
     <g id="line2d_29">
      <path clip-path="url(#p32ee080bf2)" d="M 52.1345 14.782354 
L 447.48 14.782354 
" style="fill:none;stroke:#ffffff;stroke-linecap:square;stroke-width:0.8;"/>
     </g>
     <g id="line2d_30">
      <g>
       <use style="fill:#555555;stroke:#555555;stroke-width:0.8;" x="52.1345" xlink:href="#m4c767992f4" y="14.782354"/>
      </g>
     </g>
     <g id="text_16">
      <!-- 3 -->
      <defs>
       <path d="M 40.578125 39.3125 
Q 47.65625 37.796875 51.625 33 
Q 55.609375 28.21875 55.609375 21.1875 
Q 55.609375 10.40625 48.1875 4.484375 
Q 40.765625 -1.421875 27.09375 -1.421875 
Q 22.515625 -1.421875 17.65625 -0.515625 
Q 12.796875 0.390625 7.625 2.203125 
L 7.625 11.71875 
Q 11.71875 9.328125 16.59375 8.109375 
Q 21.484375 6.890625 26.8125 6.890625 
Q 36.078125 6.890625 40.9375 10.546875 
Q 45.796875 14.203125 45.796875 21.1875 
Q 45.796875 27.640625 41.28125 31.265625 
Q 36.765625 34.90625 28.71875 34.90625 
L 20.21875 34.90625 
L 20.21875 43.015625 
L 29.109375 43.015625 
Q 36.375 43.015625 40.234375 45.921875 
Q 44.09375 48.828125 44.09375 54.296875 
Q 44.09375 59.90625 40.109375 62.90625 
Q 36.140625 65.921875 28.71875 65.921875 
Q 24.65625 65.921875 20.015625 65.03125 
Q 15.375 64.15625 9.8125 62.3125 
L 9.8125 71.09375 
Q 15.4375 72.65625 20.34375 73.4375 
Q 25.25 74.21875 29.59375 74.21875 
Q 40.828125 74.21875 47.359375 69.109375 
Q 53.90625 64.015625 53.90625 55.328125 
Q 53.90625 49.265625 50.4375 45.09375 
Q 46.96875 40.921875 40.578125 39.3125 
z
" id="DejaVuSans-33"/>
      </defs>
      <g style="fill:#555555;" transform="translate(38.772 18.581573)scale(0.1 -0.1)">
       <use xlink:href="#DejaVuSans-33"/>
      </g>
     </g>
    </g>
    <g id="text_17">
     <!-- $E$ [$10^{10}$ V/m] -->
     <defs>
      <path d="M 16.890625 72.90625 
L 62.984375 72.90625 
L 61.375 64.59375 
L 25.09375 64.59375 
L 20.90625 43.015625 
L 55.71875 43.015625 
L 54.109375 34.71875 
L 19.28125 34.71875 
L 14.203125 8.296875 
L 51.3125 8.296875 
L 49.703125 0 
L 2.6875 0 
z
" id="DejaVuSans-Oblique-45"/>
      <path d="M 28.609375 0 
L 0.78125 72.90625 
L 11.078125 72.90625 
L 34.1875 11.53125 
L 57.328125 72.90625 
L 67.578125 72.90625 
L 39.796875 0 
z
" id="DejaVuSans-56"/>
      <path d="M 25.390625 72.90625 
L 33.6875 72.90625 
L 8.296875 -9.28125 
L 0 -9.28125 
z
" id="DejaVuSans-2f"/>
      <path d="M 52 44.1875 
Q 55.375 50.25 60.0625 53.125 
Q 64.75 56 71.09375 56 
Q 79.640625 56 84.28125 50.015625 
Q 88.921875 44.046875 88.921875 33.015625 
L 88.921875 0 
L 79.890625 0 
L 79.890625 32.71875 
Q 79.890625 40.578125 77.09375 44.375 
Q 74.3125 48.1875 68.609375 48.1875 
Q 61.625 48.1875 57.5625 43.546875 
Q 53.515625 38.921875 53.515625 30.90625 
L 53.515625 0 
L 44.484375 0 
L 44.484375 32.71875 
Q 44.484375 40.625 41.703125 44.40625 
Q 38.921875 48.1875 33.109375 48.1875 
Q 26.21875 48.1875 22.15625 43.53125 
Q 18.109375 38.875 18.109375 30.90625 
L 18.109375 0 
L 9.078125 0 
L 9.078125 54.6875 
L 18.109375 54.6875 
L 18.109375 46.1875 
Q 21.1875 51.21875 25.484375 53.609375 
Q 29.78125 56 35.6875 56 
Q 41.65625 56 45.828125 52.96875 
Q 50 49.953125 52 44.1875 
z
" id="DejaVuSans-6d"/>
     </defs>
     <g style="fill:#555555;" transform="translate(23.896687 194.308456)rotate(-90)scale(0.12 -0.12)">
      <use transform="translate(0 0.765625)" xlink:href="#DejaVuSans-Oblique-45"/>
      <use transform="translate(63.183594 0.765625)" xlink:href="#DejaVuSans-20"/>
      <use transform="translate(94.970703 0.765625)" xlink:href="#DejaVuSans-5b"/>
      <use transform="translate(133.984375 0.765625)" xlink:href="#DejaVuSans-31"/>
      <use transform="translate(197.607422 0.765625)" xlink:href="#DejaVuSans-30"/>
      <use transform="translate(262.1875 39.046875)scale(0.7)" xlink:href="#DejaVuSans-31"/>
      <use transform="translate(306.723633 39.046875)scale(0.7)" xlink:href="#DejaVuSans-30"/>
      <use transform="translate(353.994141 0.765625)" xlink:href="#DejaVuSans-20"/>
      <use transform="translate(385.78125 0.765625)" xlink:href="#DejaVuSans-56"/>
      <use transform="translate(454.189453 0.765625)" xlink:href="#DejaVuSans-2f"/>
      <use transform="translate(487.880859 0.765625)" xlink:href="#DejaVuSans-6d"/>
      <use transform="translate(585.292969 0.765625)" xlink:href="#DejaVuSans-5d"/>
     </g>
    </g>
   </g>
   <g id="line2d_31">
    <path clip-path="url(#p32ee080bf2)" d="M 70.10475 154.284394 
L 71.901775 154.13987 
L 73.6988 154.215364 
L 75.495825 154.53901 
L 77.29285 155.126292 
L 79.089875 155.977128 
L 80.8869 157.073639 
L 83.04333 158.660302 
L 86.277975 161.372216 
L 89.51262 164.039019 
L 91.309645 165.281995 
L 92.747265 166.060494 
L 94.184885 166.589745 
L 95.2631 166.794123 
L 96.341315 166.813799 
L 97.41953 166.634282 
L 98.497745 166.24463 
L 99.57596 165.637973 
L 100.654175 164.811977 
L 102.091795 163.374664 
L 103.529415 161.573234 
L 105.32644 158.868583 
L 107.48287 155.111134 
L 113.592755 143.951027 
L 115.030375 141.85369 
L 116.10859 140.563264 
L 117.186805 139.565544 
L 118.26502 138.901998 
L 118.98383 138.663552 
L 119.70264 138.599327 
L 120.42145 138.717314 
L 121.14026 139.024009 
L 121.85907 139.524284 
L 122.937285 140.644009 
L 124.0155 142.208611 
L 125.093715 144.210852 
L 126.17193 146.63312 
L 127.60955 150.465912 
L 129.406575 156.085485 
L 131.563005 163.695444 
L 136.594675 181.830924 
L 138.032295 186.169795 
L 139.469915 189.741494 
L 140.54813 191.797823 
L 141.26694 192.830296 
L 141.98575 193.568862 
L 142.70456 193.996129 
L 143.42337 194.097182 
L 144.14218 193.859815 
L 144.86099 193.274745 
L 145.5798 192.335807 
L 146.29861 191.040115 
L 147.376825 188.429789 
L 148.45504 185.035534 
L 149.533255 180.892393 
L 150.970875 174.298238 
L 152.408495 166.64605 
L 154.564925 153.699337 
L 160.315405 117.964716 
L 161.753025 110.660349 
L 162.83124 106.052298 
L 163.909455 102.337573 
L 164.628265 100.416106 
L 165.347075 98.974917 
L 166.065885 98.040805 
L 166.784695 97.636353 
L 167.1441 97.638572 
L 167.503505 97.779596 
L 167.86291 98.060919 
L 168.58172 99.048835 
L 169.30053 100.607759 
L 170.01934 102.737728 
L 170.73815 105.433232 
L 171.816365 110.510959 
L 172.89458 116.773331 
L 174.3322 126.806957 
L 175.76982 138.496667 
L 177.566845 154.873454 
L 184.036135 216.1557 
L 185.473755 227.010921 
L 186.55197 233.796704 
L 187.630185 239.217959 
L 188.348995 241.995698 
L 189.067805 244.057401 
L 189.786615 245.369701 
L 190.14602 245.736183 
L 190.505425 245.905798 
L 190.86483 245.876286 
L 191.224235 245.64584 
L 191.58364 245.213119 
L 192.30245 243.737844 
L 193.02126 241.449261 
L 193.74007 238.353954 
L 194.45888 234.466365 
L 195.537095 227.200365 
L 196.61531 218.311623 
L 198.05293 204.192869 
L 199.849955 183.541843 
L 202.006385 155.805049 
L 206.319245 99.308057 
L 208.11627 78.977534 
L 209.55389 65.402075 
L 210.632105 57.171503 
L 211.71032 50.844123 
L 212.42913 47.767819 
L 213.14794 45.652589 
L 213.507345 44.965419 
L 213.86675 44.529444 
L 214.226155 44.347117 
L 214.58556 44.420302 
L 214.944965 44.750269 
L 215.30437 45.337681 
L 216.02318 47.284464 
L 216.74199 50.253772 
L 217.4608 54.228926 
L 218.539015 62.017197 
L 219.61723 71.877607 
L 220.695445 83.634541 
L 222.133065 101.876865 
L 223.93009 127.907813 
L 226.80533 173.55684 
L 229.68057 218.306249 
L 231.477595 242.840394 
L 232.915215 259.343497 
L 233.99343 269.467882 
L 235.071645 277.40651 
L 235.790455 281.393279 
L 236.509265 284.285536 
L 237.228075 286.051829 
L 237.58748 286.505778 
L 237.946885 286.671223 
L 238.30629 286.547231 
L 238.665695 286.133551 
L 239.0251 285.430617 
L 239.74391 283.162144 
L 240.46272 279.758932 
L 241.18153 275.248881 
L 242.259745 266.495378 
L 243.33796 255.512695 
L 244.77558 237.788612 
L 246.2132 217.137676 
L 248.36963 182.341892 
L 253.4013 98.537552 
L 255.198325 73.154098 
L 256.635945 56.26661 
L 257.71416 46.004794 
L 258.792375 38.035126 
L 259.511185 34.074341 
L 260.229995 31.23568 
L 260.948805 29.541677 
L 261.30821 29.127997 
L 261.667615 29.004005 
L 262.02702 29.16945 
L 262.386425 29.623399 
L 262.74583 30.364241 
L 263.46464 32.696798 
L 264.18345 36.140888 
L 264.90226 40.659921 
L 265.980475 49.349554 
L 267.05869 60.154414 
L 268.49631 77.431458 
L 270.293335 102.681432 
L 272.80917 142.118388 
L 276.40322 198.533331 
L 278.200245 223.255463 
L 279.637865 240.079417 
L 280.71608 250.593719 
L 281.794295 259.089412 
L 282.513105 263.558185 
L 283.231915 267.033112 
L 283.950725 269.492631 
L 284.669535 270.924959 
L 285.02894 271.254926 
L 285.388345 271.328111 
L 285.74775 271.145784 
L 286.107155 270.709809 
L 286.46656 270.022639 
L 287.18537 267.907409 
L 287.90418 264.831105 
L 288.62299 260.833421 
L 289.701205 253.216194 
L 290.77942 243.82867 
L 292.21704 228.954698 
L 294.014065 207.449371 
L 296.889305 169.484829 
L 299.764545 132.133385 
L 301.56157 111.482359 
L 302.99919 97.363605 
L 304.077405 88.474863 
L 305.15562 81.208863 
L 306.233835 75.673498 
L 306.952645 72.980239 
L 307.671455 71.097977 
L 308.390265 70.029388 
L 308.74967 69.798942 
L 309.109075 69.76943 
L 309.46848 69.939045 
L 309.827885 70.305526 
L 310.546695 71.617827 
L 311.265505 73.67953 
L 311.984315 76.457269 
L 313.06253 81.878524 
L 314.140745 88.664307 
L 315.578365 99.519528 
L 317.37539 115.309557 
L 320.25063 143.274117 
L 323.12587 170.824252 
L 324.922895 186.088077 
L 326.360515 196.565889 
L 327.43873 203.204585 
L 328.516945 208.685427 
L 329.59516 212.9375 
L 330.31397 215.067469 
L 331.03278 216.626393 
L 331.75159 217.614309 
L 332.4704 218.036656 
L 332.829805 218.038875 
L 333.18921 217.904094 
L 333.90802 217.232266 
L 334.62683 216.041521 
L 335.34564 214.356593 
L 336.423855 210.966558 
L 337.50207 206.642278 
L 338.93969 199.645242 
L 340.736715 189.393928 
L 343.611955 171.167333 
L 346.487195 153.182226 
L 348.28422 143.198941 
L 349.72184 136.321591 
L 351.15946 130.639694 
L 352.237675 127.245439 
L 353.31589 124.635113 
L 354.0347 123.339421 
L 354.75351 122.400483 
L 355.47232 121.815413 
L 356.19113 121.578046 
L 356.90994 121.679099 
L 357.62875 122.106366 
L 358.34756 122.844932 
L 359.06637 123.877404 
L 360.144585 125.933734 
L 361.2228 128.532579 
L 362.66042 132.699073 
L 364.457445 138.738482 
L 368.051495 151.979784 
L 370.56733 160.777125 
L 372.364355 166.228017 
L 373.801975 169.894678 
L 374.88019 172.179546 
L 375.958405 174.037345 
L 377.03662 175.453957 
L 378.114835 176.425517 
L 378.833645 176.828499 
L 379.552455 177.040127 
L 380.271265 177.066099 
L 380.990075 176.913676 
L 381.708885 176.591547 
L 382.7871 175.812284 
L 383.865315 174.712177 
L 385.302935 172.820854 
L 386.740555 170.545995 
L 388.896985 166.668106 
L 393.928655 157.399535 
L 395.72568 154.605199 
L 397.1633 152.717965 
L 398.60092 151.187027 
L 400.03854 150.037255 
L 401.116755 149.430598 
L 402.19497 149.040946 
L 403.273185 148.861429 
L 404.3514 148.881105 
L 405.429615 149.085483 
L 406.867235 149.614734 
L 408.304855 150.393233 
L 410.10188 151.636209 
L 412.617715 153.686542 
L 417.28998 157.571697 
L 419.44641 159.067743 
L 421.243435 160.069336 
L 423.04046 160.815858 
L 424.837485 161.296766 
L 426.63451 161.518514 
L 428.431535 161.502024 
L 429.50975 161.390834 
L 429.50975 161.390834 
" style="fill:none;stroke:#e24a33;stroke-linecap:square;stroke-width:1.5;"/>
   </g>
   <g id="line2d_32">
    <path clip-path="url(#p32ee080bf2)" d="M 70.10475 157.895538 
L 72.97999 159.363722 
L 78.73047 162.378105 
L 80.8869 163.190784 
L 82.683925 163.5969 
L 84.121545 163.698629 
L 85.559165 163.572804 
L 86.996785 163.199542 
L 88.434405 162.567266 
L 89.872025 161.674097 
L 91.309645 160.528955 
L 93.10667 158.775509 
L 95.2631 156.290043 
L 99.216555 151.224806 
L 101.73239 148.207386 
L 103.529415 146.43528 
L 104.967035 145.36806 
L 106.04525 144.821337 
L 107.123465 144.523521 
L 108.20168 144.49889 
L 109.279895 144.767116 
L 110.35811 145.342483 
L 111.436325 146.233188 
L 112.51454 147.44074 
L 113.592755 148.959478 
L 115.030375 151.444647 
L 116.467995 154.406195 
L 118.26502 158.658945 
L 120.780855 165.268809 
L 124.374905 174.714727 
L 126.17193 178.771222 
L 127.60955 181.411311 
L 128.687765 182.939188 
L 129.76598 184.015259 
L 130.48479 184.456376 
L 131.2036 184.66114 
L 131.92241 184.618468 
L 132.64122 184.319323 
L 133.36003 183.756874 
L 134.07884 182.926653 
L 134.79765 181.826685 
L 135.875865 179.673071 
L 136.95408 176.928133 
L 138.032295 173.61947 
L 139.469915 168.405224 
L 141.26694 160.798113 
L 143.42337 150.557422 
L 148.095635 127.969435 
L 149.533255 122.034598 
L 150.970875 117.068145 
L 152.04909 114.134173 
L 152.7679 112.609607 
L 153.48671 111.460403 
L 154.20552 110.709262 
L 154.92433 110.375675 
L 155.64314 110.475639 
L 156.36195 111.021388 
L 157.08076 112.021159 
L 157.79957 113.478994 
L 158.51838 115.394574 
L 159.596595 119.114465 
L 160.67481 123.816907 
L 161.753025 129.443149 
L 163.190645 138.237479 
L 164.98767 150.939271 
L 167.503505 170.743359 
L 171.097555 199.173871 
L 172.89458 211.546935 
L 174.3322 219.783487 
L 175.410415 224.731972 
L 176.48863 228.464648 
L 177.20744 230.215802 
L 177.92625 231.340829 
L 178.285655 231.660472 
L 178.64506 231.814598 
L 179.004465 231.800964 
L 179.36387 231.617702 
L 179.723275 231.263333 
L 180.442085 230.037338 
L 181.160895 228.119157 
L 181.879705 225.511564 
L 182.598515 222.224048 
L 183.67673 216.05531 
L 184.754945 208.4781 
L 186.192565 196.390173 
L 187.630185 182.371926 
L 189.786615 158.736045 
L 195.17769 97.694683 
L 196.61531 84.014751 
L 198.05293 72.571993 
L 199.131145 65.76581 
L 199.849955 62.177745 
L 200.568765 59.40368 
L 201.287575 57.48243 
L 202.006385 56.445256 
L 202.36579 56.265795 
L 202.725195 56.315441 
L 203.0846 56.595802 
L 203.444005 57.107946 
L 204.162815 58.829139 
L 204.881625 61.476605 
L 205.600435 65.039047 
L 206.67865 72.051697 
L 207.756865 80.970317 
L 208.83508 91.646514 
L 210.2727 108.283041 
L 212.069725 132.146207 
L 214.944965 174.297347 
L 217.820205 215.980623 
L 219.61723 239.003556 
L 221.05485 254.575281 
L 222.133065 264.173696 
L 223.21128 271.735707 
L 223.93009 275.55289 
L 224.6489 278.338552 
L 225.36771 280.058516 
L 225.727115 280.510861 
L 226.08652 280.688442 
L 226.445925 280.589806 
L 226.80533 280.214148 
L 227.164735 279.561316 
L 227.883545 277.426808 
L 228.602355 274.198192 
L 229.321165 269.897836 
L 230.39938 261.512022 
L 231.477595 250.942998 
L 232.55581 238.391047 
L 233.99343 218.998517 
L 235.790455 191.469829 
L 239.384505 131.494765 
L 241.90034 91.591561 
L 243.33796 71.623527 
L 244.77558 54.668213 
L 245.853795 44.315838 
L 246.93201 36.237134 
L 247.65082 32.201046 
L 248.36963 29.29062 
L 249.08844 27.533307 
L 249.447845 27.09268 
L 249.80725 26.945688 
L 250.166655 27.09268 
L 250.52606 27.533307 
L 250.885465 28.266531 
L 251.604275 30.603157 
L 252.323085 34.080516 
L 253.041895 38.665815 
L 254.12011 47.523867 
L 255.198325 58.587719 
L 256.635945 76.360548 
L 258.073565 96.968932 
L 260.229995 131.494765 
L 265.261665 213.745966 
L 267.05869 238.391047 
L 268.49631 254.69717 
L 269.574525 264.558414 
L 270.65274 272.180179 
L 271.37155 275.948109 
L 272.09036 278.631816 
L 272.80917 280.214148 
L 273.168575 280.589806 
L 273.52798 280.688442 
L 273.887385 280.510861 
L 274.24679 280.058516 
L 274.606195 279.333502 
L 275.325005 277.077024 
L 276.043815 273.770728 
L 276.762625 269.453569 
L 277.84084 261.190173 
L 278.919055 250.961076 
L 280.356675 234.679542 
L 282.1537 211.012367 
L 284.669535 174.297347 
L 287.90418 127.153672 
L 289.701205 103.891126 
L 291.138825 87.903366 
L 292.21704 77.793963 
L 293.295255 69.49627 
L 294.37347 63.144508 
L 295.09228 60.037585 
L 295.81109 57.8524 
L 296.5299 56.595802 
L 296.889305 56.315441 
L 297.24871 56.265795 
L 297.608115 56.445256 
L 297.96752 56.851687 
L 298.68633 58.334317 
L 299.40514 60.686365 
L 300.12395 63.872736 
L 301.202165 70.121993 
L 302.28038 77.980243 
L 303.718 90.609601 
L 305.515025 109.079835 
L 308.03086 137.821785 
L 311.62491 178.616996 
L 313.421935 196.390173 
L 314.859555 208.4781 
L 315.93777 216.05531 
L 317.015985 222.224048 
L 318.0942 226.901102 
L 318.81301 229.164754 
L 319.53182 230.736773 
L 320.25063 231.617702 
L 320.610035 231.800964 
L 320.96944 231.814598 
L 321.328845 231.660472 
L 321.68825 231.340829 
L 322.40706 230.215802 
L 323.12587 228.464648 
L 323.84468 226.117849 
L 324.922895 221.559541 
L 326.00111 215.879729 
L 327.43873 206.835424 
L 329.235755 193.749977 
L 332.4704 167.835469 
L 334.986235 148.272522 
L 336.78326 135.911526 
L 338.22088 127.469668 
L 339.299095 122.143404 
L 340.37731 117.763097 
L 341.455525 114.37976 
L 342.174335 112.692735 
L 342.893145 111.464168 
L 343.611955 110.692179 
L 344.330765 110.370607 
L 345.049575 110.489189 
L 345.768385 111.033778 
L 346.487195 111.986595 
L 347.206005 113.326505 
L 348.28422 116.008514 
L 349.362435 119.413675 
L 350.800055 124.897939 
L 352.59708 132.889857 
L 355.47232 146.996741 
L 358.34756 160.798113 
L 360.144585 168.405224 
L 361.582205 173.61947 
L 363.019825 177.907403 
L 364.09804 180.457601 
L 365.176255 182.410411 
L 365.895065 183.375419 
L 366.613875 184.071348 
L 367.332685 184.501436 
L 368.051495 184.671348 
L 368.770305 184.58904 
L 369.489115 184.264594 
L 370.207925 183.710044 
L 371.28614 182.47739 
L 372.364355 180.811361 
L 373.801975 178.018989 
L 375.239595 174.714727 
L 377.396025 169.150063 
L 382.06829 156.894715 
L 383.865315 152.87011 
L 385.302935 150.13866 
L 386.740555 147.912904 
L 387.81877 146.600628 
L 388.896985 145.60413 
L 389.9752 144.924242 
L 391.053415 144.554935 
L 392.13163 144.483882 
L 393.209845 144.693124 
L 394.28806 145.159827 
L 395.366275 145.857098 
L 396.803895 147.093079 
L 398.60092 149.020538 
L 401.116755 152.148551 
L 405.429615 157.576513 
L 407.22664 159.51661 
L 409.023665 161.13202 
L 410.461285 162.153 
L 411.898905 162.91614 
L 413.336525 163.418039 
L 414.774145 163.665581 
L 416.211765 163.674684 
L 417.649385 163.468802 
L 419.44641 162.954247 
L 421.60284 162.047601 
L 424.47808 160.549573 
L 429.50975 157.895538 
L 429.50975 157.895538 
" style="fill:none;stroke:#348abd;stroke-linecap:square;stroke-width:1.5;"/>
   </g>
   <g id="patch_3">
    <path d="M 52.1345 299.6575 
L 52.1345 13.959411 
" style="fill:none;stroke:#ffffff;stroke-linecap:square;stroke-linejoin:miter;"/>
   </g>
   <g id="patch_4">
    <path d="M 447.48 299.6575 
L 447.48 13.959411 
" style="fill:none;stroke:#ffffff;stroke-linecap:square;stroke-linejoin:miter;"/>
   </g>
   <g id="patch_5">
    <path d="M 52.1345 299.6575 
L 447.48 299.6575 
" style="fill:none;stroke:#ffffff;stroke-linecap:square;stroke-linejoin:miter;"/>
   </g>
   <g id="patch_6">
    <path d="M 52.1345 13.959411 
L 447.48 13.959411 
" style="fill:none;stroke:#ffffff;stroke-linecap:square;stroke-linejoin:miter;"/>
   </g>
  </g>
 </g>
 <defs>
  <clipPath id="p32ee080bf2">
   <rect height="285.698089" width="395.3455" x="52.1345" y="13.959411"/>
  </clipPath>
 </defs>
</svg>
