<?xml version="1.0" encoding="utf-8" standalone="no"?>
<!DOCTYPE svg PUBLIC "-//W3C//DTD SVG 1.1//EN"
  "http://www.w3.org/Graphics/SVG/1.1/DTD/svg11.dtd">
<!-- Created with matplotlib (http://matplotlib.org/) -->
<svg height="345pt" version="1.1" viewBox="0 0 460 345" width="460pt" xmlns="http://www.w3.org/2000/svg" xmlns:xlink="http://www.w3.org/1999/xlink">
 <defs>
  <style type="text/css">
*{stroke-linecap:butt;stroke-linejoin:round;}
  </style>
 </defs>
 <g id="figure_1">
  <g id="patch_1">
   <path d="M 0 345.6 
L 460.8 345.6 
L 460.8 0 
L 0 0 
z
" style="fill:none;"/>
  </g>
  <g id="axes_1">
   <g id="patch_2">
    <path d="M 50.604091 301.197727 
L 447.709091 301.197727 
L 447.709091 14.024904 
L 50.604091 14.024904 
z
" style="fill:none;"/>
   </g>
   <g id="matplotlib.axis_1">
    <g id="xtick_1">
     <g id="line2d_1">
      <path clip-path="url(#pabd9ff7d48)" d="M 113.873541 301.197727 
L 113.873541 14.024904 
" style="fill:none;stroke:#ffffff;stroke-linecap:square;stroke-width:0.8;"/>
     </g>
     <g id="line2d_2">
      <defs>
       <path d="M 0 0 
L 0 3.5 
" id="mcd987e66c6" style="stroke:#555555;stroke-width:0.8;"/>
      </defs>
      <g>
       <use style="fill:#555555;stroke:#555555;stroke-width:0.8;" x="113.873541" xlink:href="#mcd987e66c6" y="301.197727"/>
      </g>
     </g>
     <g id="text_1">
      <!-- −20 -->
      <defs>
       <path d="M 10.59375 35.5 
L 73.1875 35.5 
L 73.1875 27.203125 
L 10.59375 27.203125 
z
" id="DejaVuSans-2212"/>
       <path d="M 19.1875 8.296875 
L 53.609375 8.296875 
L 53.609375 0 
L 7.328125 0 
L 7.328125 8.296875 
Q 12.9375 14.109375 22.625 23.890625 
Q 32.328125 33.6875 34.8125 36.53125 
Q 39.546875 41.84375 41.421875 45.53125 
Q 43.3125 49.21875 43.3125 52.78125 
Q 43.3125 58.59375 39.234375 62.25 
Q 35.15625 65.921875 28.609375 65.921875 
Q 23.96875 65.921875 18.8125 64.3125 
Q 13.671875 62.703125 7.8125 59.421875 
L 7.8125 69.390625 
Q 13.765625 71.78125 18.9375 73 
Q 24.125 74.21875 28.421875 74.21875 
Q 39.75 74.21875 46.484375 68.546875 
Q 53.21875 62.890625 53.21875 53.421875 
Q 53.21875 48.921875 51.53125 44.890625 
Q 49.859375 40.875 45.40625 35.40625 
Q 44.1875 33.984375 37.640625 27.21875 
Q 31.109375 20.453125 19.1875 8.296875 
z
" id="DejaVuSans-32"/>
       <path d="M 31.78125 66.40625 
Q 24.171875 66.40625 20.328125 58.90625 
Q 16.5 51.421875 16.5 36.375 
Q 16.5 21.390625 20.328125 13.890625 
Q 24.171875 6.390625 31.78125 6.390625 
Q 39.453125 6.390625 43.28125 13.890625 
Q 47.125 21.390625 47.125 36.375 
Q 47.125 51.421875 43.28125 58.90625 
Q 39.453125 66.40625 31.78125 66.40625 
z
M 31.78125 74.21875 
Q 44.046875 74.21875 50.515625 64.515625 
Q 56.984375 54.828125 56.984375 36.375 
Q 56.984375 17.96875 50.515625 8.265625 
Q 44.046875 -1.421875 31.78125 -1.421875 
Q 19.53125 -1.421875 13.0625 8.265625 
Q 6.59375 17.96875 6.59375 36.375 
Q 6.59375 54.828125 13.0625 64.515625 
Q 19.53125 74.21875 31.78125 74.21875 
z
" id="DejaVuSans-30"/>
      </defs>
      <g style="fill:#555555;" transform="translate(103.321197 315.796165)scale(0.1 -0.1)">
       <use xlink:href="#DejaVuSans-2212"/>
       <use x="83.789062" xlink:href="#DejaVuSans-32"/>
       <use x="147.412109" xlink:href="#DejaVuSans-30"/>
      </g>
     </g>
    </g>
    <g id="xtick_2">
     <g id="line2d_3">
      <path clip-path="url(#pabd9ff7d48)" d="M 181.515066 301.197727 
L 181.515066 14.024904 
" style="fill:none;stroke:#ffffff;stroke-linecap:square;stroke-width:0.8;"/>
     </g>
     <g id="line2d_4">
      <g>
       <use style="fill:#555555;stroke:#555555;stroke-width:0.8;" x="181.515066" xlink:href="#mcd987e66c6" y="301.197727"/>
      </g>
     </g>
     <g id="text_2">
      <!-- −10 -->
      <defs>
       <path d="M 12.40625 8.296875 
L 28.515625 8.296875 
L 28.515625 63.921875 
L 10.984375 60.40625 
L 10.984375 69.390625 
L 28.421875 72.90625 
L 38.28125 72.90625 
L 38.28125 8.296875 
L 54.390625 8.296875 
L 54.390625 0 
L 12.40625 0 
z
" id="DejaVuSans-31"/>
      </defs>
      <g style="fill:#555555;" transform="translate(170.962722 315.796165)scale(0.1 -0.1)">
       <use xlink:href="#DejaVuSans-2212"/>
       <use x="83.789062" xlink:href="#DejaVuSans-31"/>
       <use x="147.412109" xlink:href="#DejaVuSans-30"/>
      </g>
     </g>
    </g>
    <g id="xtick_3">
     <g id="line2d_5">
      <path clip-path="url(#pabd9ff7d48)" d="M 249.156591 301.197727 
L 249.156591 14.024904 
" style="fill:none;stroke:#ffffff;stroke-linecap:square;stroke-width:0.8;"/>
     </g>
     <g id="line2d_6">
      <g>
       <use style="fill:#555555;stroke:#555555;stroke-width:0.8;" x="249.156591" xlink:href="#mcd987e66c6" y="301.197727"/>
      </g>
     </g>
     <g id="text_3">
      <!-- 0 -->
      <g style="fill:#555555;" transform="translate(245.975341 315.796165)scale(0.1 -0.1)">
       <use xlink:href="#DejaVuSans-30"/>
      </g>
     </g>
    </g>
    <g id="xtick_4">
     <g id="line2d_7">
      <path clip-path="url(#pabd9ff7d48)" d="M 316.798116 301.197727 
L 316.798116 14.024904 
" style="fill:none;stroke:#ffffff;stroke-linecap:square;stroke-width:0.8;"/>
     </g>
     <g id="line2d_8">
      <g>
       <use style="fill:#555555;stroke:#555555;stroke-width:0.8;" x="316.798116" xlink:href="#mcd987e66c6" y="301.197727"/>
      </g>
     </g>
     <g id="text_4">
      <!-- 10 -->
      <g style="fill:#555555;" transform="translate(310.435616 315.796165)scale(0.1 -0.1)">
       <use xlink:href="#DejaVuSans-31"/>
       <use x="63.623047" xlink:href="#DejaVuSans-30"/>
      </g>
     </g>
    </g>
    <g id="xtick_5">
     <g id="line2d_9">
      <path clip-path="url(#pabd9ff7d48)" d="M 384.439641 301.197727 
L 384.439641 14.024904 
" style="fill:none;stroke:#ffffff;stroke-linecap:square;stroke-width:0.8;"/>
     </g>
     <g id="line2d_10">
      <g>
       <use style="fill:#555555;stroke:#555555;stroke-width:0.8;" x="384.439641" xlink:href="#mcd987e66c6" y="301.197727"/>
      </g>
     </g>
     <g id="text_5">
      <!-- 20 -->
      <g style="fill:#555555;" transform="translate(378.077141 315.796165)scale(0.1 -0.1)">
       <use xlink:href="#DejaVuSans-32"/>
       <use x="63.623047" xlink:href="#DejaVuSans-30"/>
      </g>
     </g>
    </g>
    <g id="text_6">
     <!-- $t$ [fs] -->
     <defs>
      <path d="M 42.28125 54.6875 
L 40.921875 47.703125 
L 23 47.703125 
L 17.1875 18.015625 
Q 16.890625 16.359375 16.75 15.234375 
Q 16.609375 14.109375 16.609375 13.484375 
Q 16.609375 10.359375 18.484375 8.9375 
Q 20.359375 7.515625 24.515625 7.515625 
L 33.59375 7.515625 
L 32.078125 0 
L 23.484375 0 
Q 15.484375 0 11.546875 3.125 
Q 7.625 6.25 7.625 12.59375 
Q 7.625 13.71875 7.765625 15.0625 
Q 7.90625 16.40625 8.203125 18.015625 
L 14.015625 47.703125 
L 6.390625 47.703125 
L 7.8125 54.6875 
L 15.28125 54.6875 
L 18.3125 70.21875 
L 27.296875 70.21875 
L 24.3125 54.6875 
z
" id="DejaVuSans-Oblique-74"/>
      <path id="DejaVuSans-20"/>
      <path d="M 8.59375 75.984375 
L 29.296875 75.984375 
L 29.296875 69 
L 17.578125 69 
L 17.578125 -6.203125 
L 29.296875 -6.203125 
L 29.296875 -13.1875 
L 8.59375 -13.1875 
z
" id="DejaVuSans-5b"/>
      <path d="M 37.109375 75.984375 
L 37.109375 68.5 
L 28.515625 68.5 
Q 23.6875 68.5 21.796875 66.546875 
Q 19.921875 64.59375 19.921875 59.515625 
L 19.921875 54.6875 
L 34.71875 54.6875 
L 34.71875 47.703125 
L 19.921875 47.703125 
L 19.921875 0 
L 10.890625 0 
L 10.890625 47.703125 
L 2.296875 47.703125 
L 2.296875 54.6875 
L 10.890625 54.6875 
L 10.890625 58.5 
Q 10.890625 67.625 15.140625 71.796875 
Q 19.390625 75.984375 28.609375 75.984375 
z
" id="DejaVuSans-66"/>
      <path d="M 44.28125 53.078125 
L 44.28125 44.578125 
Q 40.484375 46.53125 36.375 47.5 
Q 32.28125 48.484375 27.875 48.484375 
Q 21.1875 48.484375 17.84375 46.4375 
Q 14.5 44.390625 14.5 40.28125 
Q 14.5 37.15625 16.890625 35.375 
Q 19.28125 33.59375 26.515625 31.984375 
L 29.59375 31.296875 
Q 39.15625 29.25 43.1875 25.515625 
Q 47.21875 21.78125 47.21875 15.09375 
Q 47.21875 7.46875 41.1875 3.015625 
Q 35.15625 -1.421875 24.609375 -1.421875 
Q 20.21875 -1.421875 15.453125 -0.5625 
Q 10.6875 0.296875 5.421875 2 
L 5.421875 11.28125 
Q 10.40625 8.6875 15.234375 7.390625 
Q 20.0625 6.109375 24.8125 6.109375 
Q 31.15625 6.109375 34.5625 8.28125 
Q 37.984375 10.453125 37.984375 14.40625 
Q 37.984375 18.0625 35.515625 20.015625 
Q 33.0625 21.96875 24.703125 23.78125 
L 21.578125 24.515625 
Q 13.234375 26.265625 9.515625 29.90625 
Q 5.8125 33.546875 5.8125 39.890625 
Q 5.8125 47.609375 11.28125 51.796875 
Q 16.75 56 26.8125 56 
Q 31.78125 56 36.171875 55.265625 
Q 40.578125 54.546875 44.28125 53.078125 
z
" id="DejaVuSans-73"/>
      <path d="M 30.421875 75.984375 
L 30.421875 -13.1875 
L 9.71875 -13.1875 
L 9.71875 -6.203125 
L 21.390625 -6.203125 
L 21.390625 69 
L 9.71875 69 
L 9.71875 75.984375 
z
" id="DejaVuSans-5d"/>
     </defs>
     <g style="fill:#555555;" transform="translate(234.936591 330.993977)scale(0.12 -0.12)">
      <use transform="translate(0 0.015625)" xlink:href="#DejaVuSans-Oblique-74"/>
      <use transform="translate(39.208984 0.015625)" xlink:href="#DejaVuSans-20"/>
      <use transform="translate(70.996094 0.015625)" xlink:href="#DejaVuSans-5b"/>
      <use transform="translate(110.009766 0.015625)" xlink:href="#DejaVuSans-66"/>
      <use transform="translate(145.214844 0.015625)" xlink:href="#DejaVuSans-73"/>
      <use transform="translate(197.314453 0.015625)" xlink:href="#DejaVuSans-5d"/>
     </g>
    </g>
   </g>
   <g id="matplotlib.axis_2">
    <g id="ytick_1">
     <g id="line2d_11">
      <path clip-path="url(#pabd9ff7d48)" d="M 50.604091 254.505382 
L 447.709091 254.505382 
" style="fill:none;stroke:#ffffff;stroke-linecap:square;stroke-width:0.8;"/>
     </g>
     <g id="line2d_12">
      <defs>
       <path d="M 0 0 
L -3.5 0 
" id="m3a215dbfc4" style="stroke:#555555;stroke-width:0.8;"/>
      </defs>
      <g>
       <use style="fill:#555555;stroke:#555555;stroke-width:0.8;" x="50.604091" xlink:href="#m3a215dbfc4" y="254.505382"/>
      </g>
     </g>
     <g id="text_7">
      <!-- −2 -->
      <g style="fill:#555555;" transform="translate(28.861903 258.304601)scale(0.1 -0.1)">
       <use xlink:href="#DejaVuSans-2212"/>
       <use x="83.789062" xlink:href="#DejaVuSans-32"/>
      </g>
     </g>
    </g>
    <g id="ytick_2">
     <g id="line2d_13">
      <path clip-path="url(#pabd9ff7d48)" d="M 50.604091 206.560878 
L 447.709091 206.560878 
" style="fill:none;stroke:#ffffff;stroke-linecap:square;stroke-width:0.8;"/>
     </g>
     <g id="line2d_14">
      <g>
       <use style="fill:#555555;stroke:#555555;stroke-width:0.8;" x="50.604091" xlink:href="#m3a215dbfc4" y="206.560878"/>
      </g>
     </g>
     <g id="text_8">
      <!-- −1 -->
      <g style="fill:#555555;" transform="translate(28.861903 210.360096)scale(0.1 -0.1)">
       <use xlink:href="#DejaVuSans-2212"/>
       <use x="83.789062" xlink:href="#DejaVuSans-31"/>
      </g>
     </g>
    </g>
    <g id="ytick_3">
     <g id="line2d_15">
      <path clip-path="url(#pabd9ff7d48)" d="M 50.604091 158.616373 
L 447.709091 158.616373 
" style="fill:none;stroke:#ffffff;stroke-linecap:square;stroke-width:0.8;"/>
     </g>
     <g id="line2d_16">
      <g>
       <use style="fill:#555555;stroke:#555555;stroke-width:0.8;" x="50.604091" xlink:href="#m3a215dbfc4" y="158.616373"/>
      </g>
     </g>
     <g id="text_9">
      <!-- 0 -->
      <g style="fill:#555555;" transform="translate(37.241591 162.415592)scale(0.1 -0.1)">
       <use xlink:href="#DejaVuSans-30"/>
      </g>
     </g>
    </g>
    <g id="ytick_4">
     <g id="line2d_17">
      <path clip-path="url(#pabd9ff7d48)" d="M 50.604091 110.671869 
L 447.709091 110.671869 
" style="fill:none;stroke:#ffffff;stroke-linecap:square;stroke-width:0.8;"/>
     </g>
     <g id="line2d_18">
      <g>
       <use style="fill:#555555;stroke:#555555;stroke-width:0.8;" x="50.604091" xlink:href="#m3a215dbfc4" y="110.671869"/>
      </g>
     </g>
     <g id="text_10">
      <!-- 1 -->
      <g style="fill:#555555;" transform="translate(37.241591 114.471088)scale(0.1 -0.1)">
       <use xlink:href="#DejaVuSans-31"/>
      </g>
     </g>
    </g>
    <g id="ytick_5">
     <g id="line2d_19">
      <path clip-path="url(#pabd9ff7d48)" d="M 50.604091 62.727364 
L 447.709091 62.727364 
" style="fill:none;stroke:#ffffff;stroke-linecap:square;stroke-width:0.8;"/>
     </g>
     <g id="line2d_20">
      <g>
       <use style="fill:#555555;stroke:#555555;stroke-width:0.8;" x="50.604091" xlink:href="#m3a215dbfc4" y="62.727364"/>
      </g>
     </g>
     <g id="text_11">
      <!-- 2 -->
      <g style="fill:#555555;" transform="translate(37.241591 66.526583)scale(0.1 -0.1)">
       <use xlink:href="#DejaVuSans-32"/>
      </g>
     </g>
    </g>
    <g id="ytick_6">
     <g id="line2d_21">
      <path clip-path="url(#pabd9ff7d48)" d="M 50.604091 14.78286 
L 447.709091 14.78286 
" style="fill:none;stroke:#ffffff;stroke-linecap:square;stroke-width:0.8;"/>
     </g>
     <g id="line2d_22">
      <g>
       <use style="fill:#555555;stroke:#555555;stroke-width:0.8;" x="50.604091" xlink:href="#m3a215dbfc4" y="14.78286"/>
      </g>
     </g>
     <g id="text_12">
      <!-- 3 -->
      <defs>
       <path d="M 40.578125 39.3125 
Q 47.65625 37.796875 51.625 33 
Q 55.609375 28.21875 55.609375 21.1875 
Q 55.609375 10.40625 48.1875 4.484375 
Q 40.765625 -1.421875 27.09375 -1.421875 
Q 22.515625 -1.421875 17.65625 -0.515625 
Q 12.796875 0.390625 7.625 2.203125 
L 7.625 11.71875 
Q 11.71875 9.328125 16.59375 8.109375 
Q 21.484375 6.890625 26.8125 6.890625 
Q 36.078125 6.890625 40.9375 10.546875 
Q 45.796875 14.203125 45.796875 21.1875 
Q 45.796875 27.640625 41.28125 31.265625 
Q 36.765625 34.90625 28.71875 34.90625 
L 20.21875 34.90625 
L 20.21875 43.015625 
L 29.109375 43.015625 
Q 36.375 43.015625 40.234375 45.921875 
Q 44.09375 48.828125 44.09375 54.296875 
Q 44.09375 59.90625 40.109375 62.90625 
Q 36.140625 65.921875 28.71875 65.921875 
Q 24.65625 65.921875 20.015625 65.03125 
Q 15.375 64.15625 9.8125 62.3125 
L 9.8125 71.09375 
Q 15.4375 72.65625 20.34375 73.4375 
Q 25.25 74.21875 29.59375 74.21875 
Q 40.828125 74.21875 47.359375 69.109375 
Q 53.90625 64.015625 53.90625 55.328125 
Q 53.90625 49.265625 50.4375 45.09375 
Q 46.96875 40.921875 40.578125 39.3125 
z
" id="DejaVuSans-33"/>
      </defs>
      <g style="fill:#555555;" transform="translate(37.241591 18.582079)scale(0.1 -0.1)">
       <use xlink:href="#DejaVuSans-33"/>
      </g>
     </g>
    </g>
    <g id="text_13">
     <!-- $E$ [$10^{10}$ V/m] -->
     <defs>
      <path d="M 16.890625 72.90625 
L 62.984375 72.90625 
L 61.375 64.59375 
L 25.09375 64.59375 
L 20.90625 43.015625 
L 55.71875 43.015625 
L 54.109375 34.71875 
L 19.28125 34.71875 
L 14.203125 8.296875 
L 51.3125 8.296875 
L 49.703125 0 
L 2.6875 0 
z
" id="DejaVuSans-Oblique-45"/>
      <path d="M 28.609375 0 
L 0.78125 72.90625 
L 11.078125 72.90625 
L 34.1875 11.53125 
L 57.328125 72.90625 
L 67.578125 72.90625 
L 39.796875 0 
z
" id="DejaVuSans-56"/>
      <path d="M 25.390625 72.90625 
L 33.6875 72.90625 
L 8.296875 -9.28125 
L 0 -9.28125 
z
" id="DejaVuSans-2f"/>
      <path d="M 52 44.1875 
Q 55.375 50.25 60.0625 53.125 
Q 64.75 56 71.09375 56 
Q 79.640625 56 84.28125 50.015625 
Q 88.921875 44.046875 88.921875 33.015625 
L 88.921875 0 
L 79.890625 0 
L 79.890625 32.71875 
Q 79.890625 40.578125 77.09375 44.375 
Q 74.3125 48.1875 68.609375 48.1875 
Q 61.625 48.1875 57.5625 43.546875 
Q 53.515625 38.921875 53.515625 30.90625 
L 53.515625 0 
L 44.484375 0 
L 44.484375 32.71875 
Q 44.484375 40.625 41.703125 44.40625 
Q 38.921875 48.1875 33.109375 48.1875 
Q 26.21875 48.1875 22.15625 43.53125 
Q 18.109375 38.875 18.109375 30.90625 
L 18.109375 0 
L 9.078125 0 
L 9.078125 54.6875 
L 18.109375 54.6875 
L 18.109375 46.1875 
Q 21.1875 51.21875 25.484375 53.609375 
Q 29.78125 56 35.6875 56 
Q 41.65625 56 45.828125 52.96875 
Q 50 49.953125 52 44.1875 
z
" id="DejaVuSans-6d"/>
     </defs>
     <g style="fill:#555555;" transform="translate(22.366278 195.111316)rotate(-90)scale(0.12 -0.12)">
      <use transform="translate(0 0.765625)" xlink:href="#DejaVuSans-Oblique-45"/>
      <use transform="translate(63.183594 0.765625)" xlink:href="#DejaVuSans-20"/>
      <use transform="translate(94.970703 0.765625)" xlink:href="#DejaVuSans-5b"/>
      <use transform="translate(133.984375 0.765625)" xlink:href="#DejaVuSans-31"/>
      <use transform="translate(197.607422 0.765625)" xlink:href="#DejaVuSans-30"/>
      <use transform="translate(262.1875 39.046875)scale(0.7)" xlink:href="#DejaVuSans-31"/>
      <use transform="translate(306.723633 39.046875)scale(0.7)" xlink:href="#DejaVuSans-30"/>
      <use transform="translate(353.994141 0.765625)" xlink:href="#DejaVuSans-20"/>
      <use transform="translate(385.78125 0.765625)" xlink:href="#DejaVuSans-56"/>
      <use transform="translate(454.189453 0.765625)" xlink:href="#DejaVuSans-2f"/>
      <use transform="translate(487.880859 0.765625)" xlink:href="#DejaVuSans-6d"/>
      <use transform="translate(585.292969 0.765625)" xlink:href="#DejaVuSans-5d"/>
     </g>
    </g>
   </g>
   <g id="line2d_23">
    <path clip-path="url(#pabd9ff7d48)" d="M 68.654318 158.616373 
L 154.255196 158.724956 
L 157.867047 158.681691 
L 161.298306 158.394518 
L 164.36838 158.185727 
L 166.174305 158.284527 
L 167.799639 158.583859 
L 169.966749 159.227462 
L 172.13386 159.835212 
L 173.398008 159.965759 
L 174.481564 159.847828 
L 175.565119 159.473748 
L 176.648674 158.839005 
L 177.912822 157.828633 
L 180.802304 155.394713 
L 181.705266 154.98265 
L 182.427637 154.898201 
L 183.150007 155.078586 
L 183.872377 155.552714 
L 184.594747 156.331289 
L 185.49771 157.713319 
L 186.581266 159.863431 
L 189.651339 166.347384 
L 190.37371 167.24691 
L 190.915487 167.599183 
L 191.457265 167.625865 
L 191.81845 167.445251 
L 192.360228 166.858123 
L 192.902006 165.8801 
L 193.624376 163.971968 
L 194.346746 161.420372 
L 195.430302 156.625481 
L 198.319783 142.926021 
L 199.042153 140.687397 
L 199.583931 139.652472 
L 199.945116 139.321279 
L 200.306301 139.303879 
L 200.667486 139.618372 
L 201.028671 140.277896 
L 201.570449 141.929275 
L 202.112227 144.373384 
L 202.834597 148.805597 
L 203.73756 155.976395 
L 205.1823 169.798011 
L 206.807633 184.961456 
L 207.530004 190.130036 
L 208.071781 192.937879 
L 208.613559 194.62939 
L 208.974744 195.063165 
L 209.155337 195.058501 
L 209.335929 194.901444 
L 209.697115 194.119622 
L 210.0583 192.702927 
L 210.600077 189.381263 
L 211.141855 184.657065 
L 211.864225 176.342318 
L 212.767188 163.269664 
L 214.753707 129.771715 
L 215.837262 113.424437 
L 216.559632 105.138413 
L 217.10141 100.839391 
L 217.462595 99.034888 
L 217.82378 98.153904 
L 218.004373 98.075401 
L 218.184965 98.24473 
L 218.54615 99.340466 
L 218.907336 101.457903 
L 219.449113 106.544082 
L 219.990891 113.847656 
L 220.713261 126.73282 
L 221.616224 146.950785 
L 225.047483 230.080362 
L 225.769853 240.638027 
L 226.311631 245.415964 
L 226.672816 246.935803 
L 226.853409 247.17148 
L 227.034001 247.04994 
L 227.214594 246.567199 
L 227.575779 244.50968 
L 227.936964 240.997393 
L 228.478742 233.059268 
L 229.201112 217.81112 
L 230.104075 192.411303 
L 231.368223 149.281373 
L 233.174149 87.681446 
L 234.077111 64.074086 
L 234.799482 51.267964 
L 235.341259 45.922196 
L 235.702445 44.559574 
L 235.883037 44.560136 
L 236.06363 45.020496 
L 236.424815 47.324735 
L 236.786 51.461059 
L 237.327778 60.99929 
L 238.050148 79.47568 
L 238.953111 110.270406 
L 240.397851 170.086669 
L 242.023184 235.982116 
L 242.926147 264.105638 
L 243.648518 279.472327 
L 244.190295 286.080055 
L 244.55148 287.971646 
L 244.732073 288.144417 
L 244.912666 287.79842 
L 245.273851 285.552931 
L 245.635036 281.262615 
L 246.176814 271.137943 
L 246.899184 251.337835 
L 247.802147 218.304612 
L 249.246887 154.480551 
L 250.87222 84.782944 
L 251.775183 55.152772 
L 252.497553 38.864055 
L 253.039331 31.679815 
L 253.400516 29.434327 
L 253.581109 29.088329 
L 253.761701 29.261101 
L 253.942294 29.950618 
L 254.303479 32.860989 
L 254.664664 37.76042 
L 255.206442 48.629139 
L 255.928812 68.968107 
L 256.831775 101.729774 
L 260.443626 242.948931 
L 261.165997 259.845761 
L 261.707774 268.066936 
L 262.06896 271.290576 
L 262.430145 272.672611 
L 262.610737 272.673173 
L 262.79133 272.217376 
L 263.152515 269.959885 
L 263.5137 265.964782 
L 264.055478 256.924111 
L 264.777848 239.865213 
L 265.680811 212.373177 
L 269.11207 99.421627 
L 269.83444 84.173478 
L 270.376218 76.235353 
L 270.917995 71.511978 
L 271.279181 70.182807 
L 271.459773 70.061266 
L 271.640366 70.296944 
L 272.001551 71.816783 
L 272.362736 74.682111 
L 272.904514 81.319917 
L 273.626884 93.967342 
L 274.529847 114.372892 
L 277.961106 197.363119 
L 278.683476 208.494117 
L 279.225254 214.332416 
L 279.767031 217.892281 
L 280.128216 218.988017 
L 280.308809 219.157345 
L 280.489402 219.078842 
L 280.669994 218.75715 
L 281.031179 217.40747 
L 281.392364 215.163702 
L 281.934142 210.274636 
L 282.656512 201.357004 
L 283.740068 184.448104 
L 286.268364 143.292174 
L 287.171327 132.575682 
L 287.893697 126.585618 
L 288.435475 123.741594 
L 288.79666 122.643538 
L 289.157845 122.174245 
L 289.338438 122.169581 
L 289.51903 122.313931 
L 289.880215 123.033382 
L 290.2414 124.294868 
L 290.783178 127.10271 
L 291.505548 132.271291 
L 292.589104 142.079369 
L 294.936807 164.314989 
L 295.83977 170.803859 
L 296.56214 174.575963 
L 297.103918 176.49308 
L 297.645696 177.614374 
L 298.006881 177.928867 
L 298.368066 177.911468 
L 298.729251 177.580275 
L 299.090436 176.95777 
L 299.632214 175.536083 
L 300.354584 172.890009 
L 301.43814 167.860005 
L 303.785843 156.54001 
L 304.688806 153.260778 
L 305.411176 151.352647 
L 305.952954 150.374624 
L 306.494732 149.787496 
L 307.036509 149.577249 
L 307.397694 149.633564 
L 307.939472 149.985836 
L 308.48125 150.619938 
L 309.20362 151.816038 
L 310.287176 154.096219 
L 312.634879 159.193818 
L 313.537842 160.660031 
L 314.260212 161.513892 
L 314.982582 162.063928 
L 315.704953 162.315677 
L 316.427323 162.293894 
L 317.149693 162.038247 
L 318.052656 161.466312 
L 319.497397 160.223282 
L 321.483915 158.522644 
L 322.56747 157.847209 
L 323.651026 157.428838 
L 324.734581 157.270226 
L 325.818136 157.335818 
L 327.262877 157.666317 
L 331.777691 158.89926 
L 333.583617 159.045245 
L 335.750728 158.957434 
L 342.432653 158.496168 
L 346.947467 158.581726 
L 353.268207 158.641845 
L 378.731759 158.616161 
L 429.658864 158.616373 
L 429.658864 158.616373 
" style="fill:none;stroke:#e24a33;stroke-linecap:square;stroke-width:1.5;"/>
   </g>
   <g id="line2d_24">
    <path clip-path="url(#pabd9ff7d48)" d="M 68.654318 158.616373 
L 156.602899 158.509397 
L 160.756528 158.394034 
L 163.104232 158.574507 
L 165.993713 159.057476 
L 168.341416 159.373385 
L 169.786157 159.349334 
L 171.050305 159.116834 
L 172.314453 158.67248 
L 174.120378 157.758926 
L 176.287489 156.667704 
L 177.371045 156.374076 
L 178.274008 156.36775 
L 178.996378 156.555893 
L 179.899341 157.057527 
L 180.802304 157.855895 
L 181.885859 159.154777 
L 185.49771 163.935892 
L 186.220081 164.39518 
L 186.761858 164.50938 
L 187.303636 164.395536 
L 187.845414 164.033177 
L 188.387191 163.410152 
L 189.109562 162.171321 
L 189.831932 160.490683 
L 190.915487 157.28683 
L 193.985561 147.413798 
L 194.707931 145.966864 
L 195.249709 145.344141 
L 195.610894 145.18585 
L 195.972079 145.251886 
L 196.333264 145.554952 
L 196.69445 146.104219 
L 197.236227 147.400095 
L 197.778005 149.260311 
L 198.500375 152.573854 
L 199.403338 157.867064 
L 200.848079 167.953269 
L 202.292819 177.784749 
L 203.195782 182.469089 
L 203.73756 184.369832 
L 204.098745 185.172907 
L 204.45993 185.564644 
L 204.821115 185.516911 
L 205.1823 185.007979 
L 205.543485 184.023234 
L 206.085263 181.641179 
L 206.627041 178.187004 
L 207.349411 172.017301 
L 208.252374 162.178185 
L 209.877707 141.146062 
L 211.322448 123.552644 
L 212.044818 116.89922 
L 212.586596 113.36431 
L 213.128373 111.323897 
L 213.489559 110.881899 
L 213.670151 110.951751 
L 213.850744 111.220624 
L 214.211929 112.366052 
L 214.573114 114.331081 
L 215.114892 118.809417 
L 215.837262 127.51933 
L 216.740225 142.267382 
L 218.004373 167.868922 
L 219.990891 208.879846 
L 220.893854 222.830045 
L 221.435632 228.625309 
L 221.977409 232.086772 
L 222.338594 232.974345 
L 222.519187 232.971523 
L 222.69978 232.66453 
L 223.060965 231.126151 
L 223.42215 228.348306 
L 223.963928 221.885645 
L 224.686298 209.205772 
L 225.589261 187.718148 
L 226.853409 150.592151 
L 228.839927 91.640944 
L 229.74289 71.64379 
L 230.284667 63.262165 
L 230.826445 58.111443 
L 231.18763 56.62428 
L 231.368223 56.488541 
L 231.548815 56.764822 
L 231.910001 58.563607 
L 232.271186 62.023481 
L 232.812963 70.264457 
L 233.354741 81.973988 
L 234.077111 102.368785 
L 235.160667 140.703154 
L 237.869555 242.618241 
L 238.591926 262.240773 
L 239.133703 272.94146 
L 239.675481 279.677156 
L 240.036666 281.802255 
L 240.217259 282.131538 
L 240.397851 281.966156 
L 240.578444 281.304325 
L 240.939629 278.494618 
L 241.300814 273.729972 
L 241.842592 263.059529 
L 242.564962 242.826896 
L 243.467925 209.682858 
L 245.093258 138.385901 
L 246.537999 78.437277 
L 247.440962 50.043532 
L 247.982739 37.977964 
L 248.524517 30.225413 
L 248.885702 27.604591 
L 249.066295 27.078214 
L 249.246887 27.078214 
L 249.42748 27.604591 
L 249.788665 30.225413 
L 250.14985 34.896647 
L 250.691628 45.567337 
L 251.413998 65.967743 
L 252.316961 99.401927 
L 253.942294 170.887005 
L 255.387035 230.474151 
L 256.289997 258.611794 
L 257.012368 273.729972 
L 257.554145 280.146346 
L 257.915331 281.966156 
L 258.095923 282.131538 
L 258.276516 281.802255 
L 258.637701 279.677156 
L 258.998886 275.645983 
L 259.540664 266.222596 
L 260.263034 248.034826 
L 261.165997 218.198024 
L 262.971922 147.690178 
L 264.23607 102.368785 
L 265.139033 77.703875 
L 265.861404 64.369493 
L 266.403181 58.563607 
L 266.764366 56.764822 
L 266.944959 56.488541 
L 267.125552 56.62428 
L 267.306144 57.167363 
L 267.667329 59.448552 
L 268.028514 63.262165 
L 268.570292 71.64379 
L 269.292662 87.125369 
L 270.195625 111.648815 
L 273.446291 205.36784 
L 274.168662 219.136363 
L 274.710439 226.496923 
L 275.252217 231.126151 
L 275.613402 232.66453 
L 275.793995 232.971523 
L 275.974587 232.974345 
L 276.15518 232.67752 
L 276.516365 231.208983 
L 276.87755 228.625309 
L 277.419328 222.830045 
L 278.141698 212.033355 
L 279.225254 191.174396 
L 281.934142 135.911088 
L 282.837105 122.787878 
L 283.559475 115.621211 
L 284.101253 112.366052 
L 284.462438 111.220624 
L 284.823623 110.881899 
L 285.004216 111.007418 
L 285.365401 111.826197 
L 285.726586 113.36431 
L 286.268364 116.89922 
L 286.990734 123.552644 
L 288.07429 136.422188 
L 290.783178 170.220579 
L 291.686141 178.187004 
L 292.408511 182.555805 
L 292.950289 184.5757 
L 293.311474 185.321183 
L 293.672659 185.597228 
L 294.033844 185.422092 
L 294.395029 184.8208 
L 294.936807 183.189159 
L 295.659177 179.852818 
L 296.56214 174.314754 
L 299.993399 151.661088 
L 300.715769 148.578506 
L 301.43814 146.472983 
L 301.979917 145.554952 
L 302.341102 145.251886 
L 302.702288 145.18585 
L 303.063473 145.344141 
L 303.60525 145.966864 
L 304.147028 146.994065 
L 304.869398 148.864285 
L 305.952954 152.35292 
L 308.120065 159.502515 
L 309.023028 161.790815 
L 309.745398 163.143827 
L 310.467768 164.033177 
L 311.009546 164.395536 
L 311.551324 164.50938 
L 312.093101 164.39518 
L 312.815471 163.935892 
L 313.718434 162.979205 
L 314.982582 161.227862 
L 316.969101 158.464793 
L 318.052656 157.342307 
L 318.955619 156.720335 
L 319.858582 156.397719 
L 320.761545 156.353291 
L 321.664507 156.541063 
L 322.928655 157.075407 
L 326.901692 159.010872 
L 328.16584 159.304611 
L 329.61058 159.388384 
L 331.235914 159.238132 
L 337.556653 158.394034 
L 340.265542 158.435203 
L 347.669837 158.676854 
L 387.039017 158.616399 
L 429.658864 158.616373 
L 429.658864 158.616373 
" style="fill:none;stroke:#348abd;stroke-linecap:square;stroke-width:1.5;"/>
   </g>
   <g id="patch_3">
    <path d="M 50.604091 301.197727 
L 50.604091 14.024904 
" style="fill:none;stroke:#ffffff;stroke-linecap:square;stroke-linejoin:miter;"/>
   </g>
   <g id="patch_4">
    <path d="M 447.709091 301.197727 
L 447.709091 14.024904 
" style="fill:none;stroke:#ffffff;stroke-linecap:square;stroke-linejoin:miter;"/>
   </g>
   <g id="patch_5">
    <path d="M 50.604091 301.197727 
L 447.709091 301.197727 
" style="fill:none;stroke:#ffffff;stroke-linecap:square;stroke-linejoin:miter;"/>
   </g>
   <g id="patch_6">
    <path d="M 50.604091 14.024904 
L 447.709091 14.024904 
" style="fill:none;stroke:#ffffff;stroke-linecap:square;stroke-linejoin:miter;"/>
   </g>
  </g>
 </g>
 <defs>
  <clipPath id="pabd9ff7d48">
   <rect height="287.172823" width="397.105" x="50.604091" y="14.024904"/>
  </clipPath>
 </defs>
</svg>
