<?xml version="1.0" encoding="utf-8" standalone="no"?>
<!DOCTYPE svg PUBLIC "-//W3C//DTD SVG 1.1//EN"
  "http://www.w3.org/Graphics/SVG/1.1/DTD/svg11.dtd">
<!-- Created with matplotlib (http://matplotlib.org/) -->
<svg height="345pt" version="1.1" viewBox="0 0 460 345" width="460pt" xmlns="http://www.w3.org/2000/svg" xmlns:xlink="http://www.w3.org/1999/xlink">
 <defs>
  <style type="text/css">
*{stroke-linecap:butt;stroke-linejoin:round;}
  </style>
 </defs>
 <g id="figure_1">
  <g id="patch_1">
   <path d="M 0 345.6 
L 460.8 345.6 
L 460.8 0 
L 0 0 
z
" style="fill:none;"/>
  </g>
  <g id="axes_1">
   <g id="patch_2">
    <path d="M 50.770373 161.796809 
L 447.48 161.796809 
L 447.48 40.62125 
L 50.770373 40.62125 
z
" style="fill:none;"/>
   </g>
   <g id="matplotlib.axis_1">
    <g id="xtick_1">
     <g id="line2d_1">
      <defs>
       <path d="M 0 0 
L 0 -3.5 
" id="mdefa49a6fa" style="stroke:#000000;stroke-width:0.8;"/>
      </defs>
      <g>
       <use style="stroke:#000000;stroke-width:0.8;" x="80.18974" xlink:href="#mdefa49a6fa" y="40.62125"/>
      </g>
     </g>
     <g id="text_1">
      <!-- −100 -->
      <defs>
       <path d="M 10.59375 35.5 
L 73.1875 35.5 
L 73.1875 27.203125 
L 10.59375 27.203125 
z
" id="DejaVuSans-2212"/>
       <path d="M 12.40625 8.296875 
L 28.515625 8.296875 
L 28.515625 63.921875 
L 10.984375 60.40625 
L 10.984375 69.390625 
L 28.421875 72.90625 
L 38.28125 72.90625 
L 38.28125 8.296875 
L 54.390625 8.296875 
L 54.390625 0 
L 12.40625 0 
z
" id="DejaVuSans-31"/>
       <path d="M 31.78125 66.40625 
Q 24.171875 66.40625 20.328125 58.90625 
Q 16.5 51.421875 16.5 36.375 
Q 16.5 21.390625 20.328125 13.890625 
Q 24.171875 6.390625 31.78125 6.390625 
Q 39.453125 6.390625 43.28125 13.890625 
Q 47.125 21.390625 47.125 36.375 
Q 47.125 51.421875 43.28125 58.90625 
Q 39.453125 66.40625 31.78125 66.40625 
z
M 31.78125 74.21875 
Q 44.046875 74.21875 50.515625 64.515625 
Q 56.984375 54.828125 56.984375 36.375 
Q 56.984375 17.96875 50.515625 8.265625 
Q 44.046875 -1.421875 31.78125 -1.421875 
Q 19.53125 -1.421875 13.0625 8.265625 
Q 6.59375 17.96875 6.59375 36.375 
Q 6.59375 54.828125 13.0625 64.515625 
Q 19.53125 74.21875 31.78125 74.21875 
z
" id="DejaVuSans-30"/>
      </defs>
      <g transform="translate(66.456147 31.541562)scale(0.1 -0.1)">
       <use xlink:href="#DejaVuSans-2212"/>
       <use x="83.789062" xlink:href="#DejaVuSans-31"/>
       <use x="147.412109" xlink:href="#DejaVuSans-30"/>
       <use x="211.035156" xlink:href="#DejaVuSans-30"/>
      </g>
     </g>
    </g>
    <g id="xtick_2">
     <g id="line2d_2">
      <g>
       <use style="stroke:#000000;stroke-width:0.8;" x="164.657464" xlink:href="#mdefa49a6fa" y="40.62125"/>
      </g>
     </g>
     <g id="text_2">
      <!-- −50 -->
      <defs>
       <path d="M 10.796875 72.90625 
L 49.515625 72.90625 
L 49.515625 64.59375 
L 19.828125 64.59375 
L 19.828125 46.734375 
Q 21.96875 47.46875 24.109375 47.828125 
Q 26.265625 48.1875 28.421875 48.1875 
Q 40.625 48.1875 47.75 41.5 
Q 54.890625 34.8125 54.890625 23.390625 
Q 54.890625 11.625 47.5625 5.09375 
Q 40.234375 -1.421875 26.90625 -1.421875 
Q 22.3125 -1.421875 17.546875 -0.640625 
Q 12.796875 0.140625 7.71875 1.703125 
L 7.71875 11.625 
Q 12.109375 9.234375 16.796875 8.0625 
Q 21.484375 6.890625 26.703125 6.890625 
Q 35.15625 6.890625 40.078125 11.328125 
Q 45.015625 15.765625 45.015625 23.390625 
Q 45.015625 31 40.078125 35.4375 
Q 35.15625 39.890625 26.703125 39.890625 
Q 22.75 39.890625 18.8125 39.015625 
Q 14.890625 38.140625 10.796875 36.28125 
z
" id="DejaVuSans-35"/>
      </defs>
      <g transform="translate(154.10512 31.541562)scale(0.1 -0.1)">
       <use xlink:href="#DejaVuSans-2212"/>
       <use x="83.789062" xlink:href="#DejaVuSans-35"/>
       <use x="147.412109" xlink:href="#DejaVuSans-30"/>
      </g>
     </g>
    </g>
    <g id="xtick_3">
     <g id="line2d_3">
      <g>
       <use style="stroke:#000000;stroke-width:0.8;" x="249.125187" xlink:href="#mdefa49a6fa" y="40.62125"/>
      </g>
     </g>
     <g id="text_3">
      <!-- 0 -->
      <g transform="translate(245.943937 31.541562)scale(0.1 -0.1)">
       <use xlink:href="#DejaVuSans-30"/>
      </g>
     </g>
    </g>
    <g id="xtick_4">
     <g id="line2d_4">
      <g>
       <use style="stroke:#000000;stroke-width:0.8;" x="333.59291" xlink:href="#mdefa49a6fa" y="40.62125"/>
      </g>
     </g>
     <g id="text_4">
      <!-- 50 -->
      <g transform="translate(327.23041 31.541562)scale(0.1 -0.1)">
       <use xlink:href="#DejaVuSans-35"/>
       <use x="63.623047" xlink:href="#DejaVuSans-30"/>
      </g>
     </g>
    </g>
    <g id="xtick_5">
     <g id="line2d_5">
      <g>
       <use style="stroke:#000000;stroke-width:0.8;" x="418.060633" xlink:href="#mdefa49a6fa" y="40.62125"/>
      </g>
     </g>
     <g id="text_5">
      <!-- 100 -->
      <g transform="translate(408.516883 31.541562)scale(0.1 -0.1)">
       <use xlink:href="#DejaVuSans-31"/>
       <use x="63.623047" xlink:href="#DejaVuSans-30"/>
       <use x="127.246094" xlink:href="#DejaVuSans-30"/>
      </g>
     </g>
    </g>
    <g id="text_6">
     <!-- $t$ [fs] -->
     <defs>
      <path d="M 42.28125 54.6875 
L 40.921875 47.703125 
L 23 47.703125 
L 17.1875 18.015625 
Q 16.890625 16.359375 16.75 15.234375 
Q 16.609375 14.109375 16.609375 13.484375 
Q 16.609375 10.359375 18.484375 8.9375 
Q 20.359375 7.515625 24.515625 7.515625 
L 33.59375 7.515625 
L 32.078125 0 
L 23.484375 0 
Q 15.484375 0 11.546875 3.125 
Q 7.625 6.25 7.625 12.59375 
Q 7.625 13.71875 7.765625 15.0625 
Q 7.90625 16.40625 8.203125 18.015625 
L 14.015625 47.703125 
L 6.390625 47.703125 
L 7.8125 54.6875 
L 15.28125 54.6875 
L 18.3125 70.21875 
L 27.296875 70.21875 
L 24.3125 54.6875 
z
" id="DejaVuSans-Oblique-74"/>
      <path id="DejaVuSans-20"/>
      <path d="M 8.59375 75.984375 
L 29.296875 75.984375 
L 29.296875 69 
L 17.578125 69 
L 17.578125 -6.203125 
L 29.296875 -6.203125 
L 29.296875 -13.1875 
L 8.59375 -13.1875 
z
" id="DejaVuSans-5b"/>
      <path d="M 37.109375 75.984375 
L 37.109375 68.5 
L 28.515625 68.5 
Q 23.6875 68.5 21.796875 66.546875 
Q 19.921875 64.59375 19.921875 59.515625 
L 19.921875 54.6875 
L 34.71875 54.6875 
L 34.71875 47.703125 
L 19.921875 47.703125 
L 19.921875 0 
L 10.890625 0 
L 10.890625 47.703125 
L 2.296875 47.703125 
L 2.296875 54.6875 
L 10.890625 54.6875 
L 10.890625 58.5 
Q 10.890625 67.625 15.140625 71.796875 
Q 19.390625 75.984375 28.609375 75.984375 
z
" id="DejaVuSans-66"/>
      <path d="M 44.28125 53.078125 
L 44.28125 44.578125 
Q 40.484375 46.53125 36.375 47.5 
Q 32.28125 48.484375 27.875 48.484375 
Q 21.1875 48.484375 17.84375 46.4375 
Q 14.5 44.390625 14.5 40.28125 
Q 14.5 37.15625 16.890625 35.375 
Q 19.28125 33.59375 26.515625 31.984375 
L 29.59375 31.296875 
Q 39.15625 29.25 43.1875 25.515625 
Q 47.21875 21.78125 47.21875 15.09375 
Q 47.21875 7.46875 41.1875 3.015625 
Q 35.15625 -1.421875 24.609375 -1.421875 
Q 20.21875 -1.421875 15.453125 -0.5625 
Q 10.6875 0.296875 5.421875 2 
L 5.421875 11.28125 
Q 10.40625 8.6875 15.234375 7.390625 
Q 20.0625 6.109375 24.8125 6.109375 
Q 31.15625 6.109375 34.5625 8.28125 
Q 37.984375 10.453125 37.984375 14.40625 
Q 37.984375 18.0625 35.515625 20.015625 
Q 33.0625 21.96875 24.703125 23.78125 
L 21.578125 24.515625 
Q 13.234375 26.265625 9.515625 29.90625 
Q 5.8125 33.546875 5.8125 39.890625 
Q 5.8125 47.609375 11.28125 51.796875 
Q 16.75 56 26.8125 56 
Q 31.78125 56 36.171875 55.265625 
Q 40.578125 54.546875 44.28125 53.078125 
z
" id="DejaVuSans-73"/>
      <path d="M 30.421875 75.984375 
L 30.421875 -13.1875 
L 9.71875 -13.1875 
L 9.71875 -6.203125 
L 21.390625 -6.203125 
L 21.390625 69 
L 9.71875 69 
L 9.71875 75.984375 
z
" id="DejaVuSans-5d"/>
     </defs>
     <g transform="translate(237.275187 19.943125)scale(0.1 -0.1)">
      <use transform="translate(0 0.015625)" xlink:href="#DejaVuSans-Oblique-74"/>
      <use transform="translate(39.208984 0.015625)" xlink:href="#DejaVuSans-20"/>
      <use transform="translate(70.996094 0.015625)" xlink:href="#DejaVuSans-5b"/>
      <use transform="translate(110.009766 0.015625)" xlink:href="#DejaVuSans-66"/>
      <use transform="translate(145.214844 0.015625)" xlink:href="#DejaVuSans-73"/>
      <use transform="translate(197.314453 0.015625)" xlink:href="#DejaVuSans-5d"/>
     </g>
    </g>
   </g>
   <g id="matplotlib.axis_2">
    <g id="ytick_1">
     <g id="line2d_6">
      <defs>
       <path d="M 0 0 
L -3.5 0 
" id="m7caff2d169" style="stroke:#000000;stroke-width:0.8;"/>
      </defs>
      <g>
       <use style="stroke:#000000;stroke-width:0.8;" x="50.770373" xlink:href="#m7caff2d169" y="150.942259"/>
      </g>
     </g>
     <g id="text_7">
      <!-- −10 -->
      <g transform="translate(22.665686 154.741478)scale(0.1 -0.1)">
       <use xlink:href="#DejaVuSans-2212"/>
       <use x="83.789062" xlink:href="#DejaVuSans-31"/>
       <use x="147.412109" xlink:href="#DejaVuSans-30"/>
      </g>
     </g>
    </g>
    <g id="ytick_2">
     <g id="line2d_7">
      <g>
       <use style="stroke:#000000;stroke-width:0.8;" x="50.770373" xlink:href="#m7caff2d169" y="126.064482"/>
      </g>
     </g>
     <g id="text_8">
      <!-- −5 -->
      <g transform="translate(29.028186 129.863701)scale(0.1 -0.1)">
       <use xlink:href="#DejaVuSans-2212"/>
       <use x="83.789062" xlink:href="#DejaVuSans-35"/>
      </g>
     </g>
    </g>
    <g id="ytick_3">
     <g id="line2d_8">
      <g>
       <use style="stroke:#000000;stroke-width:0.8;" x="50.770373" xlink:href="#m7caff2d169" y="101.186705"/>
      </g>
     </g>
     <g id="text_9">
      <!-- 0 -->
      <g transform="translate(37.407873 104.985924)scale(0.1 -0.1)">
       <use xlink:href="#DejaVuSans-30"/>
      </g>
     </g>
    </g>
    <g id="ytick_4">
     <g id="line2d_9">
      <g>
       <use style="stroke:#000000;stroke-width:0.8;" x="50.770373" xlink:href="#m7caff2d169" y="76.308928"/>
      </g>
     </g>
     <g id="text_10">
      <!-- 5 -->
      <g transform="translate(37.407873 80.108147)scale(0.1 -0.1)">
       <use xlink:href="#DejaVuSans-35"/>
      </g>
     </g>
    </g>
    <g id="ytick_5">
     <g id="line2d_10">
      <g>
       <use style="stroke:#000000;stroke-width:0.8;" x="50.770373" xlink:href="#m7caff2d169" y="51.431151"/>
      </g>
     </g>
     <g id="text_11">
      <!-- 10 -->
      <g transform="translate(31.045373 55.23037)scale(0.1 -0.1)">
       <use xlink:href="#DejaVuSans-31"/>
       <use x="63.623047" xlink:href="#DejaVuSans-30"/>
      </g>
     </g>
    </g>
   </g>
   <g id="line2d_11">
    <path clip-path="url(#p0799ab0f94)" d="M 68.802629 101.186705 
L 222.612198 101.075606 
L 223.556458 101.00349 
L 224.326487 101.185185 
L 225.615554 101.518056 
L 226.184546 101.391089 
L 226.992345 100.938892 
L 227.690489 100.652873 
L 228.14617 100.704292 
L 228.628656 100.999954 
L 230.050529 102.030536 
L 230.411175 101.925306 
L 230.819339 101.550307 
L 232.308224 99.936641 
L 232.605513 100.051296 
L 232.95032 100.453619 
L 233.493727 101.495134 
L 234.218675 102.771549 
L 234.541551 102.949654 
L 234.792541 102.843187 
L 235.087394 102.440414 
L 235.522362 101.408224 
L 236.508048 98.997564 
L 236.79559 98.819617 
L 237.012465 98.936297 
L 237.279295 99.377147 
L 237.672838 100.525723 
L 238.80595 104.064001 
L 239.059377 104.210617 
L 239.253102 104.067321 
L 239.50653 103.550063 
L 239.887889 102.184063 
L 241.056334 97.673359 
L 241.298796 97.505733 
L 241.475464 97.64872 
L 241.713052 98.187956 
L 242.07248 99.646883 
L 243.344489 105.329942 
L 243.561364 105.446527 
L 243.729503 105.267894 
L 243.96831 104.623524 
L 244.336266 102.884895 
L 245.542482 96.695335 
L 245.776415 96.479702 
L 245.93237 96.613551 
L 246.149245 97.160394 
L 246.481868 98.703349 
L 247.891557 106.071189 
L 248.075535 106.10696 
L 248.244893 105.853373 
L 248.49832 104.994253 
L 248.904047 102.695731 
L 249.912882 96.770616 
L 250.195551 96.254179 
L 250.355161 96.298346 
L 250.541576 96.654751 
L 250.825464 97.764994 
L 251.316479 100.762182 
L 252.071886 105.109058 
L 252.387452 105.846989 
L 252.568994 105.865755 
L 252.744443 105.600584 
L 253.008836 104.721882 
L 253.44746 102.350255 
L 254.332018 97.579685 
L 254.643928 96.950278 
L 254.827907 96.958072 
L 255.002138 97.215217 
L 255.303083 98.182491 
L 255.731959 100.362619 
L 256.090169 102.24702 
L 256.888221 104.916984 
L 256.913807 104.871076 
L 257.064889 104.761136 
L 257.067326 104.762531 
L 257.129464 104.892776 
L 257.180637 104.717624 
L 257.613169 103.529093 
L 257.777653 102.809595 
L 257.780089 102.812328 
L 257.814205 103.196017 
L 257.831262 103.326055 
L 257.870251 102.501549 
L 258.015241 99.898509 
L 258.034735 100.645165 
L 258.092 105.877011 
L 258.137081 100.268415 
L 258.173633 96.16505 
L 258.234553 102.538679 
L 258.250392 103.125798 
L 258.313749 100.338946 
L 258.314967 100.339428 
L 258.336898 100.778214 
L 258.358829 101.184538 
L 258.401473 99.522355 
L 258.431933 98.54891 
L 258.490416 99.816969 
L 258.513566 99.461625 
L 258.541589 98.984731 
L 258.592762 100.232345 
L 258.604946 100.362507 
L 258.648808 99.197423 
L 258.785269 97.686963 
L 258.79989 97.862716 
L 258.958282 99.354929 
L 258.970466 99.241278 
L 259.136168 97.208144 
L 259.159318 97.651047 
L 259.3104 99.12771 
L 259.312836 99.133709 
L 259.331112 98.820579 
L 259.382285 97.048952 
L 259.47732 97.600112 
L 259.489504 97.470177 
L 259.524838 98.760202 
L 259.560172 100.120541 
L 259.618655 98.389765 
L 259.633275 98.608182 
L 259.668609 99.554535 
L 259.708816 97.681621 
L 259.734403 96.64304 
L 259.790449 99.560386 
L 259.912289 102.681858 
L 259.845277 98.5013 
L 259.941531 100.773751 
L 260.087739 94.75258 
L 260.099923 95.356181 
L 260.268062 113.500607 
L 260.293648 104.839796 
L 260.346039 71.987653 
L 260.394775 111.28049 
L 260.426454 131.626675 
L 260.487374 91.39178 
L 260.504431 87.019205 
L 260.56657 102.179258 
L 260.577535 101.421133 
L 260.614087 96.447176 
L 260.656731 105.218191 
L 260.684754 109.523147 
L 260.745674 101.600125 
L 260.755422 101.926971 
L 260.79441 105.047411 
L 260.834618 99.849903 
L 260.860204 97.248797 
L 260.921124 104.088293 
L 260.925998 104.177142 
L 260.96255 102.030287 
L 260.972297 101.77143 
L 261.00763 105.067613 
L 261.036872 107.727631 
L 261.094137 101.75002 
L 261.21354 99.386037 
L 261.15262 103.850443 
L 261.229379 100.239514 
L 261.390208 107.114582 
L 261.401174 106.701235 
L 261.566876 100.37123 
L 261.582715 101.203568 
L 261.636325 107.30628 
L 261.739889 106.068952 
L 261.743544 106.108059 
L 261.764257 104.672547 
L 261.812993 98.536508 
L 261.88366 103.503865 
L 261.92143 100.817353 
L 261.959201 105.40093 
L 261.989661 108.919045 
L 262.048144 101.298052 
L 262.054236 101.167536 
L 262.089569 104.066024 
L 262.099317 104.480332 
L 262.13465 99.48171 
L 262.166329 94.718856 
L 262.219938 105.184369 
L 262.341778 113.594169 
L 262.27964 101.026569 
L 262.362491 109.717545 
L 262.520883 76.252931 
L 262.539159 84.200299 
L 262.600079 156.288829 
L 262.647597 85.051929 
L 262.680493 46.12923 
L 262.741413 118.703943 
L 262.758471 126.187669 
L 262.820609 100.092936 
L 262.831575 101.398388 
L 262.868127 109.629491 
L 262.911989 94.989797 
L 262.937576 88.890584 
L 262.999714 101.484907 
L 263.008243 101.120042 
L 263.047232 96.446788 
L 263.087439 103.833085 
L 263.114244 107.854585 
L 263.176382 98.191726 
L 263.180037 98.129437 
L 263.20806 100.355308 
L 263.226336 101.47305 
L 263.271417 95.420786 
L 263.290912 93.761515 
L 263.344521 101.187452 
L 263.466361 104.263752 
L 263.40666 98.946292 
L 263.479764 103.628274 
L 263.643029 95.607591 
L 263.660087 96.526807 
L 263.713696 102.581282 
L 263.824571 102.456204 
L 263.86356 98.009093 
L 263.890364 95.909687 
L 263.947629 99.654031 
L 263.96956 98.65762 
L 263.997583 97.158106 
L 264.040227 101.522994 
L 264.067032 103.664805 
L 264.127952 99.195692 
L 264.135263 99.345883 
L 264.17547 101.601158 
L 264.212022 98.15174 
L 264.242482 95.2884 
L 264.302183 101.121791 
L 264.308275 101.214791 
L 264.343609 99.078337 
L 264.353356 98.783796 
L 264.38869 102.369198 
L 264.41915 105.665543 
L 264.475196 98.294195 
L 264.595818 93.220372 
L 264.533679 101.213463 
L 264.616531 95.745871 
L 264.774923 115.49074 
L 264.79198 111.4323 
L 264.8529 70.75792 
L 264.902855 111.201368 
L 264.934533 130.260379 
L 264.995453 92.297167 
L 265.01251 88.610596 
L 265.074649 101.832003 
L 265.085614 101.201895 
L 265.122166 97.312736 
L 265.166029 104.250741 
L 265.191615 107.026141 
L 265.253754 101.308232 
L 265.262282 101.477265 
L 265.301271 103.52695 
L 265.342697 100.265191 
L 265.368283 98.762089 
L 265.429203 102.774676 
L 265.434077 102.819663 
L 265.46941 101.682414 
L 265.480376 101.517972 
L 265.518146 103.387568 
L 265.544951 104.486262 
L 265.602216 101.601345 
L 265.720401 100.745257 
L 265.660699 102.558289 
L 265.735022 101.020648 
L 265.897069 103.624792 
L 265.909253 103.473073 
L 265.967736 101.489784 
L 266.087139 101.696008 
L 266.144404 103.362126 
L 266.251623 102.945527 
L 266.271117 102.64077 
L 266.321072 101.279988 
L 266.396613 102.208036 
L 266.429509 101.74956 
L 266.473372 102.752266 
L 266.496521 103.132185 
L 266.552568 101.822337 
L 266.674408 100.767535 
L 266.607396 102.24 
L 266.701213 101.346568 
L 266.848639 102.990264 
L 266.855949 102.938917 
L 267.028962 98.929852 
L 267.060641 101.223646 
L 267.10694 106.131444 
L 267.158113 99.415152 
L 267.187354 96.685266 
L 267.249492 102.406977 
L 267.265332 102.918836 
L 267.328688 100.908311 
L 267.335999 100.942816 
L 267.374988 101.488133 
L 267.415195 100.632549 
L 267.445655 100.100392 
L 267.506575 100.804251 
L 267.522414 100.728987 
L 267.556529 100.481083 
L 267.606484 100.954108 
L 267.619886 101.012942 
L 267.668622 100.571502 
L 267.800209 100.225795 
L 267.731979 100.594757 
L 267.813612 100.261132 
L 267.973222 100.545222 
L 267.980532 100.537716 
L 268.153545 100.236521 
L 268.190097 100.34998 
L 268.321684 100.426142 
L 268.337523 100.425277 
L 268.375294 100.32762 
L 268.398443 100.30111 
L 268.455708 100.402182 
L 268.464237 100.402151 
L 268.521502 100.398547 
L 268.549525 100.482518 
L 268.692078 100.558644 
L 268.82001 100.647543 
L 269.133139 100.892309 
L 269.287875 101.184434 
L 269.309807 101.124912 
L 269.358542 100.909241 
L 269.404842 101.203161 
L 269.445049 101.415705 
L 269.515716 101.202919 
L 269.579073 101.339008 
L 270.003076 101.625239 
L 270.361286 101.726571 
L 270.775541 101.670269 
L 271.51511 101.276228 
L 272.275392 100.909943 
L 272.850476 100.864639 
L 273.558367 101.054618 
L 274.757272 101.374867 
L 275.548013 101.314928 
L 277.413383 101.08594 
L 281.202607 101.164405 
L 283.886741 101.200335 
L 429.447744 101.186705 
L 429.447744 101.186705 
" style="fill:none;stroke:#1f77b4;stroke-linecap:square;stroke-width:1.5;"/>
   </g>
   <g id="line2d_12">
    <path clip-path="url(#p0799ab0f94)" d="M 68.802629 101.186705 
L 221.1489 101.075603 
L 225.967671 100.818974 
L 229.581445 100.408549 
L 232.838228 99.815063 
L 236.280207 98.954301 
L 245.340228 96.545618 
L 247.656406 96.263017 
L 249.816628 96.222691 
L 251.997564 96.406613 
L 254.389283 96.837766 
L 257.435282 97.629097 
L 265.557135 99.846309 
L 268.816355 100.430108 
L 272.272955 100.818167 
L 276.481308 101.055451 
L 282.865722 101.16697 
L 303.096032 101.186702 
L 429.447744 101.186705 
L 429.447744 101.186705 
" style="fill:none;stroke:#ff7f0e;stroke-linecap:square;stroke-width:1.5;"/>
   </g>
   <g id="line2d_13">
    <path clip-path="url(#p0799ab0f94)" d="M 68.802629 101.186705 
L 257.044176 101.075692 
L 258.012804 100.817198 
L 258.760901 100.386437 
L 259.484631 99.701665 
L 260.369189 98.52672 
L 261.808119 96.612219 
L 262.351525 96.261186 
L 262.795023 96.225645 
L 263.236084 96.421258 
L 263.767306 96.922663 
L 264.599473 98.065301 
L 265.947023 99.868248 
L 266.726799 100.532076 
L 267.506575 100.906299 
L 268.460582 101.105408 
L 270.090801 101.18083 
L 281.105135 101.186705 
L 429.447744 101.186705 
L 429.447744 101.186705 
" style="fill:none;stroke:#2ca02c;stroke-linecap:square;stroke-width:1.5;"/>
   </g>
   <g id="patch_3">
    <path d="M 50.770373 161.796809 
L 50.770373 40.62125 
" style="fill:none;stroke:#000000;stroke-linecap:square;stroke-linejoin:miter;stroke-width:0.8;"/>
   </g>
   <g id="patch_4">
    <path d="M 447.48 161.796809 
L 447.48 40.62125 
" style="fill:none;stroke:#000000;stroke-linecap:square;stroke-linejoin:miter;stroke-width:0.8;"/>
   </g>
   <g id="patch_5">
    <path d="M 50.770373 161.796809 
L 447.48 161.796809 
" style="fill:none;stroke:#000000;stroke-linecap:square;stroke-linejoin:miter;stroke-width:0.8;"/>
   </g>
   <g id="patch_6">
    <path d="M 50.770373 40.62125 
L 447.48 40.62125 
" style="fill:none;stroke:#000000;stroke-linecap:square;stroke-linejoin:miter;stroke-width:0.8;"/>
   </g>
   <g id="legend_1">
    <g id="patch_7">
     <path d="M 332.915938 92.655625 
L 440.48 92.655625 
Q 442.48 92.655625 442.48 90.655625 
L 442.48 47.62125 
Q 442.48 45.62125 440.48 45.62125 
L 332.915938 45.62125 
Q 330.915938 45.62125 330.915938 47.62125 
L 330.915938 90.655625 
Q 330.915938 92.655625 332.915938 92.655625 
z
" style="fill:#ffffff;opacity:0.8;stroke:#cccccc;stroke-linejoin:miter;"/>
    </g>
    <g id="line2d_14">
     <path d="M 334.915938 53.719687 
L 354.915938 53.719687 
" style="fill:none;stroke:#1f77b4;stroke-linecap:square;stroke-width:1.5;"/>
    </g>
    <g id="line2d_15"/>
    <g id="text_12">
     <!-- Combined field -->
     <defs>
      <path d="M 64.40625 67.28125 
L 64.40625 56.890625 
Q 59.421875 61.53125 53.78125 63.8125 
Q 48.140625 66.109375 41.796875 66.109375 
Q 29.296875 66.109375 22.65625 58.46875 
Q 16.015625 50.828125 16.015625 36.375 
Q 16.015625 21.96875 22.65625 14.328125 
Q 29.296875 6.6875 41.796875 6.6875 
Q 48.140625 6.6875 53.78125 8.984375 
Q 59.421875 11.28125 64.40625 15.921875 
L 64.40625 5.609375 
Q 59.234375 2.09375 53.4375 0.328125 
Q 47.65625 -1.421875 41.21875 -1.421875 
Q 24.65625 -1.421875 15.125 8.703125 
Q 5.609375 18.84375 5.609375 36.375 
Q 5.609375 53.953125 15.125 64.078125 
Q 24.65625 74.21875 41.21875 74.21875 
Q 47.75 74.21875 53.53125 72.484375 
Q 59.328125 70.75 64.40625 67.28125 
z
" id="DejaVuSans-43"/>
      <path d="M 30.609375 48.390625 
Q 23.390625 48.390625 19.1875 42.75 
Q 14.984375 37.109375 14.984375 27.296875 
Q 14.984375 17.484375 19.15625 11.84375 
Q 23.34375 6.203125 30.609375 6.203125 
Q 37.796875 6.203125 41.984375 11.859375 
Q 46.1875 17.53125 46.1875 27.296875 
Q 46.1875 37.015625 41.984375 42.703125 
Q 37.796875 48.390625 30.609375 48.390625 
z
M 30.609375 56 
Q 42.328125 56 49.015625 48.375 
Q 55.71875 40.765625 55.71875 27.296875 
Q 55.71875 13.875 49.015625 6.21875 
Q 42.328125 -1.421875 30.609375 -1.421875 
Q 18.84375 -1.421875 12.171875 6.21875 
Q 5.515625 13.875 5.515625 27.296875 
Q 5.515625 40.765625 12.171875 48.375 
Q 18.84375 56 30.609375 56 
z
" id="DejaVuSans-6f"/>
      <path d="M 52 44.1875 
Q 55.375 50.25 60.0625 53.125 
Q 64.75 56 71.09375 56 
Q 79.640625 56 84.28125 50.015625 
Q 88.921875 44.046875 88.921875 33.015625 
L 88.921875 0 
L 79.890625 0 
L 79.890625 32.71875 
Q 79.890625 40.578125 77.09375 44.375 
Q 74.3125 48.1875 68.609375 48.1875 
Q 61.625 48.1875 57.5625 43.546875 
Q 53.515625 38.921875 53.515625 30.90625 
L 53.515625 0 
L 44.484375 0 
L 44.484375 32.71875 
Q 44.484375 40.625 41.703125 44.40625 
Q 38.921875 48.1875 33.109375 48.1875 
Q 26.21875 48.1875 22.15625 43.53125 
Q 18.109375 38.875 18.109375 30.90625 
L 18.109375 0 
L 9.078125 0 
L 9.078125 54.6875 
L 18.109375 54.6875 
L 18.109375 46.1875 
Q 21.1875 51.21875 25.484375 53.609375 
Q 29.78125 56 35.6875 56 
Q 41.65625 56 45.828125 52.96875 
Q 50 49.953125 52 44.1875 
z
" id="DejaVuSans-6d"/>
      <path d="M 48.6875 27.296875 
Q 48.6875 37.203125 44.609375 42.84375 
Q 40.53125 48.484375 33.40625 48.484375 
Q 26.265625 48.484375 22.1875 42.84375 
Q 18.109375 37.203125 18.109375 27.296875 
Q 18.109375 17.390625 22.1875 11.75 
Q 26.265625 6.109375 33.40625 6.109375 
Q 40.53125 6.109375 44.609375 11.75 
Q 48.6875 17.390625 48.6875 27.296875 
z
M 18.109375 46.390625 
Q 20.953125 51.265625 25.265625 53.625 
Q 29.59375 56 35.59375 56 
Q 45.5625 56 51.78125 48.09375 
Q 58.015625 40.1875 58.015625 27.296875 
Q 58.015625 14.40625 51.78125 6.484375 
Q 45.5625 -1.421875 35.59375 -1.421875 
Q 29.59375 -1.421875 25.265625 0.953125 
Q 20.953125 3.328125 18.109375 8.203125 
L 18.109375 0 
L 9.078125 0 
L 9.078125 75.984375 
L 18.109375 75.984375 
z
" id="DejaVuSans-62"/>
      <path d="M 9.421875 54.6875 
L 18.40625 54.6875 
L 18.40625 0 
L 9.421875 0 
z
M 9.421875 75.984375 
L 18.40625 75.984375 
L 18.40625 64.59375 
L 9.421875 64.59375 
z
" id="DejaVuSans-69"/>
      <path d="M 54.890625 33.015625 
L 54.890625 0 
L 45.90625 0 
L 45.90625 32.71875 
Q 45.90625 40.484375 42.875 44.328125 
Q 39.84375 48.1875 33.796875 48.1875 
Q 26.515625 48.1875 22.3125 43.546875 
Q 18.109375 38.921875 18.109375 30.90625 
L 18.109375 0 
L 9.078125 0 
L 9.078125 54.6875 
L 18.109375 54.6875 
L 18.109375 46.1875 
Q 21.34375 51.125 25.703125 53.5625 
Q 30.078125 56 35.796875 56 
Q 45.21875 56 50.046875 50.171875 
Q 54.890625 44.34375 54.890625 33.015625 
z
" id="DejaVuSans-6e"/>
      <path d="M 56.203125 29.59375 
L 56.203125 25.203125 
L 14.890625 25.203125 
Q 15.484375 15.921875 20.484375 11.0625 
Q 25.484375 6.203125 34.421875 6.203125 
Q 39.59375 6.203125 44.453125 7.46875 
Q 49.3125 8.734375 54.109375 11.28125 
L 54.109375 2.78125 
Q 49.265625 0.734375 44.1875 -0.34375 
Q 39.109375 -1.421875 33.890625 -1.421875 
Q 20.796875 -1.421875 13.15625 6.1875 
Q 5.515625 13.8125 5.515625 26.8125 
Q 5.515625 40.234375 12.765625 48.109375 
Q 20.015625 56 32.328125 56 
Q 43.359375 56 49.78125 48.890625 
Q 56.203125 41.796875 56.203125 29.59375 
z
M 47.21875 32.234375 
Q 47.125 39.59375 43.09375 43.984375 
Q 39.0625 48.390625 32.421875 48.390625 
Q 24.90625 48.390625 20.390625 44.140625 
Q 15.875 39.890625 15.1875 32.171875 
z
" id="DejaVuSans-65"/>
      <path d="M 45.40625 46.390625 
L 45.40625 75.984375 
L 54.390625 75.984375 
L 54.390625 0 
L 45.40625 0 
L 45.40625 8.203125 
Q 42.578125 3.328125 38.25 0.953125 
Q 33.9375 -1.421875 27.875 -1.421875 
Q 17.96875 -1.421875 11.734375 6.484375 
Q 5.515625 14.40625 5.515625 27.296875 
Q 5.515625 40.1875 11.734375 48.09375 
Q 17.96875 56 27.875 56 
Q 33.9375 56 38.25 53.625 
Q 42.578125 51.265625 45.40625 46.390625 
z
M 14.796875 27.296875 
Q 14.796875 17.390625 18.875 11.75 
Q 22.953125 6.109375 30.078125 6.109375 
Q 37.203125 6.109375 41.296875 11.75 
Q 45.40625 17.390625 45.40625 27.296875 
Q 45.40625 37.203125 41.296875 42.84375 
Q 37.203125 48.484375 30.078125 48.484375 
Q 22.953125 48.484375 18.875 42.84375 
Q 14.796875 37.203125 14.796875 27.296875 
z
" id="DejaVuSans-64"/>
      <path d="M 9.421875 75.984375 
L 18.40625 75.984375 
L 18.40625 0 
L 9.421875 0 
z
" id="DejaVuSans-6c"/>
     </defs>
     <g transform="translate(362.915938 57.219687)scale(0.1 -0.1)">
      <use xlink:href="#DejaVuSans-43"/>
      <use x="69.824219" xlink:href="#DejaVuSans-6f"/>
      <use x="131.005859" xlink:href="#DejaVuSans-6d"/>
      <use x="228.417969" xlink:href="#DejaVuSans-62"/>
      <use x="291.894531" xlink:href="#DejaVuSans-69"/>
      <use x="319.677734" xlink:href="#DejaVuSans-6e"/>
      <use x="383.056641" xlink:href="#DejaVuSans-65"/>
      <use x="444.580078" xlink:href="#DejaVuSans-64"/>
      <use x="508.056641" xlink:href="#DejaVuSans-20"/>
      <use x="539.84375" xlink:href="#DejaVuSans-66"/>
      <use x="575.048828" xlink:href="#DejaVuSans-69"/>
      <use x="602.832031" xlink:href="#DejaVuSans-65"/>
      <use x="664.355469" xlink:href="#DejaVuSans-6c"/>
      <use x="692.138672" xlink:href="#DejaVuSans-64"/>
     </g>
    </g>
    <g id="line2d_16">
     <path d="M 334.915938 68.397812 
L 354.915938 68.397812 
" style="fill:none;stroke:#ff7f0e;stroke-linecap:square;stroke-width:1.5;"/>
    </g>
    <g id="line2d_17"/>
    <g id="text_13">
     <!-- IR envelope -->
     <defs>
      <path d="M 9.8125 72.90625 
L 19.671875 72.90625 
L 19.671875 0 
L 9.8125 0 
z
" id="DejaVuSans-49"/>
      <path d="M 44.390625 34.1875 
Q 47.5625 33.109375 50.5625 29.59375 
Q 53.5625 26.078125 56.59375 19.921875 
L 66.609375 0 
L 56 0 
L 46.6875 18.703125 
Q 43.0625 26.03125 39.671875 28.421875 
Q 36.28125 30.8125 30.421875 30.8125 
L 19.671875 30.8125 
L 19.671875 0 
L 9.8125 0 
L 9.8125 72.90625 
L 32.078125 72.90625 
Q 44.578125 72.90625 50.734375 67.671875 
Q 56.890625 62.453125 56.890625 51.90625 
Q 56.890625 45.015625 53.6875 40.46875 
Q 50.484375 35.9375 44.390625 34.1875 
z
M 19.671875 64.796875 
L 19.671875 38.921875 
L 32.078125 38.921875 
Q 39.203125 38.921875 42.84375 42.21875 
Q 46.484375 45.515625 46.484375 51.90625 
Q 46.484375 58.296875 42.84375 61.546875 
Q 39.203125 64.796875 32.078125 64.796875 
z
" id="DejaVuSans-52"/>
      <path d="M 2.984375 54.6875 
L 12.5 54.6875 
L 29.59375 8.796875 
L 46.6875 54.6875 
L 56.203125 54.6875 
L 35.6875 0 
L 23.484375 0 
z
" id="DejaVuSans-76"/>
      <path d="M 18.109375 8.203125 
L 18.109375 -20.796875 
L 9.078125 -20.796875 
L 9.078125 54.6875 
L 18.109375 54.6875 
L 18.109375 46.390625 
Q 20.953125 51.265625 25.265625 53.625 
Q 29.59375 56 35.59375 56 
Q 45.5625 56 51.78125 48.09375 
Q 58.015625 40.1875 58.015625 27.296875 
Q 58.015625 14.40625 51.78125 6.484375 
Q 45.5625 -1.421875 35.59375 -1.421875 
Q 29.59375 -1.421875 25.265625 0.953125 
Q 20.953125 3.328125 18.109375 8.203125 
z
M 48.6875 27.296875 
Q 48.6875 37.203125 44.609375 42.84375 
Q 40.53125 48.484375 33.40625 48.484375 
Q 26.265625 48.484375 22.1875 42.84375 
Q 18.109375 37.203125 18.109375 27.296875 
Q 18.109375 17.390625 22.1875 11.75 
Q 26.265625 6.109375 33.40625 6.109375 
Q 40.53125 6.109375 44.609375 11.75 
Q 48.6875 17.390625 48.6875 27.296875 
z
" id="DejaVuSans-70"/>
     </defs>
     <g transform="translate(362.915938 71.897812)scale(0.1 -0.1)">
      <use xlink:href="#DejaVuSans-49"/>
      <use x="29.492188" xlink:href="#DejaVuSans-52"/>
      <use x="98.974609" xlink:href="#DejaVuSans-20"/>
      <use x="130.761719" xlink:href="#DejaVuSans-65"/>
      <use x="192.285156" xlink:href="#DejaVuSans-6e"/>
      <use x="255.664062" xlink:href="#DejaVuSans-76"/>
      <use x="314.84375" xlink:href="#DejaVuSans-65"/>
      <use x="376.367188" xlink:href="#DejaVuSans-6c"/>
      <use x="404.150391" xlink:href="#DejaVuSans-6f"/>
      <use x="465.332031" xlink:href="#DejaVuSans-70"/>
      <use x="528.808594" xlink:href="#DejaVuSans-65"/>
     </g>
    </g>
    <g id="line2d_18">
     <path d="M 334.915938 83.075937 
L 354.915938 83.075937 
" style="fill:none;stroke:#2ca02c;stroke-linecap:square;stroke-width:1.5;"/>
    </g>
    <g id="line2d_19"/>
    <g id="text_14">
     <!-- XUV envelope -->
     <defs>
      <path d="M 6.296875 72.90625 
L 16.890625 72.90625 
L 35.015625 45.796875 
L 53.21875 72.90625 
L 63.8125 72.90625 
L 40.375 37.890625 
L 65.375 0 
L 54.78125 0 
L 34.28125 31 
L 13.625 0 
L 2.984375 0 
L 29 38.921875 
z
" id="DejaVuSans-58"/>
      <path d="M 8.6875 72.90625 
L 18.609375 72.90625 
L 18.609375 28.609375 
Q 18.609375 16.890625 22.84375 11.734375 
Q 27.09375 6.59375 36.625 6.59375 
Q 46.09375 6.59375 50.34375 11.734375 
Q 54.59375 16.890625 54.59375 28.609375 
L 54.59375 72.90625 
L 64.5 72.90625 
L 64.5 27.390625 
Q 64.5 13.140625 57.4375 5.859375 
Q 50.390625 -1.421875 36.625 -1.421875 
Q 22.796875 -1.421875 15.734375 5.859375 
Q 8.6875 13.140625 8.6875 27.390625 
z
" id="DejaVuSans-55"/>
      <path d="M 28.609375 0 
L 0.78125 72.90625 
L 11.078125 72.90625 
L 34.1875 11.53125 
L 57.328125 72.90625 
L 67.578125 72.90625 
L 39.796875 0 
z
" id="DejaVuSans-56"/>
     </defs>
     <g transform="translate(362.915938 86.575937)scale(0.1 -0.1)">
      <use xlink:href="#DejaVuSans-58"/>
      <use x="68.505859" xlink:href="#DejaVuSans-55"/>
      <use x="141.699219" xlink:href="#DejaVuSans-56"/>
      <use x="210.107422" xlink:href="#DejaVuSans-20"/>
      <use x="241.894531" xlink:href="#DejaVuSans-65"/>
      <use x="303.417969" xlink:href="#DejaVuSans-6e"/>
      <use x="366.796875" xlink:href="#DejaVuSans-76"/>
      <use x="425.976562" xlink:href="#DejaVuSans-65"/>
      <use x="487.5" xlink:href="#DejaVuSans-6c"/>
      <use x="515.283203" xlink:href="#DejaVuSans-6f"/>
      <use x="576.464844" xlink:href="#DejaVuSans-70"/>
      <use x="639.941406" xlink:href="#DejaVuSans-65"/>
     </g>
    </g>
   </g>
  </g>
  <g id="axes_2">
   <g id="patch_8">
    <path d="M 50.770373 301.9975 
L 447.48 301.9975 
L 447.48 180.821941 
L 50.770373 180.821941 
z
" style="fill:none;"/>
   </g>
   <g id="matplotlib.axis_3">
    <g id="xtick_6">
     <g id="line2d_20">
      <defs>
       <path d="M 0 0 
L 0 3.5 
" id="md932c72828" style="stroke:#000000;stroke-width:0.8;"/>
      </defs>
      <g>
       <use style="stroke:#000000;stroke-width:0.8;" x="50.770373" xlink:href="#md932c72828" y="301.9975"/>
      </g>
     </g>
     <g id="text_15">
      <!-- 0 -->
      <g transform="translate(47.589123 316.595937)scale(0.1 -0.1)">
       <use xlink:href="#DejaVuSans-30"/>
      </g>
     </g>
    </g>
    <g id="xtick_7">
     <g id="line2d_21">
      <g>
       <use style="stroke:#000000;stroke-width:0.8;" x="122.299069" xlink:href="#md932c72828" y="301.9975"/>
      </g>
     </g>
     <g id="text_16">
      <!-- 5000 -->
      <g transform="translate(109.574069 316.595937)scale(0.1 -0.1)">
       <use xlink:href="#DejaVuSans-35"/>
       <use x="63.623047" xlink:href="#DejaVuSans-30"/>
       <use x="127.246094" xlink:href="#DejaVuSans-30"/>
       <use x="190.869141" xlink:href="#DejaVuSans-30"/>
      </g>
     </g>
    </g>
    <g id="xtick_8">
     <g id="line2d_22">
      <g>
       <use style="stroke:#000000;stroke-width:0.8;" x="193.827765" xlink:href="#md932c72828" y="301.9975"/>
      </g>
     </g>
     <g id="text_17">
      <!-- 10000 -->
      <g transform="translate(177.921515 316.595937)scale(0.1 -0.1)">
       <use xlink:href="#DejaVuSans-31"/>
       <use x="63.623047" xlink:href="#DejaVuSans-30"/>
       <use x="127.246094" xlink:href="#DejaVuSans-30"/>
       <use x="190.869141" xlink:href="#DejaVuSans-30"/>
       <use x="254.492188" xlink:href="#DejaVuSans-30"/>
      </g>
     </g>
    </g>
    <g id="xtick_9">
     <g id="line2d_23">
      <g>
       <use style="stroke:#000000;stroke-width:0.8;" x="265.356461" xlink:href="#md932c72828" y="301.9975"/>
      </g>
     </g>
     <g id="text_18">
      <!-- 15000 -->
      <g transform="translate(249.450211 316.595937)scale(0.1 -0.1)">
       <use xlink:href="#DejaVuSans-31"/>
       <use x="63.623047" xlink:href="#DejaVuSans-35"/>
       <use x="127.246094" xlink:href="#DejaVuSans-30"/>
       <use x="190.869141" xlink:href="#DejaVuSans-30"/>
       <use x="254.492188" xlink:href="#DejaVuSans-30"/>
      </g>
     </g>
    </g>
    <g id="xtick_10">
     <g id="line2d_24">
      <g>
       <use style="stroke:#000000;stroke-width:0.8;" x="336.885157" xlink:href="#md932c72828" y="301.9975"/>
      </g>
     </g>
     <g id="text_19">
      <!-- 20000 -->
      <defs>
       <path d="M 19.1875 8.296875 
L 53.609375 8.296875 
L 53.609375 0 
L 7.328125 0 
L 7.328125 8.296875 
Q 12.9375 14.109375 22.625 23.890625 
Q 32.328125 33.6875 34.8125 36.53125 
Q 39.546875 41.84375 41.421875 45.53125 
Q 43.3125 49.21875 43.3125 52.78125 
Q 43.3125 58.59375 39.234375 62.25 
Q 35.15625 65.921875 28.609375 65.921875 
Q 23.96875 65.921875 18.8125 64.3125 
Q 13.671875 62.703125 7.8125 59.421875 
L 7.8125 69.390625 
Q 13.765625 71.78125 18.9375 73 
Q 24.125 74.21875 28.421875 74.21875 
Q 39.75 74.21875 46.484375 68.546875 
Q 53.21875 62.890625 53.21875 53.421875 
Q 53.21875 48.921875 51.53125 44.890625 
Q 49.859375 40.875 45.40625 35.40625 
Q 44.1875 33.984375 37.640625 27.21875 
Q 31.109375 20.453125 19.1875 8.296875 
z
" id="DejaVuSans-32"/>
      </defs>
      <g transform="translate(320.978907 316.595937)scale(0.1 -0.1)">
       <use xlink:href="#DejaVuSans-32"/>
       <use x="63.623047" xlink:href="#DejaVuSans-30"/>
       <use x="127.246094" xlink:href="#DejaVuSans-30"/>
       <use x="190.869141" xlink:href="#DejaVuSans-30"/>
       <use x="254.492188" xlink:href="#DejaVuSans-30"/>
      </g>
     </g>
    </g>
    <g id="xtick_11">
     <g id="line2d_25">
      <g>
       <use style="stroke:#000000;stroke-width:0.8;" x="408.413854" xlink:href="#md932c72828" y="301.9975"/>
      </g>
     </g>
     <g id="text_20">
      <!-- 25000 -->
      <g transform="translate(392.507604 316.595937)scale(0.1 -0.1)">
       <use xlink:href="#DejaVuSans-32"/>
       <use x="63.623047" xlink:href="#DejaVuSans-35"/>
       <use x="127.246094" xlink:href="#DejaVuSans-30"/>
       <use x="190.869141" xlink:href="#DejaVuSans-30"/>
       <use x="254.492188" xlink:href="#DejaVuSans-30"/>
      </g>
     </g>
    </g>
    <g id="text_21">
     <!-- $f$ [THz] -->
     <defs>
      <path d="M 47.796875 75.984375 
L 46.390625 68.5 
L 37.796875 68.5 
Q 32.90625 68.5 30.6875 66.578125 
Q 28.46875 64.65625 27.390625 59.515625 
L 26.421875 54.6875 
L 41.21875 54.6875 
L 39.890625 47.703125 
L 25.09375 47.703125 
L 15.828125 0 
L 6.78125 0 
L 16.109375 47.703125 
L 7.515625 47.703125 
L 8.796875 54.6875 
L 17.390625 54.6875 
L 18.109375 58.5 
Q 19.96875 68.171875 24.625 72.078125 
Q 29.296875 75.984375 39.3125 75.984375 
z
" id="DejaVuSans-Oblique-66"/>
      <path d="M -0.296875 72.90625 
L 61.375 72.90625 
L 61.375 64.59375 
L 35.5 64.59375 
L 35.5 0 
L 25.59375 0 
L 25.59375 64.59375 
L -0.296875 64.59375 
z
" id="DejaVuSans-54"/>
      <path d="M 9.8125 72.90625 
L 19.671875 72.90625 
L 19.671875 43.015625 
L 55.515625 43.015625 
L 55.515625 72.90625 
L 65.375 72.90625 
L 65.375 0 
L 55.515625 0 
L 55.515625 34.71875 
L 19.671875 34.71875 
L 19.671875 0 
L 9.8125 0 
z
" id="DejaVuSans-48"/>
      <path d="M 5.515625 54.6875 
L 48.1875 54.6875 
L 48.1875 46.484375 
L 14.40625 7.171875 
L 48.1875 7.171875 
L 48.1875 0 
L 4.296875 0 
L 4.296875 8.203125 
L 38.09375 47.515625 
L 5.515625 47.515625 
z
" id="DejaVuSans-7a"/>
     </defs>
     <g transform="translate(232.425187 330.274063)scale(0.1 -0.1)">
      <use transform="translate(0 0.015625)" xlink:href="#DejaVuSans-Oblique-66"/>
      <use transform="translate(35.205078 0.015625)" xlink:href="#DejaVuSans-20"/>
      <use transform="translate(66.992188 0.015625)" xlink:href="#DejaVuSans-5b"/>
      <use transform="translate(106.005859 0.015625)" xlink:href="#DejaVuSans-54"/>
      <use transform="translate(167.089844 0.015625)" xlink:href="#DejaVuSans-48"/>
      <use transform="translate(242.285156 0.015625)" xlink:href="#DejaVuSans-7a"/>
      <use transform="translate(294.775391 0.015625)" xlink:href="#DejaVuSans-5d"/>
     </g>
    </g>
   </g>
   <g id="matplotlib.axis_4">
    <g id="ytick_6">
     <g id="line2d_26">
      <g>
       <use style="stroke:#000000;stroke-width:0.8;" x="50.770373" xlink:href="#m7caff2d169" y="302.25813"/>
      </g>
     </g>
    </g>
    <g id="ytick_7">
     <g id="line2d_27">
      <g>
       <use style="stroke:#000000;stroke-width:0.8;" x="50.770373" xlink:href="#m7caff2d169" y="282.060555"/>
      </g>
     </g>
     <g id="text_22">
      <!-- $\mathdefault{10^{-262}}$ -->
      <defs>
       <path d="M 33.015625 40.375 
Q 26.375 40.375 22.484375 35.828125 
Q 18.609375 31.296875 18.609375 23.390625 
Q 18.609375 15.53125 22.484375 10.953125 
Q 26.375 6.390625 33.015625 6.390625 
Q 39.65625 6.390625 43.53125 10.953125 
Q 47.40625 15.53125 47.40625 23.390625 
Q 47.40625 31.296875 43.53125 35.828125 
Q 39.65625 40.375 33.015625 40.375 
z
M 52.59375 71.296875 
L 52.59375 62.3125 
Q 48.875 64.0625 45.09375 64.984375 
Q 41.3125 65.921875 37.59375 65.921875 
Q 27.828125 65.921875 22.671875 59.328125 
Q 17.53125 52.734375 16.796875 39.40625 
Q 19.671875 43.65625 24.015625 45.921875 
Q 28.375 48.1875 33.59375 48.1875 
Q 44.578125 48.1875 50.953125 41.515625 
Q 57.328125 34.859375 57.328125 23.390625 
Q 57.328125 12.15625 50.6875 5.359375 
Q 44.046875 -1.421875 33.015625 -1.421875 
Q 20.359375 -1.421875 13.671875 8.265625 
Q 6.984375 17.96875 6.984375 36.375 
Q 6.984375 53.65625 15.1875 63.9375 
Q 23.390625 74.21875 37.203125 74.21875 
Q 40.921875 74.21875 44.703125 73.484375 
Q 48.484375 72.75 52.59375 71.296875 
z
" id="DejaVuSans-36"/>
      </defs>
      <g transform="translate(11.370373 285.859773)scale(0.1 -0.1)">
       <use transform="translate(0 0.765625)" xlink:href="#DejaVuSans-31"/>
       <use transform="translate(63.623047 0.765625)" xlink:href="#DejaVuSans-30"/>
       <use transform="translate(128.203125 39.046875)scale(0.7)" xlink:href="#DejaVuSans-2212"/>
       <use transform="translate(186.855469 39.046875)scale(0.7)" xlink:href="#DejaVuSans-32"/>
       <use transform="translate(231.391602 39.046875)scale(0.7)" xlink:href="#DejaVuSans-36"/>
       <use transform="translate(275.927734 39.046875)scale(0.7)" xlink:href="#DejaVuSans-32"/>
      </g>
     </g>
    </g>
    <g id="ytick_8">
     <g id="line2d_28">
      <g>
       <use style="stroke:#000000;stroke-width:0.8;" x="50.770373" xlink:href="#m7caff2d169" y="261.863276"/>
      </g>
     </g>
     <g id="text_23">
      <!-- $\mathdefault{10^{-203}}$ -->
      <defs>
       <path d="M 40.578125 39.3125 
Q 47.65625 37.796875 51.625 33 
Q 55.609375 28.21875 55.609375 21.1875 
Q 55.609375 10.40625 48.1875 4.484375 
Q 40.765625 -1.421875 27.09375 -1.421875 
Q 22.515625 -1.421875 17.65625 -0.515625 
Q 12.796875 0.390625 7.625 2.203125 
L 7.625 11.71875 
Q 11.71875 9.328125 16.59375 8.109375 
Q 21.484375 6.890625 26.8125 6.890625 
Q 36.078125 6.890625 40.9375 10.546875 
Q 45.796875 14.203125 45.796875 21.1875 
Q 45.796875 27.640625 41.28125 31.265625 
Q 36.765625 34.90625 28.71875 34.90625 
L 20.21875 34.90625 
L 20.21875 43.015625 
L 29.109375 43.015625 
Q 36.375 43.015625 40.234375 45.921875 
Q 44.09375 48.828125 44.09375 54.296875 
Q 44.09375 59.90625 40.109375 62.90625 
Q 36.140625 65.921875 28.71875 65.921875 
Q 24.65625 65.921875 20.015625 65.03125 
Q 15.375 64.15625 9.8125 62.3125 
L 9.8125 71.09375 
Q 15.4375 72.65625 20.34375 73.4375 
Q 25.25 74.21875 29.59375 74.21875 
Q 40.828125 74.21875 47.359375 69.109375 
Q 53.90625 64.015625 53.90625 55.328125 
Q 53.90625 49.265625 50.4375 45.09375 
Q 46.96875 40.921875 40.578125 39.3125 
z
" id="DejaVuSans-33"/>
      </defs>
      <g transform="translate(11.370373 265.662494)scale(0.1 -0.1)">
       <use transform="translate(0 0.765625)" xlink:href="#DejaVuSans-31"/>
       <use transform="translate(63.623047 0.765625)" xlink:href="#DejaVuSans-30"/>
       <use transform="translate(128.203125 39.046875)scale(0.7)" xlink:href="#DejaVuSans-2212"/>
       <use transform="translate(186.855469 39.046875)scale(0.7)" xlink:href="#DejaVuSans-32"/>
       <use transform="translate(231.391602 39.046875)scale(0.7)" xlink:href="#DejaVuSans-30"/>
       <use transform="translate(275.927734 39.046875)scale(0.7)" xlink:href="#DejaVuSans-33"/>
      </g>
     </g>
    </g>
    <g id="ytick_9">
     <g id="line2d_29">
      <g>
       <use style="stroke:#000000;stroke-width:0.8;" x="50.770373" xlink:href="#m7caff2d169" y="241.665997"/>
      </g>
     </g>
     <g id="text_24">
      <!-- $\mathdefault{10^{-144}}$ -->
      <defs>
       <path d="M 37.796875 64.3125 
L 12.890625 25.390625 
L 37.796875 25.390625 
z
M 35.203125 72.90625 
L 47.609375 72.90625 
L 47.609375 25.390625 
L 58.015625 25.390625 
L 58.015625 17.1875 
L 47.609375 17.1875 
L 47.609375 0 
L 37.796875 0 
L 37.796875 17.1875 
L 4.890625 17.1875 
L 4.890625 26.703125 
z
" id="DejaVuSans-34"/>
      </defs>
      <g transform="translate(11.370373 245.465215)scale(0.1 -0.1)">
       <use transform="translate(0 0.684375)" xlink:href="#DejaVuSans-31"/>
       <use transform="translate(63.623047 0.684375)" xlink:href="#DejaVuSans-30"/>
       <use transform="translate(128.203125 38.965625)scale(0.7)" xlink:href="#DejaVuSans-2212"/>
       <use transform="translate(186.855469 38.965625)scale(0.7)" xlink:href="#DejaVuSans-31"/>
       <use transform="translate(231.391602 38.965625)scale(0.7)" xlink:href="#DejaVuSans-34"/>
       <use transform="translate(275.927734 38.965625)scale(0.7)" xlink:href="#DejaVuSans-34"/>
      </g>
     </g>
    </g>
    <g id="ytick_10">
     <g id="line2d_30">
      <g>
       <use style="stroke:#000000;stroke-width:0.8;" x="50.770373" xlink:href="#m7caff2d169" y="221.468718"/>
      </g>
     </g>
     <g id="text_25">
      <!-- $\mathdefault{10^{-85}}$ -->
      <defs>
       <path d="M 31.78125 34.625 
Q 24.75 34.625 20.71875 30.859375 
Q 16.703125 27.09375 16.703125 20.515625 
Q 16.703125 13.921875 20.71875 10.15625 
Q 24.75 6.390625 31.78125 6.390625 
Q 38.8125 6.390625 42.859375 10.171875 
Q 46.921875 13.96875 46.921875 20.515625 
Q 46.921875 27.09375 42.890625 30.859375 
Q 38.875 34.625 31.78125 34.625 
z
M 21.921875 38.8125 
Q 15.578125 40.375 12.03125 44.71875 
Q 8.5 49.078125 8.5 55.328125 
Q 8.5 64.0625 14.71875 69.140625 
Q 20.953125 74.21875 31.78125 74.21875 
Q 42.671875 74.21875 48.875 69.140625 
Q 55.078125 64.0625 55.078125 55.328125 
Q 55.078125 49.078125 51.53125 44.71875 
Q 48 40.375 41.703125 38.8125 
Q 48.828125 37.15625 52.796875 32.3125 
Q 56.78125 27.484375 56.78125 20.515625 
Q 56.78125 9.90625 50.3125 4.234375 
Q 43.84375 -1.421875 31.78125 -1.421875 
Q 19.734375 -1.421875 13.25 4.234375 
Q 6.78125 9.90625 6.78125 20.515625 
Q 6.78125 27.484375 10.78125 32.3125 
Q 14.796875 37.15625 21.921875 38.8125 
z
M 18.3125 54.390625 
Q 18.3125 48.734375 21.84375 45.5625 
Q 25.390625 42.390625 31.78125 42.390625 
Q 38.140625 42.390625 41.71875 45.5625 
Q 45.3125 48.734375 45.3125 54.390625 
Q 45.3125 60.0625 41.71875 63.234375 
Q 38.140625 66.40625 31.78125 66.40625 
Q 25.390625 66.40625 21.84375 63.234375 
Q 18.3125 60.0625 18.3125 54.390625 
z
" id="DejaVuSans-38"/>
      </defs>
      <g transform="translate(15.870373 225.267936)scale(0.1 -0.1)">
       <use transform="translate(0 0.765625)" xlink:href="#DejaVuSans-31"/>
       <use transform="translate(63.623047 0.765625)" xlink:href="#DejaVuSans-30"/>
       <use transform="translate(128.203125 39.046875)scale(0.7)" xlink:href="#DejaVuSans-2212"/>
       <use transform="translate(186.855469 39.046875)scale(0.7)" xlink:href="#DejaVuSans-38"/>
       <use transform="translate(231.391602 39.046875)scale(0.7)" xlink:href="#DejaVuSans-35"/>
      </g>
     </g>
    </g>
    <g id="ytick_11">
     <g id="line2d_31">
      <g>
       <use style="stroke:#000000;stroke-width:0.8;" x="50.770373" xlink:href="#m7caff2d169" y="201.271439"/>
      </g>
     </g>
     <g id="text_26">
      <!-- $\mathdefault{10^{-26}}$ -->
      <g transform="translate(15.870373 205.070657)scale(0.1 -0.1)">
       <use transform="translate(0 0.765625)" xlink:href="#DejaVuSans-31"/>
       <use transform="translate(63.623047 0.765625)" xlink:href="#DejaVuSans-30"/>
       <use transform="translate(128.203125 39.046875)scale(0.7)" xlink:href="#DejaVuSans-2212"/>
       <use transform="translate(186.855469 39.046875)scale(0.7)" xlink:href="#DejaVuSans-32"/>
       <use transform="translate(231.391602 39.046875)scale(0.7)" xlink:href="#DejaVuSans-36"/>
      </g>
     </g>
    </g>
    <g id="ytick_12">
     <g id="line2d_32">
      <g>
       <use style="stroke:#000000;stroke-width:0.8;" x="50.770373" xlink:href="#m7caff2d169" y="181.07416"/>
      </g>
     </g>
     <g id="text_27">
      <!-- $\mathdefault{10^{33}}$ -->
      <g transform="translate(21.670373 184.873378)scale(0.1 -0.1)">
       <use transform="translate(0 0.765625)" xlink:href="#DejaVuSans-31"/>
       <use transform="translate(63.623047 0.765625)" xlink:href="#DejaVuSans-30"/>
       <use transform="translate(128.203125 39.046875)scale(0.7)" xlink:href="#DejaVuSans-33"/>
       <use transform="translate(172.739258 39.046875)scale(0.7)" xlink:href="#DejaVuSans-33"/>
      </g>
     </g>
    </g>
   </g>
   <g id="line2d_33">
    <path clip-path="url(#p64f9015d58)" d="M 50.770373 204.813626 
L 50.837385 203.778287 
L 50.904397 203.84835 
L 50.971409 203.785555 
L 51.105432 203.271602 
L 51.172444 203.716343 
L 51.239456 203.347007 
L 51.306467 203.426581 
L 51.373479 203.392163 
L 51.507503 203.538602 
L 51.574514 203.203574 
L 51.641526 203.392102 
L 51.708538 203.687267 
L 51.842561 203.298745 
L 51.909573 203.330249 
L 51.976585 203.525503 
L 52.043597 203.187835 
L 52.110608 203.272257 
L 52.244632 203.248771 
L 52.311644 203.49015 
L 52.445667 203.174464 
L 52.512679 203.296165 
L 52.579691 203.215249 
L 52.713714 203.160769 
L 52.847738 203.234772 
L 54.187973 196.036197 
L 54.858091 193.806611 
L 55.394185 192.691811 
L 55.863267 192.204077 
L 56.198326 192.134391 
L 56.533385 192.29695 
L 56.935455 192.798586 
L 57.404538 193.806516 
L 57.940632 195.515825 
L 58.610749 198.488547 
L 59.548914 203.055133 
L 59.749949 203.098813 
L 59.950985 203.070398 
L 60.017996 203.169902 
L 60.15202 203.019179 
L 60.822137 202.982194 
L 62.028349 202.935212 
L 62.363408 203.013643 
L 62.765479 203.004168 
L 63.100537 203.014372 
L 64.239737 203.080691 
L 64.641808 203.190146 
L 64.775831 203.201893 
L 64.842843 203.249401 
L 64.909855 203.124399 
L 64.976867 203.28172 
L 65.043878 203.231742 
L 65.11089 203.118926 
L 65.177902 203.271684 
L 65.244914 203.182802 
L 65.445949 203.246177 
L 65.512961 203.072392 
L 65.579972 203.187694 
L 65.781008 203.251186 
L 65.84802 203.14556 
L 65.915031 203.239719 
L 66.116067 203.17133 
L 66.25009 203.253597 
L 66.518137 203.146947 
L 67.121243 203.218363 
L 67.255267 203.224663 
L 69.399643 203.008136 
L 69.600678 202.986196 
L 70.404819 202.933133 
L 70.672866 202.992259 
L 71.141949 202.94023 
L 71.409996 203.043949 
L 76.636913 203.276888 
L 76.90496 203.392229 
L 77.374042 203.452754 
L 77.575078 203.558059 
L 77.64209 203.448521 
L 77.709101 203.527525 
L 77.910137 203.604323 
L 77.977148 203.615748 
L 78.111172 203.814595 
L 78.178184 203.537737 
L 78.245195 203.671627 
L 78.379219 203.76165 
L 78.580254 203.55672 
L 79.518419 203.273259 
L 79.652442 203.262386 
L 80.121525 203.201335 
L 80.389572 203.174402 
L 80.791642 203.101505 
L 80.858654 203.232763 
L 81.059689 203.096391 
L 81.327736 203.102365 
L 81.595783 203.123304 
L 81.997854 203.103639 
L 82.466936 203.094636 
L 82.869007 203.055119 
L 83.74016 202.9965 
L 84.075219 202.983723 
L 84.87936 202.994644 
L 85.214419 202.964935 
L 85.348442 203.105959 
L 85.549477 203.006367 
L 89.503171 203.293727 
L 89.704207 203.192602 
L 89.83823 203.188185 
L 92.11663 203.21203 
L 94.931124 203.059901 
L 95.668253 203.104523 
L 95.735265 202.966487 
L 95.802277 203.031467 
L 95.869289 203.148598 
L 95.9363 203.062956 
L 96.003312 203.058196 
L 96.137336 203.21154 
L 96.338371 203.122464 
L 96.807453 203.209907 
L 97.0755 203.23836 
L 97.611594 203.370002 
L 97.745618 203.585697 
L 97.81263 203.438454 
L 97.879641 203.505088 
L 98.013665 203.531109 
L 98.080677 203.66111 
L 98.2147 203.488288 
L 98.348724 203.553996 
L 98.415736 203.765083 
L 98.482747 203.575652 
L 98.549759 203.605901 
L 98.750794 203.692325 
L 98.817806 203.631214 
L 98.884818 203.767971 
L 99.085853 203.514044 
L 99.554935 203.501238 
L 99.621947 203.442828 
L 99.688959 203.555517 
L 99.889994 203.403744 
L 100.560112 203.336299 
L 100.627124 203.229514 
L 100.694135 203.303037 
L 101.297241 203.197994 
L 102.7715 203.095186 
L 106.122088 203.189488 
L 106.1891 203.266882 
L 106.323123 203.189067 
L 108.4675 203.349096 
L 108.668535 203.384748 
L 108.802559 203.349413 
L 109.271641 203.471016 
L 109.405664 203.445097 
L 109.472676 203.585505 
L 109.539688 203.440933 
L 109.6067 203.517651 
L 109.740723 203.445912 
L 109.807735 203.61943 
L 109.874747 203.429776 
L 109.941758 203.489639 
L 110.075782 203.468659 
L 110.142794 203.681213 
L 110.209805 203.568636 
L 110.343829 203.391766 
L 110.544864 203.912224 
L 110.611876 203.519731 
L 110.678888 203.688294 
L 110.7459 203.699814 
L 110.812911 203.914149 
L 110.879923 203.606597 
L 110.946935 203.723923 
L 111.013947 203.747143 
L 111.080958 203.508417 
L 111.14797 203.689056 
L 111.214982 204.782632 
L 111.349005 203.877124 
L 111.416017 203.809495 
L 111.483029 204.014082 
L 111.617052 203.598042 
L 111.684064 203.719144 
L 111.751076 203.648533 
L 111.818088 203.459347 
L 111.8851 203.593354 
L 112.086135 203.38667 
L 112.689241 203.206966 
L 112.890276 203.199387 
L 113.359358 203.084744 
L 113.627405 203.086257 
L 113.895452 203.037181 
L 114.163499 203.036159 
L 114.56557 202.9871 
L 114.833617 202.985664 
L 115.235688 202.88944 
L 115.436723 202.773315 
L 117.045005 200.880411 
L 119.055358 198.695459 
L 120.998699 196.901176 
L 122.875028 195.465297 
L 124.684346 194.356608 
L 126.426652 193.545009 
L 128.101946 193.001516 
L 129.77724 192.690269 
L 131.452534 192.611267 
L 133.060816 192.753914 
L 134.73611 193.128783 
L 136.679451 193.586167 
L 137.483592 193.400166 
L 139.69498 192.810665 
L 141.370274 192.620205 
L 142.978557 192.655837 
L 144.653851 192.920433 
L 146.53018 193.46153 
L 147.334321 193.590021 
L 148.071451 193.441697 
L 150.617898 192.775561 
L 152.293192 192.612955 
L 153.901474 192.675336 
L 155.576768 192.967697 
L 158.391262 193.547502 
L 159.798509 193.128972 
L 161.473803 192.754015 
L 163.149097 192.609979 
L 164.757379 192.690191 
L 166.432673 193.001018 
L 169.046132 193.560322 
L 170.185332 193.229819 
L 171.927638 192.79861 
L 173.602932 192.617421 
L 175.211214 192.661956 
L 176.886508 192.9358 
L 179.902037 193.532961 
L 184.123778 192.626905 
L 185.73206 192.644681 
L 187.407354 192.890718 
L 189.216672 193.399926 
L 190.154837 193.591306 
L 190.824954 193.481088 
L 193.840484 192.724487 
L 195.515778 192.608301 
L 197.12406 192.715251 
L 198.799354 193.053663 
L 201.077754 193.579857 
L 201.948907 193.357605 
L 203.95926 192.823151 
L 205.634554 192.623376 
L 207.242836 192.650061 
L 208.91813 192.905359 
L 210.727447 193.420866 
L 211.5986 193.591306 
L 212.268718 193.481108 
L 215.284247 192.724497 
L 216.959541 192.608301 
L 218.567823 192.715241 
L 220.243118 193.053643 
L 222.521517 193.579865 
L 223.39267 193.357628 
L 225.403023 192.823164 
L 227.078317 192.62338 
L 228.686599 192.650055 
L 230.361893 192.905343 
L 232.171211 193.420843 
L 233.042364 193.591306 
L 233.712482 193.481129 
L 236.728011 192.724507 
L 238.403305 192.608301 
L 240.011587 192.715231 
L 241.686881 193.053624 
L 243.965281 193.579873 
L 244.836434 193.357651 
L 246.846787 192.823178 
L 248.522081 192.623384 
L 250.130363 192.650049 
L 251.805657 192.905427 
L 253.480951 193.39305 
L 255.156245 194.11292 
L 256.898551 195.10795 
L 258.707868 196.407126 
L 260.584198 198.040546 
L 262.527539 200.039427 
L 264.403868 202.285516 
L 265.073986 203.07985 
L 265.275021 202.97819 
L 265.811115 202.861417 
L 266.213186 202.866095 
L 266.816292 202.851693 
L 269.295727 203.155684 
L 269.563774 203.298647 
L 270.032856 203.435723 
L 271.641138 203.050194 
L 273.115397 203.064523 
L 273.316432 203.092346 
L 273.98655 203.102597 
L 274.187585 203.037176 
L 274.388621 203.041587 
L 276.465985 202.815869 
L 277.80622 202.776117 
L 280.754738 203.206066 
L 280.955773 203.271722 
L 281.089797 203.280429 
L 281.357844 203.337156 
L 281.491867 203.389493 
L 281.558879 203.477163 
L 281.625891 203.382228 
L 281.759914 203.367584 
L 281.96095 203.473025 
L 282.094973 203.38434 
L 282.698079 203.555262 
L 282.765091 203.472035 
L 282.832103 203.531279 
L 283.234173 203.384666 
L 283.301185 203.708096 
L 283.435208 203.297656 
L 283.50222 203.386975 
L 283.569232 203.302811 
L 283.703255 203.338449 
L 283.770267 203.223478 
L 283.837279 203.277904 
L 284.976479 203.091318 
L 285.847632 203.009948 
L 286.91982 202.98735 
L 287.455914 202.982089 
L 288.126032 203.020859 
L 288.662126 203.046249 
L 289.332243 203.116623 
L 289.868337 203.173762 
L 290.33742 203.184505 
L 290.605467 203.289228 
L 290.940526 203.265134 
L 292.079726 203.653978 
L 292.213749 203.850908 
L 292.280761 203.552146 
L 292.347773 203.599646 
L 292.414784 203.750397 
L 292.481796 203.67779 
L 292.816855 203.767144 
L 292.883867 203.527161 
L 292.950878 203.600289 
L 293.151914 203.536696 
L 293.419961 203.454902 
L 293.822031 203.417872 
L 293.889043 203.478044 
L 294.023067 203.270123 
L 294.090078 203.319959 
L 294.15709 203.228221 
L 294.224102 203.323763 
L 294.358125 203.186453 
L 294.425137 203.40579 
L 294.492149 203.216951 
L 294.559161 203.305231 
L 294.693184 203.190737 
L 294.827208 203.227725 
L 297.641702 202.945691 
L 297.909749 202.926171 
L 302.935631 203.171847 
L 303.069654 203.267432 
L 303.27069 203.291486 
L 303.471725 203.357758 
L 303.67276 203.432696 
L 303.940807 203.720957 
L 304.074831 203.654385 
L 304.208854 203.695648 
L 304.342878 203.96575 
L 304.476901 203.513889 
L 304.677937 203.504894 
L 305.012996 203.333072 
L 305.214031 203.31574 
L 308.430595 203.079887 
L 309.301748 203.076818 
L 309.770831 203.066533 
L 311.580148 203.044922 
L 312.183254 203.068051 
L 312.451301 203.089945 
L 313.389466 203.168485 
L 313.657513 203.246964 
L 314.126595 203.412813 
L 314.394642 203.570495 
L 314.528666 203.671974 
L 314.662689 204.201336 
L 314.729701 203.680952 
L 314.796713 203.880132 
L 314.997748 203.560419 
L 315.06476 203.42411 
L 315.131771 203.529789 
L 315.399819 203.371034 
L 315.734877 203.292637 
L 315.935913 203.25979 
L 316.069936 203.252089 
L 316.20396 203.177159 
L 316.337983 203.192067 
L 316.941089 203.124679 
L 317.34316 203.162963 
L 318.750407 203.085661 
L 319.152477 203.107312 
L 320.02363 203.092768 
L 321.899959 203.152599 
L 322.033983 203.153838 
L 322.972148 203.352134 
L 323.039159 203.446024 
L 323.106171 203.22855 
L 323.173183 203.265172 
L 323.240195 203.219953 
L 323.374218 203.438332 
L 323.575253 203.240493 
L 324.245371 203.389501 
L 324.446406 203.356389 
L 324.513418 203.546078 
L 324.58043 203.47757 
L 324.848477 203.577324 
L 325.183536 203.538984 
L 325.250547 203.898204 
L 325.317559 203.657906 
L 325.384571 203.500263 
L 325.451583 203.559143 
L 325.585606 203.531422 
L 325.652618 203.578132 
L 325.853653 203.435413 
L 325.920665 203.661775 
L 326.054689 203.373878 
L 326.1217 203.411702 
L 326.255724 203.451009 
L 326.456759 203.377417 
L 326.590783 203.48893 
L 326.85883 203.219904 
L 327.126877 203.234447 
L 331.683677 202.999907 
L 332.018735 203.038273 
L 332.487818 203.058074 
L 332.755865 203.088529 
L 333.090924 203.092154 
L 333.358971 203.131695 
L 333.962076 203.21687 
L 334.0961 203.206995 
L 334.364147 203.275301 
L 334.766218 203.392927 
L 334.900241 203.396706 
L 335.436335 203.738287 
L 335.704382 203.565595 
L 335.771394 203.681549 
L 335.838406 203.490727 
L 335.905417 203.556936 
L 335.972429 203.593687 
L 336.106453 203.48175 
L 336.240476 203.478319 
L 336.441512 203.326888 
L 337.044617 203.226487 
L 337.5137 203.151822 
L 337.781747 203.137506 
L 338.451864 203.103219 
L 338.853935 203.079058 
L 339.390029 203.063252 
L 339.859111 203.009764 
L 340.596241 202.97381 
L 340.998311 202.928536 
L 345.354076 203.210867 
L 345.89017 203.348074 
L 346.895346 203.733711 
L 346.962358 203.902303 
L 347.02937 203.83131 
L 347.297417 203.794663 
L 347.498452 203.508862 
L 347.565464 203.562713 
L 347.632476 203.888362 
L 347.766499 203.528621 
L 347.833511 203.646838 
L 347.900523 203.594835 
L 348.101558 203.460471 
L 348.235582 203.410305 
L 348.302593 203.512624 
L 348.436617 203.381522 
L 348.57064 203.493039 
L 348.838687 203.363833 
L 349.106734 203.330978 
L 349.441793 203.27571 
L 350.513981 203.189512 
L 350.84904 203.140758 
L 351.385134 203.163631 
L 351.720193 203.081268 
L 351.98824 203.07672 
L 352.859393 203.058031 
L 353.12744 203.060413 
L 353.663534 203.049529 
L 355.606875 203.104011 
L 355.874922 203.135402 
L 356.142969 203.137525 
L 358.019299 203.410874 
L 358.08631 203.515001 
L 358.153322 203.448072 
L 358.555393 203.338316 
L 358.756428 203.369328 
L 358.957463 203.325835 
L 359.359534 203.2425 
L 359.627581 203.226424 
L 360.096663 203.166633 
L 362.576098 203.144041 
L 362.777134 203.288448 
L 362.978169 203.099191 
L 363.246216 203.097267 
L 363.715298 203.186564 
L 363.849322 203.141113 
L 364.653463 203.186904 
L 364.988522 203.156284 
L 366.328757 203.144927 
L 366.596804 203.160383 
L 367.19991 203.189263 
L 367.467957 203.229879 
L 368.272098 203.331487 
L 368.540145 203.399265 
L 368.74118 203.375841 
L 369.210263 203.437796 
L 369.411298 203.377681 
L 369.746357 203.384596 
L 371.555674 203.130082 
L 371.75671 203.102498 
L 373.29798 203.087116 
L 373.432004 203.073501 
L 373.566027 203.061955 
L 373.901086 203.047403 
L 375.17431 203.118529 
L 375.442357 203.080304 
L 375.978451 203.11591 
L 376.581557 203.065199 
L 376.782592 203.079118 
L 378.524898 203.104257 
L 378.792945 203.157888 
L 379.597086 203.228071 
L 380.200192 203.293018 
L 380.602262 203.251954 
L 383.617792 203.173853 
L 385.561133 203.182034 
L 386.298262 203.131735 
L 386.633321 203.147893 
L 390.251956 203.188236 
L 391.257132 203.325208 
L 391.458168 203.443713 
L 391.860238 203.431331 
L 391.92725 203.64253 
L 391.994262 203.508826 
L 392.262309 203.66835 
L 392.396332 203.542362 
L 392.463344 203.64482 
L 392.530356 203.594992 
L 392.731391 203.422464 
L 392.798403 203.476014 
L 392.999438 203.315074 
L 394.808756 202.994387 
L 395.34485 202.993007 
L 395.880944 202.950711 
L 396.752097 202.988207 
L 397.020144 202.965565 
L 397.422214 203.006425 
L 398.092332 202.979576 
L 399.432567 202.965506 
L 400.370732 202.93542 
L 401.643955 202.967889 
L 403.587296 203.319635 
L 403.788332 203.438093 
L 404.257414 203.726545 
L 404.324426 204.493793 
L 404.391437 204.092565 
L 404.793508 203.461161 
L 404.86052 203.510409 
L 405.061555 203.403121 
L 405.26259 203.351507 
L 405.597649 203.197454 
L 407.13892 203.058174 
L 407.608002 203.026524 
L 408.144096 203.018644 
L 409.216284 202.998081 
L 415.046308 203.088514 
L 416.386543 203.494426 
L 416.587578 203.626754 
L 417.123672 203.398573 
L 417.190684 203.270515 
L 417.257696 203.325122 
L 417.525743 203.220286 
L 417.726778 203.205635 
L 421.479437 202.967101 
L 422.149554 202.925682 
L 425.902213 203.086765 
L 426.237272 203.140524 
L 426.57233 203.174788 
L 426.907389 203.235545 
L 427.71153 203.244523 
L 428.046589 203.206868 
L 428.381648 203.233654 
L 428.716707 203.161212 
L 429.118777 203.151195 
L 430.794071 203.051641 
L 431.196142 203.049088 
L 431.598213 203.014975 
L 433.00546 202.99917 
L 433.340518 202.948127 
L 437.160189 202.992248 
L 437.696283 203.084626 
L 437.96433 203.095017 
L 439.438589 203.499199 
L 439.639624 203.497057 
L 439.907671 203.635491 
L 439.974683 203.642339 
L 440.041694 203.800809 
L 440.175718 203.657177 
L 440.6448 203.668615 
L 440.711812 203.742935 
L 440.778824 203.66841 
L 440.912847 203.790072 
L 441.046871 203.578969 
L 441.247906 203.534564 
L 441.784 203.24347 
L 442.052047 203.343571 
L 442.253083 203.155106 
L 442.655153 203.117452 
L 442.9232 203.076433 
L 443.727341 203.014604 
L 444.196424 203.024953 
L 447.412988 203.186613 
L 447.412988 203.186613 
" style="fill:none;stroke:#1f77b4;stroke-linecap:square;stroke-width:1.5;"/>
   </g>
   <g id="line2d_34">
    <path clip-path="url(#p64f9015d58)" d="M 50.770373 221.565571 
L 51.842561 210.86361 
L 52.847738 202.990422 
L 53.718891 197.857754 
L 54.45602 194.740994 
L 55.059126 193.027008 
L 55.59522 192.135177 
L 55.997291 191.856481 
L 56.332349 191.879705 
L 56.667408 192.135177 
L 57.069479 192.748311 
L 57.538561 193.886323 
L 58.141667 196.018354 
L 58.811785 199.269818 
L 59.615926 204.397842 
L 60.487079 211.462808 
L 61.492255 221.565571 
L 62.564443 234.645747 
L 63.770655 252.203652 
L 65.11089 275.242597 
L 66.451125 301.9975 
L 66.46397 346.6 
L 66.46397 346.6 
" style="fill:none;stroke:#ff7f0e;stroke-linecap:square;stroke-width:1.5;"/>
   </g>
   <g id="patch_9">
    <path d="M 50.770373 301.9975 
L 50.770373 180.821941 
" style="fill:none;stroke:#000000;stroke-linecap:square;stroke-linejoin:miter;stroke-width:0.8;"/>
   </g>
   <g id="patch_10">
    <path d="M 447.48 301.9975 
L 447.48 180.821941 
" style="fill:none;stroke:#000000;stroke-linecap:square;stroke-linejoin:miter;stroke-width:0.8;"/>
   </g>
   <g id="patch_11">
    <path d="M 50.770373 301.9975 
L 447.48 301.9975 
" style="fill:none;stroke:#000000;stroke-linecap:square;stroke-linejoin:miter;stroke-width:0.8;"/>
   </g>
   <g id="patch_12">
    <path d="M 50.770373 180.821941 
L 447.48 180.821941 
" style="fill:none;stroke:#000000;stroke-linecap:square;stroke-linejoin:miter;stroke-width:0.8;"/>
   </g>
   <g id="legend_2">
    <g id="patch_13">
     <path d="M 304.706563 296.9975 
L 440.48 296.9975 
Q 442.48 296.9975 442.48 294.9975 
L 442.48 266.64125 
Q 442.48 264.64125 440.48 264.64125 
L 304.706563 264.64125 
Q 302.706563 264.64125 302.706563 266.64125 
L 302.706563 294.9975 
Q 302.706563 296.9975 304.706563 296.9975 
z
" style="fill:#ffffff;opacity:0.8;stroke:#cccccc;stroke-linejoin:miter;"/>
    </g>
    <g id="line2d_35">
     <path d="M 306.706563 272.739688 
L 326.706563 272.739688 
" style="fill:none;stroke:#1f77b4;stroke-linecap:square;stroke-width:1.5;"/>
    </g>
    <g id="line2d_36"/>
    <g id="text_28">
     <!-- Combined spectrum -->
     <defs>
      <path d="M 48.78125 52.59375 
L 48.78125 44.1875 
Q 44.96875 46.296875 41.140625 47.34375 
Q 37.3125 48.390625 33.40625 48.390625 
Q 24.65625 48.390625 19.8125 42.84375 
Q 14.984375 37.3125 14.984375 27.296875 
Q 14.984375 17.28125 19.8125 11.734375 
Q 24.65625 6.203125 33.40625 6.203125 
Q 37.3125 6.203125 41.140625 7.25 
Q 44.96875 8.296875 48.78125 10.40625 
L 48.78125 2.09375 
Q 45.015625 0.34375 40.984375 -0.53125 
Q 36.96875 -1.421875 32.421875 -1.421875 
Q 20.0625 -1.421875 12.78125 6.34375 
Q 5.515625 14.109375 5.515625 27.296875 
Q 5.515625 40.671875 12.859375 48.328125 
Q 20.21875 56 33.015625 56 
Q 37.15625 56 41.109375 55.140625 
Q 45.0625 54.296875 48.78125 52.59375 
z
" id="DejaVuSans-63"/>
      <path d="M 18.3125 70.21875 
L 18.3125 54.6875 
L 36.8125 54.6875 
L 36.8125 47.703125 
L 18.3125 47.703125 
L 18.3125 18.015625 
Q 18.3125 11.328125 20.140625 9.421875 
Q 21.96875 7.515625 27.59375 7.515625 
L 36.8125 7.515625 
L 36.8125 0 
L 27.59375 0 
Q 17.1875 0 13.234375 3.875 
Q 9.28125 7.765625 9.28125 18.015625 
L 9.28125 47.703125 
L 2.6875 47.703125 
L 2.6875 54.6875 
L 9.28125 54.6875 
L 9.28125 70.21875 
z
" id="DejaVuSans-74"/>
      <path d="M 41.109375 46.296875 
Q 39.59375 47.171875 37.8125 47.578125 
Q 36.03125 48 33.890625 48 
Q 26.265625 48 22.1875 43.046875 
Q 18.109375 38.09375 18.109375 28.8125 
L 18.109375 0 
L 9.078125 0 
L 9.078125 54.6875 
L 18.109375 54.6875 
L 18.109375 46.1875 
Q 20.953125 51.171875 25.484375 53.578125 
Q 30.03125 56 36.53125 56 
Q 37.453125 56 38.578125 55.875 
Q 39.703125 55.765625 41.0625 55.515625 
z
" id="DejaVuSans-72"/>
      <path d="M 8.5 21.578125 
L 8.5 54.6875 
L 17.484375 54.6875 
L 17.484375 21.921875 
Q 17.484375 14.15625 20.5 10.265625 
Q 23.53125 6.390625 29.59375 6.390625 
Q 36.859375 6.390625 41.078125 11.03125 
Q 45.3125 15.671875 45.3125 23.6875 
L 45.3125 54.6875 
L 54.296875 54.6875 
L 54.296875 0 
L 45.3125 0 
L 45.3125 8.40625 
Q 42.046875 3.421875 37.71875 1 
Q 33.40625 -1.421875 27.6875 -1.421875 
Q 18.265625 -1.421875 13.375 4.4375 
Q 8.5 10.296875 8.5 21.578125 
z
M 31.109375 56 
z
" id="DejaVuSans-75"/>
     </defs>
     <g transform="translate(334.706563 276.239688)scale(0.1 -0.1)">
      <use xlink:href="#DejaVuSans-43"/>
      <use x="69.824219" xlink:href="#DejaVuSans-6f"/>
      <use x="131.005859" xlink:href="#DejaVuSans-6d"/>
      <use x="228.417969" xlink:href="#DejaVuSans-62"/>
      <use x="291.894531" xlink:href="#DejaVuSans-69"/>
      <use x="319.677734" xlink:href="#DejaVuSans-6e"/>
      <use x="383.056641" xlink:href="#DejaVuSans-65"/>
      <use x="444.580078" xlink:href="#DejaVuSans-64"/>
      <use x="508.056641" xlink:href="#DejaVuSans-20"/>
      <use x="539.84375" xlink:href="#DejaVuSans-73"/>
      <use x="591.943359" xlink:href="#DejaVuSans-70"/>
      <use x="655.419922" xlink:href="#DejaVuSans-65"/>
      <use x="716.943359" xlink:href="#DejaVuSans-63"/>
      <use x="771.923828" xlink:href="#DejaVuSans-74"/>
      <use x="811.132812" xlink:href="#DejaVuSans-72"/>
      <use x="852.246094" xlink:href="#DejaVuSans-75"/>
      <use x="915.625" xlink:href="#DejaVuSans-6d"/>
     </g>
    </g>
    <g id="line2d_37">
     <path d="M 306.706563 287.417813 
L 326.706563 287.417813 
" style="fill:none;stroke:#ff7f0e;stroke-linecap:square;stroke-width:1.5;"/>
    </g>
    <g id="line2d_38"/>
    <g id="text_29">
     <!-- Analytic IR spectrum -->
     <defs>
      <path d="M 34.1875 63.1875 
L 20.796875 26.90625 
L 47.609375 26.90625 
z
M 28.609375 72.90625 
L 39.796875 72.90625 
L 67.578125 0 
L 57.328125 0 
L 50.6875 18.703125 
L 17.828125 18.703125 
L 11.1875 0 
L 0.78125 0 
z
" id="DejaVuSans-41"/>
      <path d="M 34.28125 27.484375 
Q 23.390625 27.484375 19.1875 25 
Q 14.984375 22.515625 14.984375 16.5 
Q 14.984375 11.71875 18.140625 8.90625 
Q 21.296875 6.109375 26.703125 6.109375 
Q 34.1875 6.109375 38.703125 11.40625 
Q 43.21875 16.703125 43.21875 25.484375 
L 43.21875 27.484375 
z
M 52.203125 31.203125 
L 52.203125 0 
L 43.21875 0 
L 43.21875 8.296875 
Q 40.140625 3.328125 35.546875 0.953125 
Q 30.953125 -1.421875 24.3125 -1.421875 
Q 15.921875 -1.421875 10.953125 3.296875 
Q 6 8.015625 6 15.921875 
Q 6 25.140625 12.171875 29.828125 
Q 18.359375 34.515625 30.609375 34.515625 
L 43.21875 34.515625 
L 43.21875 35.40625 
Q 43.21875 41.609375 39.140625 45 
Q 35.0625 48.390625 27.6875 48.390625 
Q 23 48.390625 18.546875 47.265625 
Q 14.109375 46.140625 10.015625 43.890625 
L 10.015625 52.203125 
Q 14.9375 54.109375 19.578125 55.046875 
Q 24.21875 56 28.609375 56 
Q 40.484375 56 46.34375 49.84375 
Q 52.203125 43.703125 52.203125 31.203125 
z
" id="DejaVuSans-61"/>
      <path d="M 32.171875 -5.078125 
Q 28.375 -14.84375 24.75 -17.8125 
Q 21.140625 -20.796875 15.09375 -20.796875 
L 7.90625 -20.796875 
L 7.90625 -13.28125 
L 13.1875 -13.28125 
Q 16.890625 -13.28125 18.9375 -11.515625 
Q 21 -9.765625 23.484375 -3.21875 
L 25.09375 0.875 
L 2.984375 54.6875 
L 12.5 54.6875 
L 29.59375 11.921875 
L 46.6875 54.6875 
L 56.203125 54.6875 
z
" id="DejaVuSans-79"/>
     </defs>
     <g transform="translate(334.706563 290.917813)scale(0.1 -0.1)">
      <use xlink:href="#DejaVuSans-41"/>
      <use x="68.408203" xlink:href="#DejaVuSans-6e"/>
      <use x="131.787109" xlink:href="#DejaVuSans-61"/>
      <use x="193.066406" xlink:href="#DejaVuSans-6c"/>
      <use x="220.849609" xlink:href="#DejaVuSans-79"/>
      <use x="280.029297" xlink:href="#DejaVuSans-74"/>
      <use x="319.238281" xlink:href="#DejaVuSans-69"/>
      <use x="347.021484" xlink:href="#DejaVuSans-63"/>
      <use x="402.001953" xlink:href="#DejaVuSans-20"/>
      <use x="433.789062" xlink:href="#DejaVuSans-49"/>
      <use x="463.28125" xlink:href="#DejaVuSans-52"/>
      <use x="532.763672" xlink:href="#DejaVuSans-20"/>
      <use x="564.550781" xlink:href="#DejaVuSans-73"/>
      <use x="616.650391" xlink:href="#DejaVuSans-70"/>
      <use x="680.126953" xlink:href="#DejaVuSans-65"/>
      <use x="741.650391" xlink:href="#DejaVuSans-63"/>
      <use x="796.630859" xlink:href="#DejaVuSans-74"/>
      <use x="835.839844" xlink:href="#DejaVuSans-72"/>
      <use x="876.953125" xlink:href="#DejaVuSans-75"/>
      <use x="940.332031" xlink:href="#DejaVuSans-6d"/>
     </g>
    </g>
   </g>
  </g>
 </g>
 <defs>
  <clipPath id="p0799ab0f94">
   <rect height="121.175559" width="396.709627" x="50.770373" y="40.62125"/>
  </clipPath>
  <clipPath id="p64f9015d58">
   <rect height="121.175559" width="396.709627" x="50.770373" y="180.821941"/>
  </clipPath>
 </defs>
</svg>
