<?xml version="1.0" encoding="utf-8" standalone="no"?>
<!DOCTYPE svg PUBLIC "-//W3C//DTD SVG 1.1//EN"
  "http://www.w3.org/Graphics/SVG/1.1/DTD/svg11.dtd">
<!-- Created with matplotlib (http://matplotlib.org/) -->
<svg height="345pt" version="1.1" viewBox="0 0 460 345" width="460pt" xmlns="http://www.w3.org/2000/svg" xmlns:xlink="http://www.w3.org/1999/xlink">
 <defs>
  <style type="text/css">
*{stroke-linecap:butt;stroke-linejoin:round;}
  </style>
 </defs>
 <g id="figure_1">
  <g id="patch_1">
   <path d="M 0 345.6 
L 460.8 345.6 
L 460.8 0 
L 0 0 
z
" style="fill:none;"/>
  </g>
  <g id="axes_1">
   <g id="patch_2">
    <path d="M 54.5825 301.9975 
L 447.48 301.9975 
L 447.48 13.32 
L 54.5825 13.32 
z
" style="fill:none;"/>
   </g>
   <g id="matplotlib.axis_1">
    <g id="xtick_1">
     <g id="line2d_1">
      <defs>
       <path d="M 0 0 
L 0 3.5 
" id="m91bc62799d" style="stroke:#000000;stroke-width:0.8;"/>
      </defs>
      <g>
       <use style="stroke:#000000;stroke-width:0.8;" x="56.76333" xlink:href="#m91bc62799d" y="301.9975"/>
      </g>
     </g>
     <g id="text_1">
      <!-- −30 -->
      <defs>
       <path d="M 10.59375 35.5 
L 73.1875 35.5 
L 73.1875 27.203125 
L 10.59375 27.203125 
z
" id="DejaVuSans-2212"/>
       <path d="M 40.578125 39.3125 
Q 47.65625 37.796875 51.625 33 
Q 55.609375 28.21875 55.609375 21.1875 
Q 55.609375 10.40625 48.1875 4.484375 
Q 40.765625 -1.421875 27.09375 -1.421875 
Q 22.515625 -1.421875 17.65625 -0.515625 
Q 12.796875 0.390625 7.625 2.203125 
L 7.625 11.71875 
Q 11.71875 9.328125 16.59375 8.109375 
Q 21.484375 6.890625 26.8125 6.890625 
Q 36.078125 6.890625 40.9375 10.546875 
Q 45.796875 14.203125 45.796875 21.1875 
Q 45.796875 27.640625 41.28125 31.265625 
Q 36.765625 34.90625 28.71875 34.90625 
L 20.21875 34.90625 
L 20.21875 43.015625 
L 29.109375 43.015625 
Q 36.375 43.015625 40.234375 45.921875 
Q 44.09375 48.828125 44.09375 54.296875 
Q 44.09375 59.90625 40.109375 62.90625 
Q 36.140625 65.921875 28.71875 65.921875 
Q 24.65625 65.921875 20.015625 65.03125 
Q 15.375 64.15625 9.8125 62.3125 
L 9.8125 71.09375 
Q 15.4375 72.65625 20.34375 73.4375 
Q 25.25 74.21875 29.59375 74.21875 
Q 40.828125 74.21875 47.359375 69.109375 
Q 53.90625 64.015625 53.90625 55.328125 
Q 53.90625 49.265625 50.4375 45.09375 
Q 46.96875 40.921875 40.578125 39.3125 
z
" id="DejaVuSans-33"/>
       <path d="M 31.78125 66.40625 
Q 24.171875 66.40625 20.328125 58.90625 
Q 16.5 51.421875 16.5 36.375 
Q 16.5 21.390625 20.328125 13.890625 
Q 24.171875 6.390625 31.78125 6.390625 
Q 39.453125 6.390625 43.28125 13.890625 
Q 47.125 21.390625 47.125 36.375 
Q 47.125 51.421875 43.28125 58.90625 
Q 39.453125 66.40625 31.78125 66.40625 
z
M 31.78125 74.21875 
Q 44.046875 74.21875 50.515625 64.515625 
Q 56.984375 54.828125 56.984375 36.375 
Q 56.984375 17.96875 50.515625 8.265625 
Q 44.046875 -1.421875 31.78125 -1.421875 
Q 19.53125 -1.421875 13.0625 8.265625 
Q 6.59375 17.96875 6.59375 36.375 
Q 6.59375 54.828125 13.0625 64.515625 
Q 19.53125 74.21875 31.78125 74.21875 
z
" id="DejaVuSans-30"/>
      </defs>
      <g transform="translate(46.210986 316.595937)scale(0.1 -0.1)">
       <use xlink:href="#DejaVuSans-2212"/>
       <use x="83.789062" xlink:href="#DejaVuSans-33"/>
       <use x="147.412109" xlink:href="#DejaVuSans-30"/>
      </g>
     </g>
    </g>
    <g id="xtick_2">
     <g id="line2d_2">
      <g>
       <use style="stroke:#000000;stroke-width:0.8;" x="107.886467" xlink:href="#m91bc62799d" y="301.9975"/>
      </g>
     </g>
     <g id="text_2">
      <!-- −20 -->
      <defs>
       <path d="M 19.1875 8.296875 
L 53.609375 8.296875 
L 53.609375 0 
L 7.328125 0 
L 7.328125 8.296875 
Q 12.9375 14.109375 22.625 23.890625 
Q 32.328125 33.6875 34.8125 36.53125 
Q 39.546875 41.84375 41.421875 45.53125 
Q 43.3125 49.21875 43.3125 52.78125 
Q 43.3125 58.59375 39.234375 62.25 
Q 35.15625 65.921875 28.609375 65.921875 
Q 23.96875 65.921875 18.8125 64.3125 
Q 13.671875 62.703125 7.8125 59.421875 
L 7.8125 69.390625 
Q 13.765625 71.78125 18.9375 73 
Q 24.125 74.21875 28.421875 74.21875 
Q 39.75 74.21875 46.484375 68.546875 
Q 53.21875 62.890625 53.21875 53.421875 
Q 53.21875 48.921875 51.53125 44.890625 
Q 49.859375 40.875 45.40625 35.40625 
Q 44.1875 33.984375 37.640625 27.21875 
Q 31.109375 20.453125 19.1875 8.296875 
z
" id="DejaVuSans-32"/>
      </defs>
      <g transform="translate(97.334123 316.595937)scale(0.1 -0.1)">
       <use xlink:href="#DejaVuSans-2212"/>
       <use x="83.789062" xlink:href="#DejaVuSans-32"/>
       <use x="147.412109" xlink:href="#DejaVuSans-30"/>
      </g>
     </g>
    </g>
    <g id="xtick_3">
     <g id="line2d_3">
      <g>
       <use style="stroke:#000000;stroke-width:0.8;" x="159.009604" xlink:href="#m91bc62799d" y="301.9975"/>
      </g>
     </g>
     <g id="text_3">
      <!-- −10 -->
      <defs>
       <path d="M 12.40625 8.296875 
L 28.515625 8.296875 
L 28.515625 63.921875 
L 10.984375 60.40625 
L 10.984375 69.390625 
L 28.421875 72.90625 
L 38.28125 72.90625 
L 38.28125 8.296875 
L 54.390625 8.296875 
L 54.390625 0 
L 12.40625 0 
z
" id="DejaVuSans-31"/>
      </defs>
      <g transform="translate(148.45726 316.595937)scale(0.1 -0.1)">
       <use xlink:href="#DejaVuSans-2212"/>
       <use x="83.789062" xlink:href="#DejaVuSans-31"/>
       <use x="147.412109" xlink:href="#DejaVuSans-30"/>
      </g>
     </g>
    </g>
    <g id="xtick_4">
     <g id="line2d_4">
      <g>
       <use style="stroke:#000000;stroke-width:0.8;" x="210.132741" xlink:href="#m91bc62799d" y="301.9975"/>
      </g>
     </g>
     <g id="text_4">
      <!-- 0 -->
      <g transform="translate(206.951491 316.595937)scale(0.1 -0.1)">
       <use xlink:href="#DejaVuSans-30"/>
      </g>
     </g>
    </g>
    <g id="xtick_5">
     <g id="line2d_5">
      <g>
       <use style="stroke:#000000;stroke-width:0.8;" x="261.255877" xlink:href="#m91bc62799d" y="301.9975"/>
      </g>
     </g>
     <g id="text_5">
      <!-- 10 -->
      <g transform="translate(254.893377 316.595937)scale(0.1 -0.1)">
       <use xlink:href="#DejaVuSans-31"/>
       <use x="63.623047" xlink:href="#DejaVuSans-30"/>
      </g>
     </g>
    </g>
    <g id="xtick_6">
     <g id="line2d_6">
      <g>
       <use style="stroke:#000000;stroke-width:0.8;" x="312.379014" xlink:href="#m91bc62799d" y="301.9975"/>
      </g>
     </g>
     <g id="text_6">
      <!-- 20 -->
      <g transform="translate(306.016514 316.595937)scale(0.1 -0.1)">
       <use xlink:href="#DejaVuSans-32"/>
       <use x="63.623047" xlink:href="#DejaVuSans-30"/>
      </g>
     </g>
    </g>
    <g id="xtick_7">
     <g id="line2d_7">
      <g>
       <use style="stroke:#000000;stroke-width:0.8;" x="363.502151" xlink:href="#m91bc62799d" y="301.9975"/>
      </g>
     </g>
     <g id="text_7">
      <!-- 30 -->
      <g transform="translate(357.139651 316.595937)scale(0.1 -0.1)">
       <use xlink:href="#DejaVuSans-33"/>
       <use x="63.623047" xlink:href="#DejaVuSans-30"/>
      </g>
     </g>
    </g>
    <g id="xtick_8">
     <g id="line2d_8">
      <g>
       <use style="stroke:#000000;stroke-width:0.8;" x="414.625288" xlink:href="#m91bc62799d" y="301.9975"/>
      </g>
     </g>
     <g id="text_8">
      <!-- 40 -->
      <defs>
       <path d="M 37.796875 64.3125 
L 12.890625 25.390625 
L 37.796875 25.390625 
z
M 35.203125 72.90625 
L 47.609375 72.90625 
L 47.609375 25.390625 
L 58.015625 25.390625 
L 58.015625 17.1875 
L 47.609375 17.1875 
L 47.609375 0 
L 37.796875 0 
L 37.796875 17.1875 
L 4.890625 17.1875 
L 4.890625 26.703125 
z
" id="DejaVuSans-34"/>
      </defs>
      <g transform="translate(408.262788 316.595937)scale(0.1 -0.1)">
       <use xlink:href="#DejaVuSans-34"/>
       <use x="63.623047" xlink:href="#DejaVuSans-30"/>
      </g>
     </g>
    </g>
    <g id="text_9">
     <!-- $t$ [fs] -->
     <defs>
      <path d="M 42.28125 54.6875 
L 40.921875 47.703125 
L 23 47.703125 
L 17.1875 18.015625 
Q 16.890625 16.359375 16.75 15.234375 
Q 16.609375 14.109375 16.609375 13.484375 
Q 16.609375 10.359375 18.484375 8.9375 
Q 20.359375 7.515625 24.515625 7.515625 
L 33.59375 7.515625 
L 32.078125 0 
L 23.484375 0 
Q 15.484375 0 11.546875 3.125 
Q 7.625 6.25 7.625 12.59375 
Q 7.625 13.71875 7.765625 15.0625 
Q 7.90625 16.40625 8.203125 18.015625 
L 14.015625 47.703125 
L 6.390625 47.703125 
L 7.8125 54.6875 
L 15.28125 54.6875 
L 18.3125 70.21875 
L 27.296875 70.21875 
L 24.3125 54.6875 
z
" id="DejaVuSans-Oblique-74"/>
      <path id="DejaVuSans-20"/>
      <path d="M 8.59375 75.984375 
L 29.296875 75.984375 
L 29.296875 69 
L 17.578125 69 
L 17.578125 -6.203125 
L 29.296875 -6.203125 
L 29.296875 -13.1875 
L 8.59375 -13.1875 
z
" id="DejaVuSans-5b"/>
      <path d="M 37.109375 75.984375 
L 37.109375 68.5 
L 28.515625 68.5 
Q 23.6875 68.5 21.796875 66.546875 
Q 19.921875 64.59375 19.921875 59.515625 
L 19.921875 54.6875 
L 34.71875 54.6875 
L 34.71875 47.703125 
L 19.921875 47.703125 
L 19.921875 0 
L 10.890625 0 
L 10.890625 47.703125 
L 2.296875 47.703125 
L 2.296875 54.6875 
L 10.890625 54.6875 
L 10.890625 58.5 
Q 10.890625 67.625 15.140625 71.796875 
Q 19.390625 75.984375 28.609375 75.984375 
z
" id="DejaVuSans-66"/>
      <path d="M 44.28125 53.078125 
L 44.28125 44.578125 
Q 40.484375 46.53125 36.375 47.5 
Q 32.28125 48.484375 27.875 48.484375 
Q 21.1875 48.484375 17.84375 46.4375 
Q 14.5 44.390625 14.5 40.28125 
Q 14.5 37.15625 16.890625 35.375 
Q 19.28125 33.59375 26.515625 31.984375 
L 29.59375 31.296875 
Q 39.15625 29.25 43.1875 25.515625 
Q 47.21875 21.78125 47.21875 15.09375 
Q 47.21875 7.46875 41.1875 3.015625 
Q 35.15625 -1.421875 24.609375 -1.421875 
Q 20.21875 -1.421875 15.453125 -0.5625 
Q 10.6875 0.296875 5.421875 2 
L 5.421875 11.28125 
Q 10.40625 8.6875 15.234375 7.390625 
Q 20.0625 6.109375 24.8125 6.109375 
Q 31.15625 6.109375 34.5625 8.28125 
Q 37.984375 10.453125 37.984375 14.40625 
Q 37.984375 18.0625 35.515625 20.015625 
Q 33.0625 21.96875 24.703125 23.78125 
L 21.578125 24.515625 
Q 13.234375 26.265625 9.515625 29.90625 
Q 5.8125 33.546875 5.8125 39.890625 
Q 5.8125 47.609375 11.28125 51.796875 
Q 16.75 56 26.8125 56 
Q 31.78125 56 36.171875 55.265625 
Q 40.578125 54.546875 44.28125 53.078125 
z
" id="DejaVuSans-73"/>
      <path d="M 30.421875 75.984375 
L 30.421875 -13.1875 
L 9.71875 -13.1875 
L 9.71875 -6.203125 
L 21.390625 -6.203125 
L 21.390625 69 
L 9.71875 69 
L 9.71875 75.984375 
z
" id="DejaVuSans-5d"/>
     </defs>
     <g transform="translate(239.18125 330.274062)scale(0.1 -0.1)">
      <use transform="translate(0 0.015625)" xlink:href="#DejaVuSans-Oblique-74"/>
      <use transform="translate(39.208984 0.015625)" xlink:href="#DejaVuSans-20"/>
      <use transform="translate(70.996094 0.015625)" xlink:href="#DejaVuSans-5b"/>
      <use transform="translate(110.009766 0.015625)" xlink:href="#DejaVuSans-66"/>
      <use transform="translate(145.214844 0.015625)" xlink:href="#DejaVuSans-73"/>
      <use transform="translate(197.314453 0.015625)" xlink:href="#DejaVuSans-5d"/>
     </g>
    </g>
   </g>
   <g id="matplotlib.axis_2">
    <g id="ytick_1">
     <g id="line2d_9">
      <defs>
       <path d="M 0 0 
L -3.5 0 
" id="m14abbbf642" style="stroke:#000000;stroke-width:0.8;"/>
      </defs>
      <g>
       <use style="stroke:#000000;stroke-width:0.8;" x="54.5825" xlink:href="#m14abbbf642" y="265.444942"/>
      </g>
     </g>
     <g id="text_10">
      <!-- −10 -->
      <g transform="translate(26.477813 269.24416)scale(0.1 -0.1)">
       <use xlink:href="#DejaVuSans-2212"/>
       <use x="83.789062" xlink:href="#DejaVuSans-31"/>
       <use x="147.412109" xlink:href="#DejaVuSans-30"/>
      </g>
     </g>
    </g>
    <g id="ytick_2">
     <g id="line2d_10">
      <g>
       <use style="stroke:#000000;stroke-width:0.8;" x="54.5825" xlink:href="#m14abbbf642" y="211.745439"/>
      </g>
     </g>
     <g id="text_11">
      <!-- −5 -->
      <defs>
       <path d="M 10.796875 72.90625 
L 49.515625 72.90625 
L 49.515625 64.59375 
L 19.828125 64.59375 
L 19.828125 46.734375 
Q 21.96875 47.46875 24.109375 47.828125 
Q 26.265625 48.1875 28.421875 48.1875 
Q 40.625 48.1875 47.75 41.5 
Q 54.890625 34.8125 54.890625 23.390625 
Q 54.890625 11.625 47.5625 5.09375 
Q 40.234375 -1.421875 26.90625 -1.421875 
Q 22.3125 -1.421875 17.546875 -0.640625 
Q 12.796875 0.140625 7.71875 1.703125 
L 7.71875 11.625 
Q 12.109375 9.234375 16.796875 8.0625 
Q 21.484375 6.890625 26.703125 6.890625 
Q 35.15625 6.890625 40.078125 11.328125 
Q 45.015625 15.765625 45.015625 23.390625 
Q 45.015625 31 40.078125 35.4375 
Q 35.15625 39.890625 26.703125 39.890625 
Q 22.75 39.890625 18.8125 39.015625 
Q 14.890625 38.140625 10.796875 36.28125 
z
" id="DejaVuSans-35"/>
      </defs>
      <g transform="translate(32.840313 215.544657)scale(0.1 -0.1)">
       <use xlink:href="#DejaVuSans-2212"/>
       <use x="83.789062" xlink:href="#DejaVuSans-35"/>
      </g>
     </g>
    </g>
    <g id="ytick_3">
     <g id="line2d_11">
      <g>
       <use style="stroke:#000000;stroke-width:0.8;" x="54.5825" xlink:href="#m14abbbf642" y="158.045936"/>
      </g>
     </g>
     <g id="text_12">
      <!-- 0 -->
      <g transform="translate(41.22 161.845154)scale(0.1 -0.1)">
       <use xlink:href="#DejaVuSans-30"/>
      </g>
     </g>
    </g>
    <g id="ytick_4">
     <g id="line2d_12">
      <g>
       <use style="stroke:#000000;stroke-width:0.8;" x="54.5825" xlink:href="#m14abbbf642" y="104.346433"/>
      </g>
     </g>
     <g id="text_13">
      <!-- 5 -->
      <g transform="translate(41.22 108.145651)scale(0.1 -0.1)">
       <use xlink:href="#DejaVuSans-35"/>
      </g>
     </g>
    </g>
    <g id="ytick_5">
     <g id="line2d_13">
      <g>
       <use style="stroke:#000000;stroke-width:0.8;" x="54.5825" xlink:href="#m14abbbf642" y="50.64693"/>
      </g>
     </g>
     <g id="text_14">
      <!-- 10 -->
      <g transform="translate(34.8575 54.446148)scale(0.1 -0.1)">
       <use xlink:href="#DejaVuSans-31"/>
       <use x="63.623047" xlink:href="#DejaVuSans-30"/>
      </g>
     </g>
    </g>
    <g id="text_15">
     <!-- $E$ [V/m] -->
     <defs>
      <path d="M 16.890625 72.90625 
L 62.984375 72.90625 
L 61.375 64.59375 
L 25.09375 64.59375 
L 20.90625 43.015625 
L 55.71875 43.015625 
L 54.109375 34.71875 
L 19.28125 34.71875 
L 14.203125 8.296875 
L 51.3125 8.296875 
L 49.703125 0 
L 2.6875 0 
z
" id="DejaVuSans-Oblique-45"/>
      <path d="M 28.609375 0 
L 0.78125 72.90625 
L 11.078125 72.90625 
L 34.1875 11.53125 
L 57.328125 72.90625 
L 67.578125 72.90625 
L 39.796875 0 
z
" id="DejaVuSans-56"/>
      <path d="M 25.390625 72.90625 
L 33.6875 72.90625 
L 8.296875 -9.28125 
L 0 -9.28125 
z
" id="DejaVuSans-2f"/>
      <path d="M 52 44.1875 
Q 55.375 50.25 60.0625 53.125 
Q 64.75 56 71.09375 56 
Q 79.640625 56 84.28125 50.015625 
Q 88.921875 44.046875 88.921875 33.015625 
L 88.921875 0 
L 79.890625 0 
L 79.890625 32.71875 
Q 79.890625 40.578125 77.09375 44.375 
Q 74.3125 48.1875 68.609375 48.1875 
Q 61.625 48.1875 57.5625 43.546875 
Q 53.515625 38.921875 53.515625 30.90625 
L 53.515625 0 
L 44.484375 0 
L 44.484375 32.71875 
Q 44.484375 40.625 41.703125 44.40625 
Q 38.921875 48.1875 33.109375 48.1875 
Q 26.21875 48.1875 22.15625 43.53125 
Q 18.109375 38.875 18.109375 30.90625 
L 18.109375 0 
L 9.078125 0 
L 9.078125 54.6875 
L 18.109375 54.6875 
L 18.109375 46.1875 
Q 21.1875 51.21875 25.484375 53.609375 
Q 29.78125 56 35.6875 56 
Q 41.65625 56 45.828125 52.96875 
Q 50 49.953125 52 44.1875 
z
" id="DejaVuSans-6d"/>
     </defs>
     <g transform="translate(20.398125 176.30875)rotate(-90)scale(0.1 -0.1)">
      <use transform="translate(0 0.015625)" xlink:href="#DejaVuSans-Oblique-45"/>
      <use transform="translate(63.183594 0.015625)" xlink:href="#DejaVuSans-20"/>
      <use transform="translate(94.970703 0.015625)" xlink:href="#DejaVuSans-5b"/>
      <use transform="translate(133.984375 0.015625)" xlink:href="#DejaVuSans-56"/>
      <use transform="translate(202.392578 0.015625)" xlink:href="#DejaVuSans-2f"/>
      <use transform="translate(236.083984 0.015625)" xlink:href="#DejaVuSans-6d"/>
      <use transform="translate(333.496094 0.015625)" xlink:href="#DejaVuSans-5d"/>
     </g>
    </g>
   </g>
   <g id="line2d_14">
    <path clip-path="url(#p3064fdb7f9)" d="M 87.323958 158.045936 
L 92.57439 157.969512 
L 100.166132 158.118277 
L 105.530864 157.794093 
L 107.540334 158.007901 
L 111.397042 158.477478 
L 112.919815 158.381901 
L 114.649065 158.035933 
L 117.654053 157.406823 
L 118.922415 157.403996 
L 120.161281 157.627987 
L 121.717238 158.156045 
L 124.062234 158.945547 
L 125.153616 159.060464 
L 126.149134 158.941599 
L 127.19627 158.585646 
L 128.58262 157.855165 
L 130.628962 156.793374 
L 131.583921 156.559875 
L 132.417206 156.581207 
L 133.243116 156.828493 
L 134.161204 157.346844 
L 135.436941 158.353969 
L 137.262056 159.765165 
L 138.121151 160.143841 
L 138.840136 160.226049 
L 139.52225 160.0792 
L 140.237547 159.688782 
L 141.070832 158.964239 
L 142.276514 157.581545 
L 143.954145 155.705546 
L 144.746872 155.148046 
L 145.388427 154.954873 
L 145.967302 155.009849 
L 146.549864 155.294408 
L 147.202481 155.876072 
L 147.998895 156.908031 
L 149.237761 158.937678 
L 150.690479 161.205883 
L 151.442648 161.989204 
L 152.028897 162.303353 
L 152.53403 162.331639 
L 153.024414 162.131479 
L 153.559044 161.658164 
L 154.193225 160.775088 
L 155.004387 159.22894 
L 156.659896 155.440155 
L 157.670161 153.465061 
L 158.341214 152.596025 
L 158.861095 152.252156 
L 159.29986 152.214739 
L 159.72019 152.406829 
L 160.188452 152.884278 
L 160.745204 153.796526 
L 161.44944 155.417697 
L 162.470767 158.40175 
L 164.277447 163.683791 
L 164.981683 165.059202 
L 165.508939 165.65197 
L 165.921894 165.814531 
L 166.286917 165.723537 
L 166.674062 165.381729 
L 167.13495 164.650718 
L 167.706451 163.286991 
L 168.447558 160.88542 
L 169.649553 156.10169 
L 171.013781 150.939054 
L 171.725391 149.052852 
L 172.248959 148.221871 
L 172.647166 147.956654 
L 172.971631 147.99031 
L 173.307157 148.266596 
L 173.709051 148.919342 
L 174.20681 150.194547 
L 174.840992 152.48858 
L 175.718522 156.594044 
L 178.081953 168.079315 
L 178.712448 169.926588 
L 179.18071 170.696304 
L 179.527297 170.897603 
L 179.811204 170.818234 
L 180.12092 170.476857 
L 180.508066 169.679299 
L 180.994763 168.116298 
L 181.621571 165.280489 
L 182.484352 160.227968 
L 184.895716 145.529242 
L 185.529898 143.226075 
L 185.979724 142.308444 
L 186.322625 142.052653 
L 186.599157 142.128326 
L 186.868316 142.464943 
L 187.200155 143.227403 
L 187.646294 144.790056 
L 188.151427 147.345599 
L 189.058454 153.461957 
L 189.700009 158.708351 
L 189.935984 160.439271 
L 190.068719 161.320625 
L 190.769269 167.09051 
L 191.676295 173.26699 
L 192.513267 176.622346 
L 192.778739 177.286716 
L 192.900413 177.22013 
L 193.003652 177.393317 
L 193.106891 177.506835 
L 193.151136 177.459235 
L 193.269123 177.347285 
L 193.313368 177.40911 
L 193.442417 177.614367 
L 193.490349 177.536403 
L 193.962298 175.925664 
L 194.131905 175.649574 
L 194.224082 175.248917 
L 194.401063 174.491722 
L 194.445308 174.511188 
L 194.507989 174.415875 
L 194.614915 173.508314 
L 194.861951 171.947876 
L 195.005748 170.113333 
L 195.112674 169.386625 
L 195.160606 169.477628 
L 195.204851 169.548234 
L 195.249096 169.409914 
L 195.385519 167.762937 
L 195.4482 167.43881 
L 195.507194 167.657846 
L 195.558813 167.832376 
L 195.603058 167.576422 
L 195.713671 164.88479 
L 195.831658 162.900725 
L 195.883278 163.104345 
L 195.916462 163.218186 
L 195.95702 162.952656 
L 196.049197 159.94382 
L 196.145062 157.113778 
L 196.192994 158.226179 
L 196.362601 168.598372 
L 196.436343 164.66982 
L 196.620698 145.995718 
L 196.687066 149.057264 
L 196.841924 159.53003 
L 196.900918 157.933434 
L 197.055776 152.174456 
L 197.11477 152.766949 
L 197.162702 153.189532 
L 197.210634 152.635941 
L 197.413425 145.97567 
L 197.524038 147.479263 
L 197.557222 147.684283 
L 197.608841 147.203586 
L 197.748951 144.806524 
L 197.811632 145.456624 
L 197.907496 146.725845 
L 197.959116 146.190572 
L 198.154532 141.965991 
L 198.257771 142.213421 
L 198.320452 141.306191 
L 198.478997 137.935213 
L 198.541678 138.558996 
L 198.648604 139.897073 
L 198.700223 139.474892 
L 198.825585 137.798617 
L 198.888265 138.306851 
L 198.98413 139.359049 
L 199.032062 138.899837 
L 199.216417 134.95529 
L 199.308595 135.722378 
L 199.345466 135.893004 
L 199.393398 135.529937 
L 199.533508 133.241146 
L 199.599876 134.089031 
L 199.739986 136.855428 
L 199.798979 136.23174 
L 199.902218 134.852152 
L 199.957525 135.359972 
L 200.064451 136.892756 
L 200.11607 136.297275 
L 200.274615 132.470739 
L 200.34467 133.536901 
L 200.451596 135.468772 
L 200.506903 134.953099 
L 200.595393 133.8111 
L 200.643325 134.460285 
L 200.816619 140.041755 
L 200.897735 138.485803 
L 200.982539 136.831614 
L 201.037845 137.562178 
L 201.148458 139.911231 
L 201.200078 138.989565 
L 201.336501 134.453774 
L 201.395494 135.897666 
L 201.546665 142.107846 
L 201.613033 141.027548 
L 201.66834 140.171448 
L 201.716272 141.149276 
L 201.885879 150.444297 
L 201.963308 147.106114 
L 202.070234 141.687658 
L 202.12554 143.252396 
L 202.228779 147.731855 
L 202.280398 145.877227 
L 202.40576 137.00421 
L 202.464753 140.479135 
L 202.626986 159.935362 
L 202.697041 155.54024 
L 202.763409 151.515074 
L 202.811341 155.142908 
L 202.955138 181.907972 
L 203.017819 169.938581 
L 203.191112 94.357652 
L 203.25748 116.791862 
L 203.434461 225.256587 
L 203.504516 204.33471 
L 203.670436 131.084011 
L 203.729429 140.120981 
L 203.862165 165.508177 
L 203.917471 161.411673 
L 203.998588 154.401913 
L 204.050207 158.150109 
L 204.216127 184.508556 
L 204.293556 178.099648 
L 204.396794 168.973935 
L 204.452101 171.501623 
L 204.551653 177.655601 
L 204.603272 175.105838 
L 204.743382 162.395107 
L 204.806063 166.098328 
L 204.953547 178.891739 
L 205.01254 176.944905 
L 205.078908 174.656409 
L 205.130528 176.429762 
L 205.285386 188.852748 
L 205.355441 185.217904 
L 205.480802 176.474508 
L 205.536109 178.211399 
L 205.63566 182.502767 
L 205.68728 180.852099 
L 205.812641 173.737987 
L 205.867948 176.126264 
L 206.026493 188.646594 
L 206.096548 186.355342 
L 206.173977 183.737291 
L 206.225597 185.339488 
L 206.350958 192.25526 
L 206.409952 189.700073 
L 206.561123 178.328134 
L 206.623804 180.655706 
L 206.723355 185.086255 
L 206.774975 183.526847 
L 206.885588 178.262535 
L 206.937207 180.345743 
L 207.095753 193.086343 
L 207.165807 189.822584 
L 207.269046 184.133402 
L 207.324353 185.775354 
L 207.41653 189.866853 
L 207.46815 187.857649 
L 207.634069 172.837412 
L 207.707811 177.019854 
L 207.81105 183.482817 
L 207.86267 181.609946 
L 207.962221 176.286608 
L 208.013841 178.644076 
L 208.161325 192.64001 
L 208.224005 188.417847 
L 208.364115 174.613227 
L 208.423109 177.276824 
L 208.493164 180.790025 
L 208.544783 178.070225 
L 208.699642 158.129193 
L 208.769696 164.551611 
L 208.895058 180.983866 
L 208.954052 177.024326 
L 209.046229 168.721574 
L 209.097848 172.868975 
L 209.230584 194.065521 
L 209.289578 185.954197 
L 209.444436 147.106869 
L 209.510804 155.648128 
L 209.584546 166.16811 
L 209.632478 159.256157 
L 209.776275 107.791502 
L 209.835269 129.625331 
L 210.008562 277.941042 
L 210.078617 235.041493 
L 210.255598 37.376458 
L 210.321966 73.179384 
L 210.491573 207.501544 
L 210.550566 191.780012 
L 210.679615 149.044989 
L 210.738608 156.19426 
L 210.819725 168.021071 
L 210.871344 162.037804 
L 211.037264 120.928305 
L 211.111006 130.768793 
L 211.217932 146.122044 
L 211.273238 142.496825 
L 211.369103 133.726984 
L 211.424409 137.722262 
L 211.564519 156.387821 
L 211.6272 151.124217 
L 211.770997 133.497461 
L 211.833678 136.315804 
L 211.903732 139.52383 
L 211.951665 137.208048 
L 212.106523 121.25047 
L 212.176578 126.143872 
L 212.301939 137.359387 
L 212.357246 135.198105 
L 212.456798 129.973169 
L 212.508417 131.999927 
L 212.633778 140.398814 
L 212.689085 137.521238 
L 212.84763 123.112308 
L 212.917685 125.752362 
L 212.995114 128.680618 
L 213.046734 126.92157 
L 213.172095 119.539838 
L 213.227402 122.010706 
L 213.38226 134.16184 
L 213.448628 131.474324 
L 213.544492 127.204429 
L 213.596112 128.752211 
L 213.703038 133.849044 
L 213.758344 131.793635 
L 213.91689 119.815699 
L 213.983258 122.69439 
L 214.093871 128.273008 
L 214.14549 126.840294 
L 214.237667 123.341435 
L 214.289287 125.201192 
L 214.455206 138.267034 
L 214.528948 134.770616 
L 214.6285 129.561047 
L 214.683807 131.201015 
L 214.783358 135.672174 
L 214.838665 133.633349 
L 214.978775 123.447529 
L 215.041456 126.625241 
L 215.185252 137.868544 
L 215.247933 135.910854 
L 215.314301 133.800193 
L 215.362233 135.691049 
L 215.524466 150.621883 
L 215.594521 145.938106 
L 215.712508 135.721203 
L 215.767814 138.120589 
L 215.871053 144.725096 
L 215.922673 141.933861 
L 216.048034 129.611007 
L 216.103341 134.052013 
L 216.265573 160.287573 
L 216.339315 154.539393 
L 216.401996 149.572583 
L 216.453615 153.995571 
L 216.597412 184.569224 
L 216.656406 172.235517 
L 216.8297 91.149053 
L 216.899755 115.892097 
L 217.076735 222.936009 
L 217.139416 205.900033 
L 217.309023 136.224912 
L 217.371703 144.899903 
L 217.504439 167.355169 
L 217.559746 164.360709 
L 217.637175 159.447576 
L 217.688794 162.371549 
L 217.862088 183.234057 
L 217.93583 178.918566 
L 218.035382 173.194644 
L 218.087001 174.839896 
L 218.197614 179.857017 
L 218.252921 178.128191 
L 218.378282 171.799047 
L 218.437276 173.815671 
L 218.603195 182.886282 
L 218.669563 181.868816 
L 218.713808 181.365744 
L 218.761741 182.223833 
L 218.935034 189.758115 
L 219.016151 187.547287 
L 219.115702 184.892946 
L 219.167322 185.709362 
L 219.285309 188.470281 
L 219.344303 187.667525 
L 219.443854 185.703277 
L 219.495474 186.493654 
L 219.676142 192.479759 
L 219.760945 191.480578 
L 219.808877 191.101316 
L 219.85681 191.591051 
L 219.99692 194.419657 
L 220.0596 193.454649 
L 220.19971 190.271186 
L 220.258704 190.935557 
L 220.36563 192.460266 
L 220.420936 191.957308 
L 220.527862 190.540264 
L 220.579481 191.088935 
L 220.730653 194.166887 
L 220.79702 193.377144 
L 220.922382 191.429081 
L 220.981376 191.802194 
L 221.047743 192.25725 
L 221.095676 191.840363 
L 221.287405 187.532735 
L 221.386957 188.536313 
L 221.431202 188.812551 
L 221.482821 188.417164 
L 221.626618 186.27882 
L 221.692986 186.876292 
L 221.777789 187.792424 
L 221.829409 187.295226 
L 222.367726 176.826522 
L 222.430406 177.359896 
L 222.504148 178.060082 
L 222.555768 177.573422 
L 222.721687 174.159586 
L 222.802803 174.900486 
L 222.843362 175.152627 
L 222.887607 174.644327 
L 223.012968 168.986584 
L 223.116207 166.441622 
L 223.167827 166.745717 
L 223.197323 166.876133 
L 223.237881 166.47546 
L 223.333746 161.955294 
L 223.429611 158.127346 
L 223.48123 159.675295 
L 223.639775 170.242539 
L 223.706143 166.746841 
L 223.905247 145.863761 
L 223.982676 149.2163 
L 224.115412 155.867394 
L 224.167031 154.70728 
L 224.447251 147.754423 
L 224.539428 145.516292 
L 224.77909 140.844986 
L 224.84177 140.486179 
L 225.310032 134.093402 
L 225.601313 130.278882 
L 225.914717 127.072095 
L 226.880737 120.780989 
L 227.06878 120.698363 
L 227.201515 120.480492 
L 227.249447 120.53542 
L 227.463299 120.69569 
L 227.55179 120.776953 
L 227.728771 121.555529 
L 228.038487 123.318574 
L 228.775907 129.976219 
L 229.712431 143.079231 
L 232.599431 189.982119 
L 233.200429 195.369832 
L 233.628133 197.531987 
L 233.926788 198.12911 
L 234.103769 198.130093 
L 234.291811 197.842517 
L 234.542534 196.986055 
L 234.892808 194.913889 
L 235.357383 190.683891 
L 235.954693 183.027363 
L 236.79904 169.036852 
L 239.269397 126.370093 
L 239.896204 119.883119 
L 240.360779 117.075101 
L 240.685244 116.214868 
L 240.884348 116.148479 
L 241.053954 116.370494 
L 241.293616 117.118928 
L 241.625455 118.980355 
L 242.067907 122.882579 
L 242.643095 130.130508 
L 243.432135 143.183989 
L 246.24908 192.528617 
L 246.831642 198.033313 
L 247.259346 200.27016 
L 247.550627 200.860727 
L 247.72392 200.846474 
L 247.904588 200.540758 
L 248.162685 199.593292 
L 248.516647 197.340903 
L 248.984909 192.766692 
L 249.600655 184.334661 
L 250.474498 168.940599 
L 252.753126 127.459052 
L 253.40943 119.902684 
L 253.899815 116.498579 
L 254.250089 115.358109 
L 254.467628 115.208785 
L 254.626174 115.371307 
L 254.851087 115.99217 
L 255.16449 117.607207 
L 255.58482 121.083888 
L 256.134198 127.675907 
L 256.878992 139.574751 
L 258.324336 167.195017 
L 259.423092 186.014775 
L 260.116267 194.437368 
L 260.628774 198.302311 
L 261.001172 199.705934 
L 261.24452 199.960511 
L 261.403066 199.84261 
L 261.61323 199.343041 
L 261.911886 197.971085 
L 262.31378 194.947564 
L 262.841035 189.111131 
L 263.548958 178.543478 
L 264.732518 156.929367 
L 266.096745 133.224324 
L 266.823104 124.180608 
L 267.361421 119.917941 
L 267.755941 118.286205 
L 268.017725 117.930077 
L 268.179958 118.002753 
L 268.379061 118.39725 
L 268.662968 119.532649 
L 269.046426 122.095756 
L 269.551559 127.133761 
L 270.226299 136.324597 
L 271.277122 154.144739 
L 272.892073 181.078492 
L 273.622119 189.676059 
L 274.160436 193.709234 
L 274.558643 195.270648 
L 274.824114 195.612268 
L 274.99372 195.53563 
L 275.200198 195.134086 
L 275.491479 194.00248 
L 275.885999 191.45865 
L 276.402193 186.526454 
L 277.095368 177.553359 
L 278.227308 159.516233 
L 279.672652 137.332376 
L 280.406385 129.27418 
L 280.952076 125.448666 
L 281.35397 123.96557 
L 281.626815 123.629549 
L 281.803796 123.70329 
L 282.017648 124.096082 
L 282.316303 125.189392 
L 282.718197 127.617411 
L 283.245453 132.311407 
L 283.957063 140.84283 
L 285.188555 158.821601 
L 286.490102 176.687816 
L 287.220148 183.880342 
L 287.762152 187.279324 
L 288.164046 188.601013 
L 288.436891 188.895272 
L 288.621246 188.817077 
L 288.842472 188.431429 
L 289.148502 187.385458 
L 289.55777 185.103102 
L 290.099774 180.682944 
L 290.837194 172.641549 
L 292.275164 153.859595 
L 293.384981 140.85226 
L 294.089217 134.976841 
L 294.616473 132.225098 
L 295.003618 131.196714 
L 295.26909 130.991154 
L 295.464506 131.099384 
L 295.707855 131.537464 
L 296.039694 132.660856 
L 296.478459 135.020674 
L 297.061021 139.502462 
L 297.87587 147.696087 
L 300.453154 174.877146 
L 301.087335 178.841176 
L 301.566659 180.612179 
L 301.916933 181.194275 
L 302.156595 181.24146 
L 302.377821 181.034042 
L 302.665415 180.412373 
L 303.05256 178.975633 
L 303.56138 176.135533 
L 304.247181 170.907062 
L 305.356999 160.442091 
L 306.8429 146.882814 
L 307.584008 142.043362 
L 308.14076 139.710531 
L 308.557402 138.78358 
L 308.856058 138.564533 
L 309.088345 138.650763 
L 309.357503 139.026134 
L 309.711465 139.952821 
L 310.17604 141.8601 
L 310.795473 145.444721 
L 311.695125 152.122167 
L 313.80046 168.113613 
L 314.501009 171.639331 
L 315.031952 173.304587 
L 315.430159 173.930607 
L 315.725127 174.042827 
L 315.983224 173.897901 
L 316.292941 173.432758 
L 316.694835 172.380689 
L 317.22209 170.310794 
L 317.937388 166.503729 
L 319.205751 158.289813 
L 320.470426 150.659741 
L 321.207846 147.464287 
L 321.764599 145.929068 
L 322.192302 145.318192 
L 322.516767 145.192664 
L 322.804361 145.322633 
L 323.1362 145.745253 
L 323.560217 146.684449 
L 324.113282 148.504661 
L 324.872825 151.851563 
L 327.866751 165.930989 
L 328.464062 167.386701 
L 328.924949 167.995719 
L 329.286285 168.149145 
L 329.607063 168.048871 
L 329.968399 167.679125 
L 330.418225 166.864966 
L 331.000787 165.303212 
L 331.811949 162.421315 
L 334.455601 152.533461 
L 335.108218 151.113518 
L 335.620725 150.47476 
L 336.03368 150.280855 
L 336.40239 150.348395 
L 336.79691 150.662138 
L 337.276233 151.35289 
L 337.895666 152.674819 
L 338.776883 155.143017 
L 341.062886 161.764427 
L 341.774497 163.071135 
L 342.334936 163.679662 
L 342.799511 163.88326 
L 343.223527 163.831542 
L 343.673354 163.540411 
L 344.207984 162.908311 
L 344.897471 161.717203 
L 345.959357 159.373332 
L 347.648049 155.69774 
L 348.429714 154.519174 
L 349.049147 153.953383 
L 349.576403 153.752799 
L 350.070474 153.799642 
L 350.594043 154.082917 
L 351.213476 154.690217 
L 352.028325 155.830307 
L 355.107055 160.466991 
L 355.796542 160.964782 
L 356.401227 161.139185 
L 356.983789 161.075605 
L 357.610596 160.773546 
L 358.366452 160.14348 
L 359.472582 158.893277 
L 361.341943 156.791864 
L 362.204724 156.16657 
L 362.93477 155.90043 
L 363.624258 155.882926 
L 364.34693 156.092678 
L 365.202338 156.587217 
L 366.514946 157.643462 
L 368.203638 158.940816 
L 369.15491 159.390734 
L 369.995569 159.547283 
L 370.832541 159.474874 
L 371.776439 159.159559 
L 373.118544 158.447507 
L 375.168572 157.381379 
L 376.245206 157.085825 
L 377.248097 157.041277 
L 378.324731 157.222674 
L 379.78851 157.718938 
L 382.218309 158.541624 
L 383.475611 158.709843 
L 384.732912 158.649322 
L 386.32574 158.331024 
L 389.437653 157.674083 
L 390.960426 157.62133 
L 392.715486 157.796985 
L 396.970401 158.314164 
L 398.972497 158.250612 
L 405.030404 157.890249 
L 414.513628 158.054088 
L 414.738542 158.045936 
L 414.738542 158.045936 
" style="fill:none;stroke:#1f77b4;stroke-linecap:square;stroke-width:1.5;"/>
   </g>
   <g id="line2d_15">
    <path clip-path="url(#p3064fdb7f9)" d="M 87.323958 157.96845 
L 105.903261 157.746238 
L 117.827346 157.390585 
L 127.041412 156.900165 
L 134.762202 156.271687 
L 141.546468 155.500164 
L 147.70024 154.579361 
L 153.415247 153.50153 
L 158.831598 152.255163 
L 164.052534 150.826348 
L 169.17023 149.19524 
L 174.269491 147.335929 
L 179.449868 145.208823 
L 184.847784 142.749059 
L 190.688152 139.838075 
L 197.512977 136.177482 
L 209.920072 129.204159 
L 217.629801 125.021346 
L 223.064588 122.319965 
L 227.680838 120.268064 
L 231.832514 118.661626 
L 235.681848 117.407339 
L 239.321017 116.452892 
L 242.812702 115.764967 
L 246.208522 115.321239 
L 249.545348 115.108688 
L 252.860052 115.120191 
L 256.185817 115.354573 
L 259.555828 115.816008 
L 263.006955 116.514501 
L 266.583443 117.467329 
L 270.340599 118.701153 
L 274.359539 120.258866 
L 278.758251 122.207372 
L 283.765334 124.675936 
L 289.95229 127.987413 
L 301.964865 134.740443 
L 310.301401 139.278781 
L 316.543663 142.427025 
L 322.129622 144.998563 
L 327.409551 147.186634 
L 332.556744 149.080116 
L 337.678127 150.727619 
L 342.869566 152.163667 
L 348.212175 153.409822 
L 353.801821 154.483669 
L 359.756489 155.398727 
L 366.227352 156.16471 
L 373.439322 156.789905 
L 381.753735 157.281177 
L 391.819521 157.644405 
L 405.04884 157.885824 
L 414.738542 157.96845 
L 414.738542 157.96845 
" style="fill:none;stroke:#ff7f0e;stroke-linecap:square;stroke-width:1.5;"/>
   </g>
   <g id="line2d_16">
    <path clip-path="url(#p3064fdb7f9)" d="M 87.323958 158.045936 
L 191.565682 157.934845 
L 194.157715 157.681767 
L 196.008639 157.283607 
L 197.564596 156.723655 
L 199.002565 155.968275 
L 200.436848 154.958502 
L 202.014927 153.563743 
L 204.315678 151.189048 
L 206.550062 148.986931 
L 207.814737 148.044634 
L 208.850813 147.537542 
L 209.779962 147.323744 
L 210.664866 147.346286 
L 211.568206 147.59552 
L 212.545288 148.103773 
L 213.684602 148.96048 
L 215.192627 150.397783 
L 219.654019 154.818019 
L 221.173105 155.912687 
L 222.633197 156.693565 
L 224.15597 157.254358 
L 225.874159 157.64417 
L 228.023739 157.891899 
L 231.261014 158.017084 
L 239.922014 158.045852 
L 414.738542 158.045936 
L 414.738542 158.045936 
" style="fill:none;stroke:#2ca02c;stroke-linecap:square;stroke-width:1.5;"/>
   </g>
   <g id="patch_3">
    <path d="M 54.5825 301.9975 
L 54.5825 13.32 
" style="fill:none;stroke:#000000;stroke-linecap:square;stroke-linejoin:miter;stroke-width:0.8;"/>
   </g>
   <g id="patch_4">
    <path d="M 447.48 301.9975 
L 447.48 13.32 
" style="fill:none;stroke:#000000;stroke-linecap:square;stroke-linejoin:miter;stroke-width:0.8;"/>
   </g>
   <g id="patch_5">
    <path d="M 54.5825 301.9975 
L 447.48 301.9975 
" style="fill:none;stroke:#000000;stroke-linecap:square;stroke-linejoin:miter;stroke-width:0.8;"/>
   </g>
   <g id="patch_6">
    <path d="M 54.5825 13.32 
L 447.48 13.32 
" style="fill:none;stroke:#000000;stroke-linecap:square;stroke-linejoin:miter;stroke-width:0.8;"/>
   </g>
   <g id="legend_1">
    <g id="patch_7">
     <path d="M 332.915938 65.354375 
L 440.48 65.354375 
Q 442.48 65.354375 442.48 63.354375 
L 442.48 20.32 
Q 442.48 18.32 440.48 18.32 
L 332.915938 18.32 
Q 330.915938 18.32 330.915938 20.32 
L 330.915938 63.354375 
Q 330.915938 65.354375 332.915938 65.354375 
z
" style="fill:#ffffff;opacity:0.8;stroke:#cccccc;stroke-linejoin:miter;"/>
    </g>
    <g id="line2d_17">
     <path d="M 334.915938 26.418437 
L 354.915938 26.418437 
" style="fill:none;stroke:#1f77b4;stroke-linecap:square;stroke-width:1.5;"/>
    </g>
    <g id="line2d_18"/>
    <g id="text_16">
     <!-- Combined field -->
     <defs>
      <path d="M 64.40625 67.28125 
L 64.40625 56.890625 
Q 59.421875 61.53125 53.78125 63.8125 
Q 48.140625 66.109375 41.796875 66.109375 
Q 29.296875 66.109375 22.65625 58.46875 
Q 16.015625 50.828125 16.015625 36.375 
Q 16.015625 21.96875 22.65625 14.328125 
Q 29.296875 6.6875 41.796875 6.6875 
Q 48.140625 6.6875 53.78125 8.984375 
Q 59.421875 11.28125 64.40625 15.921875 
L 64.40625 5.609375 
Q 59.234375 2.09375 53.4375 0.328125 
Q 47.65625 -1.421875 41.21875 -1.421875 
Q 24.65625 -1.421875 15.125 8.703125 
Q 5.609375 18.84375 5.609375 36.375 
Q 5.609375 53.953125 15.125 64.078125 
Q 24.65625 74.21875 41.21875 74.21875 
Q 47.75 74.21875 53.53125 72.484375 
Q 59.328125 70.75 64.40625 67.28125 
z
" id="DejaVuSans-43"/>
      <path d="M 30.609375 48.390625 
Q 23.390625 48.390625 19.1875 42.75 
Q 14.984375 37.109375 14.984375 27.296875 
Q 14.984375 17.484375 19.15625 11.84375 
Q 23.34375 6.203125 30.609375 6.203125 
Q 37.796875 6.203125 41.984375 11.859375 
Q 46.1875 17.53125 46.1875 27.296875 
Q 46.1875 37.015625 41.984375 42.703125 
Q 37.796875 48.390625 30.609375 48.390625 
z
M 30.609375 56 
Q 42.328125 56 49.015625 48.375 
Q 55.71875 40.765625 55.71875 27.296875 
Q 55.71875 13.875 49.015625 6.21875 
Q 42.328125 -1.421875 30.609375 -1.421875 
Q 18.84375 -1.421875 12.171875 6.21875 
Q 5.515625 13.875 5.515625 27.296875 
Q 5.515625 40.765625 12.171875 48.375 
Q 18.84375 56 30.609375 56 
z
" id="DejaVuSans-6f"/>
      <path d="M 48.6875 27.296875 
Q 48.6875 37.203125 44.609375 42.84375 
Q 40.53125 48.484375 33.40625 48.484375 
Q 26.265625 48.484375 22.1875 42.84375 
Q 18.109375 37.203125 18.109375 27.296875 
Q 18.109375 17.390625 22.1875 11.75 
Q 26.265625 6.109375 33.40625 6.109375 
Q 40.53125 6.109375 44.609375 11.75 
Q 48.6875 17.390625 48.6875 27.296875 
z
M 18.109375 46.390625 
Q 20.953125 51.265625 25.265625 53.625 
Q 29.59375 56 35.59375 56 
Q 45.5625 56 51.78125 48.09375 
Q 58.015625 40.1875 58.015625 27.296875 
Q 58.015625 14.40625 51.78125 6.484375 
Q 45.5625 -1.421875 35.59375 -1.421875 
Q 29.59375 -1.421875 25.265625 0.953125 
Q 20.953125 3.328125 18.109375 8.203125 
L 18.109375 0 
L 9.078125 0 
L 9.078125 75.984375 
L 18.109375 75.984375 
z
" id="DejaVuSans-62"/>
      <path d="M 9.421875 54.6875 
L 18.40625 54.6875 
L 18.40625 0 
L 9.421875 0 
z
M 9.421875 75.984375 
L 18.40625 75.984375 
L 18.40625 64.59375 
L 9.421875 64.59375 
z
" id="DejaVuSans-69"/>
      <path d="M 54.890625 33.015625 
L 54.890625 0 
L 45.90625 0 
L 45.90625 32.71875 
Q 45.90625 40.484375 42.875 44.328125 
Q 39.84375 48.1875 33.796875 48.1875 
Q 26.515625 48.1875 22.3125 43.546875 
Q 18.109375 38.921875 18.109375 30.90625 
L 18.109375 0 
L 9.078125 0 
L 9.078125 54.6875 
L 18.109375 54.6875 
L 18.109375 46.1875 
Q 21.34375 51.125 25.703125 53.5625 
Q 30.078125 56 35.796875 56 
Q 45.21875 56 50.046875 50.171875 
Q 54.890625 44.34375 54.890625 33.015625 
z
" id="DejaVuSans-6e"/>
      <path d="M 56.203125 29.59375 
L 56.203125 25.203125 
L 14.890625 25.203125 
Q 15.484375 15.921875 20.484375 11.0625 
Q 25.484375 6.203125 34.421875 6.203125 
Q 39.59375 6.203125 44.453125 7.46875 
Q 49.3125 8.734375 54.109375 11.28125 
L 54.109375 2.78125 
Q 49.265625 0.734375 44.1875 -0.34375 
Q 39.109375 -1.421875 33.890625 -1.421875 
Q 20.796875 -1.421875 13.15625 6.1875 
Q 5.515625 13.8125 5.515625 26.8125 
Q 5.515625 40.234375 12.765625 48.109375 
Q 20.015625 56 32.328125 56 
Q 43.359375 56 49.78125 48.890625 
Q 56.203125 41.796875 56.203125 29.59375 
z
M 47.21875 32.234375 
Q 47.125 39.59375 43.09375 43.984375 
Q 39.0625 48.390625 32.421875 48.390625 
Q 24.90625 48.390625 20.390625 44.140625 
Q 15.875 39.890625 15.1875 32.171875 
z
" id="DejaVuSans-65"/>
      <path d="M 45.40625 46.390625 
L 45.40625 75.984375 
L 54.390625 75.984375 
L 54.390625 0 
L 45.40625 0 
L 45.40625 8.203125 
Q 42.578125 3.328125 38.25 0.953125 
Q 33.9375 -1.421875 27.875 -1.421875 
Q 17.96875 -1.421875 11.734375 6.484375 
Q 5.515625 14.40625 5.515625 27.296875 
Q 5.515625 40.1875 11.734375 48.09375 
Q 17.96875 56 27.875 56 
Q 33.9375 56 38.25 53.625 
Q 42.578125 51.265625 45.40625 46.390625 
z
M 14.796875 27.296875 
Q 14.796875 17.390625 18.875 11.75 
Q 22.953125 6.109375 30.078125 6.109375 
Q 37.203125 6.109375 41.296875 11.75 
Q 45.40625 17.390625 45.40625 27.296875 
Q 45.40625 37.203125 41.296875 42.84375 
Q 37.203125 48.484375 30.078125 48.484375 
Q 22.953125 48.484375 18.875 42.84375 
Q 14.796875 37.203125 14.796875 27.296875 
z
" id="DejaVuSans-64"/>
      <path d="M 9.421875 75.984375 
L 18.40625 75.984375 
L 18.40625 0 
L 9.421875 0 
z
" id="DejaVuSans-6c"/>
     </defs>
     <g transform="translate(362.915938 29.918437)scale(0.1 -0.1)">
      <use xlink:href="#DejaVuSans-43"/>
      <use x="69.824219" xlink:href="#DejaVuSans-6f"/>
      <use x="131.005859" xlink:href="#DejaVuSans-6d"/>
      <use x="228.417969" xlink:href="#DejaVuSans-62"/>
      <use x="291.894531" xlink:href="#DejaVuSans-69"/>
      <use x="319.677734" xlink:href="#DejaVuSans-6e"/>
      <use x="383.056641" xlink:href="#DejaVuSans-65"/>
      <use x="444.580078" xlink:href="#DejaVuSans-64"/>
      <use x="508.056641" xlink:href="#DejaVuSans-20"/>
      <use x="539.84375" xlink:href="#DejaVuSans-66"/>
      <use x="575.048828" xlink:href="#DejaVuSans-69"/>
      <use x="602.832031" xlink:href="#DejaVuSans-65"/>
      <use x="664.355469" xlink:href="#DejaVuSans-6c"/>
      <use x="692.138672" xlink:href="#DejaVuSans-64"/>
     </g>
    </g>
    <g id="line2d_19">
     <path d="M 334.915938 41.096563 
L 354.915938 41.096563 
" style="fill:none;stroke:#ff7f0e;stroke-linecap:square;stroke-width:1.5;"/>
    </g>
    <g id="line2d_20"/>
    <g id="text_17">
     <!-- IR envelope -->
     <defs>
      <path d="M 9.8125 72.90625 
L 19.671875 72.90625 
L 19.671875 0 
L 9.8125 0 
z
" id="DejaVuSans-49"/>
      <path d="M 44.390625 34.1875 
Q 47.5625 33.109375 50.5625 29.59375 
Q 53.5625 26.078125 56.59375 19.921875 
L 66.609375 0 
L 56 0 
L 46.6875 18.703125 
Q 43.0625 26.03125 39.671875 28.421875 
Q 36.28125 30.8125 30.421875 30.8125 
L 19.671875 30.8125 
L 19.671875 0 
L 9.8125 0 
L 9.8125 72.90625 
L 32.078125 72.90625 
Q 44.578125 72.90625 50.734375 67.671875 
Q 56.890625 62.453125 56.890625 51.90625 
Q 56.890625 45.015625 53.6875 40.46875 
Q 50.484375 35.9375 44.390625 34.1875 
z
M 19.671875 64.796875 
L 19.671875 38.921875 
L 32.078125 38.921875 
Q 39.203125 38.921875 42.84375 42.21875 
Q 46.484375 45.515625 46.484375 51.90625 
Q 46.484375 58.296875 42.84375 61.546875 
Q 39.203125 64.796875 32.078125 64.796875 
z
" id="DejaVuSans-52"/>
      <path d="M 2.984375 54.6875 
L 12.5 54.6875 
L 29.59375 8.796875 
L 46.6875 54.6875 
L 56.203125 54.6875 
L 35.6875 0 
L 23.484375 0 
z
" id="DejaVuSans-76"/>
      <path d="M 18.109375 8.203125 
L 18.109375 -20.796875 
L 9.078125 -20.796875 
L 9.078125 54.6875 
L 18.109375 54.6875 
L 18.109375 46.390625 
Q 20.953125 51.265625 25.265625 53.625 
Q 29.59375 56 35.59375 56 
Q 45.5625 56 51.78125 48.09375 
Q 58.015625 40.1875 58.015625 27.296875 
Q 58.015625 14.40625 51.78125 6.484375 
Q 45.5625 -1.421875 35.59375 -1.421875 
Q 29.59375 -1.421875 25.265625 0.953125 
Q 20.953125 3.328125 18.109375 8.203125 
z
M 48.6875 27.296875 
Q 48.6875 37.203125 44.609375 42.84375 
Q 40.53125 48.484375 33.40625 48.484375 
Q 26.265625 48.484375 22.1875 42.84375 
Q 18.109375 37.203125 18.109375 27.296875 
Q 18.109375 17.390625 22.1875 11.75 
Q 26.265625 6.109375 33.40625 6.109375 
Q 40.53125 6.109375 44.609375 11.75 
Q 48.6875 17.390625 48.6875 27.296875 
z
" id="DejaVuSans-70"/>
     </defs>
     <g transform="translate(362.915938 44.596563)scale(0.1 -0.1)">
      <use xlink:href="#DejaVuSans-49"/>
      <use x="29.492188" xlink:href="#DejaVuSans-52"/>
      <use x="98.974609" xlink:href="#DejaVuSans-20"/>
      <use x="130.761719" xlink:href="#DejaVuSans-65"/>
      <use x="192.285156" xlink:href="#DejaVuSans-6e"/>
      <use x="255.664062" xlink:href="#DejaVuSans-76"/>
      <use x="314.84375" xlink:href="#DejaVuSans-65"/>
      <use x="376.367188" xlink:href="#DejaVuSans-6c"/>
      <use x="404.150391" xlink:href="#DejaVuSans-6f"/>
      <use x="465.332031" xlink:href="#DejaVuSans-70"/>
      <use x="528.808594" xlink:href="#DejaVuSans-65"/>
     </g>
    </g>
    <g id="line2d_21">
     <path d="M 334.915938 55.774687 
L 354.915938 55.774687 
" style="fill:none;stroke:#2ca02c;stroke-linecap:square;stroke-width:1.5;"/>
    </g>
    <g id="line2d_22"/>
    <g id="text_18">
     <!-- XUV envelope -->
     <defs>
      <path d="M 6.296875 72.90625 
L 16.890625 72.90625 
L 35.015625 45.796875 
L 53.21875 72.90625 
L 63.8125 72.90625 
L 40.375 37.890625 
L 65.375 0 
L 54.78125 0 
L 34.28125 31 
L 13.625 0 
L 2.984375 0 
L 29 38.921875 
z
" id="DejaVuSans-58"/>
      <path d="M 8.6875 72.90625 
L 18.609375 72.90625 
L 18.609375 28.609375 
Q 18.609375 16.890625 22.84375 11.734375 
Q 27.09375 6.59375 36.625 6.59375 
Q 46.09375 6.59375 50.34375 11.734375 
Q 54.59375 16.890625 54.59375 28.609375 
L 54.59375 72.90625 
L 64.5 72.90625 
L 64.5 27.390625 
Q 64.5 13.140625 57.4375 5.859375 
Q 50.390625 -1.421875 36.625 -1.421875 
Q 22.796875 -1.421875 15.734375 5.859375 
Q 8.6875 13.140625 8.6875 27.390625 
z
" id="DejaVuSans-55"/>
     </defs>
     <g transform="translate(362.915938 59.274687)scale(0.1 -0.1)">
      <use xlink:href="#DejaVuSans-58"/>
      <use x="68.505859" xlink:href="#DejaVuSans-55"/>
      <use x="141.699219" xlink:href="#DejaVuSans-56"/>
      <use x="210.107422" xlink:href="#DejaVuSans-20"/>
      <use x="241.894531" xlink:href="#DejaVuSans-65"/>
      <use x="303.417969" xlink:href="#DejaVuSans-6e"/>
      <use x="366.796875" xlink:href="#DejaVuSans-76"/>
      <use x="425.976562" xlink:href="#DejaVuSans-65"/>
      <use x="487.5" xlink:href="#DejaVuSans-6c"/>
      <use x="515.283203" xlink:href="#DejaVuSans-6f"/>
      <use x="576.464844" xlink:href="#DejaVuSans-70"/>
      <use x="639.941406" xlink:href="#DejaVuSans-65"/>
     </g>
    </g>
   </g>
  </g>
 </g>
 <defs>
  <clipPath id="p3064fdb7f9">
   <rect height="288.6775" width="392.8975" x="54.5825" y="13.32"/>
  </clipPath>
 </defs>
</svg>
