<?xml version="1.0" encoding="utf-8" standalone="no"?>
<!DOCTYPE svg PUBLIC "-//W3C//DTD SVG 1.1//EN"
  "http://www.w3.org/Graphics/SVG/1.1/DTD/svg11.dtd">
<!-- Created with matplotlib (http://matplotlib.org/) -->
<svg height="345pt" version="1.1" viewBox="0 0 460 345" width="460pt" xmlns="http://www.w3.org/2000/svg" xmlns:xlink="http://www.w3.org/1999/xlink">
 <defs>
  <style type="text/css">
*{stroke-linecap:butt;stroke-linejoin:round;}
  </style>
 </defs>
 <g id="figure_1">
  <g id="patch_1">
   <path d="M 0 345.6 
L 460.8 345.6 
L 460.8 0 
L 0 0 
z
" style="fill:none;"/>
  </g>
  <g id="axes_1">
   <g id="patch_2">
    <path d="M 55.529545 301.197727 
L 447.709091 301.197727 
L 447.709091 13.090909 
L 55.529545 13.090909 
z
" style="fill:none;"/>
   </g>
   <g id="matplotlib.axis_1">
    <g id="xtick_1">
     <g id="line2d_1">
      <path clip-path="url(#pd86b425307)" d="M 57.70639 301.197727 
L 57.70639 13.090909 
" style="fill:none;stroke:#ffffff;stroke-linecap:square;stroke-width:0.8;"/>
     </g>
     <g id="line2d_2">
      <defs>
       <path d="M 0 0 
L 0 3.5 
" id="m1b3a005e3c" style="stroke:#555555;stroke-width:0.8;"/>
      </defs>
      <g>
       <use style="fill:#555555;stroke:#555555;stroke-width:0.8;" x="57.70639" xlink:href="#m1b3a005e3c" y="301.197727"/>
      </g>
     </g>
     <g id="text_1">
      <!-- −30 -->
      <defs>
       <path d="M 10.59375 35.5 
L 73.1875 35.5 
L 73.1875 27.203125 
L 10.59375 27.203125 
z
" id="DejaVuSans-2212"/>
       <path d="M 40.578125 39.3125 
Q 47.65625 37.796875 51.625 33 
Q 55.609375 28.21875 55.609375 21.1875 
Q 55.609375 10.40625 48.1875 4.484375 
Q 40.765625 -1.421875 27.09375 -1.421875 
Q 22.515625 -1.421875 17.65625 -0.515625 
Q 12.796875 0.390625 7.625 2.203125 
L 7.625 11.71875 
Q 11.71875 9.328125 16.59375 8.109375 
Q 21.484375 6.890625 26.8125 6.890625 
Q 36.078125 6.890625 40.9375 10.546875 
Q 45.796875 14.203125 45.796875 21.1875 
Q 45.796875 27.640625 41.28125 31.265625 
Q 36.765625 34.90625 28.71875 34.90625 
L 20.21875 34.90625 
L 20.21875 43.015625 
L 29.109375 43.015625 
Q 36.375 43.015625 40.234375 45.921875 
Q 44.09375 48.828125 44.09375 54.296875 
Q 44.09375 59.90625 40.109375 62.90625 
Q 36.140625 65.921875 28.71875 65.921875 
Q 24.65625 65.921875 20.015625 65.03125 
Q 15.375 64.15625 9.8125 62.3125 
L 9.8125 71.09375 
Q 15.4375 72.65625 20.34375 73.4375 
Q 25.25 74.21875 29.59375 74.21875 
Q 40.828125 74.21875 47.359375 69.109375 
Q 53.90625 64.015625 53.90625 55.328125 
Q 53.90625 49.265625 50.4375 45.09375 
Q 46.96875 40.921875 40.578125 39.3125 
z
" id="DejaVuSans-33"/>
       <path d="M 31.78125 66.40625 
Q 24.171875 66.40625 20.328125 58.90625 
Q 16.5 51.421875 16.5 36.375 
Q 16.5 21.390625 20.328125 13.890625 
Q 24.171875 6.390625 31.78125 6.390625 
Q 39.453125 6.390625 43.28125 13.890625 
Q 47.125 21.390625 47.125 36.375 
Q 47.125 51.421875 43.28125 58.90625 
Q 39.453125 66.40625 31.78125 66.40625 
z
M 31.78125 74.21875 
Q 44.046875 74.21875 50.515625 64.515625 
Q 56.984375 54.828125 56.984375 36.375 
Q 56.984375 17.96875 50.515625 8.265625 
Q 44.046875 -1.421875 31.78125 -1.421875 
Q 19.53125 -1.421875 13.0625 8.265625 
Q 6.59375 17.96875 6.59375 36.375 
Q 6.59375 54.828125 13.0625 64.515625 
Q 19.53125 74.21875 31.78125 74.21875 
z
" id="DejaVuSans-30"/>
      </defs>
      <g style="fill:#555555;" transform="translate(47.154047 315.796165)scale(0.1 -0.1)">
       <use xlink:href="#DejaVuSans-2212"/>
       <use x="83.789062" xlink:href="#DejaVuSans-33"/>
       <use x="147.412109" xlink:href="#DejaVuSans-30"/>
      </g>
     </g>
    </g>
    <g id="xtick_2">
     <g id="line2d_3">
      <path clip-path="url(#pd86b425307)" d="M 108.736108 301.197727 
L 108.736108 13.090909 
" style="fill:none;stroke:#ffffff;stroke-linecap:square;stroke-width:0.8;"/>
     </g>
     <g id="line2d_4">
      <g>
       <use style="fill:#555555;stroke:#555555;stroke-width:0.8;" x="108.736108" xlink:href="#m1b3a005e3c" y="301.197727"/>
      </g>
     </g>
     <g id="text_2">
      <!-- −20 -->
      <defs>
       <path d="M 19.1875 8.296875 
L 53.609375 8.296875 
L 53.609375 0 
L 7.328125 0 
L 7.328125 8.296875 
Q 12.9375 14.109375 22.625 23.890625 
Q 32.328125 33.6875 34.8125 36.53125 
Q 39.546875 41.84375 41.421875 45.53125 
Q 43.3125 49.21875 43.3125 52.78125 
Q 43.3125 58.59375 39.234375 62.25 
Q 35.15625 65.921875 28.609375 65.921875 
Q 23.96875 65.921875 18.8125 64.3125 
Q 13.671875 62.703125 7.8125 59.421875 
L 7.8125 69.390625 
Q 13.765625 71.78125 18.9375 73 
Q 24.125 74.21875 28.421875 74.21875 
Q 39.75 74.21875 46.484375 68.546875 
Q 53.21875 62.890625 53.21875 53.421875 
Q 53.21875 48.921875 51.53125 44.890625 
Q 49.859375 40.875 45.40625 35.40625 
Q 44.1875 33.984375 37.640625 27.21875 
Q 31.109375 20.453125 19.1875 8.296875 
z
" id="DejaVuSans-32"/>
      </defs>
      <g style="fill:#555555;" transform="translate(98.183764 315.796165)scale(0.1 -0.1)">
       <use xlink:href="#DejaVuSans-2212"/>
       <use x="83.789062" xlink:href="#DejaVuSans-32"/>
       <use x="147.412109" xlink:href="#DejaVuSans-30"/>
      </g>
     </g>
    </g>
    <g id="xtick_3">
     <g id="line2d_5">
      <path clip-path="url(#pd86b425307)" d="M 159.765826 301.197727 
L 159.765826 13.090909 
" style="fill:none;stroke:#ffffff;stroke-linecap:square;stroke-width:0.8;"/>
     </g>
     <g id="line2d_6">
      <g>
       <use style="fill:#555555;stroke:#555555;stroke-width:0.8;" x="159.765826" xlink:href="#m1b3a005e3c" y="301.197727"/>
      </g>
     </g>
     <g id="text_3">
      <!-- −10 -->
      <defs>
       <path d="M 12.40625 8.296875 
L 28.515625 8.296875 
L 28.515625 63.921875 
L 10.984375 60.40625 
L 10.984375 69.390625 
L 28.421875 72.90625 
L 38.28125 72.90625 
L 38.28125 8.296875 
L 54.390625 8.296875 
L 54.390625 0 
L 12.40625 0 
z
" id="DejaVuSans-31"/>
      </defs>
      <g style="fill:#555555;" transform="translate(149.213482 315.796165)scale(0.1 -0.1)">
       <use xlink:href="#DejaVuSans-2212"/>
       <use x="83.789062" xlink:href="#DejaVuSans-31"/>
       <use x="147.412109" xlink:href="#DejaVuSans-30"/>
      </g>
     </g>
    </g>
    <g id="xtick_4">
     <g id="line2d_7">
      <path clip-path="url(#pd86b425307)" d="M 210.795544 301.197727 
L 210.795544 13.090909 
" style="fill:none;stroke:#ffffff;stroke-linecap:square;stroke-width:0.8;"/>
     </g>
     <g id="line2d_8">
      <g>
       <use style="fill:#555555;stroke:#555555;stroke-width:0.8;" x="210.795544" xlink:href="#m1b3a005e3c" y="301.197727"/>
      </g>
     </g>
     <g id="text_4">
      <!-- 0 -->
      <g style="fill:#555555;" transform="translate(207.614294 315.796165)scale(0.1 -0.1)">
       <use xlink:href="#DejaVuSans-30"/>
      </g>
     </g>
    </g>
    <g id="xtick_5">
     <g id="line2d_9">
      <path clip-path="url(#pd86b425307)" d="M 261.825262 301.197727 
L 261.825262 13.090909 
" style="fill:none;stroke:#ffffff;stroke-linecap:square;stroke-width:0.8;"/>
     </g>
     <g id="line2d_10">
      <g>
       <use style="fill:#555555;stroke:#555555;stroke-width:0.8;" x="261.825262" xlink:href="#m1b3a005e3c" y="301.197727"/>
      </g>
     </g>
     <g id="text_5">
      <!-- 10 -->
      <g style="fill:#555555;" transform="translate(255.462762 315.796165)scale(0.1 -0.1)">
       <use xlink:href="#DejaVuSans-31"/>
       <use x="63.623047" xlink:href="#DejaVuSans-30"/>
      </g>
     </g>
    </g>
    <g id="xtick_6">
     <g id="line2d_11">
      <path clip-path="url(#pd86b425307)" d="M 312.85498 301.197727 
L 312.85498 13.090909 
" style="fill:none;stroke:#ffffff;stroke-linecap:square;stroke-width:0.8;"/>
     </g>
     <g id="line2d_12">
      <g>
       <use style="fill:#555555;stroke:#555555;stroke-width:0.8;" x="312.85498" xlink:href="#m1b3a005e3c" y="301.197727"/>
      </g>
     </g>
     <g id="text_6">
      <!-- 20 -->
      <g style="fill:#555555;" transform="translate(306.49248 315.796165)scale(0.1 -0.1)">
       <use xlink:href="#DejaVuSans-32"/>
       <use x="63.623047" xlink:href="#DejaVuSans-30"/>
      </g>
     </g>
    </g>
    <g id="xtick_7">
     <g id="line2d_13">
      <path clip-path="url(#pd86b425307)" d="M 363.884697 301.197727 
L 363.884697 13.090909 
" style="fill:none;stroke:#ffffff;stroke-linecap:square;stroke-width:0.8;"/>
     </g>
     <g id="line2d_14">
      <g>
       <use style="fill:#555555;stroke:#555555;stroke-width:0.8;" x="363.884697" xlink:href="#m1b3a005e3c" y="301.197727"/>
      </g>
     </g>
     <g id="text_7">
      <!-- 30 -->
      <g style="fill:#555555;" transform="translate(357.522197 315.796165)scale(0.1 -0.1)">
       <use xlink:href="#DejaVuSans-33"/>
       <use x="63.623047" xlink:href="#DejaVuSans-30"/>
      </g>
     </g>
    </g>
    <g id="xtick_8">
     <g id="line2d_15">
      <path clip-path="url(#pd86b425307)" d="M 414.914415 301.197727 
L 414.914415 13.090909 
" style="fill:none;stroke:#ffffff;stroke-linecap:square;stroke-width:0.8;"/>
     </g>
     <g id="line2d_16">
      <g>
       <use style="fill:#555555;stroke:#555555;stroke-width:0.8;" x="414.914415" xlink:href="#m1b3a005e3c" y="301.197727"/>
      </g>
     </g>
     <g id="text_8">
      <!-- 40 -->
      <defs>
       <path d="M 37.796875 64.3125 
L 12.890625 25.390625 
L 37.796875 25.390625 
z
M 35.203125 72.90625 
L 47.609375 72.90625 
L 47.609375 25.390625 
L 58.015625 25.390625 
L 58.015625 17.1875 
L 47.609375 17.1875 
L 47.609375 0 
L 37.796875 0 
L 37.796875 17.1875 
L 4.890625 17.1875 
L 4.890625 26.703125 
z
" id="DejaVuSans-34"/>
      </defs>
      <g style="fill:#555555;" transform="translate(408.551915 315.796165)scale(0.1 -0.1)">
       <use xlink:href="#DejaVuSans-34"/>
       <use x="63.623047" xlink:href="#DejaVuSans-30"/>
      </g>
     </g>
    </g>
    <g id="text_9">
     <!-- $t$ [fs] -->
     <defs>
      <path d="M 42.28125 54.6875 
L 40.921875 47.703125 
L 23 47.703125 
L 17.1875 18.015625 
Q 16.890625 16.359375 16.75 15.234375 
Q 16.609375 14.109375 16.609375 13.484375 
Q 16.609375 10.359375 18.484375 8.9375 
Q 20.359375 7.515625 24.515625 7.515625 
L 33.59375 7.515625 
L 32.078125 0 
L 23.484375 0 
Q 15.484375 0 11.546875 3.125 
Q 7.625 6.25 7.625 12.59375 
Q 7.625 13.71875 7.765625 15.0625 
Q 7.90625 16.40625 8.203125 18.015625 
L 14.015625 47.703125 
L 6.390625 47.703125 
L 7.8125 54.6875 
L 15.28125 54.6875 
L 18.3125 70.21875 
L 27.296875 70.21875 
L 24.3125 54.6875 
z
" id="DejaVuSans-Oblique-74"/>
      <path id="DejaVuSans-20"/>
      <path d="M 8.59375 75.984375 
L 29.296875 75.984375 
L 29.296875 69 
L 17.578125 69 
L 17.578125 -6.203125 
L 29.296875 -6.203125 
L 29.296875 -13.1875 
L 8.59375 -13.1875 
z
" id="DejaVuSans-5b"/>
      <path d="M 37.109375 75.984375 
L 37.109375 68.5 
L 28.515625 68.5 
Q 23.6875 68.5 21.796875 66.546875 
Q 19.921875 64.59375 19.921875 59.515625 
L 19.921875 54.6875 
L 34.71875 54.6875 
L 34.71875 47.703125 
L 19.921875 47.703125 
L 19.921875 0 
L 10.890625 0 
L 10.890625 47.703125 
L 2.296875 47.703125 
L 2.296875 54.6875 
L 10.890625 54.6875 
L 10.890625 58.5 
Q 10.890625 67.625 15.140625 71.796875 
Q 19.390625 75.984375 28.609375 75.984375 
z
" id="DejaVuSans-66"/>
      <path d="M 44.28125 53.078125 
L 44.28125 44.578125 
Q 40.484375 46.53125 36.375 47.5 
Q 32.28125 48.484375 27.875 48.484375 
Q 21.1875 48.484375 17.84375 46.4375 
Q 14.5 44.390625 14.5 40.28125 
Q 14.5 37.15625 16.890625 35.375 
Q 19.28125 33.59375 26.515625 31.984375 
L 29.59375 31.296875 
Q 39.15625 29.25 43.1875 25.515625 
Q 47.21875 21.78125 47.21875 15.09375 
Q 47.21875 7.46875 41.1875 3.015625 
Q 35.15625 -1.421875 24.609375 -1.421875 
Q 20.21875 -1.421875 15.453125 -0.5625 
Q 10.6875 0.296875 5.421875 2 
L 5.421875 11.28125 
Q 10.40625 8.6875 15.234375 7.390625 
Q 20.0625 6.109375 24.8125 6.109375 
Q 31.15625 6.109375 34.5625 8.28125 
Q 37.984375 10.453125 37.984375 14.40625 
Q 37.984375 18.0625 35.515625 20.015625 
Q 33.0625 21.96875 24.703125 23.78125 
L 21.578125 24.515625 
Q 13.234375 26.265625 9.515625 29.90625 
Q 5.8125 33.546875 5.8125 39.890625 
Q 5.8125 47.609375 11.28125 51.796875 
Q 16.75 56 26.8125 56 
Q 31.78125 56 36.171875 55.265625 
Q 40.578125 54.546875 44.28125 53.078125 
z
" id="DejaVuSans-73"/>
      <path d="M 30.421875 75.984375 
L 30.421875 -13.1875 
L 9.71875 -13.1875 
L 9.71875 -6.203125 
L 21.390625 -6.203125 
L 21.390625 69 
L 9.71875 69 
L 9.71875 75.984375 
z
" id="DejaVuSans-5d"/>
     </defs>
     <g style="fill:#555555;" transform="translate(237.399318 330.993977)scale(0.12 -0.12)">
      <use transform="translate(0 0.015625)" xlink:href="#DejaVuSans-Oblique-74"/>
      <use transform="translate(39.208984 0.015625)" xlink:href="#DejaVuSans-20"/>
      <use transform="translate(70.996094 0.015625)" xlink:href="#DejaVuSans-5b"/>
      <use transform="translate(110.009766 0.015625)" xlink:href="#DejaVuSans-66"/>
      <use transform="translate(145.214844 0.015625)" xlink:href="#DejaVuSans-73"/>
      <use transform="translate(197.314453 0.015625)" xlink:href="#DejaVuSans-5d"/>
     </g>
    </g>
   </g>
   <g id="matplotlib.axis_2">
    <g id="ytick_1">
     <g id="line2d_17">
      <path clip-path="url(#pd86b425307)" d="M 55.529545 264.717429 
L 447.709091 264.717429 
" style="fill:none;stroke:#ffffff;stroke-linecap:square;stroke-width:0.8;"/>
     </g>
     <g id="line2d_18">
      <defs>
       <path d="M 0 0 
L -3.5 0 
" id="m1ba6904ca3" style="stroke:#555555;stroke-width:0.8;"/>
      </defs>
      <g>
       <use style="fill:#555555;stroke:#555555;stroke-width:0.8;" x="55.529545" xlink:href="#m1ba6904ca3" y="264.717429"/>
      </g>
     </g>
     <g id="text_10">
      <!-- −10 -->
      <g style="fill:#555555;" transform="translate(27.424858 268.516648)scale(0.1 -0.1)">
       <use xlink:href="#DejaVuSans-2212"/>
       <use x="83.789062" xlink:href="#DejaVuSans-31"/>
       <use x="147.412109" xlink:href="#DejaVuSans-30"/>
      </g>
     </g>
    </g>
    <g id="ytick_2">
     <g id="line2d_19">
      <path clip-path="url(#pd86b425307)" d="M 55.529545 211.124084 
L 447.709091 211.124084 
" style="fill:none;stroke:#ffffff;stroke-linecap:square;stroke-width:0.8;"/>
     </g>
     <g id="line2d_20">
      <g>
       <use style="fill:#555555;stroke:#555555;stroke-width:0.8;" x="55.529545" xlink:href="#m1ba6904ca3" y="211.124084"/>
      </g>
     </g>
     <g id="text_11">
      <!-- −5 -->
      <defs>
       <path d="M 10.796875 72.90625 
L 49.515625 72.90625 
L 49.515625 64.59375 
L 19.828125 64.59375 
L 19.828125 46.734375 
Q 21.96875 47.46875 24.109375 47.828125 
Q 26.265625 48.1875 28.421875 48.1875 
Q 40.625 48.1875 47.75 41.5 
Q 54.890625 34.8125 54.890625 23.390625 
Q 54.890625 11.625 47.5625 5.09375 
Q 40.234375 -1.421875 26.90625 -1.421875 
Q 22.3125 -1.421875 17.546875 -0.640625 
Q 12.796875 0.140625 7.71875 1.703125 
L 7.71875 11.625 
Q 12.109375 9.234375 16.796875 8.0625 
Q 21.484375 6.890625 26.703125 6.890625 
Q 35.15625 6.890625 40.078125 11.328125 
Q 45.015625 15.765625 45.015625 23.390625 
Q 45.015625 31 40.078125 35.4375 
Q 35.15625 39.890625 26.703125 39.890625 
Q 22.75 39.890625 18.8125 39.015625 
Q 14.890625 38.140625 10.796875 36.28125 
z
" id="DejaVuSans-35"/>
      </defs>
      <g style="fill:#555555;" transform="translate(33.787358 214.923302)scale(0.1 -0.1)">
       <use xlink:href="#DejaVuSans-2212"/>
       <use x="83.789062" xlink:href="#DejaVuSans-35"/>
      </g>
     </g>
    </g>
    <g id="ytick_3">
     <g id="line2d_21">
      <path clip-path="url(#pd86b425307)" d="M 55.529545 157.530738 
L 447.709091 157.530738 
" style="fill:none;stroke:#ffffff;stroke-linecap:square;stroke-width:0.8;"/>
     </g>
     <g id="line2d_22">
      <g>
       <use style="fill:#555555;stroke:#555555;stroke-width:0.8;" x="55.529545" xlink:href="#m1ba6904ca3" y="157.530738"/>
      </g>
     </g>
     <g id="text_12">
      <!-- 0 -->
      <g style="fill:#555555;" transform="translate(42.167045 161.329957)scale(0.1 -0.1)">
       <use xlink:href="#DejaVuSans-30"/>
      </g>
     </g>
    </g>
    <g id="ytick_4">
     <g id="line2d_23">
      <path clip-path="url(#pd86b425307)" d="M 55.529545 103.937393 
L 447.709091 103.937393 
" style="fill:none;stroke:#ffffff;stroke-linecap:square;stroke-width:0.8;"/>
     </g>
     <g id="line2d_24">
      <g>
       <use style="fill:#555555;stroke:#555555;stroke-width:0.8;" x="55.529545" xlink:href="#m1ba6904ca3" y="103.937393"/>
      </g>
     </g>
     <g id="text_13">
      <!-- 5 -->
      <g style="fill:#555555;" transform="translate(42.167045 107.736612)scale(0.1 -0.1)">
       <use xlink:href="#DejaVuSans-35"/>
      </g>
     </g>
    </g>
    <g id="ytick_5">
     <g id="line2d_25">
      <path clip-path="url(#pd86b425307)" d="M 55.529545 50.344048 
L 447.709091 50.344048 
" style="fill:none;stroke:#ffffff;stroke-linecap:square;stroke-width:0.8;"/>
     </g>
     <g id="line2d_26">
      <g>
       <use style="fill:#555555;stroke:#555555;stroke-width:0.8;" x="55.529545" xlink:href="#m1ba6904ca3" y="50.344048"/>
      </g>
     </g>
     <g id="text_14">
      <!-- 10 -->
      <g style="fill:#555555;" transform="translate(35.804545 54.143266)scale(0.1 -0.1)">
       <use xlink:href="#DejaVuSans-31"/>
       <use x="63.623047" xlink:href="#DejaVuSans-30"/>
      </g>
     </g>
    </g>
    <g id="text_15">
     <!-- $E$ [V/m] -->
     <defs>
      <path d="M 16.890625 72.90625 
L 62.984375 72.90625 
L 61.375 64.59375 
L 25.09375 64.59375 
L 20.90625 43.015625 
L 55.71875 43.015625 
L 54.109375 34.71875 
L 19.28125 34.71875 
L 14.203125 8.296875 
L 51.3125 8.296875 
L 49.703125 0 
L 2.6875 0 
z
" id="DejaVuSans-Oblique-45"/>
      <path d="M 28.609375 0 
L 0.78125 72.90625 
L 11.078125 72.90625 
L 34.1875 11.53125 
L 57.328125 72.90625 
L 67.578125 72.90625 
L 39.796875 0 
z
" id="DejaVuSans-56"/>
      <path d="M 25.390625 72.90625 
L 33.6875 72.90625 
L 8.296875 -9.28125 
L 0 -9.28125 
z
" id="DejaVuSans-2f"/>
      <path d="M 52 44.1875 
Q 55.375 50.25 60.0625 53.125 
Q 64.75 56 71.09375 56 
Q 79.640625 56 84.28125 50.015625 
Q 88.921875 44.046875 88.921875 33.015625 
L 88.921875 0 
L 79.890625 0 
L 79.890625 32.71875 
Q 79.890625 40.578125 77.09375 44.375 
Q 74.3125 48.1875 68.609375 48.1875 
Q 61.625 48.1875 57.5625 43.546875 
Q 53.515625 38.921875 53.515625 30.90625 
L 53.515625 0 
L 44.484375 0 
L 44.484375 32.71875 
Q 44.484375 40.625 41.703125 44.40625 
Q 38.921875 48.1875 33.109375 48.1875 
Q 26.21875 48.1875 22.15625 43.53125 
Q 18.109375 38.875 18.109375 30.90625 
L 18.109375 0 
L 9.078125 0 
L 9.078125 54.6875 
L 18.109375 54.6875 
L 18.109375 46.1875 
Q 21.1875 51.21875 25.484375 53.609375 
Q 29.78125 56 35.6875 56 
Q 41.65625 56 45.828125 52.96875 
Q 50 49.953125 52 44.1875 
z
" id="DejaVuSans-6d"/>
     </defs>
     <g style="fill:#555555;" transform="translate(20.929233 179.524318)rotate(-90)scale(0.12 -0.12)">
      <use transform="translate(0 0.015625)" xlink:href="#DejaVuSans-Oblique-45"/>
      <use transform="translate(63.183594 0.015625)" xlink:href="#DejaVuSans-20"/>
      <use transform="translate(94.970703 0.015625)" xlink:href="#DejaVuSans-5b"/>
      <use transform="translate(133.984375 0.015625)" xlink:href="#DejaVuSans-56"/>
      <use transform="translate(202.392578 0.015625)" xlink:href="#DejaVuSans-2f"/>
      <use transform="translate(236.083984 0.015625)" xlink:href="#DejaVuSans-6d"/>
      <use transform="translate(333.496094 0.015625)" xlink:href="#DejaVuSans-5d"/>
     </g>
    </g>
   </g>
   <g id="line2d_27">
    <path clip-path="url(#pd86b425307)" d="M 88.211174 157.530738 
L 93.455692 157.454592 
L 101.029881 157.602937 
L 106.38481 157.279394 
L 108.390608 157.492779 
L 112.243949 157.961464 
L 113.767619 157.865041 
L 115.50107 157.517114 
L 118.482165 156.893222 
L 119.74821 156.889735 
L 120.984812 157.11264 
L 122.537926 157.639205 
L 124.885998 158.429339 
L 125.975385 158.543231 
L 126.969083 158.423778 
L 128.017987 158.066144 
L 129.409164 157.331784 
L 131.433364 156.282009 
L 132.390259 156.047615 
L 133.225701 156.069507 
L 134.050103 156.317297 
L 134.966513 156.835546 
L 136.2436 157.844439 
L 138.058019 159.246569 
L 138.915544 159.624496 
L 139.633214 159.706542 
L 140.314082 159.559984 
L 141.028072 159.170337 
L 141.859834 158.447226 
L 143.066994 157.062768 
L 144.737879 155.194976 
L 145.529157 154.638578 
L 146.16954 154.445787 
L 146.747357 154.500654 
L 147.332535 154.787171 
L 147.98396 155.369177 
L 148.782598 156.405968 
L 150.026561 158.445927 
L 151.461903 160.684439 
L 152.212697 161.466211 
L 152.797875 161.779739 
L 153.302085 161.80797 
L 153.791573 161.608205 
L 154.325226 161.135826 
L 154.958249 160.254496 
L 155.771609 158.703563 
L 157.464576 154.832347 
L 158.454594 152.91781 
L 159.12074 152.070763 
L 159.635991 151.742067 
L 160.070274 151.713997 
L 160.493515 151.916331 
L 160.964602 152.408514 
L 161.527698 153.347705 
L 162.238008 155.004491 
L 163.286911 158.093211 
L 165.001961 163.105172 
L 165.712271 164.507814 
L 166.242243 165.113636 
L 166.658124 165.283518 
L 167.02248 165.197211 
L 167.408919 164.860874 
L 167.868964 164.136822 
L 168.43574 162.792195 
L 169.171813 160.417961 
L 170.35689 155.711931 
L 171.744387 150.449575 
L 172.454697 148.563079 
L 172.977309 147.730073 
L 173.374788 147.462324 
L 173.69866 147.493327 
L 174.033573 147.766367 
L 174.431052 148.407134 
L 174.927901 149.672447 
L 175.560924 151.953965 
L 176.43317 156.025447 
L 178.814365 167.583731 
L 179.440027 169.404209 
L 179.903753 170.159922 
L 180.249707 170.357389 
L 180.533095 170.275294 
L 180.845926 169.925743 
L 181.232364 169.122028 
L 181.721853 167.538859 
L 182.351195 164.67461 
L 183.219761 159.567252 
L 185.597276 145.071468 
L 186.230298 142.760571 
L 186.682983 141.829049 
L 187.025257 141.569598 
L 187.301284 141.641935 
L 187.56627 141.968507 
L 187.893822 142.711004 
L 188.342827 144.270889 
L 188.843356 146.785502 
L 189.734004 152.776019 
L 190.40383 158.242648 
L 190.635693 159.919343 
L 190.768186 160.798954 
L 191.467455 166.557433 
L 192.372825 172.721702 
L 193.208267 176.070426 
L 193.473254 176.733482 
L 193.594706 176.667028 
L 193.701436 176.848034 
L 193.800806 176.953166 
L 193.84497 176.90566 
L 193.962742 176.793931 
L 194.006906 176.855634 
L 194.135719 177.060485 
L 194.187244 176.972619 
L 194.95276 174.447673 
L 195.088933 173.943473 
L 195.133098 173.962393 
L 195.195664 173.882223 
L 195.199344 173.868316 
L 195.306075 172.962549 
L 195.552659 171.405197 
L 195.699874 169.525239 
L 195.802924 168.849009 
L 195.854449 168.949414 
L 195.894933 169.010298 
L 195.939097 168.872252 
L 196.075271 167.22853 
L 196.137837 166.905044 
L 196.196723 167.123647 
L 196.248248 167.297832 
L 196.292412 167.042384 
L 196.402823 164.356073 
L 196.520595 162.37593 
L 196.57212 162.579148 
L 196.605243 162.692764 
L 196.645727 162.427759 
L 196.737736 159.424871 
L 196.833426 156.600424 
L 196.88127 157.710626 
L 197.050567 168.062314 
L 197.124174 164.141528 
L 197.308193 145.504342 
L 197.378119 148.870861 
L 197.529014 159.011899 
L 197.58422 157.593034 
L 197.742475 151.670866 
L 197.805042 152.312839 
L 197.849206 152.683936 
L 197.897051 152.131439 
L 198.099471 145.484335 
L 198.209882 146.984955 
L 198.243005 147.18957 
L 198.29453 146.709823 
L 198.434384 144.3175 
L 198.49695 144.966315 
L 198.592639 146.233026 
L 198.644164 145.698812 
L 198.839224 141.482582 
L 198.942274 141.729523 
L 199.00484 140.824086 
L 199.163096 137.459773 
L 199.225662 138.082322 
L 199.332392 139.417754 
L 199.383918 138.996407 
L 199.50905 137.323447 
L 199.571616 137.830676 
L 199.667306 138.880793 
L 199.71515 138.42249 
L 199.899168 134.48574 
L 199.991178 135.251312 
L 200.027981 135.4216 
L 200.075826 135.059252 
L 200.21568 132.774985 
L 200.281926 133.621194 
L 200.42178 136.382122 
L 200.480666 135.759667 
L 200.583716 134.382807 
L 200.638922 134.889622 
L 200.745652 136.419376 
L 200.797177 135.825073 
L 200.955433 132.006101 
L 201.02536 133.070156 
L 201.13209 134.998207 
L 201.187296 134.483553 
L 201.275624 133.343812 
L 201.323469 133.991714 
L 201.496446 139.56215 
L 201.577414 138.009274 
L 201.662063 136.358355 
L 201.717268 137.087475 
L 201.827679 139.431884 
L 201.879204 138.51204 
L 202.015378 133.985216 
L 202.074263 135.426254 
L 202.225158 141.624156 
L 202.291405 140.545994 
L 202.34661 139.691587 
L 202.394455 140.667481 
L 202.563752 149.944128 
L 202.641039 146.612543 
L 202.74777 141.204799 
L 202.802975 142.766444 
L 202.906026 147.237048 
L 202.957551 145.386086 
L 203.082683 136.53061 
L 203.141569 139.998665 
L 203.303505 159.416429 
L 203.373432 155.029996 
L 203.439678 151.012787 
L 203.487523 154.63345 
L 203.631057 181.345602 
L 203.693623 169.399873 
L 203.8666 93.968359 
L 203.932847 116.358219 
L 204.109504 224.608523 
L 204.179431 203.728006 
L 204.345048 130.622115 
L 204.403934 139.64122 
L 204.536427 164.978228 
L 204.591632 160.889822 
L 204.6726 153.893919 
L 204.724125 157.634705 
L 204.889742 183.941046 
L 204.967029 177.544807 
L 205.070079 168.437134 
L 205.125285 170.959825 
L 205.224655 177.101638 
L 205.27618 174.556915 
L 205.416034 161.871312 
L 205.4786 165.567212 
L 205.625814 178.335332 
L 205.6847 176.392347 
L 205.750947 174.108375 
L 205.802472 175.878222 
L 205.957047 188.276649 
L 206.026974 184.648991 
L 206.152106 175.922879 
L 206.207312 177.656337 
L 206.306682 181.939221 
L 206.358207 180.291817 
L 206.483339 173.191769 
L 206.538544 175.575324 
L 206.6968 188.070903 
L 206.766727 185.784181 
L 206.844015 183.171305 
L 206.89554 184.770335 
L 207.020672 191.672435 
L 207.079558 189.1223 
L 207.230453 177.772841 
L 207.293019 180.095812 
L 207.392389 184.517603 
L 207.443914 182.961277 
L 207.554325 177.707372 
L 207.60585 179.786461 
L 207.764105 192.501875 
L 207.834032 189.244568 
L 207.937083 183.566633 
L 207.992288 185.205339 
L 208.084297 189.28875 
L 208.135822 187.283517 
L 208.301439 172.292974 
L 208.375046 176.467148 
L 208.478096 182.917334 
L 208.529621 181.048165 
L 208.628991 175.735351 
L 208.680516 178.088159 
L 208.827731 192.056425 
L 208.890297 187.842608 
L 209.030151 174.065278 
L 209.089036 176.72361 
L 209.158963 180.229866 
L 209.210488 177.515442 
L 209.365064 157.613832 
L 209.434991 164.023553 
L 209.560123 180.423323 
L 209.619009 176.471611 
L 209.711018 168.185272 
L 209.762543 172.324474 
L 209.895036 193.479117 
L 209.953922 185.383828 
L 210.108497 146.613297 
L 210.174744 155.137671 
L 210.248351 165.636856 
L 210.296196 158.738567 
L 210.43973 107.375652 
L 210.498616 129.166318 
L 210.671593 277.188826 
L 210.7452 229.933005 
L 210.918177 37.099811 
L 210.980743 69.306489 
L 211.15372 206.888579 
L 211.216287 189.522125 
L 211.341419 148.547586 
L 211.396624 154.941767 
L 211.481273 167.486154 
L 211.532798 161.514716 
L 211.698414 120.486485 
L 211.772021 130.30752 
L 211.878752 145.630419 
L 211.933957 142.012366 
L 212.029647 133.259863 
L 212.084852 137.247243 
L 212.224706 155.875902 
L 212.287272 150.622704 
L 212.430807 133.030793 
L 212.493373 135.843564 
L 212.5633 139.045249 
L 212.611144 136.734045 
L 212.76572 120.808013 
L 212.835647 125.691742 
L 212.960779 136.885085 
L 213.015984 134.728075 
L 213.115354 129.513468 
L 213.166879 131.53622 
L 213.292012 139.918503 
L 213.347217 137.046616 
L 213.505473 122.66617 
L 213.5754 125.301005 
L 213.652687 128.223473 
L 213.704212 126.467902 
L 213.829345 119.100762 
L 213.88455 121.566746 
L 214.039125 133.693859 
L 214.105372 131.011656 
L 214.201061 126.750201 
L 214.252587 128.294924 
L 214.359317 133.381681 
L 214.414523 131.330335 
L 214.572778 119.376078 
L 214.639025 122.249079 
L 214.749436 127.816668 
L 214.804641 126.208432 
L 214.89297 122.894844 
L 214.944495 124.750925 
L 215.110111 137.790938 
L 215.183719 134.301431 
L 215.283088 129.102161 
L 215.338294 130.738887 
L 215.437664 135.201207 
L 215.492869 133.166413 
L 215.632723 123.000729 
L 215.695289 126.172159 
L 215.838823 137.393236 
L 215.901389 135.439415 
L 215.967636 133.332927 
L 216.015481 135.220045 
L 216.177417 150.121363 
L 216.247344 145.446845 
L 216.365115 135.250139 
L 216.420321 137.644782 
L 216.523371 144.236232 
L 216.574896 141.450516 
L 216.700028 129.152022 
L 216.755234 133.584249 
L 216.91717 159.767944 
L 216.990777 154.031128 
L 217.053343 149.074137 
L 217.104868 153.488381 
L 217.248403 184.001593 
L 217.307288 171.692268 
L 217.480265 90.766103 
L 217.550192 115.460233 
L 217.72685 222.292531 
L 217.789416 205.290234 
L 217.958713 135.752852 
L 218.021279 144.410694 
L 218.153772 166.821569 
L 218.208977 163.833028 
L 218.286265 158.929608 
L 218.33779 161.847801 
L 218.510767 182.669065 
L 218.588055 178.029304 
L 218.683744 172.6495 
L 218.735269 174.291499 
L 218.84568 179.298702 
L 218.900886 177.573293 
L 219.026018 171.256662 
L 219.084904 173.269299 
L 219.25052 182.321979 
L 219.316767 181.306523 
L 219.360931 180.804446 
L 219.408776 181.660839 
L 219.581753 189.180226 
L 219.662721 186.973769 
L 219.762091 184.324676 
L 219.813616 185.139477 
L 219.931388 187.894938 
L 219.990273 187.093769 
L 220.089643 185.133404 
L 220.141168 185.922219 
L 220.321506 191.89649 
L 220.406154 190.899285 
L 220.453999 190.520772 
L 220.501844 191.009539 
L 220.641698 193.832553 
L 220.704264 192.869453 
L 220.844118 189.692284 
L 220.903004 190.355341 
L 221.009734 191.877036 
L 221.06494 191.375072 
L 221.17167 189.960829 
L 221.223195 190.508416 
L 221.37409 193.580283 
L 221.440337 192.792101 
L 221.565469 190.847889 
L 221.624355 191.220265 
L 221.690601 191.674421 
L 221.738446 191.258358 
L 221.929825 186.959245 
L 222.029195 187.96084 
L 222.073359 188.236532 
L 222.124884 187.841926 
L 222.268418 185.70781 
L 222.334665 186.3041 
L 222.419313 187.218421 
L 222.470838 186.722206 
L 223.008172 176.274198 
L 223.070738 176.806518 
L 223.144345 177.505319 
L 223.19587 177.019621 
L 223.361486 173.612534 
L 223.442454 174.35197 
L 223.482938 174.603611 
L 223.527103 174.096316 
L 223.652235 168.449758 
L 223.755285 165.909827 
L 223.80681 166.213322 
L 223.836253 166.34348 
L 223.876737 165.943599 
L 223.972427 161.432368 
L 224.068116 157.611988 
L 224.119641 159.156877 
L 224.277897 169.703231 
L 224.344144 166.214443 
L 224.542883 145.372646 
L 224.620171 148.718558 
L 224.752664 155.356504 
L 224.804189 154.198683 
L 225.083897 147.259571 
L 225.175906 145.025865 
L 225.415129 140.363793 
L 225.477696 140.005696 
L 225.945102 133.625556 
L 226.23585 129.818577 
L 226.548681 126.618129 
L 227.512937 120.33946 
L 227.700635 120.256997 
L 227.833128 120.039557 
L 227.880973 120.094376 
L 228.094434 120.25433 
L 228.182763 120.335432 
L 228.35942 121.112469 
L 228.668571 122.872028 
L 229.404643 129.516513 
L 230.339456 142.593621 
L 233.221181 189.403788 
L 233.82108 194.78085 
L 234.248002 196.938731 
L 234.546111 197.534673 
L 234.722769 197.535654 
L 234.910467 197.248647 
L 235.160732 196.393877 
L 235.510367 194.325808 
L 235.974093 190.104173 
L 236.573992 182.408872 
L 237.420475 168.366802 
L 239.871598 126.010307 
L 240.50094 119.472734 
L 240.964666 116.655943 
L 241.292218 115.782366 
L 241.490958 115.716109 
L 241.660254 115.937684 
L 241.899478 116.684639 
L 242.230711 118.542386 
L 242.672354 122.436895 
L 243.250171 129.723887 
L 244.04145 142.832395 
L 246.838526 191.858954 
L 247.420023 197.386707 
L 247.850626 199.659133 
L 248.145055 200.26089 
L 248.318032 200.246665 
L 248.49837 199.941554 
L 248.755995 198.99596 
L 249.10931 196.748025 
L 249.576716 192.182855 
L 250.191337 183.767494 
L 251.063583 168.403865 
L 253.338048 127.004322 
L 253.996833 119.429819 
L 254.482641 116.065516 
L 254.832276 114.927301 
L 255.049417 114.778272 
L 255.207673 114.940472 
L 255.432175 115.560108 
L 255.745006 117.171952 
L 256.164567 120.641761 
L 256.712941 127.220748 
L 257.456375 139.096069 
L 258.902758 166.731812 
L 259.999506 185.497513 
L 260.691414 193.885584 
L 261.202985 197.727317 
L 261.574702 199.116153 
L 261.813925 199.362454 
L 261.972181 199.244786 
L 262.181962 198.746205 
L 262.480071 197.376961 
L 262.881231 194.359417 
L 263.407523 188.534522 
L 264.114153 177.987759 
L 265.29923 156.346777 
L 266.657284 132.758196 
L 267.385996 123.695669 
L 267.923329 119.456915 
L 268.317128 117.840557 
L 268.578434 117.493346 
L 268.74037 117.570964 
L 268.94279 117.981419 
L 269.229858 119.151097 
L 269.616296 121.772632 
L 270.127867 126.939237 
L 270.808734 136.305452 
L 271.887081 154.692488 
L 273.432833 180.415295 
L 274.161545 189.02869 
L 274.702559 193.103326 
L 275.100038 194.67317 
L 275.368705 195.022806 
L 275.538001 194.94632 
L 275.744102 194.545569 
L 276.03485 193.416201 
L 276.428649 190.8774 
L 276.94758 185.913868 
L 277.643169 176.892752 
L 278.784082 158.692268 
L 280.208383 136.858127 
L 280.940775 128.815861 
L 281.485469 124.99791 
L 281.886628 123.517746 
L 282.158975 123.182389 
L 282.335633 123.255984 
L 282.549094 123.648 
L 282.847203 124.739148 
L 283.248363 127.162367 
L 283.774655 131.847084 
L 284.488646 140.410911 
L 285.725248 158.470547 
L 287.017055 176.178545 
L 287.745767 183.3431 
L 288.286781 186.723175 
L 288.68794 188.032641 
L 288.960287 188.319708 
L 289.144305 188.237226 
L 289.368808 187.837924 
L 289.677958 186.763689 
L 290.090159 184.434493 
L 290.634853 179.948038 
L 291.378286 171.784488 
L 292.93508 151.451832 
L 293.969262 139.652161 
L 294.65381 134.149002 
L 295.16538 131.613305 
L 295.540777 130.691709 
L 295.794722 130.530282 
L 295.993462 130.663417 
L 296.243727 131.150125 
L 296.586001 132.373032 
L 297.038685 134.91355 
L 297.638585 139.684206 
L 298.492429 148.468713 
L 300.822099 173.319322 
L 301.488245 177.800716 
L 301.992455 179.863442 
L 302.360491 180.585929 
L 302.614436 180.69163 
L 302.827897 180.533842 
L 303.100244 180.01198 
L 303.4646 178.774119 
L 303.946728 176.262501 
L 304.590792 171.600794 
L 305.558727 162.745537 
L 307.391548 145.914308 
L 308.11658 141.312414 
L 308.661274 139.120855 
L 309.069794 138.2683 
L 309.360543 138.086438 
L 309.592406 138.193664 
L 309.868433 138.607165 
L 310.232789 139.609437 
L 310.711236 141.651398 
L 311.347939 145.446268 
L 312.301153 152.657451 
L 314.18918 167.062355 
L 314.910531 170.841075 
L 315.455225 172.647552 
L 315.867426 173.35272 
L 316.169215 173.498087 
L 316.426841 173.37588 
L 316.728631 172.951662 
L 317.12243 171.964918 
L 317.63768 170.004705 
L 318.329589 166.40549 
L 319.481543 159.021841 
L 320.894802 150.34879 
L 321.641916 147.060393 
L 322.205012 145.475387 
L 322.635614 144.840767 
L 322.963167 144.702373 
L 323.250235 144.823486 
L 323.581468 145.235762 
L 324.00471 146.161919 
L 324.553084 147.952174 
L 325.307558 151.258908 
L 328.343858 165.48866 
L 328.932716 166.892677 
L 329.389081 167.475558 
L 329.746077 167.6142 
L 330.066268 167.504067 
L 330.430624 167.119053 
L 330.883309 166.282984 
L 331.472167 164.681653 
L 332.300249 161.709847 
L 334.832339 152.188055 
L 335.498485 150.68729 
L 336.017416 150.005774 
L 336.436978 149.78533 
L 336.805014 149.83485 
L 337.195133 150.125988 
L 337.666219 150.780434 
L 338.269799 152.035635 
L 339.119963 154.376707 
L 341.574765 161.433715 
L 342.262993 162.638126 
L 342.811368 163.19191 
L 343.267733 163.36191 
L 343.690974 163.285213 
L 344.14734 162.962811 
L 344.695714 162.280268 
L 345.409704 161.003015 
L 346.576379 158.380356 
L 348.048525 155.207079 
L 348.832442 154.019738 
L 349.454424 153.448596 
L 349.980716 153.246583 
L 350.473885 153.291675 
L 350.996496 153.57278 
L 351.614797 154.177286 
L 352.428158 155.313708 
L 355.512302 159.953929 
L 356.20053 160.447432 
L 356.80411 160.618466 
L 357.385607 160.552221 
L 358.011269 160.248109 
L 358.765744 159.616849 
L 359.877214 158.358482 
L 361.724756 156.282454 
L 362.585961 155.657068 
L 363.314673 155.390174 
L 364.002901 155.37151 
L 364.724252 155.57974 
L 365.578097 156.072326 
L 366.884626 157.122771 
L 368.577593 158.42385 
L 369.527127 158.872878 
L 370.36625 159.029117 
L 371.201692 158.956852 
L 372.143865 158.64216 
L 373.487198 157.929372 
L 375.5298 156.867495 
L 376.604466 156.572526 
L 377.605525 156.528066 
L 378.683872 156.710064 
L 380.148656 157.207239 
L 382.566655 158.025447 
L 383.821659 158.193334 
L 385.076663 158.132932 
L 386.66658 157.815264 
L 389.776487 157.159224 
L 391.300158 157.107244 
L 393.055691 157.283914 
L 397.280749 157.79817 
L 399.279186 157.735866 
L 405.362827 157.376114 
L 414.696229 157.542817 
L 415.027462 157.530738 
L 415.027462 157.530738 
" style="fill:none;stroke:#e24a33;stroke-linecap:square;stroke-width:1.5;"/>
   </g>
   <g id="line2d_28">
    <path clip-path="url(#pd86b425307)" d="M 88.211174 157.453405 
L 106.771248 157.231331 
L 118.680905 156.875774 
L 127.881814 156.385507 
L 135.592175 155.757132 
L 142.367725 154.985644 
L 148.513932 154.064797 
L 154.222176 152.986844 
L 159.63231 151.740289 
L 164.847386 150.311249 
L 169.959411 148.679929 
L 175.056714 146.819067 
L 180.234986 144.690288 
L 185.630399 142.228951 
L 191.471136 139.315007 
L 198.312932 135.642546 
L 211.576962 128.191998 
L 218.853041 124.274119 
L 224.178527 121.652986 
L 228.738498 119.651229 
L 232.853144 118.083824 
L 236.673362 116.863296 
L 240.291159 115.938303 
L 243.769103 115.276686 
L 247.155037 114.857763 
L 250.485766 114.669095 
L 253.798093 114.704191 
L 257.121462 114.962073 
L 260.492675 115.447404 
L 263.952217 116.171599 
L 267.540571 117.15194 
L 271.320305 118.418025 
L 275.368705 120.012491 
L 279.818264 122.009297 
L 284.915568 124.548476 
L 291.31204 127.997835 
L 314.001481 140.457381 
L 319.845899 143.278558 
L 325.248672 145.642244 
L 330.441665 147.673024 
L 335.561051 149.436913 
L 340.702519 150.973196 
L 345.954398 152.309706 
L 351.405017 153.46601 
L 357.157425 154.457015 
L 363.344116 155.29436 
L 370.152789 155.987447 
L 377.85947 156.543077 
L 386.946288 156.967912 
L 398.351735 157.26783 
L 414.39444 157.449534 
L 415.027462 157.453405 
L 415.027462 157.453405 
" style="fill:none;stroke:#348abd;stroke-linecap:square;stroke-width:1.5;"/>
   </g>
   <g id="line2d_29">
    <path clip-path="url(#pd86b425307)" d="M 88.211174 157.530738 
L 192.266094 157.419666 
L 194.85339 157.166721 
L 196.700933 156.768866 
L 198.254046 156.20945 
L 199.689388 155.454928 
L 201.12473 154.443562 
L 202.703606 153.046748 
L 205.018554 150.656273 
L 207.226772 148.483311 
L 208.489137 147.544689 
L 209.523319 147.040497 
L 210.450771 146.829013 
L 211.337739 146.853925 
L 212.239428 147.10539 
L 213.218404 147.617618 
L 214.359317 148.479018 
L 215.871947 149.924164 
L 220.266301 154.282142 
L 221.786291 155.383264 
L 223.243715 156.167794 
L 224.763705 156.732021 
L 226.475074 157.12418 
L 228.609685 157.373749 
L 231.815282 157.500793 
L 240.235954 157.530634 
L 415.027462 157.530738 
L 415.027462 157.530738 
" style="fill:none;stroke:#988ed5;stroke-linecap:square;stroke-width:1.5;"/>
   </g>
   <g id="patch_3">
    <path d="M 55.529545 301.197727 
L 55.529545 13.090909 
" style="fill:none;stroke:#ffffff;stroke-linecap:square;stroke-linejoin:miter;"/>
   </g>
   <g id="patch_4">
    <path d="M 447.709091 301.197727 
L 447.709091 13.090909 
" style="fill:none;stroke:#ffffff;stroke-linecap:square;stroke-linejoin:miter;"/>
   </g>
   <g id="patch_5">
    <path d="M 55.529545 301.197727 
L 447.709091 301.197727 
" style="fill:none;stroke:#ffffff;stroke-linecap:square;stroke-linejoin:miter;"/>
   </g>
   <g id="patch_6">
    <path d="M 55.529545 13.090909 
L 447.709091 13.090909 
" style="fill:none;stroke:#ffffff;stroke-linecap:square;stroke-linejoin:miter;"/>
   </g>
   <g id="legend_1">
    <g id="patch_7">
     <path d="M 333.145028 65.125284 
L 440.709091 65.125284 
Q 442.709091 65.125284 442.709091 63.125284 
L 442.709091 20.090909 
Q 442.709091 18.090909 440.709091 18.090909 
L 333.145028 18.090909 
Q 331.145028 18.090909 331.145028 20.090909 
L 331.145028 63.125284 
Q 331.145028 65.125284 333.145028 65.125284 
z
" style="fill:none;opacity:0;"/>
    </g>
    <g id="line2d_30">
     <path d="M 335.145028 26.189347 
L 355.145028 26.189347 
" style="fill:none;stroke:#e24a33;stroke-linecap:square;stroke-width:1.5;"/>
    </g>
    <g id="line2d_31"/>
    <g id="text_16">
     <!-- Combined field -->
     <defs>
      <path d="M 64.40625 67.28125 
L 64.40625 56.890625 
Q 59.421875 61.53125 53.78125 63.8125 
Q 48.140625 66.109375 41.796875 66.109375 
Q 29.296875 66.109375 22.65625 58.46875 
Q 16.015625 50.828125 16.015625 36.375 
Q 16.015625 21.96875 22.65625 14.328125 
Q 29.296875 6.6875 41.796875 6.6875 
Q 48.140625 6.6875 53.78125 8.984375 
Q 59.421875 11.28125 64.40625 15.921875 
L 64.40625 5.609375 
Q 59.234375 2.09375 53.4375 0.328125 
Q 47.65625 -1.421875 41.21875 -1.421875 
Q 24.65625 -1.421875 15.125 8.703125 
Q 5.609375 18.84375 5.609375 36.375 
Q 5.609375 53.953125 15.125 64.078125 
Q 24.65625 74.21875 41.21875 74.21875 
Q 47.75 74.21875 53.53125 72.484375 
Q 59.328125 70.75 64.40625 67.28125 
z
" id="DejaVuSans-43"/>
      <path d="M 30.609375 48.390625 
Q 23.390625 48.390625 19.1875 42.75 
Q 14.984375 37.109375 14.984375 27.296875 
Q 14.984375 17.484375 19.15625 11.84375 
Q 23.34375 6.203125 30.609375 6.203125 
Q 37.796875 6.203125 41.984375 11.859375 
Q 46.1875 17.53125 46.1875 27.296875 
Q 46.1875 37.015625 41.984375 42.703125 
Q 37.796875 48.390625 30.609375 48.390625 
z
M 30.609375 56 
Q 42.328125 56 49.015625 48.375 
Q 55.71875 40.765625 55.71875 27.296875 
Q 55.71875 13.875 49.015625 6.21875 
Q 42.328125 -1.421875 30.609375 -1.421875 
Q 18.84375 -1.421875 12.171875 6.21875 
Q 5.515625 13.875 5.515625 27.296875 
Q 5.515625 40.765625 12.171875 48.375 
Q 18.84375 56 30.609375 56 
z
" id="DejaVuSans-6f"/>
      <path d="M 48.6875 27.296875 
Q 48.6875 37.203125 44.609375 42.84375 
Q 40.53125 48.484375 33.40625 48.484375 
Q 26.265625 48.484375 22.1875 42.84375 
Q 18.109375 37.203125 18.109375 27.296875 
Q 18.109375 17.390625 22.1875 11.75 
Q 26.265625 6.109375 33.40625 6.109375 
Q 40.53125 6.109375 44.609375 11.75 
Q 48.6875 17.390625 48.6875 27.296875 
z
M 18.109375 46.390625 
Q 20.953125 51.265625 25.265625 53.625 
Q 29.59375 56 35.59375 56 
Q 45.5625 56 51.78125 48.09375 
Q 58.015625 40.1875 58.015625 27.296875 
Q 58.015625 14.40625 51.78125 6.484375 
Q 45.5625 -1.421875 35.59375 -1.421875 
Q 29.59375 -1.421875 25.265625 0.953125 
Q 20.953125 3.328125 18.109375 8.203125 
L 18.109375 0 
L 9.078125 0 
L 9.078125 75.984375 
L 18.109375 75.984375 
z
" id="DejaVuSans-62"/>
      <path d="M 9.421875 54.6875 
L 18.40625 54.6875 
L 18.40625 0 
L 9.421875 0 
z
M 9.421875 75.984375 
L 18.40625 75.984375 
L 18.40625 64.59375 
L 9.421875 64.59375 
z
" id="DejaVuSans-69"/>
      <path d="M 54.890625 33.015625 
L 54.890625 0 
L 45.90625 0 
L 45.90625 32.71875 
Q 45.90625 40.484375 42.875 44.328125 
Q 39.84375 48.1875 33.796875 48.1875 
Q 26.515625 48.1875 22.3125 43.546875 
Q 18.109375 38.921875 18.109375 30.90625 
L 18.109375 0 
L 9.078125 0 
L 9.078125 54.6875 
L 18.109375 54.6875 
L 18.109375 46.1875 
Q 21.34375 51.125 25.703125 53.5625 
Q 30.078125 56 35.796875 56 
Q 45.21875 56 50.046875 50.171875 
Q 54.890625 44.34375 54.890625 33.015625 
z
" id="DejaVuSans-6e"/>
      <path d="M 56.203125 29.59375 
L 56.203125 25.203125 
L 14.890625 25.203125 
Q 15.484375 15.921875 20.484375 11.0625 
Q 25.484375 6.203125 34.421875 6.203125 
Q 39.59375 6.203125 44.453125 7.46875 
Q 49.3125 8.734375 54.109375 11.28125 
L 54.109375 2.78125 
Q 49.265625 0.734375 44.1875 -0.34375 
Q 39.109375 -1.421875 33.890625 -1.421875 
Q 20.796875 -1.421875 13.15625 6.1875 
Q 5.515625 13.8125 5.515625 26.8125 
Q 5.515625 40.234375 12.765625 48.109375 
Q 20.015625 56 32.328125 56 
Q 43.359375 56 49.78125 48.890625 
Q 56.203125 41.796875 56.203125 29.59375 
z
M 47.21875 32.234375 
Q 47.125 39.59375 43.09375 43.984375 
Q 39.0625 48.390625 32.421875 48.390625 
Q 24.90625 48.390625 20.390625 44.140625 
Q 15.875 39.890625 15.1875 32.171875 
z
" id="DejaVuSans-65"/>
      <path d="M 45.40625 46.390625 
L 45.40625 75.984375 
L 54.390625 75.984375 
L 54.390625 0 
L 45.40625 0 
L 45.40625 8.203125 
Q 42.578125 3.328125 38.25 0.953125 
Q 33.9375 -1.421875 27.875 -1.421875 
Q 17.96875 -1.421875 11.734375 6.484375 
Q 5.515625 14.40625 5.515625 27.296875 
Q 5.515625 40.1875 11.734375 48.09375 
Q 17.96875 56 27.875 56 
Q 33.9375 56 38.25 53.625 
Q 42.578125 51.265625 45.40625 46.390625 
z
M 14.796875 27.296875 
Q 14.796875 17.390625 18.875 11.75 
Q 22.953125 6.109375 30.078125 6.109375 
Q 37.203125 6.109375 41.296875 11.75 
Q 45.40625 17.390625 45.40625 27.296875 
Q 45.40625 37.203125 41.296875 42.84375 
Q 37.203125 48.484375 30.078125 48.484375 
Q 22.953125 48.484375 18.875 42.84375 
Q 14.796875 37.203125 14.796875 27.296875 
z
" id="DejaVuSans-64"/>
      <path d="M 9.421875 75.984375 
L 18.40625 75.984375 
L 18.40625 0 
L 9.421875 0 
z
" id="DejaVuSans-6c"/>
     </defs>
     <g style="fill:#ffffff;" transform="translate(363.145028 29.689347)scale(0.1 -0.1)">
      <use xlink:href="#DejaVuSans-43"/>
      <use x="69.824219" xlink:href="#DejaVuSans-6f"/>
      <use x="131.005859" xlink:href="#DejaVuSans-6d"/>
      <use x="228.417969" xlink:href="#DejaVuSans-62"/>
      <use x="291.894531" xlink:href="#DejaVuSans-69"/>
      <use x="319.677734" xlink:href="#DejaVuSans-6e"/>
      <use x="383.056641" xlink:href="#DejaVuSans-65"/>
      <use x="444.580078" xlink:href="#DejaVuSans-64"/>
      <use x="508.056641" xlink:href="#DejaVuSans-20"/>
      <use x="539.84375" xlink:href="#DejaVuSans-66"/>
      <use x="575.048828" xlink:href="#DejaVuSans-69"/>
      <use x="602.832031" xlink:href="#DejaVuSans-65"/>
      <use x="664.355469" xlink:href="#DejaVuSans-6c"/>
      <use x="692.138672" xlink:href="#DejaVuSans-64"/>
     </g>
    </g>
    <g id="line2d_32">
     <path d="M 335.145028 40.867472 
L 355.145028 40.867472 
" style="fill:none;stroke:#348abd;stroke-linecap:square;stroke-width:1.5;"/>
    </g>
    <g id="line2d_33"/>
    <g id="text_17">
     <!-- IR envelope -->
     <defs>
      <path d="M 9.8125 72.90625 
L 19.671875 72.90625 
L 19.671875 0 
L 9.8125 0 
z
" id="DejaVuSans-49"/>
      <path d="M 44.390625 34.1875 
Q 47.5625 33.109375 50.5625 29.59375 
Q 53.5625 26.078125 56.59375 19.921875 
L 66.609375 0 
L 56 0 
L 46.6875 18.703125 
Q 43.0625 26.03125 39.671875 28.421875 
Q 36.28125 30.8125 30.421875 30.8125 
L 19.671875 30.8125 
L 19.671875 0 
L 9.8125 0 
L 9.8125 72.90625 
L 32.078125 72.90625 
Q 44.578125 72.90625 50.734375 67.671875 
Q 56.890625 62.453125 56.890625 51.90625 
Q 56.890625 45.015625 53.6875 40.46875 
Q 50.484375 35.9375 44.390625 34.1875 
z
M 19.671875 64.796875 
L 19.671875 38.921875 
L 32.078125 38.921875 
Q 39.203125 38.921875 42.84375 42.21875 
Q 46.484375 45.515625 46.484375 51.90625 
Q 46.484375 58.296875 42.84375 61.546875 
Q 39.203125 64.796875 32.078125 64.796875 
z
" id="DejaVuSans-52"/>
      <path d="M 2.984375 54.6875 
L 12.5 54.6875 
L 29.59375 8.796875 
L 46.6875 54.6875 
L 56.203125 54.6875 
L 35.6875 0 
L 23.484375 0 
z
" id="DejaVuSans-76"/>
      <path d="M 18.109375 8.203125 
L 18.109375 -20.796875 
L 9.078125 -20.796875 
L 9.078125 54.6875 
L 18.109375 54.6875 
L 18.109375 46.390625 
Q 20.953125 51.265625 25.265625 53.625 
Q 29.59375 56 35.59375 56 
Q 45.5625 56 51.78125 48.09375 
Q 58.015625 40.1875 58.015625 27.296875 
Q 58.015625 14.40625 51.78125 6.484375 
Q 45.5625 -1.421875 35.59375 -1.421875 
Q 29.59375 -1.421875 25.265625 0.953125 
Q 20.953125 3.328125 18.109375 8.203125 
z
M 48.6875 27.296875 
Q 48.6875 37.203125 44.609375 42.84375 
Q 40.53125 48.484375 33.40625 48.484375 
Q 26.265625 48.484375 22.1875 42.84375 
Q 18.109375 37.203125 18.109375 27.296875 
Q 18.109375 17.390625 22.1875 11.75 
Q 26.265625 6.109375 33.40625 6.109375 
Q 40.53125 6.109375 44.609375 11.75 
Q 48.6875 17.390625 48.6875 27.296875 
z
" id="DejaVuSans-70"/>
     </defs>
     <g style="fill:#ffffff;" transform="translate(363.145028 44.367472)scale(0.1 -0.1)">
      <use xlink:href="#DejaVuSans-49"/>
      <use x="29.492188" xlink:href="#DejaVuSans-52"/>
      <use x="98.974609" xlink:href="#DejaVuSans-20"/>
      <use x="130.761719" xlink:href="#DejaVuSans-65"/>
      <use x="192.285156" xlink:href="#DejaVuSans-6e"/>
      <use x="255.664062" xlink:href="#DejaVuSans-76"/>
      <use x="314.84375" xlink:href="#DejaVuSans-65"/>
      <use x="376.367188" xlink:href="#DejaVuSans-6c"/>
      <use x="404.150391" xlink:href="#DejaVuSans-6f"/>
      <use x="465.332031" xlink:href="#DejaVuSans-70"/>
      <use x="528.808594" xlink:href="#DejaVuSans-65"/>
     </g>
    </g>
    <g id="line2d_34">
     <path d="M 335.145028 55.545597 
L 355.145028 55.545597 
" style="fill:none;stroke:#988ed5;stroke-linecap:square;stroke-width:1.5;"/>
    </g>
    <g id="line2d_35"/>
    <g id="text_18">
     <!-- XUV envelope -->
     <defs>
      <path d="M 6.296875 72.90625 
L 16.890625 72.90625 
L 35.015625 45.796875 
L 53.21875 72.90625 
L 63.8125 72.90625 
L 40.375 37.890625 
L 65.375 0 
L 54.78125 0 
L 34.28125 31 
L 13.625 0 
L 2.984375 0 
L 29 38.921875 
z
" id="DejaVuSans-58"/>
      <path d="M 8.6875 72.90625 
L 18.609375 72.90625 
L 18.609375 28.609375 
Q 18.609375 16.890625 22.84375 11.734375 
Q 27.09375 6.59375 36.625 6.59375 
Q 46.09375 6.59375 50.34375 11.734375 
Q 54.59375 16.890625 54.59375 28.609375 
L 54.59375 72.90625 
L 64.5 72.90625 
L 64.5 27.390625 
Q 64.5 13.140625 57.4375 5.859375 
Q 50.390625 -1.421875 36.625 -1.421875 
Q 22.796875 -1.421875 15.734375 5.859375 
Q 8.6875 13.140625 8.6875 27.390625 
z
" id="DejaVuSans-55"/>
     </defs>
     <g style="fill:#ffffff;" transform="translate(363.145028 59.045597)scale(0.1 -0.1)">
      <use xlink:href="#DejaVuSans-58"/>
      <use x="68.505859" xlink:href="#DejaVuSans-55"/>
      <use x="141.699219" xlink:href="#DejaVuSans-56"/>
      <use x="210.107422" xlink:href="#DejaVuSans-20"/>
      <use x="241.894531" xlink:href="#DejaVuSans-65"/>
      <use x="303.417969" xlink:href="#DejaVuSans-6e"/>
      <use x="366.796875" xlink:href="#DejaVuSans-76"/>
      <use x="425.976562" xlink:href="#DejaVuSans-65"/>
      <use x="487.5" xlink:href="#DejaVuSans-6c"/>
      <use x="515.283203" xlink:href="#DejaVuSans-6f"/>
      <use x="576.464844" xlink:href="#DejaVuSans-70"/>
      <use x="639.941406" xlink:href="#DejaVuSans-65"/>
     </g>
    </g>
   </g>
  </g>
 </g>
 <defs>
  <clipPath id="pd86b425307">
   <rect height="288.106818" width="392.179545" x="55.529545" y="13.090909"/>
  </clipPath>
 </defs>
</svg>
