<?xml version="1.0" encoding="utf-8" standalone="no"?>
<!DOCTYPE svg PUBLIC "-//W3C//DTD SVG 1.1//EN"
  "http://www.w3.org/Graphics/SVG/1.1/DTD/svg11.dtd">
<!-- Created with matplotlib (http://matplotlib.org/) -->
<svg height="345pt" version="1.1" viewBox="0 0 460 345" width="460pt" xmlns="http://www.w3.org/2000/svg" xmlns:xlink="http://www.w3.org/1999/xlink">
 <defs>
  <style type="text/css">
*{stroke-linecap:butt;stroke-linejoin:round;}
  </style>
 </defs>
 <g id="figure_1">
  <g id="patch_1">
   <path d="M 0 345.6 
L 460.8 345.6 
L 460.8 0 
L 0 0 
z
" style="fill:none;"/>
  </g>
  <g id="axes_1">
   <g id="patch_2">
    <path d="M 52.1345 299.6575 
L 447.48 299.6575 
L 447.48 13.871972 
L 52.1345 13.871972 
z
" style="fill:none;"/>
   </g>
   <g id="matplotlib.axis_1">
    <g id="xtick_1">
     <g id="line2d_1">
      <path clip-path="url(#p47e4c90710)" d="M 102.777932 299.6575 
L 102.777932 13.871972 
" style="fill:none;stroke:#ffffff;stroke-linecap:square;stroke-width:0.8;"/>
     </g>
     <g id="line2d_2">
      <defs>
       <path d="M 0 0 
L 0 3.5 
" id="mfaee0fbfbf" style="stroke:#555555;stroke-width:0.8;"/>
      </defs>
      <g>
       <use style="fill:#555555;stroke:#555555;stroke-width:0.8;" x="102.777932" xlink:href="#mfaee0fbfbf" y="299.6575"/>
      </g>
     </g>
     <g id="text_1">
      <!-- 0 -->
      <defs>
       <path d="M 31.78125 66.40625 
Q 24.171875 66.40625 20.328125 58.90625 
Q 16.5 51.421875 16.5 36.375 
Q 16.5 21.390625 20.328125 13.890625 
Q 24.171875 6.390625 31.78125 6.390625 
Q 39.453125 6.390625 43.28125 13.890625 
Q 47.125 21.390625 47.125 36.375 
Q 47.125 51.421875 43.28125 58.90625 
Q 39.453125 66.40625 31.78125 66.40625 
z
M 31.78125 74.21875 
Q 44.046875 74.21875 50.515625 64.515625 
Q 56.984375 54.828125 56.984375 36.375 
Q 56.984375 17.96875 50.515625 8.265625 
Q 44.046875 -1.421875 31.78125 -1.421875 
Q 19.53125 -1.421875 13.0625 8.265625 
Q 6.59375 17.96875 6.59375 36.375 
Q 6.59375 54.828125 13.0625 64.515625 
Q 19.53125 74.21875 31.78125 74.21875 
z
" id="DejaVuSans-30"/>
      </defs>
      <g style="fill:#555555;" transform="translate(99.596682 314.255937)scale(0.1 -0.1)">
       <use xlink:href="#DejaVuSans-30"/>
      </g>
     </g>
    </g>
    <g id="xtick_2">
     <g id="line2d_3">
      <path clip-path="url(#p47e4c90710)" d="M 184.460886 299.6575 
L 184.460886 13.871972 
" style="fill:none;stroke:#ffffff;stroke-linecap:square;stroke-width:0.8;"/>
     </g>
     <g id="line2d_4">
      <g>
       <use style="fill:#555555;stroke:#555555;stroke-width:0.8;" x="184.460886" xlink:href="#mfaee0fbfbf" y="299.6575"/>
      </g>
     </g>
     <g id="text_2">
      <!-- 1 -->
      <defs>
       <path d="M 12.40625 8.296875 
L 28.515625 8.296875 
L 28.515625 63.921875 
L 10.984375 60.40625 
L 10.984375 69.390625 
L 28.421875 72.90625 
L 38.28125 72.90625 
L 38.28125 8.296875 
L 54.390625 8.296875 
L 54.390625 0 
L 12.40625 0 
z
" id="DejaVuSans-31"/>
      </defs>
      <g style="fill:#555555;" transform="translate(181.279636 314.255937)scale(0.1 -0.1)">
       <use xlink:href="#DejaVuSans-31"/>
      </g>
     </g>
    </g>
    <g id="xtick_3">
     <g id="line2d_5">
      <path clip-path="url(#p47e4c90710)" d="M 266.143841 299.6575 
L 266.143841 13.871972 
" style="fill:none;stroke:#ffffff;stroke-linecap:square;stroke-width:0.8;"/>
     </g>
     <g id="line2d_6">
      <g>
       <use style="fill:#555555;stroke:#555555;stroke-width:0.8;" x="266.143841" xlink:href="#mfaee0fbfbf" y="299.6575"/>
      </g>
     </g>
     <g id="text_3">
      <!-- 2 -->
      <defs>
       <path d="M 19.1875 8.296875 
L 53.609375 8.296875 
L 53.609375 0 
L 7.328125 0 
L 7.328125 8.296875 
Q 12.9375 14.109375 22.625 23.890625 
Q 32.328125 33.6875 34.8125 36.53125 
Q 39.546875 41.84375 41.421875 45.53125 
Q 43.3125 49.21875 43.3125 52.78125 
Q 43.3125 58.59375 39.234375 62.25 
Q 35.15625 65.921875 28.609375 65.921875 
Q 23.96875 65.921875 18.8125 64.3125 
Q 13.671875 62.703125 7.8125 59.421875 
L 7.8125 69.390625 
Q 13.765625 71.78125 18.9375 73 
Q 24.125 74.21875 28.421875 74.21875 
Q 39.75 74.21875 46.484375 68.546875 
Q 53.21875 62.890625 53.21875 53.421875 
Q 53.21875 48.921875 51.53125 44.890625 
Q 49.859375 40.875 45.40625 35.40625 
Q 44.1875 33.984375 37.640625 27.21875 
Q 31.109375 20.453125 19.1875 8.296875 
z
" id="DejaVuSans-32"/>
      </defs>
      <g style="fill:#555555;" transform="translate(262.962591 314.255937)scale(0.1 -0.1)">
       <use xlink:href="#DejaVuSans-32"/>
      </g>
     </g>
    </g>
    <g id="xtick_4">
     <g id="line2d_7">
      <path clip-path="url(#p47e4c90710)" d="M 347.826795 299.6575 
L 347.826795 13.871972 
" style="fill:none;stroke:#ffffff;stroke-linecap:square;stroke-width:0.8;"/>
     </g>
     <g id="line2d_8">
      <g>
       <use style="fill:#555555;stroke:#555555;stroke-width:0.8;" x="347.826795" xlink:href="#mfaee0fbfbf" y="299.6575"/>
      </g>
     </g>
     <g id="text_4">
      <!-- 3 -->
      <defs>
       <path d="M 40.578125 39.3125 
Q 47.65625 37.796875 51.625 33 
Q 55.609375 28.21875 55.609375 21.1875 
Q 55.609375 10.40625 48.1875 4.484375 
Q 40.765625 -1.421875 27.09375 -1.421875 
Q 22.515625 -1.421875 17.65625 -0.515625 
Q 12.796875 0.390625 7.625 2.203125 
L 7.625 11.71875 
Q 11.71875 9.328125 16.59375 8.109375 
Q 21.484375 6.890625 26.8125 6.890625 
Q 36.078125 6.890625 40.9375 10.546875 
Q 45.796875 14.203125 45.796875 21.1875 
Q 45.796875 27.640625 41.28125 31.265625 
Q 36.765625 34.90625 28.71875 34.90625 
L 20.21875 34.90625 
L 20.21875 43.015625 
L 29.109375 43.015625 
Q 36.375 43.015625 40.234375 45.921875 
Q 44.09375 48.828125 44.09375 54.296875 
Q 44.09375 59.90625 40.109375 62.90625 
Q 36.140625 65.921875 28.71875 65.921875 
Q 24.65625 65.921875 20.015625 65.03125 
Q 15.375 64.15625 9.8125 62.3125 
L 9.8125 71.09375 
Q 15.4375 72.65625 20.34375 73.4375 
Q 25.25 74.21875 29.59375 74.21875 
Q 40.828125 74.21875 47.359375 69.109375 
Q 53.90625 64.015625 53.90625 55.328125 
Q 53.90625 49.265625 50.4375 45.09375 
Q 46.96875 40.921875 40.578125 39.3125 
z
" id="DejaVuSans-33"/>
      </defs>
      <g style="fill:#555555;" transform="translate(344.645545 314.255937)scale(0.1 -0.1)">
       <use xlink:href="#DejaVuSans-33"/>
      </g>
     </g>
    </g>
    <g id="xtick_5">
     <g id="line2d_9">
      <path clip-path="url(#p47e4c90710)" d="M 429.50975 299.6575 
L 429.50975 13.871972 
" style="fill:none;stroke:#ffffff;stroke-linecap:square;stroke-width:0.8;"/>
     </g>
     <g id="line2d_10">
      <g>
       <use style="fill:#555555;stroke:#555555;stroke-width:0.8;" x="429.50975" xlink:href="#mfaee0fbfbf" y="299.6575"/>
      </g>
     </g>
     <g id="text_5">
      <!-- 4 -->
      <defs>
       <path d="M 37.796875 64.3125 
L 12.890625 25.390625 
L 37.796875 25.390625 
z
M 35.203125 72.90625 
L 47.609375 72.90625 
L 47.609375 25.390625 
L 58.015625 25.390625 
L 58.015625 17.1875 
L 47.609375 17.1875 
L 47.609375 0 
L 37.796875 0 
L 37.796875 17.1875 
L 4.890625 17.1875 
L 4.890625 26.703125 
z
" id="DejaVuSans-34"/>
      </defs>
      <g style="fill:#555555;" transform="translate(426.3285 314.255937)scale(0.1 -0.1)">
       <use xlink:href="#DejaVuSans-34"/>
      </g>
     </g>
    </g>
    <g id="text_6">
     <!-- $t$ [fs] -->
     <defs>
      <path d="M 42.28125 54.6875 
L 40.921875 47.703125 
L 23 47.703125 
L 17.1875 18.015625 
Q 16.890625 16.359375 16.75 15.234375 
Q 16.609375 14.109375 16.609375 13.484375 
Q 16.609375 10.359375 18.484375 8.9375 
Q 20.359375 7.515625 24.515625 7.515625 
L 33.59375 7.515625 
L 32.078125 0 
L 23.484375 0 
Q 15.484375 0 11.546875 3.125 
Q 7.625 6.25 7.625 12.59375 
Q 7.625 13.71875 7.765625 15.0625 
Q 7.90625 16.40625 8.203125 18.015625 
L 14.015625 47.703125 
L 6.390625 47.703125 
L 7.8125 54.6875 
L 15.28125 54.6875 
L 18.3125 70.21875 
L 27.296875 70.21875 
L 24.3125 54.6875 
z
" id="DejaVuSans-Oblique-74"/>
      <path id="DejaVuSans-20"/>
      <path d="M 8.59375 75.984375 
L 29.296875 75.984375 
L 29.296875 69 
L 17.578125 69 
L 17.578125 -6.203125 
L 29.296875 -6.203125 
L 29.296875 -13.1875 
L 8.59375 -13.1875 
z
" id="DejaVuSans-5b"/>
      <path d="M 37.109375 75.984375 
L 37.109375 68.5 
L 28.515625 68.5 
Q 23.6875 68.5 21.796875 66.546875 
Q 19.921875 64.59375 19.921875 59.515625 
L 19.921875 54.6875 
L 34.71875 54.6875 
L 34.71875 47.703125 
L 19.921875 47.703125 
L 19.921875 0 
L 10.890625 0 
L 10.890625 47.703125 
L 2.296875 47.703125 
L 2.296875 54.6875 
L 10.890625 54.6875 
L 10.890625 58.5 
Q 10.890625 67.625 15.140625 71.796875 
Q 19.390625 75.984375 28.609375 75.984375 
z
" id="DejaVuSans-66"/>
      <path d="M 44.28125 53.078125 
L 44.28125 44.578125 
Q 40.484375 46.53125 36.375 47.5 
Q 32.28125 48.484375 27.875 48.484375 
Q 21.1875 48.484375 17.84375 46.4375 
Q 14.5 44.390625 14.5 40.28125 
Q 14.5 37.15625 16.890625 35.375 
Q 19.28125 33.59375 26.515625 31.984375 
L 29.59375 31.296875 
Q 39.15625 29.25 43.1875 25.515625 
Q 47.21875 21.78125 47.21875 15.09375 
Q 47.21875 7.46875 41.1875 3.015625 
Q 35.15625 -1.421875 24.609375 -1.421875 
Q 20.21875 -1.421875 15.453125 -0.5625 
Q 10.6875 0.296875 5.421875 2 
L 5.421875 11.28125 
Q 10.40625 8.6875 15.234375 7.390625 
Q 20.0625 6.109375 24.8125 6.109375 
Q 31.15625 6.109375 34.5625 8.28125 
Q 37.984375 10.453125 37.984375 14.40625 
Q 37.984375 18.0625 35.515625 20.015625 
Q 33.0625 21.96875 24.703125 23.78125 
L 21.578125 24.515625 
Q 13.234375 26.265625 9.515625 29.90625 
Q 5.8125 33.546875 5.8125 39.890625 
Q 5.8125 47.609375 11.28125 51.796875 
Q 16.75 56 26.8125 56 
Q 31.78125 56 36.171875 55.265625 
Q 40.578125 54.546875 44.28125 53.078125 
z
" id="DejaVuSans-73"/>
      <path d="M 30.421875 75.984375 
L 30.421875 -13.1875 
L 9.71875 -13.1875 
L 9.71875 -6.203125 
L 21.390625 -6.203125 
L 21.390625 69 
L 9.71875 69 
L 9.71875 75.984375 
z
" id="DejaVuSans-5d"/>
     </defs>
     <g style="fill:#555555;" transform="translate(235.58725 329.45375)scale(0.12 -0.12)">
      <use transform="translate(0 0.015625)" xlink:href="#DejaVuSans-Oblique-74"/>
      <use transform="translate(39.208984 0.015625)" xlink:href="#DejaVuSans-20"/>
      <use transform="translate(70.996094 0.015625)" xlink:href="#DejaVuSans-5b"/>
      <use transform="translate(110.009766 0.015625)" xlink:href="#DejaVuSans-66"/>
      <use transform="translate(145.214844 0.015625)" xlink:href="#DejaVuSans-73"/>
      <use transform="translate(197.314453 0.015625)" xlink:href="#DejaVuSans-5d"/>
     </g>
    </g>
   </g>
   <g id="matplotlib.axis_2">
    <g id="ytick_1">
     <g id="line2d_11">
      <path clip-path="url(#p47e4c90710)" d="M 52.1345 298.739015 
L 447.48 298.739015 
" style="fill:none;stroke:#ffffff;stroke-linecap:square;stroke-width:0.8;"/>
     </g>
     <g id="line2d_12">
      <defs>
       <path d="M 0 0 
L -3.5 0 
" id="m55b37ea39b" style="stroke:#555555;stroke-width:0.8;"/>
      </defs>
      <g>
       <use style="fill:#555555;stroke:#555555;stroke-width:0.8;" x="52.1345" xlink:href="#m55b37ea39b" y="298.739015"/>
      </g>
     </g>
     <g id="text_7">
      <!-- −3 -->
      <defs>
       <path d="M 10.59375 35.5 
L 73.1875 35.5 
L 73.1875 27.203125 
L 10.59375 27.203125 
z
" id="DejaVuSans-2212"/>
      </defs>
      <g style="fill:#555555;" transform="translate(30.392313 302.538234)scale(0.1 -0.1)">
       <use xlink:href="#DejaVuSans-2212"/>
       <use x="83.789062" xlink:href="#DejaVuSans-33"/>
      </g>
     </g>
    </g>
    <g id="ytick_2">
     <g id="line2d_13">
      <path clip-path="url(#p47e4c90710)" d="M 52.1345 251.413358 
L 447.48 251.413358 
" style="fill:none;stroke:#ffffff;stroke-linecap:square;stroke-width:0.8;"/>
     </g>
     <g id="line2d_14">
      <g>
       <use style="fill:#555555;stroke:#555555;stroke-width:0.8;" x="52.1345" xlink:href="#m55b37ea39b" y="251.413358"/>
      </g>
     </g>
     <g id="text_8">
      <!-- −2 -->
      <g style="fill:#555555;" transform="translate(30.392313 255.212577)scale(0.1 -0.1)">
       <use xlink:href="#DejaVuSans-2212"/>
       <use x="83.789062" xlink:href="#DejaVuSans-32"/>
      </g>
     </g>
    </g>
    <g id="ytick_3">
     <g id="line2d_15">
      <path clip-path="url(#p47e4c90710)" d="M 52.1345 204.087702 
L 447.48 204.087702 
" style="fill:none;stroke:#ffffff;stroke-linecap:square;stroke-width:0.8;"/>
     </g>
     <g id="line2d_16">
      <g>
       <use style="fill:#555555;stroke:#555555;stroke-width:0.8;" x="52.1345" xlink:href="#m55b37ea39b" y="204.087702"/>
      </g>
     </g>
     <g id="text_9">
      <!-- −1 -->
      <g style="fill:#555555;" transform="translate(30.392313 207.88692)scale(0.1 -0.1)">
       <use xlink:href="#DejaVuSans-2212"/>
       <use x="83.789062" xlink:href="#DejaVuSans-31"/>
      </g>
     </g>
    </g>
    <g id="ytick_4">
     <g id="line2d_17">
      <path clip-path="url(#p47e4c90710)" d="M 52.1345 156.762045 
L 447.48 156.762045 
" style="fill:none;stroke:#ffffff;stroke-linecap:square;stroke-width:0.8;"/>
     </g>
     <g id="line2d_18">
      <g>
       <use style="fill:#555555;stroke:#555555;stroke-width:0.8;" x="52.1345" xlink:href="#m55b37ea39b" y="156.762045"/>
      </g>
     </g>
     <g id="text_10">
      <!-- 0 -->
      <g style="fill:#555555;" transform="translate(38.772 160.561264)scale(0.1 -0.1)">
       <use xlink:href="#DejaVuSans-30"/>
      </g>
     </g>
    </g>
    <g id="ytick_5">
     <g id="line2d_19">
      <path clip-path="url(#p47e4c90710)" d="M 52.1345 109.436388 
L 447.48 109.436388 
" style="fill:none;stroke:#ffffff;stroke-linecap:square;stroke-width:0.8;"/>
     </g>
     <g id="line2d_20">
      <g>
       <use style="fill:#555555;stroke:#555555;stroke-width:0.8;" x="52.1345" xlink:href="#m55b37ea39b" y="109.436388"/>
      </g>
     </g>
     <g id="text_11">
      <!-- 1 -->
      <g style="fill:#555555;" transform="translate(38.772 113.235607)scale(0.1 -0.1)">
       <use xlink:href="#DejaVuSans-31"/>
      </g>
     </g>
    </g>
    <g id="ytick_6">
     <g id="line2d_21">
      <path clip-path="url(#p47e4c90710)" d="M 52.1345 62.110732 
L 447.48 62.110732 
" style="fill:none;stroke:#ffffff;stroke-linecap:square;stroke-width:0.8;"/>
     </g>
     <g id="line2d_22">
      <g>
       <use style="fill:#555555;stroke:#555555;stroke-width:0.8;" x="52.1345" xlink:href="#m55b37ea39b" y="62.110732"/>
      </g>
     </g>
     <g id="text_12">
      <!-- 2 -->
      <g style="fill:#555555;" transform="translate(38.772 65.90995)scale(0.1 -0.1)">
       <use xlink:href="#DejaVuSans-32"/>
      </g>
     </g>
    </g>
    <g id="ytick_7">
     <g id="line2d_23">
      <path clip-path="url(#p47e4c90710)" d="M 52.1345 14.785075 
L 447.48 14.785075 
" style="fill:none;stroke:#ffffff;stroke-linecap:square;stroke-width:0.8;"/>
     </g>
     <g id="line2d_24">
      <g>
       <use style="fill:#555555;stroke:#555555;stroke-width:0.8;" x="52.1345" xlink:href="#m55b37ea39b" y="14.785075"/>
      </g>
     </g>
     <g id="text_13">
      <!-- 3 -->
      <g style="fill:#555555;" transform="translate(38.772 18.584294)scale(0.1 -0.1)">
       <use xlink:href="#DejaVuSans-33"/>
      </g>
     </g>
    </g>
    <g id="text_14">
     <!-- $E$ [$10^8$ V/m] -->
     <defs>
      <path d="M 16.890625 72.90625 
L 62.984375 72.90625 
L 61.375 64.59375 
L 25.09375 64.59375 
L 20.90625 43.015625 
L 55.71875 43.015625 
L 54.109375 34.71875 
L 19.28125 34.71875 
L 14.203125 8.296875 
L 51.3125 8.296875 
L 49.703125 0 
L 2.6875 0 
z
" id="DejaVuSans-Oblique-45"/>
      <path d="M 31.78125 34.625 
Q 24.75 34.625 20.71875 30.859375 
Q 16.703125 27.09375 16.703125 20.515625 
Q 16.703125 13.921875 20.71875 10.15625 
Q 24.75 6.390625 31.78125 6.390625 
Q 38.8125 6.390625 42.859375 10.171875 
Q 46.921875 13.96875 46.921875 20.515625 
Q 46.921875 27.09375 42.890625 30.859375 
Q 38.875 34.625 31.78125 34.625 
z
M 21.921875 38.8125 
Q 15.578125 40.375 12.03125 44.71875 
Q 8.5 49.078125 8.5 55.328125 
Q 8.5 64.0625 14.71875 69.140625 
Q 20.953125 74.21875 31.78125 74.21875 
Q 42.671875 74.21875 48.875 69.140625 
Q 55.078125 64.0625 55.078125 55.328125 
Q 55.078125 49.078125 51.53125 44.71875 
Q 48 40.375 41.703125 38.8125 
Q 48.828125 37.15625 52.796875 32.3125 
Q 56.78125 27.484375 56.78125 20.515625 
Q 56.78125 9.90625 50.3125 4.234375 
Q 43.84375 -1.421875 31.78125 -1.421875 
Q 19.734375 -1.421875 13.25 4.234375 
Q 6.78125 9.90625 6.78125 20.515625 
Q 6.78125 27.484375 10.78125 32.3125 
Q 14.796875 37.15625 21.921875 38.8125 
z
M 18.3125 54.390625 
Q 18.3125 48.734375 21.84375 45.5625 
Q 25.390625 42.390625 31.78125 42.390625 
Q 38.140625 42.390625 41.71875 45.5625 
Q 45.3125 48.734375 45.3125 54.390625 
Q 45.3125 60.0625 41.71875 63.234375 
Q 38.140625 66.40625 31.78125 66.40625 
Q 25.390625 66.40625 21.84375 63.234375 
Q 18.3125 60.0625 18.3125 54.390625 
z
" id="DejaVuSans-38"/>
      <path d="M 28.609375 0 
L 0.78125 72.90625 
L 11.078125 72.90625 
L 34.1875 11.53125 
L 57.328125 72.90625 
L 67.578125 72.90625 
L 39.796875 0 
z
" id="DejaVuSans-56"/>
      <path d="M 25.390625 72.90625 
L 33.6875 72.90625 
L 8.296875 -9.28125 
L 0 -9.28125 
z
" id="DejaVuSans-2f"/>
      <path d="M 52 44.1875 
Q 55.375 50.25 60.0625 53.125 
Q 64.75 56 71.09375 56 
Q 79.640625 56 84.28125 50.015625 
Q 88.921875 44.046875 88.921875 33.015625 
L 88.921875 0 
L 79.890625 0 
L 79.890625 32.71875 
Q 79.890625 40.578125 77.09375 44.375 
Q 74.3125 48.1875 68.609375 48.1875 
Q 61.625 48.1875 57.5625 43.546875 
Q 53.515625 38.921875 53.515625 30.90625 
L 53.515625 0 
L 44.484375 0 
L 44.484375 32.71875 
Q 44.484375 40.625 41.703125 44.40625 
Q 38.921875 48.1875 33.109375 48.1875 
Q 26.21875 48.1875 22.15625 43.53125 
Q 18.109375 38.875 18.109375 30.90625 
L 18.109375 0 
L 9.078125 0 
L 9.078125 54.6875 
L 18.109375 54.6875 
L 18.109375 46.1875 
Q 21.1875 51.21875 25.484375 53.609375 
Q 29.78125 56 35.6875 56 
Q 41.65625 56 45.828125 52.96875 
Q 50 49.953125 52 44.1875 
z
" id="DejaVuSans-6d"/>
     </defs>
     <g style="fill:#555555;" transform="translate(23.896687 191.564736)rotate(-90)scale(0.12 -0.12)">
      <use transform="translate(0 0.765625)" xlink:href="#DejaVuSans-Oblique-45"/>
      <use transform="translate(63.183594 0.765625)" xlink:href="#DejaVuSans-20"/>
      <use transform="translate(94.970703 0.765625)" xlink:href="#DejaVuSans-5b"/>
      <use transform="translate(133.984375 0.765625)" xlink:href="#DejaVuSans-31"/>
      <use transform="translate(197.607422 0.765625)" xlink:href="#DejaVuSans-30"/>
      <use transform="translate(262.1875 39.046875)scale(0.7)" xlink:href="#DejaVuSans-38"/>
      <use transform="translate(309.458008 0.765625)" xlink:href="#DejaVuSans-20"/>
      <use transform="translate(341.245117 0.765625)" xlink:href="#DejaVuSans-56"/>
      <use transform="translate(409.65332 0.765625)" xlink:href="#DejaVuSans-2f"/>
      <use transform="translate(443.344727 0.765625)" xlink:href="#DejaVuSans-6d"/>
      <use transform="translate(540.756836 0.765625)" xlink:href="#DejaVuSans-5d"/>
     </g>
    </g>
   </g>
   <g id="line2d_25">
    <path clip-path="url(#p47e4c90710)" d="M 70.10475 156.762045 
L 102.810605 156.761106 
L 103.17001 156.627567 
L 103.529415 156.275208 
L 104.248225 155.003015 
L 106.404655 149.881347 
L 106.76406 149.430716 
L 107.123465 149.240887 
L 107.48287 149.352236 
L 107.842275 149.794282 
L 108.20168 150.58398 
L 108.92049 153.204259 
L 109.6393 157.062224 
L 112.51454 174.876116 
L 112.873945 175.986087 
L 113.23335 176.581711 
L 113.592755 176.609223 
L 113.95216 176.031109 
L 114.311565 174.828146 
L 114.67097 173.000889 
L 115.38978 167.579178 
L 116.10859 160.182397 
L 118.624425 130.925693 
L 119.343235 125.89006 
L 119.70264 124.522109 
L 120.062045 124.0271 
L 120.42145 124.456032 
L 120.780855 125.833848 
L 121.14026 128.157742 
L 121.85907 135.489388 
L 122.57788 145.86174 
L 125.45312 193.907468 
L 126.17193 200.433556 
L 126.531335 202.025742 
L 126.89074 202.386174 
L 127.250145 201.467554 
L 127.60955 199.258424 
L 127.968955 195.784483 
L 128.687765 185.331174 
L 129.406575 171.038457 
L 132.281815 108.20486 
L 133.000625 100.251769 
L 133.36003 98.46914 
L 133.719435 98.277227 
L 134.07884 99.718694 
L 134.438245 102.790605 
L 134.79765 107.443498 
L 135.51646 121.065521 
L 136.594675 149.597048 
L 138.3917 201.418184 
L 139.11051 216.831585 
L 139.469915 222.34935 
L 139.82932 226.147949 
L 140.188725 228.087184 
L 140.54813 228.076659 
L 140.907535 226.079273 
L 141.26694 222.113269 
L 141.98575 208.626497 
L 142.70456 188.848645 
L 144.14218 138.926246 
L 145.220395 103.064913 
L 145.939205 85.081667 
L 146.29861 78.74303 
L 146.658015 74.466033 
L 147.01742 72.404067 
L 147.376825 72.650924 
L 147.73623 75.237206 
L 148.095635 80.128461 
L 148.814445 96.364319 
L 149.533255 119.825422 
L 150.970875 178.246493 
L 152.04909 219.650276 
L 152.7679 240.149622 
L 153.127305 247.277892 
L 153.48671 252.000259 
L 153.846115 254.151045 
L 154.20552 253.633996 
L 154.564925 250.425937 
L 154.92433 244.578434 
L 155.64314 225.540477 
L 156.36195 198.359768 
L 159.23719 71.960974 
L 159.956 53.686537 
L 160.315405 48.551926 
L 160.67481 46.346261 
L 161.034215 47.167329 
L 161.39362 51.029946 
L 161.753025 57.86453 
L 162.471835 79.757099 
L 163.190645 110.693096 
L 166.065885 252.402323 
L 166.784695 272.45774 
L 167.1441 277.971378 
L 167.503505 280.197952 
L 167.86291 279.03908 
L 168.222315 274.489231 
L 168.58172 266.636899 
L 169.30053 241.837706 
L 170.01934 207.111418 
L 172.89458 53.204615 
L 173.61339 33.315927 
L 173.972795 28.333118 
L 174.3322 26.871055 
L 174.691605 28.96982 
L 175.05101 34.571875 
L 175.410415 43.523648 
L 176.129225 70.409628 
L 177.20744 127.165142 
L 179.004465 229.999881 
L 179.723275 260.93372 
L 180.442085 280.522812 
L 180.80149 285.340742 
L 181.160895 286.63382 
L 181.5203 284.366598 
L 181.879705 278.60123 
L 182.23911 269.495766 
L 182.95792 242.347744 
L 184.036135 185.362224 
L 185.83316 82.681801 
L 186.55197 51.982582 
L 187.27078 32.694301 
L 187.630185 28.041548 
L 187.98959 26.917534 
L 188.348995 29.353073 
L 188.7084 35.281397 
L 189.067805 44.539987 
L 189.786615 71.948369 
L 190.86483 129.160363 
L 192.661855 231.680106 
L 193.380665 262.142802 
L 194.099475 281.129077 
L 194.45888 285.616365 
L 194.818285 286.571244 
L 195.17769 283.967539 
L 195.537095 277.876627 
L 195.8965 268.465484 
L 196.61531 240.798441 
L 197.693525 183.36352 
L 199.49055 81.010811 
L 200.20936 50.786526 
L 200.92817 32.103433 
L 201.287575 27.781889 
L 201.64698 26.996203 
L 202.006385 29.767913 
L 202.36579 36.021036 
L 202.725195 45.584148 
L 203.444005 73.508137 
L 204.52222 131.162426 
L 206.319245 233.341757 
L 207.038055 263.325758 
L 207.756865 281.70451 
L 208.11627 285.860042 
L 208.475675 286.476486 
L 208.83508 283.536944 
L 209.194485 277.121998 
L 209.55389 267.407509 
L 210.2727 239.228305 
L 211.350915 181.358222 
L 213.14794 79.358602 
L 213.86675 49.616742 
L 214.58556 31.54347 
L 214.944965 27.554208 
L 215.30437 27.107044 
L 215.663775 30.214237 
L 216.02318 36.790608 
L 216.74199 59.539581 
L 217.4608 92.876502 
L 218.89842 176.034353 
L 219.976635 234.984422 
L 220.695445 264.482296 
L 221.414255 282.248968 
L 221.77366 286.071714 
L 222.133065 286.34957 
L 222.49247 283.074919 
L 222.851875 276.33753 
L 223.570685 253.303202 
L 224.289495 219.755123 
L 225.727115 136.478948 
L 226.80533 77.725582 
L 227.52414 48.473522 
L 227.883545 38.117782 
L 228.24295 31.014552 
L 228.602355 27.358558 
L 228.96176 27.250028 
L 229.321165 30.691935 
L 229.68057 37.589923 
L 230.39938 60.908179 
L 231.11819 94.665336 
L 233.99343 252.421108 
L 234.71224 275.819135 
L 235.071645 282.762315 
L 235.43105 286.251328 
L 235.790455 286.190527 
L 236.14986 282.581578 
L 236.509265 275.523417 
L 237.228075 251.922679 
L 237.946885 217.958536 
L 240.822125 60.414012 
L 241.540935 37.299507 
L 241.90034 30.516808 
L 242.259745 27.19499 
L 242.61915 27.42512 
L 242.978555 31.200887 
L 243.33796 38.418783 
L 244.05677 62.30054 
L 244.77558 96.469564 
L 247.65082 253.793076 
L 248.36963 276.622626 
L 248.729035 283.244425 
L 249.08844 286.39884 
L 249.447845 285.999397 
L 249.80725 282.057045 
L 250.166655 274.679861 
L 250.885465 250.518565 
L 251.604275 216.146778 
L 254.479515 59.05403 
L 255.198325 36.510849 
L 255.55773 30.050362 
L 255.917135 27.063544 
L 256.27654 27.632277 
L 256.635945 31.740968 
L 256.99535 39.276983 
L 257.71416 63.71632 
L 258.43297 98.288741 
L 261.30821 255.140988 
L 262.02702 277.396402 
L 262.386425 283.695177 
L 262.74583 286.514212 
L 263.105235 285.776226 
L 263.46464 281.50145 
L 263.824045 273.807072 
L 264.542855 249.091207 
L 265.261665 214.320297 
L 268.136905 57.718272 
L 268.855715 35.752003 
L 269.21512 29.61533 
L 269.574525 26.964253 
L 269.93393 27.871447 
L 270.293335 32.312044 
L 270.65274 40.164308 
L 271.37155 65.155168 
L 272.09036 100.122413 
L 274.9656 256.46451 
L 275.68441 278.140271 
L 276.043815 284.114461 
L 276.40322 286.597417 
L 276.762625 285.521071 
L 277.12203 280.914929 
L 277.481435 272.905265 
L 278.200245 247.640959 
L 278.919055 212.479546 
L 281.794295 56.407068 
L 282.513105 35.023158 
L 282.87251 29.211821 
L 283.231915 26.89714 
L 283.59132 28.142572 
L 283.950725 32.913973 
L 284.31013 41.080541 
L 285.02894 66.616726 
L 285.74775 101.970128 
L 288.62299 257.763314 
L 289.3418 278.854048 
L 289.701205 284.502172 
L 290.06061 286.648433 
L 290.420015 285.233994 
L 290.77942 280.297629 
L 291.138825 271.974664 
L 291.857635 246.168181 
L 292.576445 210.624982 
L 295.09228 69.862325 
L 295.81109 43.165554 
L 296.170495 34.324494 
L 296.5299 28.839932 
L 296.889305 26.862223 
L 297.24871 28.445583 
L 297.608115 33.546606 
L 297.96752 42.025452 
L 298.68633 68.100633 
L 299.40514 103.831426 
L 301.920975 244.419258 
L 302.639785 270.851134 
L 302.99919 279.537556 
L 303.358595 284.858214 
L 303.718 286.667249 
L 304.077405 284.915067 
L 304.43681 279.649702 
L 304.796215 271.0155 
L 305.515025 244.673237 
L 306.233835 208.757065 
L 308.74967 70.459268 
L 309.46848 46.126429 
L 309.827885 38.538032 
L 310.18729 34.262844 
L 310.546695 33.381707 
L 310.9061 35.881433 
L 311.265505 41.656194 
L 311.62491 50.511441 
L 312.34372 76.281773 
L 313.421935 128.947882 
L 315.21896 220.511646 
L 315.93777 246.894358 
L 316.65658 262.922192 
L 317.015985 266.538079 
L 317.37539 267.110468 
L 317.734795 264.661031 
L 318.0942 259.294191 
L 318.81301 240.614309 
L 319.53182 213.361912 
L 322.40706 87.031516 
L 323.12587 68.372127 
L 323.485275 62.736284 
L 323.84468 59.746896 
L 324.204085 59.449419 
L 324.56349 61.814625 
L 324.922895 66.740429 
L 325.641705 83.525993 
L 326.360515 107.722464 
L 329.235755 217.977117 
L 329.954565 233.879167 
L 330.31397 238.58519 
L 330.673375 240.980978 
L 331.03278 241.037413 
L 331.392185 238.790348 
L 331.75159 234.338597 
L 332.4704 219.50713 
L 333.18921 198.41269 
L 336.06445 104.213127 
L 336.78326 91.014836 
L 337.142665 87.207451 
L 337.50207 85.372268 
L 337.861475 85.522974 
L 338.22088 87.618024 
L 338.580285 91.562805 
L 339.299095 104.380784 
L 340.017905 122.327684 
L 342.53374 193.11558 
L 343.25255 206.517522 
L 343.611955 211.04437 
L 343.97136 213.984458 
L 344.330765 215.292123 
L 344.69017 214.968201 
L 345.049575 213.059 
L 345.40898 209.653998 
L 346.12779 198.908504 
L 347.206005 175.82582 
L 349.00303 134.355417 
L 349.72184 121.990834 
L 350.44065 114.037412 
L 350.800055 111.933134 
L 351.15946 111.119812 
L 351.518865 111.583 
L 351.87827 113.272566 
L 352.237675 116.105088 
L 352.956485 124.719502 
L 354.0347 142.6394 
L 355.831725 173.597636 
L 356.550535 182.425094 
L 357.269345 187.838348 
L 357.62875 189.138455 
L 357.988155 189.490692 
L 358.34756 188.922201 
L 358.706965 187.486011 
L 359.425775 182.336555 
L 360.144585 174.87514 
L 362.66042 145.681157 
L 363.37923 140.351073 
L 363.738635 138.574247 
L 364.09804 137.422527 
L 364.457445 136.894811 
L 364.81685 136.970322 
L 365.176255 137.610136 
L 365.53566 138.759265 
L 366.25447 142.300753 
L 367.332685 149.441023 
L 368.770305 158.684131 
L 369.489115 161.905662 
L 370.207925 163.778764 
L 370.56733 164.19301 
L 370.926735 164.278518 
L 371.28614 164.065761 
L 371.645545 163.595915 
L 372.364355 162.090327 
L 374.16138 157.748811 
L 374.520785 157.212319 
L 374.88019 156.877248 
L 375.599 156.762045 
L 429.50975 156.762045 
L 429.50975 156.762045 
" style="fill:none;stroke:#e24a33;stroke-linecap:square;stroke-width:1.5;"/>
   </g>
   <g id="patch_3">
    <path d="M 52.1345 299.6575 
L 52.1345 13.871972 
" style="fill:none;stroke:#ffffff;stroke-linecap:square;stroke-linejoin:miter;"/>
   </g>
   <g id="patch_4">
    <path d="M 447.48 299.6575 
L 447.48 13.871972 
" style="fill:none;stroke:#ffffff;stroke-linecap:square;stroke-linejoin:miter;"/>
   </g>
   <g id="patch_5">
    <path d="M 52.1345 299.6575 
L 447.48 299.6575 
" style="fill:none;stroke:#ffffff;stroke-linecap:square;stroke-linejoin:miter;"/>
   </g>
   <g id="patch_6">
    <path d="M 52.1345 13.871972 
L 447.48 13.871972 
" style="fill:none;stroke:#ffffff;stroke-linecap:square;stroke-linejoin:miter;"/>
   </g>
  </g>
 </g>
 <defs>
  <clipPath id="p47e4c90710">
   <rect height="285.785528" width="395.3455" x="52.1345" y="13.871972"/>
  </clipPath>
 </defs>
</svg>
