<?xml version="1.0" encoding="utf-8" standalone="no"?>
<!DOCTYPE svg PUBLIC "-//W3C//DTD SVG 1.1//EN"
  "http://www.w3.org/Graphics/SVG/1.1/DTD/svg11.dtd">
<!-- Created with matplotlib (http://matplotlib.org/) -->
<svg height="345pt" version="1.1" viewBox="0 0 460 345" width="460pt" xmlns="http://www.w3.org/2000/svg" xmlns:xlink="http://www.w3.org/1999/xlink">
 <defs>
  <style type="text/css">
*{stroke-linecap:butt;stroke-linejoin:round;}
  </style>
 </defs>
 <g id="figure_1">
  <g id="patch_1">
   <path d="M 0 345.6 
L 460.8 345.6 
L 460.8 0 
L 0 0 
z
" style="fill:none;"/>
  </g>
  <g id="axes_1">
   <g id="patch_2">
    <path d="M 52.1345 299.6575 
L 447.48 299.6575 
L 447.48 13.32 
L 52.1345 13.32 
z
" style="fill:none;"/>
   </g>
   <g id="matplotlib.axis_1">
    <g id="xtick_1">
     <g id="line2d_1">
      <path clip-path="url(#p5aab1c7fe1)" d="M 85.079958 299.6575 
L 85.079958 13.32 
" style="fill:none;stroke:#ffffff;stroke-linecap:square;stroke-width:0.8;"/>
     </g>
     <g id="line2d_2">
      <defs>
       <path d="M 0 0 
L 0 3.5 
" id="m88cf7b26fe" style="stroke:#555555;stroke-width:0.8;"/>
      </defs>
      <g>
       <use style="fill:#555555;stroke:#555555;stroke-width:0.8;" x="85.079958" xlink:href="#m88cf7b26fe" y="299.6575"/>
      </g>
     </g>
     <g id="text_1">
      <!-- 0.0 -->
      <defs>
       <path d="M 31.78125 66.40625 
Q 24.171875 66.40625 20.328125 58.90625 
Q 16.5 51.421875 16.5 36.375 
Q 16.5 21.390625 20.328125 13.890625 
Q 24.171875 6.390625 31.78125 6.390625 
Q 39.453125 6.390625 43.28125 13.890625 
Q 47.125 21.390625 47.125 36.375 
Q 47.125 51.421875 43.28125 58.90625 
Q 39.453125 66.40625 31.78125 66.40625 
z
M 31.78125 74.21875 
Q 44.046875 74.21875 50.515625 64.515625 
Q 56.984375 54.828125 56.984375 36.375 
Q 56.984375 17.96875 50.515625 8.265625 
Q 44.046875 -1.421875 31.78125 -1.421875 
Q 19.53125 -1.421875 13.0625 8.265625 
Q 6.59375 17.96875 6.59375 36.375 
Q 6.59375 54.828125 13.0625 64.515625 
Q 19.53125 74.21875 31.78125 74.21875 
z
" id="DejaVuSans-30"/>
       <path d="M 10.6875 12.40625 
L 21 12.40625 
L 21 0 
L 10.6875 0 
z
" id="DejaVuSans-2e"/>
      </defs>
      <g style="fill:#555555;" transform="translate(77.128396 314.255937)scale(0.1 -0.1)">
       <use xlink:href="#DejaVuSans-30"/>
       <use x="63.623047" xlink:href="#DejaVuSans-2e"/>
       <use x="95.410156" xlink:href="#DejaVuSans-30"/>
      </g>
     </g>
    </g>
    <g id="xtick_2">
     <g id="line2d_3">
      <path clip-path="url(#p5aab1c7fe1)" d="M 134.463958 299.6575 
L 134.463958 13.32 
" style="fill:none;stroke:#ffffff;stroke-linecap:square;stroke-width:0.8;"/>
     </g>
     <g id="line2d_4">
      <g>
       <use style="fill:#555555;stroke:#555555;stroke-width:0.8;" x="134.463958" xlink:href="#m88cf7b26fe" y="299.6575"/>
      </g>
     </g>
     <g id="text_2">
      <!-- 0.5 -->
      <defs>
       <path d="M 10.796875 72.90625 
L 49.515625 72.90625 
L 49.515625 64.59375 
L 19.828125 64.59375 
L 19.828125 46.734375 
Q 21.96875 47.46875 24.109375 47.828125 
Q 26.265625 48.1875 28.421875 48.1875 
Q 40.625 48.1875 47.75 41.5 
Q 54.890625 34.8125 54.890625 23.390625 
Q 54.890625 11.625 47.5625 5.09375 
Q 40.234375 -1.421875 26.90625 -1.421875 
Q 22.3125 -1.421875 17.546875 -0.640625 
Q 12.796875 0.140625 7.71875 1.703125 
L 7.71875 11.625 
Q 12.109375 9.234375 16.796875 8.0625 
Q 21.484375 6.890625 26.703125 6.890625 
Q 35.15625 6.890625 40.078125 11.328125 
Q 45.015625 15.765625 45.015625 23.390625 
Q 45.015625 31 40.078125 35.4375 
Q 35.15625 39.890625 26.703125 39.890625 
Q 22.75 39.890625 18.8125 39.015625 
Q 14.890625 38.140625 10.796875 36.28125 
z
" id="DejaVuSans-35"/>
      </defs>
      <g style="fill:#555555;" transform="translate(126.512396 314.255937)scale(0.1 -0.1)">
       <use xlink:href="#DejaVuSans-30"/>
       <use x="63.623047" xlink:href="#DejaVuSans-2e"/>
       <use x="95.410156" xlink:href="#DejaVuSans-35"/>
      </g>
     </g>
    </g>
    <g id="xtick_3">
     <g id="line2d_5">
      <path clip-path="url(#p5aab1c7fe1)" d="M 183.847958 299.6575 
L 183.847958 13.32 
" style="fill:none;stroke:#ffffff;stroke-linecap:square;stroke-width:0.8;"/>
     </g>
     <g id="line2d_6">
      <g>
       <use style="fill:#555555;stroke:#555555;stroke-width:0.8;" x="183.847958" xlink:href="#m88cf7b26fe" y="299.6575"/>
      </g>
     </g>
     <g id="text_3">
      <!-- 1.0 -->
      <defs>
       <path d="M 12.40625 8.296875 
L 28.515625 8.296875 
L 28.515625 63.921875 
L 10.984375 60.40625 
L 10.984375 69.390625 
L 28.421875 72.90625 
L 38.28125 72.90625 
L 38.28125 8.296875 
L 54.390625 8.296875 
L 54.390625 0 
L 12.40625 0 
z
" id="DejaVuSans-31"/>
      </defs>
      <g style="fill:#555555;" transform="translate(175.896395 314.255937)scale(0.1 -0.1)">
       <use xlink:href="#DejaVuSans-31"/>
       <use x="63.623047" xlink:href="#DejaVuSans-2e"/>
       <use x="95.410156" xlink:href="#DejaVuSans-30"/>
      </g>
     </g>
    </g>
    <g id="xtick_4">
     <g id="line2d_7">
      <path clip-path="url(#p5aab1c7fe1)" d="M 233.231957 299.6575 
L 233.231957 13.32 
" style="fill:none;stroke:#ffffff;stroke-linecap:square;stroke-width:0.8;"/>
     </g>
     <g id="line2d_8">
      <g>
       <use style="fill:#555555;stroke:#555555;stroke-width:0.8;" x="233.231957" xlink:href="#m88cf7b26fe" y="299.6575"/>
      </g>
     </g>
     <g id="text_4">
      <!-- 1.5 -->
      <g style="fill:#555555;" transform="translate(225.280395 314.255937)scale(0.1 -0.1)">
       <use xlink:href="#DejaVuSans-31"/>
       <use x="63.623047" xlink:href="#DejaVuSans-2e"/>
       <use x="95.410156" xlink:href="#DejaVuSans-35"/>
      </g>
     </g>
    </g>
    <g id="xtick_5">
     <g id="line2d_9">
      <path clip-path="url(#p5aab1c7fe1)" d="M 282.615957 299.6575 
L 282.615957 13.32 
" style="fill:none;stroke:#ffffff;stroke-linecap:square;stroke-width:0.8;"/>
     </g>
     <g id="line2d_10">
      <g>
       <use style="fill:#555555;stroke:#555555;stroke-width:0.8;" x="282.615957" xlink:href="#m88cf7b26fe" y="299.6575"/>
      </g>
     </g>
     <g id="text_5">
      <!-- 2.0 -->
      <defs>
       <path d="M 19.1875 8.296875 
L 53.609375 8.296875 
L 53.609375 0 
L 7.328125 0 
L 7.328125 8.296875 
Q 12.9375 14.109375 22.625 23.890625 
Q 32.328125 33.6875 34.8125 36.53125 
Q 39.546875 41.84375 41.421875 45.53125 
Q 43.3125 49.21875 43.3125 52.78125 
Q 43.3125 58.59375 39.234375 62.25 
Q 35.15625 65.921875 28.609375 65.921875 
Q 23.96875 65.921875 18.8125 64.3125 
Q 13.671875 62.703125 7.8125 59.421875 
L 7.8125 69.390625 
Q 13.765625 71.78125 18.9375 73 
Q 24.125 74.21875 28.421875 74.21875 
Q 39.75 74.21875 46.484375 68.546875 
Q 53.21875 62.890625 53.21875 53.421875 
Q 53.21875 48.921875 51.53125 44.890625 
Q 49.859375 40.875 45.40625 35.40625 
Q 44.1875 33.984375 37.640625 27.21875 
Q 31.109375 20.453125 19.1875 8.296875 
z
" id="DejaVuSans-32"/>
      </defs>
      <g style="fill:#555555;" transform="translate(274.664395 314.255937)scale(0.1 -0.1)">
       <use xlink:href="#DejaVuSans-32"/>
       <use x="63.623047" xlink:href="#DejaVuSans-2e"/>
       <use x="95.410156" xlink:href="#DejaVuSans-30"/>
      </g>
     </g>
    </g>
    <g id="xtick_6">
     <g id="line2d_11">
      <path clip-path="url(#p5aab1c7fe1)" d="M 331.999957 299.6575 
L 331.999957 13.32 
" style="fill:none;stroke:#ffffff;stroke-linecap:square;stroke-width:0.8;"/>
     </g>
     <g id="line2d_12">
      <g>
       <use style="fill:#555555;stroke:#555555;stroke-width:0.8;" x="331.999957" xlink:href="#m88cf7b26fe" y="299.6575"/>
      </g>
     </g>
     <g id="text_6">
      <!-- 2.5 -->
      <g style="fill:#555555;" transform="translate(324.048394 314.255937)scale(0.1 -0.1)">
       <use xlink:href="#DejaVuSans-32"/>
       <use x="63.623047" xlink:href="#DejaVuSans-2e"/>
       <use x="95.410156" xlink:href="#DejaVuSans-35"/>
      </g>
     </g>
    </g>
    <g id="xtick_7">
     <g id="line2d_13">
      <path clip-path="url(#p5aab1c7fe1)" d="M 381.383956 299.6575 
L 381.383956 13.32 
" style="fill:none;stroke:#ffffff;stroke-linecap:square;stroke-width:0.8;"/>
     </g>
     <g id="line2d_14">
      <g>
       <use style="fill:#555555;stroke:#555555;stroke-width:0.8;" x="381.383956" xlink:href="#m88cf7b26fe" y="299.6575"/>
      </g>
     </g>
     <g id="text_7">
      <!-- 3.0 -->
      <defs>
       <path d="M 40.578125 39.3125 
Q 47.65625 37.796875 51.625 33 
Q 55.609375 28.21875 55.609375 21.1875 
Q 55.609375 10.40625 48.1875 4.484375 
Q 40.765625 -1.421875 27.09375 -1.421875 
Q 22.515625 -1.421875 17.65625 -0.515625 
Q 12.796875 0.390625 7.625 2.203125 
L 7.625 11.71875 
Q 11.71875 9.328125 16.59375 8.109375 
Q 21.484375 6.890625 26.8125 6.890625 
Q 36.078125 6.890625 40.9375 10.546875 
Q 45.796875 14.203125 45.796875 21.1875 
Q 45.796875 27.640625 41.28125 31.265625 
Q 36.765625 34.90625 28.71875 34.90625 
L 20.21875 34.90625 
L 20.21875 43.015625 
L 29.109375 43.015625 
Q 36.375 43.015625 40.234375 45.921875 
Q 44.09375 48.828125 44.09375 54.296875 
Q 44.09375 59.90625 40.109375 62.90625 
Q 36.140625 65.921875 28.71875 65.921875 
Q 24.65625 65.921875 20.015625 65.03125 
Q 15.375 64.15625 9.8125 62.3125 
L 9.8125 71.09375 
Q 15.4375 72.65625 20.34375 73.4375 
Q 25.25 74.21875 29.59375 74.21875 
Q 40.828125 74.21875 47.359375 69.109375 
Q 53.90625 64.015625 53.90625 55.328125 
Q 53.90625 49.265625 50.4375 45.09375 
Q 46.96875 40.921875 40.578125 39.3125 
z
" id="DejaVuSans-33"/>
      </defs>
      <g style="fill:#555555;" transform="translate(373.432394 314.255937)scale(0.1 -0.1)">
       <use xlink:href="#DejaVuSans-33"/>
       <use x="63.623047" xlink:href="#DejaVuSans-2e"/>
       <use x="95.410156" xlink:href="#DejaVuSans-30"/>
      </g>
     </g>
    </g>
    <g id="xtick_8">
     <g id="line2d_15">
      <path clip-path="url(#p5aab1c7fe1)" d="M 430.767956 299.6575 
L 430.767956 13.32 
" style="fill:none;stroke:#ffffff;stroke-linecap:square;stroke-width:0.8;"/>
     </g>
     <g id="line2d_16">
      <g>
       <use style="fill:#555555;stroke:#555555;stroke-width:0.8;" x="430.767956" xlink:href="#m88cf7b26fe" y="299.6575"/>
      </g>
     </g>
     <g id="text_8">
      <!-- 3.5 -->
      <g style="fill:#555555;" transform="translate(422.816394 314.255937)scale(0.1 -0.1)">
       <use xlink:href="#DejaVuSans-33"/>
       <use x="63.623047" xlink:href="#DejaVuSans-2e"/>
       <use x="95.410156" xlink:href="#DejaVuSans-35"/>
      </g>
     </g>
    </g>
    <g id="text_9">
     <!-- $t$ [fs] -->
     <defs>
      <path d="M 42.28125 54.6875 
L 40.921875 47.703125 
L 23 47.703125 
L 17.1875 18.015625 
Q 16.890625 16.359375 16.75 15.234375 
Q 16.609375 14.109375 16.609375 13.484375 
Q 16.609375 10.359375 18.484375 8.9375 
Q 20.359375 7.515625 24.515625 7.515625 
L 33.59375 7.515625 
L 32.078125 0 
L 23.484375 0 
Q 15.484375 0 11.546875 3.125 
Q 7.625 6.25 7.625 12.59375 
Q 7.625 13.71875 7.765625 15.0625 
Q 7.90625 16.40625 8.203125 18.015625 
L 14.015625 47.703125 
L 6.390625 47.703125 
L 7.8125 54.6875 
L 15.28125 54.6875 
L 18.3125 70.21875 
L 27.296875 70.21875 
L 24.3125 54.6875 
z
" id="DejaVuSans-Oblique-74"/>
      <path id="DejaVuSans-20"/>
      <path d="M 8.59375 75.984375 
L 29.296875 75.984375 
L 29.296875 69 
L 17.578125 69 
L 17.578125 -6.203125 
L 29.296875 -6.203125 
L 29.296875 -13.1875 
L 8.59375 -13.1875 
z
" id="DejaVuSans-5b"/>
      <path d="M 37.109375 75.984375 
L 37.109375 68.5 
L 28.515625 68.5 
Q 23.6875 68.5 21.796875 66.546875 
Q 19.921875 64.59375 19.921875 59.515625 
L 19.921875 54.6875 
L 34.71875 54.6875 
L 34.71875 47.703125 
L 19.921875 47.703125 
L 19.921875 0 
L 10.890625 0 
L 10.890625 47.703125 
L 2.296875 47.703125 
L 2.296875 54.6875 
L 10.890625 54.6875 
L 10.890625 58.5 
Q 10.890625 67.625 15.140625 71.796875 
Q 19.390625 75.984375 28.609375 75.984375 
z
" id="DejaVuSans-66"/>
      <path d="M 44.28125 53.078125 
L 44.28125 44.578125 
Q 40.484375 46.53125 36.375 47.5 
Q 32.28125 48.484375 27.875 48.484375 
Q 21.1875 48.484375 17.84375 46.4375 
Q 14.5 44.390625 14.5 40.28125 
Q 14.5 37.15625 16.890625 35.375 
Q 19.28125 33.59375 26.515625 31.984375 
L 29.59375 31.296875 
Q 39.15625 29.25 43.1875 25.515625 
Q 47.21875 21.78125 47.21875 15.09375 
Q 47.21875 7.46875 41.1875 3.015625 
Q 35.15625 -1.421875 24.609375 -1.421875 
Q 20.21875 -1.421875 15.453125 -0.5625 
Q 10.6875 0.296875 5.421875 2 
L 5.421875 11.28125 
Q 10.40625 8.6875 15.234375 7.390625 
Q 20.0625 6.109375 24.8125 6.109375 
Q 31.15625 6.109375 34.5625 8.28125 
Q 37.984375 10.453125 37.984375 14.40625 
Q 37.984375 18.0625 35.515625 20.015625 
Q 33.0625 21.96875 24.703125 23.78125 
L 21.578125 24.515625 
Q 13.234375 26.265625 9.515625 29.90625 
Q 5.8125 33.546875 5.8125 39.890625 
Q 5.8125 47.609375 11.28125 51.796875 
Q 16.75 56 26.8125 56 
Q 31.78125 56 36.171875 55.265625 
Q 40.578125 54.546875 44.28125 53.078125 
z
" id="DejaVuSans-73"/>
      <path d="M 30.421875 75.984375 
L 30.421875 -13.1875 
L 9.71875 -13.1875 
L 9.71875 -6.203125 
L 21.390625 -6.203125 
L 21.390625 69 
L 9.71875 69 
L 9.71875 75.984375 
z
" id="DejaVuSans-5d"/>
     </defs>
     <g style="fill:#555555;" transform="translate(235.58725 329.45375)scale(0.12 -0.12)">
      <use transform="translate(0 0.015625)" xlink:href="#DejaVuSans-Oblique-74"/>
      <use transform="translate(39.208984 0.015625)" xlink:href="#DejaVuSans-20"/>
      <use transform="translate(70.996094 0.015625)" xlink:href="#DejaVuSans-5b"/>
      <use transform="translate(110.009766 0.015625)" xlink:href="#DejaVuSans-66"/>
      <use transform="translate(145.214844 0.015625)" xlink:href="#DejaVuSans-73"/>
      <use transform="translate(197.314453 0.015625)" xlink:href="#DejaVuSans-5d"/>
     </g>
    </g>
   </g>
   <g id="matplotlib.axis_2">
    <g id="ytick_1">
     <g id="line2d_17">
      <path clip-path="url(#p5aab1c7fe1)" d="M 52.1345 287.140668 
L 447.48 287.140668 
" style="fill:none;stroke:#ffffff;stroke-linecap:square;stroke-width:0.8;"/>
     </g>
     <g id="line2d_18">
      <defs>
       <path d="M 0 0 
L -3.5 0 
" id="m217e501ed9" style="stroke:#555555;stroke-width:0.8;"/>
      </defs>
      <g>
       <use style="fill:#555555;stroke:#555555;stroke-width:0.8;" x="52.1345" xlink:href="#m217e501ed9" y="287.140668"/>
      </g>
     </g>
     <g id="text_10">
      <!-- −3 -->
      <defs>
       <path d="M 10.59375 35.5 
L 73.1875 35.5 
L 73.1875 27.203125 
L 10.59375 27.203125 
z
" id="DejaVuSans-2212"/>
      </defs>
      <g style="fill:#555555;" transform="translate(30.392313 290.939886)scale(0.1 -0.1)">
       <use xlink:href="#DejaVuSans-2212"/>
       <use x="83.789062" xlink:href="#DejaVuSans-33"/>
      </g>
     </g>
    </g>
    <g id="ytick_2">
     <g id="line2d_19">
      <path clip-path="url(#p5aab1c7fe1)" d="M 52.1345 243.590028 
L 447.48 243.590028 
" style="fill:none;stroke:#ffffff;stroke-linecap:square;stroke-width:0.8;"/>
     </g>
     <g id="line2d_20">
      <g>
       <use style="fill:#555555;stroke:#555555;stroke-width:0.8;" x="52.1345" xlink:href="#m217e501ed9" y="243.590028"/>
      </g>
     </g>
     <g id="text_11">
      <!-- −2 -->
      <g style="fill:#555555;" transform="translate(30.392313 247.389247)scale(0.1 -0.1)">
       <use xlink:href="#DejaVuSans-2212"/>
       <use x="83.789062" xlink:href="#DejaVuSans-32"/>
      </g>
     </g>
    </g>
    <g id="ytick_3">
     <g id="line2d_21">
      <path clip-path="url(#p5aab1c7fe1)" d="M 52.1345 200.039389 
L 447.48 200.039389 
" style="fill:none;stroke:#ffffff;stroke-linecap:square;stroke-width:0.8;"/>
     </g>
     <g id="line2d_22">
      <g>
       <use style="fill:#555555;stroke:#555555;stroke-width:0.8;" x="52.1345" xlink:href="#m217e501ed9" y="200.039389"/>
      </g>
     </g>
     <g id="text_12">
      <!-- −1 -->
      <g style="fill:#555555;" transform="translate(30.392313 203.838608)scale(0.1 -0.1)">
       <use xlink:href="#DejaVuSans-2212"/>
       <use x="83.789062" xlink:href="#DejaVuSans-31"/>
      </g>
     </g>
    </g>
    <g id="ytick_4">
     <g id="line2d_23">
      <path clip-path="url(#p5aab1c7fe1)" d="M 52.1345 156.48875 
L 447.48 156.48875 
" style="fill:none;stroke:#ffffff;stroke-linecap:square;stroke-width:0.8;"/>
     </g>
     <g id="line2d_24">
      <g>
       <use style="fill:#555555;stroke:#555555;stroke-width:0.8;" x="52.1345" xlink:href="#m217e501ed9" y="156.48875"/>
      </g>
     </g>
     <g id="text_13">
      <!-- 0 -->
      <g style="fill:#555555;" transform="translate(38.772 160.287969)scale(0.1 -0.1)">
       <use xlink:href="#DejaVuSans-30"/>
      </g>
     </g>
    </g>
    <g id="ytick_5">
     <g id="line2d_25">
      <path clip-path="url(#p5aab1c7fe1)" d="M 52.1345 112.938111 
L 447.48 112.938111 
" style="fill:none;stroke:#ffffff;stroke-linecap:square;stroke-width:0.8;"/>
     </g>
     <g id="line2d_26">
      <g>
       <use style="fill:#555555;stroke:#555555;stroke-width:0.8;" x="52.1345" xlink:href="#m217e501ed9" y="112.938111"/>
      </g>
     </g>
     <g id="text_14">
      <!-- 1 -->
      <g style="fill:#555555;" transform="translate(38.772 116.73733)scale(0.1 -0.1)">
       <use xlink:href="#DejaVuSans-31"/>
      </g>
     </g>
    </g>
    <g id="ytick_6">
     <g id="line2d_27">
      <path clip-path="url(#p5aab1c7fe1)" d="M 52.1345 69.387472 
L 447.48 69.387472 
" style="fill:none;stroke:#ffffff;stroke-linecap:square;stroke-width:0.8;"/>
     </g>
     <g id="line2d_28">
      <g>
       <use style="fill:#555555;stroke:#555555;stroke-width:0.8;" x="52.1345" xlink:href="#m217e501ed9" y="69.387472"/>
      </g>
     </g>
     <g id="text_15">
      <!-- 2 -->
      <g style="fill:#555555;" transform="translate(38.772 73.18669)scale(0.1 -0.1)">
       <use xlink:href="#DejaVuSans-32"/>
      </g>
     </g>
    </g>
    <g id="ytick_7">
     <g id="line2d_29">
      <path clip-path="url(#p5aab1c7fe1)" d="M 52.1345 25.836832 
L 447.48 25.836832 
" style="fill:none;stroke:#ffffff;stroke-linecap:square;stroke-width:0.8;"/>
     </g>
     <g id="line2d_30">
      <g>
       <use style="fill:#555555;stroke:#555555;stroke-width:0.8;" x="52.1345" xlink:href="#m217e501ed9" y="25.836832"/>
      </g>
     </g>
     <g id="text_16">
      <!-- 3 -->
      <g style="fill:#555555;" transform="translate(38.772 29.636051)scale(0.1 -0.1)">
       <use xlink:href="#DejaVuSans-33"/>
      </g>
     </g>
    </g>
    <g id="text_17">
     <!-- $E$ [$10^8$ V/m] -->
     <defs>
      <path d="M 16.890625 72.90625 
L 62.984375 72.90625 
L 61.375 64.59375 
L 25.09375 64.59375 
L 20.90625 43.015625 
L 55.71875 43.015625 
L 54.109375 34.71875 
L 19.28125 34.71875 
L 14.203125 8.296875 
L 51.3125 8.296875 
L 49.703125 0 
L 2.6875 0 
z
" id="DejaVuSans-Oblique-45"/>
      <path d="M 31.78125 34.625 
Q 24.75 34.625 20.71875 30.859375 
Q 16.703125 27.09375 16.703125 20.515625 
Q 16.703125 13.921875 20.71875 10.15625 
Q 24.75 6.390625 31.78125 6.390625 
Q 38.8125 6.390625 42.859375 10.171875 
Q 46.921875 13.96875 46.921875 20.515625 
Q 46.921875 27.09375 42.890625 30.859375 
Q 38.875 34.625 31.78125 34.625 
z
M 21.921875 38.8125 
Q 15.578125 40.375 12.03125 44.71875 
Q 8.5 49.078125 8.5 55.328125 
Q 8.5 64.0625 14.71875 69.140625 
Q 20.953125 74.21875 31.78125 74.21875 
Q 42.671875 74.21875 48.875 69.140625 
Q 55.078125 64.0625 55.078125 55.328125 
Q 55.078125 49.078125 51.53125 44.71875 
Q 48 40.375 41.703125 38.8125 
Q 48.828125 37.15625 52.796875 32.3125 
Q 56.78125 27.484375 56.78125 20.515625 
Q 56.78125 9.90625 50.3125 4.234375 
Q 43.84375 -1.421875 31.78125 -1.421875 
Q 19.734375 -1.421875 13.25 4.234375 
Q 6.78125 9.90625 6.78125 20.515625 
Q 6.78125 27.484375 10.78125 32.3125 
Q 14.796875 37.15625 21.921875 38.8125 
z
M 18.3125 54.390625 
Q 18.3125 48.734375 21.84375 45.5625 
Q 25.390625 42.390625 31.78125 42.390625 
Q 38.140625 42.390625 41.71875 45.5625 
Q 45.3125 48.734375 45.3125 54.390625 
Q 45.3125 60.0625 41.71875 63.234375 
Q 38.140625 66.40625 31.78125 66.40625 
Q 25.390625 66.40625 21.84375 63.234375 
Q 18.3125 60.0625 18.3125 54.390625 
z
" id="DejaVuSans-38"/>
      <path d="M 28.609375 0 
L 0.78125 72.90625 
L 11.078125 72.90625 
L 34.1875 11.53125 
L 57.328125 72.90625 
L 67.578125 72.90625 
L 39.796875 0 
z
" id="DejaVuSans-56"/>
      <path d="M 25.390625 72.90625 
L 33.6875 72.90625 
L 8.296875 -9.28125 
L 0 -9.28125 
z
" id="DejaVuSans-2f"/>
      <path d="M 52 44.1875 
Q 55.375 50.25 60.0625 53.125 
Q 64.75 56 71.09375 56 
Q 79.640625 56 84.28125 50.015625 
Q 88.921875 44.046875 88.921875 33.015625 
L 88.921875 0 
L 79.890625 0 
L 79.890625 32.71875 
Q 79.890625 40.578125 77.09375 44.375 
Q 74.3125 48.1875 68.609375 48.1875 
Q 61.625 48.1875 57.5625 43.546875 
Q 53.515625 38.921875 53.515625 30.90625 
L 53.515625 0 
L 44.484375 0 
L 44.484375 32.71875 
Q 44.484375 40.625 41.703125 44.40625 
Q 38.921875 48.1875 33.109375 48.1875 
Q 26.21875 48.1875 22.15625 43.53125 
Q 18.109375 38.875 18.109375 30.90625 
L 18.109375 0 
L 9.078125 0 
L 9.078125 54.6875 
L 18.109375 54.6875 
L 18.109375 46.1875 
Q 21.1875 51.21875 25.484375 53.609375 
Q 29.78125 56 35.6875 56 
Q 41.65625 56 45.828125 52.96875 
Q 50 49.953125 52 44.1875 
z
" id="DejaVuSans-6d"/>
     </defs>
     <g style="fill:#555555;" transform="translate(23.896687 191.28875)rotate(-90)scale(0.12 -0.12)">
      <use transform="translate(0 0.765625)" xlink:href="#DejaVuSans-Oblique-45"/>
      <use transform="translate(63.183594 0.765625)" xlink:href="#DejaVuSans-20"/>
      <use transform="translate(94.970703 0.765625)" xlink:href="#DejaVuSans-5b"/>
      <use transform="translate(133.984375 0.765625)" xlink:href="#DejaVuSans-31"/>
      <use transform="translate(197.607422 0.765625)" xlink:href="#DejaVuSans-30"/>
      <use transform="translate(262.1875 39.046875)scale(0.7)" xlink:href="#DejaVuSans-38"/>
      <use transform="translate(309.458008 0.765625)" xlink:href="#DejaVuSans-20"/>
      <use transform="translate(341.245117 0.765625)" xlink:href="#DejaVuSans-56"/>
      <use transform="translate(409.65332 0.765625)" xlink:href="#DejaVuSans-2f"/>
      <use transform="translate(443.344727 0.765625)" xlink:href="#DejaVuSans-6d"/>
      <use transform="translate(540.756836 0.765625)" xlink:href="#DejaVuSans-5d"/>
     </g>
    </g>
   </g>
   <g id="line2d_31">
    <path clip-path="url(#p5aab1c7fe1)" d="M 85.079958 156.48875 
L 85.409413 156.428819 
L 86.068322 155.960669 
L 86.727231 155.083436 
L 87.715595 153.258873 
L 89.033413 150.762 
L 89.692323 149.912908 
L 90.021777 149.667211 
L 90.351232 149.566132 
L 90.680686 149.625262 
L 91.010141 149.856858 
L 91.339595 150.269447 
L 91.998505 151.651159 
L 92.657414 153.753665 
L 93.645778 158.046954 
L 96.610869 172.405675 
L 97.269778 174.146229 
L 97.599232 174.623458 
L 97.928687 174.807166 
L 98.258142 174.679522 
L 98.587596 174.227959 
L 98.917051 173.445603 
L 99.57596 170.891347 
L 100.234869 167.085378 
L 101.223233 159.425366 
L 104.517779 130.961596 
L 105.176688 127.836868 
L 105.506143 126.900542 
L 105.835597 126.423312 
L 106.165052 126.427759 
L 106.494506 126.928746 
L 106.823961 127.932951 
L 107.48287 131.434937 
L 108.141779 136.814348 
L 109.130143 147.807829 
L 111.10687 174.687306 
L 112.095234 186.700701 
L 112.754143 192.832494 
L 113.413052 196.883206 
L 113.742507 198.007687 
L 114.071962 198.484917 
L 114.401416 198.292315 
L 114.730871 197.417986 
L 115.060325 195.86114 
L 115.719235 190.753523 
L 116.378144 183.189724 
L 117.366508 168.142589 
L 120.331599 117.065839 
L 120.990508 109.328415 
L 121.649417 104.351719 
L 121.978872 103.039083 
L 122.308326 102.561854 
L 122.637781 102.942611 
L 122.967235 104.190281 
L 123.29669 106.29977 
L 123.955599 113.013016 
L 124.614508 122.761204 
L 125.602872 141.861993 
L 128.567963 205.122622 
L 129.226873 214.465675 
L 129.885782 220.368355 
L 130.215236 221.869146 
L 130.544691 222.346375 
L 130.874145 221.777464 
L 131.2036 220.156451 
L 131.533055 217.494321 
L 132.191964 209.175444 
L 132.850873 197.242868 
L 133.839237 174.088425 
L 136.804328 98.643918 
L 137.463237 87.695234 
L 138.122146 80.866571 
L 138.451601 79.177625 
L 138.781055 78.700396 
L 139.11051 79.457462 
L 139.439965 81.451817 
L 139.769419 84.666589 
L 140.428328 94.591095 
L 141.087237 108.70806 
L 142.075601 135.916157 
L 144.711238 215.735798 
L 145.370147 230.37218 
L 146.029056 240.621069 
L 146.358511 243.853504 
L 146.687965 245.730604 
L 147.01742 246.207833 
L 147.346875 245.262613 
L 147.676329 242.894915 
L 148.005784 239.127502 
L 148.664693 227.597365 
L 149.323602 211.296012 
L 150.311966 180.034261 
L 152.947603 89.058408 
L 153.606512 72.511955 
L 154.265421 60.987199 
L 154.594875 57.381422 
L 154.92433 55.316167 
L 155.253785 54.838938 
L 155.583239 55.972313 
L 155.912694 58.713352 
L 156.242148 63.033407 
L 156.901058 76.169174 
L 157.559967 94.654917 
L 158.54833 129.970321 
L 161.183967 232.102386 
L 161.842876 250.55891 
L 162.501785 263.359534 
L 162.83124 267.338653 
L 163.160695 269.592062 
L 163.490149 270.069292 
L 163.819604 268.747762 
L 164.149058 265.63338 
L 164.478513 260.760683 
L 165.137422 246.019287 
L 165.796331 225.349155 
L 166.784695 185.980097 
L 169.090877 86.22303 
L 169.749786 64.379145 
L 170.408695 48.322844 
L 171.067605 39.063006 
L 171.397059 37.181458 
L 171.726514 37.181458 
L 172.055968 39.063006 
L 172.385423 42.796427 
L 173.044332 55.555102 
L 173.703241 74.65581 
L 174.691605 112.481969 
L 177.656696 238.32169 
L 178.315605 257.422398 
L 178.974515 270.181073 
L 179.303969 273.914494 
L 179.633424 275.796042 
L 179.962878 275.796042 
L 180.292333 273.914494 
L 180.621787 270.181073 
L 181.280697 257.422398 
L 181.939606 238.32169 
L 182.92797 200.495531 
L 185.893061 74.65581 
L 186.55197 55.555102 
L 187.210879 42.796427 
L 187.540334 39.063006 
L 187.869788 37.181458 
L 188.199243 37.181458 
L 188.528697 39.063006 
L 188.858152 42.796427 
L 189.517061 55.555102 
L 190.17597 74.65581 
L 191.164334 112.481969 
L 194.129425 238.32169 
L 194.788335 257.422398 
L 195.447244 270.181073 
L 195.776698 273.914494 
L 196.106153 275.796042 
L 196.435608 275.796042 
L 196.765062 273.914494 
L 197.094517 270.181073 
L 197.753426 257.422398 
L 198.412335 238.32169 
L 199.400699 200.495531 
L 202.36579 74.65581 
L 203.024699 55.555102 
L 203.683608 42.796427 
L 204.013063 39.063006 
L 204.342517 37.181458 
L 204.671972 37.181458 
L 205.001427 39.063006 
L 205.330881 42.796427 
L 205.98979 55.555102 
L 206.6487 74.65581 
L 207.637063 112.481969 
L 210.602155 238.32169 
L 211.261064 257.422398 
L 211.919973 270.181073 
L 212.249427 273.914494 
L 212.578882 275.796042 
L 212.908337 275.796042 
L 213.237791 273.914494 
L 213.567246 270.181073 
L 214.226155 257.422398 
L 214.885064 238.32169 
L 215.873428 200.495531 
L 218.838519 74.65581 
L 219.497428 55.555102 
L 220.156337 42.796427 
L 220.485792 39.063006 
L 220.815247 37.181458 
L 221.144701 37.181458 
L 221.474156 39.063006 
L 221.80361 42.796427 
L 222.46252 55.555102 
L 223.121429 74.65581 
L 224.109792 112.481969 
L 227.074884 238.32169 
L 227.733793 257.422398 
L 228.392702 270.181073 
L 228.722157 273.914494 
L 229.051611 275.796042 
L 229.381066 275.796042 
L 229.71052 273.914494 
L 230.039975 270.181073 
L 230.698884 257.422398 
L 231.357793 238.32169 
L 232.346157 200.495531 
L 235.311248 74.65581 
L 235.970157 55.555102 
L 236.629067 42.796427 
L 236.958521 39.063006 
L 237.287976 37.181458 
L 237.61743 37.181458 
L 237.946885 39.063006 
L 238.27634 42.796427 
L 238.935249 55.555102 
L 239.594158 74.65581 
L 240.582522 112.481969 
L 243.547613 238.32169 
L 244.206522 257.422398 
L 244.865431 270.181073 
L 245.194886 273.914494 
L 245.52434 275.796042 
L 245.853795 275.796042 
L 246.18325 273.914494 
L 246.512704 270.181073 
L 247.171613 257.422398 
L 247.830523 238.32169 
L 248.818886 200.495531 
L 251.783977 74.65581 
L 252.442887 55.555102 
L 253.101796 42.796427 
L 253.43125 39.063006 
L 253.760705 37.181458 
L 254.09016 37.181458 
L 254.419614 39.063006 
L 254.749069 42.796427 
L 255.407978 55.555102 
L 256.066887 74.65581 
L 257.055251 112.481969 
L 260.020342 238.32169 
L 260.679251 257.422398 
L 261.33816 270.181073 
L 261.667615 273.914494 
L 261.99707 275.796042 
L 262.326524 275.796042 
L 262.655979 273.914494 
L 262.985433 270.181073 
L 263.644342 257.422398 
L 264.303252 238.32169 
L 265.291615 200.495531 
L 268.256707 74.65581 
L 268.915616 55.555102 
L 269.574525 42.796427 
L 269.90398 39.063006 
L 270.233434 37.181458 
L 270.562889 37.181458 
L 270.892343 39.063006 
L 271.221798 42.796427 
L 271.880707 55.555102 
L 272.539616 74.65581 
L 273.52798 112.481969 
L 276.493071 238.32169 
L 277.15198 257.422398 
L 277.81089 270.181073 
L 278.140344 273.914494 
L 278.469799 275.796042 
L 278.799253 275.796042 
L 279.128708 273.914494 
L 279.458162 270.181073 
L 280.117072 257.422398 
L 280.775981 238.32169 
L 281.764345 200.495531 
L 284.729436 74.65581 
L 285.388345 55.555102 
L 286.047254 42.796427 
L 286.376709 39.063006 
L 286.706163 37.181458 
L 287.035618 37.181458 
L 287.365072 39.063006 
L 287.694527 42.796427 
L 288.353436 55.555102 
L 289.012345 74.65581 
L 290.000709 112.481969 
L 292.9658 238.32169 
L 293.62471 257.422398 
L 294.283619 270.181073 
L 294.613073 273.914494 
L 294.942528 275.796042 
L 295.271983 275.796042 
L 295.601437 273.914494 
L 295.930892 270.181073 
L 296.589801 257.422398 
L 297.24871 238.32169 
L 298.237074 200.495531 
L 301.202165 74.65581 
L 301.861074 55.555102 
L 302.519983 42.796427 
L 302.849438 39.063006 
L 303.178893 37.181458 
L 303.508347 37.181458 
L 303.837802 39.063006 
L 304.167256 42.796427 
L 304.826165 55.555102 
L 305.485075 74.65581 
L 306.473438 112.481969 
L 309.43853 238.32169 
L 310.097439 257.422398 
L 310.756348 270.181073 
L 311.085802 273.914494 
L 311.415257 275.796042 
L 311.744712 275.796042 
L 312.074166 273.914494 
L 312.403621 270.181073 
L 313.06253 257.422398 
L 313.721439 238.32169 
L 314.709803 200.495531 
L 317.674894 74.65581 
L 318.333803 55.555102 
L 318.992712 42.796427 
L 319.322167 39.063006 
L 319.651622 37.181458 
L 319.981076 37.181458 
L 320.310531 39.063006 
L 320.639985 42.796427 
L 321.298895 55.555102 
L 321.957804 74.65581 
L 322.946168 112.481969 
L 325.911259 238.32169 
L 326.570168 257.422398 
L 327.229077 270.181073 
L 327.558532 273.914494 
L 327.887986 275.796042 
L 328.217441 275.796042 
L 328.546895 273.914494 
L 328.87635 270.181073 
L 329.535259 257.422398 
L 330.194168 238.32169 
L 331.182532 200.495531 
L 334.147623 76.619801 
L 334.806533 58.784979 
L 335.465442 47.34412 
L 335.794896 44.229738 
L 336.124351 42.908208 
L 336.453805 43.385438 
L 336.78326 45.638847 
L 337.112715 49.617966 
L 337.771624 62.41859 
L 338.430533 80.875114 
L 339.418897 116.354566 
L 342.054533 218.322583 
L 342.713442 236.808326 
L 343.372352 249.944093 
L 343.701806 254.264148 
L 344.031261 257.005187 
L 344.360715 258.138562 
L 344.69017 257.661333 
L 345.019625 255.596078 
L 345.349079 251.990301 
L 346.007988 240.465545 
L 346.666898 223.919092 
L 347.655261 192.222256 
L 350.290898 101.681488 
L 350.949807 85.380135 
L 351.608716 73.849998 
L 351.938171 70.082585 
L 352.267625 67.714887 
L 352.59708 66.769667 
L 352.926535 67.246896 
L 353.255989 69.123996 
L 353.585444 72.356431 
L 354.244353 82.60532 
L 354.903262 97.241702 
L 355.891626 125.155922 
L 358.527263 204.26944 
L 359.186172 218.386405 
L 359.845081 228.310911 
L 360.174535 231.525683 
L 360.50399 233.520038 
L 360.833445 234.277104 
L 361.162899 233.799875 
L 361.492354 232.110929 
L 361.821808 229.251837 
L 362.480717 220.278815 
L 363.139627 207.552504 
L 364.12799 183.4209 
L 366.434173 122.855975 
L 367.422536 103.802056 
L 368.081445 95.483179 
L 368.4109 92.821049 
L 368.740355 91.200036 
L 369.069809 90.631125 
L 369.399264 91.108354 
L 369.728718 92.609145 
L 370.058173 95.094896 
L 370.717082 102.792049 
L 371.375991 113.60829 
L 372.364355 133.957278 
L 374.670537 184.362488 
L 375.658901 199.964484 
L 376.31781 206.67773 
L 376.647265 208.787219 
L 376.976719 210.034889 
L 377.306174 210.415646 
L 377.635628 209.938417 
L 377.965083 208.625781 
L 378.294537 206.513372 
L 378.953447 200.092086 
L 379.612356 191.185916 
L 380.60072 174.619544 
L 382.906902 134.374049 
L 383.565811 125.719565 
L 384.22472 119.345168 
L 384.883629 115.559514 
L 385.213084 114.685185 
L 385.542538 114.492583 
L 385.871993 114.969812 
L 386.201447 116.094294 
L 386.860357 120.145006 
L 387.519266 126.276799 
L 388.50763 138.290194 
L 391.143266 172.844414 
L 391.802175 179.074641 
L 392.461085 183.538968 
L 393.119994 186.048754 
L 393.449448 186.549741 
L 393.778903 186.554188 
L 394.108358 186.076958 
L 394.437812 185.140632 
L 395.096721 182.015904 
L 395.75563 177.48974 
L 396.743994 168.928269 
L 398.720722 150.780747 
L 399.709085 143.84092 
L 400.367995 140.645898 
L 401.026904 138.749541 
L 401.356358 138.297978 
L 401.685813 138.170334 
L 402.015267 138.354042 
L 402.344722 138.831271 
L 403.003631 140.571825 
L 403.66254 143.165509 
L 404.980359 149.808267 
L 406.298177 156.48875 
L 407.286541 160.361347 
L 407.94545 162.110008 
L 408.604359 163.120642 
L 408.933814 163.352238 
L 409.263268 163.411368 
L 409.592723 163.310289 
L 410.251632 162.692729 
L 410.910541 161.655483 
L 413.216723 157.410196 
L 413.875632 156.726583 
L 414.534542 156.48875 
L 414.534542 156.48875 
" style="fill:none;stroke:#e24a33;stroke-linecap:square;stroke-width:1.5;"/>
   </g>
   <g id="patch_3">
    <path d="M 52.1345 299.6575 
L 52.1345 13.32 
" style="fill:none;stroke:#ffffff;stroke-linecap:square;stroke-linejoin:miter;"/>
   </g>
   <g id="patch_4">
    <path d="M 447.48 299.6575 
L 447.48 13.32 
" style="fill:none;stroke:#ffffff;stroke-linecap:square;stroke-linejoin:miter;"/>
   </g>
   <g id="patch_5">
    <path d="M 52.1345 299.6575 
L 447.48 299.6575 
" style="fill:none;stroke:#ffffff;stroke-linecap:square;stroke-linejoin:miter;"/>
   </g>
   <g id="patch_6">
    <path d="M 52.1345 13.32 
L 447.48 13.32 
" style="fill:none;stroke:#ffffff;stroke-linecap:square;stroke-linejoin:miter;"/>
   </g>
  </g>
 </g>
 <defs>
  <clipPath id="p5aab1c7fe1">
   <rect height="286.3375" width="395.3455" x="52.1345" y="13.32"/>
  </clipPath>
 </defs>
</svg>
